<?xml version="1.0" encoding="UTF-8" standalone="no"?>
<!DOCTYPE svg PUBLIC "-//W3C//DTD SVG 1.1//EN"
 "http://www.w3.org/Graphics/SVG/1.1/DTD/svg11.dtd">
<!-- Generated by graphviz version 13.1.0 (20250701.0955)
 -->
<!-- Pages: 1 -->
<svg width="1976pt" height="511pt"
 viewBox="0.00 0.00 1976.00 511.00" xmlns="http://www.w3.org/2000/svg" xmlns:xlink="http://www.w3.org/1999/xlink">
<g id="graph0" class="graph" transform="scale(1 1) rotate(0) translate(4 506.5)">
<polygon fill="white" stroke="none" points="-4,4 -4,-506.5 1972.25,-506.5 1972.25,4 -4,4"/>
<g id="clust2" class="cluster">
<title>cluster_associated</title>
</g>
<!-- ITSThing -->
<g id="node1" class="node">
<title>ITSThing</title>
<polygon fill="lightgray" stroke="none" points="893.12,-476.38 893.12,-492.62 946.88,-492.62 946.88,-476.38 893.12,-476.38"/>
<text xml:space="preserve" text-anchor="start" x="894.12" y="-481.23" font-family="Arial" font-weight="bold" font-size="12.00">ITSThing</text>
<polygon fill="none" stroke="black" points="892.12,-475.38 892.12,-493.62 947.88,-493.62 947.88,-475.38 892.12,-475.38"/>
</g>
<!-- Alert -->
<g id="node2" class="node">
<title>Alert</title>
<polygon fill="lightgray" stroke="none" points="790.75,-412.25 790.75,-428.5 1049.25,-428.5 1049.25,-412.25 790.75,-412.25"/>
<text xml:space="preserve" text-anchor="start" x="906.5" y="-417.1" font-family="Arial" font-weight="bold" font-size="12.00">Alert</text>
<text xml:space="preserve" text-anchor="start" x="791.75" y="-399.85" font-family="Arial" font-size="12.00">genProp:hasDescription: string «exactly 1, only»</text>
<text xml:space="preserve" text-anchor="start" x="791.75" y="-383.6" font-family="Arial" font-size="12.00">headline: string «exactly 1, only»</text>
<text xml:space="preserve" text-anchor="start" x="791.75" y="-367.35" font-family="Arial" font-size="12.00">issuer: nonNegativeInteger «exactly 1, only»</text>
<text xml:space="preserve" text-anchor="start" x="791.75" y="-351.1" font-family="Arial" font-size="12.00">resources: string «only»</text>
<text xml:space="preserve" text-anchor="start" x="791.75" y="-334.85" font-family="Arial" font-size="12.00">website: anyURI «only»</text>
<polygon fill="none" stroke="black" points="789.75,-330 789.75,-429.5 1050.25,-429.5 1050.25,-330 789.75,-330"/>
</g>
<!-- Alert&#45;&gt;ITSThing -->
<g id="edge1" class="edge">
<title>Alert&#45;&gt;ITSThing</title>
<path fill="none" stroke="black" d="M920,-429.24C920,-438.13 920,-447.13 920,-455.18"/>
<polygon fill="none" stroke="black" points="916.5,-455.02 920,-465.02 923.5,-455.02 916.5,-455.02"/>
</g>
<!-- Alert&#45;&gt;Alert -->
<g id="edge20" class="edge">
<title>Alert&#45;&gt;Alert</title>
<path fill="none" stroke="black" d="M1050.11,-389.74C1061.28,-387.61 1068.25,-384.28 1068.25,-379.75 1068.25,-376.99 1065.66,-374.67 1061.11,-372.81"/>
<polygon fill="black" stroke="black" points="1062.14,-369.46 1051.57,-370.17 1060.27,-376.21 1062.14,-369.46"/>
<text xml:space="preserve" text-anchor="middle" x="1117" y="-376.25" font-family="Arial" font-size="10.00">«only» referencedAlert</text>
</g>
<!-- Invis -->
<!-- Alert&#45;&gt;Invis -->
<!-- activity_Activity -->
<g id="node4" class="node">
<title>activity_Activity</title>
<polygon fill="lightgray" stroke="none" points="17.5,-255.88 17.5,-272.12 106.5,-272.12 106.5,-255.88 17.5,-255.88"/>
<text xml:space="preserve" text-anchor="start" x="18.5" y="-260.73" font-family="Arial" font-weight="bold" font-size="12.00">activity:Activity</text>
<polygon fill="none" stroke="black" points="16.5,-254.88 16.5,-273.12 107.5,-273.12 107.5,-254.88 16.5,-254.88"/>
</g>
<!-- Alert&#45;&gt;activity_Activity -->
<g id="edge7" class="edge">
<title>Alert&#45;&gt;activity_Activity</title>
<path fill="none" stroke="black" d="M789.9,-373.13C556.42,-362.43 88.19,-337.85 63.5,-312 58.73,-307.01 56.95,-300.19 56.7,-293.29"/>
<polygon fill="black" stroke="black" points="60.19,-293.64 57.37,-283.42 53.2,-293.16 60.19,-293.64"/>
<text xml:space="preserve" text-anchor="middle" x="98.75" y="-302.5" font-family="Arial" font-size="10.00">«only» activities</text>
</g>
<!-- code_Code -->
<g id="node5" class="node">
<title>code_Code</title>
<polygon fill="lightgray" stroke="none" points="41.5,-171.88 41.5,-188.12 106.5,-188.12 106.5,-171.88 41.5,-171.88"/>
<text xml:space="preserve" text-anchor="start" x="42.5" y="-176.72" font-family="Arial" font-weight="bold" font-size="12.00">code:Code</text>
<polygon fill="none" stroke="black" points="40.5,-170.88 40.5,-189.12 107.5,-189.12 107.5,-170.88 40.5,-170.88"/>
</g>
<!-- Alert&#45;&gt;code_Code -->
<g id="edge9" class="edge">
<title>Alert&#45;&gt;code_Code</title>
<path fill="none" stroke="black" d="M789.87,-370.35C660.24,-360.77 455.87,-342.36 281,-312 225.67,-302.39 205.9,-311.72 158.25,-282 128.38,-263.37 103.93,-230.54 89.2,-207.38"/>
<polygon fill="black" stroke="black" points="92.33,-205.78 84.11,-199.1 86.37,-209.45 92.33,-205.78"/>
<text xml:space="preserve" text-anchor="middle" x="215.62" y="-260.5" font-family="Arial" font-size="10.00">«exactly 1, only» category</text>
</g>
<!-- Alert&#45;&gt;code_Code -->
<g id="edge10" class="edge">
<title>Alert&#45;&gt;code_Code</title>
<path fill="none" stroke="black" d="M789.79,-373.98C677.98,-367.26 513.42,-351.05 375,-312 344.09,-303.28 335.67,-300.27 309.25,-282 290.57,-269.09 292.37,-257.85 273,-246 224.29,-216.21 160.42,-198.51 118.35,-189.27"/>
<polygon fill="black" stroke="black" points="119.34,-185.9 108.83,-187.26 117.89,-192.75 119.34,-185.9"/>
<text xml:space="preserve" text-anchor="middle" x="338.12" y="-260.5" font-family="Arial" font-size="10.00">«only» cause</text>
</g>
<!-- Alert&#45;&gt;code_Code -->
<g id="edge11" class="edge">
<title>Alert&#45;&gt;code_Code</title>
<path fill="none" stroke="black" d="M790.12,-360.96C709.88,-349.1 605,-332.03 513,-312 463.49,-301.22 446.83,-307.43 403,-282 383.43,-270.64 386.77,-257 367,-246 315.94,-217.59 296.03,-228.73 239,-216 198.22,-206.9 151.65,-197.07 118.4,-190.15"/>
<polygon fill="black" stroke="black" points="119.21,-186.75 108.71,-188.14 117.79,-193.6 119.21,-186.75"/>
<text xml:space="preserve" text-anchor="middle" x="454" y="-260.5" font-family="Arial" font-size="10.00">«max 1, only» certainty</text>
</g>
<!-- Alert&#45;&gt;code_Code -->
<g id="edge13" class="edge">
<title>Alert&#45;&gt;code_Code</title>
<path fill="none" stroke="black" d="M790.09,-362.88C713.93,-349.46 617.97,-325.21 541.5,-282 521.66,-270.79 525.38,-256.2 505,-246 437.69,-212.31 214.69,-191.72 118.64,-184.23"/>
<polygon fill="black" stroke="black" points="119.06,-180.75 108.82,-183.47 118.52,-187.73 119.06,-180.75"/>
<text xml:space="preserve" text-anchor="middle" x="603.75" y="-260.5" font-family="Arial" font-size="10.00">«exactly 1, only» distribution</text>
</g>
<!-- Alert&#45;&gt;code_Code -->
<g id="edge14" class="edge">
<title>Alert&#45;&gt;code_Code</title>
<path fill="none" stroke="black" d="M789.95,-330.64C760.02,-316.97 729.18,-300.64 702.5,-282 683.82,-268.95 686.47,-256 666,-246 569.46,-198.84 239.5,-185.41 118.74,-182.03"/>
<polygon fill="black" stroke="black" points="118.99,-178.53 108.9,-181.76 118.8,-185.53 118.99,-178.53"/>
<text xml:space="preserve" text-anchor="middle" x="730.25" y="-260.5" font-family="Arial" font-size="10.00">«only» effect</text>
</g>
<!-- Alert&#45;&gt;code_Code -->
<g id="edge19" class="edge">
<title>Alert&#45;&gt;code_Code</title>
<path fill="none" stroke="black" d="M853.66,-330C834.2,-315.07 813.15,-298.28 794.5,-282 777.33,-267.02 778.2,-256.55 758,-246 646.13,-187.57 251.84,-181.32 118.47,-180.91"/>
<polygon fill="black" stroke="black" points="118.64,-177.41 108.63,-180.9 118.63,-184.41 118.64,-177.41"/>
<text xml:space="preserve" text-anchor="middle" x="846.25" y="-260.5" font-family="Arial" font-size="10.00">«only» recommendation</text>
</g>
<!-- Alert&#45;&gt;code_Code -->
<g id="edge21" class="edge">
<title>Alert&#45;&gt;code_Code</title>
<path fill="none" stroke="black" d="M924.99,-330.06C925.06,-301.72 919.81,-267.47 898,-246 842.13,-191.02 281.33,-182.54 118.25,-181.24"/>
<polygon fill="black" stroke="black" points="118.75,-177.74 108.73,-181.17 118.7,-184.74 118.75,-177.74"/>
<text xml:space="preserve" text-anchor="middle" x="968.07" y="-260.5" font-family="Arial" font-size="10.00">«max 1, only» severity</text>
</g>
<!-- Alert&#45;&gt;code_Code -->
<g id="edge22" class="edge">
<title>Alert&#45;&gt;code_Code</title>
<path fill="none" stroke="black" d="M993.05,-330.27C1022.63,-304.74 1045,-273.18 1022,-246 969.89,-184.43 923.21,-224.52 843,-216 569,-186.91 237.57,-181.98 118.92,-181.16"/>
<polygon fill="black" stroke="black" points="119,-177.66 108.98,-181.09 118.95,-184.66 119,-177.66"/>
<text xml:space="preserve" text-anchor="middle" x="1083.61" y="-260.5" font-family="Arial" font-size="10.00">«exactly 1, only» status</text>
</g>
<!-- Alert&#45;&gt;code_Code -->
<g id="edge23" class="edge">
<title>Alert&#45;&gt;code_Code</title>
<path fill="none" stroke="black" d="M1050.02,-347.49C1117.64,-325.12 1178.84,-291 1140,-246 1106.11,-206.73 316.75,-186.44 118.74,-181.96"/>
<polygon fill="black" stroke="black" points="118.94,-178.47 108.87,-181.74 118.78,-185.46 118.94,-178.47"/>
<text xml:space="preserve" text-anchor="middle" x="1201.61" y="-260.5" font-family="Arial" font-size="10.00">«max 1, only» urgency</text>
</g>
<!-- geo_Geometry -->
<g id="node6" class="node">
<title>geo_Geometry</title>
<polygon fill="lightgray" stroke="none" points="23.5,-98.88 23.5,-115.12 106.5,-115.12 106.5,-98.88 23.5,-98.88"/>
<text xml:space="preserve" text-anchor="start" x="24.5" y="-103.72" font-family="Arial" font-weight="bold" font-size="12.00">geo:Geometry</text>
<polygon fill="none" stroke="black" points="22.5,-97.88 22.5,-116.12 107.5,-116.12 107.5,-97.88 22.5,-97.88"/>
</g>
<!-- Alert&#45;&gt;geo_Geometry -->
<g id="edge18" class="edge">
<title>Alert&#45;&gt;geo_Geometry</title>
<path fill="none" stroke="black" d="M1050,-368.89C1170.53,-354.89 1321.91,-321.91 1255,-246 1178.71,-159.44 340.55,-119.25 118.64,-110.09"/>
<polygon fill="black" stroke="black" points="118.98,-106.6 108.84,-109.68 118.69,-113.59 118.98,-106.6"/>
<text xml:space="preserve" text-anchor="middle" x="1255.47" y="-218.5" font-family="Arial" font-size="10.00">«only» location</text>
</g>
<!-- time_Instant -->
<g id="node7" class="node">
<title>time_Instant</title>
<polygon fill="lightgray" stroke="none" points="38.62,-25.88 38.62,-42.12 107.38,-42.12 107.38,-25.88 38.62,-25.88"/>
<text xml:space="preserve" text-anchor="start" x="39.62" y="-30.73" font-family="Arial" font-weight="bold" font-size="12.00">time:Instant</text>
<polygon fill="none" stroke="black" points="37.62,-24.88 37.62,-43.12 108.38,-43.12 108.38,-24.88 37.62,-24.88"/>
</g>
<!-- Alert&#45;&gt;time_Instant -->
<g id="edge8" class="edge">
<title>Alert&#45;&gt;time_Instant</title>
<path fill="none" stroke="black" d="M1050.09,-369.18C1137.52,-360.03 1242.33,-342.9 1274,-312 1305.07,-281.69 1319.67,-249.45 1292,-216 1253.58,-169.56 338.19,-64.62 119.57,-40.16"/>
<polygon fill="black" stroke="black" points="120.06,-36.7 109.73,-39.06 119.28,-43.65 120.06,-36.7"/>
<text xml:space="preserve" text-anchor="middle" x="1297.56" y="-176.5" font-family="Arial" font-size="10.00">«max 1, only» beginTime</text>
</g>
<!-- Alert&#45;&gt;time_Instant -->
<g id="edge12" class="edge">
<title>Alert&#45;&gt;time_Instant</title>
<path fill="none" stroke="black" d="M1049.98,-373.11C1191.53,-363.33 1398,-336.76 1398,-265 1398,-265 1398,-265 1398,-106 1398,-40.58 354.58,-35.36 119.61,-35.01"/>
<polygon fill="black" stroke="black" points="119.62,-31.51 109.61,-35 119.61,-38.51 119.62,-31.51"/>
<text xml:space="preserve" text-anchor="middle" x="1464.75" y="-176.5" font-family="Arial" font-size="10.00">«exactly 1, only» creationTime</text>
</g>
<!-- Alert&#45;&gt;time_Instant -->
<g id="edge15" class="edge">
<title>Alert&#45;&gt;time_Instant</title>
<path fill="none" stroke="black" d="M1049.96,-368.86C1239.13,-352.68 1568,-317.08 1568,-265 1568,-265 1568,-265 1568,-106 1568,-31.62 371.82,-33.5 119.41,-34.72"/>
<polygon fill="black" stroke="black" points="119.61,-31.22 109.63,-34.77 119.65,-38.22 119.61,-31.22"/>
<text xml:space="preserve" text-anchor="middle" x="1619" y="-176.5" font-family="Arial" font-size="10.00">«max 1, only» endTime</text>
</g>
<!-- Alert&#45;&gt;time_Instant -->
<g id="edge16" class="edge">
<title>Alert&#45;&gt;time_Instant</title>
<path fill="none" stroke="black" d="M1050.23,-373C1273.61,-361.39 1706,-330.45 1706,-265 1706,-265 1706,-265 1706,-106 1706,4.06 1570.66,-79.4 1461,-70 1191.83,-46.92 329.92,-37.42 119.61,-35.42"/>
<polygon fill="black" stroke="black" points="119.66,-31.92 109.62,-35.32 119.59,-38.92 119.66,-31.92"/>
<text xml:space="preserve" text-anchor="middle" x="1745.75" y="-176.5" font-family="Arial" font-size="10.00">«only» expiryTime</text>
</g>
<!-- Alert&#45;&gt;time_Instant -->
<g id="edge17" class="edge">
<title>Alert&#45;&gt;time_Instant</title>
<path fill="none" stroke="black" d="M1050.2,-375.53C1299.99,-367.6 1822,-341.85 1822,-265 1822,-265 1822,-265 1822,-106 1822,-101.76 1616.98,-71.99 1594,-70 1297.02,-44.3 341.35,-36.71 119.36,-35.27"/>
<polygon fill="black" stroke="black" points="119.7,-31.78 109.68,-35.21 119.65,-38.78 119.7,-31.78"/>
<text xml:space="preserve" text-anchor="middle" x="1895.12" y="-176.5" font-family="Arial" font-size="10.00">«exactly 1, only» lastUpdateTime</text>
</g>
<!-- Invis&#45;&gt;activity_Activity -->
<!-- activity_Activity&#45;&gt;code_Code -->
<!-- code_Code&#45;&gt;geo_Geometry -->
<!-- geo_Geometry&#45;&gt;time_Instant -->
</g>
</svg>
