<?xml version="1.0" encoding="UTF-8" standalone="no"?>
<!DOCTYPE svg PUBLIC "-//W3C//DTD SVG 1.1//EN"
 "http://www.w3.org/Graphics/SVG/1.1/DTD/svg11.dtd">
<!-- Generated by graphviz version 13.1.0 (20250701.0955)
 -->
<!-- Pages: 1 -->
<svg width="1897pt" height="535pt"
 viewBox="0.00 0.00 1897.00 535.00" xmlns="http://www.w3.org/2000/svg" xmlns:xlink="http://www.w3.org/1999/xlink">
<g id="graph0" class="graph" transform="scale(1 1) rotate(0) translate(4 530.5)">
<polygon fill="white" stroke="none" points="-4,4 -4,-530.5 1893.25,-530.5 1893.25,4 -4,4"/>
<g id="clust2" class="cluster">
<title>cluster_associated</title>
</g>
<!-- ITSThing -->
<g id="node1" class="node">
<title>ITSThing</title>
<polygon fill="lightgray" stroke="none" points="898.12,-500.38 898.12,-516.62 951.88,-516.62 951.88,-500.38 898.12,-500.38"/>
<text xml:space="preserve" text-anchor="start" x="899.12" y="-505.23" font-family="Arial" font-weight="bold" font-size="12.00">ITSThing</text>
<polygon fill="none" stroke="black" points="897.12,-499.38 897.12,-517.62 952.88,-517.62 952.88,-499.38 897.12,-499.38"/>
</g>
<!-- Alert -->
<g id="node2" class="node">
<title>Alert</title>
<polygon fill="lightgray" stroke="none" points="795.75,-436.25 795.75,-452.5 1054.25,-452.5 1054.25,-436.25 795.75,-436.25"/>
<text xml:space="preserve" text-anchor="start" x="911.5" y="-441.1" font-family="Arial" font-weight="bold" font-size="12.00">Alert</text>
<text xml:space="preserve" text-anchor="start" x="796.75" y="-423.85" font-family="Arial" font-size="12.00">genProp:hasDescription: string «exactly 1, only»</text>
<text xml:space="preserve" text-anchor="start" x="796.75" y="-407.6" font-family="Arial" font-size="12.00">headline: string «exactly 1, only»</text>
<text xml:space="preserve" text-anchor="start" x="796.75" y="-391.35" font-family="Arial" font-size="12.00">issuer: nonNegativeInteger «exactly 1, only»</text>
<text xml:space="preserve" text-anchor="start" x="796.75" y="-375.1" font-family="Arial" font-size="12.00">resources: string «only»</text>
<text xml:space="preserve" text-anchor="start" x="796.75" y="-358.85" font-family="Arial" font-size="12.00">website: anyURI «only»</text>
<polygon fill="none" stroke="black" points="794.75,-354 794.75,-453.5 1055.25,-453.5 1055.25,-354 794.75,-354"/>
</g>
<!-- Alert&#45;&gt;ITSThing -->
<g id="edge1" class="edge">
<title>Alert&#45;&gt;ITSThing</title>
<path fill="none" stroke="black" d="M925,-453.24C925,-462.13 925,-471.13 925,-479.18"/>
<polygon fill="none" stroke="black" points="921.5,-479.02 925,-489.02 928.5,-479.02 921.5,-479.02"/>
</g>
<!-- Alert&#45;&gt;Alert -->
<g id="edge20" class="edge">
<title>Alert&#45;&gt;Alert</title>
<path fill="none" stroke="black" d="M1055.11,-413.74C1066.28,-411.61 1073.25,-408.28 1073.25,-403.75 1073.25,-400.99 1070.66,-398.67 1066.11,-396.81"/>
<polygon fill="black" stroke="black" points="1067.14,-393.46 1056.57,-394.17 1065.27,-400.21 1067.14,-393.46"/>
<text xml:space="preserve" text-anchor="middle" x="1132.88" y="-406.25" font-family="Arial" font-size="10.00">«only»</text>
<text xml:space="preserve" text-anchor="middle" x="1132.88" y="-394.25" font-family="Arial" font-size="10.00">onProperty: referencedAlert</text>
</g>
<!-- Invis -->
<!-- Alert&#45;&gt;Invis -->
<!-- activity_Activity -->
<g id="node4" class="node">
<title>activity_Activity</title>
<polygon fill="lightgray" stroke="none" points="17.5,-267.88 17.5,-284.12 106.5,-284.12 106.5,-267.88 17.5,-267.88"/>
<text xml:space="preserve" text-anchor="start" x="18.5" y="-272.73" font-family="Arial" font-weight="bold" font-size="12.00">activity:Activity</text>
<polygon fill="none" stroke="black" points="16.5,-266.88 16.5,-285.12 107.5,-285.12 107.5,-266.88 16.5,-266.88"/>
</g>
<!-- Alert&#45;&gt;activity_Activity -->
<g id="edge7" class="edge">
<title>Alert&#45;&gt;activity_Activity</title>
<path fill="none" stroke="black" d="M794.89,-397.25C560.09,-386.69 87.39,-362.29 62.75,-336 55.14,-327.88 53.85,-316.02 54.89,-305.06"/>
<polygon fill="black" stroke="black" points="58.34,-305.66 56.51,-295.23 51.43,-304.53 58.34,-305.66"/>
<text xml:space="preserve" text-anchor="middle" x="108.88" y="-326.5" font-family="Arial" font-size="10.00">«only»</text>
<text xml:space="preserve" text-anchor="middle" x="108.88" y="-314.5" font-family="Arial" font-size="10.00">onProperty: activities</text>
</g>
<!-- code_Code -->
<g id="node5" class="node">
<title>code_Code</title>
<polygon fill="lightgray" stroke="none" points="41.5,-171.88 41.5,-188.12 106.5,-188.12 106.5,-171.88 41.5,-171.88"/>
<text xml:space="preserve" text-anchor="start" x="42.5" y="-176.72" font-family="Arial" font-weight="bold" font-size="12.00">code:Code</text>
<polygon fill="none" stroke="black" points="40.5,-170.88 40.5,-189.12 107.5,-189.12 107.5,-170.88 40.5,-170.88"/>
</g>
<!-- Alert&#45;&gt;code_Code -->
<g id="edge9" class="edge">
<title>Alert&#45;&gt;code_Code</title>
<path fill="none" stroke="black" d="M794.93,-401.32C658.82,-397.15 439.9,-382.87 257,-336 210.8,-324.16 195.75,-323.47 158.25,-294 127.95,-270.18 103.04,-232.9 88.36,-207.74"/>
<polygon fill="black" stroke="black" points="91.43,-206.06 83.46,-199.08 85.34,-209.51 91.43,-206.06"/>
<text xml:space="preserve" text-anchor="middle" x="203.62" y="-278.5" font-family="Arial" font-size="10.00">«exactly 1, only»</text>
<text xml:space="preserve" text-anchor="middle" x="203.62" y="-266.5" font-family="Arial" font-size="10.00">onProperty: category</text>
</g>
<!-- Alert&#45;&gt;code_Code -->
<g id="edge10" class="edge">
<title>Alert&#45;&gt;code_Code</title>
<path fill="none" stroke="black" d="M794.89,-398.97C681.49,-392.88 513.62,-377.04 373,-336 331.59,-323.92 320.78,-318.82 285.5,-294 266.86,-280.89 267.85,-270.8 249,-258 207.76,-230 154.68,-208.35 117.85,-195.24"/>
<polygon fill="black" stroke="black" points="119.47,-192.1 108.87,-192.11 117.16,-198.71 119.47,-192.1"/>
<text xml:space="preserve" text-anchor="middle" x="325.25" y="-278.5" font-family="Arial" font-size="10.00">«only»</text>
<text xml:space="preserve" text-anchor="middle" x="325.25" y="-266.5" font-family="Arial" font-size="10.00">onProperty: cause</text>
</g>
<!-- Alert&#45;&gt;code_Code -->
<g id="edge11" class="edge">
<title>Alert&#45;&gt;code_Code</title>
<path fill="none" stroke="black" d="M794.88,-390.72C709.82,-380.81 596.93,-363.76 500,-336 454.15,-322.87 440.83,-320.62 401.25,-294 382.41,-281.33 384.67,-269.35 365,-258 303.18,-222.33 279.01,-234.23 210,-216 179.37,-207.91 144.8,-199.01 118.17,-192.22"/>
<polygon fill="black" stroke="black" points="119.31,-188.89 108.75,-189.81 117.58,-195.68 119.31,-188.89"/>
<text xml:space="preserve" text-anchor="middle" x="446.62" y="-278.5" font-family="Arial" font-size="10.00">«max 1, only»</text>
<text xml:space="preserve" text-anchor="middle" x="446.62" y="-266.5" font-family="Arial" font-size="10.00">onProperty: certainty</text>
</g>
<!-- Alert&#45;&gt;code_Code -->
<g id="edge13" class="edge">
<title>Alert&#45;&gt;code_Code</title>
<path fill="none" stroke="black" d="M794.93,-376.7C745.11,-365.66 688.02,-351.7 637,-336 587.58,-320.79 571.92,-322.07 528.5,-294 509.37,-281.63 512.13,-268.68 492,-258 407.93,-213.38 375.61,-233.23 282,-216 225.71,-205.64 160.62,-194.88 118.45,-188.08"/>
<polygon fill="black" stroke="black" points="119.12,-184.64 108.69,-186.5 118.01,-191.55 119.12,-184.64"/>
<text xml:space="preserve" text-anchor="middle" x="578.75" y="-278.5" font-family="Arial" font-size="10.00">«exactly 1, only»</text>
<text xml:space="preserve" text-anchor="middle" x="578.75" y="-266.5" font-family="Arial" font-size="10.00">onProperty: distribution</text>
</g>
<!-- Alert&#45;&gt;code_Code -->
<g id="edge14" class="edge">
<title>Alert&#45;&gt;code_Code</title>
<path fill="none" stroke="black" d="M794.96,-354.7C779.72,-348.61 764.46,-342.3 750,-336 711.28,-319.12 699.04,-318.66 664.75,-294 646.44,-280.84 649.02,-268.38 629,-258 529.75,-206.54 491.69,-231.67 381,-216 287.88,-202.82 178.33,-191.28 118.52,-185.31"/>
<polygon fill="black" stroke="black" points="119.04,-181.85 108.74,-184.34 118.35,-188.81 119.04,-181.85"/>
<text xml:space="preserve" text-anchor="middle" x="703.38" y="-278.5" font-family="Arial" font-size="10.00">«only»</text>
<text xml:space="preserve" text-anchor="middle" x="703.38" y="-266.5" font-family="Arial" font-size="10.00">onProperty: effect</text>
</g>
<!-- Alert&#45;&gt;code_Code -->
<g id="edge19" class="edge">
<title>Alert&#45;&gt;code_Code</title>
<path fill="none" stroke="black" d="M854.77,-354.23C829.81,-336.13 801.92,-314.88 777.75,-294 760.69,-279.26 762,-268.41 742,-258 632.67,-201.13 249.33,-185.69 118.3,-182.03"/>
<polygon fill="black" stroke="black" points="118.74,-178.54 108.65,-181.77 118.55,-185.53 118.74,-178.54"/>
<text xml:space="preserve" text-anchor="middle" x="840.38" y="-278.5" font-family="Arial" font-size="10.00">«only»</text>
<text xml:space="preserve" text-anchor="middle" x="840.38" y="-266.5" font-family="Arial" font-size="10.00">onProperty: recommendation</text>
</g>
<!-- Alert&#45;&gt;code_Code -->
<g id="edge21" class="edge">
<title>Alert&#45;&gt;code_Code</title>
<path fill="none" stroke="black" d="M931.02,-354.06C932.05,-322.49 927.47,-282.78 903,-258 847.52,-201.82 282.8,-185.45 118.57,-181.86"/>
<polygon fill="black" stroke="black" points="119.03,-178.37 108.96,-181.65 118.89,-185.36 119.03,-178.37"/>
<text xml:space="preserve" text-anchor="middle" x="967.43" y="-278.5" font-family="Arial" font-size="10.00">«max 1, only»</text>
<text xml:space="preserve" text-anchor="middle" x="967.43" y="-266.5" font-family="Arial" font-size="10.00">onProperty: severity</text>
</g>
<!-- Alert&#45;&gt;code_Code -->
<g id="edge22" class="edge">
<title>Alert&#45;&gt;code_Code</title>
<path fill="none" stroke="black" d="M986.27,-354.08C1015.53,-324.96 1039.4,-287.93 1015,-258 957.77,-187.79 297.87,-181.42 118.67,-180.99"/>
<polygon fill="black" stroke="black" points="118.85,-177.49 108.84,-180.97 118.84,-184.49 118.85,-177.49"/>
<text xml:space="preserve" text-anchor="middle" x="1065.22" y="-278.5" font-family="Arial" font-size="10.00">«exactly 1, only»</text>
<text xml:space="preserve" text-anchor="middle" x="1065.22" y="-266.5" font-family="Arial" font-size="10.00">onProperty: status</text>
</g>
<!-- Alert&#45;&gt;code_Code -->
<g id="edge23" class="edge">
<title>Alert&#45;&gt;code_Code</title>
<path fill="none" stroke="black" d="M1054.95,-354.11C1102.41,-328.86 1138.12,-295.46 1109,-258 1047.43,-178.79 309.58,-179.12 118.8,-180.55"/>
<polygon fill="black" stroke="black" points="118.77,-177.05 108.8,-180.63 118.83,-184.05 118.77,-177.05"/>
<text xml:space="preserve" text-anchor="middle" x="1163.38" y="-278.5" font-family="Arial" font-size="10.00">«max 1, only»</text>
<text xml:space="preserve" text-anchor="middle" x="1163.38" y="-266.5" font-family="Arial" font-size="10.00">onProperty: urgency</text>
</g>
<!-- geo_Geometry -->
<g id="node6" class="node">
<title>geo_Geometry</title>
<polygon fill="lightgray" stroke="none" points="23.5,-98.88 23.5,-115.12 106.5,-115.12 106.5,-98.88 23.5,-98.88"/>
<text xml:space="preserve" text-anchor="start" x="24.5" y="-103.72" font-family="Arial" font-weight="bold" font-size="12.00">geo:Geometry</text>
<polygon fill="none" stroke="black" points="22.5,-97.88 22.5,-116.12 107.5,-116.12 107.5,-97.88 22.5,-97.88"/>
</g>
<!-- Alert&#45;&gt;geo_Geometry -->
<g id="edge18" class="edge">
<title>Alert&#45;&gt;geo_Geometry</title>
<path fill="none" stroke="black" d="M1054.95,-383.34C1153.12,-363.01 1262.79,-324.53 1211,-258 1142.8,-170.4 336.11,-122.16 118.69,-110.69"/>
<polygon fill="black" stroke="black" points="118.98,-107.2 108.81,-110.18 118.61,-114.19 118.98,-107.2"/>
<text xml:space="preserve" text-anchor="middle" x="1229.19" y="-230.5" font-family="Arial" font-size="10.00">«only»</text>
<text xml:space="preserve" text-anchor="middle" x="1229.19" y="-218.5" font-family="Arial" font-size="10.00">onProperty: location</text>
</g>
<!-- time_Instant -->
<g id="node7" class="node">
<title>time_Instant</title>
<polygon fill="lightgray" stroke="none" points="38.62,-25.88 38.62,-42.12 107.38,-42.12 107.38,-25.88 38.62,-25.88"/>
<text xml:space="preserve" text-anchor="start" x="39.62" y="-30.73" font-family="Arial" font-weight="bold" font-size="12.00">time:Instant</text>
<polygon fill="none" stroke="black" points="37.62,-24.88 37.62,-43.12 108.38,-43.12 108.38,-24.88 37.62,-24.88"/>
</g>
<!-- Alert&#45;&gt;time_Instant -->
<g id="edge8" class="edge">
<title>Alert&#45;&gt;time_Instant</title>
<path fill="none" stroke="black" d="M1055.04,-395.61C1109.81,-387.23 1171.68,-370.16 1219,-336 1267.03,-301.33 1315.64,-260.9 1277,-216 1238.18,-170.89 335.7,-65.05 119.32,-40.26"/>
<polygon fill="black" stroke="black" points="119.92,-36.81 109.58,-39.15 119.12,-43.76 119.92,-36.81"/>
<text xml:space="preserve" text-anchor="middle" x="1279.51" y="-182.5" font-family="Arial" font-size="10.00">«max 1, only»</text>
<text xml:space="preserve" text-anchor="middle" x="1279.51" y="-170.5" font-family="Arial" font-size="10.00">onProperty: beginTime</text>
</g>
<!-- Alert&#45;&gt;time_Instant -->
<g id="edge12" class="edge">
<title>Alert&#45;&gt;time_Instant</title>
<path fill="none" stroke="black" d="M1055.2,-390.15C1182.4,-374.13 1357,-340.56 1357,-277 1357,-277 1357,-277 1357,-106 1357,-42.74 350.24,-35.84 119.66,-35.09"/>
<polygon fill="black" stroke="black" points="119.87,-31.59 109.86,-35.06 119.85,-38.59 119.87,-31.59"/>
<text xml:space="preserve" text-anchor="middle" x="1411.75" y="-182.5" font-family="Arial" font-size="10.00">«exactly 1, only»</text>
<text xml:space="preserve" text-anchor="middle" x="1411.75" y="-170.5" font-family="Arial" font-size="10.00">onProperty: creationTime</text>
</g>
<!-- Alert&#45;&gt;time_Instant -->
<g id="edge15" class="edge">
<title>Alert&#45;&gt;time_Instant</title>
<path fill="none" stroke="black" d="M1055.07,-400.22C1225.52,-393.31 1503,-368.08 1503,-277 1503,-277 1503,-277 1503,-106 1503,-35.08 366.1,-34.18 119.73,-34.82"/>
<polygon fill="black" stroke="black" points="119.85,-31.32 109.86,-34.85 119.87,-38.32 119.85,-31.32"/>
<text xml:space="preserve" text-anchor="middle" x="1548.38" y="-182.5" font-family="Arial" font-size="10.00">«max 1, only»</text>
<text xml:space="preserve" text-anchor="middle" x="1548.38" y="-170.5" font-family="Arial" font-size="10.00">onProperty: endTime</text>
</g>
<!-- Alert&#45;&gt;time_Instant -->
<g id="edge16" class="edge">
<title>Alert&#45;&gt;time_Instant</title>
<path fill="none" stroke="black" d="M1055.13,-392.58C1258.84,-374.89 1630,-334.73 1630,-277 1630,-277 1630,-277 1630,-106 1630,-104.54 1403.07,-71.31 1388,-70 1134.1,-48 323.47,-37.76 119.78,-35.49"/>
<polygon fill="black" stroke="black" points="119.89,-31.99 109.85,-35.38 119.82,-38.99 119.89,-31.99"/>
<text xml:space="preserve" text-anchor="middle" x="1680.62" y="-182.5" font-family="Arial" font-size="10.00">«only»</text>
<text xml:space="preserve" text-anchor="middle" x="1680.62" y="-170.5" font-family="Arial" font-size="10.00">onProperty: expiryTime</text>
</g>
<!-- Alert&#45;&gt;time_Instant -->
<g id="edge17" class="edge">
<title>Alert&#45;&gt;time_Instant</title>
<path fill="none" stroke="black" d="M1055.18,-396.48C1291.52,-383.34 1767,-348.08 1767,-277 1767,-277 1767,-277 1767,-106 1767,-88.26 1551.12,-77.69 1406,-70 902.58,-43.32 291.09,-36.7 119.65,-35.32"/>
<polygon fill="black" stroke="black" points="119.84,-31.82 109.81,-35.25 119.79,-38.82 119.84,-31.82"/>
<text xml:space="preserve" text-anchor="middle" x="1828.12" y="-182.5" font-family="Arial" font-size="10.00">«exactly 1, only»</text>
<text xml:space="preserve" text-anchor="middle" x="1828.12" y="-170.5" font-family="Arial" font-size="10.00">onProperty: lastUpdateTime</text>
</g>
<!-- Invis&#45;&gt;activity_Activity -->
<!-- activity_Activity&#45;&gt;code_Code -->
<!-- code_Code&#45;&gt;geo_Geometry -->
<!-- geo_Geometry&#45;&gt;time_Instant -->
</g>
</svg>
