<?xml version="1.0" encoding="UTF-8" standalone="no"?>
<!DOCTYPE svg PUBLIC "-//W3C//DTD SVG 1.1//EN"
 "http://www.w3.org/Graphics/SVG/1.1/DTD/svg11.dtd">
<!-- Generated by graphviz version 13.1.0 (20250701.0955)
 -->
<!-- Pages: 1 -->
<svg width="321pt" height="290pt"
 viewBox="0.00 0.00 321.00 290.00" xmlns="http://www.w3.org/2000/svg" xmlns:xlink="http://www.w3.org/1999/xlink">
<g id="graph0" class="graph" transform="scale(1 1) rotate(0) translate(4 286)">
<polygon fill="white" stroke="none" points="-4,4 -4,-286 317.25,-286 317.25,4 -4,4"/>
<g id="clust2" class="cluster">
<title>cluster_associated</title>
</g>
<!-- TravelledWay -->
<g id="node1" class="node">
<title>TravelledWay</title>
<polygon fill="lightgray" stroke="none" points="1,-255.88 1,-272.12 79.5,-272.12 79.5,-255.88 1,-255.88"/>
<text xml:space="preserve" text-anchor="start" x="2" y="-260.73" font-family="Arial" font-weight="bold" font-size="12.00">TravelledWay</text>
<polygon fill="none" stroke="black" points="0,-254.88 0,-273.12 80.5,-273.12 80.5,-254.88 0,-254.88"/>
</g>
<!-- Footpath -->
<g id="node2" class="node">
<title>Footpath</title>
<polygon fill="lightgray" stroke="none" points="13.38,-182.88 13.38,-199.12 67.12,-199.12 67.12,-182.88 13.38,-182.88"/>
<text xml:space="preserve" text-anchor="start" x="14.38" y="-187.72" font-family="Arial" font-weight="bold" font-size="12.00">Footpath</text>
<polygon fill="none" stroke="black" points="12.38,-181.88 12.38,-200.12 68.12,-200.12 68.12,-181.88 12.38,-181.88"/>
</g>
<!-- Footpath&#45;&gt;TravelledWay -->
<g id="edge1" class="edge">
<title>Footpath&#45;&gt;TravelledWay</title>
<path fill="none" stroke="black" d="M40.25,-208.71C40.25,-216.47 40.25,-225.92 40.25,-234.74"/>
<polygon fill="none" stroke="black" points="36.75,-234.66 40.25,-244.66 43.75,-234.66 36.75,-234.66"/>
</g>
<!-- Invis -->
<!-- Footpath&#45;&gt;Invis -->
<!-- FootpathLink -->
<g id="node4" class="node">
<title>FootpathLink</title>
<polygon fill="lightgray" stroke="none" points="212,-98.88 212,-115.12 290.5,-115.12 290.5,-98.88 212,-98.88"/>
<text xml:space="preserve" text-anchor="start" x="213" y="-103.72" font-family="Arial" font-weight="bold" font-size="12.00">FootpathLink</text>
<polygon fill="none" stroke="black" points="211,-97.88 211,-116.12 291.5,-116.12 291.5,-97.88 211,-97.88"/>
</g>
<!-- Footpath&#45;&gt;FootpathLink -->
<g id="edge5" class="edge">
<title>Footpath&#45;&gt;FootpathLink</title>
<path fill="none" stroke="black" stroke-dasharray="5,2" d="M33.76,-173.27C31.08,-163.29 30.06,-151.05 37.25,-143 60.94,-116.48 161.44,-132.28 196.25,-125 197.63,-124.71 199.02,-124.4 200.42,-124.08"/>
<polygon fill="black" stroke="black" points="200.94,-127.56 209.76,-121.69 199.2,-120.78 200.94,-127.56"/>
<text xml:space="preserve" text-anchor="middle" x="148.25" y="-145.5" font-family="Arial" font-size="10.00">«min 1, only» onProperty: partwhole:hasProperPart</text>
</g>
<!-- FootpathNetwork -->
<g id="node5" class="node">
<title>FootpathNetwork</title>
<polygon fill="lightgray" stroke="none" points="194.75,-25.88 194.75,-42.12 295.75,-42.12 295.75,-25.88 194.75,-25.88"/>
<text xml:space="preserve" text-anchor="start" x="195.75" y="-30.73" font-family="Arial" font-weight="bold" font-size="12.00">FootpathNetwork</text>
<polygon fill="none" stroke="black" points="193.75,-24.88 193.75,-43.12 296.75,-43.12 296.75,-24.88 193.75,-24.88"/>
</g>
<!-- Footpath&#45;&gt;FootpathNetwork -->
<g id="edge6" class="edge">
<title>Footpath&#45;&gt;FootpathNetwork</title>
<path fill="none" stroke="black" stroke-dasharray="5,2" d="M28.64,-173.11C15.3,-151.39 -2.42,-113.55 17,-89 37.32,-63.31 122.25,-48.58 182.55,-41.19"/>
<polygon fill="black" stroke="black" points="182.86,-44.67 192.38,-40.02 182.03,-37.72 182.86,-44.67"/>
<text xml:space="preserve" text-anchor="middle" x="109.62" y="-103.5" font-family="Arial" font-size="10.00">«only» onProperty: partwhole:properPartOf</text>
</g>
<!-- Invis&#45;&gt;FootpathLink -->
<!-- FootpathLink&#45;&gt;FootpathNetwork -->
</g>
</svg>
