<?xml version="1.0" encoding="UTF-8" standalone="no"?>
<!DOCTYPE svg PUBLIC "-//W3C//DTD SVG 1.1//EN"
 "http://www.w3.org/Graphics/SVG/1.1/DTD/svg11.dtd">
<!-- Generated by graphviz version 13.1.0 (20250701.0955)
 -->
<!-- Pages: 1 -->
<svg width="456pt" height="374pt"
 viewBox="0.00 0.00 456.00 374.00" xmlns="http://www.w3.org/2000/svg" xmlns:xlink="http://www.w3.org/1999/xlink">
<g id="graph0" class="graph" transform="scale(1 1) rotate(0) translate(4 370)">
<polygon fill="white" stroke="none" points="-4,4 -4,-370 452.25,-370 452.25,4 -4,4"/>
<g id="clust2" class="cluster">
<title>cluster_associated</title>
</g>
<!-- TransportNetwork -->
<g id="node1" class="node">
<title>TransportNetwork</title>
<polygon fill="lightgray" stroke="none" points="1,-339.88 1,-356.12 105.75,-356.12 105.75,-339.88 1,-339.88"/>
<text xml:space="preserve" text-anchor="start" x="2" y="-344.73" font-family="Arial" font-weight="bold" font-size="12.00">TransportNetwork</text>
<polygon fill="none" stroke="black" points="0,-338.88 0,-357.12 106.75,-357.12 106.75,-338.88 0,-338.88"/>
</g>
<!-- FootpathNetwork -->
<g id="node2" class="node">
<title>FootpathNetwork</title>
<polygon fill="lightgray" stroke="none" points="18.88,-255.88 18.88,-272.12 119.88,-272.12 119.88,-255.88 18.88,-255.88"/>
<text xml:space="preserve" text-anchor="start" x="19.88" y="-260.73" font-family="Arial" font-weight="bold" font-size="12.00">FootpathNetwork</text>
<polygon fill="none" stroke="black" points="17.88,-254.88 17.88,-273.12 120.88,-273.12 120.88,-254.88 17.88,-254.88"/>
</g>
<!-- FootpathNetwork&#45;&gt;TransportNetwork -->
<g id="edge1" class="edge">
<title>FootpathNetwork&#45;&gt;TransportNetwork</title>
<path fill="none" stroke="black" d="M66.06,-281.97C63.98,-292.63 61.25,-306.64 58.85,-318.92"/>
<polygon fill="none" stroke="black" points="55.46,-318.04 56.98,-328.52 62.33,-319.38 55.46,-318.04"/>
</g>
<!-- Invis -->
<!-- FootpathNetwork&#45;&gt;Invis -->
<!-- FootpathLink -->
<g id="node5" class="node">
<title>FootpathLink</title>
<polygon fill="lightgray" stroke="none" points="219.12,-98.88 219.12,-115.12 297.62,-115.12 297.62,-98.88 219.12,-98.88"/>
<text xml:space="preserve" text-anchor="start" x="220.12" y="-103.72" font-family="Arial" font-weight="bold" font-size="12.00">FootpathLink</text>
<polygon fill="none" stroke="black" points="218.12,-97.88 218.12,-116.12 298.62,-116.12 298.62,-97.88 218.12,-97.88"/>
</g>
<!-- FootpathNetwork&#45;&gt;FootpathLink -->
<g id="edge10" class="edge">
<title>FootpathNetwork&#45;&gt;FootpathLink</title>
<path fill="none" stroke="black" stroke-dasharray="5,2" d="M56.33,-246.25C41.24,-224.67 20.81,-187 40.38,-162 60.71,-136.02 149.41,-120.79 207.21,-113.45"/>
<polygon fill="black" stroke="black" points="207.33,-116.96 216.83,-112.27 206.48,-110.02 207.33,-116.96"/>
<text xml:space="preserve" text-anchor="middle" x="139.38" y="-176.5" font-family="Arial" font-size="10.00">«min 1» onProperty: partwhole:hasProperPart</text>
</g>
<!-- Union_partwhole_hasProperPart -->
<g id="node7" class="node">
<title>Union_partwhole_hasProperPart</title>
<polygon fill="lightyellow" stroke="none" points="200.5,-331.75 200.5,-364.25 448.25,-364.25 448.25,-331.75 200.5,-331.75"/>
<text xml:space="preserve" text-anchor="start" x="296.62" y="-350.85" font-family="Arial" font-size="12.00">«unionOf»</text>
<text xml:space="preserve" text-anchor="start" x="202.5" y="-336.6" font-family="Arial" font-size="12.00">[Footpath or FootpathLink or FootpathSection]</text>
<polygon fill="none" stroke="black" points="200.5,-331.75 200.5,-364.25 448.25,-364.25 448.25,-331.75 200.5,-331.75"/>
</g>
<!-- FootpathNetwork&#45;&gt;Union_partwhole_hasProperPart -->
<g id="edge9" class="edge">
<title>FootpathNetwork&#45;&gt;Union_partwhole_hasProperPart</title>
<path fill="none" stroke="black" stroke-dasharray="5,2" d="M71.52,-281.86C73.74,-292.14 78.24,-304.68 87.38,-312 104.09,-325.4 145.73,-333.69 189.53,-338.8"/>
<polygon fill="black" stroke="black" points="188.87,-342.25 199.2,-339.87 189.64,-335.29 188.87,-342.25"/>
<text xml:space="preserve" text-anchor="middle" x="183.38" y="-302.5" font-family="Arial" font-size="10.00">«only» onProperty: partwhole:hasProperPart</text>
</g>
<!-- Footpath -->
<g id="node4" class="node">
<title>Footpath</title>
<polygon fill="lightgray" stroke="none" points="248.5,-171.88 248.5,-188.12 302.25,-188.12 302.25,-171.88 248.5,-171.88"/>
<text xml:space="preserve" text-anchor="start" x="249.5" y="-176.72" font-family="Arial" font-weight="bold" font-size="12.00">Footpath</text>
<polygon fill="none" stroke="black" points="247.5,-170.88 247.5,-189.12 303.25,-189.12 303.25,-170.88 247.5,-170.88"/>
</g>
<!-- Invis&#45;&gt;Footpath -->
<!-- Footpath&#45;&gt;FootpathLink -->
<!-- FootpathSection -->
<g id="node6" class="node">
<title>FootpathSection</title>
<polygon fill="lightgray" stroke="none" points="204.75,-25.88 204.75,-42.12 302,-42.12 302,-25.88 204.75,-25.88"/>
<text xml:space="preserve" text-anchor="start" x="205.75" y="-30.73" font-family="Arial" font-weight="bold" font-size="12.00">FootpathSection</text>
<polygon fill="none" stroke="black" points="203.75,-24.88 203.75,-43.12 303,-43.12 303,-24.88 203.75,-24.88"/>
</g>
<!-- FootpathLink&#45;&gt;FootpathSection -->
<!-- Union_partwhole_hasProperPart&#45;&gt;Footpath -->
<g id="edge6" class="edge">
<title>Union_partwhole_hasProperPart&#45;&gt;Footpath</title>
<path fill="none" stroke="black" stroke-dasharray="1,5" d="M319.2,-330.05C315.75,-318.72 311.13,-303.48 307.12,-290 298.9,-262.29 289.68,-230.56 283.3,-208.51"/>
<polygon fill="black" stroke="black" points="286.72,-207.73 280.58,-199.09 279.99,-209.67 286.72,-207.73"/>
<text xml:space="preserve" text-anchor="middle" x="324.75" y="-260.5" font-family="Arial" font-size="10.00">member</text>
</g>
<!-- Union_partwhole_hasProperPart&#45;&gt;FootpathLink -->
<g id="edge7" class="edge">
<title>Union_partwhole_hasProperPart&#45;&gt;FootpathLink</title>
<path fill="none" stroke="black" stroke-dasharray="1,5" d="M331.21,-330.12C335.35,-318.94 340.24,-303.85 342.38,-290 345.35,-270.67 345.71,-265.27 342.38,-246 335.61,-206.94 333.57,-195.5 312.38,-162 305.66,-151.39 296.52,-141.24 287.67,-132.66"/>
<polygon fill="black" stroke="black" points="290.18,-130.21 280.47,-125.98 285.42,-135.34 290.18,-130.21"/>
<text xml:space="preserve" text-anchor="middle" x="356.72" y="-218.5" font-family="Arial" font-size="10.00">member</text>
</g>
<!-- Union_partwhole_hasProperPart&#45;&gt;FootpathSection -->
<g id="edge8" class="edge">
<title>Union_partwhole_hasProperPart&#45;&gt;FootpathSection</title>
<path fill="none" stroke="black" stroke-dasharray="1,5" d="M358.2,-330C380.79,-316 406.38,-293.79 406.38,-265 406.38,-265 406.38,-265 406.38,-106 406.38,-63.26 356.64,-46.18 313.88,-39.39"/>
<polygon fill="black" stroke="black" points="314.52,-35.94 304.13,-38.01 313.54,-42.87 314.52,-35.94"/>
<text xml:space="preserve" text-anchor="middle" x="424" y="-176.5" font-family="Arial" font-size="10.00">member</text>
</g>
</g>
</svg>
