<?xml version="1.0" encoding="UTF-8" standalone="no"?>
<!DOCTYPE svg PUBLIC "-//W3C//DTD SVG 1.1//EN"
 "http://www.w3.org/Graphics/SVG/1.1/DTD/svg11.dtd">
<!-- Generated by graphviz version 13.1.0 (20250701.0955)
 -->
<!-- Pages: 1 -->
<svg width="377pt" height="375pt"
 viewBox="0.00 0.00 377.00 375.00" xmlns="http://www.w3.org/2000/svg" xmlns:xlink="http://www.w3.org/1999/xlink">
<g id="graph0" class="graph" transform="scale(1 1) rotate(0) translate(4 371)">
<polygon fill="white" stroke="none" points="-4,4 -4,-371 373.25,-371 373.25,4 -4,4"/>
<g id="clust2" class="cluster">
<title>cluster_associated</title>
</g>
<!-- TravelledWaySection -->
<g id="node1" class="node">
<title>TravelledWaySection</title>
<polygon fill="lightgray" stroke="none" points="1,-340.88 1,-357.12 123,-357.12 123,-340.88 1,-340.88"/>
<text xml:space="preserve" text-anchor="start" x="2" y="-345.73" font-family="Arial" font-weight="bold" font-size="12.00">TravelledWaySection</text>
<polygon fill="none" stroke="black" points="0,-339.88 0,-358.12 124,-358.12 124,-339.88 0,-339.88"/>
</g>
<!-- FootpathSection -->
<g id="node2" class="node">
<title>FootpathSection</title>
<polygon fill="lightgray" stroke="none" points="30.38,-244.88 30.38,-261.12 127.62,-261.12 127.62,-244.88 30.38,-244.88"/>
<text xml:space="preserve" text-anchor="start" x="31.38" y="-249.72" font-family="Arial" font-weight="bold" font-size="12.00">FootpathSection</text>
<polygon fill="none" stroke="black" points="29.38,-243.88 29.38,-262.12 128.62,-262.12 128.62,-243.88 29.38,-243.88"/>
</g>
<!-- FootpathSection&#45;&gt;TravelledWaySection -->
<g id="edge1" class="edge">
<title>FootpathSection&#45;&gt;TravelledWaySection</title>
<path fill="none" stroke="black" d="M75.93,-270.98C73.45,-284.71 69.9,-304.32 67.01,-320.32"/>
<polygon fill="none" stroke="black" points="63.64,-319.24 65.31,-329.71 70.53,-320.49 63.64,-319.24"/>
</g>
<!-- Invis -->
<!-- FootpathSection&#45;&gt;Invis -->
<!-- FootpathNetwork -->
<g id="node5" class="node">
<title>FootpathNetwork</title>
<polygon fill="lightgray" stroke="none" points="183.5,-98.88 183.5,-115.12 284.5,-115.12 284.5,-98.88 183.5,-98.88"/>
<text xml:space="preserve" text-anchor="start" x="184.5" y="-103.72" font-family="Arial" font-weight="bold" font-size="12.00">FootpathNetwork</text>
<polygon fill="none" stroke="black" points="182.5,-97.88 182.5,-116.12 285.5,-116.12 285.5,-97.88 182.5,-97.88"/>
</g>
<!-- FootpathSection&#45;&gt;FootpathNetwork -->
<g id="edge9" class="edge">
<title>FootpathSection&#45;&gt;FootpathNetwork</title>
<path fill="none" stroke="black" stroke-dasharray="5,2" d="M63.21,-235.02C47.32,-215.82 27.39,-184.32 44.25,-162 59.76,-141.46 122.46,-126.43 171.59,-117.51"/>
<polygon fill="black" stroke="black" points="172.07,-120.98 181.31,-115.8 170.85,-114.09 172.07,-120.98"/>
<text xml:space="preserve" text-anchor="middle" x="121.12" y="-182.5" font-family="Arial" font-size="10.00">«only»</text>
<text xml:space="preserve" text-anchor="middle" x="121.12" y="-170.5" font-family="Arial" font-size="10.00">onProperty: partwhole:properPartOf</text>
</g>
<!-- Union_partwhole_hasProperPart -->
<g id="node7" class="node">
<title>Union_partwhole_hasProperPart</title>
<polygon fill="lightyellow" stroke="none" points="175.25,-332.75 175.25,-365.25 366.75,-365.25 366.75,-332.75 175.25,-332.75"/>
<text xml:space="preserve" text-anchor="start" x="243.25" y="-351.85" font-family="Arial" font-size="12.00">«unionOf»</text>
<text xml:space="preserve" text-anchor="start" x="177.25" y="-337.6" font-family="Arial" font-size="12.00">[FootpathLink or FootpathSegment]</text>
<polygon fill="none" stroke="black" points="175.25,-332.75 175.25,-365.25 366.75,-365.25 366.75,-332.75 175.25,-332.75"/>
</g>
<!-- FootpathSection&#45;&gt;Union_partwhole_hasProperPart -->
<g id="edge8" class="edge">
<title>FootpathSection&#45;&gt;Union_partwhole_hasProperPart</title>
<path fill="none" stroke="black" stroke-dasharray="5,2" d="M79.48,-270.95C80.8,-284.28 84.83,-302.34 96.5,-313 107.42,-322.98 134.58,-330.39 164.31,-335.75"/>
<polygon fill="black" stroke="black" points="163.41,-339.15 173.86,-337.38 164.59,-332.25 163.41,-339.15"/>
<text xml:space="preserve" text-anchor="middle" x="176.75" y="-303.5" font-family="Arial" font-size="10.00">«only»</text>
<text xml:space="preserve" text-anchor="middle" x="176.75" y="-291.5" font-family="Arial" font-size="10.00">onProperty: partwhole:hasProperPart</text>
</g>
<!-- FootpathLink -->
<g id="node4" class="node">
<title>FootpathLink</title>
<polygon fill="lightgray" stroke="none" points="207.75,-171.88 207.75,-188.12 286.25,-188.12 286.25,-171.88 207.75,-171.88"/>
<text xml:space="preserve" text-anchor="start" x="208.75" y="-176.72" font-family="Arial" font-weight="bold" font-size="12.00">FootpathLink</text>
<polygon fill="none" stroke="black" points="206.75,-170.88 206.75,-189.12 287.25,-189.12 287.25,-170.88 206.75,-170.88"/>
</g>
<!-- Invis&#45;&gt;FootpathLink -->
<!-- FootpathLink&#45;&gt;FootpathNetwork -->
<!-- FootpathSegment -->
<g id="node6" class="node">
<title>FootpathSegment</title>
<polygon fill="lightgray" stroke="none" points="181.62,-25.88 181.62,-42.12 286.38,-42.12 286.38,-25.88 181.62,-25.88"/>
<text xml:space="preserve" text-anchor="start" x="182.62" y="-30.73" font-family="Arial" font-weight="bold" font-size="12.00">FootpathSegment</text>
<polygon fill="none" stroke="black" points="180.62,-24.88 180.62,-43.12 287.38,-43.12 287.38,-24.88 180.62,-24.88"/>
</g>
<!-- FootpathNetwork&#45;&gt;FootpathSegment -->
<!-- Union_partwhole_hasProperPart&#45;&gt;FootpathLink -->
<g id="edge6" class="edge">
<title>Union_partwhole_hasProperPart&#45;&gt;FootpathLink</title>
<path fill="none" stroke="black" stroke-dasharray="1,5" d="M268.57,-331.07C264.45,-302.44 256.08,-244.17 251.06,-209.26"/>
<polygon fill="black" stroke="black" points="254.54,-208.88 249.66,-199.47 247.61,-209.87 254.54,-208.88"/>
<text xml:space="preserve" text-anchor="middle" x="278.62" y="-249.5" font-family="Arial" font-size="10.00">member</text>
</g>
<!-- Union_partwhole_hasProperPart&#45;&gt;FootpathSegment -->
<g id="edge7" class="edge">
<title>Union_partwhole_hasProperPart&#45;&gt;FootpathSegment</title>
<path fill="none" stroke="black" stroke-dasharray="1,5" d="M291.28,-331.19C309.7,-313.93 334,-285.24 334,-254 334,-254 334,-254 334,-106 334,-83.69 317.24,-67.74 297.45,-56.7"/>
<polygon fill="black" stroke="black" points="299.07,-53.59 288.57,-52.19 295.91,-59.84 299.07,-53.59"/>
<text xml:space="preserve" text-anchor="middle" x="351.62" y="-176.5" font-family="Arial" font-size="10.00">member</text>
</g>
</g>
</svg>
