<?xml version="1.0" encoding="UTF-8" standalone="no"?>
<!DOCTYPE svg PUBLIC "-//W3C//DTD SVG 1.1//EN"
 "http://www.w3.org/Graphics/SVG/1.1/DTD/svg11.dtd">
<!-- Generated by graphviz version 13.1.0 (20250701.0955)
 -->
<!-- Pages: 1 -->
<svg width="253pt" height="229pt"
 viewBox="0.00 0.00 253.00 229.00" xmlns="http://www.w3.org/2000/svg" xmlns:xlink="http://www.w3.org/1999/xlink">
<g id="graph0" class="graph" transform="scale(1 1) rotate(0) translate(4 225)">
<polygon fill="white" stroke="none" points="-4,4 -4,-225 248.5,-225 248.5,4 -4,4"/>
<g id="clust2" class="cluster">
<title>cluster_associated</title>
</g>
<!-- TravelledWayLane -->
<g id="node1" class="node">
<title>TravelledWayLane</title>
<polygon fill="lightgray" stroke="none" points="1,-194.88 1,-211.12 108,-211.12 108,-194.88 1,-194.88"/>
<text xml:space="preserve" text-anchor="start" x="2" y="-199.72" font-family="Arial" font-weight="bold" font-size="12.00">TravelledWayLane</text>
<polygon fill="none" stroke="black" points="0,-193.88 0,-212.12 109,-212.12 109,-193.88 0,-193.88"/>
</g>
<!-- FootpathLane -->
<g id="node2" class="node">
<title>FootpathLane</title>
<polygon fill="lightgray" stroke="none" points="13.38,-121.88 13.38,-138.12 95.62,-138.12 95.62,-121.88 13.38,-121.88"/>
<text xml:space="preserve" text-anchor="start" x="14.38" y="-126.72" font-family="Arial" font-weight="bold" font-size="12.00">FootpathLane</text>
<polygon fill="none" stroke="black" points="12.38,-120.88 12.38,-139.12 96.62,-139.12 96.62,-120.88 12.38,-120.88"/>
</g>
<!-- FootpathLane&#45;&gt;TravelledWayLane -->
<g id="edge1" class="edge">
<title>FootpathLane&#45;&gt;TravelledWayLane</title>
<path fill="none" stroke="black" d="M54.5,-147.71C54.5,-155.47 54.5,-164.92 54.5,-173.74"/>
<polygon fill="none" stroke="black" points="51,-173.66 54.5,-183.66 58,-173.66 51,-173.66"/>
</g>
<!-- Invis -->
<!-- FootpathLane&#45;&gt;Invis -->
<!-- FootpathSegment -->
<g id="node4" class="node">
<title>FootpathSegment</title>
<polygon fill="lightgray" stroke="none" points="123.12,-25.88 123.12,-42.12 227.88,-42.12 227.88,-25.88 123.12,-25.88"/>
<text xml:space="preserve" text-anchor="start" x="124.12" y="-30.73" font-family="Arial" font-weight="bold" font-size="12.00">FootpathSegment</text>
<polygon fill="none" stroke="black" points="122.12,-24.88 122.12,-43.12 228.88,-43.12 228.88,-24.88 122.12,-24.88"/>
</g>
<!-- FootpathLane&#45;&gt;FootpathSegment -->
<g id="edge4" class="edge">
<title>FootpathLane&#45;&gt;FootpathSegment</title>
<path fill="none" stroke="black" stroke-dasharray="5,2" d="M40.08,-112.1C31.14,-99.49 23.05,-82.37 32.75,-70 42.8,-57.19 78.28,-48.46 111.36,-42.92"/>
<polygon fill="black" stroke="black" points="111.62,-46.42 120.95,-41.4 110.52,-39.51 111.62,-46.42"/>
<text xml:space="preserve" text-anchor="middle" x="109.62" y="-84.5" font-family="Arial" font-size="10.00">«min 1, only»</text>
<text xml:space="preserve" text-anchor="middle" x="109.62" y="-72.5" font-family="Arial" font-size="10.00">onProperty: partwhole:properPartOf</text>
</g>
<!-- Invis&#45;&gt;FootpathSegment -->
</g>
</svg>
