<?xml version="1.0" encoding="UTF-8" standalone="no"?>
<!DOCTYPE svg PUBLIC "-//W3C//DTD SVG 1.1//EN"
 "http://www.w3.org/Graphics/SVG/1.1/DTD/svg11.dtd">
<!-- Generated by graphviz version 13.1.0 (20250701.0955)
 -->
<!-- Pages: 1 -->
<svg width="497pt" height="398pt"
 viewBox="0.00 0.00 497.00 398.00" xmlns="http://www.w3.org/2000/svg" xmlns:xlink="http://www.w3.org/1999/xlink">
<g id="graph0" class="graph" transform="scale(1 1) rotate(0) translate(4 394)">
<polygon fill="white" stroke="none" points="-4,4 -4,-394 493,-394 493,4 -4,4"/>
<g id="clust2" class="cluster">
<title>cluster_associated</title>
</g>
<!-- TravelledWaySegment -->
<g id="node1" class="node">
<title>TravelledWaySegment</title>
<polygon fill="lightgray" stroke="none" points="126.25,-363.88 126.25,-380.12 255.75,-380.12 255.75,-363.88 126.25,-363.88"/>
<text xml:space="preserve" text-anchor="start" x="127.25" y="-368.73" font-family="Arial" font-weight="bold" font-size="12.00">TravelledWaySegment</text>
<polygon fill="none" stroke="black" points="125.25,-362.88 125.25,-381.12 256.75,-381.12 256.75,-362.88 125.25,-362.88"/>
</g>
<!-- FootpathSegment -->
<g id="node2" class="node">
<title>FootpathSegment</title>
<polygon fill="lightgray" stroke="none" points="138.62,-267.88 138.62,-284.12 243.38,-284.12 243.38,-267.88 138.62,-267.88"/>
<text xml:space="preserve" text-anchor="start" x="139.62" y="-272.73" font-family="Arial" font-weight="bold" font-size="12.00">FootpathSegment</text>
<polygon fill="none" stroke="black" points="137.62,-266.88 137.62,-285.12 244.38,-285.12 244.38,-266.88 137.62,-266.88"/>
</g>
<!-- FootpathSegment&#45;&gt;TravelledWaySegment -->
<g id="edge1" class="edge">
<title>FootpathSegment&#45;&gt;TravelledWaySegment</title>
<path fill="none" stroke="black" d="M191,-293.98C191,-307.58 191,-326.94 191,-342.85"/>
<polygon fill="none" stroke="black" points="187.5,-342.68 191,-352.68 194.5,-342.68 187.5,-342.68"/>
</g>
<!-- Invis -->
<!-- FootpathSegment&#45;&gt;Invis -->
<!-- FootpathLane -->
<g id="node4" class="node">
<title>FootpathLane</title>
<polygon fill="lightgray" stroke="none" points="16.88,-171.88 16.88,-188.12 99.12,-188.12 99.12,-171.88 16.88,-171.88"/>
<text xml:space="preserve" text-anchor="start" x="17.88" y="-176.72" font-family="Arial" font-weight="bold" font-size="12.00">FootpathLane</text>
<polygon fill="none" stroke="black" points="15.88,-170.88 15.88,-189.12 100.12,-189.12 100.12,-170.88 15.88,-170.88"/>
</g>
<!-- FootpathSegment&#45;&gt;FootpathLane -->
<g id="edge6" class="edge">
<title>FootpathSegment&#45;&gt;FootpathLane</title>
<path fill="none" stroke="black" stroke-dasharray="5,2" d="M137.78,-260.41C134.47,-259.58 131.19,-258.77 128,-258 90.24,-248.94 66.97,-270.16 42.5,-240 35.24,-231.06 36.95,-219.06 41.31,-208.23"/>
<polygon fill="black" stroke="black" points="44.43,-209.82 45.66,-199.29 38.14,-206.75 44.43,-209.82"/>
<text xml:space="preserve" text-anchor="middle" x="122.75" y="-230.5" font-family="Arial" font-size="10.00">«min 1, only»</text>
<text xml:space="preserve" text-anchor="middle" x="122.75" y="-218.5" font-family="Arial" font-size="10.00">onProperty: partwhole:hasProperPart</text>
</g>
<!-- FootpathLink -->
<g id="node5" class="node">
<title>FootpathLink</title>
<polygon fill="lightgray" stroke="none" points="33.75,-98.88 33.75,-115.12 112.25,-115.12 112.25,-98.88 33.75,-98.88"/>
<text xml:space="preserve" text-anchor="start" x="34.75" y="-103.72" font-family="Arial" font-weight="bold" font-size="12.00">FootpathLink</text>
<polygon fill="none" stroke="black" points="32.75,-97.88 32.75,-116.12 113.25,-116.12 113.25,-97.88 32.75,-97.88"/>
</g>
<!-- FootpathSegment&#45;&gt;FootpathLink -->
<g id="edge10" class="edge">
<title>FootpathSegment&#45;&gt;FootpathLink</title>
<path fill="none" stroke="black" stroke-dasharray="5,2" d="M199.88,-258.06C204.99,-245.89 209.26,-229.34 203,-216 185.23,-178.13 146.93,-148.94 116.48,-130.52"/>
<polygon fill="black" stroke="black" points="118.61,-127.71 108.21,-125.68 115.08,-133.75 118.61,-127.71"/>
<text xml:space="preserve" text-anchor="middle" x="269.2" y="-182.5" font-family="Arial" font-size="10.00">«min 1»</text>
<text xml:space="preserve" text-anchor="middle" x="269.2" y="-170.5" font-family="Arial" font-size="10.00">onProperty: partwhole:properPartOf</text>
</g>
<!-- Union_partwhole_properPartOf -->
<g id="node7" class="node">
<title>Union_partwhole_properPartOf</title>
<polygon fill="lightyellow" stroke="none" points="305,-355.75 305,-388.25 489,-388.25 489,-355.75 305,-355.75"/>
<text xml:space="preserve" text-anchor="start" x="369.25" y="-374.85" font-family="Arial" font-size="12.00">«unionOf»</text>
<text xml:space="preserve" text-anchor="start" x="307" y="-360.6" font-family="Arial" font-size="12.00">[FootpathLink or FootpathSection]</text>
<polygon fill="none" stroke="black" points="305,-355.75 305,-388.25 489,-388.25 489,-355.75 305,-355.75"/>
</g>
<!-- FootpathSegment&#45;&gt;Union_partwhole_properPartOf -->
<g id="edge9" class="edge">
<title>FootpathSegment&#45;&gt;Union_partwhole_properPartOf</title>
<path fill="none" stroke="black" stroke-dasharray="5,2" d="M197.6,-293.92C203.75,-307.42 214.24,-325.72 229.25,-336 240.73,-343.87 266.24,-350.66 293.97,-356.11"/>
<polygon fill="black" stroke="black" points="293.15,-359.52 303.62,-357.93 294.45,-352.64 293.15,-359.52"/>
<text xml:space="preserve" text-anchor="middle" x="306.12" y="-326.5" font-family="Arial" font-size="10.00">«only»</text>
<text xml:space="preserve" text-anchor="middle" x="306.12" y="-314.5" font-family="Arial" font-size="10.00">onProperty: partwhole:properPartOf</text>
</g>
<!-- Invis&#45;&gt;FootpathLane -->
<!-- FootpathLane&#45;&gt;FootpathLink -->
<!-- FootpathSection -->
<g id="node6" class="node">
<title>FootpathSection</title>
<polygon fill="lightgray" stroke="none" points="17.38,-25.88 17.38,-42.12 114.62,-42.12 114.62,-25.88 17.38,-25.88"/>
<text xml:space="preserve" text-anchor="start" x="18.38" y="-30.73" font-family="Arial" font-weight="bold" font-size="12.00">FootpathSection</text>
<polygon fill="none" stroke="black" points="16.38,-24.88 16.38,-43.12 115.62,-43.12 115.62,-24.88 16.38,-24.88"/>
</g>
<!-- FootpathLink&#45;&gt;FootpathSection -->
<!-- Union_partwhole_properPartOf&#45;&gt;FootpathLink -->
<g id="edge7" class="edge">
<title>Union_partwhole_properPartOf&#45;&gt;FootpathLink</title>
<path fill="none" stroke="black" stroke-dasharray="1,5" d="M398.8,-354.01C401.99,-314.21 403.88,-214.35 350,-162 318.55,-131.43 195.61,-117.21 124.53,-111.42"/>
<polygon fill="black" stroke="black" points="124.92,-107.94 114.67,-110.65 124.37,-114.92 124.92,-107.94"/>
<text xml:space="preserve" text-anchor="middle" x="408.44" y="-224.5" font-family="Arial" font-size="10.00">member</text>
</g>
<!-- Union_partwhole_properPartOf&#45;&gt;FootpathSection -->
<g id="edge8" class="edge">
<title>Union_partwhole_properPartOf&#45;&gt;FootpathSection</title>
<path fill="none" stroke="black" stroke-dasharray="1,5" d="M412.55,-354.07C427.22,-336.27 447,-306.76 447,-277 447,-277 447,-277 447,-106 447,-73.82 234.29,-50.09 126.74,-40.15"/>
<polygon fill="black" stroke="black" points="127.2,-36.68 116.93,-39.26 126.57,-43.65 127.2,-36.68"/>
<text xml:space="preserve" text-anchor="middle" x="464.62" y="-176.5" font-family="Arial" font-size="10.00">member</text>
</g>
</g>
</svg>
