<?xml version="1.0" encoding="UTF-8" standalone="no"?>
<!DOCTYPE svg PUBLIC "-//W3C//DTD SVG 1.1//EN"
 "http://www.w3.org/Graphics/SVG/1.1/DTD/svg11.dtd">
<!-- Generated by graphviz version 13.1.0 (20250701.0955)
 -->
<!-- Pages: 1 -->
<svg width="587pt" height="374pt"
 viewBox="0.00 0.00 587.00 374.00" xmlns="http://www.w3.org/2000/svg" xmlns:xlink="http://www.w3.org/1999/xlink">
<g id="graph0" class="graph" transform="scale(1 1) rotate(0) translate(4 370)">
<polygon fill="white" stroke="none" points="-4,4 -4,-370 583,-370 583,4 -4,4"/>
<g id="clust2" class="cluster">
<title>cluster_associated</title>
</g>
<!-- TravelledWaySegment -->
<g id="node1" class="node">
<title>TravelledWaySegment</title>
<polygon fill="lightgray" stroke="none" points="159.25,-339.88 159.25,-356.12 288.75,-356.12 288.75,-339.88 159.25,-339.88"/>
<text xml:space="preserve" text-anchor="start" x="160.25" y="-344.73" font-family="Arial" font-weight="bold" font-size="12.00">TravelledWaySegment</text>
<polygon fill="none" stroke="black" points="158.25,-338.88 158.25,-357.12 289.75,-357.12 289.75,-338.88 158.25,-338.88"/>
</g>
<!-- FootpathSegment -->
<g id="node2" class="node">
<title>FootpathSegment</title>
<polygon fill="lightgray" stroke="none" points="171.62,-255.88 171.62,-272.12 276.38,-272.12 276.38,-255.88 171.62,-255.88"/>
<text xml:space="preserve" text-anchor="start" x="172.62" y="-260.73" font-family="Arial" font-weight="bold" font-size="12.00">FootpathSegment</text>
<polygon fill="none" stroke="black" points="170.62,-254.88 170.62,-273.12 277.38,-273.12 277.38,-254.88 170.62,-254.88"/>
</g>
<!-- FootpathSegment&#45;&gt;TravelledWaySegment -->
<g id="edge1" class="edge">
<title>FootpathSegment&#45;&gt;TravelledWaySegment</title>
<path fill="none" stroke="black" d="M224,-281.97C224,-292.52 224,-306.35 224,-318.54"/>
<polygon fill="none" stroke="black" points="220.5,-318.5 224,-328.5 227.5,-318.5 220.5,-318.5"/>
</g>
<!-- Invis -->
<!-- FootpathSegment&#45;&gt;Invis -->
<!-- FootpathLane -->
<g id="node4" class="node">
<title>FootpathLane</title>
<polygon fill="lightgray" stroke="none" points="16.88,-171.88 16.88,-188.12 99.12,-188.12 99.12,-171.88 16.88,-171.88"/>
<text xml:space="preserve" text-anchor="start" x="17.88" y="-176.72" font-family="Arial" font-weight="bold" font-size="12.00">FootpathLane</text>
<polygon fill="none" stroke="black" points="15.88,-170.88 15.88,-189.12 100.12,-189.12 100.12,-170.88 15.88,-170.88"/>
</g>
<!-- FootpathSegment&#45;&gt;FootpathLane -->
<g id="edge6" class="edge">
<title>FootpathSegment&#45;&gt;FootpathLane</title>
<path fill="none" stroke="black" stroke-dasharray="5,2" d="M170.71,-253.59C117.75,-244.11 44.09,-230.54 42,-228 37.21,-222.2 37.55,-214.88 40.07,-207.76"/>
<polygon fill="black" stroke="black" points="43.09,-209.55 44.34,-199.03 36.8,-206.48 43.09,-209.55"/>
<text xml:space="preserve" text-anchor="middle" x="153" y="-218.5" font-family="Arial" font-size="10.00">«min 1, only» onProperty: partwhole:hasProperPart</text>
</g>
<!-- FootpathLink -->
<g id="node5" class="node">
<title>FootpathLink</title>
<polygon fill="lightgray" stroke="none" points="33.75,-98.88 33.75,-115.12 112.25,-115.12 112.25,-98.88 33.75,-98.88"/>
<text xml:space="preserve" text-anchor="start" x="34.75" y="-103.72" font-family="Arial" font-weight="bold" font-size="12.00">FootpathLink</text>
<polygon fill="none" stroke="black" points="32.75,-97.88 32.75,-116.12 113.25,-116.12 113.25,-97.88 32.75,-97.88"/>
</g>
<!-- FootpathSegment&#45;&gt;FootpathLink -->
<g id="edge10" class="edge">
<title>FootpathSegment&#45;&gt;FootpathLink</title>
<path fill="none" stroke="black" stroke-dasharray="5,2" d="M252.16,-246.06C262.5,-237.58 270.32,-226.83 264,-216 234.03,-164.63 169.58,-135.75 123.85,-121.03"/>
<polygon fill="black" stroke="black" points="124.98,-117.72 114.39,-118.12 122.92,-124.41 124.98,-117.72"/>
<text xml:space="preserve" text-anchor="middle" x="346.59" y="-176.5" font-family="Arial" font-size="10.00">«min 1» onProperty: partwhole:properPartOf</text>
</g>
<!-- Union_partwhole_properPartOf -->
<g id="node7" class="node">
<title>Union_partwhole_properPartOf</title>
<polygon fill="lightyellow" stroke="none" points="395,-331.75 395,-364.25 579,-364.25 579,-331.75 395,-331.75"/>
<text xml:space="preserve" text-anchor="start" x="459.25" y="-350.85" font-family="Arial" font-size="12.00">«unionOf»</text>
<text xml:space="preserve" text-anchor="start" x="397" y="-336.6" font-family="Arial" font-size="12.00">[FootpathLink or FootpathSection]</text>
<polygon fill="none" stroke="black" points="395,-331.75 395,-364.25 579,-364.25 579,-331.75 395,-331.75"/>
</g>
<!-- FootpathSegment&#45;&gt;Union_partwhole_properPartOf -->
<g id="edge9" class="edge">
<title>FootpathSegment&#45;&gt;Union_partwhole_properPartOf</title>
<path fill="none" stroke="black" stroke-dasharray="5,2" d="M242.09,-281.91C254.14,-292.21 270.81,-304.75 287.75,-312 317.79,-324.86 352.31,-333 384.08,-338.14"/>
<polygon fill="black" stroke="black" points="383.29,-341.56 393.7,-339.61 384.34,-334.64 383.29,-341.56"/>
<text xml:space="preserve" text-anchor="middle" x="380.38" y="-302.5" font-family="Arial" font-size="10.00">«only» onProperty: partwhole:properPartOf</text>
</g>
<!-- Invis&#45;&gt;FootpathLane -->
<!-- FootpathLane&#45;&gt;FootpathLink -->
<!-- FootpathSection -->
<g id="node6" class="node">
<title>FootpathSection</title>
<polygon fill="lightgray" stroke="none" points="17.38,-25.88 17.38,-42.12 114.62,-42.12 114.62,-25.88 17.38,-25.88"/>
<text xml:space="preserve" text-anchor="start" x="18.38" y="-30.73" font-family="Arial" font-weight="bold" font-size="12.00">FootpathSection</text>
<polygon fill="none" stroke="black" points="16.38,-24.88 16.38,-43.12 115.62,-43.12 115.62,-24.88 16.38,-24.88"/>
</g>
<!-- FootpathLink&#45;&gt;FootpathSection -->
<!-- Union_partwhole_properPartOf&#45;&gt;FootpathLink -->
<g id="edge7" class="edge">
<title>Union_partwhole_properPartOf&#45;&gt;FootpathLink</title>
<path fill="none" stroke="black" stroke-dasharray="1,5" d="M488.94,-330.19C492.14,-293.62 493.98,-206.54 446,-162 400.29,-119.57 215.8,-110.39 124.58,-108.46"/>
<polygon fill="black" stroke="black" points="124.72,-104.97 114.66,-108.28 124.59,-111.97 124.72,-104.97"/>
<text xml:space="preserve" text-anchor="middle" x="499.7" y="-218.5" font-family="Arial" font-size="10.00">member</text>
</g>
<!-- Union_partwhole_properPartOf&#45;&gt;FootpathSection -->
<g id="edge8" class="edge">
<title>Union_partwhole_properPartOf&#45;&gt;FootpathSection</title>
<path fill="none" stroke="black" stroke-dasharray="1,5" d="M504.77,-330.25C519.14,-314.82 537,-290.51 537,-265 537,-265 537,-265 537,-106 537,-65 254.36,-44.92 126.98,-37.95"/>
<polygon fill="black" stroke="black" points="127.2,-34.45 117.03,-37.41 126.82,-41.44 127.2,-34.45"/>
<text xml:space="preserve" text-anchor="middle" x="554.62" y="-176.5" font-family="Arial" font-size="10.00">member</text>
</g>
</g>
</svg>
