<?xml version="1.0" encoding="UTF-8" standalone="no"?>
<!DOCTYPE svg PUBLIC "-//W3C//DTD SVG 1.1//EN"
 "http://www.w3.org/Graphics/SVG/1.1/DTD/svg11.dtd">
<!-- Generated by graphviz version 13.1.0 (20250701.0955)
 -->
<!-- Pages: 1 -->
<svg width="408pt" height="363pt"
 viewBox="0.00 0.00 408.00 363.00" xmlns="http://www.w3.org/2000/svg" xmlns:xlink="http://www.w3.org/1999/xlink">
<g id="graph0" class="graph" transform="scale(1 1) rotate(0) translate(4 359)">
<polygon fill="white" stroke="none" points="-4,4 -4,-359 404.25,-359 404.25,4 -4,4"/>
<g id="clust2" class="cluster">
<title>cluster_associated</title>
</g>
<!-- TravelledWaySection -->
<g id="node1" class="node">
<title>TravelledWaySection</title>
<polygon fill="lightgray" stroke="none" points="1,-328.88 1,-345.12 123,-345.12 123,-328.88 1,-328.88"/>
<text xml:space="preserve" text-anchor="start" x="2" y="-333.73" font-family="Arial" font-weight="bold" font-size="12.00">TravelledWaySection</text>
<polygon fill="none" stroke="black" points="0,-327.88 0,-346.12 124,-346.12 124,-327.88 0,-327.88"/>
</g>
<!-- FootpathSection -->
<g id="node2" class="node">
<title>FootpathSection</title>
<polygon fill="lightgray" stroke="none" points="29.38,-244.88 29.38,-261.12 126.62,-261.12 126.62,-244.88 29.38,-244.88"/>
<text xml:space="preserve" text-anchor="start" x="30.38" y="-249.72" font-family="Arial" font-weight="bold" font-size="12.00">FootpathSection</text>
<polygon fill="none" stroke="black" points="28.38,-243.88 28.38,-262.12 127.62,-262.12 127.62,-243.88 28.38,-243.88"/>
</g>
<!-- FootpathSection&#45;&gt;TravelledWaySection -->
<g id="edge1" class="edge">
<title>FootpathSection&#45;&gt;TravelledWaySection</title>
<path fill="none" stroke="black" d="M74.69,-270.97C72.61,-281.63 69.88,-295.64 67.48,-307.92"/>
<polygon fill="none" stroke="black" points="64.09,-307.04 65.61,-317.52 70.96,-308.38 64.09,-307.04"/>
</g>
<!-- Invis -->
<!-- FootpathSection&#45;&gt;Invis -->
<!-- FootpathNetwork -->
<g id="node5" class="node">
<title>FootpathNetwork</title>
<polygon fill="lightgray" stroke="none" points="214.5,-98.88 214.5,-115.12 315.5,-115.12 315.5,-98.88 214.5,-98.88"/>
<text xml:space="preserve" text-anchor="start" x="215.5" y="-103.72" font-family="Arial" font-weight="bold" font-size="12.00">FootpathNetwork</text>
<polygon fill="none" stroke="black" points="213.5,-97.88 213.5,-116.12 316.5,-116.12 316.5,-97.88 213.5,-97.88"/>
</g>
<!-- FootpathSection&#45;&gt;FootpathNetwork -->
<g id="edge9" class="edge">
<title>FootpathSection&#45;&gt;FootpathNetwork</title>
<path fill="none" stroke="black" stroke-dasharray="5,2" d="M62.49,-235.24C46.57,-215.95 26.4,-184.09 43.75,-162 63.18,-137.26 143.95,-122.41 202.29,-114.71"/>
<polygon fill="black" stroke="black" points="202.66,-118.2 212.14,-113.46 201.77,-111.25 202.66,-118.2"/>
<text xml:space="preserve" text-anchor="middle" x="136.38" y="-176.5" font-family="Arial" font-size="10.00">«only» onProperty: partwhole:properPartOf</text>
</g>
<!-- Union_partwhole_hasProperPart -->
<g id="node7" class="node">
<title>Union_partwhole_hasProperPart</title>
<polygon fill="lightyellow" stroke="none" points="206.25,-320.75 206.25,-353.25 397.75,-353.25 397.75,-320.75 206.25,-320.75"/>
<text xml:space="preserve" text-anchor="start" x="274.25" y="-339.85" font-family="Arial" font-size="12.00">«unionOf»</text>
<text xml:space="preserve" text-anchor="start" x="208.25" y="-325.6" font-family="Arial" font-size="12.00">[FootpathLink or FootpathSegment]</text>
<polygon fill="none" stroke="black" points="206.25,-320.75 206.25,-353.25 397.75,-353.25 397.75,-320.75 206.25,-320.75"/>
</g>
<!-- FootpathSection&#45;&gt;Union_partwhole_hasProperPart -->
<g id="edge8" class="edge">
<title>FootpathSection&#45;&gt;Union_partwhole_hasProperPart</title>
<path fill="none" stroke="black" stroke-dasharray="5,2" d="M80.2,-270.79C82.44,-281.05 86.95,-293.58 96,-301 111.77,-313.93 153.44,-322.25 195.2,-327.52"/>
<polygon fill="black" stroke="black" points="194.54,-330.97 204.88,-328.68 195.37,-324.02 194.54,-330.97"/>
<text xml:space="preserve" text-anchor="middle" x="192" y="-291.5" font-family="Arial" font-size="10.00">«only» onProperty: partwhole:hasProperPart</text>
</g>
<!-- FootpathLink -->
<g id="node4" class="node">
<title>FootpathLink</title>
<polygon fill="lightgray" stroke="none" points="238.75,-171.88 238.75,-188.12 317.25,-188.12 317.25,-171.88 238.75,-171.88"/>
<text xml:space="preserve" text-anchor="start" x="239.75" y="-176.72" font-family="Arial" font-weight="bold" font-size="12.00">FootpathLink</text>
<polygon fill="none" stroke="black" points="237.75,-170.88 237.75,-189.12 318.25,-189.12 318.25,-170.88 237.75,-170.88"/>
</g>
<!-- Invis&#45;&gt;FootpathLink -->
<!-- FootpathLink&#45;&gt;FootpathNetwork -->
<!-- FootpathSegment -->
<g id="node6" class="node">
<title>FootpathSegment</title>
<polygon fill="lightgray" stroke="none" points="212.62,-25.88 212.62,-42.12 317.38,-42.12 317.38,-25.88 212.62,-25.88"/>
<text xml:space="preserve" text-anchor="start" x="213.62" y="-30.73" font-family="Arial" font-weight="bold" font-size="12.00">FootpathSegment</text>
<polygon fill="none" stroke="black" points="211.62,-24.88 211.62,-43.12 318.38,-43.12 318.38,-24.88 211.62,-24.88"/>
</g>
<!-- FootpathNetwork&#45;&gt;FootpathSegment -->
<!-- Union_partwhole_hasProperPart&#45;&gt;FootpathLink -->
<g id="edge6" class="edge">
<title>Union_partwhole_hasProperPart&#45;&gt;FootpathLink</title>
<path fill="none" stroke="black" stroke-dasharray="1,5" d="M299.39,-319.12C295.29,-292.68 287.32,-241.22 282.35,-209.12"/>
<polygon fill="black" stroke="black" points="285.83,-208.7 280.84,-199.36 278.91,-209.78 285.83,-208.7"/>
<text xml:space="preserve" text-anchor="middle" x="310.79" y="-249.5" font-family="Arial" font-size="10.00">member</text>
</g>
<!-- Union_partwhole_hasProperPart&#45;&gt;FootpathSegment -->
<g id="edge7" class="edge">
<title>Union_partwhole_hasProperPart&#45;&gt;FootpathSegment</title>
<path fill="none" stroke="black" stroke-dasharray="1,5" d="M325.82,-319.02C343.66,-304.14 365,-280.75 365,-254 365,-254 365,-254 365,-106 365,-83.69 348.24,-67.74 328.45,-56.7"/>
<polygon fill="black" stroke="black" points="330.07,-53.59 319.57,-52.19 326.91,-59.84 330.07,-53.59"/>
<text xml:space="preserve" text-anchor="middle" x="382.62" y="-176.5" font-family="Arial" font-size="10.00">member</text>
</g>
</g>
</svg>
