<?xml version="1.0" encoding="UTF-8" standalone="no"?>
<!DOCTYPE svg PUBLIC "-//W3C//DTD SVG 1.1//EN"
 "http://www.w3.org/Graphics/SVG/1.1/DTD/svg11.dtd">
<!-- Generated by graphviz version 13.1.0 (20250701.0955)
 -->
<!-- Pages: 1 -->
<svg width="279pt" height="217pt"
 viewBox="0.00 0.00 279.00 217.00" xmlns="http://www.w3.org/2000/svg" xmlns:xlink="http://www.w3.org/1999/xlink">
<g id="graph0" class="graph" transform="scale(1 1) rotate(0) translate(4 213)">
<polygon fill="white" stroke="none" points="-4,4 -4,-213 275.47,-213 275.47,4 -4,4"/>
<g id="clust2" class="cluster">
<title>cluster_associated</title>
</g>
<!-- TravelledWayLane -->
<g id="node1" class="node">
<title>TravelledWayLane</title>
<polygon fill="lightgray" stroke="none" points="19.97,-182.88 19.97,-199.12 126.97,-199.12 126.97,-182.88 19.97,-182.88"/>
<text xml:space="preserve" text-anchor="start" x="20.97" y="-187.72" font-family="Arial" font-weight="bold" font-size="12.00">TravelledWayLane</text>
<polygon fill="none" stroke="black" points="18.97,-181.88 18.97,-200.12 127.97,-200.12 127.97,-181.88 18.97,-181.88"/>
</g>
<!-- FootpathLane -->
<g id="node2" class="node">
<title>FootpathLane</title>
<polygon fill="lightgray" stroke="none" points="32.34,-109.88 32.34,-126.12 114.59,-126.12 114.59,-109.88 32.34,-109.88"/>
<text xml:space="preserve" text-anchor="start" x="33.34" y="-114.72" font-family="Arial" font-weight="bold" font-size="12.00">FootpathLane</text>
<polygon fill="none" stroke="black" points="31.34,-108.88 31.34,-127.12 115.59,-127.12 115.59,-108.88 31.34,-108.88"/>
</g>
<!-- FootpathLane&#45;&gt;TravelledWayLane -->
<g id="edge1" class="edge">
<title>FootpathLane&#45;&gt;TravelledWayLane</title>
<path fill="none" stroke="black" d="M73.47,-135.71C73.47,-143.47 73.47,-152.92 73.47,-161.74"/>
<polygon fill="none" stroke="black" points="69.97,-161.66 73.47,-171.66 76.97,-161.66 69.97,-161.66"/>
</g>
<!-- Invis -->
<!-- FootpathLane&#45;&gt;Invis -->
<!-- FootpathSegment -->
<g id="node4" class="node">
<title>FootpathSegment</title>
<polygon fill="lightgray" stroke="none" points="150.09,-25.88 150.09,-42.12 254.84,-42.12 254.84,-25.88 150.09,-25.88"/>
<text xml:space="preserve" text-anchor="start" x="151.09" y="-30.73" font-family="Arial" font-weight="bold" font-size="12.00">FootpathSegment</text>
<polygon fill="none" stroke="black" points="149.09,-24.88 149.09,-43.12 255.84,-43.12 255.84,-24.88 149.09,-24.88"/>
</g>
<!-- FootpathLane&#45;&gt;FootpathSegment -->
<g id="edge4" class="edge">
<title>FootpathLane&#45;&gt;FootpathSegment</title>
<path fill="none" stroke="black" stroke-dasharray="5,2" d="M31.79,-104.94C10.69,-96.73 -8.11,-84.69 4.22,-70 21.13,-49.84 86.76,-41.28 137.93,-37.66"/>
<polygon fill="black" stroke="black" points="138.01,-41.16 147.76,-37.02 137.55,-34.18 138.01,-41.16"/>
<text xml:space="preserve" text-anchor="middle" x="111.84" y="-72.5" font-family="Arial" font-size="10.00">«min 1, only» onProperty: partwhole:properPartOf</text>
</g>
<!-- Invis&#45;&gt;FootpathSegment -->
</g>
</svg>
