<?xml version="1.0" encoding="UTF-8" standalone="no"?>
<!DOCTYPE svg PUBLIC "-//W3C//DTD SVG 1.1//EN"
 "http://www.w3.org/Graphics/SVG/1.1/DTD/svg11.dtd">
<!-- Generated by graphviz version 13.1.0 (20250701.0955)
 -->
<!-- Pages: 1 -->
<svg width="282pt" height="302pt"
 viewBox="0.00 0.00 282.00 302.00" xmlns="http://www.w3.org/2000/svg" xmlns:xlink="http://www.w3.org/1999/xlink">
<g id="graph0" class="graph" transform="scale(1 1) rotate(0) translate(4 298)">
<polygon fill="white" stroke="none" points="-4,4 -4,-298 277.66,-298 277.66,4 -4,4"/>
<g id="clust2" class="cluster">
<title>cluster_associated</title>
</g>
<!-- TravelledWay -->
<g id="node1" class="node">
<title>TravelledWay</title>
<polygon fill="lightgray" stroke="none" points="5.41,-267.88 5.41,-284.12 83.91,-284.12 83.91,-267.88 5.41,-267.88"/>
<text xml:space="preserve" text-anchor="start" x="6.41" y="-272.73" font-family="Arial" font-weight="bold" font-size="12.00">TravelledWay</text>
<polygon fill="none" stroke="black" points="4.41,-266.88 4.41,-285.12 84.91,-285.12 84.91,-266.88 4.41,-266.88"/>
</g>
<!-- Footpath -->
<g id="node2" class="node">
<title>Footpath</title>
<polygon fill="lightgray" stroke="none" points="17.79,-194.88 17.79,-211.12 71.54,-211.12 71.54,-194.88 17.79,-194.88"/>
<text xml:space="preserve" text-anchor="start" x="18.79" y="-199.72" font-family="Arial" font-weight="bold" font-size="12.00">Footpath</text>
<polygon fill="none" stroke="black" points="16.79,-193.88 16.79,-212.12 72.54,-212.12 72.54,-193.88 16.79,-193.88"/>
</g>
<!-- Footpath&#45;&gt;TravelledWay -->
<g id="edge1" class="edge">
<title>Footpath&#45;&gt;TravelledWay</title>
<path fill="none" stroke="black" d="M44.66,-220.71C44.66,-228.47 44.66,-237.92 44.66,-246.74"/>
<polygon fill="none" stroke="black" points="41.16,-246.66 44.66,-256.66 48.16,-246.66 41.16,-246.66"/>
</g>
<!-- Invis -->
<!-- Footpath&#45;&gt;Invis -->
<!-- FootpathLink -->
<g id="node4" class="node">
<title>FootpathLink</title>
<polygon fill="lightgray" stroke="none" points="172.41,-98.88 172.41,-115.12 250.91,-115.12 250.91,-98.88 172.41,-98.88"/>
<text xml:space="preserve" text-anchor="start" x="173.41" y="-103.72" font-family="Arial" font-weight="bold" font-size="12.00">FootpathLink</text>
<polygon fill="none" stroke="black" points="171.41,-97.88 171.41,-116.12 251.91,-116.12 251.91,-97.88 171.41,-97.88"/>
</g>
<!-- Footpath&#45;&gt;FootpathLink -->
<g id="edge5" class="edge">
<title>Footpath&#45;&gt;FootpathLink</title>
<path fill="none" stroke="black" stroke-dasharray="5,2" d="M38.36,-185.25C34.64,-172.2 32.36,-154.45 42.16,-143 59.06,-123.27 132.37,-130.92 157.66,-125 158.65,-124.77 159.64,-124.53 160.64,-124.28"/>
<polygon fill="black" stroke="black" points="161.23,-127.75 169.99,-121.78 159.42,-120.99 161.23,-127.75"/>
<text xml:space="preserve" text-anchor="middle" x="122.41" y="-157.5" font-family="Arial" font-size="10.00">«min 1, only»</text>
<text xml:space="preserve" text-anchor="middle" x="122.41" y="-145.5" font-family="Arial" font-size="10.00">onProperty: partwhole:hasProperPart</text>
</g>
<!-- FootpathNetwork -->
<g id="node5" class="node">
<title>FootpathNetwork</title>
<polygon fill="lightgray" stroke="none" points="155.16,-25.88 155.16,-42.12 256.16,-42.12 256.16,-25.88 155.16,-25.88"/>
<text xml:space="preserve" text-anchor="start" x="156.16" y="-30.73" font-family="Arial" font-weight="bold" font-size="12.00">FootpathNetwork</text>
<polygon fill="none" stroke="black" points="154.16,-24.88 154.16,-43.12 257.16,-43.12 257.16,-24.88 154.16,-24.88"/>
</g>
<!-- Footpath&#45;&gt;FootpathNetwork -->
<g id="edge6" class="edge">
<title>Footpath&#45;&gt;FootpathNetwork</title>
<path fill="none" stroke="black" stroke-dasharray="5,2" d="M30.54,-185.03C12.66,-161.38 -13.29,-118.12 8.91,-89 25.29,-67.53 91.95,-52.48 143.19,-43.82"/>
<polygon fill="black" stroke="black" points="143.72,-47.28 153.03,-42.21 142.59,-40.37 143.72,-47.28"/>
<text xml:space="preserve" text-anchor="middle" x="85.79" y="-109.5" font-family="Arial" font-size="10.00">«only»</text>
<text xml:space="preserve" text-anchor="middle" x="85.79" y="-97.5" font-family="Arial" font-size="10.00">onProperty: partwhole:properPartOf</text>
</g>
<!-- Invis&#45;&gt;FootpathLink -->
<!-- FootpathLink&#45;&gt;FootpathNetwork -->
</g>
</svg>
