<?xml version="1.0" encoding="UTF-8" standalone="no"?>
<!DOCTYPE svg PUBLIC "-//W3C//DTD SVG 1.1//EN"
 "http://www.w3.org/Graphics/SVG/1.1/DTD/svg11.dtd">
<!-- Generated by graphviz version 13.1.0 (20250701.0955)
 -->
<!-- Pages: 1 -->
<svg width="425pt" height="386pt"
 viewBox="0.00 0.00 425.00 386.00" xmlns="http://www.w3.org/2000/svg" xmlns:xlink="http://www.w3.org/1999/xlink">
<g id="graph0" class="graph" transform="scale(1 1) rotate(0) translate(4 382)">
<polygon fill="white" stroke="none" points="-4,4 -4,-382 421.25,-382 421.25,4 -4,4"/>
<g id="clust2" class="cluster">
<title>cluster_associated</title>
</g>
<!-- TransportNetwork -->
<g id="node1" class="node">
<title>TransportNetwork</title>
<polygon fill="lightgray" stroke="none" points="1,-351.88 1,-368.12 105.75,-368.12 105.75,-351.88 1,-351.88"/>
<text xml:space="preserve" text-anchor="start" x="2" y="-356.73" font-family="Arial" font-weight="bold" font-size="12.00">TransportNetwork</text>
<polygon fill="none" stroke="black" points="0,-350.88 0,-369.12 106.75,-369.12 106.75,-350.88 0,-350.88"/>
</g>
<!-- FootpathNetwork -->
<g id="node2" class="node">
<title>FootpathNetwork</title>
<polygon fill="lightgray" stroke="none" points="18.88,-255.88 18.88,-272.12 119.88,-272.12 119.88,-255.88 18.88,-255.88"/>
<text xml:space="preserve" text-anchor="start" x="19.88" y="-260.73" font-family="Arial" font-weight="bold" font-size="12.00">FootpathNetwork</text>
<polygon fill="none" stroke="black" points="17.88,-254.88 17.88,-273.12 120.88,-273.12 120.88,-254.88 17.88,-254.88"/>
</g>
<!-- FootpathNetwork&#45;&gt;TransportNetwork -->
<g id="edge1" class="edge">
<title>FootpathNetwork&#45;&gt;TransportNetwork</title>
<path fill="none" stroke="black" d="M66.49,-281.98C64.17,-295.58 60.87,-314.94 58.17,-330.85"/>
<polygon fill="none" stroke="black" points="54.72,-330.26 56.49,-340.7 61.62,-331.43 54.72,-330.26"/>
</g>
<!-- Invis -->
<!-- FootpathNetwork&#45;&gt;Invis -->
<!-- FootpathLink -->
<g id="node5" class="node">
<title>FootpathLink</title>
<polygon fill="lightgray" stroke="none" points="188.12,-98.88 188.12,-115.12 266.62,-115.12 266.62,-98.88 188.12,-98.88"/>
<text xml:space="preserve" text-anchor="start" x="189.12" y="-103.72" font-family="Arial" font-weight="bold" font-size="12.00">FootpathLink</text>
<polygon fill="none" stroke="black" points="187.12,-97.88 187.12,-116.12 267.62,-116.12 267.62,-97.88 187.12,-97.88"/>
</g>
<!-- FootpathNetwork&#45;&gt;FootpathLink -->
<g id="edge10" class="edge">
<title>FootpathNetwork&#45;&gt;FootpathLink</title>
<path fill="none" stroke="black" stroke-dasharray="5,2" d="M58.18,-246.27C45.31,-224.72 28.21,-187.07 46.88,-162 62.43,-141.11 128.47,-125.32 176.17,-116.36"/>
<polygon fill="black" stroke="black" points="176.55,-119.85 185.76,-114.61 175.3,-112.96 176.55,-119.85"/>
<text xml:space="preserve" text-anchor="middle" x="127.12" y="-182.5" font-family="Arial" font-size="10.00">«min 1»</text>
<text xml:space="preserve" text-anchor="middle" x="127.12" y="-170.5" font-family="Arial" font-size="10.00">onProperty: partwhole:hasProperPart</text>
</g>
<!-- Union_partwhole_hasProperPart -->
<g id="node7" class="node">
<title>Union_partwhole_hasProperPart</title>
<polygon fill="lightyellow" stroke="none" points="169.5,-343.75 169.5,-376.25 417.25,-376.25 417.25,-343.75 169.5,-343.75"/>
<text xml:space="preserve" text-anchor="start" x="265.62" y="-362.85" font-family="Arial" font-size="12.00">«unionOf»</text>
<text xml:space="preserve" text-anchor="start" x="171.5" y="-348.6" font-family="Arial" font-size="12.00">[Footpath or FootpathLink or FootpathSection]</text>
<polygon fill="none" stroke="black" points="169.5,-343.75 169.5,-376.25 417.25,-376.25 417.25,-343.75 169.5,-343.75"/>
</g>
<!-- FootpathNetwork&#45;&gt;Union_partwhole_hasProperPart -->
<g id="edge9" class="edge">
<title>FootpathNetwork&#45;&gt;Union_partwhole_hasProperPart</title>
<path fill="none" stroke="black" stroke-dasharray="5,2" d="M70.05,-281.79C71.54,-295.22 75.83,-313.48 87.88,-324 99.73,-334.35 127.26,-341.71 158.44,-346.92"/>
<polygon fill="black" stroke="black" points="157.69,-350.34 168.11,-348.43 158.77,-343.43 157.69,-350.34"/>
<text xml:space="preserve" text-anchor="middle" x="168.12" y="-314.5" font-family="Arial" font-size="10.00">«only»</text>
<text xml:space="preserve" text-anchor="middle" x="168.12" y="-302.5" font-family="Arial" font-size="10.00">onProperty: partwhole:hasProperPart</text>
</g>
<!-- Footpath -->
<g id="node4" class="node">
<title>Footpath</title>
<polygon fill="lightgray" stroke="none" points="217.5,-171.88 217.5,-188.12 271.25,-188.12 271.25,-171.88 217.5,-171.88"/>
<text xml:space="preserve" text-anchor="start" x="218.5" y="-176.72" font-family="Arial" font-weight="bold" font-size="12.00">Footpath</text>
<polygon fill="none" stroke="black" points="216.5,-170.88 216.5,-189.12 272.25,-189.12 272.25,-170.88 216.5,-170.88"/>
</g>
<!-- Invis&#45;&gt;Footpath -->
<!-- Footpath&#45;&gt;FootpathLink -->
<!-- FootpathSection -->
<g id="node6" class="node">
<title>FootpathSection</title>
<polygon fill="lightgray" stroke="none" points="173.75,-25.88 173.75,-42.12 271,-42.12 271,-25.88 173.75,-25.88"/>
<text xml:space="preserve" text-anchor="start" x="174.75" y="-30.73" font-family="Arial" font-weight="bold" font-size="12.00">FootpathSection</text>
<polygon fill="none" stroke="black" points="172.75,-24.88 172.75,-43.12 272,-43.12 272,-24.88 172.75,-24.88"/>
</g>
<!-- FootpathLink&#45;&gt;FootpathSection -->
<!-- Union_partwhole_hasProperPart&#45;&gt;Footpath -->
<g id="edge6" class="edge">
<title>Union_partwhole_hasProperPart&#45;&gt;Footpath</title>
<path fill="none" stroke="black" stroke-dasharray="1,5" d="M288.77,-342.25C280.34,-311.64 262.37,-246.36 252.06,-208.93"/>
<polygon fill="black" stroke="black" points="255.44,-208 249.41,-199.29 248.69,-209.86 255.44,-208"/>
<text xml:space="preserve" text-anchor="middle" x="291.37" y="-260.5" font-family="Arial" font-size="10.00">member</text>
</g>
<!-- Union_partwhole_hasProperPart&#45;&gt;FootpathLink -->
<g id="edge7" class="edge">
<title>Union_partwhole_hasProperPart&#45;&gt;FootpathLink</title>
<path fill="none" stroke="black" stroke-dasharray="1,5" d="M299.55,-342.13C306.84,-320.02 317.27,-280.06 311.38,-246 304.61,-206.94 302.57,-195.5 281.38,-162 274.66,-151.39 265.52,-141.24 256.67,-132.66"/>
<polygon fill="black" stroke="black" points="259.18,-130.21 249.47,-125.98 254.42,-135.34 259.18,-130.21"/>
<text xml:space="preserve" text-anchor="middle" x="325.72" y="-218.5" font-family="Arial" font-size="10.00">member</text>
</g>
<!-- Union_partwhole_hasProperPart&#45;&gt;FootpathSection -->
<g id="edge8" class="edge">
<title>Union_partwhole_hasProperPart&#45;&gt;FootpathSection</title>
<path fill="none" stroke="black" stroke-dasharray="1,5" d="M322.05,-342.01C345.7,-325.59 375.38,-298.35 375.38,-265 375.38,-265 375.38,-265 375.38,-106 375.38,-63.26 325.64,-46.18 282.88,-39.39"/>
<polygon fill="black" stroke="black" points="283.52,-35.94 273.13,-38.01 282.54,-42.87 283.52,-35.94"/>
<text xml:space="preserve" text-anchor="middle" x="393" y="-176.5" font-family="Arial" font-size="10.00">member</text>
</g>
</g>
</svg>
