<?xml version="1.0" encoding="UTF-8" standalone="no"?>
<!DOCTYPE svg PUBLIC "-//W3C//DTD SVG 1.1//EN"
 "http://www.w3.org/Graphics/SVG/1.1/DTD/svg11.dtd">
<!-- Generated by graphviz version 13.1.0 (20250701.0955)
 -->
<!-- Pages: 1 -->
<svg width="502pt" height="447pt"
 viewBox="0.00 0.00 502.00 447.00" xmlns="http://www.w3.org/2000/svg" xmlns:xlink="http://www.w3.org/1999/xlink">
<g id="graph0" class="graph" transform="scale(1 1) rotate(0) translate(4 443)">
<polygon fill="white" stroke="none" points="-4,4 -4,-443 497.75,-443 497.75,4 -4,4"/>
<g id="clust2" class="cluster">
<title>cluster_associated</title>
</g>
<!-- TravelledWayLink -->
<g id="node1" class="node">
<title>TravelledWayLink</title>
<polygon fill="lightgray" stroke="none" points="43.38,-412.88 43.38,-429.12 146.62,-429.12 146.62,-412.88 43.38,-412.88"/>
<text xml:space="preserve" text-anchor="start" x="44.38" y="-417.73" font-family="Arial" font-weight="bold" font-size="12.00">TravelledWayLink</text>
<polygon fill="none" stroke="black" points="42.38,-411.88 42.38,-430.12 147.62,-430.12 147.62,-411.88 42.38,-411.88"/>
</g>
<!-- FootpathLink -->
<g id="node2" class="node">
<title>FootpathLink</title>
<polygon fill="lightgray" stroke="none" points="71.75,-328.88 71.75,-345.12 150.25,-345.12 150.25,-328.88 71.75,-328.88"/>
<text xml:space="preserve" text-anchor="start" x="72.75" y="-333.73" font-family="Arial" font-weight="bold" font-size="12.00">FootpathLink</text>
<polygon fill="none" stroke="black" points="70.75,-327.88 70.75,-346.12 151.25,-346.12 151.25,-327.88 70.75,-327.88"/>
</g>
<!-- FootpathLink&#45;&gt;TravelledWayLink -->
<g id="edge1" class="edge">
<title>FootpathLink&#45;&gt;TravelledWayLink</title>
<path fill="none" stroke="black" d="M107.69,-354.97C105.61,-365.63 102.88,-379.64 100.48,-391.92"/>
<polygon fill="none" stroke="black" points="97.09,-391.04 98.61,-401.52 103.96,-392.38 97.09,-391.04"/>
</g>
<!-- Invis -->
<!-- FootpathLink&#45;&gt;Invis -->
<!-- FootpathSegment -->
<g id="node7" class="node">
<title>FootpathSegment</title>
<polygon fill="lightgray" stroke="none" points="238.62,-25.88 238.62,-42.12 343.38,-42.12 343.38,-25.88 238.62,-25.88"/>
<text xml:space="preserve" text-anchor="start" x="239.62" y="-30.73" font-family="Arial" font-weight="bold" font-size="12.00">FootpathSegment</text>
<polygon fill="none" stroke="black" points="237.62,-24.88 237.62,-43.12 344.38,-43.12 344.38,-24.88 237.62,-24.88"/>
</g>
<!-- FootpathLink&#45;&gt;FootpathSegment -->
<g id="edge7" class="edge">
<title>FootpathLink&#45;&gt;FootpathSegment</title>
<path fill="none" stroke="black" stroke-dasharray="5,2" d="M70.93,-324.43C39.13,-312.5 0,-290.42 0,-254 0,-254 0,-254 0,-106 0,-59.76 140.41,-43.5 226.17,-37.88"/>
<polygon fill="black" stroke="black" points="226.35,-41.38 236.12,-37.27 225.92,-34.39 226.35,-41.38"/>
<text xml:space="preserve" text-anchor="middle" x="111" y="-176.5" font-family="Arial" font-size="10.00">«min 1, only» onProperty: partwhole:hasProperPart</text>
</g>
<!-- Union_partwhole_properPartOf -->
<g id="node8" class="node">
<title>Union_partwhole_properPartOf</title>
<polygon fill="lightyellow" stroke="none" points="224.25,-404.75 224.25,-437.25 493.75,-437.25 493.75,-404.75 224.25,-404.75"/>
<text xml:space="preserve" text-anchor="start" x="331.25" y="-423.85" font-family="Arial" font-size="12.00">«unionOf»</text>
<text xml:space="preserve" text-anchor="start" x="226.25" y="-409.6" font-family="Arial" font-size="12.00">[Footpath or FootpathNetwork or FootpathSection]</text>
<polygon fill="none" stroke="black" points="224.25,-404.75 224.25,-437.25 493.75,-437.25 493.75,-404.75 224.25,-404.75"/>
</g>
<!-- FootpathLink&#45;&gt;Union_partwhole_properPartOf -->
<g id="edge11" class="edge">
<title>FootpathLink&#45;&gt;Union_partwhole_properPartOf</title>
<path fill="none" stroke="black" stroke-dasharray="5,2" d="M113.06,-354.84C115.23,-365.12 119.66,-377.65 128.75,-385 143.09,-396.6 176.46,-404.38 213.47,-409.59"/>
<polygon fill="black" stroke="black" points="212.65,-413.01 223.02,-410.86 213.57,-406.07 212.65,-413.01"/>
<text xml:space="preserve" text-anchor="middle" x="221.38" y="-375.5" font-family="Arial" font-size="10.00">«only» onProperty: partwhole:properPartOf</text>
</g>
<!-- Footpath -->
<g id="node4" class="node">
<title>Footpath</title>
<polygon fill="lightgray" stroke="none" points="265.12,-244.88 265.12,-261.12 318.88,-261.12 318.88,-244.88 265.12,-244.88"/>
<text xml:space="preserve" text-anchor="start" x="266.12" y="-249.72" font-family="Arial" font-weight="bold" font-size="12.00">Footpath</text>
<polygon fill="none" stroke="black" points="264.12,-243.88 264.12,-262.12 319.88,-262.12 319.88,-243.88 264.12,-243.88"/>
</g>
<!-- Invis&#45;&gt;Footpath -->
<!-- FootpathNetwork -->
<g id="node5" class="node">
<title>FootpathNetwork</title>
<polygon fill="lightgray" stroke="none" points="241.5,-171.88 241.5,-188.12 342.5,-188.12 342.5,-171.88 241.5,-171.88"/>
<text xml:space="preserve" text-anchor="start" x="242.5" y="-176.72" font-family="Arial" font-weight="bold" font-size="12.00">FootpathNetwork</text>
<polygon fill="none" stroke="black" points="240.5,-170.88 240.5,-189.12 343.5,-189.12 343.5,-170.88 240.5,-170.88"/>
</g>
<!-- Footpath&#45;&gt;FootpathNetwork -->
<!-- FootpathSection -->
<g id="node6" class="node">
<title>FootpathSection</title>
<polygon fill="lightgray" stroke="none" points="243.38,-98.88 243.38,-115.12 340.62,-115.12 340.62,-98.88 243.38,-98.88"/>
<text xml:space="preserve" text-anchor="start" x="244.38" y="-103.72" font-family="Arial" font-weight="bold" font-size="12.00">FootpathSection</text>
<polygon fill="none" stroke="black" points="242.38,-97.88 242.38,-116.12 341.62,-116.12 341.62,-97.88 242.38,-97.88"/>
</g>
<!-- FootpathNetwork&#45;&gt;FootpathSection -->
<!-- FootpathSection&#45;&gt;FootpathSegment -->
<!-- Union_partwhole_properPartOf&#45;&gt;Footpath -->
<g id="edge8" class="edge">
<title>Union_partwhole_properPartOf&#45;&gt;Footpath</title>
<path fill="none" stroke="black" stroke-dasharray="1,5" d="M352.21,-403.17C340.62,-374.46 316.93,-315.78 302.97,-281.19"/>
<polygon fill="black" stroke="black" points="306.37,-280.24 299.38,-272.28 299.87,-282.86 306.37,-280.24"/>
<text xml:space="preserve" text-anchor="middle" x="353.04" y="-333.5" font-family="Arial" font-size="10.00">member</text>
</g>
<!-- Union_partwhole_properPartOf&#45;&gt;FootpathNetwork -->
<g id="edge9" class="edge">
<title>Union_partwhole_properPartOf&#45;&gt;FootpathNetwork</title>
<path fill="none" stroke="black" stroke-dasharray="1,5" d="M365.86,-403C373.08,-382.77 382.44,-348.07 375,-319 363.95,-275.82 334.48,-232.9 313.81,-206.67"/>
<polygon fill="black" stroke="black" points="316.6,-204.55 307.59,-198.96 311.15,-208.94 316.6,-204.55"/>
<text xml:space="preserve" text-anchor="middle" x="386.88" y="-291.5" font-family="Arial" font-size="10.00">member</text>
</g>
<!-- Union_partwhole_properPartOf&#45;&gt;FootpathSection -->
<g id="edge10" class="edge">
<title>Union_partwhole_properPartOf&#45;&gt;FootpathSection</title>
<path fill="none" stroke="black" stroke-dasharray="1,5" d="M392.83,-403C415.41,-389 441,-366.79 441,-338 441,-338 441,-338 441,-179 441,-137.79 393.98,-120.47 352.76,-113.21"/>
<polygon fill="black" stroke="black" points="353.53,-109.79 343.11,-111.69 352.44,-116.71 353.53,-109.79"/>
<text xml:space="preserve" text-anchor="middle" x="458.62" y="-249.5" font-family="Arial" font-size="10.00">member</text>
</g>
</g>
</svg>
