<?xml version="1.0" encoding="UTF-8" standalone="no"?>
<!DOCTYPE svg PUBLIC "-//W3C//DTD SVG 1.1//EN"
 "http://www.w3.org/Graphics/SVG/1.1/DTD/svg11.dtd">
<!-- Generated by graphviz version 13.1.0 (20250701.0955)
 -->
<!-- Pages: 1 -->
<svg width="442pt" height="459pt"
 viewBox="0.00 0.00 442.00 459.00" xmlns="http://www.w3.org/2000/svg" xmlns:xlink="http://www.w3.org/1999/xlink">
<g id="graph0" class="graph" transform="scale(1 1) rotate(0) translate(4 455)">
<polygon fill="white" stroke="none" points="-4,4 -4,-455 437.75,-455 437.75,4 -4,4"/>
<g id="clust2" class="cluster">
<title>cluster_associated</title>
</g>
<!-- TravelledWayLink -->
<g id="node1" class="node">
<title>TravelledWayLink</title>
<polygon fill="lightgray" stroke="none" points="12.38,-424.88 12.38,-441.12 115.62,-441.12 115.62,-424.88 12.38,-424.88"/>
<text xml:space="preserve" text-anchor="start" x="13.38" y="-429.73" font-family="Arial" font-weight="bold" font-size="12.00">TravelledWayLink</text>
<polygon fill="none" stroke="black" points="11.38,-423.88 11.38,-442.12 116.62,-442.12 116.62,-423.88 11.38,-423.88"/>
</g>
<!-- FootpathLink -->
<g id="node2" class="node">
<title>FootpathLink</title>
<polygon fill="lightgray" stroke="none" points="41.75,-328.88 41.75,-345.12 120.25,-345.12 120.25,-328.88 41.75,-328.88"/>
<text xml:space="preserve" text-anchor="start" x="42.75" y="-333.73" font-family="Arial" font-weight="bold" font-size="12.00">FootpathLink</text>
<polygon fill="none" stroke="black" points="40.75,-327.88 40.75,-346.12 121.25,-346.12 121.25,-327.88 40.75,-327.88"/>
</g>
<!-- FootpathLink&#45;&gt;TravelledWayLink -->
<g id="edge1" class="edge">
<title>FootpathLink&#45;&gt;TravelledWayLink</title>
<path fill="none" stroke="black" d="M77.93,-354.98C75.45,-368.71 71.9,-388.32 69.01,-404.32"/>
<polygon fill="none" stroke="black" points="65.64,-403.24 67.31,-413.71 72.53,-404.49 65.64,-403.24"/>
</g>
<!-- Invis -->
<!-- FootpathLink&#45;&gt;Invis -->
<!-- FootpathSegment -->
<g id="node7" class="node">
<title>FootpathSegment</title>
<polygon fill="lightgray" stroke="none" points="176.62,-25.88 176.62,-42.12 281.38,-42.12 281.38,-25.88 176.62,-25.88"/>
<text xml:space="preserve" text-anchor="start" x="177.62" y="-30.73" font-family="Arial" font-weight="bold" font-size="12.00">FootpathSegment</text>
<polygon fill="none" stroke="black" points="175.62,-24.88 175.62,-43.12 282.38,-43.12 282.38,-24.88 175.62,-24.88"/>
</g>
<!-- FootpathLink&#45;&gt;FootpathSegment -->
<g id="edge7" class="edge">
<title>FootpathLink&#45;&gt;FootpathSegment</title>
<path fill="none" stroke="black" stroke-dasharray="5,2" d="M48.05,-319.19C25.63,-305.16 0,-282.82 0,-254 0,-254 0,-254 0,-106 0,-71.3 97.12,-51.69 164.87,-42.22"/>
<polygon fill="black" stroke="black" points="164.95,-45.74 174.39,-40.94 164.01,-38.81 164.95,-45.74"/>
<text xml:space="preserve" text-anchor="middle" x="80.25" y="-182.5" font-family="Arial" font-size="10.00">«min 1, only»</text>
<text xml:space="preserve" text-anchor="middle" x="80.25" y="-170.5" font-family="Arial" font-size="10.00">onProperty: partwhole:hasProperPart</text>
</g>
<!-- Union_partwhole_properPartOf -->
<g id="node8" class="node">
<title>Union_partwhole_properPartOf</title>
<polygon fill="lightyellow" stroke="none" points="164.25,-416.75 164.25,-449.25 433.75,-449.25 433.75,-416.75 164.25,-416.75"/>
<text xml:space="preserve" text-anchor="start" x="271.25" y="-435.85" font-family="Arial" font-size="12.00">«unionOf»</text>
<text xml:space="preserve" text-anchor="start" x="166.25" y="-421.6" font-family="Arial" font-size="12.00">[Footpath or FootpathNetwork or FootpathSection]</text>
<polygon fill="none" stroke="black" points="164.25,-416.75 164.25,-449.25 433.75,-449.25 433.75,-416.75 164.25,-416.75"/>
</g>
<!-- FootpathLink&#45;&gt;Union_partwhole_properPartOf -->
<g id="edge11" class="edge">
<title>FootpathLink&#45;&gt;Union_partwhole_properPartOf</title>
<path fill="none" stroke="black" stroke-dasharray="5,2" d="M81.31,-354.75C82.5,-368.15 86.4,-386.4 98.25,-397 107.96,-405.68 128.68,-412.26 153.28,-417.23"/>
<polygon fill="black" stroke="black" points="152.47,-420.64 162.94,-419.05 153.77,-413.76 152.47,-420.64"/>
<text xml:space="preserve" text-anchor="middle" x="175.12" y="-387.5" font-family="Arial" font-size="10.00">«only»</text>
<text xml:space="preserve" text-anchor="middle" x="175.12" y="-375.5" font-family="Arial" font-size="10.00">onProperty: partwhole:properPartOf</text>
</g>
<!-- Footpath -->
<g id="node4" class="node">
<title>Footpath</title>
<polygon fill="lightgray" stroke="none" points="203.12,-244.88 203.12,-261.12 256.88,-261.12 256.88,-244.88 203.12,-244.88"/>
<text xml:space="preserve" text-anchor="start" x="204.12" y="-249.72" font-family="Arial" font-weight="bold" font-size="12.00">Footpath</text>
<polygon fill="none" stroke="black" points="202.12,-243.88 202.12,-262.12 257.88,-262.12 257.88,-243.88 202.12,-243.88"/>
</g>
<!-- Invis&#45;&gt;Footpath -->
<!-- FootpathNetwork -->
<g id="node5" class="node">
<title>FootpathNetwork</title>
<polygon fill="lightgray" stroke="none" points="179.5,-171.88 179.5,-188.12 280.5,-188.12 280.5,-171.88 179.5,-171.88"/>
<text xml:space="preserve" text-anchor="start" x="180.5" y="-176.72" font-family="Arial" font-weight="bold" font-size="12.00">FootpathNetwork</text>
<polygon fill="none" stroke="black" points="178.5,-170.88 178.5,-189.12 281.5,-189.12 281.5,-170.88 178.5,-170.88"/>
</g>
<!-- Footpath&#45;&gt;FootpathNetwork -->
<!-- FootpathSection -->
<g id="node6" class="node">
<title>FootpathSection</title>
<polygon fill="lightgray" stroke="none" points="181.38,-98.88 181.38,-115.12 278.62,-115.12 278.62,-98.88 181.38,-98.88"/>
<text xml:space="preserve" text-anchor="start" x="182.38" y="-103.72" font-family="Arial" font-weight="bold" font-size="12.00">FootpathSection</text>
<polygon fill="none" stroke="black" points="180.38,-97.88 180.38,-116.12 279.62,-116.12 279.62,-97.88 180.38,-97.88"/>
</g>
<!-- FootpathNetwork&#45;&gt;FootpathSection -->
<!-- FootpathSection&#45;&gt;FootpathSegment -->
<!-- Union_partwhole_properPartOf&#45;&gt;Footpath -->
<g id="edge8" class="edge">
<title>Union_partwhole_properPartOf&#45;&gt;Footpath</title>
<path fill="none" stroke="black" stroke-dasharray="1,5" d="M292.51,-415.25C280.59,-384.51 255.12,-318.8 240.64,-281.44"/>
<polygon fill="black" stroke="black" points="243.95,-280.3 237.07,-272.24 237.42,-282.83 243.95,-280.3"/>
<text xml:space="preserve" text-anchor="middle" x="288.98" y="-333.5" font-family="Arial" font-size="10.00">member</text>
</g>
<!-- Union_partwhole_properPartOf&#45;&gt;FootpathNetwork -->
<g id="edge9" class="edge">
<title>Union_partwhole_properPartOf&#45;&gt;FootpathNetwork</title>
<path fill="none" stroke="black" stroke-dasharray="1,5" d="M304.32,-415.29C310.61,-393.02 319.25,-352.52 311,-319 300.42,-275.99 271.6,-233.03 251.37,-206.74"/>
<polygon fill="black" stroke="black" points="254.23,-204.71 245.29,-199.03 248.73,-209.05 254.23,-204.71"/>
<text xml:space="preserve" text-anchor="middle" x="322.81" y="-291.5" font-family="Arial" font-size="10.00">member</text>
</g>
<!-- Union_partwhole_properPartOf&#45;&gt;FootpathSection -->
<g id="edge10" class="edge">
<title>Union_partwhole_properPartOf&#45;&gt;FootpathSection</title>
<path fill="none" stroke="black" stroke-dasharray="1,5" d="M326.53,-415.16C349.67,-398.67 379,-371.22 379,-338 379,-338 379,-338 379,-179 379,-137.79 331.98,-120.47 290.76,-113.21"/>
<polygon fill="black" stroke="black" points="291.53,-109.79 281.11,-111.69 290.44,-116.71 291.53,-109.79"/>
<text xml:space="preserve" text-anchor="middle" x="396.62" y="-249.5" font-family="Arial" font-size="10.00">member</text>
</g>
</g>
</svg>
