<?xml version="1.0" encoding="UTF-8" standalone="no"?>
<!DOCTYPE svg PUBLIC "-//W3C//DTD SVG 1.1//EN"
 "http://www.w3.org/Graphics/SVG/1.1/DTD/svg11.dtd">
<!-- Generated by graphviz version 14.0.2 (20251019.1705)
 -->
<!-- Pages: 1 -->
<svg width="201pt" height="132pt"
 viewBox="0.00 0.00 201.00 132.00" xmlns="http://www.w3.org/2000/svg" xmlns:xlink="http://www.w3.org/1999/xlink">
<g id="graph0" class="graph" transform="scale(1 1) rotate(0) translate(4 128)">
<polygon fill="white" stroke="none" points="-4,4 -4,-128 197.12,-128 197.12,4 -4,4"/>
<g id="clust2" class="cluster">
<title>cluster_associated</title>
</g>
<!-- GroupOfLines -->
<g id="node1" class="node">
<title>GroupOfLines</title>
<g id="a_node1"><a xlink:href="../GroupOfLines.md" xlink:title="&lt;TABLE&gt;">
<polygon fill="lightgray" stroke="none" points="28,-25.88 28,-42.12 104.25,-42.12 104.25,-25.88 28,-25.88"/>
<text xml:space="preserve" text-anchor="start" x="29" y="-29.73" font-family="Arial" font-size="12.00">GroupOfLines</text>
<polygon fill="none" stroke="black" points="27,-24.88 27,-43.12 105.25,-43.12 105.25,-24.88 27,-24.88"/>
</a>
</g>
</g>
<!-- PublicTransportElement -->
<g id="node3" class="node">
<title>PublicTransportElement</title>
<g id="a_node3"><a xlink:href="../PublicTransportElement.md" xlink:title="&lt;TABLE&gt;">
<polygon fill="lightgray" stroke="none" points="1,-97.88 1,-114.12 131.25,-114.12 131.25,-97.88 1,-97.88"/>
<text xml:space="preserve" text-anchor="start" x="2" y="-101.72" font-family="Arial" font-size="12.00">PublicTransportElement</text>
<polygon fill="none" stroke="black" points="0,-96.88 0,-115.12 132.25,-115.12 132.25,-96.88 0,-96.88"/>
</a>
</g>
</g>
<!-- GroupOfLines&#45;&gt;PublicTransportElement -->
<g id="edge1" class="edge">
<title>GroupOfLines&#45;&gt;PublicTransportElement</title>
<path fill="none" stroke="black" d="M66.12,-51.79C66.12,-59.25 66.12,-68.24 66.12,-76.69"/>
<polygon fill="none" stroke="black" points="62.63,-76.54 66.13,-86.54 69.63,-76.54 62.63,-76.54"/>
</g>
<!-- Invis -->
</g>
</svg>
