<?xml version="1.0" encoding="UTF-8" standalone="no"?>
<!DOCTYPE svg PUBLIC "-//W3C//DTD SVG 1.1//EN"
 "http://www.w3.org/Graphics/SVG/1.1/DTD/svg11.dtd">
<!-- Generated by graphviz version 13.1.0 (20250701.0955)
 -->
<!-- Pages: 1 -->
<svg width="334pt" height="290pt"
 viewBox="0.00 0.00 334.00 290.00" xmlns="http://www.w3.org/2000/svg" xmlns:xlink="http://www.w3.org/1999/xlink">
<g id="graph0" class="graph" transform="scale(1 1) rotate(0) translate(4 286)">
<polygon fill="white" stroke="none" points="-4,4 -4,-286 330,-286 330,4 -4,4"/>
<g id="clust2" class="cluster">
<title>cluster_associated</title>
</g>
<!-- PublicTransportElement -->
<g id="node1" class="node">
<title>PublicTransportElement</title>
<polygon fill="lightgray" stroke="none" points="1,-255.88 1,-272.12 141,-272.12 141,-255.88 1,-255.88"/>
<text xml:space="preserve" text-anchor="start" x="2" y="-260.73" font-family="Arial" font-weight="bold" font-size="12.00">PublicTransportElement</text>
<polygon fill="none" stroke="black" points="0,-254.88 0,-273.12 142,-273.12 142,-254.88 0,-254.88"/>
</g>
<!-- GroupOfLines -->
<g id="node2" class="node">
<title>GroupOfLines</title>
<polygon fill="lightgray" stroke="none" points="29.88,-182.88 29.88,-199.12 112.12,-199.12 112.12,-182.88 29.88,-182.88"/>
<text xml:space="preserve" text-anchor="start" x="30.88" y="-187.72" font-family="Arial" font-weight="bold" font-size="12.00">GroupOfLines</text>
<polygon fill="none" stroke="black" points="28.88,-181.88 28.88,-200.12 113.12,-200.12 113.12,-181.88 28.88,-181.88"/>
</g>
<!-- GroupOfLines&#45;&gt;PublicTransportElement -->
<g id="edge1" class="edge">
<title>GroupOfLines&#45;&gt;PublicTransportElement</title>
<path fill="none" stroke="black" d="M71,-208.71C71,-216.47 71,-225.92 71,-234.74"/>
<polygon fill="none" stroke="black" points="67.5,-234.66 71,-244.66 74.5,-234.66 67.5,-234.66"/>
</g>
<!-- Invis -->
<!-- GroupOfLines&#45;&gt;Invis -->
<!-- PublicTransportLine -->
<g id="node4" class="node">
<title>PublicTransportLine</title>
<polygon fill="lightgray" stroke="none" points="186.88,-98.88 186.88,-115.12 305.12,-115.12 305.12,-98.88 186.88,-98.88"/>
<text xml:space="preserve" text-anchor="start" x="187.88" y="-103.72" font-family="Arial" font-weight="bold" font-size="12.00">PublicTransportLine</text>
<polygon fill="none" stroke="black" points="185.88,-97.88 185.88,-116.12 306.12,-116.12 306.12,-97.88 185.88,-97.88"/>
</g>
<!-- GroupOfLines&#45;&gt;PublicTransportLine -->
<g id="edge5" class="edge">
<title>GroupOfLines&#45;&gt;PublicTransportLine</title>
<path fill="none" stroke="black" d="M64.8,-173.41C62.25,-163.49 61.3,-151.26 68.25,-143 83.32,-125.1 149.06,-129.62 172,-125 172.99,-124.8 173.99,-124.6 174.99,-124.39"/>
<polygon fill="black" stroke="black" points="175.34,-127.9 184.4,-122.41 173.9,-121.05 175.34,-127.9"/>
<text xml:space="preserve" text-anchor="middle" x="152.62" y="-145.5" font-family="Arial" font-size="10.00">«min 1, only» partwhole:hasProperPart</text>
</g>
<!-- PublicTransportSystem -->
<g id="node5" class="node">
<title>PublicTransportSystem</title>
<polygon fill="lightgray" stroke="none" points="172.88,-25.88 172.88,-42.12 309.12,-42.12 309.12,-25.88 172.88,-25.88"/>
<text xml:space="preserve" text-anchor="start" x="173.88" y="-30.73" font-family="Arial" font-weight="bold" font-size="12.00">PublicTransportSystem</text>
<polygon fill="none" stroke="black" points="171.88,-24.88 171.88,-43.12 310.12,-43.12 310.12,-24.88 171.88,-24.88"/>
</g>
<!-- GroupOfLines&#45;&gt;PublicTransportSystem -->
<g id="edge6" class="edge">
<title>GroupOfLines&#45;&gt;PublicTransportSystem</title>
<path fill="none" stroke="black" d="M58.83,-173.26C44.78,-151.71 25.91,-114.06 45,-89 59.43,-70.06 113.1,-56.08 160.64,-47.1"/>
<polygon fill="black" stroke="black" points="161.23,-50.55 170.44,-45.31 159.97,-43.66 161.23,-50.55"/>
<text xml:space="preserve" text-anchor="middle" x="111" y="-103.5" font-family="Arial" font-size="10.00">«only» partwhole:properPartOf</text>
</g>
<!-- Invis&#45;&gt;PublicTransportLine -->
<!-- PublicTransportLine&#45;&gt;PublicTransportSystem -->
</g>
</svg>
