<?xml version="1.0" encoding="UTF-8" standalone="no"?>
<!DOCTYPE svg PUBLIC "-//W3C//DTD SVG 1.1//EN"
 "http://www.w3.org/Graphics/SVG/1.1/DTD/svg11.dtd">
<!-- Generated by graphviz version 13.1.0 (20250701.0955)
 -->
<!-- Pages: 1 -->
<svg width="326pt" height="302pt"
 viewBox="0.00 0.00 326.00 302.00" xmlns="http://www.w3.org/2000/svg" xmlns:xlink="http://www.w3.org/1999/xlink">
<g id="graph0" class="graph" transform="scale(1 1) rotate(0) translate(4 298)">
<polygon fill="white" stroke="none" points="-4,4 -4,-298 322,-298 322,4 -4,4"/>
<g id="clust2" class="cluster">
<title>cluster_associated</title>
</g>
<!-- PublicTransportElement -->
<g id="node1" class="node">
<title>PublicTransportElement</title>
<polygon fill="lightgray" stroke="none" points="1,-267.88 1,-284.12 141,-284.12 141,-267.88 1,-267.88"/>
<text xml:space="preserve" text-anchor="start" x="2" y="-272.73" font-family="Arial" font-weight="bold" font-size="12.00">PublicTransportElement</text>
<polygon fill="none" stroke="black" points="0,-266.88 0,-285.12 142,-285.12 142,-266.88 0,-266.88"/>
</g>
<!-- GroupOfLines -->
<g id="node2" class="node">
<title>GroupOfLines</title>
<polygon fill="lightgray" stroke="none" points="29.88,-194.88 29.88,-211.12 112.12,-211.12 112.12,-194.88 29.88,-194.88"/>
<text xml:space="preserve" text-anchor="start" x="30.88" y="-199.72" font-family="Arial" font-weight="bold" font-size="12.00">GroupOfLines</text>
<polygon fill="none" stroke="black" points="28.88,-193.88 28.88,-212.12 113.12,-212.12 113.12,-193.88 28.88,-193.88"/>
</g>
<!-- GroupOfLines&#45;&gt;PublicTransportElement -->
<g id="edge1" class="edge">
<title>GroupOfLines&#45;&gt;PublicTransportElement</title>
<path fill="none" stroke="black" d="M71,-220.71C71,-228.47 71,-237.92 71,-246.74"/>
<polygon fill="none" stroke="black" points="67.5,-246.66 71,-256.66 74.5,-246.66 67.5,-246.66"/>
</g>
<!-- Invis -->
<!-- GroupOfLines&#45;&gt;Invis -->
<!-- PublicTransportLine -->
<g id="node4" class="node">
<title>PublicTransportLine</title>
<polygon fill="lightgray" stroke="none" points="178.88,-98.88 178.88,-115.12 297.12,-115.12 297.12,-98.88 178.88,-98.88"/>
<text xml:space="preserve" text-anchor="start" x="179.88" y="-103.72" font-family="Arial" font-weight="bold" font-size="12.00">PublicTransportLine</text>
<polygon fill="none" stroke="black" points="177.88,-97.88 177.88,-116.12 298.12,-116.12 298.12,-97.88 177.88,-97.88"/>
</g>
<!-- GroupOfLines&#45;&gt;PublicTransportLine -->
<g id="edge5" class="edge">
<title>GroupOfLines&#45;&gt;PublicTransportLine</title>
<path fill="none" stroke="black" d="M64.72,-185.06C61.1,-172.09 58.95,-154.52 68.5,-143 82.28,-126.38 142.86,-129.42 164,-125 165.02,-124.79 166.04,-124.57 167.07,-124.35"/>
<polygon fill="black" stroke="black" points="167.76,-127.79 176.79,-122.25 166.28,-120.94 167.76,-127.79"/>
<text xml:space="preserve" text-anchor="middle" x="148.75" y="-157.5" font-family="Arial" font-size="10.00">«min 1, only»</text>
<text xml:space="preserve" text-anchor="middle" x="148.75" y="-145.5" font-family="Arial" font-size="10.00">onProperty: partwhole:hasProperPart</text>
</g>
<!-- PublicTransportSystem -->
<g id="node5" class="node">
<title>PublicTransportSystem</title>
<polygon fill="lightgray" stroke="none" points="164.88,-25.88 164.88,-42.12 301.12,-42.12 301.12,-25.88 164.88,-25.88"/>
<text xml:space="preserve" text-anchor="start" x="165.88" y="-30.73" font-family="Arial" font-weight="bold" font-size="12.00">PublicTransportSystem</text>
<polygon fill="none" stroke="black" points="163.88,-24.88 163.88,-43.12 302.12,-43.12 302.12,-24.88 163.88,-24.88"/>
</g>
<!-- GroupOfLines&#45;&gt;PublicTransportSystem -->
<g id="edge6" class="edge">
<title>GroupOfLines&#45;&gt;PublicTransportSystem</title>
<path fill="none" stroke="black" d="M51.53,-185.07C27.18,-161.84 -8.61,-119.5 15.25,-89 32.37,-67.12 98.04,-52.85 152.83,-44.51"/>
<polygon fill="black" stroke="black" points="153.09,-48.01 162.48,-43.09 152.08,-41.09 153.09,-48.01"/>
<text xml:space="preserve" text-anchor="middle" x="92.12" y="-109.5" font-family="Arial" font-size="10.00">«only»</text>
<text xml:space="preserve" text-anchor="middle" x="92.12" y="-97.5" font-family="Arial" font-size="10.00">onProperty: partwhole:properPartOf</text>
</g>
<!-- Invis&#45;&gt;PublicTransportLine -->
<!-- PublicTransportLine&#45;&gt;PublicTransportSystem -->
</g>
</svg>
