<?xml version="1.0" encoding="UTF-8" standalone="no"?>
<!DOCTYPE svg PUBLIC "-//W3C//DTD SVG 1.1//EN"
 "http://www.w3.org/Graphics/SVG/1.1/DTD/svg11.dtd">
<!-- Generated by graphviz version 13.1.0 (20250701.0955)
 -->
<!-- Pages: 1 -->
<svg width="439pt" height="363pt"
 viewBox="0.00 0.00 439.00 363.00" xmlns="http://www.w3.org/2000/svg" xmlns:xlink="http://www.w3.org/1999/xlink">
<g id="graph0" class="graph" transform="scale(1 1) rotate(0) translate(4 359)">
<polygon fill="white" stroke="none" points="-4,4 -4,-359 434.5,-359 434.5,4 -4,4"/>
<g id="clust2" class="cluster">
<title>cluster_associated</title>
</g>
<!-- RoadSection -->
<g id="node1" class="node">
<title>RoadSection</title>
<polygon fill="lightgray" stroke="none" points="21,-328.88 21,-345.12 97.25,-345.12 97.25,-328.88 21,-328.88"/>
<text xml:space="preserve" text-anchor="start" x="22" y="-333.73" font-family="Arial" font-weight="bold" font-size="12.00">RoadSection</text>
<polygon fill="none" stroke="black" points="20,-327.88 20,-346.12 98.25,-346.12 98.25,-327.88 20,-327.88"/>
</g>
<!-- MicromobilityPathSection -->
<g id="node2" class="node">
<title>MicromobilityPathSection</title>
<polygon fill="lightgray" stroke="none" points="1,-244.88 1,-261.12 149.25,-261.12 149.25,-244.88 1,-244.88"/>
<text xml:space="preserve" text-anchor="start" x="2" y="-249.72" font-family="Arial" font-weight="bold" font-size="12.00">MicromobilityPathSection</text>
<polygon fill="none" stroke="black" points="0,-243.88 0,-262.12 150.25,-262.12 150.25,-243.88 0,-243.88"/>
</g>
<!-- MicromobilityPathSection&#45;&gt;RoadSection -->
<g id="edge1" class="edge">
<title>MicromobilityPathSection&#45;&gt;RoadSection</title>
<path fill="none" stroke="black" d="M71.81,-270.97C69.73,-281.63 67,-295.64 64.6,-307.92"/>
<polygon fill="none" stroke="black" points="61.21,-307.04 62.73,-317.52 68.08,-308.38 61.21,-307.04"/>
</g>
<!-- Invis -->
<!-- MicromobilityPathSection&#45;&gt;Invis -->
<!-- MicromobilityNetwork -->
<g id="node5" class="node">
<title>MicromobilityNetwork</title>
<polygon fill="lightgray" stroke="none" points="208.25,-98.88 208.25,-115.12 334,-115.12 334,-98.88 208.25,-98.88"/>
<text xml:space="preserve" text-anchor="start" x="209.25" y="-103.72" font-family="Arial" font-weight="bold" font-size="12.00">MicromobilityNetwork</text>
<polygon fill="none" stroke="black" points="207.25,-97.88 207.25,-116.12 335,-116.12 335,-97.88 207.25,-97.88"/>
</g>
<!-- MicromobilityPathSection&#45;&gt;MicromobilityNetwork -->
<g id="edge9" class="edge">
<title>MicromobilityPathSection&#45;&gt;MicromobilityNetwork</title>
<path fill="none" stroke="black" stroke-dasharray="5,2" d="M54.96,-235.3C34.52,-216.35 8.34,-185.08 26.88,-162 47.88,-135.85 132.47,-121.59 196.26,-114.4"/>
<polygon fill="black" stroke="black" points="196.44,-117.9 206,-113.35 195.68,-110.94 196.44,-117.9"/>
<text xml:space="preserve" text-anchor="middle" x="119.5" y="-176.5" font-family="Arial" font-size="10.00">«only» onProperty: partwhole:properPartOf</text>
</g>
<!-- Union_partwhole_hasProperPart -->
<g id="node7" class="node">
<title>Union_partwhole_hasProperPart</title>
<polygon fill="lightyellow" stroke="none" points="167.75,-320.75 167.75,-353.25 430.5,-353.25 430.5,-320.75 167.75,-320.75"/>
<text xml:space="preserve" text-anchor="start" x="271.38" y="-339.85" font-family="Arial" font-size="12.00">«unionOf»</text>
<text xml:space="preserve" text-anchor="start" x="169.75" y="-325.6" font-family="Arial" font-size="12.00">[MicromobilityLink or MicromobilityPathSegment]</text>
<polygon fill="none" stroke="black" points="167.75,-320.75 167.75,-353.25 430.5,-353.25 430.5,-320.75 167.75,-320.75"/>
</g>
<!-- MicromobilityPathSection&#45;&gt;Union_partwhole_hasProperPart -->
<g id="edge8" class="edge">
<title>MicromobilityPathSection&#45;&gt;Union_partwhole_hasProperPart</title>
<path fill="none" stroke="black" stroke-dasharray="5,2" d="M77.32,-270.79C79.56,-281.05 84.07,-293.58 93.12,-301 104.3,-310.16 128.47,-317.01 156.47,-322.1"/>
<polygon fill="black" stroke="black" points="155.86,-325.55 166.31,-323.78 157.04,-318.65 155.86,-325.55"/>
<text xml:space="preserve" text-anchor="middle" x="189.12" y="-291.5" font-family="Arial" font-size="10.00">«only» onProperty: partwhole:hasProperPart</text>
</g>
<!-- MicromobilityLink -->
<g id="node4" class="node">
<title>MicromobilityLink</title>
<polygon fill="lightgray" stroke="none" points="222.5,-171.88 222.5,-188.12 325.75,-188.12 325.75,-171.88 222.5,-171.88"/>
<text xml:space="preserve" text-anchor="start" x="223.5" y="-176.72" font-family="Arial" font-weight="bold" font-size="12.00">MicromobilityLink</text>
<polygon fill="none" stroke="black" points="221.5,-170.88 221.5,-189.12 326.75,-189.12 326.75,-170.88 221.5,-170.88"/>
</g>
<!-- Invis&#45;&gt;MicromobilityLink -->
<!-- MicromobilityLink&#45;&gt;MicromobilityNetwork -->
<!-- MicromobilityPathSegment -->
<g id="node6" class="node">
<title>MicromobilityPathSegment</title>
<polygon fill="lightgray" stroke="none" points="201.25,-25.88 201.25,-42.12 357,-42.12 357,-25.88 201.25,-25.88"/>
<text xml:space="preserve" text-anchor="start" x="202.25" y="-30.73" font-family="Arial" font-weight="bold" font-size="12.00">MicromobilityPathSegment</text>
<polygon fill="none" stroke="black" points="200.25,-24.88 200.25,-43.12 358,-43.12 358,-24.88 200.25,-24.88"/>
</g>
<!-- MicromobilityNetwork&#45;&gt;MicromobilityPathSegment -->
<!-- Union_partwhole_hasProperPart&#45;&gt;MicromobilityLink -->
<g id="edge6" class="edge">
<title>Union_partwhole_hasProperPart&#45;&gt;MicromobilityLink</title>
<path fill="none" stroke="black" stroke-dasharray="1,5" d="M296.4,-319.12C292.14,-292.68 283.84,-241.22 278.66,-209.12"/>
<polygon fill="black" stroke="black" points="282.13,-208.67 277.09,-199.36 275.22,-209.79 282.13,-208.67"/>
<text xml:space="preserve" text-anchor="middle" x="307.55" y="-249.5" font-family="Arial" font-size="10.00">member</text>
</g>
<!-- Union_partwhole_hasProperPart&#45;&gt;MicromobilityPathSegment -->
<g id="edge7" class="edge">
<title>Union_partwhole_hasProperPart&#45;&gt;MicromobilityPathSegment</title>
<path fill="none" stroke="black" stroke-dasharray="1,5" d="M323.32,-319.1C341.44,-304.27 363.12,-280.91 363.12,-254 363.12,-254 363.12,-254 363.12,-106 363.12,-85.22 347.94,-69.27 330.48,-57.81"/>
<polygon fill="black" stroke="black" points="332.31,-54.82 321.93,-52.68 328.7,-60.82 332.31,-54.82"/>
<text xml:space="preserve" text-anchor="middle" x="380.75" y="-176.5" font-family="Arial" font-size="10.00">member</text>
</g>
</g>
</svg>
