<?xml version="1.0" encoding="UTF-8" standalone="no"?>
<!DOCTYPE svg PUBLIC "-//W3C//DTD SVG 1.1//EN"
 "http://www.w3.org/Graphics/SVG/1.1/DTD/svg11.dtd">
<!-- Generated by graphviz version 13.1.0 (20250701.0955)
 -->
<!-- Pages: 1 -->
<svg width="266pt" height="132pt"
 viewBox="0.00 0.00 266.00 132.00" xmlns="http://www.w3.org/2000/svg" xmlns:xlink="http://www.w3.org/1999/xlink">
<g id="graph0" class="graph" transform="scale(1 1) rotate(0) translate(4 128)">
<polygon fill="white" stroke="none" points="-4,4 -4,-128 261.5,-128 261.5,4 -4,4"/>
<g id="clust2" class="cluster">
<title>cluster_associated</title>
</g>
<!-- ITSPattern -->
<g id="node1" class="node">
<title>ITSPattern</title>
<polygon fill="lightgray" stroke="none" points="53.5,-97.88 53.5,-114.12 115.5,-114.12 115.5,-97.88 53.5,-97.88"/>
<text xml:space="preserve" text-anchor="start" x="54.5" y="-102.72" font-family="Arial" font-weight="bold" font-size="12.00">ITSPattern</text>
<polygon fill="none" stroke="black" points="52.5,-96.88 52.5,-115.12 116.5,-115.12 116.5,-96.88 52.5,-96.88"/>
</g>
<!-- MicromobilityNetworkPattern -->
<g id="node2" class="node">
<title>MicromobilityNetworkPattern</title>
<polygon fill="lightgray" stroke="none" points="1,-25.88 1,-42.12 168,-42.12 168,-25.88 1,-25.88"/>
<text xml:space="preserve" text-anchor="start" x="2" y="-30.73" font-family="Arial" font-weight="bold" font-size="12.00">MicromobilityNetworkPattern</text>
<polygon fill="none" stroke="black" points="0,-24.88 0,-43.12 169,-43.12 169,-24.88 0,-24.88"/>
</g>
<!-- MicromobilityNetworkPattern&#45;&gt;ITSPattern -->
<g id="edge1" class="edge">
<title>MicromobilityNetworkPattern&#45;&gt;ITSPattern</title>
<path fill="none" stroke="black" d="M84.5,-51.79C84.5,-59.25 84.5,-68.24 84.5,-76.69"/>
<polygon fill="none" stroke="black" points="81,-76.54 84.5,-86.54 88,-76.54 81,-76.54"/>
</g>
<!-- Invis -->
<!-- MicromobilityNetworkPattern&#45;&gt;Invis -->
</g>
</svg>
