<?xml version="1.0" encoding="UTF-8" standalone="no"?>
<!DOCTYPE svg PUBLIC "-//W3C//DTD SVG 1.1//EN"
 "http://www.w3.org/Graphics/SVG/1.1/DTD/svg11.dtd">
<!-- Generated by graphviz version 13.1.0 (20250701.0955)
 -->
<!-- Pages: 1 -->
<svg width="317pt" height="217pt"
 viewBox="0.00 0.00 317.00 217.00" xmlns="http://www.w3.org/2000/svg" xmlns:xlink="http://www.w3.org/1999/xlink">
<g id="graph0" class="graph" transform="scale(1 1) rotate(0) translate(4 213)">
<polygon fill="white" stroke="none" points="-4,4 -4,-213 312.5,-213 312.5,4 -4,4"/>
<g id="clust2" class="cluster">
<title>cluster_associated</title>
</g>
<!-- RoadLane -->
<g id="node1" class="node">
<title>RoadLane</title>
<polygon fill="lightgray" stroke="none" points="23.88,-182.88 23.88,-199.12 85.12,-199.12 85.12,-182.88 23.88,-182.88"/>
<text xml:space="preserve" text-anchor="start" x="24.88" y="-187.72" font-family="Arial" font-weight="bold" font-size="12.00">RoadLane</text>
<polygon fill="none" stroke="black" points="22.88,-181.88 22.88,-200.12 86.12,-200.12 86.12,-181.88 22.88,-181.88"/>
</g>
<!-- MicromobilityLane -->
<g id="node2" class="node">
<title>MicromobilityLane</title>
<polygon fill="lightgray" stroke="none" points="1,-109.88 1,-126.12 108,-126.12 108,-109.88 1,-109.88"/>
<text xml:space="preserve" text-anchor="start" x="2" y="-114.72" font-family="Arial" font-weight="bold" font-size="12.00">MicromobilityLane</text>
<polygon fill="none" stroke="black" points="0,-108.88 0,-127.12 109,-127.12 109,-108.88 0,-108.88"/>
</g>
<!-- MicromobilityLane&#45;&gt;RoadLane -->
<g id="edge1" class="edge">
<title>MicromobilityLane&#45;&gt;RoadLane</title>
<path fill="none" stroke="black" d="M54.5,-135.71C54.5,-143.47 54.5,-152.92 54.5,-161.74"/>
<polygon fill="none" stroke="black" points="51,-161.66 54.5,-171.66 58,-161.66 51,-161.66"/>
</g>
<!-- Invis -->
<!-- MicromobilityLane&#45;&gt;Invis -->
<!-- MicromobilityPathSegment -->
<g id="node4" class="node">
<title>MicromobilityPathSegment</title>
<polygon fill="lightgray" stroke="none" points="135.62,-25.88 135.62,-42.12 291.38,-42.12 291.38,-25.88 135.62,-25.88"/>
<text xml:space="preserve" text-anchor="start" x="136.62" y="-30.73" font-family="Arial" font-weight="bold" font-size="12.00">MicromobilityPathSegment</text>
<polygon fill="none" stroke="black" points="134.62,-24.88 134.62,-43.12 292.38,-43.12 292.38,-24.88 134.62,-24.88"/>
</g>
<!-- MicromobilityLane&#45;&gt;MicromobilityPathSegment -->
<g id="edge4" class="edge">
<title>MicromobilityLane&#45;&gt;MicromobilityPathSegment</title>
<path fill="none" stroke="black" stroke-dasharray="5,2" d="M30.17,-100.06C20.01,-90.94 12.22,-79.61 20.25,-70 33.82,-53.75 79.7,-45.03 123.36,-40.36"/>
<polygon fill="black" stroke="black" points="123.57,-43.85 133.17,-39.38 122.88,-36.89 123.57,-43.85"/>
<text xml:space="preserve" text-anchor="middle" x="127.88" y="-72.5" font-family="Arial" font-size="10.00">«min 1, only» onProperty: partwhole:properPartOf</text>
</g>
<!-- Invis&#45;&gt;MicromobilityPathSegment -->
</g>
</svg>
