<?xml version="1.0" encoding="UTF-8" standalone="no"?>
<!DOCTYPE svg PUBLIC "-//W3C//DTD SVG 1.1//EN"
 "http://www.w3.org/Graphics/SVG/1.1/DTD/svg11.dtd">
<!-- Generated by graphviz version 13.1.0 (20250701.0955)
 -->
<!-- Pages: 1 -->
<svg width="421pt" height="375pt"
 viewBox="0.00 0.00 421.00 375.00" xmlns="http://www.w3.org/2000/svg" xmlns:xlink="http://www.w3.org/1999/xlink">
<g id="graph0" class="graph" transform="scale(1 1) rotate(0) translate(4 371)">
<polygon fill="white" stroke="none" points="-4,4 -4,-371 416.5,-371 416.5,4 -4,4"/>
<g id="clust2" class="cluster">
<title>cluster_associated</title>
</g>
<!-- RoadSection -->
<g id="node1" class="node">
<title>RoadSection</title>
<polygon fill="lightgray" stroke="none" points="34,-340.88 34,-357.12 110.25,-357.12 110.25,-340.88 34,-340.88"/>
<text xml:space="preserve" text-anchor="start" x="35" y="-345.73" font-family="Arial" font-weight="bold" font-size="12.00">RoadSection</text>
<polygon fill="none" stroke="black" points="33,-339.88 33,-358.12 111.25,-358.12 111.25,-339.88 33,-339.88"/>
</g>
<!-- MicromobilityPathSection -->
<g id="node2" class="node">
<title>MicromobilityPathSection</title>
<polygon fill="lightgray" stroke="none" points="1,-244.88 1,-261.12 149.25,-261.12 149.25,-244.88 1,-244.88"/>
<text xml:space="preserve" text-anchor="start" x="2" y="-249.72" font-family="Arial" font-weight="bold" font-size="12.00">MicromobilityPathSection</text>
<polygon fill="none" stroke="black" points="0,-243.88 0,-262.12 150.25,-262.12 150.25,-243.88 0,-243.88"/>
</g>
<!-- MicromobilityPathSection&#45;&gt;RoadSection -->
<g id="edge1" class="edge">
<title>MicromobilityPathSection&#45;&gt;RoadSection</title>
<path fill="none" stroke="black" d="M74.58,-270.98C74.15,-284.58 73.53,-303.94 73.02,-319.85"/>
<polygon fill="none" stroke="black" points="69.53,-319.58 72.71,-329.68 76.53,-319.8 69.53,-319.58"/>
</g>
<!-- Invis -->
<!-- MicromobilityPathSection&#45;&gt;Invis -->
<!-- MicromobilityNetwork -->
<g id="node5" class="node">
<title>MicromobilityNetwork</title>
<polygon fill="lightgray" stroke="none" points="190.25,-98.88 190.25,-115.12 316,-115.12 316,-98.88 190.25,-98.88"/>
<text xml:space="preserve" text-anchor="start" x="191.25" y="-103.72" font-family="Arial" font-weight="bold" font-size="12.00">MicromobilityNetwork</text>
<polygon fill="none" stroke="black" points="189.25,-97.88 189.25,-116.12 317,-116.12 317,-97.88 189.25,-97.88"/>
</g>
<!-- MicromobilityPathSection&#45;&gt;MicromobilityNetwork -->
<g id="edge9" class="edge">
<title>MicromobilityPathSection&#45;&gt;MicromobilityNetwork</title>
<path fill="none" stroke="black" stroke-dasharray="5,2" d="M59.5,-235.28C43.46,-216.03 23.1,-184.21 40.38,-162 57.41,-140.1 123.92,-125.64 178.1,-117.24"/>
<polygon fill="black" stroke="black" points="178.58,-120.71 187.95,-115.77 177.55,-113.79 178.58,-120.71"/>
<text xml:space="preserve" text-anchor="middle" x="117.25" y="-182.5" font-family="Arial" font-size="10.00">«only»</text>
<text xml:space="preserve" text-anchor="middle" x="117.25" y="-170.5" font-family="Arial" font-size="10.00">onProperty: partwhole:properPartOf</text>
</g>
<!-- Union_partwhole_hasProperPart -->
<g id="node7" class="node">
<title>Union_partwhole_hasProperPart</title>
<polygon fill="lightyellow" stroke="none" points="149.75,-332.75 149.75,-365.25 412.5,-365.25 412.5,-332.75 149.75,-332.75"/>
<text xml:space="preserve" text-anchor="start" x="253.38" y="-351.85" font-family="Arial" font-size="12.00">«unionOf»</text>
<text xml:space="preserve" text-anchor="start" x="151.75" y="-337.6" font-family="Arial" font-size="12.00">[MicromobilityLink or MicromobilityPathSegment]</text>
<polygon fill="none" stroke="black" points="149.75,-332.75 149.75,-365.25 412.5,-365.25 412.5,-332.75 149.75,-332.75"/>
</g>
<!-- MicromobilityPathSection&#45;&gt;Union_partwhole_hasProperPart -->
<g id="edge8" class="edge">
<title>MicromobilityPathSection&#45;&gt;Union_partwhole_hasProperPart</title>
<path fill="none" stroke="black" stroke-dasharray="5,2" d="M79.76,-270.9C84.35,-284.39 92.74,-302.68 106.62,-313 114.57,-318.9 129.47,-324.05 147.34,-328.44"/>
<polygon fill="black" stroke="black" points="146.49,-331.83 157.02,-330.66 148.06,-325.01 146.49,-331.83"/>
<text xml:space="preserve" text-anchor="middle" x="186.88" y="-303.5" font-family="Arial" font-size="10.00">«only»</text>
<text xml:space="preserve" text-anchor="middle" x="186.88" y="-291.5" font-family="Arial" font-size="10.00">onProperty: partwhole:hasProperPart</text>
</g>
<!-- MicromobilityLink -->
<g id="node4" class="node">
<title>MicromobilityLink</title>
<polygon fill="lightgray" stroke="none" points="204.5,-171.88 204.5,-188.12 307.75,-188.12 307.75,-171.88 204.5,-171.88"/>
<text xml:space="preserve" text-anchor="start" x="205.5" y="-176.72" font-family="Arial" font-weight="bold" font-size="12.00">MicromobilityLink</text>
<polygon fill="none" stroke="black" points="203.5,-170.88 203.5,-189.12 308.75,-189.12 308.75,-170.88 203.5,-170.88"/>
</g>
<!-- Invis&#45;&gt;MicromobilityLink -->
<!-- MicromobilityLink&#45;&gt;MicromobilityNetwork -->
<!-- MicromobilityPathSegment -->
<g id="node6" class="node">
<title>MicromobilityPathSegment</title>
<polygon fill="lightgray" stroke="none" points="188.25,-25.88 188.25,-42.12 344,-42.12 344,-25.88 188.25,-25.88"/>
<text xml:space="preserve" text-anchor="start" x="189.25" y="-30.73" font-family="Arial" font-weight="bold" font-size="12.00">MicromobilityPathSegment</text>
<polygon fill="none" stroke="black" points="187.25,-24.88 187.25,-43.12 345,-43.12 345,-24.88 187.25,-24.88"/>
</g>
<!-- MicromobilityNetwork&#45;&gt;MicromobilityPathSegment -->
<!-- Union_partwhole_hasProperPart&#45;&gt;MicromobilityLink -->
<g id="edge6" class="edge">
<title>Union_partwhole_hasProperPart&#45;&gt;MicromobilityLink</title>
<path fill="none" stroke="black" stroke-dasharray="1,5" d="M278.59,-331.07C274.3,-302.44 265.58,-244.17 260.36,-209.26"/>
<polygon fill="black" stroke="black" points="263.83,-208.85 258.89,-199.47 256.91,-209.88 263.83,-208.85"/>
<text xml:space="preserve" text-anchor="middle" x="288.32" y="-249.5" font-family="Arial" font-size="10.00">member</text>
</g>
<!-- Union_partwhole_hasProperPart&#45;&gt;MicromobilityPathSegment -->
<g id="edge7" class="edge">
<title>Union_partwhole_hasProperPart&#45;&gt;MicromobilityPathSegment</title>
<path fill="none" stroke="black" stroke-dasharray="1,5" d="M301.73,-331.26C320.44,-314.05 345.12,-285.39 345.12,-254 345.12,-254 345.12,-254 345.12,-106 345.12,-85.62 330.4,-69.6 313.66,-57.98"/>
<polygon fill="black" stroke="black" points="315.83,-55.21 305.51,-52.79 312.07,-61.11 315.83,-55.21"/>
<text xml:space="preserve" text-anchor="middle" x="362.75" y="-176.5" font-family="Arial" font-size="10.00">member</text>
</g>
</g>
</svg>
