<?xml version="1.0" encoding="UTF-8" standalone="no"?>
<!DOCTYPE svg PUBLIC "-//W3C//DTD SVG 1.1//EN"
 "http://www.w3.org/Graphics/SVG/1.1/DTD/svg11.dtd">
<!-- Generated by graphviz version 14.0.2 (20251019.1705)
 -->
<!-- Pages: 1 -->
<svg width="236pt" height="132pt"
 viewBox="0.00 0.00 236.00 132.00" xmlns="http://www.w3.org/2000/svg" xmlns:xlink="http://www.w3.org/1999/xlink">
<g id="graph0" class="graph" transform="scale(1 1) rotate(0) translate(4 128)">
<polygon fill="white" stroke="none" points="-4,4 -4,-128 231.88,-128 231.88,4 -4,4"/>
<g id="clust2" class="cluster">
<title>cluster_associated</title>
</g>
<!-- MicromobilityPathSection -->
<g id="node1" class="node">
<title>MicromobilityPathSection</title>
<g id="a_node1"><a xlink:href="../MicromobilityPathSection.md" xlink:title="&lt;TABLE&gt;">
<polygon fill="lightgray" stroke="none" points="1,-25.88 1,-42.12 138.75,-42.12 138.75,-25.88 1,-25.88"/>
<text xml:space="preserve" text-anchor="start" x="2" y="-29.73" font-family="Arial" font-size="12.00">MicromobilityPathSection</text>
<polygon fill="none" stroke="black" points="0,-24.88 0,-43.12 139.75,-43.12 139.75,-24.88 0,-24.88"/>
</a>
</g>
</g>
<!-- RoadSection -->
<g id="node3" class="node">
<title>RoadSection</title>
<g id="a_node3"><a xlink:href="../RoadSection.md" xlink:title="&lt;TABLE&gt;">
<polygon fill="lightgray" stroke="none" points="34,-97.88 34,-114.12 105.75,-114.12 105.75,-97.88 34,-97.88"/>
<text xml:space="preserve" text-anchor="start" x="35" y="-101.72" font-family="Arial" font-size="12.00">RoadSection</text>
<polygon fill="none" stroke="black" points="33,-96.88 33,-115.12 106.75,-115.12 106.75,-96.88 33,-96.88"/>
</a>
</g>
</g>
<!-- MicromobilityPathSection&#45;&gt;RoadSection -->
<g id="edge1" class="edge">
<title>MicromobilityPathSection&#45;&gt;RoadSection</title>
<path fill="none" stroke="black" d="M69.88,-51.79C69.88,-59.25 69.88,-68.24 69.88,-76.69"/>
<polygon fill="none" stroke="black" points="66.38,-76.54 69.88,-86.54 73.38,-76.54 66.38,-76.54"/>
</g>
<!-- Invis -->
</g>
</svg>
