<?xml version="1.0" encoding="UTF-8" standalone="no"?>
<!DOCTYPE svg PUBLIC "-//W3C//DTD SVG 1.1//EN"
 "http://www.w3.org/Graphics/SVG/1.1/DTD/svg11.dtd">
<!-- Generated by graphviz version 14.0.2 (20251019.1705)
 -->
<!-- Pages: 1 -->
<svg width="244pt" height="132pt"
 viewBox="0.00 0.00 244.00 132.00" xmlns="http://www.w3.org/2000/svg" xmlns:xlink="http://www.w3.org/1999/xlink">
<g id="graph0" class="graph" transform="scale(1 1) rotate(0) translate(4 128)">
<polygon fill="white" stroke="none" points="-4,4 -4,-128 239.62,-128 239.62,4 -4,4"/>
<g id="clust2" class="cluster">
<title>cluster_associated</title>
</g>
<!-- MicromobilityPathSegment -->
<g id="node1" class="node">
<title>MicromobilityPathSegment</title>
<g id="a_node1"><a xlink:href="../MicromobilityPathSegment.md" xlink:title="&lt;TABLE&gt;">
<polygon fill="lightgray" stroke="none" points="1,-25.88 1,-42.12 146.25,-42.12 146.25,-25.88 1,-25.88"/>
<text xml:space="preserve" text-anchor="start" x="2" y="-29.73" font-family="Arial" font-size="12.00">MicromobilityPathSegment</text>
<polygon fill="none" stroke="black" points="0,-24.88 0,-43.12 147.25,-43.12 147.25,-24.88 0,-24.88"/>
</a>
</g>
</g>
<!-- RoadSegment -->
<g id="node3" class="node">
<title>RoadSegment</title>
<g id="a_node3"><a xlink:href="../RoadSegment.md" xlink:title="&lt;TABLE&gt;">
<polygon fill="lightgray" stroke="none" points="34,-97.88 34,-114.12 113.25,-114.12 113.25,-97.88 34,-97.88"/>
<text xml:space="preserve" text-anchor="start" x="35" y="-101.72" font-family="Arial" font-size="12.00">RoadSegment</text>
<polygon fill="none" stroke="black" points="33,-96.88 33,-115.12 114.25,-115.12 114.25,-96.88 33,-96.88"/>
</a>
</g>
</g>
<!-- MicromobilityPathSegment&#45;&gt;RoadSegment -->
<g id="edge1" class="edge">
<title>MicromobilityPathSegment&#45;&gt;RoadSegment</title>
<path fill="none" stroke="black" d="M73.62,-51.79C73.62,-59.25 73.62,-68.24 73.62,-76.69"/>
<polygon fill="none" stroke="black" points="70.13,-76.54 73.63,-86.54 77.13,-76.54 70.13,-76.54"/>
</g>
<!-- Invis -->
</g>
</svg>
