<?xml version="1.0" encoding="UTF-8" standalone="no"?>
<!DOCTYPE svg PUBLIC "-//W3C//DTD SVG 1.1//EN"
 "http://www.w3.org/Graphics/SVG/1.1/DTD/svg11.dtd">
<!-- Generated by graphviz version 13.1.0 (20250701.0955)
 -->
<!-- Pages: 1 -->
<svg width="632pt" height="374pt"
 viewBox="0.00 0.00 632.00 374.00" xmlns="http://www.w3.org/2000/svg" xmlns:xlink="http://www.w3.org/1999/xlink">
<g id="graph0" class="graph" transform="scale(1 1) rotate(0) translate(4 370)">
<polygon fill="white" stroke="none" points="-4,4 -4,-370 627.62,-370 627.62,4 -4,4"/>
<g id="clust2" class="cluster">
<title>cluster_associated</title>
</g>
<!-- RoadSegment -->
<g id="node1" class="node">
<title>RoadSegment</title>
<polygon fill="lightgray" stroke="none" points="220.12,-339.88 220.12,-356.12 303.88,-356.12 303.88,-339.88 220.12,-339.88"/>
<text xml:space="preserve" text-anchor="start" x="221.12" y="-344.73" font-family="Arial" font-weight="bold" font-size="12.00">RoadSegment</text>
<polygon fill="none" stroke="black" points="219.12,-338.88 219.12,-357.12 304.88,-357.12 304.88,-338.88 219.12,-338.88"/>
</g>
<!-- MicromobilityPathSegment -->
<g id="node2" class="node">
<title>MicromobilityPathSegment</title>
<polygon fill="lightgray" stroke="none" points="184.12,-255.88 184.12,-272.12 339.88,-272.12 339.88,-255.88 184.12,-255.88"/>
<text xml:space="preserve" text-anchor="start" x="185.12" y="-260.73" font-family="Arial" font-weight="bold" font-size="12.00">MicromobilityPathSegment</text>
<polygon fill="none" stroke="black" points="183.12,-254.88 183.12,-273.12 340.88,-273.12 340.88,-254.88 183.12,-254.88"/>
</g>
<!-- MicromobilityPathSegment&#45;&gt;RoadSegment -->
<g id="edge1" class="edge">
<title>MicromobilityPathSegment&#45;&gt;RoadSegment</title>
<path fill="none" stroke="black" d="M262,-281.97C262,-292.52 262,-306.35 262,-318.54"/>
<polygon fill="none" stroke="black" points="258.5,-318.5 262,-328.5 265.5,-318.5 258.5,-318.5"/>
</g>
<!-- Invis -->
<!-- MicromobilityPathSegment&#45;&gt;Invis -->
<!-- MicromobilityLane -->
<g id="node4" class="node">
<title>MicromobilityLane</title>
<polygon fill="lightgray" stroke="none" points="17.5,-171.88 17.5,-188.12 124.5,-188.12 124.5,-171.88 17.5,-171.88"/>
<text xml:space="preserve" text-anchor="start" x="18.5" y="-176.72" font-family="Arial" font-weight="bold" font-size="12.00">MicromobilityLane</text>
<polygon fill="none" stroke="black" points="16.5,-170.88 16.5,-189.12 125.5,-189.12 125.5,-170.88 16.5,-170.88"/>
</g>
<!-- MicromobilityPathSegment&#45;&gt;MicromobilityLane -->
<g id="edge6" class="edge">
<title>MicromobilityPathSegment&#45;&gt;MicromobilityLane</title>
<path fill="none" stroke="black" stroke-dasharray="5,2" d="M183.34,-246.91C181.54,-246.6 179.76,-246.29 178,-246 147.93,-240.97 62.09,-250.93 42,-228 36.19,-221.37 38.3,-213.43 43.39,-205.98"/>
<polygon fill="black" stroke="black" points="45.72,-208.65 49.46,-198.74 40.35,-204.15 45.72,-208.65"/>
<text xml:space="preserve" text-anchor="middle" x="153" y="-218.5" font-family="Arial" font-size="10.00">«min 1, only» onProperty: partwhole:hasProperPart</text>
</g>
<!-- MicromobilityLink -->
<g id="node5" class="node">
<title>MicromobilityLink</title>
<polygon fill="lightgray" stroke="none" points="56.38,-98.88 56.38,-115.12 159.62,-115.12 159.62,-98.88 56.38,-98.88"/>
<text xml:space="preserve" text-anchor="start" x="57.38" y="-103.72" font-family="Arial" font-weight="bold" font-size="12.00">MicromobilityLink</text>
<polygon fill="none" stroke="black" points="55.38,-97.88 55.38,-116.12 160.62,-116.12 160.62,-97.88 55.38,-97.88"/>
</g>
<!-- MicromobilityPathSegment&#45;&gt;MicromobilityLink -->
<g id="edge10" class="edge">
<title>MicromobilityPathSegment&#45;&gt;MicromobilityLink</title>
<path fill="none" stroke="black" stroke-dasharray="5,2" d="M266.72,-246C268.37,-236.64 268.78,-225.12 264,-216 242.78,-175.5 198.71,-147.17 162.81,-129.72"/>
<polygon fill="black" stroke="black" points="164.36,-126.58 153.82,-125.51 161.39,-132.92 164.36,-126.58"/>
<text xml:space="preserve" text-anchor="middle" x="347.48" y="-176.5" font-family="Arial" font-size="10.00">«min 1» onProperty: partwhole:properPartOf</text>
</g>
<!-- Union_partwhole_properPartOf -->
<g id="node7" class="node">
<title>Union_partwhole_properPartOf</title>
<polygon fill="lightyellow" stroke="none" points="368.38,-331.75 368.38,-364.25 623.62,-364.25 623.62,-331.75 368.38,-331.75"/>
<text xml:space="preserve" text-anchor="start" x="468.25" y="-350.85" font-family="Arial" font-size="12.00">«unionOf»</text>
<text xml:space="preserve" text-anchor="start" x="370.38" y="-336.6" font-family="Arial" font-size="12.00">[MicromobilityLink or MicromobilityPathSection]</text>
<polygon fill="none" stroke="black" points="368.38,-331.75 368.38,-364.25 623.62,-364.25 623.62,-331.75 368.38,-331.75"/>
</g>
<!-- MicromobilityPathSegment&#45;&gt;Union_partwhole_properPartOf -->
<g id="edge9" class="edge">
<title>MicromobilityPathSegment&#45;&gt;Union_partwhole_properPartOf</title>
<path fill="none" stroke="black" stroke-dasharray="5,2" d="M270.28,-281.97C276.21,-292.3 285.19,-304.85 296.75,-312 308.33,-319.17 331.19,-325.2 357.42,-330.14"/>
<polygon fill="black" stroke="black" points="356.49,-333.52 366.95,-331.85 357.72,-326.63 356.49,-333.52"/>
<text xml:space="preserve" text-anchor="middle" x="389.38" y="-302.5" font-family="Arial" font-size="10.00">«only» onProperty: partwhole:properPartOf</text>
</g>
<!-- Invis&#45;&gt;MicromobilityLane -->
<!-- MicromobilityLane&#45;&gt;MicromobilityLink -->
<!-- MicromobilityPathSection -->
<g id="node6" class="node">
<title>MicromobilityPathSection</title>
<polygon fill="lightgray" stroke="none" points="16.88,-25.88 16.88,-42.12 165.12,-42.12 165.12,-25.88 16.88,-25.88"/>
<text xml:space="preserve" text-anchor="start" x="17.88" y="-30.73" font-family="Arial" font-weight="bold" font-size="12.00">MicromobilityPathSection</text>
<polygon fill="none" stroke="black" points="15.88,-24.88 15.88,-43.12 166.12,-43.12 166.12,-24.88 15.88,-24.88"/>
</g>
<!-- MicromobilityLink&#45;&gt;MicromobilityPathSection -->
<!-- Union_partwhole_properPartOf&#45;&gt;MicromobilityLink -->
<g id="edge7" class="edge">
<title>Union_partwhole_properPartOf&#45;&gt;MicromobilityLink</title>
<path fill="none" stroke="black" stroke-dasharray="1,5" d="M497.09,-330.16C498.45,-293.53 496.05,-206.33 447,-162 407.6,-126.39 258.72,-114.19 171.91,-110.06"/>
<polygon fill="black" stroke="black" points="172.27,-106.57 162.13,-109.62 171.96,-113.57 172.27,-106.57"/>
<text xml:space="preserve" text-anchor="middle" x="503.04" y="-218.5" font-family="Arial" font-size="10.00">member</text>
</g>
<!-- Union_partwhole_properPartOf&#45;&gt;MicromobilityPathSection -->
<g id="edge8" class="edge">
<title>Union_partwhole_properPartOf&#45;&gt;MicromobilityPathSection</title>
<path fill="none" stroke="black" stroke-dasharray="1,5" d="M513.77,-330.25C528.14,-314.82 546,-290.51 546,-265 546,-265 546,-265 546,-106 546,-69.08 309.05,-48.47 177.14,-39.86"/>
<polygon fill="black" stroke="black" points="177.59,-36.38 167.39,-39.23 177.14,-43.37 177.59,-36.38"/>
<text xml:space="preserve" text-anchor="middle" x="563.62" y="-176.5" font-family="Arial" font-size="10.00">member</text>
</g>
</g>
</svg>
