<?xml version="1.0" encoding="UTF-8" standalone="no"?>
<!DOCTYPE svg PUBLIC "-//W3C//DTD SVG 1.1//EN"
 "http://www.w3.org/Graphics/SVG/1.1/DTD/svg11.dtd">
<!-- Generated by graphviz version 13.1.0 (20250701.0955)
 -->
<!-- Pages: 1 -->
<svg width="306pt" height="302pt"
 viewBox="0.00 0.00 306.00 302.00" xmlns="http://www.w3.org/2000/svg" xmlns:xlink="http://www.w3.org/1999/xlink">
<g id="graph0" class="graph" transform="scale(1 1) rotate(0) translate(4 298)">
<polygon fill="white" stroke="none" points="-4,4 -4,-298 301.84,-298 301.84,4 -4,4"/>
<g id="clust2" class="cluster">
<title>cluster_associated</title>
</g>
<!-- Road -->
<g id="node1" class="node">
<title>Road</title>
<polygon fill="lightgray" stroke="none" points="40.46,-267.88 40.46,-284.12 73.21,-284.12 73.21,-267.88 40.46,-267.88"/>
<text xml:space="preserve" text-anchor="start" x="41.46" y="-272.73" font-family="Arial" font-weight="bold" font-size="12.00">Road</text>
<polygon fill="none" stroke="black" points="39.46,-266.88 39.46,-285.12 74.21,-285.12 74.21,-266.88 39.46,-266.88"/>
</g>
<!-- MicromobilityPath -->
<g id="node2" class="node">
<title>MicromobilityPath</title>
<polygon fill="lightgray" stroke="none" points="4.46,-194.88 4.46,-211.12 109.21,-211.12 109.21,-194.88 4.46,-194.88"/>
<text xml:space="preserve" text-anchor="start" x="5.46" y="-199.72" font-family="Arial" font-weight="bold" font-size="12.00">MicromobilityPath</text>
<polygon fill="none" stroke="black" points="3.46,-193.88 3.46,-212.12 110.21,-212.12 110.21,-193.88 3.46,-193.88"/>
</g>
<!-- MicromobilityPath&#45;&gt;Road -->
<g id="edge1" class="edge">
<title>MicromobilityPath&#45;&gt;Road</title>
<path fill="none" stroke="black" d="M56.84,-220.71C56.84,-228.47 56.84,-237.92 56.84,-246.74"/>
<polygon fill="none" stroke="black" points="53.34,-246.66 56.84,-256.66 60.34,-246.66 53.34,-246.66"/>
</g>
<!-- Invis -->
<!-- MicromobilityPath&#45;&gt;Invis -->
<!-- MicromobilityLink -->
<g id="node4" class="node">
<title>MicromobilityLink</title>
<polygon fill="lightgray" stroke="none" points="172.21,-98.88 172.21,-115.12 275.46,-115.12 275.46,-98.88 172.21,-98.88"/>
<text xml:space="preserve" text-anchor="start" x="173.21" y="-103.72" font-family="Arial" font-weight="bold" font-size="12.00">MicromobilityLink</text>
<polygon fill="none" stroke="black" points="171.21,-97.88 171.21,-116.12 276.46,-116.12 276.46,-97.88 171.21,-97.88"/>
</g>
<!-- MicromobilityPath&#45;&gt;MicromobilityLink -->
<g id="edge5" class="edge">
<title>MicromobilityPath&#45;&gt;MicromobilityLink</title>
<path fill="none" stroke="black" stroke-dasharray="5,2" d="M50.51,-185.03C46.87,-172.03 44.7,-154.46 54.34,-143 69.36,-125.13 135.01,-129.92 157.84,-125 158.66,-124.82 159.49,-124.64 160.32,-124.46"/>
<polygon fill="black" stroke="black" points="160.89,-127.92 169.85,-122.27 159.32,-121.1 160.89,-127.92"/>
<text xml:space="preserve" text-anchor="middle" x="134.59" y="-157.5" font-family="Arial" font-size="10.00">«min 1, only»</text>
<text xml:space="preserve" text-anchor="middle" x="134.59" y="-145.5" font-family="Arial" font-size="10.00">onProperty: partwhole:hasProperPart</text>
</g>
<!-- MicromobilityNetwork -->
<g id="node5" class="node">
<title>MicromobilityNetwork</title>
<polygon fill="lightgray" stroke="none" points="154.96,-25.88 154.96,-42.12 280.71,-42.12 280.71,-25.88 154.96,-25.88"/>
<text xml:space="preserve" text-anchor="start" x="155.96" y="-30.73" font-family="Arial" font-weight="bold" font-size="12.00">MicromobilityNetwork</text>
<polygon fill="none" stroke="black" points="153.96,-24.88 153.96,-43.12 281.71,-43.12 281.71,-24.88 153.96,-24.88"/>
</g>
<!-- MicromobilityPath&#45;&gt;MicromobilityNetwork -->
<g id="edge6" class="edge">
<title>MicromobilityPath&#45;&gt;MicromobilityNetwork</title>
<path fill="none" stroke="black" stroke-dasharray="5,2" d="M39.53,-185.29C17.46,-161.95 -15.21,-119.06 8.09,-89 24.75,-67.5 89.6,-53.05 142.83,-44.55"/>
<polygon fill="black" stroke="black" points="143.14,-48.04 152.49,-43.06 142.08,-41.13 143.14,-48.04"/>
<text xml:space="preserve" text-anchor="middle" x="84.96" y="-109.5" font-family="Arial" font-size="10.00">«only»</text>
<text xml:space="preserve" text-anchor="middle" x="84.96" y="-97.5" font-family="Arial" font-size="10.00">onProperty: partwhole:properPartOf</text>
</g>
<!-- Invis&#45;&gt;MicromobilityLink -->
<!-- MicromobilityLink&#45;&gt;MicromobilityNetwork -->
</g>
</svg>
