<?xml version="1.0" encoding="UTF-8" standalone="no"?>
<!DOCTYPE svg PUBLIC "-//W3C//DTD SVG 1.1//EN"
 "http://www.w3.org/Graphics/SVG/1.1/DTD/svg11.dtd">
<!-- Generated by graphviz version 13.1.0 (20250701.0955)
 -->
<!-- Pages: 1 -->
<svg width="579pt" height="398pt"
 viewBox="0.00 0.00 579.00 398.00" xmlns="http://www.w3.org/2000/svg" xmlns:xlink="http://www.w3.org/1999/xlink">
<g id="graph0" class="graph" transform="scale(1 1) rotate(0) translate(4 394)">
<polygon fill="white" stroke="none" points="-4,4 -4,-394 574.62,-394 574.62,4 -4,4"/>
<g id="clust2" class="cluster">
<title>cluster_associated</title>
</g>
<!-- RoadSegment -->
<g id="node1" class="node">
<title>RoadSegment</title>
<polygon fill="lightgray" stroke="none" points="199.12,-363.88 199.12,-380.12 282.88,-380.12 282.88,-363.88 199.12,-363.88"/>
<text xml:space="preserve" text-anchor="start" x="200.12" y="-368.73" font-family="Arial" font-weight="bold" font-size="12.00">RoadSegment</text>
<polygon fill="none" stroke="black" points="198.12,-362.88 198.12,-381.12 283.88,-381.12 283.88,-362.88 198.12,-362.88"/>
</g>
<!-- MicromobilityPathSegment -->
<g id="node2" class="node">
<title>MicromobilityPathSegment</title>
<polygon fill="lightgray" stroke="none" points="183.12,-267.88 183.12,-284.12 338.88,-284.12 338.88,-267.88 183.12,-267.88"/>
<text xml:space="preserve" text-anchor="start" x="184.12" y="-272.73" font-family="Arial" font-weight="bold" font-size="12.00">MicromobilityPathSegment</text>
<polygon fill="none" stroke="black" points="182.12,-266.88 182.12,-285.12 339.88,-285.12 339.88,-266.88 182.12,-266.88"/>
</g>
<!-- MicromobilityPathSegment&#45;&gt;RoadSegment -->
<g id="edge1" class="edge">
<title>MicromobilityPathSegment&#45;&gt;RoadSegment</title>
<path fill="none" stroke="black" d="M257.39,-293.98C254.47,-307.71 250.29,-327.32 246.89,-343.32"/>
<polygon fill="none" stroke="black" points="243.55,-342.2 244.89,-352.71 250.4,-343.66 243.55,-342.2"/>
</g>
<!-- Invis -->
<!-- MicromobilityPathSegment&#45;&gt;Invis -->
<!-- MicromobilityLane -->
<g id="node4" class="node">
<title>MicromobilityLane</title>
<polygon fill="lightgray" stroke="none" points="31.5,-171.88 31.5,-188.12 138.5,-188.12 138.5,-171.88 31.5,-171.88"/>
<text xml:space="preserve" text-anchor="start" x="32.5" y="-176.72" font-family="Arial" font-weight="bold" font-size="12.00">MicromobilityLane</text>
<polygon fill="none" stroke="black" points="30.5,-170.88 30.5,-189.12 139.5,-189.12 139.5,-170.88 30.5,-170.88"/>
</g>
<!-- MicromobilityPathSegment&#45;&gt;MicromobilityLane -->
<g id="edge6" class="edge">
<title>MicromobilityPathSegment&#45;&gt;MicromobilityLane</title>
<path fill="none" stroke="black" stroke-dasharray="5,2" d="M182.36,-258.88C180.9,-258.58 179.44,-258.29 178,-258 137.36,-249.84 113.23,-271.67 86.5,-240 79.41,-231.6 78,-219.89 78.75,-209.11"/>
<polygon fill="black" stroke="black" points="82.18,-209.86 80.05,-199.49 75.24,-208.93 82.18,-209.86"/>
<text xml:space="preserve" text-anchor="middle" x="166.75" y="-230.5" font-family="Arial" font-size="10.00">«min 1, only»</text>
<text xml:space="preserve" text-anchor="middle" x="166.75" y="-218.5" font-family="Arial" font-size="10.00">onProperty: partwhole:hasProperPart</text>
</g>
<!-- MicromobilityLink -->
<g id="node5" class="node">
<title>MicromobilityLink</title>
<polygon fill="lightgray" stroke="none" points="56.38,-98.88 56.38,-115.12 159.62,-115.12 159.62,-98.88 56.38,-98.88"/>
<text xml:space="preserve" text-anchor="start" x="57.38" y="-103.72" font-family="Arial" font-weight="bold" font-size="12.00">MicromobilityLink</text>
<polygon fill="none" stroke="black" points="55.38,-97.88 55.38,-116.12 160.62,-116.12 160.62,-97.88 55.38,-97.88"/>
</g>
<!-- MicromobilityPathSegment&#45;&gt;MicromobilityLink -->
<g id="edge10" class="edge">
<title>MicromobilityPathSegment&#45;&gt;MicromobilityLink</title>
<path fill="none" stroke="black" stroke-dasharray="5,2" d="M259.99,-258.06C258.56,-245.59 255.14,-228.66 247,-216 223.21,-179.01 182.23,-149.48 150.92,-130.71"/>
<polygon fill="black" stroke="black" points="152.83,-127.77 142.43,-125.76 149.3,-133.82 152.83,-127.77"/>
<text xml:space="preserve" text-anchor="middle" x="309.7" y="-182.5" font-family="Arial" font-size="10.00">«min 1»</text>
<text xml:space="preserve" text-anchor="middle" x="309.7" y="-170.5" font-family="Arial" font-size="10.00">onProperty: partwhole:properPartOf</text>
</g>
<!-- Union_partwhole_properPartOf -->
<g id="node7" class="node">
<title>Union_partwhole_properPartOf</title>
<polygon fill="lightyellow" stroke="none" points="315.38,-355.75 315.38,-388.25 570.62,-388.25 570.62,-355.75 315.38,-355.75"/>
<text xml:space="preserve" text-anchor="start" x="415.25" y="-374.85" font-family="Arial" font-size="12.00">«unionOf»</text>
<text xml:space="preserve" text-anchor="start" x="317.38" y="-360.6" font-family="Arial" font-size="12.00">[MicromobilityLink or MicromobilityPathSection]</text>
<polygon fill="none" stroke="black" points="315.38,-355.75 315.38,-388.25 570.62,-388.25 570.62,-355.75 315.38,-355.75"/>
</g>
<!-- MicromobilityPathSegment&#45;&gt;Union_partwhole_properPartOf -->
<g id="edge9" class="edge">
<title>MicromobilityPathSegment&#45;&gt;Union_partwhole_properPartOf</title>
<path fill="none" stroke="black" stroke-dasharray="5,2" d="M260.49,-293.85C261.04,-307.12 264.05,-325.15 275.25,-336 281.35,-341.91 293.09,-346.93 307.63,-351.16"/>
<polygon fill="black" stroke="black" points="306.66,-354.52 317.22,-353.71 308.46,-347.76 306.66,-354.52"/>
<text xml:space="preserve" text-anchor="middle" x="352.12" y="-326.5" font-family="Arial" font-size="10.00">«only»</text>
<text xml:space="preserve" text-anchor="middle" x="352.12" y="-314.5" font-family="Arial" font-size="10.00">onProperty: partwhole:properPartOf</text>
</g>
<!-- Invis&#45;&gt;MicromobilityLane -->
<!-- MicromobilityLane&#45;&gt;MicromobilityLink -->
<!-- MicromobilityPathSection -->
<g id="node6" class="node">
<title>MicromobilityPathSection</title>
<polygon fill="lightgray" stroke="none" points="16.88,-25.88 16.88,-42.12 165.12,-42.12 165.12,-25.88 16.88,-25.88"/>
<text xml:space="preserve" text-anchor="start" x="17.88" y="-30.73" font-family="Arial" font-weight="bold" font-size="12.00">MicromobilityPathSection</text>
<polygon fill="none" stroke="black" points="15.88,-24.88 15.88,-43.12 166.12,-43.12 166.12,-24.88 15.88,-24.88"/>
</g>
<!-- MicromobilityLink&#45;&gt;MicromobilityPathSection -->
<!-- Union_partwhole_properPartOf&#45;&gt;MicromobilityLink -->
<g id="edge7" class="edge">
<title>Union_partwhole_properPartOf&#45;&gt;MicromobilityLink</title>
<path fill="none" stroke="black" stroke-dasharray="1,5" d="M444.36,-354.23C446.57,-314.47 446.11,-213.92 391,-162 360.07,-132.86 245.53,-118.61 171.99,-112.33"/>
<polygon fill="black" stroke="black" points="172.33,-108.84 162.07,-111.51 171.75,-115.82 172.33,-108.84"/>
<text xml:space="preserve" text-anchor="middle" x="451.19" y="-224.5" font-family="Arial" font-size="10.00">member</text>
</g>
<!-- Union_partwhole_properPartOf&#45;&gt;MicromobilityPathSection -->
<g id="edge8" class="edge">
<title>Union_partwhole_properPartOf&#45;&gt;MicromobilityPathSection</title>
<path fill="none" stroke="black" stroke-dasharray="1,5" d="M458.55,-354.07C473.22,-336.27 493,-306.76 493,-277 493,-277 493,-277 493,-106 493,-74.16 294.91,-52.04 176.84,-41.68"/>
<polygon fill="black" stroke="black" points="177.44,-38.22 167.18,-40.84 176.84,-45.19 177.44,-38.22"/>
<text xml:space="preserve" text-anchor="middle" x="510.62" y="-176.5" font-family="Arial" font-size="10.00">member</text>
</g>
</g>
</svg>
