<?xml version="1.0" encoding="UTF-8" standalone="no"?>
<!DOCTYPE svg PUBLIC "-//W3C//DTD SVG 1.1//EN"
 "http://www.w3.org/Graphics/SVG/1.1/DTD/svg11.dtd">
<!-- Generated by graphviz version 13.1.0 (20250701.0955)
 -->
<!-- Pages: 1 -->
<svg width="497pt" height="459pt"
 viewBox="0.00 0.00 497.00 459.00" xmlns="http://www.w3.org/2000/svg" xmlns:xlink="http://www.w3.org/1999/xlink">
<g id="graph0" class="graph" transform="scale(1 1) rotate(0) translate(4 455)">
<polygon fill="white" stroke="none" points="-4,4 -4,-455 493,-455 493,4 -4,4"/>
<g id="clust2" class="cluster">
<title>cluster_associated</title>
</g>
<!-- RoadLink -->
<g id="node1" class="node">
<title>RoadLink</title>
<polygon fill="lightgray" stroke="none" points="11.88,-424.88 11.88,-441.12 69.38,-441.12 69.38,-424.88 11.88,-424.88"/>
<text xml:space="preserve" text-anchor="start" x="12.88" y="-429.73" font-family="Arial" font-weight="bold" font-size="12.00">RoadLink</text>
<polygon fill="none" stroke="black" points="10.88,-423.88 10.88,-442.12 70.38,-442.12 70.38,-423.88 10.88,-423.88"/>
</g>
<!-- MicromobilityLink -->
<g id="node2" class="node">
<title>MicromobilityLink</title>
<polygon fill="lightgray" stroke="none" points="1,-328.88 1,-345.12 104.25,-345.12 104.25,-328.88 1,-328.88"/>
<text xml:space="preserve" text-anchor="start" x="2" y="-333.73" font-family="Arial" font-weight="bold" font-size="12.00">MicromobilityLink</text>
<polygon fill="none" stroke="black" points="0,-327.88 0,-346.12 105.25,-346.12 105.25,-327.88 0,-327.88"/>
</g>
<!-- MicromobilityLink&#45;&gt;RoadLink -->
<g id="edge1" class="edge">
<title>MicromobilityLink&#45;&gt;RoadLink</title>
<path fill="none" stroke="black" d="M50.46,-354.98C48.72,-368.58 46.25,-387.94 44.22,-403.85"/>
<polygon fill="none" stroke="black" points="40.76,-403.33 42.96,-413.69 47.7,-404.22 40.76,-403.33"/>
</g>
<!-- Invis -->
<!-- MicromobilityLink&#45;&gt;Invis -->
<!-- MicromobilityPathSegment -->
<g id="node7" class="node">
<title>MicromobilityPathSegment</title>
<polygon fill="lightgray" stroke="none" points="150.75,-25.88 150.75,-42.12 306.5,-42.12 306.5,-25.88 150.75,-25.88"/>
<text xml:space="preserve" text-anchor="start" x="151.75" y="-30.73" font-family="Arial" font-weight="bold" font-size="12.00">MicromobilityPathSegment</text>
<polygon fill="none" stroke="black" points="149.75,-24.88 149.75,-43.12 307.5,-43.12 307.5,-24.88 149.75,-24.88"/>
</g>
<!-- MicromobilityLink&#45;&gt;MicromobilityPathSegment -->
<g id="edge7" class="edge">
<title>MicromobilityLink&#45;&gt;MicromobilityPathSegment</title>
<path fill="none" stroke="black" stroke-dasharray="5,2" d="M42.47,-319.06C33.77,-302.92 22.63,-277.65 22.62,-254 22.62,-254 22.62,-254 22.62,-106 22.62,-79.71 83.34,-61.04 138.85,-49.46"/>
<polygon fill="black" stroke="black" points="139.27,-52.95 148.38,-47.54 137.89,-46.09 139.27,-52.95"/>
<text xml:space="preserve" text-anchor="middle" x="102.88" y="-182.5" font-family="Arial" font-size="10.00">«min 1, only»</text>
<text xml:space="preserve" text-anchor="middle" x="102.88" y="-170.5" font-family="Arial" font-size="10.00">onProperty: partwhole:hasProperPart</text>
</g>
<!-- Union_partwhole_properPartOf -->
<g id="node8" class="node">
<title>Union_partwhole_properPartOf</title>
<polygon fill="lightyellow" stroke="none" points="100.25,-416.75 100.25,-449.25 489,-449.25 489,-416.75 100.25,-416.75"/>
<text xml:space="preserve" text-anchor="start" x="266.88" y="-435.85" font-family="Arial" font-size="12.00">«unionOf»</text>
<text xml:space="preserve" text-anchor="start" x="102.25" y="-421.6" font-family="Arial" font-size="12.00">[MicromobilityNetwork or MicromobilityPath or MicromobilityPathSection]</text>
<polygon fill="none" stroke="black" points="100.25,-416.75 100.25,-449.25 489,-449.25 489,-416.75 100.25,-416.75"/>
</g>
<!-- MicromobilityLink&#45;&gt;Union_partwhole_properPartOf -->
<g id="edge11" class="edge">
<title>MicromobilityLink&#45;&gt;Union_partwhole_properPartOf</title>
<path fill="none" stroke="black" stroke-dasharray="5,2" d="M54.41,-354.9C56.77,-368.4 62.23,-386.69 74.88,-397 82.4,-403.13 95.43,-408.21 111.52,-412.4"/>
<polygon fill="black" stroke="black" points="110.5,-415.76 121.04,-414.68 112.13,-408.95 110.5,-415.76"/>
<text xml:space="preserve" text-anchor="middle" x="151.75" y="-387.5" font-family="Arial" font-size="10.00">«only»</text>
<text xml:space="preserve" text-anchor="middle" x="151.75" y="-375.5" font-family="Arial" font-size="10.00">onProperty: partwhole:properPartOf</text>
</g>
<!-- MicromobilityNetwork -->
<g id="node4" class="node">
<title>MicromobilityNetwork</title>
<polygon fill="lightgray" stroke="none" points="150.75,-244.88 150.75,-261.12 276.5,-261.12 276.5,-244.88 150.75,-244.88"/>
<text xml:space="preserve" text-anchor="start" x="151.75" y="-249.72" font-family="Arial" font-weight="bold" font-size="12.00">MicromobilityNetwork</text>
<polygon fill="none" stroke="black" points="149.75,-243.88 149.75,-262.12 277.5,-262.12 277.5,-243.88 149.75,-243.88"/>
</g>
<!-- Invis&#45;&gt;MicromobilityNetwork -->
<!-- MicromobilityPath -->
<g id="node5" class="node">
<title>MicromobilityPath</title>
<polygon fill="lightgray" stroke="none" points="202.25,-171.88 202.25,-188.12 307,-188.12 307,-171.88 202.25,-171.88"/>
<text xml:space="preserve" text-anchor="start" x="203.25" y="-176.72" font-family="Arial" font-weight="bold" font-size="12.00">MicromobilityPath</text>
<polygon fill="none" stroke="black" points="201.25,-170.88 201.25,-189.12 308,-189.12 308,-170.88 201.25,-170.88"/>
</g>
<!-- MicromobilityNetwork&#45;&gt;MicromobilityPath -->
<!-- MicromobilityPathSection -->
<g id="node6" class="node">
<title>MicromobilityPathSection</title>
<polygon fill="lightgray" stroke="none" points="158.5,-98.88 158.5,-115.12 306.75,-115.12 306.75,-98.88 158.5,-98.88"/>
<text xml:space="preserve" text-anchor="start" x="159.5" y="-103.72" font-family="Arial" font-weight="bold" font-size="12.00">MicromobilityPathSection</text>
<polygon fill="none" stroke="black" points="157.5,-97.88 157.5,-116.12 307.75,-116.12 307.75,-97.88 157.5,-97.88"/>
</g>
<!-- MicromobilityPath&#45;&gt;MicromobilityPathSection -->
<!-- MicromobilityPathSection&#45;&gt;MicromobilityPathSegment -->
<!-- Union_partwhole_properPartOf&#45;&gt;MicromobilityNetwork -->
<g id="edge8" class="edge">
<title>Union_partwhole_properPartOf&#45;&gt;MicromobilityNetwork</title>
<path fill="none" stroke="black" stroke-dasharray="1,5" d="M284.39,-415.03C276.29,-401.26 264.95,-381.22 256.38,-363 243.62,-335.91 231.39,-303.9 223.3,-281.61"/>
<polygon fill="black" stroke="black" points="226.65,-280.57 219.98,-272.34 220.06,-282.93 226.65,-280.57"/>
<text xml:space="preserve" text-anchor="middle" x="274" y="-333.5" font-family="Arial" font-size="10.00">member</text>
</g>
<!-- Union_partwhole_properPartOf&#45;&gt;MicromobilityPath -->
<g id="edge9" class="edge">
<title>Union_partwhole_properPartOf&#45;&gt;MicromobilityPath</title>
<path fill="none" stroke="black" stroke-dasharray="1,5" d="M296.75,-415.18C300.52,-380.55 306.27,-299.15 286.62,-235 283.72,-225.52 278.84,-215.95 273.75,-207.56"/>
<polygon fill="black" stroke="black" points="276.75,-205.76 268.38,-199.27 270.88,-209.57 276.75,-205.76"/>
<text xml:space="preserve" text-anchor="middle" x="316.23" y="-291.5" font-family="Arial" font-size="10.00">member</text>
</g>
<!-- Union_partwhole_properPartOf&#45;&gt;MicromobilityPathSection -->
<g id="edge10" class="edge">
<title>Union_partwhole_properPartOf&#45;&gt;MicromobilityPathSection</title>
<path fill="none" stroke="black" stroke-dasharray="1,5" d="M314.26,-415.06C332.09,-397.7 355.62,-368.93 355.62,-338 355.62,-338 355.62,-338 355.62,-179 355.62,-155.8 339.01,-140.06 317.99,-129.43"/>
<polygon fill="black" stroke="black" points="319.65,-126.34 309.1,-125.39 316.75,-132.72 319.65,-126.34"/>
<text xml:space="preserve" text-anchor="middle" x="373.25" y="-249.5" font-family="Arial" font-size="10.00">member</text>
</g>
</g>
</svg>
