<?xml version="1.0" encoding="UTF-8" standalone="no"?>
<!DOCTYPE svg PUBLIC "-//W3C//DTD SVG 1.1//EN"
 "http://www.w3.org/Graphics/SVG/1.1/DTD/svg11.dtd">
<!-- Generated by graphviz version 13.1.0 (20250701.0955)
 -->
<!-- Pages: 1 -->
<svg width="506pt" height="374pt"
 viewBox="0.00 0.00 506.00 374.00" xmlns="http://www.w3.org/2000/svg" xmlns:xlink="http://www.w3.org/1999/xlink">
<g id="graph0" class="graph" transform="scale(1 1) rotate(0) translate(4 370)">
<polygon fill="white" stroke="none" points="-4,4 -4,-370 501.5,-370 501.5,4 -4,4"/>
<g id="clust2" class="cluster">
<title>cluster_associated</title>
</g>
<!-- RoadNetwork -->
<g id="node1" class="node">
<title>RoadNetwork</title>
<polygon fill="lightgray" stroke="none" points="1,-339.88 1,-356.12 81,-356.12 81,-339.88 1,-339.88"/>
<text xml:space="preserve" text-anchor="start" x="2" y="-344.73" font-family="Arial" font-weight="bold" font-size="12.00">RoadNetwork</text>
<polygon fill="none" stroke="black" points="0,-338.88 0,-357.12 82,-357.12 82,-338.88 0,-338.88"/>
</g>
<!-- MicromobilityNetwork -->
<g id="node2" class="node">
<title>MicromobilityNetwork</title>
<polygon fill="lightgray" stroke="none" points="5.12,-255.88 5.12,-272.12 130.88,-272.12 130.88,-255.88 5.12,-255.88"/>
<text xml:space="preserve" text-anchor="start" x="6.12" y="-260.73" font-family="Arial" font-weight="bold" font-size="12.00">MicromobilityNetwork</text>
<polygon fill="none" stroke="black" points="4.12,-254.88 4.12,-273.12 131.88,-273.12 131.88,-254.88 4.12,-254.88"/>
</g>
<!-- MicromobilityNetwork&#45;&gt;RoadNetwork -->
<g id="edge1" class="edge">
<title>MicromobilityNetwork&#45;&gt;RoadNetwork</title>
<path fill="none" stroke="black" d="M61.56,-281.65C59.39,-287.43 57.01,-293.98 55,-300 52.91,-306.26 50.8,-313.03 48.88,-319.44"/>
<polygon fill="none" stroke="black" points="45.55,-318.35 46.09,-328.93 52.26,-320.33 45.55,-318.35"/>
</g>
<!-- Invis -->
<!-- MicromobilityNetwork&#45;&gt;Invis -->
<!-- MicromobilityLink -->
<g id="node4" class="node">
<title>MicromobilityLink</title>
<polygon fill="lightgray" stroke="none" points="211.38,-171.88 211.38,-188.12 314.62,-188.12 314.62,-171.88 211.38,-171.88"/>
<text xml:space="preserve" text-anchor="start" x="212.38" y="-176.72" font-family="Arial" font-weight="bold" font-size="12.00">MicromobilityLink</text>
<polygon fill="none" stroke="black" points="210.38,-170.88 210.38,-189.12 315.62,-189.12 315.62,-170.88 210.38,-170.88"/>
</g>
<!-- MicromobilityNetwork&#45;&gt;MicromobilityLink -->
<g id="edge10" class="edge">
<title>MicromobilityNetwork&#45;&gt;MicromobilityLink</title>
<path fill="none" stroke="black" stroke-dasharray="5,2" d="M57.52,-246.1C52.92,-236.31 49.97,-224.32 57,-216 74.99,-194.7 145.65,-186.36 199.24,-183.09"/>
<polygon fill="black" stroke="black" points="199.43,-186.59 209.22,-182.54 199.05,-179.6 199.43,-186.59"/>
<text xml:space="preserve" text-anchor="middle" x="156" y="-218.5" font-family="Arial" font-size="10.00">«min 1» onProperty: partwhole:hasProperPart</text>
</g>
<!-- Union_partwhole_hasProperPart -->
<g id="node7" class="node">
<title>Union_partwhole_hasProperPart</title>
<polygon fill="lightyellow" stroke="none" points="130.5,-331.75 130.5,-364.25 497.5,-364.25 497.5,-331.75 130.5,-331.75"/>
<text xml:space="preserve" text-anchor="start" x="286.25" y="-350.85" font-family="Arial" font-size="12.00">«unionOf»</text>
<text xml:space="preserve" text-anchor="start" x="132.5" y="-336.6" font-family="Arial" font-size="12.00">[MicromobilityLink or MicromobilityPath or MicromobilityPathSection]</text>
<polygon fill="none" stroke="black" points="130.5,-331.75 130.5,-364.25 497.5,-364.25 497.5,-331.75 130.5,-331.75"/>
</g>
<!-- MicromobilityNetwork&#45;&gt;Union_partwhole_hasProperPart -->
<g id="edge9" class="edge">
<title>MicromobilityNetwork&#45;&gt;Union_partwhole_hasProperPart</title>
<path fill="none" stroke="black" stroke-dasharray="5,2" d="M65.91,-281.99C65.67,-292.05 67.29,-304.31 75,-312 83.3,-320.28 99.39,-326.62 119.47,-331.46"/>
<polygon fill="black" stroke="black" points="118.66,-334.87 129.18,-333.6 120.17,-328.03 118.66,-334.87"/>
<text xml:space="preserve" text-anchor="middle" x="171" y="-302.5" font-family="Arial" font-size="10.00">«only» onProperty: partwhole:hasProperPart</text>
</g>
<!-- Invis&#45;&gt;MicromobilityLink -->
<!-- MicromobilityPath -->
<g id="node5" class="node">
<title>MicromobilityPath</title>
<polygon fill="lightgray" stroke="none" points="213.62,-98.88 213.62,-115.12 318.38,-115.12 318.38,-98.88 213.62,-98.88"/>
<text xml:space="preserve" text-anchor="start" x="214.62" y="-103.72" font-family="Arial" font-weight="bold" font-size="12.00">MicromobilityPath</text>
<polygon fill="none" stroke="black" points="212.62,-97.88 212.62,-116.12 319.38,-116.12 319.38,-97.88 212.62,-97.88"/>
</g>
<!-- MicromobilityLink&#45;&gt;MicromobilityPath -->
<!-- MicromobilityPathSection -->
<g id="node6" class="node">
<title>MicromobilityPathSection</title>
<polygon fill="lightgray" stroke="none" points="191.88,-25.88 191.88,-42.12 340.12,-42.12 340.12,-25.88 191.88,-25.88"/>
<text xml:space="preserve" text-anchor="start" x="192.88" y="-30.73" font-family="Arial" font-weight="bold" font-size="12.00">MicromobilityPathSection</text>
<polygon fill="none" stroke="black" points="190.88,-24.88 190.88,-43.12 341.12,-43.12 341.12,-24.88 190.88,-24.88"/>
</g>
<!-- MicromobilityPath&#45;&gt;MicromobilityPathSection -->
<!-- Union_partwhole_hasProperPart&#45;&gt;MicromobilityLink -->
<g id="edge6" class="edge">
<title>Union_partwhole_hasProperPart&#45;&gt;MicromobilityLink</title>
<path fill="none" stroke="black" stroke-dasharray="1,5" d="M308.08,-330.1C304.18,-318.79 299.01,-303.55 294.75,-290 286.08,-262.43 276.93,-230.68 270.69,-208.58"/>
<polygon fill="black" stroke="black" points="274.11,-207.82 268.03,-199.14 267.37,-209.72 274.11,-207.82"/>
<text xml:space="preserve" text-anchor="middle" x="312.38" y="-260.5" font-family="Arial" font-size="10.00">member</text>
</g>
<!-- Union_partwhole_hasProperPart&#45;&gt;MicromobilityPath -->
<g id="edge7" class="edge">
<title>Union_partwhole_hasProperPart&#45;&gt;MicromobilityPath</title>
<path fill="none" stroke="black" stroke-dasharray="1,5" d="M320.17,-330.14C331.48,-296.33 351.98,-218.64 325,-162 319.51,-150.48 310.37,-140.28 300.89,-131.92"/>
<polygon fill="black" stroke="black" points="303.32,-129.39 293.37,-125.75 298.88,-134.8 303.32,-129.39"/>
<text xml:space="preserve" text-anchor="middle" x="355.94" y="-218.5" font-family="Arial" font-size="10.00">member</text>
</g>
<!-- Union_partwhole_hasProperPart&#45;&gt;MicromobilityPathSection -->
<g id="edge8" class="edge">
<title>Union_partwhole_hasProperPart&#45;&gt;MicromobilityPathSection</title>
<path fill="none" stroke="black" stroke-dasharray="1,5" d="M346.54,-330.09C368.69,-316.01 394,-293.64 394,-265 394,-265 394,-265 394,-106 394,-80.88 374.91,-64.57 351.47,-54.01"/>
<polygon fill="black" stroke="black" points="352.81,-50.78 342.23,-50.26 350.18,-57.27 352.81,-50.78"/>
<text xml:space="preserve" text-anchor="middle" x="411.62" y="-176.5" font-family="Arial" font-size="10.00">member</text>
</g>
</g>
</svg>
