<?xml version="1.0" encoding="UTF-8" standalone="no"?>
<!DOCTYPE svg PUBLIC "-//W3C//DTD SVG 1.1//EN"
 "http://www.w3.org/Graphics/SVG/1.1/DTD/svg11.dtd">
<!-- Generated by graphviz version 14.0.2 (20251019.1705)
 -->
<!-- Pages: 1 -->
<svg width="214pt" height="132pt"
 viewBox="0.00 0.00 214.00 132.00" xmlns="http://www.w3.org/2000/svg" xmlns:xlink="http://www.w3.org/1999/xlink">
<g id="graph0" class="graph" transform="scale(1 1) rotate(0) translate(4 128)">
<polygon fill="white" stroke="none" points="-4,4 -4,-128 210.38,-128 210.38,4 -4,4"/>
<g id="clust2" class="cluster">
<title>cluster_associated</title>
</g>
<!-- MicromobilityNetwork -->
<g id="node1" class="node">
<title>MicromobilityNetwork</title>
<g id="a_node1"><a xlink:href="../MicromobilityNetwork.md" xlink:title="&lt;TABLE&gt;">
<polygon fill="lightgray" stroke="none" points="1,-25.88 1,-42.12 117.75,-42.12 117.75,-25.88 1,-25.88"/>
<text xml:space="preserve" text-anchor="start" x="2" y="-29.73" font-family="Arial" font-size="12.00">MicromobilityNetwork</text>
<polygon fill="none" stroke="black" points="0,-24.88 0,-43.12 118.75,-43.12 118.75,-24.88 0,-24.88"/>
</a>
</g>
</g>
<!-- RoadNetwork -->
<g id="node3" class="node">
<title>RoadNetwork</title>
<g id="a_node3"><a xlink:href="../RoadNetwork.md" xlink:title="&lt;TABLE&gt;">
<polygon fill="lightgray" stroke="none" points="21.62,-97.88 21.62,-114.12 97.12,-114.12 97.12,-97.88 21.62,-97.88"/>
<text xml:space="preserve" text-anchor="start" x="22.62" y="-101.72" font-family="Arial" font-size="12.00">RoadNetwork</text>
<polygon fill="none" stroke="black" points="20.62,-96.88 20.62,-115.12 98.12,-115.12 98.12,-96.88 20.62,-96.88"/>
</a>
</g>
</g>
<!-- MicromobilityNetwork&#45;&gt;RoadNetwork -->
<g id="edge1" class="edge">
<title>MicromobilityNetwork&#45;&gt;RoadNetwork</title>
<path fill="none" stroke="black" d="M59.38,-51.79C59.38,-59.25 59.38,-68.24 59.38,-76.69"/>
<polygon fill="none" stroke="black" points="55.88,-76.54 59.38,-86.54 62.88,-76.54 55.88,-76.54"/>
</g>
<!-- Invis -->
</g>
</svg>
