<?xml version="1.0" encoding="UTF-8" standalone="no"?>
<!DOCTYPE svg PUBLIC "-//W3C//DTD SVG 1.1//EN"
 "http://www.w3.org/Graphics/SVG/1.1/DTD/svg11.dtd">
<!-- Generated by graphviz version 13.1.0 (20250701.0955)
 -->
<!-- Pages: 1 -->
<svg width="313pt" height="229pt"
 viewBox="0.00 0.00 313.00 229.00" xmlns="http://www.w3.org/2000/svg" xmlns:xlink="http://www.w3.org/1999/xlink">
<g id="graph0" class="graph" transform="scale(1 1) rotate(0) translate(4 225)">
<polygon fill="white" stroke="none" points="-4,4 -4,-225 308.5,-225 308.5,4 -4,4"/>
<g id="clust2" class="cluster">
<title>cluster_associated</title>
</g>
<!-- RoadLane -->
<g id="node1" class="node">
<title>RoadLane</title>
<polygon fill="lightgray" stroke="none" points="23.88,-194.88 23.88,-211.12 85.12,-211.12 85.12,-194.88 23.88,-194.88"/>
<text xml:space="preserve" text-anchor="start" x="24.88" y="-199.72" font-family="Arial" font-weight="bold" font-size="12.00">RoadLane</text>
<polygon fill="none" stroke="black" points="22.88,-193.88 22.88,-212.12 86.12,-212.12 86.12,-193.88 22.88,-193.88"/>
</g>
<!-- MicromobilityLane -->
<g id="node2" class="node">
<title>MicromobilityLane</title>
<polygon fill="lightgray" stroke="none" points="1,-121.88 1,-138.12 108,-138.12 108,-121.88 1,-121.88"/>
<text xml:space="preserve" text-anchor="start" x="2" y="-126.72" font-family="Arial" font-weight="bold" font-size="12.00">MicromobilityLane</text>
<polygon fill="none" stroke="black" points="0,-120.88 0,-139.12 109,-139.12 109,-120.88 0,-120.88"/>
</g>
<!-- MicromobilityLane&#45;&gt;RoadLane -->
<g id="edge1" class="edge">
<title>MicromobilityLane&#45;&gt;RoadLane</title>
<path fill="none" stroke="black" d="M54.5,-147.71C54.5,-155.47 54.5,-164.92 54.5,-173.74"/>
<polygon fill="none" stroke="black" points="51,-173.66 54.5,-183.66 58,-173.66 51,-173.66"/>
</g>
<!-- Invis -->
<!-- MicromobilityLane&#45;&gt;Invis -->
<!-- MicromobilityPathSegment -->
<g id="node4" class="node">
<title>MicromobilityPathSegment</title>
<polygon fill="lightgray" stroke="none" points="131.62,-25.88 131.62,-42.12 287.38,-42.12 287.38,-25.88 131.62,-25.88"/>
<text xml:space="preserve" text-anchor="start" x="132.62" y="-30.73" font-family="Arial" font-weight="bold" font-size="12.00">MicromobilityPathSegment</text>
<polygon fill="none" stroke="black" points="130.62,-24.88 130.62,-43.12 288.38,-43.12 288.38,-24.88 130.62,-24.88"/>
</g>
<!-- MicromobilityLane&#45;&gt;MicromobilityPathSegment -->
<g id="edge4" class="edge">
<title>MicromobilityLane&#45;&gt;MicromobilityPathSegment</title>
<path fill="none" stroke="black" stroke-dasharray="5,2" d="M47.41,-112.16C43.21,-99.24 40.34,-81.69 49.75,-70 59.26,-58.18 88.69,-50.13 119.73,-44.76"/>
<polygon fill="black" stroke="black" points="119.95,-48.27 129.26,-43.21 118.83,-41.36 119.95,-48.27"/>
<text xml:space="preserve" text-anchor="middle" x="126.62" y="-84.5" font-family="Arial" font-size="10.00">«min 1, only»</text>
<text xml:space="preserve" text-anchor="middle" x="126.62" y="-72.5" font-family="Arial" font-size="10.00">onProperty: partwhole:properPartOf</text>
</g>
<!-- Invis&#45;&gt;MicromobilityPathSegment -->
</g>
</svg>
