<?xml version="1.0" encoding="UTF-8" standalone="no"?>
<!DOCTYPE svg PUBLIC "-//W3C//DTD SVG 1.1//EN"
 "http://www.w3.org/Graphics/SVG/1.1/DTD/svg11.dtd">
<!-- Generated by graphviz version 13.1.0 (20250701.0955)
 -->
<!-- Pages: 1 -->
<svg width="493pt" height="398pt"
 viewBox="0.00 0.00 493.00 398.00" xmlns="http://www.w3.org/2000/svg" xmlns:xlink="http://www.w3.org/1999/xlink">
<g id="graph0" class="graph" transform="scale(1 1) rotate(0) translate(4 394)">
<polygon fill="white" stroke="none" points="-4,4 -4,-394 489.38,-394 489.38,4 -4,4"/>
<g id="clust2" class="cluster">
<title>cluster_associated</title>
</g>
<!-- RoadNetwork -->
<g id="node1" class="node">
<title>RoadNetwork</title>
<polygon fill="lightgray" stroke="none" points="3.88,-363.88 3.88,-380.12 83.88,-380.12 83.88,-363.88 3.88,-363.88"/>
<text xml:space="preserve" text-anchor="start" x="4.88" y="-368.73" font-family="Arial" font-weight="bold" font-size="12.00">RoadNetwork</text>
<polygon fill="none" stroke="black" points="2.88,-362.88 2.88,-381.12 84.88,-381.12 84.88,-362.88 2.88,-362.88"/>
</g>
<!-- MicromobilityNetwork -->
<g id="node2" class="node">
<title>MicromobilityNetwork</title>
<polygon fill="lightgray" stroke="none" points="1,-267.88 1,-284.12 126.75,-284.12 126.75,-267.88 1,-267.88"/>
<text xml:space="preserve" text-anchor="start" x="2" y="-272.73" font-family="Arial" font-weight="bold" font-size="12.00">MicromobilityNetwork</text>
<polygon fill="none" stroke="black" points="0,-266.88 0,-285.12 127.75,-285.12 127.75,-266.88 0,-266.88"/>
</g>
<!-- MicromobilityNetwork&#45;&gt;RoadNetwork -->
<g id="edge1" class="edge">
<title>MicromobilityNetwork&#45;&gt;RoadNetwork</title>
<path fill="none" stroke="black" d="M60.26,-293.98C57.34,-307.71 53.17,-327.32 49.76,-343.32"/>
<polygon fill="none" stroke="black" points="46.42,-342.2 47.77,-352.71 53.27,-343.66 46.42,-342.2"/>
</g>
<!-- Invis -->
<!-- MicromobilityNetwork&#45;&gt;Invis -->
<!-- MicromobilityLink -->
<g id="node4" class="node">
<title>MicromobilityLink</title>
<polygon fill="lightgray" stroke="none" points="182.25,-171.88 182.25,-188.12 285.5,-188.12 285.5,-171.88 182.25,-171.88"/>
<text xml:space="preserve" text-anchor="start" x="183.25" y="-176.72" font-family="Arial" font-weight="bold" font-size="12.00">MicromobilityLink</text>
<polygon fill="none" stroke="black" points="181.25,-170.88 181.25,-189.12 286.5,-189.12 286.5,-170.88 181.25,-170.88"/>
</g>
<!-- MicromobilityNetwork&#45;&gt;MicromobilityLink -->
<g id="edge10" class="edge">
<title>MicromobilityNetwork&#45;&gt;MicromobilityLink</title>
<path fill="none" stroke="black" stroke-dasharray="5,2" d="M58.81,-258.08C56.05,-245.12 54.88,-227.56 64.38,-216 77.83,-199.63 127.92,-190.67 170.19,-185.93"/>
<polygon fill="black" stroke="black" points="170.5,-189.41 180.08,-184.89 169.77,-182.45 170.5,-189.41"/>
<text xml:space="preserve" text-anchor="middle" x="144.62" y="-230.5" font-family="Arial" font-size="10.00">«min 1»</text>
<text xml:space="preserve" text-anchor="middle" x="144.62" y="-218.5" font-family="Arial" font-size="10.00">onProperty: partwhole:hasProperPart</text>
</g>
<!-- Union_partwhole_hasProperPart -->
<g id="node7" class="node">
<title>Union_partwhole_hasProperPart</title>
<polygon fill="lightyellow" stroke="none" points="118.38,-355.75 118.38,-388.25 485.38,-388.25 485.38,-355.75 118.38,-355.75"/>
<text xml:space="preserve" text-anchor="start" x="274.12" y="-374.85" font-family="Arial" font-size="12.00">«unionOf»</text>
<text xml:space="preserve" text-anchor="start" x="120.38" y="-360.6" font-family="Arial" font-size="12.00">[MicromobilityLink or MicromobilityPath or MicromobilityPathSection]</text>
<polygon fill="none" stroke="black" points="118.38,-355.75 118.38,-388.25 485.38,-388.25 485.38,-355.75 118.38,-355.75"/>
</g>
<!-- MicromobilityNetwork&#45;&gt;Union_partwhole_hasProperPart -->
<g id="edge9" class="edge">
<title>MicromobilityNetwork&#45;&gt;Union_partwhole_hasProperPart</title>
<path fill="none" stroke="black" stroke-dasharray="5,2" d="M63.29,-293.74C63.78,-307.13 66.8,-325.37 78.38,-336 84.95,-342.04 96.24,-347.03 110.37,-351.17"/>
<polygon fill="black" stroke="black" points="109.1,-354.45 119.66,-353.64 110.9,-347.69 109.1,-354.45"/>
<text xml:space="preserve" text-anchor="middle" x="158.62" y="-326.5" font-family="Arial" font-size="10.00">«only»</text>
<text xml:space="preserve" text-anchor="middle" x="158.62" y="-314.5" font-family="Arial" font-size="10.00">onProperty: partwhole:hasProperPart</text>
</g>
<!-- Invis&#45;&gt;MicromobilityLink -->
<!-- MicromobilityPath -->
<g id="node5" class="node">
<title>MicromobilityPath</title>
<polygon fill="lightgray" stroke="none" points="185.5,-98.88 185.5,-115.12 290.25,-115.12 290.25,-98.88 185.5,-98.88"/>
<text xml:space="preserve" text-anchor="start" x="186.5" y="-103.72" font-family="Arial" font-weight="bold" font-size="12.00">MicromobilityPath</text>
<polygon fill="none" stroke="black" points="184.5,-97.88 184.5,-116.12 291.25,-116.12 291.25,-97.88 184.5,-97.88"/>
</g>
<!-- MicromobilityLink&#45;&gt;MicromobilityPath -->
<!-- MicromobilityPathSection -->
<g id="node6" class="node">
<title>MicromobilityPathSection</title>
<polygon fill="lightgray" stroke="none" points="163.75,-25.88 163.75,-42.12 312,-42.12 312,-25.88 163.75,-25.88"/>
<text xml:space="preserve" text-anchor="start" x="164.75" y="-30.73" font-family="Arial" font-weight="bold" font-size="12.00">MicromobilityPathSection</text>
<polygon fill="none" stroke="black" points="162.75,-24.88 162.75,-43.12 313,-43.12 313,-24.88 162.75,-24.88"/>
</g>
<!-- MicromobilityPath&#45;&gt;MicromobilityPathSection -->
<!-- Union_partwhole_hasProperPart&#45;&gt;MicromobilityLink -->
<g id="edge6" class="edge">
<title>Union_partwhole_hasProperPart&#45;&gt;MicromobilityLink</title>
<path fill="none" stroke="black" stroke-dasharray="1,5" d="M292.02,-354.16C284.31,-340.46 273.74,-320.45 266.62,-302 254.64,-270.94 245.28,-233.8 239.69,-208.93"/>
<polygon fill="black" stroke="black" points="243.14,-208.29 237.58,-199.27 236.3,-209.78 243.14,-208.29"/>
<text xml:space="preserve" text-anchor="middle" x="284.25" y="-272.5" font-family="Arial" font-size="10.00">member</text>
</g>
<!-- Union_partwhole_hasProperPart&#45;&gt;MicromobilityPath -->
<g id="edge7" class="edge">
<title>Union_partwhole_hasProperPart&#45;&gt;MicromobilityPath</title>
<path fill="none" stroke="black" stroke-dasharray="1,5" d="M305.71,-354.24C313.25,-317.37 326.76,-227.3 295.88,-162 290.47,-150.57 281.48,-140.39 272.16,-132.04"/>
<polygon fill="black" stroke="black" points="274.69,-129.59 264.78,-125.86 270.2,-134.96 274.69,-129.59"/>
<text xml:space="preserve" text-anchor="middle" x="332.04" y="-224.5" font-family="Arial" font-size="10.00">member</text>
</g>
<!-- Union_partwhole_hasProperPart&#45;&gt;MicromobilityPathSection -->
<g id="edge8" class="edge">
<title>Union_partwhole_hasProperPart&#45;&gt;MicromobilityPathSection</title>
<path fill="none" stroke="black" stroke-dasharray="1,5" d="M322.48,-354.26C341.19,-337.05 365.88,-308.39 365.88,-277 365.88,-277 365.88,-277 365.88,-106 365.88,-80.88 346.78,-64.57 323.35,-54.01"/>
<polygon fill="black" stroke="black" points="324.69,-50.78 314.11,-50.26 322.06,-57.27 324.69,-50.78"/>
<text xml:space="preserve" text-anchor="middle" x="383.5" y="-176.5" font-family="Arial" font-size="10.00">member</text>
</g>
</g>
</svg>
