<?xml version="1.0" encoding="UTF-8" standalone="no"?>
<!DOCTYPE svg PUBLIC "-//W3C//DTD SVG 1.1//EN"
 "http://www.w3.org/Graphics/SVG/1.1/DTD/svg11.dtd">
<!-- Generated by graphviz version 13.1.0 (20250701.0955)
 -->
<!-- Pages: 1 -->
<svg width="519pt" height="447pt"
 viewBox="0.00 0.00 519.00 447.00" xmlns="http://www.w3.org/2000/svg" xmlns:xlink="http://www.w3.org/1999/xlink">
<g id="graph0" class="graph" transform="scale(1 1) rotate(0) translate(4 443)">
<polygon fill="white" stroke="none" points="-4,4 -4,-443 515.38,-443 515.38,4 -4,4"/>
<g id="clust2" class="cluster">
<title>cluster_associated</title>
</g>
<!-- RoadLink -->
<g id="node1" class="node">
<title>RoadLink</title>
<polygon fill="lightgray" stroke="none" points="19.25,-412.88 19.25,-429.12 76.75,-429.12 76.75,-412.88 19.25,-412.88"/>
<text xml:space="preserve" text-anchor="start" x="20.25" y="-417.73" font-family="Arial" font-weight="bold" font-size="12.00">RoadLink</text>
<polygon fill="none" stroke="black" points="18.25,-411.88 18.25,-430.12 77.75,-430.12 77.75,-411.88 18.25,-411.88"/>
</g>
<!-- MicromobilityLink -->
<g id="node2" class="node">
<title>MicromobilityLink</title>
<polygon fill="lightgray" stroke="none" points="12.38,-328.88 12.38,-345.12 115.62,-345.12 115.62,-328.88 12.38,-328.88"/>
<text xml:space="preserve" text-anchor="start" x="13.38" y="-333.73" font-family="Arial" font-weight="bold" font-size="12.00">MicromobilityLink</text>
<polygon fill="none" stroke="black" points="11.38,-327.88 11.38,-346.12 116.62,-346.12 116.62,-327.88 11.38,-327.88"/>
</g>
<!-- MicromobilityLink&#45;&gt;RoadLink -->
<g id="edge1" class="edge">
<title>MicromobilityLink&#45;&gt;RoadLink</title>
<path fill="none" stroke="black" d="M60.69,-354.97C58.61,-365.63 55.88,-379.64 53.48,-391.92"/>
<polygon fill="none" stroke="black" points="50.09,-391.04 51.61,-401.52 56.96,-392.38 50.09,-391.04"/>
</g>
<!-- Invis -->
<!-- MicromobilityLink&#45;&gt;Invis -->
<!-- MicromobilityPathSegment -->
<g id="node7" class="node">
<title>MicromobilityPathSegment</title>
<polygon fill="lightgray" stroke="none" points="189.12,-25.88 189.12,-42.12 344.88,-42.12 344.88,-25.88 189.12,-25.88"/>
<text xml:space="preserve" text-anchor="start" x="190.12" y="-30.73" font-family="Arial" font-weight="bold" font-size="12.00">MicromobilityPathSegment</text>
<polygon fill="none" stroke="black" points="188.12,-24.88 188.12,-43.12 345.88,-43.12 345.88,-24.88 188.12,-24.88"/>
</g>
<!-- MicromobilityLink&#45;&gt;MicromobilityPathSegment -->
<g id="edge7" class="edge">
<title>MicromobilityLink&#45;&gt;MicromobilityPathSegment</title>
<path fill="none" stroke="black" stroke-dasharray="5,2" d="M39.8,-319.1C21.68,-304.27 0,-280.91 0,-254 0,-254 0,-254 0,-106 0,-68.51 99.54,-50.33 177.07,-41.86"/>
<polygon fill="black" stroke="black" points="177.25,-45.36 186.83,-40.84 176.52,-38.4 177.25,-45.36"/>
<text xml:space="preserve" text-anchor="middle" x="111" y="-176.5" font-family="Arial" font-size="10.00">«min 1, only» onProperty: partwhole:hasProperPart</text>
</g>
<!-- Union_partwhole_properPartOf -->
<g id="node8" class="node">
<title>Union_partwhole_properPartOf</title>
<polygon fill="lightyellow" stroke="none" points="122.62,-404.75 122.62,-437.25 511.38,-437.25 511.38,-404.75 122.62,-404.75"/>
<text xml:space="preserve" text-anchor="start" x="289.25" y="-423.85" font-family="Arial" font-size="12.00">«unionOf»</text>
<text xml:space="preserve" text-anchor="start" x="124.62" y="-409.6" font-family="Arial" font-size="12.00">[MicromobilityNetwork or MicromobilityPath or MicromobilityPathSection]</text>
<polygon fill="none" stroke="black" points="122.62,-404.75 122.62,-437.25 511.38,-437.25 511.38,-404.75 122.62,-404.75"/>
</g>
<!-- MicromobilityLink&#45;&gt;Union_partwhole_properPartOf -->
<g id="edge11" class="edge">
<title>MicromobilityLink&#45;&gt;Union_partwhole_properPartOf</title>
<path fill="none" stroke="black" stroke-dasharray="5,2" d="M66.05,-354.85C68.22,-365.13 72.65,-377.66 81.75,-385 89.36,-391.14 102.21,-396.21 118.1,-400.39"/>
<polygon fill="black" stroke="black" points="116.95,-403.71 127.49,-402.65 118.59,-396.9 116.95,-403.71"/>
<text xml:space="preserve" text-anchor="middle" x="174.38" y="-375.5" font-family="Arial" font-size="10.00">«only» onProperty: partwhole:properPartOf</text>
</g>
<!-- MicromobilityNetwork -->
<g id="node4" class="node">
<title>MicromobilityNetwork</title>
<polygon fill="lightgray" stroke="none" points="189.12,-244.88 189.12,-261.12 314.88,-261.12 314.88,-244.88 189.12,-244.88"/>
<text xml:space="preserve" text-anchor="start" x="190.12" y="-249.72" font-family="Arial" font-weight="bold" font-size="12.00">MicromobilityNetwork</text>
<polygon fill="none" stroke="black" points="188.12,-243.88 188.12,-262.12 315.88,-262.12 315.88,-243.88 188.12,-243.88"/>
</g>
<!-- Invis&#45;&gt;MicromobilityNetwork -->
<!-- MicromobilityPath -->
<g id="node5" class="node">
<title>MicromobilityPath</title>
<polygon fill="lightgray" stroke="none" points="240.62,-171.88 240.62,-188.12 345.38,-188.12 345.38,-171.88 240.62,-171.88"/>
<text xml:space="preserve" text-anchor="start" x="241.62" y="-176.72" font-family="Arial" font-weight="bold" font-size="12.00">MicromobilityPath</text>
<polygon fill="none" stroke="black" points="239.62,-170.88 239.62,-189.12 346.38,-189.12 346.38,-170.88 239.62,-170.88"/>
</g>
<!-- MicromobilityNetwork&#45;&gt;MicromobilityPath -->
<!-- MicromobilityPathSection -->
<g id="node6" class="node">
<title>MicromobilityPathSection</title>
<polygon fill="lightgray" stroke="none" points="196.88,-98.88 196.88,-115.12 345.12,-115.12 345.12,-98.88 196.88,-98.88"/>
<text xml:space="preserve" text-anchor="start" x="197.88" y="-103.72" font-family="Arial" font-weight="bold" font-size="12.00">MicromobilityPathSection</text>
<polygon fill="none" stroke="black" points="195.88,-97.88 195.88,-116.12 346.12,-116.12 346.12,-97.88 195.88,-97.88"/>
</g>
<!-- MicromobilityPath&#45;&gt;MicromobilityPathSection -->
<!-- MicromobilityPathSection&#45;&gt;MicromobilityPathSegment -->
<!-- Union_partwhole_properPartOf&#45;&gt;MicromobilityNetwork -->
<g id="edge8" class="edge">
<title>Union_partwhole_properPartOf&#45;&gt;MicromobilityNetwork</title>
<path fill="none" stroke="black" stroke-dasharray="1,5" d="M310.41,-403.17C299.17,-374.46 276.19,-315.78 262.65,-281.19"/>
<polygon fill="black" stroke="black" points="266.06,-280.32 259.16,-272.28 259.55,-282.87 266.06,-280.32"/>
<text xml:space="preserve" text-anchor="middle" x="311.75" y="-333.5" font-family="Arial" font-size="10.00">member</text>
</g>
<!-- Union_partwhole_properPartOf&#45;&gt;MicromobilityPath -->
<g id="edge9" class="edge">
<title>Union_partwhole_properPartOf&#45;&gt;MicromobilityPath</title>
<path fill="none" stroke="black" stroke-dasharray="1,5" d="M321.87,-403.21C324.88,-391.95 328.46,-376.72 330,-363 336.37,-306.43 341.67,-289.44 325,-235 322.1,-225.52 317.21,-215.95 312.13,-207.56"/>
<polygon fill="black" stroke="black" points="315.13,-205.76 306.76,-199.27 309.25,-209.57 315.13,-205.76"/>
<text xml:space="preserve" text-anchor="middle" x="353.77" y="-291.5" font-family="Arial" font-size="10.00">member</text>
</g>
<!-- Union_partwhole_properPartOf&#45;&gt;MicromobilityPathSection -->
<g id="edge10" class="edge">
<title>Union_partwhole_properPartOf&#45;&gt;MicromobilityPathSection</title>
<path fill="none" stroke="black" stroke-dasharray="1,5" d="M347.88,-403.09C369.3,-388.86 394,-366.32 394,-338 394,-338 394,-338 394,-179 394,-155.8 377.38,-140.06 356.36,-129.43"/>
<polygon fill="black" stroke="black" points="358.02,-126.34 347.47,-125.39 355.12,-132.72 358.02,-126.34"/>
<text xml:space="preserve" text-anchor="middle" x="411.62" y="-249.5" font-family="Arial" font-size="10.00">member</text>
</g>
</g>
</svg>
