<?xml version="1.0" encoding="UTF-8" standalone="no"?>
<!DOCTYPE svg PUBLIC "-//W3C//DTD SVG 1.1//EN"
 "http://www.w3.org/Graphics/SVG/1.1/DTD/svg11.dtd">
<!-- Generated by graphviz version 13.1.0 (20250701.0955)
 -->
<!-- Pages: 1 -->
<svg width="358pt" height="290pt"
 viewBox="0.00 0.00 358.00 290.00" xmlns="http://www.w3.org/2000/svg" xmlns:xlink="http://www.w3.org/1999/xlink">
<g id="graph0" class="graph" transform="scale(1 1) rotate(0) translate(4 286)">
<polygon fill="white" stroke="none" points="-4,4 -4,-286 354.38,-286 354.38,4 -4,4"/>
<g id="clust2" class="cluster">
<title>cluster_associated</title>
</g>
<!-- Road -->
<g id="node1" class="node">
<title>Road</title>
<polygon fill="lightgray" stroke="none" points="37,-255.88 37,-272.12 69.75,-272.12 69.75,-255.88 37,-255.88"/>
<text xml:space="preserve" text-anchor="start" x="38" y="-260.73" font-family="Arial" font-weight="bold" font-size="12.00">Road</text>
<polygon fill="none" stroke="black" points="36,-254.88 36,-273.12 70.75,-273.12 70.75,-254.88 36,-254.88"/>
</g>
<!-- MicromobilityPath -->
<g id="node2" class="node">
<title>MicromobilityPath</title>
<polygon fill="lightgray" stroke="none" points="1,-182.88 1,-199.12 105.75,-199.12 105.75,-182.88 1,-182.88"/>
<text xml:space="preserve" text-anchor="start" x="2" y="-187.72" font-family="Arial" font-weight="bold" font-size="12.00">MicromobilityPath</text>
<polygon fill="none" stroke="black" points="0,-181.88 0,-200.12 106.75,-200.12 106.75,-181.88 0,-181.88"/>
</g>
<!-- MicromobilityPath&#45;&gt;Road -->
<g id="edge1" class="edge">
<title>MicromobilityPath&#45;&gt;Road</title>
<path fill="none" stroke="black" d="M53.38,-208.71C53.38,-216.47 53.38,-225.92 53.38,-234.74"/>
<polygon fill="none" stroke="black" points="49.88,-234.66 53.38,-244.66 56.88,-234.66 49.88,-234.66"/>
</g>
<!-- Invis -->
<!-- MicromobilityPath&#45;&gt;Invis -->
<!-- MicromobilityLink -->
<g id="node4" class="node">
<title>MicromobilityLink</title>
<polygon fill="lightgray" stroke="none" points="224.75,-98.88 224.75,-115.12 328,-115.12 328,-98.88 224.75,-98.88"/>
<text xml:space="preserve" text-anchor="start" x="225.75" y="-103.72" font-family="Arial" font-weight="bold" font-size="12.00">MicromobilityLink</text>
<polygon fill="none" stroke="black" points="223.75,-97.88 223.75,-116.12 329,-116.12 329,-97.88 223.75,-97.88"/>
</g>
<!-- MicromobilityPath&#45;&gt;MicromobilityLink -->
<g id="edge5" class="edge">
<title>MicromobilityPath&#45;&gt;MicromobilityLink</title>
<path fill="none" stroke="black" stroke-dasharray="5,2" d="M46.88,-173.27C44.21,-163.29 43.19,-151.05 50.38,-143 74.06,-116.48 174.39,-131.39 209.38,-125 210.56,-124.78 211.75,-124.56 212.94,-124.33"/>
<polygon fill="black" stroke="black" points="213.3,-127.83 222.37,-122.35 211.87,-120.98 213.3,-127.83"/>
<text xml:space="preserve" text-anchor="middle" x="161.38" y="-145.5" font-family="Arial" font-size="10.00">«min 1, only» onProperty: partwhole:hasProperPart</text>
</g>
<!-- MicromobilityNetwork -->
<g id="node5" class="node">
<title>MicromobilityNetwork</title>
<polygon fill="lightgray" stroke="none" points="207.5,-25.88 207.5,-42.12 333.25,-42.12 333.25,-25.88 207.5,-25.88"/>
<text xml:space="preserve" text-anchor="start" x="208.5" y="-30.73" font-family="Arial" font-weight="bold" font-size="12.00">MicromobilityNetwork</text>
<polygon fill="none" stroke="black" points="206.5,-24.88 206.5,-43.12 334.25,-43.12 334.25,-24.88 206.5,-24.88"/>
</g>
<!-- MicromobilityPath&#45;&gt;MicromobilityNetwork -->
<g id="edge6" class="edge">
<title>MicromobilityPath&#45;&gt;MicromobilityNetwork</title>
<path fill="none" stroke="black" stroke-dasharray="5,2" d="M41.47,-173.09C27.76,-151.35 9.51,-113.49 29.12,-89 49.75,-63.24 132.64,-48.95 195.55,-41.63"/>
<polygon fill="black" stroke="black" points="195.6,-45.15 205.15,-40.56 194.82,-38.19 195.6,-45.15"/>
<text xml:space="preserve" text-anchor="middle" x="121.75" y="-103.5" font-family="Arial" font-size="10.00">«only» onProperty: partwhole:properPartOf</text>
</g>
<!-- Invis&#45;&gt;MicromobilityLink -->
<!-- MicromobilityLink&#45;&gt;MicromobilityNetwork -->
</g>
</svg>
