<?xml version="1.0" encoding="UTF-8" standalone="no"?>
<!DOCTYPE svg PUBLIC "-//W3C//DTD SVG 1.1//EN"
 "http://www.w3.org/Graphics/SVG/1.1/DTD/svg11.dtd">
<!-- Generated by graphviz version 14.0.2 (20251019.1705)
 -->
<!-- Pages: 1 -->
<svg width="198pt" height="132pt"
 viewBox="0.00 0.00 198.00 132.00" xmlns="http://www.w3.org/2000/svg" xmlns:xlink="http://www.w3.org/1999/xlink">
<g id="graph0" class="graph" transform="scale(1 1) rotate(0) translate(4 128)">
<polygon fill="white" stroke="none" points="-4,4 -4,-128 193.75,-128 193.75,4 -4,4"/>
<g id="clust2" class="cluster">
<title>cluster_associated</title>
</g>
<!-- MicromobilityLane -->
<g id="node1" class="node">
<title>MicromobilityLane</title>
<g id="a_node1"><a xlink:href="../MicromobilityLane.md" xlink:title="&lt;TABLE&gt;">
<polygon fill="lightgray" stroke="none" points="1,-25.88 1,-42.12 100.5,-42.12 100.5,-25.88 1,-25.88"/>
<text xml:space="preserve" text-anchor="start" x="2" y="-29.73" font-family="Arial" font-size="12.00">MicromobilityLane</text>
<polygon fill="none" stroke="black" points="0,-24.88 0,-43.12 101.5,-43.12 101.5,-24.88 0,-24.88"/>
</a>
</g>
</g>
<!-- RoadLane -->
<g id="node3" class="node">
<title>RoadLane</title>
<g id="a_node3"><a xlink:href="../RoadLane.md" xlink:title="&lt;TABLE&gt;">
<polygon fill="lightgray" stroke="none" points="21.62,-97.88 21.62,-114.12 79.88,-114.12 79.88,-97.88 21.62,-97.88"/>
<text xml:space="preserve" text-anchor="start" x="22.62" y="-101.72" font-family="Arial" font-size="12.00">RoadLane</text>
<polygon fill="none" stroke="black" points="20.62,-96.88 20.62,-115.12 80.88,-115.12 80.88,-96.88 20.62,-96.88"/>
</a>
</g>
</g>
<!-- MicromobilityLane&#45;&gt;RoadLane -->
<g id="edge1" class="edge">
<title>MicromobilityLane&#45;&gt;RoadLane</title>
<path fill="none" stroke="black" d="M50.75,-51.79C50.75,-59.25 50.75,-68.24 50.75,-76.69"/>
<polygon fill="none" stroke="black" points="47.25,-76.54 50.75,-86.54 54.25,-76.54 47.25,-76.54"/>
</g>
<!-- Invis -->
</g>
</svg>
