<?xml version="1.0" encoding="UTF-8" standalone="no"?>
<!DOCTYPE svg PUBLIC "-//W3C//DTD SVG 1.1//EN"
 "http://www.w3.org/Graphics/SVG/1.1/DTD/svg11.dtd">
<!-- Generated by graphviz version 13.1.0 (20250701.0955)
 -->
<!-- Pages: 1 -->
<svg width="689pt" height="217pt"
 viewBox="0.00 0.00 689.00 217.00" xmlns="http://www.w3.org/2000/svg" xmlns:xlink="http://www.w3.org/1999/xlink">
<g id="graph0" class="graph" transform="scale(1 1) rotate(0) translate(4 213)">
<polygon fill="white" stroke="none" points="-4,4 -4,-213 684.75,-213 684.75,4 -4,4"/>
<g id="clust2" class="cluster">
<title>cluster_associated</title>
</g>
<!-- ITSThing -->
<g id="node1" class="node">
<title>ITSThing</title>
<polygon fill="lightgray" stroke="none" points="54.88,-182.88 54.88,-199.12 108.62,-199.12 108.62,-182.88 54.88,-182.88"/>
<text xml:space="preserve" text-anchor="start" x="55.88" y="-187.72" font-family="Arial" font-weight="bold" font-size="12.00">ITSThing</text>
<polygon fill="none" stroke="black" points="53.88,-181.88 53.88,-200.12 109.62,-200.12 109.62,-181.88 53.88,-181.88"/>
</g>
<!-- geo_Feature -->
<g id="node2" class="node">
<title>geo_Feature</title>
<polygon fill="lightgray" stroke="none" points="128.25,-182.88 128.25,-199.12 199.25,-199.12 199.25,-182.88 128.25,-182.88"/>
<text xml:space="preserve" text-anchor="start" x="129.25" y="-187.72" font-family="Arial" font-weight="bold" font-size="12.00">geo:Feature</text>
<polygon fill="none" stroke="black" points="127.25,-181.88 127.25,-200.12 200.25,-200.12 200.25,-181.88 127.25,-181.88"/>
</g>
<!-- NetworkElement -->
<g id="node3" class="node">
<title>NetworkElement</title>
<polygon fill="lightgray" stroke="none" points="1,-118 1,-134.25 244.5,-134.25 244.5,-118 1,-118"/>
<text xml:space="preserve" text-anchor="start" x="75.88" y="-122.85" font-family="Arial" font-weight="bold" font-style="italic" font-size="12.00">NetworkElement</text>
<text xml:space="preserve" text-anchor="start" x="2" y="-105.6" font-family="Arial" font-size="12.00">genProp:hasIdentifier: string «exactly 1, only»</text>
<polygon fill="none" stroke="black" points="0,-100.75 0,-135.25 245.5,-135.25 245.5,-100.75 0,-100.75"/>
</g>
<!-- NetworkElement&#45;&gt;ITSThing -->
<g id="edge1" class="edge">
<title>NetworkElement&#45;&gt;ITSThing</title>
<path fill="none" stroke="black" d="M113.1,-135.71C108.37,-143.91 102.54,-154 97.2,-163.24"/>
<polygon fill="none" stroke="black" points="94.19,-161.45 92.22,-171.86 100.26,-164.95 94.19,-161.45"/>
</g>
<!-- NetworkElement&#45;&gt;geo_Feature -->
<g id="edge2" class="edge">
<title>NetworkElement&#45;&gt;geo_Feature</title>
<path fill="none" stroke="black" d="M132.4,-135.71C137.13,-143.91 142.96,-154 148.3,-163.24"/>
<polygon fill="none" stroke="black" points="145.24,-164.95 153.28,-171.86 151.31,-161.45 145.24,-164.95"/>
</g>
<!-- NetworkElement&#45;&gt;NetworkElement -->
<g id="edge6" class="edge">
<title>NetworkElement&#45;&gt;NetworkElement</title>
<path fill="none" stroke="black" d="M245.33,-120.72C256.48,-120.15 263.5,-119.25 263.5,-118 263.5,-117.26 261.03,-116.64 256.68,-116.14"/>
<polygon fill="black" stroke="black" points="257.07,-112.66 246.84,-115.39 256.55,-119.64 257.07,-112.66"/>
<text xml:space="preserve" text-anchor="middle" x="332.88" y="-114.5" font-family="Arial" font-size="10.00">«only» partwhole:hasProperPart</text>
</g>
<!-- NetworkElement&#45;&gt;NetworkElement -->
<g id="edge7" class="edge">
<title>NetworkElement&#45;&gt;NetworkElement</title>
<path fill="none" stroke="black" d="M245.27,-124.59C321.58,-125.64 402.25,-123.44 402.25,-118 402.25,-112.82 329.27,-110.58 256.47,-111.28"/>
<polygon fill="black" stroke="black" points="256.74,-107.78 246.78,-111.39 256.82,-114.78 256.74,-107.78"/>
<text xml:space="preserve" text-anchor="middle" x="468.25" y="-114.5" font-family="Arial" font-size="10.00">«only» partwhole:properPartOf</text>
</g>
<!-- Invis -->
<!-- NetworkElement&#45;&gt;Invis -->
<!-- ScheduledCode -->
<g id="node5" class="node">
<title>ScheduledCode</title>
<polygon fill="lightgray" stroke="none" points="569.62,-25.88 569.62,-42.12 663.88,-42.12 663.88,-25.88 569.62,-25.88"/>
<text xml:space="preserve" text-anchor="start" x="570.62" y="-30.73" font-family="Arial" font-weight="bold" font-size="12.00">ScheduledCode</text>
<polygon fill="none" stroke="black" points="568.62,-24.88 568.62,-43.12 664.88,-43.12 664.88,-24.88 568.62,-24.88"/>
</g>
<!-- NetworkElement&#45;&gt;ScheduledCode -->
<g id="edge5" class="edge">
<title>NetworkElement&#45;&gt;ScheduledCode</title>
<path fill="none" stroke="black" d="M225.11,-100.01C325.65,-83.32 475.56,-58.44 557.69,-44.8"/>
<polygon fill="black" stroke="black" points="558.03,-48.29 567.32,-43.2 556.89,-41.39 558.03,-48.29"/>
<text xml:space="preserve" text-anchor="middle" x="428.58" y="-72.5" font-family="Arial" font-size="10.00">«only» status</text>
</g>
<!-- Invis&#45;&gt;ScheduledCode -->
</g>
</svg>
