<?xml version="1.0" encoding="UTF-8" standalone="no"?>
<!DOCTYPE svg PUBLIC "-//W3C//DTD SVG 1.1//EN"
 "http://www.w3.org/Graphics/SVG/1.1/DTD/svg11.dtd">
<!-- Generated by graphviz version 14.0.2 (20251019.1705)
 -->
<!-- Pages: 1 -->
<svg width="397pt" height="232pt"
 viewBox="0.00 0.00 397.00 232.00" xmlns="http://www.w3.org/2000/svg" xmlns:xlink="http://www.w3.org/1999/xlink">
<g id="graph0" class="graph" transform="scale(1 1) rotate(0) translate(4 228)">
<polygon fill="white" stroke="none" points="-4,4 -4,-228 393.38,-228 393.38,4 -4,4"/>
<g id="clust2" class="cluster">
<title>cluster_associated</title>
</g>
<!-- NetworkElement -->
<g id="node1" class="node">
<title>NetworkElement</title>
<g id="a_node1"><a xlink:href="../NetworkElement.md" xlink:title="&lt;TABLE&gt;">
<polygon fill="lightgray" stroke="none" points="159.5,-124.88 159.5,-141.12 250,-141.12 250,-124.88 159.5,-124.88"/>
<text xml:space="preserve" text-anchor="start" x="160.5" y="-128.72" font-family="Arial" font-size="12.00">NetworkElement</text>
<polygon fill="none" stroke="black" points="158.5,-123.88 158.5,-142.12 251,-142.12 251,-123.88 158.5,-123.88"/>
</a>
</g>
</g>
<!-- Invis -->
<!-- NetworkElement&#45;&gt;Invis -->
<!-- ScheduledCode -->
<g id="node3" class="node">
<title>ScheduledCode</title>
<g id="a_node3"><a xlink:href="../ScheduledCode.md" xlink:title="&lt;TABLE&gt;">
<polygon fill="lightgray" stroke="none" points="52.25,-25.88 52.25,-42.12 141.25,-42.12 141.25,-25.88 52.25,-25.88"/>
<text xml:space="preserve" text-anchor="start" x="53.25" y="-29.73" font-family="Arial" font-size="12.00">ScheduledCode</text>
<polygon fill="none" stroke="black" points="51.25,-24.88 51.25,-43.12 142.25,-43.12 142.25,-24.88 51.25,-24.88"/>
</a>
</g>
</g>
<!-- NetworkElement&#45;&gt;ScheduledCode -->
<g id="edge6" class="edge">
<title>NetworkElement&#45;&gt;ScheduledCode</title>
<path fill="none" stroke="black" d="M185.94,-115.1C168.75,-99.66 143.13,-76.66 123.76,-59.26"/>
<polygon fill="black" stroke="black" points="126.25,-56.79 116.47,-52.71 121.57,-62 126.25,-56.79"/>
<text xml:space="preserve" text-anchor="middle" x="183.85" y="-86.55" font-family="Arial" font-size="11.00"> status </text>
<text xml:space="preserve" text-anchor="middle" x="183.85" y="-73.05" font-family="Arial" font-size="11.00"> «only» &#160;</text>
</g>
<!-- cdm2_InfrastructureElement -->
<g id="node4" class="node">
<title>cdm2_InfrastructureElement</title>
<polygon fill="lightgray" stroke="none" points="1,-197.88 1,-214.12 148.5,-214.12 148.5,-197.88 1,-197.88"/>
<text xml:space="preserve" text-anchor="start" x="2" y="-201.72" font-family="Arial" font-size="12.00">cdm2:InfrastructureElement</text>
<polygon fill="none" stroke="black" points="0,-196.88 0,-215.12 149.5,-215.12 149.5,-196.88 0,-196.88"/>
</g>
<!-- NetworkElement&#45;&gt;cdm2_InfrastructureElement -->
<g id="edge1" class="edge">
<title>NetworkElement&#45;&gt;cdm2_InfrastructureElement</title>
<path fill="none" stroke="black" d="M173.71,-150.95C156.31,-160.45 134.4,-172.42 115.62,-182.68"/>
<polygon fill="none" stroke="black" points="113.99,-179.58 106.89,-187.45 117.34,-185.73 113.99,-179.58"/>
</g>
<!-- geo1_Feature -->
<g id="node5" class="node">
<title>geo1_Feature</title>
<polygon fill="lightgray" stroke="none" points="168.12,-197.88 168.12,-214.12 241.38,-214.12 241.38,-197.88 168.12,-197.88"/>
<text xml:space="preserve" text-anchor="start" x="169.12" y="-201.72" font-family="Arial" font-size="12.00">geo1:Feature</text>
<polygon fill="none" stroke="black" points="167.12,-196.88 167.12,-215.12 242.38,-215.12 242.38,-196.88 167.12,-196.88"/>
</g>
<!-- NetworkElement&#45;&gt;geo1_Feature -->
<g id="edge2" class="edge">
<title>NetworkElement&#45;&gt;geo1_Feature</title>
<path fill="none" stroke="black" d="M204.75,-150.71C204.75,-158.47 204.75,-167.92 204.75,-176.74"/>
<polygon fill="none" stroke="black" points="201.25,-176.66 204.75,-186.66 208.25,-176.66 201.25,-176.66"/>
</g>
<!-- TransportNetworkThing -->
<g id="node6" class="node">
<title>TransportNetworkThing</title>
<g id="a_node6"><a xlink:href="../TransportNetworkThing.md" xlink:title="&lt;TABLE&gt;">
<polygon fill="lightgray" stroke="none" points="261.12,-197.88 261.12,-214.12 388.38,-214.12 388.38,-197.88 261.12,-197.88"/>
<text xml:space="preserve" text-anchor="start" x="262.12" y="-201.72" font-family="Arial" font-size="12.00">TransportNetworkThing</text>
<polygon fill="none" stroke="black" points="260.12,-196.88 260.12,-215.12 389.38,-215.12 389.38,-196.88 260.12,-196.88"/>
</a>
</g>
</g>
<!-- NetworkElement&#45;&gt;TransportNetworkThing -->
<g id="edge3" class="edge">
<title>NetworkElement&#45;&gt;TransportNetworkThing</title>
<path fill="none" stroke="black" d="M233.4,-150.95C249.31,-160.37 269.31,-172.2 286.54,-182.39"/>
<polygon fill="none" stroke="black" points="284.62,-185.32 295.01,-187.4 288.18,-179.3 284.62,-185.32"/>
</g>
<!-- Invis&#45;&gt;ScheduledCode -->
</g>
</svg>
