<?xml version="1.0" encoding="UTF-8" standalone="no"?>
<!DOCTYPE svg PUBLIC "-//W3C//DTD SVG 1.1//EN"
 "http://www.w3.org/Graphics/SVG/1.1/DTD/svg11.dtd">
<!-- Generated by graphviz version 13.1.0 (20250701.0955)
 -->
<!-- Pages: 1 -->
<svg width="732pt" height="229pt"
 viewBox="0.00 0.00 732.00 229.00" xmlns="http://www.w3.org/2000/svg" xmlns:xlink="http://www.w3.org/1999/xlink">
<g id="graph0" class="graph" transform="scale(1 1) rotate(0) translate(4 225)">
<polygon fill="white" stroke="none" points="-4,4 -4,-225 727.75,-225 727.75,4 -4,4"/>
<g id="clust2" class="cluster">
<title>cluster_associated</title>
</g>
<!-- ITSThing -->
<g id="node1" class="node">
<title>ITSThing</title>
<polygon fill="lightgray" stroke="none" points="54.88,-194.88 54.88,-211.12 108.62,-211.12 108.62,-194.88 54.88,-194.88"/>
<text xml:space="preserve" text-anchor="start" x="55.88" y="-199.72" font-family="Arial" font-weight="bold" font-size="12.00">ITSThing</text>
<polygon fill="none" stroke="black" points="53.88,-193.88 53.88,-212.12 109.62,-212.12 109.62,-193.88 53.88,-193.88"/>
</g>
<!-- geo_Feature -->
<g id="node2" class="node">
<title>geo_Feature</title>
<polygon fill="lightgray" stroke="none" points="128.25,-194.88 128.25,-211.12 199.25,-211.12 199.25,-194.88 128.25,-194.88"/>
<text xml:space="preserve" text-anchor="start" x="129.25" y="-199.72" font-family="Arial" font-weight="bold" font-size="12.00">geo:Feature</text>
<polygon fill="none" stroke="black" points="127.25,-193.88 127.25,-212.12 200.25,-212.12 200.25,-193.88 127.25,-193.88"/>
</g>
<!-- NetworkElement -->
<g id="node3" class="node">
<title>NetworkElement</title>
<polygon fill="lightgray" stroke="none" points="1,-130 1,-146.25 244.5,-146.25 244.5,-130 1,-130"/>
<text xml:space="preserve" text-anchor="start" x="75.88" y="-134.85" font-family="Arial" font-weight="bold" font-style="italic" font-size="12.00">NetworkElement</text>
<text xml:space="preserve" text-anchor="start" x="2" y="-117.6" font-family="Arial" font-size="12.00">genProp:hasIdentifier: string «exactly 1, only»</text>
<polygon fill="none" stroke="black" points="0,-112.75 0,-147.25 245.5,-147.25 245.5,-112.75 0,-112.75"/>
</g>
<!-- NetworkElement&#45;&gt;ITSThing -->
<g id="edge1" class="edge">
<title>NetworkElement&#45;&gt;ITSThing</title>
<path fill="none" stroke="black" d="M113.1,-147.71C108.37,-155.91 102.54,-166 97.2,-175.24"/>
<polygon fill="none" stroke="black" points="94.19,-173.45 92.22,-183.86 100.26,-176.95 94.19,-173.45"/>
</g>
<!-- NetworkElement&#45;&gt;geo_Feature -->
<g id="edge2" class="edge">
<title>NetworkElement&#45;&gt;geo_Feature</title>
<path fill="none" stroke="black" d="M132.4,-147.71C137.13,-155.91 142.96,-166 148.3,-175.24"/>
<polygon fill="none" stroke="black" points="145.24,-176.95 153.28,-183.86 151.31,-173.45 145.24,-176.95"/>
</g>
<!-- NetworkElement&#45;&gt;NetworkElement -->
<g id="edge6" class="edge">
<title>NetworkElement&#45;&gt;NetworkElement</title>
<path fill="none" stroke="black" d="M245.33,-132.72C256.48,-132.15 263.5,-131.25 263.5,-130 263.5,-129.26 261.03,-128.64 256.68,-128.14"/>
<polygon fill="black" stroke="black" points="257.07,-124.66 246.84,-127.39 256.55,-131.64 257.07,-124.66"/>
<text xml:space="preserve" text-anchor="middle" x="343.75" y="-132.5" font-family="Arial" font-size="10.00">«only»</text>
<text xml:space="preserve" text-anchor="middle" x="343.75" y="-120.5" font-family="Arial" font-size="10.00">onProperty: partwhole:hasProperPart</text>
</g>
<!-- NetworkElement&#45;&gt;NetworkElement -->
<g id="edge7" class="edge">
<title>NetworkElement&#45;&gt;NetworkElement</title>
<path fill="none" stroke="black" d="M245.35,-136.48C330,-137.77 424,-135.61 424,-130 424,-124.64 338.26,-122.43 256.8,-123.37"/>
<polygon fill="black" stroke="black" points="256.81,-119.87 246.86,-123.5 256.91,-126.87 256.81,-119.87"/>
<text xml:space="preserve" text-anchor="middle" x="500.88" y="-132.5" font-family="Arial" font-size="10.00">«only»</text>
<text xml:space="preserve" text-anchor="middle" x="500.88" y="-120.5" font-family="Arial" font-size="10.00">onProperty: partwhole:properPartOf</text>
</g>
<!-- Invis -->
<!-- NetworkElement&#45;&gt;Invis -->
<!-- ScheduledCode -->
<g id="node5" class="node">
<title>ScheduledCode</title>
<polygon fill="lightgray" stroke="none" points="612.62,-25.88 612.62,-42.12 706.88,-42.12 706.88,-25.88 612.62,-25.88"/>
<text xml:space="preserve" text-anchor="start" x="613.62" y="-30.73" font-family="Arial" font-weight="bold" font-size="12.00">ScheduledCode</text>
<polygon fill="none" stroke="black" points="611.62,-24.88 611.62,-43.12 707.88,-43.12 707.88,-24.88 611.62,-24.88"/>
</g>
<!-- NetworkElement&#45;&gt;ScheduledCode -->
<g id="edge5" class="edge">
<title>NetworkElement&#45;&gt;ScheduledCode</title>
<path fill="none" stroke="black" d="M219.69,-112.03C330.5,-92.63 508.41,-61.49 600.39,-45.39"/>
<polygon fill="black" stroke="black" points="600.97,-48.84 610.22,-43.67 599.77,-41.95 600.97,-48.84"/>
<text xml:space="preserve" text-anchor="middle" x="495.27" y="-84.5" font-family="Arial" font-size="10.00">«only»</text>
<text xml:space="preserve" text-anchor="middle" x="495.27" y="-72.5" font-family="Arial" font-size="10.00">onProperty: status</text>
</g>
<!-- Invis&#45;&gt;ScheduledCode -->
</g>
</svg>
