<?xml version="1.0" encoding="UTF-8" standalone="no"?>
<!DOCTYPE svg PUBLIC "-//W3C//DTD SVG 1.1//EN"
 "http://www.w3.org/Graphics/SVG/1.1/DTD/svg11.dtd">
<!-- Generated by graphviz version 13.1.0 (20250701.0955)
 -->
<!-- Pages: 1 -->
<svg width="250pt" height="132pt"
 viewBox="0.00 0.00 250.00 132.00" xmlns="http://www.w3.org/2000/svg" xmlns:xlink="http://www.w3.org/1999/xlink">
<g id="graph0" class="graph" transform="scale(1 1) rotate(0) translate(4 128)">
<polygon fill="white" stroke="none" points="-4,4 -4,-128 246,-128 246,4 -4,4"/>
<g id="clust2" class="cluster">
<title>cluster_associated</title>
</g>
<!-- ITSPattern -->
<g id="node1" class="node">
<title>ITSPattern</title>
<polygon fill="lightgray" stroke="none" points="46,-97.88 46,-114.12 108,-114.12 108,-97.88 46,-97.88"/>
<text xml:space="preserve" text-anchor="start" x="47" y="-102.72" font-family="Arial" font-weight="bold" font-size="12.00">ITSPattern</text>
<polygon fill="none" stroke="black" points="45,-96.88 45,-115.12 109,-115.12 109,-96.88 45,-96.88"/>
</g>
<!-- PedestrianNetworkPattern -->
<g id="node2" class="node">
<title>PedestrianNetworkPattern</title>
<polygon fill="lightgray" stroke="none" points="1,-25.88 1,-42.12 153,-42.12 153,-25.88 1,-25.88"/>
<text xml:space="preserve" text-anchor="start" x="2" y="-30.73" font-family="Arial" font-weight="bold" font-size="12.00">PedestrianNetworkPattern</text>
<polygon fill="none" stroke="black" points="0,-24.88 0,-43.12 154,-43.12 154,-24.88 0,-24.88"/>
</g>
<!-- PedestrianNetworkPattern&#45;&gt;ITSPattern -->
<g id="edge1" class="edge">
<title>PedestrianNetworkPattern&#45;&gt;ITSPattern</title>
<path fill="none" stroke="black" d="M77,-51.79C77,-59.25 77,-68.24 77,-76.69"/>
<polygon fill="none" stroke="black" points="73.5,-76.54 77,-86.54 80.5,-76.54 73.5,-76.54"/>
</g>
<!-- Invis -->
<!-- PedestrianNetworkPattern&#45;&gt;Invis -->
</g>
</svg>
