<?xml version="1.0" encoding="UTF-8" standalone="no"?>
<!DOCTYPE svg PUBLIC "-//W3C//DTD SVG 1.1//EN"
 "http://www.w3.org/Graphics/SVG/1.1/DTD/svg11.dtd">
<!-- Generated by graphviz version 14.0.2 (20251019.1705)
 -->
<!-- Pages: 1 -->
<svg width="275pt" height="305pt"
 viewBox="0.00 0.00 275.00 305.00" xmlns="http://www.w3.org/2000/svg" xmlns:xlink="http://www.w3.org/1999/xlink">
<g id="graph0" class="graph" transform="scale(1 1) rotate(0) translate(4 301)">
<polygon fill="white" stroke="none" points="-4,4 -4,-301 270.75,-301 270.75,4 -4,4"/>
<g id="clust2" class="cluster">
<title>cluster_associated</title>
</g>
<!-- PointOnRoute -->
<g id="node1" class="node">
<title>PointOnRoute</title>
<g id="a_node1"><a xlink:href="../PointOnRoute.md" xlink:title="&lt;TABLE&gt;">
<polygon fill="lightgray" stroke="none" points="106.25,-206 106.25,-222.25 265.75,-222.25 265.75,-206 106.25,-206"/>
<text xml:space="preserve" text-anchor="start" x="148.12" y="-209.85" font-family="Arial" font-size="12.00">PointOnRoute</text>
<text xml:space="preserve" text-anchor="start" x="107.25" y="-193.6" font-family="Arial" font-size="12.00">«exactly 1» index: xsd:integer</text>
<polygon fill="black" stroke="black" points="105.25,-206 105.25,-206 266.75,-206 266.75,-206 105.25,-206"/>
<polygon fill="none" stroke="black" points="105.25,-188.75 105.25,-223.25 266.75,-223.25 266.75,-188.75 105.25,-188.75"/>
</a>
</g>
</g>
<!-- Invis -->
<!-- PointOnRoute&#45;&gt;Invis -->
<!-- cdm2_Code -->
<g id="node3" class="node">
<title>cdm2_Code</title>
<polygon fill="lightgray" stroke="none" points="17.25,-98.88 17.25,-115.12 80.75,-115.12 80.75,-98.88 17.25,-98.88"/>
<text xml:space="preserve" text-anchor="start" x="18.25" y="-102.72" font-family="Arial" font-size="12.00">cdm2:Code</text>
<polygon fill="none" stroke="black" points="16.25,-97.88 16.25,-116.12 81.75,-116.12 81.75,-97.88 16.25,-97.88"/>
</g>
<!-- PointOnRoute&#45;&gt;cdm2_Code -->
<g id="edge5" class="edge">
<title>PointOnRoute&#45;&gt;cdm2_Code</title>
<path fill="none" stroke="black" d="M120.99,-188.11C109.72,-183.39 98.62,-177.44 89.25,-170 77.59,-160.74 68.23,-147.14 61.48,-135.04"/>
<polygon fill="black" stroke="black" points="64.65,-133.53 56.93,-126.27 58.44,-136.76 64.65,-133.53"/>
<text xml:space="preserve" text-anchor="middle" x="128.62" y="-159.55" font-family="Arial" font-size="11.00"> routePointType </text>
<text xml:space="preserve" text-anchor="middle" x="128.62" y="-146.05" font-family="Arial" font-size="11.00"> «only» &#160;</text>
</g>
<!-- RoutePoint -->
<g id="node4" class="node">
<title>RoutePoint</title>
<g id="a_node4"><a xlink:href="../RoutePoint.md" xlink:title="&lt;TABLE&gt;">
<polygon fill="lightgray" stroke="none" points="19,-25.88 19,-42.12 81,-42.12 81,-25.88 19,-25.88"/>
<text xml:space="preserve" text-anchor="start" x="20" y="-29.73" font-family="Arial" font-size="12.00">RoutePoint</text>
<polygon fill="none" stroke="black" points="18,-24.88 18,-43.12 82,-43.12 82,-24.88 18,-24.88"/>
</a>
</g>
</g>
<!-- PointOnRoute&#45;&gt;RoutePoint -->
<g id="edge6" class="edge">
<title>PointOnRoute&#45;&gt;RoutePoint</title>
<path fill="none" stroke="black" d="M183.67,-188.19C181.28,-175.11 176.64,-156.9 168,-143 146.59,-108.55 111.2,-78.25 84.75,-58.58"/>
<polygon fill="black" stroke="black" points="86.82,-55.77 76.68,-52.72 82.71,-61.43 86.82,-55.77"/>
<text xml:space="preserve" text-anchor="middle" x="185.57" y="-110.05" font-family="Arial" font-size="11.00"> routePoint </text>
<text xml:space="preserve" text-anchor="middle" x="185.57" y="-96.55" font-family="Arial" font-size="11.00"> «exactly 1» &#160;</text>
</g>
<!-- PublicTransportElement -->
<g id="node5" class="node">
<title>PublicTransportElement</title>
<g id="a_node5"><a xlink:href="../PublicTransportElement.md" xlink:title="&lt;TABLE&gt;">
<polygon fill="lightgray" stroke="none" points="120.88,-270.88 120.88,-287.12 251.12,-287.12 251.12,-270.88 120.88,-270.88"/>
<text xml:space="preserve" text-anchor="start" x="121.88" y="-274.73" font-family="Arial" font-size="12.00">PublicTransportElement</text>
<polygon fill="none" stroke="black" points="119.88,-269.88 119.88,-288.12 252.12,-288.12 252.12,-269.88 119.88,-269.88"/>
</a>
</g>
</g>
<!-- PointOnRoute&#45;&gt;PublicTransportElement -->
<g id="edge1" class="edge">
<title>PointOnRoute&#45;&gt;PublicTransportElement</title>
<path fill="none" stroke="black" d="M186,-223.71C186,-231.47 186,-240.92 186,-249.74"/>
<polygon fill="none" stroke="black" points="182.5,-249.66 186,-259.66 189.5,-249.66 182.5,-249.66"/>
</g>
<!-- Invis&#45;&gt;cdm2_Code -->
<!-- cdm2_Code&#45;&gt;RoutePoint -->
</g>
</svg>
