<?xml version="1.0" encoding="UTF-8" standalone="no"?>
<!DOCTYPE svg PUBLIC "-//W3C//DTD SVG 1.1//EN"
 "http://www.w3.org/Graphics/SVG/1.1/DTD/svg11.dtd">
<!-- Generated by graphviz version 13.1.0 (20250701.0955)
 -->
<!-- Pages: 1 -->
<svg width="289pt" height="302pt"
 viewBox="0.00 0.00 289.00 302.00" xmlns="http://www.w3.org/2000/svg" xmlns:xlink="http://www.w3.org/1999/xlink">
<g id="graph0" class="graph" transform="scale(1 1) rotate(0) translate(4 298)">
<polygon fill="white" stroke="none" points="-4,4 -4,-298 285.12,-298 285.12,4 -4,4"/>
<g id="clust2" class="cluster">
<title>cluster_associated</title>
</g>
<!-- PublicTransportElement -->
<g id="node1" class="node">
<title>PublicTransportElement</title>
<polygon fill="lightgray" stroke="none" points="14.12,-267.88 14.12,-284.12 154.12,-284.12 154.12,-267.88 14.12,-267.88"/>
<text xml:space="preserve" text-anchor="start" x="15.12" y="-272.73" font-family="Arial" font-weight="bold" font-size="12.00">PublicTransportElement</text>
<polygon fill="none" stroke="black" points="13.12,-266.88 13.12,-285.12 155.12,-285.12 155.12,-266.88 13.12,-266.88"/>
</g>
<!-- PointOnRoute -->
<g id="node2" class="node">
<title>PointOnRoute</title>
<polygon fill="lightgray" stroke="none" points="1,-203 1,-219.25 167.25,-219.25 167.25,-203 1,-203"/>
<text xml:space="preserve" text-anchor="start" x="43.62" y="-207.85" font-family="Arial" font-weight="bold" font-size="12.00">PointOnRoute</text>
<text xml:space="preserve" text-anchor="start" x="2" y="-190.6" font-family="Arial" font-size="12.00">index: integer «exactly 1, only»</text>
<polygon fill="none" stroke="black" points="0,-185.75 0,-220.25 168.25,-220.25 168.25,-185.75 0,-185.75"/>
</g>
<!-- PointOnRoute&#45;&gt;PublicTransportElement -->
<g id="edge1" class="edge">
<title>PointOnRoute&#45;&gt;PublicTransportElement</title>
<path fill="none" stroke="black" d="M84.12,-220.71C84.12,-228.47 84.12,-237.92 84.12,-246.74"/>
<polygon fill="none" stroke="black" points="80.63,-246.66 84.13,-256.66 87.63,-246.66 80.63,-246.66"/>
</g>
<!-- Invis -->
<!-- PointOnRoute&#45;&gt;Invis -->
<!-- RoutePoint -->
<g id="node4" class="node">
<title>RoutePoint</title>
<polygon fill="lightgray" stroke="none" points="197.88,-98.88 197.88,-115.12 264.38,-115.12 264.38,-98.88 197.88,-98.88"/>
<text xml:space="preserve" text-anchor="start" x="198.88" y="-103.72" font-family="Arial" font-weight="bold" font-size="12.00">RoutePoint</text>
<polygon fill="none" stroke="black" points="196.88,-97.88 196.88,-116.12 265.38,-116.12 265.38,-97.88 196.88,-97.88"/>
</g>
<!-- PointOnRoute&#45;&gt;RoutePoint -->
<g id="edge5" class="edge">
<title>PointOnRoute&#45;&gt;RoutePoint</title>
<path fill="none" stroke="black" d="M100.83,-185.23C114.11,-172.52 133.61,-155.21 152.88,-143 163.26,-136.42 175.09,-130.44 186.35,-125.36"/>
<polygon fill="black" stroke="black" points="187.74,-128.57 195.52,-121.38 184.95,-122.15 187.74,-128.57"/>
<text xml:space="preserve" text-anchor="middle" x="190" y="-157.5" font-family="Arial" font-size="10.00">«exactly 1, only»</text>
<text xml:space="preserve" text-anchor="middle" x="190" y="-145.5" font-family="Arial" font-size="10.00">onProperty: point</text>
</g>
<!-- code_Code -->
<g id="node5" class="node">
<title>code_Code</title>
<polygon fill="lightgray" stroke="none" points="198.62,-25.88 198.62,-42.12 263.62,-42.12 263.62,-25.88 198.62,-25.88"/>
<text xml:space="preserve" text-anchor="start" x="199.62" y="-30.73" font-family="Arial" font-weight="bold" font-size="12.00">code:Code</text>
<polygon fill="none" stroke="black" points="197.62,-24.88 197.62,-43.12 264.62,-43.12 264.62,-24.88 197.62,-24.88"/>
</g>
<!-- PointOnRoute&#45;&gt;code_Code -->
<g id="edge6" class="edge">
<title>PointOnRoute&#45;&gt;code_Code</title>
<path fill="none" stroke="black" d="M75.36,-185.28C64.27,-161.53 48.94,-117.73 69.62,-89 96.08,-52.26 148.69,-40.15 186.68,-36.35"/>
<polygon fill="black" stroke="black" points="186.77,-39.86 196.45,-35.55 186.2,-32.88 186.77,-39.86"/>
<text xml:space="preserve" text-anchor="middle" x="128.88" y="-109.5" font-family="Arial" font-size="10.00">«only»</text>
<text xml:space="preserve" text-anchor="middle" x="128.88" y="-97.5" font-family="Arial" font-size="10.00">onProperty: routePointType</text>
</g>
<!-- Invis&#45;&gt;RoutePoint -->
<!-- RoutePoint&#45;&gt;code_Code -->
</g>
</svg>
