<?xml version="1.0" encoding="UTF-8" standalone="no"?>
<!DOCTYPE svg PUBLIC "-//W3C//DTD SVG 1.1//EN"
 "http://www.w3.org/Graphics/SVG/1.1/DTD/svg11.dtd">
<!-- Generated by graphviz version 13.1.0 (20250701.0955)
 -->
<!-- Pages: 1 -->
<svg width="289pt" height="290pt"
 viewBox="0.00 0.00 289.00 290.00" xmlns="http://www.w3.org/2000/svg" xmlns:xlink="http://www.w3.org/1999/xlink">
<g id="graph0" class="graph" transform="scale(1 1) rotate(0) translate(4 286)">
<polygon fill="white" stroke="none" points="-4,4 -4,-286 285.12,-286 285.12,4 -4,4"/>
<g id="clust2" class="cluster">
<title>cluster_associated</title>
</g>
<!-- PublicTransportElement -->
<g id="node1" class="node">
<title>PublicTransportElement</title>
<polygon fill="lightgray" stroke="none" points="14.12,-255.88 14.12,-272.12 154.12,-272.12 154.12,-255.88 14.12,-255.88"/>
<text xml:space="preserve" text-anchor="start" x="15.12" y="-260.73" font-family="Arial" font-weight="bold" font-size="12.00">PublicTransportElement</text>
<polygon fill="none" stroke="black" points="13.12,-254.88 13.12,-273.12 155.12,-273.12 155.12,-254.88 13.12,-254.88"/>
</g>
<!-- PointOnRoute -->
<g id="node2" class="node">
<title>PointOnRoute</title>
<polygon fill="lightgray" stroke="none" points="1,-191 1,-207.25 167.25,-207.25 167.25,-191 1,-191"/>
<text xml:space="preserve" text-anchor="start" x="43.62" y="-195.85" font-family="Arial" font-weight="bold" font-size="12.00">PointOnRoute</text>
<text xml:space="preserve" text-anchor="start" x="2" y="-178.6" font-family="Arial" font-size="12.00">index: integer «exactly 1, only»</text>
<polygon fill="none" stroke="black" points="0,-173.75 0,-208.25 168.25,-208.25 168.25,-173.75 0,-173.75"/>
</g>
<!-- PointOnRoute&#45;&gt;PublicTransportElement -->
<g id="edge1" class="edge">
<title>PointOnRoute&#45;&gt;PublicTransportElement</title>
<path fill="none" stroke="black" d="M84.12,-208.71C84.12,-216.47 84.12,-225.92 84.12,-234.74"/>
<polygon fill="none" stroke="black" points="80.63,-234.66 84.13,-244.66 87.63,-234.66 80.63,-234.66"/>
</g>
<!-- Invis -->
<!-- PointOnRoute&#45;&gt;Invis -->
<!-- RoutePoint -->
<g id="node4" class="node">
<title>RoutePoint</title>
<polygon fill="lightgray" stroke="none" points="197.88,-98.88 197.88,-115.12 264.38,-115.12 264.38,-98.88 197.88,-98.88"/>
<text xml:space="preserve" text-anchor="start" x="198.88" y="-103.72" font-family="Arial" font-weight="bold" font-size="12.00">RoutePoint</text>
<polygon fill="none" stroke="black" points="196.88,-97.88 196.88,-116.12 265.38,-116.12 265.38,-97.88 196.88,-97.88"/>
</g>
<!-- PointOnRoute&#45;&gt;RoutePoint -->
<g id="edge5" class="edge">
<title>PointOnRoute&#45;&gt;RoutePoint</title>
<path fill="none" stroke="black" d="M96.61,-173.21C104.81,-163.21 116.32,-150.96 128.88,-143 150.33,-129.4 159.1,-133.24 183.12,-125 184.25,-124.61 185.4,-124.22 186.55,-123.82"/>
<polygon fill="black" stroke="black" points="187.34,-127.25 195.64,-120.66 185.04,-120.64 187.34,-127.25"/>
<text xml:space="preserve" text-anchor="middle" x="178" y="-145.5" font-family="Arial" font-size="10.00">«exactly 1, only» point</text>
</g>
<!-- code_Code -->
<g id="node5" class="node">
<title>code_Code</title>
<polygon fill="lightgray" stroke="none" points="198.62,-25.88 198.62,-42.12 263.62,-42.12 263.62,-25.88 198.62,-25.88"/>
<text xml:space="preserve" text-anchor="start" x="199.62" y="-30.73" font-family="Arial" font-weight="bold" font-size="12.00">code:Code</text>
<polygon fill="none" stroke="black" points="197.62,-24.88 197.62,-43.12 264.62,-43.12 264.62,-24.88 197.62,-24.88"/>
</g>
<!-- PointOnRoute&#45;&gt;code_Code -->
<g id="edge6" class="edge">
<title>PointOnRoute&#45;&gt;code_Code</title>
<path fill="none" stroke="black" d="M80.28,-173.12C76.37,-151.41 73.18,-113.59 91.38,-89 113.49,-59.11 154.48,-45.76 186.37,-39.8"/>
<polygon fill="black" stroke="black" points="186.87,-43.27 196.16,-38.17 185.72,-36.36 186.87,-43.27"/>
<text xml:space="preserve" text-anchor="middle" x="139.75" y="-103.5" font-family="Arial" font-size="10.00">«only» routePointType</text>
</g>
<!-- Invis&#45;&gt;RoutePoint -->
<!-- RoutePoint&#45;&gt;code_Code -->
</g>
</svg>
