<?xml version="1.0" encoding="UTF-8" standalone="no"?>
<!DOCTYPE svg PUBLIC "-//W3C//DTD SVG 1.1//EN"
 "http://www.w3.org/Graphics/SVG/1.1/DTD/svg11.dtd">
<!-- Generated by graphviz version 13.1.0 (20250701.0955)
 -->
<!-- Pages: 1 -->
<svg width="392pt" height="313pt"
 viewBox="0.00 0.00 392.00 313.00" xmlns="http://www.w3.org/2000/svg" xmlns:xlink="http://www.w3.org/1999/xlink">
<g id="graph0" class="graph" transform="scale(1 1) rotate(0) translate(4 309)">
<polygon fill="white" stroke="none" points="-4,4 -4,-309 388,-309 388,4 -4,4"/>
<g id="clust2" class="cluster">
<title>cluster_associated</title>
</g>
<!-- PublicTransportElement -->
<g id="node1" class="node">
<title>PublicTransportElement</title>
<polygon fill="lightgray" stroke="none" points="1,-278.88 1,-295.12 141,-295.12 141,-278.88 1,-278.88"/>
<text xml:space="preserve" text-anchor="start" x="2" y="-283.73" font-family="Arial" font-weight="bold" font-size="12.00">PublicTransportElement</text>
<polygon fill="none" stroke="black" points="0,-277.88 0,-296.12 142,-296.12 142,-277.88 0,-277.88"/>
</g>
<!-- PublicTransportSystem -->
<g id="node2" class="node">
<title>PublicTransportSystem</title>
<polygon fill="lightgray" stroke="none" points="16.88,-182.88 16.88,-199.12 153.12,-199.12 153.12,-182.88 16.88,-182.88"/>
<text xml:space="preserve" text-anchor="start" x="17.88" y="-187.72" font-family="Arial" font-weight="bold" font-size="12.00">PublicTransportSystem</text>
<polygon fill="none" stroke="black" points="15.88,-181.88 15.88,-200.12 154.12,-200.12 154.12,-181.88 15.88,-181.88"/>
</g>
<!-- PublicTransportSystem&#45;&gt;PublicTransportElement -->
<g id="edge1" class="edge">
<title>PublicTransportSystem&#45;&gt;PublicTransportElement</title>
<path fill="none" stroke="black" d="M82.47,-208.98C80.45,-222.58 77.56,-241.94 75.19,-257.85"/>
<polygon fill="none" stroke="black" points="71.74,-257.29 73.73,-267.7 78.66,-258.32 71.74,-257.29"/>
</g>
<!-- Invis -->
<!-- PublicTransportSystem&#45;&gt;Invis -->
<!-- Union_partwhole_hasProperPart -->
<g id="node6" class="node">
<title>Union_partwhole_hasProperPart</title>
<polygon fill="lightyellow" stroke="none" points="176,-270.75 176,-303.25 384,-303.25 384,-270.75 176,-270.75"/>
<text xml:space="preserve" text-anchor="start" x="252.25" y="-289.85" font-family="Arial" font-size="12.00">«unionOf»</text>
<text xml:space="preserve" text-anchor="start" x="178" y="-275.6" font-family="Arial" font-size="12.00">[GroupOfLines or PublicTransportLine]</text>
<polygon fill="none" stroke="black" points="176,-270.75 176,-303.25 384,-303.25 384,-270.75 176,-270.75"/>
</g>
<!-- PublicTransportSystem&#45;&gt;Union_partwhole_hasProperPart -->
<g id="edge7" class="edge">
<title>PublicTransportSystem&#45;&gt;Union_partwhole_hasProperPart</title>
<path fill="none" stroke="black" d="M86.37,-208.74C88.38,-222.14 93.32,-240.38 105.5,-251 115.58,-259.79 138.8,-266.64 165.12,-271.85"/>
<polygon fill="black" stroke="black" points="164.18,-275.24 174.66,-273.64 165.47,-268.36 164.18,-275.24"/>
<text xml:space="preserve" text-anchor="middle" x="185.75" y="-241.5" font-family="Arial" font-size="10.00">«only»</text>
<text xml:space="preserve" text-anchor="middle" x="185.75" y="-229.5" font-family="Arial" font-size="10.00">onProperty: partwhole:hasProperPart</text>
</g>
<!-- GroupOfLines -->
<g id="node4" class="node">
<title>GroupOfLines</title>
<polygon fill="lightgray" stroke="none" points="208.88,-98.88 208.88,-115.12 291.12,-115.12 291.12,-98.88 208.88,-98.88"/>
<text xml:space="preserve" text-anchor="start" x="209.88" y="-103.72" font-family="Arial" font-weight="bold" font-size="12.00">GroupOfLines</text>
<polygon fill="none" stroke="black" points="207.88,-97.88 207.88,-116.12 292.12,-116.12 292.12,-97.88 207.88,-97.88"/>
</g>
<!-- Invis&#45;&gt;GroupOfLines -->
<!-- PublicTransportLine -->
<g id="node5" class="node">
<title>PublicTransportLine</title>
<polygon fill="lightgray" stroke="none" points="190.88,-25.88 190.88,-42.12 309.12,-42.12 309.12,-25.88 190.88,-25.88"/>
<text xml:space="preserve" text-anchor="start" x="191.88" y="-30.73" font-family="Arial" font-weight="bold" font-size="12.00">PublicTransportLine</text>
<polygon fill="none" stroke="black" points="189.88,-24.88 189.88,-43.12 310.12,-43.12 310.12,-24.88 189.88,-24.88"/>
</g>
<!-- GroupOfLines&#45;&gt;PublicTransportLine -->
<!-- Union_partwhole_hasProperPart&#45;&gt;GroupOfLines -->
<g id="edge5" class="edge">
<title>Union_partwhole_hasProperPart&#45;&gt;GroupOfLines</title>
<path fill="none" stroke="black" stroke-dasharray="1,5" d="M277.18,-269.25C272.02,-238.64 261.02,-173.36 254.71,-135.93"/>
<polygon fill="black" stroke="black" points="258.2,-135.6 253.09,-126.32 251.3,-136.77 258.2,-135.6"/>
<text xml:space="preserve" text-anchor="middle" x="285.61" y="-187.5" font-family="Arial" font-size="10.00">member</text>
</g>
<!-- Union_partwhole_hasProperPart&#45;&gt;PublicTransportLine -->
<g id="edge6" class="edge">
<title>Union_partwhole_hasProperPart&#45;&gt;PublicTransportLine</title>
<path fill="none" stroke="black" stroke-dasharray="1,5" d="M288.61,-269.23C295.11,-255.57 303.49,-235.58 307,-217 312.09,-190.03 301.35,-89.79 301,-89 296.21,-78.11 288.25,-68.06 280.03,-59.65"/>
<polygon fill="black" stroke="black" points="282.57,-57.24 272.92,-52.87 277.74,-62.3 282.57,-57.24"/>
<text xml:space="preserve" text-anchor="middle" x="324.4" y="-145.5" font-family="Arial" font-size="10.00">member</text>
</g>
</g>
</svg>
