<?xml version="1.0" encoding="UTF-8" standalone="no"?>
<!DOCTYPE svg PUBLIC "-//W3C//DTD SVG 1.1//EN"
 "http://www.w3.org/Graphics/SVG/1.1/DTD/svg11.dtd">
<!-- Generated by graphviz version 13.1.0 (20250701.0955)
 -->
<!-- Pages: 1 -->
<svg width="238pt" height="132pt"
 viewBox="0.00 0.00 238.00 132.00" xmlns="http://www.w3.org/2000/svg" xmlns:xlink="http://www.w3.org/1999/xlink">
<g id="graph0" class="graph" transform="scale(1 1) rotate(0) translate(4 128)">
<polygon fill="white" stroke="none" points="-4,4 -4,-128 234,-128 234,4 -4,4"/>
<g id="clust2" class="cluster">
<title>cluster_associated</title>
</g>
<!-- ITSThing -->
<g id="node1" class="node">
<title>ITSThing</title>
<polygon fill="lightgray" stroke="none" points="44.12,-97.88 44.12,-114.12 97.88,-114.12 97.88,-97.88 44.12,-97.88"/>
<text xml:space="preserve" text-anchor="start" x="45.12" y="-102.72" font-family="Arial" font-weight="bold" font-size="12.00">ITSThing</text>
<polygon fill="none" stroke="black" points="43.12,-96.88 43.12,-115.12 98.88,-115.12 98.88,-96.88 43.12,-96.88"/>
</g>
<!-- PublicTransportElement -->
<g id="node2" class="node">
<title>PublicTransportElement</title>
<polygon fill="lightgray" stroke="none" points="1,-25.88 1,-42.12 141,-42.12 141,-25.88 1,-25.88"/>
<text xml:space="preserve" text-anchor="start" x="2" y="-30.73" font-family="Arial" font-weight="bold" font-size="12.00">PublicTransportElement</text>
<polygon fill="none" stroke="black" points="0,-24.88 0,-43.12 142,-43.12 142,-24.88 0,-24.88"/>
</g>
<!-- PublicTransportElement&#45;&gt;ITSThing -->
<g id="edge1" class="edge">
<title>PublicTransportElement&#45;&gt;ITSThing</title>
<path fill="none" stroke="black" d="M71,-51.79C71,-59.25 71,-68.24 71,-76.69"/>
<polygon fill="none" stroke="black" points="67.5,-76.54 71,-86.54 74.5,-76.54 67.5,-76.54"/>
</g>
<!-- Invis -->
</g>
</svg>
