<?xml version="1.0" encoding="UTF-8" standalone="no"?>
<!DOCTYPE svg PUBLIC "-//W3C//DTD SVG 1.1//EN"
 "http://www.w3.org/Graphics/SVG/1.1/DTD/svg11.dtd">
<!-- Generated by graphviz version 13.1.0 (20250701.0955)
 -->
<!-- Pages: 1 -->
<svg width="455pt" height="448pt"
 viewBox="0.00 0.00 455.00 448.00" xmlns="http://www.w3.org/2000/svg" xmlns:xlink="http://www.w3.org/1999/xlink">
<g id="graph0" class="graph" transform="scale(1 1) rotate(0) translate(4 444)">
<polygon fill="white" stroke="none" points="-4,4 -4,-444 451,-444 451,4 -4,4"/>
<g id="clust2" class="cluster">
<title>cluster_associated</title>
</g>
<!-- PublicTransportElement -->
<g id="node1" class="node">
<title>PublicTransportElement</title>
<polygon fill="lightgray" stroke="none" points="1,-413.88 1,-430.12 141,-430.12 141,-413.88 1,-413.88"/>
<text xml:space="preserve" text-anchor="start" x="2" y="-418.73" font-family="Arial" font-weight="bold" font-size="12.00">PublicTransportElement</text>
<polygon fill="none" stroke="black" points="0,-412.88 0,-431.12 142,-431.12 142,-412.88 0,-412.88"/>
</g>
<!-- PublicTransportLine -->
<g id="node2" class="node">
<title>PublicTransportLine</title>
<polygon fill="lightgray" stroke="none" points="16.88,-317.88 16.88,-334.12 135.12,-334.12 135.12,-317.88 16.88,-317.88"/>
<text xml:space="preserve" text-anchor="start" x="17.88" y="-322.73" font-family="Arial" font-weight="bold" font-size="12.00">PublicTransportLine</text>
<polygon fill="none" stroke="black" points="15.88,-316.88 15.88,-335.12 136.12,-335.12 136.12,-316.88 15.88,-316.88"/>
</g>
<!-- PublicTransportLine&#45;&gt;PublicTransportElement -->
<g id="edge1" class="edge">
<title>PublicTransportLine&#45;&gt;PublicTransportElement</title>
<path fill="none" stroke="black" d="M75.1,-343.98C74.37,-357.58 73.34,-376.94 72.5,-392.85"/>
<polygon fill="none" stroke="black" points="69.01,-392.51 71.97,-402.68 76,-392.88 69.01,-392.51"/>
</g>
<!-- Invis -->
<!-- PublicTransportLine&#45;&gt;Invis -->
<!-- PublicTransportRoute -->
<g id="node5" class="node">
<title>PublicTransportRoute</title>
<polygon fill="lightgray" stroke="none" points="302,-171.88 302,-188.12 430,-188.12 430,-171.88 302,-171.88"/>
<text xml:space="preserve" text-anchor="start" x="303" y="-176.72" font-family="Arial" font-weight="bold" font-size="12.00">PublicTransportRoute</text>
<polygon fill="none" stroke="black" points="301,-170.88 301,-189.12 431,-189.12 431,-170.88 301,-170.88"/>
</g>
<!-- PublicTransportLine&#45;&gt;PublicTransportRoute -->
<g id="edge8" class="edge">
<title>PublicTransportLine&#45;&gt;PublicTransportRoute</title>
<path fill="none" stroke="black" d="M73.51,-308.26C71.54,-288.08 71.69,-254.46 90.5,-235 117.55,-207.02 218.07,-192.93 289.87,-186.3"/>
<polygon fill="black" stroke="black" points="289.97,-189.8 299.62,-185.43 289.35,-182.83 289.97,-189.8"/>
<text xml:space="preserve" text-anchor="middle" x="170.75" y="-255.5" font-family="Arial" font-size="10.00">«min 1, only»</text>
<text xml:space="preserve" text-anchor="middle" x="170.75" y="-243.5" font-family="Arial" font-size="10.00">onProperty: partwhole:hasProperPart</text>
</g>
<!-- code_Code -->
<g id="node7" class="node">
<title>code_Code</title>
<polygon fill="lightgray" stroke="none" points="311.5,-25.88 311.5,-42.12 376.5,-42.12 376.5,-25.88 311.5,-25.88"/>
<text xml:space="preserve" text-anchor="start" x="312.5" y="-30.73" font-family="Arial" font-weight="bold" font-size="12.00">code:Code</text>
<polygon fill="none" stroke="black" points="310.5,-24.88 310.5,-43.12 377.5,-43.12 377.5,-24.88 310.5,-24.88"/>
</g>
<!-- PublicTransportLine&#45;&gt;code_Code -->
<g id="edge7" class="edge">
<title>PublicTransportLine&#45;&gt;code_Code</title>
<path fill="none" stroke="black" d="M57.29,-308.27C44.55,-294.97 30,-275.15 30,-254 30,-254 30,-254 30,-106 30,-51.43 212.7,-38.8 299.38,-35.88"/>
<polygon fill="black" stroke="black" points="299.29,-39.38 309.18,-35.58 299.08,-32.39 299.29,-39.38"/>
<text xml:space="preserve" text-anchor="middle" x="95.25" y="-182.5" font-family="Arial" font-size="10.00">«min 1, only»</text>
<text xml:space="preserve" text-anchor="middle" x="95.25" y="-170.5" font-family="Arial" font-size="10.00">onProperty: allowedDirections</text>
</g>
<!-- Union_partwhole_properPartOf -->
<g id="node8" class="node">
<title>Union_partwhole_properPartOf</title>
<polygon fill="lightyellow" stroke="none" points="160.75,-405.75 160.75,-438.25 385.25,-438.25 385.25,-405.75 160.75,-405.75"/>
<text xml:space="preserve" text-anchor="start" x="245.25" y="-424.85" font-family="Arial" font-size="12.00">«unionOf»</text>
<text xml:space="preserve" text-anchor="start" x="162.75" y="-410.6" font-family="Arial" font-size="12.00">[GroupOfLines or PublicTransportSystem]</text>
<polygon fill="none" stroke="black" points="160.75,-405.75 160.75,-438.25 385.25,-438.25 385.25,-405.75 160.75,-405.75"/>
</g>
<!-- PublicTransportLine&#45;&gt;Union_partwhole_properPartOf -->
<g id="edge11" class="edge">
<title>PublicTransportLine&#45;&gt;Union_partwhole_properPartOf</title>
<path fill="none" stroke="black" d="M79.99,-343.84C84.08,-357.3 91.77,-375.58 105.25,-386 113.59,-392.45 130.17,-398.01 149.79,-402.68"/>
<polygon fill="black" stroke="black" points="148.97,-406.08 159.49,-404.85 150.5,-399.25 148.97,-406.08"/>
<text xml:space="preserve" text-anchor="middle" x="182.12" y="-376.5" font-family="Arial" font-size="10.00">«only»</text>
<text xml:space="preserve" text-anchor="middle" x="182.12" y="-364.5" font-family="Arial" font-size="10.00">onProperty: partwhole:properPartOf</text>
</g>
<!-- GroupOfLines -->
<g id="node4" class="node">
<title>GroupOfLines</title>
<polygon fill="lightgray" stroke="none" points="326.88,-244.88 326.88,-261.12 409.12,-261.12 409.12,-244.88 326.88,-244.88"/>
<text xml:space="preserve" text-anchor="start" x="327.88" y="-249.72" font-family="Arial" font-weight="bold" font-size="12.00">GroupOfLines</text>
<polygon fill="none" stroke="black" points="325.88,-243.88 325.88,-262.12 410.12,-262.12 410.12,-243.88 325.88,-243.88"/>
</g>
<!-- Invis&#45;&gt;GroupOfLines -->
<!-- GroupOfLines&#45;&gt;PublicTransportRoute -->
<!-- PublicTransportSystem -->
<g id="node6" class="node">
<title>PublicTransportSystem</title>
<polygon fill="lightgray" stroke="none" points="293.88,-98.88 293.88,-115.12 430.12,-115.12 430.12,-98.88 293.88,-98.88"/>
<text xml:space="preserve" text-anchor="start" x="294.88" y="-103.72" font-family="Arial" font-weight="bold" font-size="12.00">PublicTransportSystem</text>
<polygon fill="none" stroke="black" points="292.88,-97.88 292.88,-116.12 431.12,-116.12 431.12,-97.88 292.88,-97.88"/>
</g>
<!-- PublicTransportRoute&#45;&gt;PublicTransportSystem -->
<!-- PublicTransportSystem&#45;&gt;code_Code -->
<!-- Union_partwhole_properPartOf&#45;&gt;GroupOfLines -->
<g id="edge9" class="edge">
<title>Union_partwhole_properPartOf&#45;&gt;GroupOfLines</title>
<path fill="none" stroke="black" stroke-dasharray="1,5" d="M308.3,-404.18C328.43,-392.55 351.97,-375.02 364,-352 375.27,-330.43 375.2,-302.39 372.94,-281.83"/>
<polygon fill="black" stroke="black" points="376.45,-281.64 371.63,-272.2 369.51,-282.58 376.45,-281.64"/>
<text xml:space="preserve" text-anchor="middle" x="391.63" y="-322.5" font-family="Arial" font-size="10.00">member</text>
</g>
<!-- Union_partwhole_properPartOf&#45;&gt;PublicTransportSystem -->
<g id="edge10" class="edge">
<title>Union_partwhole_properPartOf&#45;&gt;PublicTransportSystem</title>
<path fill="none" stroke="black" stroke-dasharray="1,5" d="M273,-404.02C273,-385.19 273,-353.93 273,-327 273,-327 273,-327 273,-179 273,-157.81 288.61,-141.91 306.76,-130.59"/>
<polygon fill="black" stroke="black" points="308.44,-133.66 315.4,-125.68 304.98,-127.58 308.44,-133.66"/>
<text xml:space="preserve" text-anchor="middle" x="290.62" y="-249.5" font-family="Arial" font-size="10.00">member</text>
</g>
</g>
</svg>
