<?xml version="1.0" encoding="UTF-8" standalone="no"?>
<!DOCTYPE svg PUBLIC "-//W3C//DTD SVG 1.1//EN"
 "http://www.w3.org/Graphics/SVG/1.1/DTD/svg11.dtd">
<!-- Generated by graphviz version 14.0.2 (20251019.1705)
 -->
<!-- Pages: 1 -->
<svg width="246pt" height="305pt"
 viewBox="0.00 0.00 246.00 305.00" xmlns="http://www.w3.org/2000/svg" xmlns:xlink="http://www.w3.org/1999/xlink">
<g id="graph0" class="graph" transform="scale(1 1) rotate(0) translate(4 301)">
<polygon fill="white" stroke="none" points="-4,4 -4,-301 242.12,-301 242.12,4 -4,4"/>
<g id="clust2" class="cluster">
<title>cluster_associated</title>
</g>
<!-- PublicTransportRoute -->
<g id="node1" class="node">
<title>PublicTransportRoute</title>
<g id="a_node1"><a xlink:href="../PublicTransportRoute.md" xlink:title="&lt;TABLE&gt;">
<polygon fill="lightgray" stroke="none" points="112.88,-197.88 112.88,-214.12 231.12,-214.12 231.12,-197.88 112.88,-197.88"/>
<text xml:space="preserve" text-anchor="start" x="113.88" y="-201.72" font-family="Arial" font-size="12.00">PublicTransportRoute</text>
<polygon fill="none" stroke="black" points="111.88,-196.88 111.88,-215.12 232.12,-215.12 232.12,-196.88 111.88,-196.88"/>
</a>
</g>
</g>
<!-- Invis -->
<!-- PublicTransportRoute&#45;&gt;Invis -->
<!-- cdm2_Code -->
<g id="node3" class="node">
<title>cdm2_Code</title>
<polygon fill="lightgray" stroke="none" points="24.25,-98.88 24.25,-115.12 87.75,-115.12 87.75,-98.88 24.25,-98.88"/>
<text xml:space="preserve" text-anchor="start" x="25.25" y="-102.72" font-family="Arial" font-size="12.00">cdm2:Code</text>
<polygon fill="none" stroke="black" points="23.25,-97.88 23.25,-116.12 88.75,-116.12 88.75,-97.88 23.25,-97.88"/>
</g>
<!-- PublicTransportRoute&#45;&gt;cdm2_Code -->
<g id="edge5" class="edge">
<title>PublicTransportRoute&#45;&gt;cdm2_Code</title>
<path fill="none" stroke="black" d="M131.9,-188.15C122.16,-183.09 112.14,-176.99 103.75,-170 91.68,-159.95 80.77,-146.33 72.44,-134.42"/>
<polygon fill="black" stroke="black" points="75.39,-132.54 66.92,-126.18 69.58,-136.44 75.39,-132.54"/>
<text xml:space="preserve" text-anchor="middle" x="127.38" y="-159.55" font-family="Arial" font-size="11.00"> direction </text>
<text xml:space="preserve" text-anchor="middle" x="127.38" y="-146.05" font-family="Arial" font-size="11.00"> «min 1» &#160;</text>
</g>
<!-- PointOnRoute -->
<g id="node4" class="node">
<title>PointOnRoute</title>
<g id="a_node4"><a xlink:href="../PointOnRoute.md" xlink:title="&lt;TABLE&gt;">
<polygon fill="lightgray" stroke="none" points="17.12,-25.88 17.12,-42.12 94.88,-42.12 94.88,-25.88 17.12,-25.88"/>
<text xml:space="preserve" text-anchor="start" x="18.12" y="-29.73" font-family="Arial" font-size="12.00">PointOnRoute</text>
<polygon fill="none" stroke="black" points="16.12,-24.88 16.12,-43.12 95.88,-43.12 95.88,-24.88 16.12,-24.88"/>
</a>
</g>
</g>
<!-- PublicTransportRoute&#45;&gt;PointOnRoute -->
<g id="edge6" class="edge">
<title>PublicTransportRoute&#45;&gt;PointOnRoute</title>
<path fill="none" stroke="black" d="M168.23,-188.19C164.89,-175.26 159.25,-157.27 151,-143 132.66,-111.27 104.12,-80.42 83.11,-59.87"/>
<polygon fill="black" stroke="black" points="85.63,-57.44 75.99,-53.04 80.78,-62.49 85.63,-57.44"/>
<text xml:space="preserve" text-anchor="middle" x="169.69" y="-110.05" font-family="Arial" font-size="11.00"> routePoints </text>
<text xml:space="preserve" text-anchor="middle" x="169.69" y="-96.55" font-family="Arial" font-size="11.00"> «min 2» &#160;</text>
</g>
<!-- PublicTransportElement -->
<g id="node5" class="node">
<title>PublicTransportElement</title>
<g id="a_node5"><a xlink:href="../PublicTransportElement.md" xlink:title="&lt;TABLE&gt;">
<polygon fill="lightgray" stroke="none" points="106.88,-270.88 106.88,-287.12 237.12,-287.12 237.12,-270.88 106.88,-270.88"/>
<text xml:space="preserve" text-anchor="start" x="107.88" y="-274.73" font-family="Arial" font-size="12.00">PublicTransportElement</text>
<polygon fill="none" stroke="black" points="105.88,-269.88 105.88,-288.12 238.12,-288.12 238.12,-269.88 105.88,-269.88"/>
</a>
</g>
</g>
<!-- PublicTransportRoute&#45;&gt;PublicTransportElement -->
<g id="edge1" class="edge">
<title>PublicTransportRoute&#45;&gt;PublicTransportElement</title>
<path fill="none" stroke="black" d="M172,-223.71C172,-231.47 172,-240.92 172,-249.74"/>
<polygon fill="none" stroke="black" points="168.5,-249.66 172,-259.66 175.5,-249.66 168.5,-249.66"/>
</g>
<!-- Invis&#45;&gt;cdm2_Code -->
<!-- cdm2_Code&#45;&gt;PointOnRoute -->
</g>
</svg>
