<?xml version="1.0" encoding="UTF-8" standalone="no"?>
<!DOCTYPE svg PUBLIC "-//W3C//DTD SVG 1.1//EN"
 "http://www.w3.org/Graphics/SVG/1.1/DTD/svg11.dtd">
<!-- Generated by graphviz version 13.1.0 (20250701.0955)
 -->
<!-- Pages: 1 -->
<svg width="402pt" height="398pt"
 viewBox="0.00 0.00 402.00 398.00" xmlns="http://www.w3.org/2000/svg" xmlns:xlink="http://www.w3.org/1999/xlink">
<g id="graph0" class="graph" transform="scale(1 1) rotate(0) translate(4 394)">
<polygon fill="white" stroke="none" points="-4,4 -4,-394 398.21,-394 398.21,4 -4,4"/>
<g id="clust2" class="cluster">
<title>cluster_associated</title>
</g>
<!-- PublicTransportElement -->
<g id="node1" class="node">
<title>PublicTransportElement</title>
<polygon fill="lightgray" stroke="none" points="147,-363.88 147,-380.12 287,-380.12 287,-363.88 147,-363.88"/>
<text xml:space="preserve" text-anchor="start" x="148" y="-368.73" font-family="Arial" font-weight="bold" font-size="12.00">PublicTransportElement</text>
<polygon fill="none" stroke="black" points="146,-362.88 146,-381.12 288,-381.12 288,-362.88 146,-362.88"/>
</g>
<!-- PublicTransportRoute -->
<g id="node2" class="node">
<title>PublicTransportRoute</title>
<polygon fill="lightgray" stroke="none" points="153,-290.88 153,-307.12 281,-307.12 281,-290.88 153,-290.88"/>
<text xml:space="preserve" text-anchor="start" x="154" y="-295.73" font-family="Arial" font-weight="bold" font-size="12.00">PublicTransportRoute</text>
<polygon fill="none" stroke="black" points="152,-289.88 152,-308.12 282,-308.12 282,-289.88 152,-289.88"/>
</g>
<!-- PublicTransportRoute&#45;&gt;PublicTransportElement -->
<g id="edge1" class="edge">
<title>PublicTransportRoute&#45;&gt;PublicTransportElement</title>
<path fill="none" stroke="black" d="M217,-316.71C217,-324.47 217,-333.92 217,-342.74"/>
<polygon fill="none" stroke="black" points="213.5,-342.66 217,-352.66 220.5,-342.66 213.5,-342.66"/>
</g>
<!-- Invis -->
<!-- PublicTransportRoute&#45;&gt;Invis -->
<!-- PointOnRoute -->
<g id="node4" class="node">
<title>PointOnRoute</title>
<polygon fill="lightgray" stroke="none" points="34.5,-194.88 34.5,-211.12 117.5,-211.12 117.5,-194.88 34.5,-194.88"/>
<text xml:space="preserve" text-anchor="start" x="35.5" y="-199.72" font-family="Arial" font-weight="bold" font-size="12.00">PointOnRoute</text>
<polygon fill="none" stroke="black" points="33.5,-193.88 33.5,-212.12 118.5,-212.12 118.5,-193.88 33.5,-193.88"/>
</g>
<!-- PublicTransportRoute&#45;&gt;PointOnRoute -->
<g id="edge7" class="edge">
<title>PublicTransportRoute&#45;&gt;PointOnRoute</title>
<path fill="none" stroke="black" d="M152.32,-281.44C120.14,-273.06 87.76,-264.38 86.5,-263 78.91,-254.72 75.85,-242.94 74.85,-232.07"/>
<polygon fill="black" stroke="black" points="78.36,-232.24 74.52,-222.36 71.37,-232.48 78.36,-232.24"/>
<text xml:space="preserve" text-anchor="middle" x="126.25" y="-253.5" font-family="Arial" font-size="10.00">«min 2, only»</text>
<text xml:space="preserve" text-anchor="middle" x="126.25" y="-241.5" font-family="Arial" font-size="10.00">onProperty: points</text>
</g>
<!-- PublicTransportLine -->
<g id="node5" class="node">
<title>PublicTransportLine</title>
<polygon fill="lightgray" stroke="none" points="16.88,-98.88 16.88,-115.12 135.12,-115.12 135.12,-98.88 16.88,-98.88"/>
<text xml:space="preserve" text-anchor="start" x="17.88" y="-103.72" font-family="Arial" font-weight="bold" font-size="12.00">PublicTransportLine</text>
<polygon fill="none" stroke="black" points="15.88,-97.88 15.88,-116.12 136.12,-116.12 136.12,-97.88 15.88,-97.88"/>
</g>
<!-- PublicTransportRoute&#45;&gt;PublicTransportLine -->
<g id="edge8" class="edge">
<title>PublicTransportRoute&#45;&gt;PublicTransportLine</title>
<path fill="none" stroke="black" d="M204.49,-281.14C179.72,-247.76 124.3,-173.08 95,-133.6"/>
<polygon fill="black" stroke="black" points="98.16,-131.98 89.39,-126.04 92.54,-136.15 98.16,-131.98"/>
<text xml:space="preserve" text-anchor="middle" x="235.08" y="-205.5" font-family="Arial" font-size="10.00">«min 1, only»</text>
<text xml:space="preserve" text-anchor="middle" x="235.08" y="-193.5" font-family="Arial" font-size="10.00">onProperty: partwhole:properPartOf</text>
</g>
<!-- code_Code -->
<g id="node6" class="node">
<title>code_Code</title>
<polygon fill="lightgray" stroke="none" points="56.5,-25.88 56.5,-42.12 121.5,-42.12 121.5,-25.88 56.5,-25.88"/>
<text xml:space="preserve" text-anchor="start" x="57.5" y="-30.73" font-family="Arial" font-weight="bold" font-size="12.00">code:Code</text>
<polygon fill="none" stroke="black" points="55.5,-24.88 55.5,-43.12 122.5,-43.12 122.5,-24.88 55.5,-24.88"/>
</g>
<!-- PublicTransportRoute&#45;&gt;code_Code -->
<g id="edge6" class="edge">
<title>PublicTransportRoute&#45;&gt;code_Code</title>
<path fill="none" stroke="black" d="M250.76,-281.17C287.05,-260.63 336.88,-223.82 316,-185 277.28,-113 187.16,-69.79 132.83,-49.36"/>
<polygon fill="black" stroke="black" points="134.16,-46.11 123.57,-45.97 131.76,-52.69 134.16,-46.11"/>
<text xml:space="preserve" text-anchor="middle" x="349.21" y="-157.5" font-family="Arial" font-size="10.00">«min 1, only»</text>
<text xml:space="preserve" text-anchor="middle" x="349.21" y="-145.5" font-family="Arial" font-size="10.00">onProperty: direction</text>
</g>
<!-- Invis&#45;&gt;PointOnRoute -->
<!-- PointOnRoute&#45;&gt;PublicTransportLine -->
<!-- PublicTransportLine&#45;&gt;code_Code -->
</g>
</svg>
