<?xml version="1.0" encoding="UTF-8" standalone="no"?>
<!DOCTYPE svg PUBLIC "-//W3C//DTD SVG 1.1//EN"
 "http://www.w3.org/Graphics/SVG/1.1/DTD/svg11.dtd">
<!-- Generated by graphviz version 13.1.0 (20250701.0955)
 -->
<!-- Pages: 1 -->
<svg width="421pt" height="374pt"
 viewBox="0.00 0.00 421.00 374.00" xmlns="http://www.w3.org/2000/svg" xmlns:xlink="http://www.w3.org/1999/xlink">
<g id="graph0" class="graph" transform="scale(1 1) rotate(0) translate(4 370)">
<polygon fill="white" stroke="none" points="-4,4 -4,-370 416.73,-370 416.73,4 -4,4"/>
<g id="clust2" class="cluster">
<title>cluster_associated</title>
</g>
<!-- PublicTransportElement -->
<g id="node1" class="node">
<title>PublicTransportElement</title>
<polygon fill="lightgray" stroke="none" points="147,-339.88 147,-356.12 287,-356.12 287,-339.88 147,-339.88"/>
<text xml:space="preserve" text-anchor="start" x="148" y="-344.73" font-family="Arial" font-weight="bold" font-size="12.00">PublicTransportElement</text>
<polygon fill="none" stroke="black" points="146,-338.88 146,-357.12 288,-357.12 288,-338.88 146,-338.88"/>
</g>
<!-- PublicTransportRoute -->
<g id="node2" class="node">
<title>PublicTransportRoute</title>
<polygon fill="lightgray" stroke="none" points="153,-266.88 153,-283.12 281,-283.12 281,-266.88 153,-266.88"/>
<text xml:space="preserve" text-anchor="start" x="154" y="-271.73" font-family="Arial" font-weight="bold" font-size="12.00">PublicTransportRoute</text>
<polygon fill="none" stroke="black" points="152,-265.88 152,-284.12 282,-284.12 282,-265.88 152,-265.88"/>
</g>
<!-- PublicTransportRoute&#45;&gt;PublicTransportElement -->
<g id="edge1" class="edge">
<title>PublicTransportRoute&#45;&gt;PublicTransportElement</title>
<path fill="none" stroke="black" d="M217,-292.71C217,-300.47 217,-309.92 217,-318.74"/>
<polygon fill="none" stroke="black" points="213.5,-318.66 217,-328.66 220.5,-318.66 213.5,-318.66"/>
</g>
<!-- Invis -->
<!-- PublicTransportRoute&#45;&gt;Invis -->
<!-- PointOnRoute -->
<g id="node4" class="node">
<title>PointOnRoute</title>
<polygon fill="lightgray" stroke="none" points="34.5,-182.88 34.5,-199.12 117.5,-199.12 117.5,-182.88 34.5,-182.88"/>
<text xml:space="preserve" text-anchor="start" x="35.5" y="-187.72" font-family="Arial" font-weight="bold" font-size="12.00">PointOnRoute</text>
<polygon fill="none" stroke="black" points="33.5,-181.88 33.5,-200.12 118.5,-200.12 118.5,-181.88 33.5,-181.88"/>
</g>
<!-- PublicTransportRoute&#45;&gt;PointOnRoute -->
<g id="edge7" class="edge">
<title>PublicTransportRoute&#45;&gt;PointOnRoute</title>
<path fill="none" stroke="black" d="M152.22,-257.42C119.98,-249.04 87.54,-240.35 86.25,-239 81.37,-233.89 78.6,-227.03 77.07,-220.13"/>
<polygon fill="black" stroke="black" points="80.55,-219.72 75.73,-210.28 73.62,-220.67 80.55,-219.72"/>
<text xml:space="preserve" text-anchor="middle" x="130.12" y="-229.5" font-family="Arial" font-size="10.00">«min 2, only» points</text>
</g>
<!-- PublicTransportLine -->
<g id="node5" class="node">
<title>PublicTransportLine</title>
<polygon fill="lightgray" stroke="none" points="16.88,-98.88 16.88,-115.12 135.12,-115.12 135.12,-98.88 16.88,-98.88"/>
<text xml:space="preserve" text-anchor="start" x="17.88" y="-103.72" font-family="Arial" font-weight="bold" font-size="12.00">PublicTransportLine</text>
<polygon fill="none" stroke="black" points="15.88,-97.88 15.88,-116.12 136.12,-116.12 136.12,-97.88 15.88,-97.88"/>
</g>
<!-- PublicTransportRoute&#45;&gt;PublicTransportLine -->
<g id="edge8" class="edge">
<title>PublicTransportRoute&#45;&gt;PublicTransportLine</title>
<path fill="none" stroke="black" d="M202.7,-257.17C177.9,-227.96 126.74,-167.74 97.59,-133.42"/>
<polygon fill="black" stroke="black" points="100.45,-131.38 91.31,-126.03 95.12,-135.92 100.45,-131.38"/>
<text xml:space="preserve" text-anchor="middle" x="241.52" y="-187.5" font-family="Arial" font-size="10.00">«min 1, only» partwhole:properPartOf</text>
</g>
<!-- code_Code -->
<g id="node6" class="node">
<title>code_Code</title>
<polygon fill="lightgray" stroke="none" points="56.5,-25.88 56.5,-42.12 121.5,-42.12 121.5,-25.88 56.5,-25.88"/>
<text xml:space="preserve" text-anchor="start" x="57.5" y="-30.73" font-family="Arial" font-weight="bold" font-size="12.00">code:Code</text>
<polygon fill="none" stroke="black" points="55.5,-24.88 55.5,-43.12 122.5,-43.12 122.5,-24.88 55.5,-24.88"/>
</g>
<!-- PublicTransportRoute&#45;&gt;code_Code -->
<g id="edge6" class="edge">
<title>PublicTransportRoute&#45;&gt;code_Code</title>
<path fill="none" stroke="black" d="M267.98,-257.13C290.26,-246.92 314.19,-231.45 327,-209 334.93,-195.1 334.99,-186.86 327,-173 285.31,-100.64 189.55,-62.75 133.02,-46"/>
<polygon fill="black" stroke="black" points="134.3,-42.72 123.72,-43.34 132.38,-49.45 134.3,-42.72"/>
<text xml:space="preserve" text-anchor="middle" x="363.61" y="-145.5" font-family="Arial" font-size="10.00">«min 1, only» direction</text>
</g>
<!-- Invis&#45;&gt;PointOnRoute -->
<!-- PointOnRoute&#45;&gt;PublicTransportLine -->
<!-- PublicTransportLine&#45;&gt;code_Code -->
</g>
</svg>
