<?xml version="1.0" encoding="UTF-8" standalone="no"?>
<!DOCTYPE svg PUBLIC "-//W3C//DTD SVG 1.1//EN"
 "http://www.w3.org/Graphics/SVG/1.1/DTD/svg11.dtd">
<!-- Generated by graphviz version 13.1.0 (20250701.0955)
 -->
<!-- Pages: 1 -->
<svg width="276pt" height="132pt"
 viewBox="0.00 0.00 276.00 132.00" xmlns="http://www.w3.org/2000/svg" xmlns:xlink="http://www.w3.org/1999/xlink">
<g id="graph0" class="graph" transform="scale(1 1) rotate(0) translate(4 128)">
<polygon fill="white" stroke="none" points="-4,4 -4,-128 271.75,-128 271.75,4 -4,4"/>
<g id="clust2" class="cluster">
<title>cluster_associated</title>
</g>
<!-- ITSPattern -->
<g id="node1" class="node">
<title>ITSPattern</title>
<polygon fill="lightgray" stroke="none" points="58.75,-97.88 58.75,-114.12 120.75,-114.12 120.75,-97.88 58.75,-97.88"/>
<text xml:space="preserve" text-anchor="start" x="59.75" y="-102.72" font-family="Arial" font-weight="bold" font-size="12.00">ITSPattern</text>
<polygon fill="none" stroke="black" points="57.75,-96.88 57.75,-115.12 121.75,-115.12 121.75,-96.88 57.75,-96.88"/>
</g>
<!-- PublicTransportSystemPattern -->
<g id="node2" class="node">
<title>PublicTransportSystemPattern</title>
<polygon fill="lightgray" stroke="none" points="1,-25.88 1,-42.12 178.5,-42.12 178.5,-25.88 1,-25.88"/>
<text xml:space="preserve" text-anchor="start" x="2" y="-30.73" font-family="Arial" font-weight="bold" font-size="12.00">PublicTransportSystemPattern</text>
<polygon fill="none" stroke="black" points="0,-24.88 0,-43.12 179.5,-43.12 179.5,-24.88 0,-24.88"/>
</g>
<!-- PublicTransportSystemPattern&#45;&gt;ITSPattern -->
<g id="edge1" class="edge">
<title>PublicTransportSystemPattern&#45;&gt;ITSPattern</title>
<path fill="none" stroke="black" d="M89.75,-51.79C89.75,-59.25 89.75,-68.24 89.75,-76.69"/>
<polygon fill="none" stroke="black" points="86.25,-76.54 89.75,-86.54 93.25,-76.54 86.25,-76.54"/>
</g>
<!-- Invis -->
<!-- PublicTransportSystemPattern&#45;&gt;Invis -->
</g>
</svg>
