<?xml version="1.0" encoding="UTF-8" standalone="no"?>
<!DOCTYPE svg PUBLIC "-//W3C//DTD SVG 1.1//EN"
 "http://www.w3.org/Graphics/SVG/1.1/DTD/svg11.dtd">
<!-- Generated by graphviz version 13.1.0 (20250701.0955)
 -->
<!-- Pages: 1 -->
<svg width="378pt" height="301pt"
 viewBox="0.00 0.00 378.00 301.00" xmlns="http://www.w3.org/2000/svg" xmlns:xlink="http://www.w3.org/1999/xlink">
<g id="graph0" class="graph" transform="scale(1 1) rotate(0) translate(4 297)">
<polygon fill="white" stroke="none" points="-4,4 -4,-297 374,-297 374,4 -4,4"/>
<g id="clust2" class="cluster">
<title>cluster_associated</title>
</g>
<!-- PublicTransportElement -->
<g id="node1" class="node">
<title>PublicTransportElement</title>
<polygon fill="lightgray" stroke="none" points="1,-266.88 1,-283.12 141,-283.12 141,-266.88 1,-266.88"/>
<text xml:space="preserve" text-anchor="start" x="2" y="-271.73" font-family="Arial" font-weight="bold" font-size="12.00">PublicTransportElement</text>
<polygon fill="none" stroke="black" points="0,-265.88 0,-284.12 142,-284.12 142,-265.88 0,-265.88"/>
</g>
<!-- PublicTransportSystem -->
<g id="node2" class="node">
<title>PublicTransportSystem</title>
<polygon fill="lightgray" stroke="none" points="2.88,-182.88 2.88,-199.12 139.12,-199.12 139.12,-182.88 2.88,-182.88"/>
<text xml:space="preserve" text-anchor="start" x="3.88" y="-187.72" font-family="Arial" font-weight="bold" font-size="12.00">PublicTransportSystem</text>
<polygon fill="none" stroke="black" points="1.88,-181.88 1.88,-200.12 140.12,-200.12 140.12,-181.88 1.88,-181.88"/>
</g>
<!-- PublicTransportSystem&#45;&gt;PublicTransportElement -->
<g id="edge1" class="edge">
<title>PublicTransportSystem&#45;&gt;PublicTransportElement</title>
<path fill="none" stroke="black" d="M71,-208.97C71,-219.52 71,-233.35 71,-245.54"/>
<polygon fill="none" stroke="black" points="67.5,-245.5 71,-255.5 74.5,-245.5 67.5,-245.5"/>
</g>
<!-- Invis -->
<!-- PublicTransportSystem&#45;&gt;Invis -->
<!-- Union_partwhole_hasProperPart -->
<g id="node6" class="node">
<title>Union_partwhole_hasProperPart</title>
<polygon fill="lightyellow" stroke="none" points="162,-258.75 162,-291.25 370,-291.25 370,-258.75 162,-258.75"/>
<text xml:space="preserve" text-anchor="start" x="238.25" y="-277.85" font-family="Arial" font-size="12.00">«unionOf»</text>
<text xml:space="preserve" text-anchor="start" x="164" y="-263.6" font-family="Arial" font-size="12.00">[GroupOfLines or PublicTransportLine]</text>
<polygon fill="none" stroke="black" points="162,-258.75 162,-291.25 370,-291.25 370,-258.75 162,-258.75"/>
</g>
<!-- PublicTransportSystem&#45;&gt;Union_partwhole_hasProperPart -->
<g id="edge7" class="edge">
<title>PublicTransportSystem&#45;&gt;Union_partwhole_hasProperPart</title>
<path fill="none" stroke="black" d="M82.01,-208.77C89.6,-219.02 100.58,-231.54 113.25,-239 125,-245.91 138,-251.46 151.31,-255.91"/>
<polygon fill="black" stroke="black" points="150.01,-259.17 160.59,-258.8 152.09,-252.49 150.01,-259.17"/>
<text xml:space="preserve" text-anchor="middle" x="182.62" y="-229.5" font-family="Arial" font-size="10.00">«only» partwhole:hasProperPart</text>
</g>
<!-- GroupOfLines -->
<g id="node4" class="node">
<title>GroupOfLines</title>
<polygon fill="lightgray" stroke="none" points="194.88,-98.88 194.88,-115.12 277.12,-115.12 277.12,-98.88 194.88,-98.88"/>
<text xml:space="preserve" text-anchor="start" x="195.88" y="-103.72" font-family="Arial" font-weight="bold" font-size="12.00">GroupOfLines</text>
<polygon fill="none" stroke="black" points="193.88,-97.88 193.88,-116.12 278.12,-116.12 278.12,-97.88 193.88,-97.88"/>
</g>
<!-- Invis&#45;&gt;GroupOfLines -->
<!-- PublicTransportLine -->
<g id="node5" class="node">
<title>PublicTransportLine</title>
<polygon fill="lightgray" stroke="none" points="176.88,-25.88 176.88,-42.12 295.12,-42.12 295.12,-25.88 176.88,-25.88"/>
<text xml:space="preserve" text-anchor="start" x="177.88" y="-30.73" font-family="Arial" font-weight="bold" font-size="12.00">PublicTransportLine</text>
<polygon fill="none" stroke="black" points="175.88,-24.88 175.88,-43.12 296.12,-43.12 296.12,-24.88 175.88,-24.88"/>
</g>
<!-- GroupOfLines&#45;&gt;PublicTransportLine -->
<!-- Union_partwhole_hasProperPart&#45;&gt;GroupOfLines -->
<g id="edge5" class="edge">
<title>Union_partwhole_hasProperPart&#45;&gt;GroupOfLines</title>
<path fill="none" stroke="black" stroke-dasharray="1,5" d="M262.96,-257.17C257.81,-228.71 247.35,-170.79 241.08,-136.09"/>
<polygon fill="black" stroke="black" points="244.54,-135.58 239.32,-126.36 237.65,-136.83 244.54,-135.58"/>
<text xml:space="preserve" text-anchor="middle" x="273.06" y="-187.5" font-family="Arial" font-size="10.00">member</text>
</g>
<!-- Union_partwhole_hasProperPart&#45;&gt;PublicTransportLine -->
<g id="edge6" class="edge">
<title>Union_partwhole_hasProperPart&#45;&gt;PublicTransportLine</title>
<path fill="none" stroke="black" stroke-dasharray="1,5" d="M277.12,-257.36C283.75,-246.41 291.53,-231.47 295,-217 301.59,-189.52 287.12,-89.25 287,-89 282.09,-78.17 274.09,-68.13 265.87,-59.72"/>
<polygon fill="black" stroke="black" points="268.42,-57.32 258.78,-52.93 263.58,-62.37 268.42,-57.32"/>
<text xml:space="preserve" text-anchor="middle" x="312.25" y="-145.5" font-family="Arial" font-size="10.00">member</text>
</g>
</g>
</svg>
