<?xml version="1.0" encoding="UTF-8" standalone="no"?>
<!DOCTYPE svg PUBLIC "-//W3C//DTD SVG 1.1//EN"
 "http://www.w3.org/Graphics/SVG/1.1/DTD/svg11.dtd">
<!-- Generated by graphviz version 14.0.2 (20251019.1705)
 -->
<!-- Pages: 1 -->
<svg width="238pt" height="232pt"
 viewBox="0.00 0.00 238.00 232.00" xmlns="http://www.w3.org/2000/svg" xmlns:xlink="http://www.w3.org/1999/xlink">
<g id="graph0" class="graph" transform="scale(1 1) rotate(0) translate(4 228)">
<polygon fill="white" stroke="none" points="-4,4 -4,-228 234.12,-228 234.12,4 -4,4"/>
<g id="clust2" class="cluster">
<title>cluster_associated</title>
</g>
<!-- PublicTransportLine -->
<g id="node1" class="node">
<title>PublicTransportLine</title>
<g id="a_node1"><a xlink:href="../PublicTransportLine.md" xlink:title="&lt;TABLE&gt;">
<polygon fill="lightgray" stroke="none" points="109.38,-124.88 109.38,-141.12 218.62,-141.12 218.62,-124.88 109.38,-124.88"/>
<text xml:space="preserve" text-anchor="start" x="110.38" y="-128.72" font-family="Arial" font-size="12.00">PublicTransportLine</text>
<polygon fill="none" stroke="black" points="108.38,-123.88 108.38,-142.12 219.62,-142.12 219.62,-123.88 108.38,-123.88"/>
</a>
</g>
</g>
<!-- Invis -->
<!-- PublicTransportLine&#45;&gt;Invis -->
<!-- cdm2_Code -->
<g id="node3" class="node">
<title>cdm2_Code</title>
<polygon fill="lightgray" stroke="none" points="17.25,-25.88 17.25,-42.12 80.75,-42.12 80.75,-25.88 17.25,-25.88"/>
<text xml:space="preserve" text-anchor="start" x="18.25" y="-29.73" font-family="Arial" font-size="12.00">cdm2:Code</text>
<polygon fill="none" stroke="black" points="16.25,-24.88 16.25,-43.12 81.75,-43.12 81.75,-24.88 16.25,-24.88"/>
</g>
<!-- PublicTransportLine&#45;&gt;cdm2_Code -->
<g id="edge4" class="edge">
<title>PublicTransportLine&#45;&gt;cdm2_Code</title>
<path fill="none" stroke="black" d="M143.97,-115.1C125.58,-99.6 98.14,-76.45 77.48,-59.02"/>
<polygon fill="black" stroke="black" points="79.86,-56.45 69.96,-52.68 75.35,-61.8 79.86,-56.45"/>
<text xml:space="preserve" text-anchor="middle" x="165.56" y="-86.55" font-family="Arial" font-size="11.00"> allowedDirections </text>
<text xml:space="preserve" text-anchor="middle" x="165.56" y="-73.05" font-family="Arial" font-size="11.00"> «min 1» &#160;</text>
</g>
<!-- PublicTransportElement -->
<g id="node4" class="node">
<title>PublicTransportElement</title>
<g id="a_node4"><a xlink:href="../PublicTransportElement.md" xlink:title="&lt;TABLE&gt;">
<polygon fill="lightgray" stroke="none" points="98.88,-197.88 98.88,-214.12 229.12,-214.12 229.12,-197.88 98.88,-197.88"/>
<text xml:space="preserve" text-anchor="start" x="99.88" y="-201.72" font-family="Arial" font-size="12.00">PublicTransportElement</text>
<polygon fill="none" stroke="black" points="97.88,-196.88 97.88,-215.12 230.12,-215.12 230.12,-196.88 97.88,-196.88"/>
</a>
</g>
</g>
<!-- PublicTransportLine&#45;&gt;PublicTransportElement -->
<g id="edge1" class="edge">
<title>PublicTransportLine&#45;&gt;PublicTransportElement</title>
<path fill="none" stroke="black" d="M164,-150.71C164,-158.47 164,-167.92 164,-176.74"/>
<polygon fill="none" stroke="black" points="160.5,-176.66 164,-186.66 167.5,-176.66 160.5,-176.66"/>
</g>
<!-- Invis&#45;&gt;cdm2_Code -->
</g>
</svg>
