<?xml version="1.0" encoding="UTF-8" standalone="no"?>
<!DOCTYPE svg PUBLIC "-//W3C//DTD SVG 1.1//EN"
 "http://www.w3.org/Graphics/SVG/1.1/DTD/svg11.dtd">
<!-- Generated by graphviz version 13.1.0 (20250701.0955)
 -->
<!-- Pages: 1 -->
<svg width="456pt" height="436pt"
 viewBox="0.00 0.00 456.00 436.00" xmlns="http://www.w3.org/2000/svg" xmlns:xlink="http://www.w3.org/1999/xlink">
<g id="graph0" class="graph" transform="scale(1 1) rotate(0) translate(4 432)">
<polygon fill="white" stroke="none" points="-4,4 -4,-432 452,-432 452,4 -4,4"/>
<g id="clust2" class="cluster">
<title>cluster_associated</title>
</g>
<!-- PublicTransportElement -->
<g id="node1" class="node">
<title>PublicTransportElement</title>
<polygon fill="lightgray" stroke="none" points="1,-401.88 1,-418.12 141,-418.12 141,-401.88 1,-401.88"/>
<text xml:space="preserve" text-anchor="start" x="2" y="-406.73" font-family="Arial" font-weight="bold" font-size="12.00">PublicTransportElement</text>
<polygon fill="none" stroke="black" points="0,-400.88 0,-419.12 142,-419.12 142,-400.88 0,-400.88"/>
</g>
<!-- PublicTransportLine -->
<g id="node2" class="node">
<title>PublicTransportLine</title>
<polygon fill="lightgray" stroke="none" points="11.88,-317.88 11.88,-334.12 130.12,-334.12 130.12,-317.88 11.88,-317.88"/>
<text xml:space="preserve" text-anchor="start" x="12.88" y="-322.73" font-family="Arial" font-weight="bold" font-size="12.00">PublicTransportLine</text>
<polygon fill="none" stroke="black" points="10.88,-316.88 10.88,-335.12 131.12,-335.12 131.12,-316.88 10.88,-316.88"/>
</g>
<!-- PublicTransportLine&#45;&gt;PublicTransportElement -->
<g id="edge1" class="edge">
<title>PublicTransportLine&#45;&gt;PublicTransportElement</title>
<path fill="none" stroke="black" d="M71,-343.97C71,-354.52 71,-368.35 71,-380.54"/>
<polygon fill="none" stroke="black" points="67.5,-380.5 71,-390.5 74.5,-380.5 67.5,-380.5"/>
</g>
<!-- Invis -->
<!-- PublicTransportLine&#45;&gt;Invis -->
<!-- PublicTransportRoute -->
<g id="node5" class="node">
<title>PublicTransportRoute</title>
<polygon fill="lightgray" stroke="none" points="303,-171.88 303,-188.12 431,-188.12 431,-171.88 303,-171.88"/>
<text xml:space="preserve" text-anchor="start" x="304" y="-176.72" font-family="Arial" font-weight="bold" font-size="12.00">PublicTransportRoute</text>
<polygon fill="none" stroke="black" points="302,-170.88 302,-189.12 432,-189.12 432,-170.88 302,-170.88"/>
</g>
<!-- PublicTransportLine&#45;&gt;PublicTransportRoute -->
<g id="edge8" class="edge">
<title>PublicTransportLine&#45;&gt;PublicTransportRoute</title>
<path fill="none" stroke="black" d="M68.02,-308.29C65.46,-288.15 64.69,-254.56 83.25,-235 111.11,-205.63 216.7,-191.83 290.89,-185.64"/>
<polygon fill="black" stroke="black" points="290.85,-189.15 300.54,-184.86 290.3,-182.17 290.85,-189.15"/>
<text xml:space="preserve" text-anchor="middle" x="167.62" y="-249.5" font-family="Arial" font-size="10.00">«min 1, only» partwhole:hasProperPart</text>
</g>
<!-- code_Code -->
<g id="node7" class="node">
<title>code_Code</title>
<polygon fill="lightgray" stroke="none" points="312.5,-25.88 312.5,-42.12 377.5,-42.12 377.5,-25.88 312.5,-25.88"/>
<text xml:space="preserve" text-anchor="start" x="313.5" y="-30.73" font-family="Arial" font-weight="bold" font-size="12.00">code:Code</text>
<polygon fill="none" stroke="black" points="311.5,-24.88 311.5,-43.12 378.5,-43.12 378.5,-24.88 311.5,-24.88"/>
</g>
<!-- PublicTransportLine&#45;&gt;code_Code -->
<g id="edge7" class="edge">
<title>PublicTransportLine&#45;&gt;code_Code</title>
<path fill="none" stroke="black" d="M51.2,-308.15C37.98,-294.94 23,-275.28 23,-254 23,-254 23,-254 23,-106 23,-49.84 212.12,-38.06 300.49,-35.62"/>
<polygon fill="black" stroke="black" points="300.33,-39.12 310.24,-35.38 300.16,-32.13 300.33,-39.12"/>
<text xml:space="preserve" text-anchor="middle" x="92.38" y="-176.5" font-family="Arial" font-size="10.00">«min 1, only» allowedDirections</text>
</g>
<!-- Union_partwhole_properPartOf -->
<g id="node8" class="node">
<title>Union_partwhole_properPartOf</title>
<polygon fill="lightyellow" stroke="none" points="161.75,-393.75 161.75,-426.25 386.25,-426.25 386.25,-393.75 161.75,-393.75"/>
<text xml:space="preserve" text-anchor="start" x="246.25" y="-412.85" font-family="Arial" font-size="12.00">«unionOf»</text>
<text xml:space="preserve" text-anchor="start" x="163.75" y="-398.6" font-family="Arial" font-size="12.00">[GroupOfLines or PublicTransportSystem]</text>
<polygon fill="none" stroke="black" points="161.75,-393.75 161.75,-426.25 386.25,-426.25 386.25,-393.75 161.75,-393.75"/>
</g>
<!-- PublicTransportLine&#45;&gt;Union_partwhole_properPartOf -->
<g id="edge11" class="edge">
<title>PublicTransportLine&#45;&gt;Union_partwhole_properPartOf</title>
<path fill="none" stroke="black" d="M87.02,-343.62C97.72,-353.81 112.62,-366.33 128,-374 139.66,-379.81 152.34,-384.69 165.19,-388.78"/>
<polygon fill="black" stroke="black" points="163.97,-392.07 174.56,-391.59 165.99,-385.36 163.97,-392.07"/>
<text xml:space="preserve" text-anchor="middle" x="194" y="-364.5" font-family="Arial" font-size="10.00">«only» partwhole:properPartOf</text>
</g>
<!-- GroupOfLines -->
<g id="node4" class="node">
<title>GroupOfLines</title>
<polygon fill="lightgray" stroke="none" points="327.88,-244.88 327.88,-261.12 410.12,-261.12 410.12,-244.88 327.88,-244.88"/>
<text xml:space="preserve" text-anchor="start" x="328.88" y="-249.72" font-family="Arial" font-weight="bold" font-size="12.00">GroupOfLines</text>
<polygon fill="none" stroke="black" points="326.88,-243.88 326.88,-262.12 411.12,-262.12 411.12,-243.88 326.88,-243.88"/>
</g>
<!-- Invis&#45;&gt;GroupOfLines -->
<!-- GroupOfLines&#45;&gt;PublicTransportRoute -->
<!-- PublicTransportSystem -->
<g id="node6" class="node">
<title>PublicTransportSystem</title>
<polygon fill="lightgray" stroke="none" points="294.88,-98.88 294.88,-115.12 431.12,-115.12 431.12,-98.88 294.88,-98.88"/>
<text xml:space="preserve" text-anchor="start" x="295.88" y="-103.72" font-family="Arial" font-weight="bold" font-size="12.00">PublicTransportSystem</text>
<polygon fill="none" stroke="black" points="293.88,-97.88 293.88,-116.12 432.12,-116.12 432.12,-97.88 293.88,-97.88"/>
</g>
<!-- PublicTransportRoute&#45;&gt;PublicTransportSystem -->
<!-- PublicTransportSystem&#45;&gt;code_Code -->
<!-- Union_partwhole_properPartOf&#45;&gt;GroupOfLines -->
<g id="edge9" class="edge">
<title>Union_partwhole_properPartOf&#45;&gt;GroupOfLines</title>
<path fill="none" stroke="black" stroke-dasharray="1,5" d="M318.51,-392.08C336.12,-382.99 354.61,-369.9 365,-352 377.22,-330.95 377.04,-302.85 374.5,-282.14"/>
<polygon fill="black" stroke="black" points="377.98,-281.77 373.03,-272.41 371.06,-282.82 377.98,-281.77"/>
<text xml:space="preserve" text-anchor="middle" x="393.44" y="-322.5" font-family="Arial" font-size="10.00">member</text>
</g>
<!-- Union_partwhole_properPartOf&#45;&gt;PublicTransportSystem -->
<g id="edge10" class="edge">
<title>Union_partwhole_properPartOf&#45;&gt;PublicTransportSystem</title>
<path fill="none" stroke="black" stroke-dasharray="1,5" d="M274,-392.04C274,-375.46 274,-349.49 274,-327 274,-327 274,-327 274,-179 274,-157.81 289.61,-141.91 307.76,-130.59"/>
<polygon fill="black" stroke="black" points="309.44,-133.66 316.4,-125.68 305.98,-127.58 309.44,-133.66"/>
<text xml:space="preserve" text-anchor="middle" x="291.62" y="-249.5" font-family="Arial" font-size="10.00">member</text>
</g>
</g>
</svg>
