<?xml version="1.0" encoding="UTF-8" standalone="no"?>
<!DOCTYPE svg PUBLIC "-//W3C//DTD SVG 1.1//EN"
 "http://www.w3.org/Graphics/SVG/1.1/DTD/svg11.dtd">
<!-- Generated by graphviz version 13.1.0 (20250701.0955)
 -->
<!-- Pages: 1 -->
<svg width="210pt" height="132pt"
 viewBox="0.00 0.00 210.00 132.00" xmlns="http://www.w3.org/2000/svg" xmlns:xlink="http://www.w3.org/1999/xlink">
<g id="graph0" class="graph" transform="scale(1 1) rotate(0) translate(4 128)">
<polygon fill="white" stroke="none" points="-4,4 -4,-128 206.12,-128 206.12,4 -4,4"/>
<g id="clust2" class="cluster">
<title>cluster_associated</title>
</g>
<!-- ITSPattern -->
<g id="node1" class="node">
<title>ITSPattern</title>
<polygon fill="lightgray" stroke="none" points="26.12,-97.88 26.12,-114.12 88.12,-114.12 88.12,-97.88 26.12,-97.88"/>
<text xml:space="preserve" text-anchor="start" x="27.12" y="-102.72" font-family="Arial" font-weight="bold" font-size="12.00">ITSPattern</text>
<polygon fill="none" stroke="black" points="25.12,-96.88 25.12,-115.12 89.12,-115.12 89.12,-96.88 25.12,-96.88"/>
</g>
<!-- RailNetworkPattern -->
<g id="node2" class="node">
<title>RailNetworkPattern</title>
<polygon fill="lightgray" stroke="none" points="1,-25.88 1,-42.12 113.25,-42.12 113.25,-25.88 1,-25.88"/>
<text xml:space="preserve" text-anchor="start" x="2" y="-30.73" font-family="Arial" font-weight="bold" font-size="12.00">RailNetworkPattern</text>
<polygon fill="none" stroke="black" points="0,-24.88 0,-43.12 114.25,-43.12 114.25,-24.88 0,-24.88"/>
</g>
<!-- RailNetworkPattern&#45;&gt;ITSPattern -->
<g id="edge1" class="edge">
<title>RailNetworkPattern&#45;&gt;ITSPattern</title>
<path fill="none" stroke="black" d="M57.12,-51.79C57.12,-59.25 57.12,-68.24 57.12,-76.69"/>
<polygon fill="none" stroke="black" points="53.63,-76.54 57.13,-86.54 60.63,-76.54 53.63,-76.54"/>
</g>
<!-- Invis -->
</g>
</svg>
