<?xml version="1.0" encoding="UTF-8" standalone="no"?>
<!DOCTYPE svg PUBLIC "-//W3C//DTD SVG 1.1//EN"
 "http://www.w3.org/Graphics/SVG/1.1/DTD/svg11.dtd">
<!-- Generated by graphviz version 13.1.0 (20250701.0955)
 -->
<!-- Pages: 1 -->
<svg width="395pt" height="374pt"
 viewBox="0.00 0.00 395.00 374.00" xmlns="http://www.w3.org/2000/svg" xmlns:xlink="http://www.w3.org/1999/xlink">
<g id="graph0" class="graph" transform="scale(1 1) rotate(0) translate(4 370)">
<polygon fill="white" stroke="none" points="-4,4 -4,-370 391.25,-370 391.25,4 -4,4"/>
<g id="clust2" class="cluster">
<title>cluster_associated</title>
</g>
<!-- TravelledWaySection -->
<g id="node1" class="node">
<title>TravelledWaySection</title>
<polygon fill="lightgray" stroke="none" points="1,-339.88 1,-356.12 123,-356.12 123,-339.88 1,-339.88"/>
<text xml:space="preserve" text-anchor="start" x="2" y="-344.73" font-family="Arial" font-weight="bold" font-size="12.00">TravelledWaySection</text>
<polygon fill="none" stroke="black" points="0,-338.88 0,-357.12 124,-357.12 124,-338.88 0,-338.88"/>
</g>
<!-- RailSection -->
<g id="node2" class="node">
<title>RailSection</title>
<polygon fill="lightgray" stroke="none" points="57.38,-255.88 57.38,-272.12 124.62,-272.12 124.62,-255.88 57.38,-255.88"/>
<text xml:space="preserve" text-anchor="start" x="58.38" y="-260.73" font-family="Arial" font-weight="bold" font-size="12.00">RailSection</text>
<polygon fill="none" stroke="black" points="56.38,-254.88 56.38,-273.12 125.62,-273.12 125.62,-254.88 56.38,-254.88"/>
</g>
<!-- RailSection&#45;&gt;TravelledWaySection -->
<g id="edge1" class="edge">
<title>RailSection&#45;&gt;TravelledWaySection</title>
<path fill="none" stroke="black" d="M83.28,-281.93C80.81,-287.62 78.16,-294.03 76,-300 73.75,-306.2 71.59,-312.96 69.65,-319.36"/>
<polygon fill="none" stroke="black" points="66.32,-318.28 66.89,-328.86 73.04,-320.24 66.32,-318.28"/>
</g>
<!-- Invis -->
<!-- RailSection&#45;&gt;Invis -->
<!-- RailNetwork -->
<g id="node4" class="node">
<title>RailNetwork</title>
<polygon fill="lightgray" stroke="none" points="201.5,-171.88 201.5,-188.12 272.5,-188.12 272.5,-171.88 201.5,-171.88"/>
<text xml:space="preserve" text-anchor="start" x="202.5" y="-176.72" font-family="Arial" font-weight="bold" font-size="12.00">RailNetwork</text>
<polygon fill="none" stroke="black" points="200.5,-170.88 200.5,-189.12 273.5,-189.12 273.5,-170.88 200.5,-170.88"/>
</g>
<!-- RailSection&#45;&gt;RailNetwork -->
<g id="edge9" class="edge">
<title>RailSection&#45;&gt;RailNetwork</title>
<path fill="none" stroke="black" stroke-dasharray="5,2" d="M71.23,-246.06C62.71,-236.73 56.22,-225.2 63.75,-216 79.35,-196.94 143.5,-188.02 189.19,-184.02"/>
<polygon fill="black" stroke="black" points="189.47,-187.51 199.15,-183.21 188.9,-180.53 189.47,-187.51"/>
<text xml:space="preserve" text-anchor="middle" x="156.38" y="-218.5" font-family="Arial" font-size="10.00">«only» onProperty: partwhole:properPartOf</text>
</g>
<!-- Union_partwhole_hasProperPart -->
<g id="node7" class="node">
<title>Union_partwhole_hasProperPart</title>
<polygon fill="lightyellow" stroke="none" points="224.25,-331.75 224.25,-364.25 379.75,-364.25 379.75,-331.75 224.25,-331.75"/>
<text xml:space="preserve" text-anchor="start" x="274.25" y="-350.85" font-family="Arial" font-size="12.00">«unionOf»</text>
<text xml:space="preserve" text-anchor="start" x="226.25" y="-336.6" font-family="Arial" font-size="12.00">[TrackLink or TrackSegment]</text>
<polygon fill="none" stroke="black" points="224.25,-331.75 224.25,-364.25 379.75,-364.25 379.75,-331.75 224.25,-331.75"/>
</g>
<!-- RailSection&#45;&gt;Union_partwhole_hasProperPart -->
<g id="edge8" class="edge">
<title>RailSection&#45;&gt;Union_partwhole_hasProperPart</title>
<path fill="none" stroke="black" stroke-dasharray="5,2" d="M88.16,-281.84C87.49,-291.86 88.58,-304.11 96,-312 112.13,-329.16 164.89,-337.92 212.97,-342.38"/>
<polygon fill="black" stroke="black" points="212.65,-345.87 222.92,-343.24 213.26,-338.89 212.65,-345.87"/>
<text xml:space="preserve" text-anchor="middle" x="192" y="-302.5" font-family="Arial" font-size="10.00">«only» onProperty: partwhole:hasProperPart</text>
</g>
<!-- Invis&#45;&gt;RailNetwork -->
<!-- TrackLink -->
<g id="node5" class="node">
<title>TrackLink</title>
<polygon fill="lightgray" stroke="none" points="213.88,-98.88 213.88,-115.12 272.12,-115.12 272.12,-98.88 213.88,-98.88"/>
<text xml:space="preserve" text-anchor="start" x="214.88" y="-103.72" font-family="Arial" font-weight="bold" font-size="12.00">TrackLink</text>
<polygon fill="none" stroke="black" points="212.88,-97.88 212.88,-116.12 273.12,-116.12 273.12,-97.88 212.88,-97.88"/>
</g>
<!-- RailNetwork&#45;&gt;TrackLink -->
<!-- TrackSegment -->
<g id="node6" class="node">
<title>TrackSegment</title>
<polygon fill="lightgray" stroke="none" points="200.75,-25.88 200.75,-42.12 285.25,-42.12 285.25,-25.88 200.75,-25.88"/>
<text xml:space="preserve" text-anchor="start" x="201.75" y="-30.73" font-family="Arial" font-weight="bold" font-size="12.00">TrackSegment</text>
<polygon fill="none" stroke="black" points="199.75,-24.88 199.75,-43.12 286.25,-43.12 286.25,-24.88 199.75,-24.88"/>
</g>
<!-- TrackLink&#45;&gt;TrackSegment -->
<!-- Union_partwhole_hasProperPart&#45;&gt;TrackLink -->
<g id="edge6" class="edge">
<title>Union_partwhole_hasProperPart&#45;&gt;TrackLink</title>
<path fill="none" stroke="black" stroke-dasharray="1,5" d="M303.17,-330.24C304.88,-296.92 305.71,-220.55 283,-162 279.03,-151.78 272.59,-141.78 266.02,-133.22"/>
<polygon fill="black" stroke="black" points="268.94,-131.27 259.91,-125.73 263.52,-135.69 268.94,-131.27"/>
<text xml:space="preserve" text-anchor="middle" x="316.63" y="-218.5" font-family="Arial" font-size="10.00">member</text>
</g>
<!-- Union_partwhole_hasProperPart&#45;&gt;TrackSegment -->
<g id="edge7" class="edge">
<title>Union_partwhole_hasProperPart&#45;&gt;TrackSegment</title>
<path fill="none" stroke="black" stroke-dasharray="1,5" d="M319.77,-330.25C334.14,-314.82 352,-290.51 352,-265 352,-265 352,-265 352,-106 352,-76.89 324.37,-59.1 296.93,-48.6"/>
<polygon fill="black" stroke="black" points="298.1,-45.3 287.51,-45.3 295.79,-51.91 298.1,-45.3"/>
<text xml:space="preserve" text-anchor="middle" x="369.62" y="-176.5" font-family="Arial" font-size="10.00">member</text>
</g>
</g>
</svg>
