<?xml version="1.0" encoding="UTF-8" standalone="no"?>
<!DOCTYPE svg PUBLIC "-//W3C//DTD SVG 1.1//EN"
 "http://www.w3.org/Graphics/SVG/1.1/DTD/svg11.dtd">
<!-- Generated by graphviz version 13.1.0 (20250701.0955)
 -->
<!-- Pages: 1 -->
<svg width="335pt" height="290pt"
 viewBox="0.00 0.00 335.00 290.00" xmlns="http://www.w3.org/2000/svg" xmlns:xlink="http://www.w3.org/1999/xlink">
<g id="graph0" class="graph" transform="scale(1 1) rotate(0) translate(4 286)">
<polygon fill="white" stroke="none" points="-4,4 -4,-286 331.22,-286 331.22,4 -4,4"/>
<g id="clust2" class="cluster">
<title>cluster_associated</title>
</g>
<!-- TravelledWay -->
<g id="node1" class="node">
<title>TravelledWay</title>
<polygon fill="lightgray" stroke="none" points="43.97,-255.88 43.97,-272.12 122.47,-272.12 122.47,-255.88 43.97,-255.88"/>
<text xml:space="preserve" text-anchor="start" x="44.97" y="-260.73" font-family="Arial" font-weight="bold" font-size="12.00">TravelledWay</text>
<polygon fill="none" stroke="black" points="42.97,-254.88 42.97,-273.12 123.47,-273.12 123.47,-254.88 42.97,-254.88"/>
</g>
<!-- RailCorridor -->
<g id="node2" class="node">
<title>RailCorridor</title>
<polygon fill="lightgray" stroke="none" points="47.35,-182.88 47.35,-199.12 119.1,-199.12 119.1,-182.88 47.35,-182.88"/>
<text xml:space="preserve" text-anchor="start" x="48.35" y="-187.72" font-family="Arial" font-weight="bold" font-size="12.00">RailCorridor</text>
<polygon fill="none" stroke="black" points="46.35,-181.88 46.35,-200.12 120.1,-200.12 120.1,-181.88 46.35,-181.88"/>
</g>
<!-- RailCorridor&#45;&gt;TravelledWay -->
<g id="edge1" class="edge">
<title>RailCorridor&#45;&gt;TravelledWay</title>
<path fill="none" stroke="black" d="M83.22,-208.71C83.22,-216.47 83.22,-225.92 83.22,-234.74"/>
<polygon fill="none" stroke="black" points="79.72,-234.66 83.22,-244.66 86.72,-234.66 79.72,-234.66"/>
</g>
<!-- Invis -->
<!-- RailCorridor&#45;&gt;Invis -->
<!-- RailNetwork -->
<g id="node4" class="node">
<title>RailNetwork</title>
<polygon fill="lightgray" stroke="none" points="238.72,-98.88 238.72,-115.12 309.72,-115.12 309.72,-98.88 238.72,-98.88"/>
<text xml:space="preserve" text-anchor="start" x="239.72" y="-103.72" font-family="Arial" font-weight="bold" font-size="12.00">RailNetwork</text>
<polygon fill="none" stroke="black" points="237.72,-97.88 237.72,-116.12 310.72,-116.12 310.72,-97.88 237.72,-97.88"/>
</g>
<!-- RailCorridor&#45;&gt;RailNetwork -->
<g id="edge6" class="edge">
<title>RailCorridor&#45;&gt;RailNetwork</title>
<path fill="none" stroke="black" stroke-dasharray="5,2" d="M77.62,-173.29C75.41,-163.33 74.85,-151.09 81.97,-143 102.89,-119.25 192.37,-132.04 223.22,-125 224.58,-124.69 225.95,-124.36 227.33,-124.01"/>
<polygon fill="black" stroke="black" points="227.82,-127.51 236.52,-121.45 225.94,-120.76 227.82,-127.51"/>
<text xml:space="preserve" text-anchor="middle" x="174.6" y="-145.5" font-family="Arial" font-size="10.00">«only» onProperty: partwhole:properPartOf</text>
</g>
<!-- TrackLink -->
<g id="node5" class="node">
<title>TrackLink</title>
<polygon fill="lightgray" stroke="none" points="241.1,-25.88 241.1,-42.12 299.35,-42.12 299.35,-25.88 241.1,-25.88"/>
<text xml:space="preserve" text-anchor="start" x="242.1" y="-30.73" font-family="Arial" font-weight="bold" font-size="12.00">TrackLink</text>
<polygon fill="none" stroke="black" points="240.1,-24.88 240.1,-43.12 300.35,-43.12 300.35,-24.88 240.1,-24.88"/>
</g>
<!-- RailCorridor&#45;&gt;TrackLink -->
<g id="edge5" class="edge">
<title>RailCorridor&#45;&gt;TrackLink</title>
<path fill="none" stroke="black" stroke-dasharray="5,2" d="M55,-173.07C24.65,-152.76 -16.29,-117.83 7.22,-89 34.74,-55.26 162.11,-42.01 228.98,-37.31"/>
<polygon fill="black" stroke="black" points="229.08,-40.81 238.82,-36.65 228.61,-33.83 229.08,-40.81"/>
<text xml:space="preserve" text-anchor="middle" x="118.22" y="-103.5" font-family="Arial" font-size="10.00">«min 1, only» onProperty: partwhole:hasProperPart</text>
</g>
<!-- Invis&#45;&gt;RailNetwork -->
<!-- RailNetwork&#45;&gt;TrackLink -->
</g>
</svg>
