<?xml version="1.0" encoding="UTF-8" standalone="no"?>
<!DOCTYPE svg PUBLIC "-//W3C//DTD SVG 1.1//EN"
 "http://www.w3.org/Graphics/SVG/1.1/DTD/svg11.dtd">
<!-- Generated by graphviz version 13.1.0 (20250701.0955)
 -->
<!-- Pages: 1 -->
<svg width="419pt" height="409pt"
 viewBox="0.00 0.00 419.00 409.00" xmlns="http://www.w3.org/2000/svg" xmlns:xlink="http://www.w3.org/1999/xlink">
<g id="graph0" class="graph" transform="scale(1 1) rotate(0) translate(4 405)">
<polygon fill="white" stroke="none" points="-4,4 -4,-405 414.62,-405 414.62,4 -4,4"/>
<g id="clust2" class="cluster">
<title>cluster_associated</title>
</g>
<!-- TransportNetwork -->
<g id="node1" class="node">
<title>TransportNetwork</title>
<polygon fill="lightgray" stroke="none" points="1,-374.88 1,-391.12 105.75,-391.12 105.75,-374.88 1,-374.88"/>
<text xml:space="preserve" text-anchor="start" x="2" y="-379.73" font-family="Arial" font-weight="bold" font-size="12.00">TransportNetwork</text>
<polygon fill="none" stroke="black" points="0,-373.88 0,-392.12 106.75,-392.12 106.75,-373.88 0,-373.88"/>
</g>
<!-- RailNetwork -->
<g id="node2" class="node">
<title>RailNetwork</title>
<polygon fill="lightgray" stroke="none" points="31.88,-278.88 31.88,-295.12 102.88,-295.12 102.88,-278.88 31.88,-278.88"/>
<text xml:space="preserve" text-anchor="start" x="32.88" y="-283.73" font-family="Arial" font-weight="bold" font-size="12.00">RailNetwork</text>
<polygon fill="none" stroke="black" points="30.88,-277.88 30.88,-296.12 103.88,-296.12 103.88,-277.88 30.88,-277.88"/>
</g>
<!-- RailNetwork&#45;&gt;TransportNetwork -->
<g id="edge1" class="edge">
<title>RailNetwork&#45;&gt;TransportNetwork</title>
<path fill="none" stroke="black" d="M64.85,-304.98C62.82,-318.58 59.94,-337.94 57.57,-353.85"/>
<polygon fill="none" stroke="black" points="54.11,-353.29 56.1,-363.7 61.04,-354.32 54.11,-353.29"/>
</g>
<!-- Invis -->
<!-- RailNetwork&#45;&gt;Invis -->
<!-- TrackLink -->
<g id="node6" class="node">
<title>TrackLink</title>
<polygon fill="lightgray" stroke="none" points="182.25,-25.88 182.25,-42.12 240.5,-42.12 240.5,-25.88 182.25,-25.88"/>
<text xml:space="preserve" text-anchor="start" x="183.25" y="-30.73" font-family="Arial" font-weight="bold" font-size="12.00">TrackLink</text>
<polygon fill="none" stroke="black" points="181.25,-24.88 181.25,-43.12 241.5,-43.12 241.5,-24.88 181.25,-24.88"/>
</g>
<!-- RailNetwork&#45;&gt;TrackLink -->
<g id="edge10" class="edge">
<title>RailNetwork&#45;&gt;TrackLink</title>
<path fill="none" stroke="black" stroke-dasharray="5,2" d="M61.59,-269.45C52.9,-241.59 39.66,-184.35 60.88,-143 83.86,-98.21 135.01,-67.81 171.29,-50.95"/>
<polygon fill="black" stroke="black" points="172.48,-54.26 180.17,-46.98 169.62,-47.87 172.48,-54.26"/>
<text xml:space="preserve" text-anchor="middle" x="141.12" y="-157.5" font-family="Arial" font-size="10.00">«min 1»</text>
<text xml:space="preserve" text-anchor="middle" x="141.12" y="-145.5" font-family="Arial" font-size="10.00">onProperty: partwhole:hasProperPart</text>
</g>
<!-- Union_partwhole_hasProperPart -->
<g id="node7" class="node">
<title>Union_partwhole_hasProperPart</title>
<polygon fill="lightyellow" stroke="none" points="182.25,-366.75 182.25,-399.25 404.5,-399.25 404.5,-366.75 182.25,-366.75"/>
<text xml:space="preserve" text-anchor="start" x="265.62" y="-385.85" font-family="Arial" font-size="12.00">«unionOf»</text>
<text xml:space="preserve" text-anchor="start" x="184.25" y="-371.6" font-family="Arial" font-size="12.00">[RailCorridor or RailSection or TrackLink]</text>
<polygon fill="none" stroke="black" points="182.25,-366.75 182.25,-399.25 404.5,-399.25 404.5,-366.75 182.25,-366.75"/>
</g>
<!-- RailNetwork&#45;&gt;Union_partwhole_hasProperPart -->
<g id="edge9" class="edge">
<title>RailNetwork&#45;&gt;Union_partwhole_hasProperPart</title>
<path fill="none" stroke="black" stroke-dasharray="5,2" d="M68.66,-304.83C70.62,-318.29 75.54,-336.56 87.88,-347 101.49,-358.52 135.07,-366.36 171.24,-371.64"/>
<polygon fill="black" stroke="black" points="170.64,-375.1 181.03,-373 171.6,-368.16 170.64,-375.1"/>
<text xml:space="preserve" text-anchor="middle" x="168.12" y="-337.5" font-family="Arial" font-size="10.00">«only»</text>
<text xml:space="preserve" text-anchor="middle" x="168.12" y="-325.5" font-family="Arial" font-size="10.00">onProperty: partwhole:hasProperPart</text>
</g>
<!-- RailCorridor -->
<g id="node4" class="node">
<title>RailCorridor</title>
<polygon fill="lightgray" stroke="none" points="173.5,-194.88 173.5,-211.12 245.25,-211.12 245.25,-194.88 173.5,-194.88"/>
<text xml:space="preserve" text-anchor="start" x="174.5" y="-199.72" font-family="Arial" font-weight="bold" font-size="12.00">RailCorridor</text>
<polygon fill="none" stroke="black" points="172.5,-193.88 172.5,-212.12 246.25,-212.12 246.25,-193.88 172.5,-193.88"/>
</g>
<!-- Invis&#45;&gt;RailCorridor -->
<!-- RailSection -->
<g id="node5" class="node">
<title>RailSection</title>
<polygon fill="lightgray" stroke="none" points="177.75,-98.88 177.75,-115.12 245,-115.12 245,-98.88 177.75,-98.88"/>
<text xml:space="preserve" text-anchor="start" x="178.75" y="-103.72" font-family="Arial" font-weight="bold" font-size="12.00">RailSection</text>
<polygon fill="none" stroke="black" points="176.75,-97.88 176.75,-116.12 246,-116.12 246,-97.88 176.75,-97.88"/>
</g>
<!-- RailCorridor&#45;&gt;RailSection -->
<!-- RailSection&#45;&gt;TrackLink -->
<!-- Union_partwhole_hasProperPart&#45;&gt;RailCorridor -->
<g id="edge6" class="edge">
<title>Union_partwhole_hasProperPart&#45;&gt;RailCorridor</title>
<path fill="none" stroke="black" stroke-dasharray="1,5" d="M285.47,-365.25C270.9,-334.38 239.69,-268.23 222.1,-230.96"/>
<polygon fill="black" stroke="black" points="225.4,-229.75 217.96,-222.2 219.07,-232.74 225.4,-229.75"/>
<text xml:space="preserve" text-anchor="middle" x="277.35" y="-283.5" font-family="Arial" font-size="10.00">member</text>
</g>
<!-- Union_partwhole_hasProperPart&#45;&gt;RailSection -->
<g id="edge7" class="edge">
<title>Union_partwhole_hasProperPart&#45;&gt;RailSection</title>
<path fill="none" stroke="black" stroke-dasharray="1,5" d="M297.26,-365.25C301.77,-342.93 307.59,-302.38 299.38,-269 286.6,-217.09 252.75,-164.04 230.95,-133.66"/>
<polygon fill="black" stroke="black" points="233.96,-131.85 225.23,-125.85 228.31,-135.98 233.96,-131.85"/>
<text xml:space="preserve" text-anchor="middle" x="311.69" y="-241.5" font-family="Arial" font-size="10.00">member</text>
</g>
<!-- Union_partwhole_hasProperPart&#45;&gt;TrackLink -->
<g id="edge8" class="edge">
<title>Union_partwhole_hasProperPart&#45;&gt;TrackLink</title>
<path fill="none" stroke="black" stroke-dasharray="1,5" d="M322.05,-365.01C345.7,-348.59 375.38,-321.35 375.38,-288 375.38,-288 375.38,-288 375.38,-106 375.38,-52.69 301.49,-38.96 252.9,-35.69"/>
<polygon fill="black" stroke="black" points="253.14,-32.2 242.97,-35.16 252.77,-39.19 253.14,-32.2"/>
<text xml:space="preserve" text-anchor="middle" x="393" y="-199.5" font-family="Arial" font-size="10.00">member</text>
</g>
</g>
</svg>
