<?xml version="1.0" encoding="UTF-8" standalone="no"?>
<!DOCTYPE svg PUBLIC "-//W3C//DTD SVG 1.1//EN"
 "http://www.w3.org/Graphics/SVG/1.1/DTD/svg11.dtd">
<!-- Generated by graphviz version 13.1.0 (20250701.0955)
 -->
<!-- Pages: 1 -->
<svg width="275pt" height="302pt"
 viewBox="0.00 0.00 275.00 302.00" xmlns="http://www.w3.org/2000/svg" xmlns:xlink="http://www.w3.org/1999/xlink">
<g id="graph0" class="graph" transform="scale(1 1) rotate(0) translate(4 298)">
<polygon fill="white" stroke="none" points="-4,4 -4,-298 270.59,-298 270.59,4 -4,4"/>
<g id="clust2" class="cluster">
<title>cluster_associated</title>
</g>
<!-- TravelledWay -->
<g id="node1" class="node">
<title>TravelledWay</title>
<polygon fill="lightgray" stroke="none" points="14.34,-267.88 14.34,-284.12 92.84,-284.12 92.84,-267.88 14.34,-267.88"/>
<text xml:space="preserve" text-anchor="start" x="15.34" y="-272.73" font-family="Arial" font-weight="bold" font-size="12.00">TravelledWay</text>
<polygon fill="none" stroke="black" points="13.34,-266.88 13.34,-285.12 93.84,-285.12 93.84,-266.88 13.34,-266.88"/>
</g>
<!-- RailCorridor -->
<g id="node2" class="node">
<title>RailCorridor</title>
<polygon fill="lightgray" stroke="none" points="17.71,-194.88 17.71,-211.12 89.46,-211.12 89.46,-194.88 17.71,-194.88"/>
<text xml:space="preserve" text-anchor="start" x="18.71" y="-199.72" font-family="Arial" font-weight="bold" font-size="12.00">RailCorridor</text>
<polygon fill="none" stroke="black" points="16.71,-193.88 16.71,-212.12 90.46,-212.12 90.46,-193.88 16.71,-193.88"/>
</g>
<!-- RailCorridor&#45;&gt;TravelledWay -->
<g id="edge1" class="edge">
<title>RailCorridor&#45;&gt;TravelledWay</title>
<path fill="none" stroke="black" d="M53.59,-220.71C53.59,-228.47 53.59,-237.92 53.59,-246.74"/>
<polygon fill="none" stroke="black" points="50.09,-246.66 53.59,-256.66 57.09,-246.66 50.09,-246.66"/>
</g>
<!-- Invis -->
<!-- RailCorridor&#45;&gt;Invis -->
<!-- RailNetwork -->
<g id="node4" class="node">
<title>RailNetwork</title>
<polygon fill="lightgray" stroke="none" points="178.09,-98.88 178.09,-115.12 249.09,-115.12 249.09,-98.88 178.09,-98.88"/>
<text xml:space="preserve" text-anchor="start" x="179.09" y="-103.72" font-family="Arial" font-weight="bold" font-size="12.00">RailNetwork</text>
<polygon fill="none" stroke="black" points="177.09,-97.88 177.09,-116.12 250.09,-116.12 250.09,-97.88 177.09,-97.88"/>
</g>
<!-- RailCorridor&#45;&gt;RailNetwork -->
<g id="edge6" class="edge">
<title>RailCorridor&#45;&gt;RailNetwork</title>
<path fill="none" stroke="black" stroke-dasharray="5,2" d="M47.99,-185.26C44.78,-172.22 43.08,-154.47 52.84,-143 68.99,-124.01 139.4,-131.03 163.59,-125 164.56,-124.76 165.54,-124.5 166.53,-124.24"/>
<polygon fill="black" stroke="black" points="167.12,-127.72 175.75,-121.57 165.17,-120.99 167.12,-127.72"/>
<text xml:space="preserve" text-anchor="middle" x="129.71" y="-157.5" font-family="Arial" font-size="10.00">«only»</text>
<text xml:space="preserve" text-anchor="middle" x="129.71" y="-145.5" font-family="Arial" font-size="10.00">onProperty: partwhole:properPartOf</text>
</g>
<!-- TrackLink -->
<g id="node5" class="node">
<title>TrackLink</title>
<polygon fill="lightgray" stroke="none" points="180.46,-25.88 180.46,-42.12 238.71,-42.12 238.71,-25.88 180.46,-25.88"/>
<text xml:space="preserve" text-anchor="start" x="181.46" y="-30.73" font-family="Arial" font-weight="bold" font-size="12.00">TrackLink</text>
<polygon fill="none" stroke="black" points="179.46,-24.88 179.46,-43.12 239.71,-43.12 239.71,-24.88 179.46,-24.88"/>
</g>
<!-- RailCorridor&#45;&gt;TrackLink -->
<g id="edge5" class="edge">
<title>RailCorridor&#45;&gt;TrackLink</title>
<path fill="none" stroke="black" stroke-dasharray="5,2" d="M37.11,-185.24C16.12,-161.83 -14.83,-118.87 8.09,-89 27.5,-63.7 115.53,-47.66 168.61,-40.11"/>
<polygon fill="black" stroke="black" points="168.76,-43.62 178.19,-38.79 167.8,-36.68 168.76,-43.62"/>
<text xml:space="preserve" text-anchor="middle" x="88.34" y="-109.5" font-family="Arial" font-size="10.00">«min 1, only»</text>
<text xml:space="preserve" text-anchor="middle" x="88.34" y="-97.5" font-family="Arial" font-size="10.00">onProperty: partwhole:hasProperPart</text>
</g>
<!-- Invis&#45;&gt;RailNetwork -->
<!-- RailNetwork&#45;&gt;TrackLink -->
</g>
</svg>
