<?xml version="1.0" encoding="UTF-8" standalone="no"?>
<!DOCTYPE svg PUBLIC "-//W3C//DTD SVG 1.1//EN"
 "http://www.w3.org/Graphics/SVG/1.1/DTD/svg11.dtd">
<!-- Generated by graphviz version 13.1.0 (20250701.0955)
 -->
<!-- Pages: 1 -->
<svg width="450pt" height="385pt"
 viewBox="0.00 0.00 450.00 385.00" xmlns="http://www.w3.org/2000/svg" xmlns:xlink="http://www.w3.org/1999/xlink">
<g id="graph0" class="graph" transform="scale(1 1) rotate(0) translate(4 381)">
<polygon fill="white" stroke="none" points="-4,4 -4,-381 445.62,-381 445.62,4 -4,4"/>
<g id="clust2" class="cluster">
<title>cluster_associated</title>
</g>
<!-- TransportNetwork -->
<g id="node1" class="node">
<title>TransportNetwork</title>
<polygon fill="lightgray" stroke="none" points="1,-350.88 1,-367.12 105.75,-367.12 105.75,-350.88 1,-350.88"/>
<text xml:space="preserve" text-anchor="start" x="2" y="-355.73" font-family="Arial" font-weight="bold" font-size="12.00">TransportNetwork</text>
<polygon fill="none" stroke="black" points="0,-349.88 0,-368.12 106.75,-368.12 106.75,-349.88 0,-349.88"/>
</g>
<!-- RailNetwork -->
<g id="node2" class="node">
<title>RailNetwork</title>
<polygon fill="lightgray" stroke="none" points="30.88,-266.88 30.88,-283.12 101.88,-283.12 101.88,-266.88 30.88,-266.88"/>
<text xml:space="preserve" text-anchor="start" x="31.88" y="-271.73" font-family="Arial" font-weight="bold" font-size="12.00">RailNetwork</text>
<polygon fill="none" stroke="black" points="29.88,-265.88 29.88,-284.12 102.88,-284.12 102.88,-265.88 29.88,-265.88"/>
</g>
<!-- RailNetwork&#45;&gt;TransportNetwork -->
<g id="edge1" class="edge">
<title>RailNetwork&#45;&gt;TransportNetwork</title>
<path fill="none" stroke="black" d="M63.68,-292.97C61.99,-303.63 59.77,-317.64 57.83,-329.92"/>
<polygon fill="none" stroke="black" points="54.41,-329.09 56.31,-339.51 61.33,-330.19 54.41,-329.09"/>
</g>
<!-- Invis -->
<!-- RailNetwork&#45;&gt;Invis -->
<!-- TrackLink -->
<g id="node6" class="node">
<title>TrackLink</title>
<polygon fill="lightgray" stroke="none" points="213.25,-25.88 213.25,-42.12 271.5,-42.12 271.5,-25.88 213.25,-25.88"/>
<text xml:space="preserve" text-anchor="start" x="214.25" y="-30.73" font-family="Arial" font-weight="bold" font-size="12.00">TrackLink</text>
<polygon fill="none" stroke="black" points="212.25,-24.88 212.25,-43.12 272.5,-43.12 272.5,-24.88 212.25,-24.88"/>
</g>
<!-- RailNetwork&#45;&gt;TrackLink -->
<g id="edge10" class="edge">
<title>RailNetwork&#45;&gt;TrackLink</title>
<path fill="none" stroke="black" stroke-dasharray="5,2" d="M59.48,-257.37C49.76,-231.13 35.44,-179.37 56.38,-143 87.46,-89 157.04,-59.51 201.73,-45.52"/>
<polygon fill="black" stroke="black" points="202.49,-48.95 211.07,-42.73 200.48,-42.24 202.49,-48.95"/>
<text xml:space="preserve" text-anchor="middle" x="155.38" y="-145.5" font-family="Arial" font-size="10.00">«min 1» onProperty: partwhole:hasProperPart</text>
</g>
<!-- Union_partwhole_hasProperPart -->
<g id="node7" class="node">
<title>Union_partwhole_hasProperPart</title>
<polygon fill="lightyellow" stroke="none" points="213.25,-342.75 213.25,-375.25 435.5,-375.25 435.5,-342.75 213.25,-342.75"/>
<text xml:space="preserve" text-anchor="start" x="296.62" y="-361.85" font-family="Arial" font-size="12.00">«unionOf»</text>
<text xml:space="preserve" text-anchor="start" x="215.25" y="-347.6" font-family="Arial" font-size="12.00">[RailCorridor or RailSection or TrackLink]</text>
<polygon fill="none" stroke="black" points="213.25,-342.75 213.25,-375.25 435.5,-375.25 435.5,-342.75 213.25,-342.75"/>
</g>
<!-- RailNetwork&#45;&gt;Union_partwhole_hasProperPart -->
<g id="edge9" class="edge">
<title>RailNetwork&#45;&gt;Union_partwhole_hasProperPart</title>
<path fill="none" stroke="black" stroke-dasharray="5,2" d="M69.63,-292.92C72.52,-303.23 77.83,-315.77 87.38,-323 106.06,-337.16 154.23,-345.64 202.31,-350.69"/>
<polygon fill="black" stroke="black" points="201.73,-354.15 212.03,-351.66 202.42,-347.18 201.73,-354.15"/>
<text xml:space="preserve" text-anchor="middle" x="183.38" y="-313.5" font-family="Arial" font-size="10.00">«only» onProperty: partwhole:hasProperPart</text>
</g>
<!-- RailCorridor -->
<g id="node4" class="node">
<title>RailCorridor</title>
<polygon fill="lightgray" stroke="none" points="204.5,-182.88 204.5,-199.12 276.25,-199.12 276.25,-182.88 204.5,-182.88"/>
<text xml:space="preserve" text-anchor="start" x="205.5" y="-187.72" font-family="Arial" font-weight="bold" font-size="12.00">RailCorridor</text>
<polygon fill="none" stroke="black" points="203.5,-181.88 203.5,-200.12 277.25,-200.12 277.25,-181.88 203.5,-181.88"/>
</g>
<!-- Invis&#45;&gt;RailCorridor -->
<!-- RailSection -->
<g id="node5" class="node">
<title>RailSection</title>
<polygon fill="lightgray" stroke="none" points="208.75,-98.88 208.75,-115.12 276,-115.12 276,-98.88 208.75,-98.88"/>
<text xml:space="preserve" text-anchor="start" x="209.75" y="-103.72" font-family="Arial" font-weight="bold" font-size="12.00">RailSection</text>
<polygon fill="none" stroke="black" points="207.75,-97.88 207.75,-116.12 277,-116.12 277,-97.88 207.75,-97.88"/>
</g>
<!-- RailCorridor&#45;&gt;RailSection -->
<!-- RailSection&#45;&gt;TrackLink -->
<!-- Union_partwhole_hasProperPart&#45;&gt;RailCorridor -->
<g id="edge6" class="edge">
<title>Union_partwhole_hasProperPart&#45;&gt;RailCorridor</title>
<path fill="none" stroke="black" stroke-dasharray="1,5" d="M315.86,-341.17C301.27,-312.34 271.38,-253.27 253.91,-218.74"/>
<polygon fill="black" stroke="black" points="257.24,-217.57 249.6,-210.23 250.99,-220.73 257.24,-217.57"/>
<text xml:space="preserve" text-anchor="middle" x="312.43" y="-271.5" font-family="Arial" font-size="10.00">member</text>
</g>
<!-- Union_partwhole_hasProperPart&#45;&gt;RailSection -->
<g id="edge7" class="edge">
<title>Union_partwhole_hasProperPart&#45;&gt;RailSection</title>
<path fill="none" stroke="black" stroke-dasharray="1,5" d="M329.61,-341.27C335.13,-320.99 342.06,-285.95 334.38,-257 321.62,-208.95 287.62,-161.5 264.73,-133.48"/>
<polygon fill="black" stroke="black" points="267.5,-131.34 258.4,-125.91 262.13,-135.83 267.5,-131.34"/>
<text xml:space="preserve" text-anchor="middle" x="345.89" y="-229.5" font-family="Arial" font-size="10.00">member</text>
</g>
<!-- Union_partwhole_hasProperPart&#45;&gt;TrackLink -->
<g id="edge8" class="edge">
<title>Union_partwhole_hasProperPart&#45;&gt;TrackLink</title>
<path fill="none" stroke="black" stroke-dasharray="1,5" d="M358.2,-341C380.79,-327 406.38,-304.79 406.38,-276 406.38,-276 406.38,-276 406.38,-106 406.38,-52.69 332.49,-38.96 283.9,-35.69"/>
<polygon fill="black" stroke="black" points="284.14,-32.2 273.97,-35.16 283.77,-39.19 284.14,-32.2"/>
<text xml:space="preserve" text-anchor="middle" x="424" y="-187.5" font-family="Arial" font-size="10.00">member</text>
</g>
</g>
</svg>
