<?xml version="1.0" encoding="UTF-8" standalone="no"?>
<!DOCTYPE svg PUBLIC "-//W3C//DTD SVG 1.1//EN"
 "http://www.w3.org/Graphics/SVG/1.1/DTD/svg11.dtd">
<!-- Generated by graphviz version 14.0.2 (20251019.1705)
 -->
<!-- Pages: 1 -->
<svg width="170pt" height="132pt"
 viewBox="0.00 0.00 170.00 132.00" xmlns="http://www.w3.org/2000/svg" xmlns:xlink="http://www.w3.org/1999/xlink">
<g id="graph0" class="graph" transform="scale(1 1) rotate(0) translate(4 128)">
<polygon fill="white" stroke="none" points="-4,4 -4,-128 165.75,-128 165.75,4 -4,4"/>
<g id="clust2" class="cluster">
<title>cluster_associated</title>
</g>
<!-- RailCorridor -->
<g id="node1" class="node">
<title>RailCorridor</title>
<g id="a_node1"><a xlink:href="../RailCorridor.md" xlink:title="&lt;TABLE&gt;">
<polygon fill="lightgray" stroke="none" points="5.12,-25.88 5.12,-42.12 72.38,-42.12 72.38,-25.88 5.12,-25.88"/>
<text xml:space="preserve" text-anchor="start" x="6.12" y="-29.73" font-family="Arial" font-size="12.00">RailCorridor</text>
<polygon fill="none" stroke="black" points="4.12,-24.88 4.12,-43.12 73.38,-43.12 73.38,-24.88 4.12,-24.88"/>
</a>
</g>
</g>
<!-- TravelledWay -->
<g id="node3" class="node">
<title>TravelledWay</title>
<g id="a_node3"><a xlink:href="../TravelledWay.md" xlink:title="&lt;TABLE&gt;">
<polygon fill="lightgray" stroke="none" points="1,-97.88 1,-114.12 76.5,-114.12 76.5,-97.88 1,-97.88"/>
<text xml:space="preserve" text-anchor="start" x="2" y="-101.72" font-family="Arial" font-size="12.00">TravelledWay</text>
<polygon fill="none" stroke="black" points="0,-96.88 0,-115.12 77.5,-115.12 77.5,-96.88 0,-96.88"/>
</a>
</g>
</g>
<!-- RailCorridor&#45;&gt;TravelledWay -->
<g id="edge1" class="edge">
<title>RailCorridor&#45;&gt;TravelledWay</title>
<path fill="none" stroke="black" d="M38.75,-51.79C38.75,-59.25 38.75,-68.24 38.75,-76.69"/>
<polygon fill="none" stroke="black" points="35.25,-76.54 38.75,-86.54 42.25,-76.54 35.25,-76.54"/>
</g>
<!-- Invis -->
</g>
</svg>
