<?xml version="1.0" encoding="UTF-8" standalone="no"?>
<!DOCTYPE svg PUBLIC "-//W3C//DTD SVG 1.1//EN"
 "http://www.w3.org/Graphics/SVG/1.1/DTD/svg11.dtd">
<!-- Generated by graphviz version 13.1.0 (20250701.0955)
 -->
<!-- Pages: 1 -->
<svg width="364pt" height="398pt"
 viewBox="0.00 0.00 364.00 398.00" xmlns="http://www.w3.org/2000/svg" xmlns:xlink="http://www.w3.org/1999/xlink">
<g id="graph0" class="graph" transform="scale(1 1) rotate(0) translate(4 394)">
<polygon fill="white" stroke="none" points="-4,4 -4,-394 360.25,-394 360.25,4 -4,4"/>
<g id="clust2" class="cluster">
<title>cluster_associated</title>
</g>
<!-- TravelledWaySection -->
<g id="node1" class="node">
<title>TravelledWaySection</title>
<polygon fill="lightgray" stroke="none" points="1,-363.88 1,-380.12 123,-380.12 123,-363.88 1,-363.88"/>
<text xml:space="preserve" text-anchor="start" x="2" y="-368.73" font-family="Arial" font-weight="bold" font-size="12.00">TravelledWaySection</text>
<polygon fill="none" stroke="black" points="0,-362.88 0,-381.12 124,-381.12 124,-362.88 0,-362.88"/>
</g>
<!-- RailSection -->
<g id="node2" class="node">
<title>RailSection</title>
<polygon fill="lightgray" stroke="none" points="57.38,-267.88 57.38,-284.12 124.62,-284.12 124.62,-267.88 57.38,-267.88"/>
<text xml:space="preserve" text-anchor="start" x="58.38" y="-272.73" font-family="Arial" font-weight="bold" font-size="12.00">RailSection</text>
<polygon fill="none" stroke="black" points="56.38,-266.88 56.38,-285.12 125.62,-285.12 125.62,-266.88 56.38,-266.88"/>
</g>
<!-- RailSection&#45;&gt;TravelledWaySection -->
<g id="edge1" class="edge">
<title>RailSection&#45;&gt;TravelledWaySection</title>
<path fill="none" stroke="black" d="M83.08,-293.86C80.6,-299.55 77.99,-305.97 76,-312 72.74,-321.88 69.91,-332.92 67.66,-342.76"/>
<polygon fill="none" stroke="black" points="64.24,-342.01 65.55,-352.52 71.09,-343.49 64.24,-342.01"/>
</g>
<!-- Invis -->
<!-- RailSection&#45;&gt;Invis -->
<!-- RailNetwork -->
<g id="node4" class="node">
<title>RailNetwork</title>
<polygon fill="lightgray" stroke="none" points="170.5,-171.88 170.5,-188.12 241.5,-188.12 241.5,-171.88 170.5,-171.88"/>
<text xml:space="preserve" text-anchor="start" x="171.5" y="-176.72" font-family="Arial" font-weight="bold" font-size="12.00">RailNetwork</text>
<polygon fill="none" stroke="black" points="169.5,-170.88 169.5,-189.12 242.5,-189.12 242.5,-170.88 169.5,-170.88"/>
</g>
<!-- RailSection&#45;&gt;RailNetwork -->
<g id="edge9" class="edge">
<title>RailSection&#45;&gt;RailNetwork</title>
<path fill="none" stroke="black" stroke-dasharray="5,2" d="M74.17,-258.06C63.84,-245.59 54.33,-228.66 64.25,-216 75.9,-201.12 122.05,-191.7 158.57,-186.43"/>
<polygon fill="black" stroke="black" points="158.61,-189.96 168.05,-185.13 157.66,-183.02 158.61,-189.96"/>
<text xml:space="preserve" text-anchor="middle" x="141.12" y="-230.5" font-family="Arial" font-size="10.00">«only»</text>
<text xml:space="preserve" text-anchor="middle" x="141.12" y="-218.5" font-family="Arial" font-size="10.00">onProperty: partwhole:properPartOf</text>
</g>
<!-- Union_partwhole_hasProperPart -->
<g id="node7" class="node">
<title>Union_partwhole_hasProperPart</title>
<polygon fill="lightyellow" stroke="none" points="193.25,-355.75 193.25,-388.25 348.75,-388.25 348.75,-355.75 193.25,-355.75"/>
<text xml:space="preserve" text-anchor="start" x="243.25" y="-374.85" font-family="Arial" font-size="12.00">«unionOf»</text>
<text xml:space="preserve" text-anchor="start" x="195.25" y="-360.6" font-family="Arial" font-size="12.00">[TrackLink or TrackSegment]</text>
<polygon fill="none" stroke="black" points="193.25,-355.75 193.25,-388.25 348.75,-388.25 348.75,-355.75 193.25,-355.75"/>
</g>
<!-- RailSection&#45;&gt;Union_partwhole_hasProperPart -->
<g id="edge8" class="edge">
<title>RailSection&#45;&gt;Union_partwhole_hasProperPart</title>
<path fill="none" stroke="black" stroke-dasharray="5,2" d="M87.64,-293.87C86.07,-306.97 86.38,-324.76 96.5,-336 108.49,-349.32 145.44,-357.75 182.27,-363"/>
<polygon fill="black" stroke="black" points="181.8,-366.46 192.17,-364.32 182.73,-359.53 181.8,-366.46"/>
<text xml:space="preserve" text-anchor="middle" x="176.75" y="-326.5" font-family="Arial" font-size="10.00">«only»</text>
<text xml:space="preserve" text-anchor="middle" x="176.75" y="-314.5" font-family="Arial" font-size="10.00">onProperty: partwhole:hasProperPart</text>
</g>
<!-- Invis&#45;&gt;RailNetwork -->
<!-- TrackLink -->
<g id="node5" class="node">
<title>TrackLink</title>
<polygon fill="lightgray" stroke="none" points="182.88,-98.88 182.88,-115.12 241.12,-115.12 241.12,-98.88 182.88,-98.88"/>
<text xml:space="preserve" text-anchor="start" x="183.88" y="-103.72" font-family="Arial" font-weight="bold" font-size="12.00">TrackLink</text>
<polygon fill="none" stroke="black" points="181.88,-97.88 181.88,-116.12 242.12,-116.12 242.12,-97.88 181.88,-97.88"/>
</g>
<!-- RailNetwork&#45;&gt;TrackLink -->
<!-- TrackSegment -->
<g id="node6" class="node">
<title>TrackSegment</title>
<polygon fill="lightgray" stroke="none" points="169.75,-25.88 169.75,-42.12 254.25,-42.12 254.25,-25.88 169.75,-25.88"/>
<text xml:space="preserve" text-anchor="start" x="170.75" y="-30.73" font-family="Arial" font-weight="bold" font-size="12.00">TrackSegment</text>
<polygon fill="none" stroke="black" points="168.75,-24.88 168.75,-43.12 255.25,-43.12 255.25,-24.88 168.75,-24.88"/>
</g>
<!-- TrackLink&#45;&gt;TrackSegment -->
<!-- Union_partwhole_hasProperPart&#45;&gt;TrackLink -->
<g id="edge6" class="edge">
<title>Union_partwhole_hasProperPart&#45;&gt;TrackLink</title>
<path fill="none" stroke="black" stroke-dasharray="1,5" d="M272.47,-354.06C275.01,-317.57 277.69,-229.41 252,-162 248.09,-151.75 241.66,-141.75 235.09,-133.19"/>
<polygon fill="black" stroke="black" points="238.01,-131.23 228.97,-125.71 232.59,-135.66 238.01,-131.23"/>
<text xml:space="preserve" text-anchor="middle" x="287.62" y="-224.5" font-family="Arial" font-size="10.00">member</text>
</g>
<!-- Union_partwhole_hasProperPart&#45;&gt;TrackSegment -->
<g id="edge7" class="edge">
<title>Union_partwhole_hasProperPart&#45;&gt;TrackSegment</title>
<path fill="none" stroke="black" stroke-dasharray="1,5" d="M286.55,-354.07C301.22,-336.27 321,-306.76 321,-277 321,-277 321,-277 321,-106 321,-76.89 293.37,-59.1 265.93,-48.6"/>
<polygon fill="black" stroke="black" points="267.1,-45.3 256.51,-45.3 264.79,-51.91 267.1,-45.3"/>
<text xml:space="preserve" text-anchor="middle" x="338.62" y="-176.5" font-family="Arial" font-size="10.00">member</text>
</g>
</g>
</svg>
