<?xml version="1.0" encoding="UTF-8" standalone="no"?>
<!DOCTYPE svg PUBLIC "-//W3C//DTD SVG 1.1//EN"
 "http://www.w3.org/Graphics/SVG/1.1/DTD/svg11.dtd">
<!-- Generated by graphviz version 13.1.0 (20250701.0955)
 -->
<!-- Pages: 1 -->
<svg width="419pt" height="386pt"
 viewBox="0.00 0.00 419.00 386.00" xmlns="http://www.w3.org/2000/svg" xmlns:xlink="http://www.w3.org/1999/xlink">
<g id="graph0" class="graph" transform="scale(1 1) rotate(0) translate(4 382)">
<polygon fill="white" stroke="none" points="-4,4 -4,-382 414.62,-382 414.62,4 -4,4"/>
<g id="clust2" class="cluster">
<title>cluster_associated</title>
</g>
<!-- TransportNetwork -->
<g id="node1" class="node">
<title>TransportNetwork</title>
<polygon fill="lightgray" stroke="none" points="1,-351.88 1,-368.12 105.75,-368.12 105.75,-351.88 1,-351.88"/>
<text xml:space="preserve" text-anchor="start" x="2" y="-356.73" font-family="Arial" font-weight="bold" font-size="12.00">TransportNetwork</text>
<polygon fill="none" stroke="black" points="0,-350.88 0,-369.12 106.75,-369.12 106.75,-350.88 0,-350.88"/>
</g>
<!-- RoadNetwork -->
<g id="node2" class="node">
<title>RoadNetwork</title>
<polygon fill="lightgray" stroke="none" points="29.38,-255.88 29.38,-272.12 109.38,-272.12 109.38,-255.88 29.38,-255.88"/>
<text xml:space="preserve" text-anchor="start" x="30.38" y="-260.73" font-family="Arial" font-weight="bold" font-size="12.00">RoadNetwork</text>
<polygon fill="none" stroke="black" points="28.38,-254.88 28.38,-273.12 110.38,-273.12 110.38,-254.88 28.38,-254.88"/>
</g>
<!-- RoadNetwork&#45;&gt;TransportNetwork -->
<g id="edge1" class="edge">
<title>RoadNetwork&#45;&gt;TransportNetwork</title>
<path fill="none" stroke="black" d="M66.49,-281.98C64.17,-295.58 60.87,-314.94 58.17,-330.85"/>
<polygon fill="none" stroke="black" points="54.72,-330.26 56.49,-340.7 61.62,-331.43 54.72,-330.26"/>
</g>
<!-- Invis -->
<!-- RoadNetwork&#45;&gt;Invis -->
<!-- RoadLink -->
<g id="node5" class="node">
<title>RoadLink</title>
<polygon fill="lightgray" stroke="none" points="187.62,-98.88 187.62,-115.12 245.12,-115.12 245.12,-98.88 187.62,-98.88"/>
<text xml:space="preserve" text-anchor="start" x="188.62" y="-103.72" font-family="Arial" font-weight="bold" font-size="12.00">RoadLink</text>
<polygon fill="none" stroke="black" points="186.62,-97.88 186.62,-116.12 246.12,-116.12 246.12,-97.88 186.62,-97.88"/>
</g>
<!-- RoadNetwork&#45;&gt;RoadLink -->
<g id="edge10" class="edge">
<title>RoadNetwork&#45;&gt;RoadLink</title>
<path fill="none" stroke="black" stroke-dasharray="5,2" d="M52.62,-246.32C33.43,-225.16 7.05,-188.27 26.88,-162 44.75,-138.32 125.43,-121.93 175.58,-113.83"/>
<polygon fill="black" stroke="black" points="175.86,-117.33 185.2,-112.32 174.78,-110.41 175.86,-117.33"/>
<text xml:space="preserve" text-anchor="middle" x="107.12" y="-182.5" font-family="Arial" font-size="10.00">«min 1»</text>
<text xml:space="preserve" text-anchor="middle" x="107.12" y="-170.5" font-family="Arial" font-size="10.00">onProperty: partwhole:hasProperPart</text>
</g>
<!-- Union_partwhole_hasProperPart -->
<g id="node7" class="node">
<title>Union_partwhole_hasProperPart</title>
<polygon fill="lightyellow" stroke="none" points="196.5,-343.75 196.5,-376.25 390.25,-376.25 390.25,-343.75 196.5,-343.75"/>
<text xml:space="preserve" text-anchor="start" x="265.62" y="-362.85" font-family="Arial" font-size="12.00">«unionOf»</text>
<text xml:space="preserve" text-anchor="start" x="198.5" y="-348.6" font-family="Arial" font-size="12.00">[Road or RoadLink or RoadSection]</text>
<polygon fill="none" stroke="black" points="196.5,-343.75 196.5,-376.25 390.25,-376.25 390.25,-343.75 196.5,-343.75"/>
</g>
<!-- RoadNetwork&#45;&gt;Union_partwhole_hasProperPart -->
<g id="edge9" class="edge">
<title>RoadNetwork&#45;&gt;Union_partwhole_hasProperPart</title>
<path fill="none" stroke="black" stroke-dasharray="5,2" d="M70.05,-281.79C71.54,-295.22 75.83,-313.48 87.88,-324 103.04,-337.25 143.87,-345.59 185.17,-350.79"/>
<polygon fill="black" stroke="black" points="184.67,-354.26 195.02,-351.96 185.5,-347.31 184.67,-354.26"/>
<text xml:space="preserve" text-anchor="middle" x="168.12" y="-314.5" font-family="Arial" font-size="10.00">«only»</text>
<text xml:space="preserve" text-anchor="middle" x="168.12" y="-302.5" font-family="Arial" font-size="10.00">onProperty: partwhole:hasProperPart</text>
</g>
<!-- Road -->
<g id="node4" class="node">
<title>Road</title>
<polygon fill="lightgray" stroke="none" points="207,-171.88 207,-188.12 239.75,-188.12 239.75,-171.88 207,-171.88"/>
<text xml:space="preserve" text-anchor="start" x="208" y="-176.72" font-family="Arial" font-weight="bold" font-size="12.00">Road</text>
<polygon fill="none" stroke="black" points="206,-170.88 206,-189.12 240.75,-189.12 240.75,-170.88 206,-170.88"/>
</g>
<!-- Invis&#45;&gt;Road -->
<!-- Road&#45;&gt;RoadLink -->
<!-- RoadSection -->
<g id="node6" class="node">
<title>RoadSection</title>
<polygon fill="lightgray" stroke="none" points="173.25,-25.88 173.25,-42.12 249.5,-42.12 249.5,-25.88 173.25,-25.88"/>
<text xml:space="preserve" text-anchor="start" x="174.25" y="-30.73" font-family="Arial" font-weight="bold" font-size="12.00">RoadSection</text>
<polygon fill="none" stroke="black" points="172.25,-24.88 172.25,-43.12 250.5,-43.12 250.5,-24.88 172.25,-24.88"/>
</g>
<!-- RoadLink&#45;&gt;RoadSection -->
<!-- Union_partwhole_hasProperPart&#45;&gt;Road -->
<g id="edge6" class="edge">
<title>Union_partwhole_hasProperPart&#45;&gt;Road</title>
<path fill="none" stroke="black" stroke-dasharray="1,5" d="M286.79,-342.25C274.7,-311.51 248.86,-245.8 234.17,-208.44"/>
<polygon fill="black" stroke="black" points="237.46,-207.26 230.55,-199.24 230.95,-209.83 237.46,-207.26"/>
<text xml:space="preserve" text-anchor="middle" x="282.96" y="-260.5" font-family="Arial" font-size="10.00">member</text>
</g>
<!-- Union_partwhole_hasProperPart&#45;&gt;RoadLink -->
<g id="edge7" class="edge">
<title>Union_partwhole_hasProperPart&#45;&gt;RoadLink</title>
<path fill="none" stroke="black" stroke-dasharray="1,5" d="M298.5,-342.27C304.55,-319.98 312.77,-279.46 304.38,-246 293.36,-202.12 262,-159.44 239.87,-133.44"/>
<polygon fill="black" stroke="black" points="242.68,-131.34 233.47,-126.1 237.41,-135.94 242.68,-131.34"/>
<text xml:space="preserve" text-anchor="middle" x="315.85" y="-218.5" font-family="Arial" font-size="10.00">member</text>
</g>
<!-- Union_partwhole_hasProperPart&#45;&gt;RoadSection -->
<g id="edge8" class="edge">
<title>Union_partwhole_hasProperPart&#45;&gt;RoadSection</title>
<path fill="none" stroke="black" stroke-dasharray="1,5" d="M322.05,-342.01C345.7,-325.59 375.38,-298.35 375.38,-265 375.38,-265 375.38,-265 375.38,-106 375.38,-55.73 309.69,-40.65 261.46,-36.36"/>
<polygon fill="black" stroke="black" points="261.98,-32.89 251.75,-35.63 261.46,-39.87 261.98,-32.89"/>
<text xml:space="preserve" text-anchor="middle" x="393" y="-176.5" font-family="Arial" font-size="10.00">member</text>
</g>
</g>
</svg>
