<?xml version="1.0" encoding="UTF-8" standalone="no"?>
<!DOCTYPE svg PUBLIC "-//W3C//DTD SVG 1.1//EN"
 "http://www.w3.org/Graphics/SVG/1.1/DTD/svg11.dtd">
<!-- Generated by graphviz version 13.1.0 (20250701.0955)
 -->
<!-- Pages: 1 -->
<svg width="518pt" height="217pt"
 viewBox="0.00 0.00 518.00 217.00" xmlns="http://www.w3.org/2000/svg" xmlns:xlink="http://www.w3.org/1999/xlink">
<g id="graph0" class="graph" transform="scale(1 1) rotate(0) translate(4 213)">
<polygon fill="white" stroke="none" points="-4,4 -4,-213 513.88,-213 513.88,4 -4,4"/>
<g id="clust2" class="cluster">
<title>cluster_associated</title>
</g>
<!-- TravelledWayLane -->
<g id="node1" class="node">
<title>TravelledWayLane</title>
<polygon fill="lightgray" stroke="none" points="64.38,-182.88 64.38,-199.12 171.38,-199.12 171.38,-182.88 64.38,-182.88"/>
<text xml:space="preserve" text-anchor="start" x="65.38" y="-187.72" font-family="Arial" font-weight="bold" font-size="12.00">TravelledWayLane</text>
<polygon fill="none" stroke="black" points="63.38,-181.88 63.38,-200.12 172.38,-200.12 172.38,-181.88 63.38,-181.88"/>
</g>
<!-- RoadLane -->
<g id="node2" class="node">
<title>RoadLane</title>
<polygon fill="lightgray" stroke="none" points="1,-118 1,-134.25 234.75,-134.25 234.75,-118 1,-118"/>
<text xml:space="preserve" text-anchor="start" x="88.25" y="-122.85" font-family="Arial" font-weight="bold" font-size="12.00">RoadLane</text>
<text xml:space="preserve" text-anchor="start" x="2" y="-105.6" font-family="Arial" font-size="12.00">width: nonNegativeInteger «exactly 1, only»</text>
<polygon fill="none" stroke="black" points="0,-100.75 0,-135.25 235.75,-135.25 235.75,-100.75 0,-100.75"/>
</g>
<!-- RoadLane&#45;&gt;TravelledWayLane -->
<g id="edge1" class="edge">
<title>RoadLane&#45;&gt;TravelledWayLane</title>
<path fill="none" stroke="black" d="M117.88,-135.71C117.88,-143.47 117.88,-152.92 117.88,-161.74"/>
<polygon fill="none" stroke="black" points="114.38,-161.66 117.88,-171.66 121.38,-161.66 114.38,-161.66"/>
</g>
<!-- RoadLane&#45;&gt;RoadLane -->
<g id="edge4" class="edge">
<title>RoadLane&#45;&gt;RoadLane</title>
<path fill="none" stroke="black" d="M235.75,-120.74C246.78,-120.18 253.75,-119.27 253.75,-118 253.75,-117.25 251.29,-116.62 246.99,-116.12"/>
<polygon fill="black" stroke="black" points="247.49,-112.65 237.25,-115.37 246.96,-119.63 247.49,-112.65"/>
<text xml:space="preserve" text-anchor="middle" x="278.88" y="-114.5" font-family="Arial" font-size="10.00">«only» next</text>
</g>
<!-- RoadLane&#45;&gt;RoadLane -->
<g id="edge5" class="edge">
<title>RoadLane&#45;&gt;RoadLane</title>
<path fill="none" stroke="black" d="M235.31,-124.83C273.13,-124.64 304,-122.37 304,-118 304,-114.08 279.08,-111.84 246.59,-111.29"/>
<polygon fill="black" stroke="black" points="246.86,-107.79 236.82,-111.19 246.78,-114.79 246.86,-107.79"/>
<text xml:space="preserve" text-anchor="middle" x="338.12" y="-114.5" font-family="Arial" font-size="10.00">«only» previous</text>
</g>
<!-- Invis -->
<!-- RoadLane&#45;&gt;Invis -->
<!-- RoadSegment -->
<g id="node4" class="node">
<title>RoadSegment</title>
<polygon fill="lightgray" stroke="none" points="409,-25.88 409,-42.12 492.75,-42.12 492.75,-25.88 409,-25.88"/>
<text xml:space="preserve" text-anchor="start" x="410" y="-30.73" font-family="Arial" font-weight="bold" font-size="12.00">RoadSegment</text>
<polygon fill="none" stroke="black" points="408,-24.88 408,-43.12 493.75,-43.12 493.75,-24.88 408,-24.88"/>
</g>
<!-- RoadLane&#45;&gt;RoadSegment -->
<g id="edge6" class="edge">
<title>RoadLane&#45;&gt;RoadSegment</title>
<path fill="none" stroke="black" stroke-dasharray="5,2" d="M153.31,-100.01C175.61,-89.94 205.27,-77.69 232.62,-70 287.51,-54.58 352.2,-45.27 396.82,-40.17"/>
<polygon fill="black" stroke="black" points="396.94,-43.68 406.5,-39.1 396.17,-36.72 396.94,-43.68"/>
<text xml:space="preserve" text-anchor="middle" x="340.25" y="-72.5" font-family="Arial" font-size="10.00">«min 1, only» onProperty: partwhole:properPartOf</text>
</g>
<!-- Invis&#45;&gt;RoadSegment -->
</g>
</svg>
