<?xml version="1.0" encoding="UTF-8" standalone="no"?>
<!DOCTYPE svg PUBLIC "-//W3C//DTD SVG 1.1//EN"
 "http://www.w3.org/Graphics/SVG/1.1/DTD/svg11.dtd">
<!-- Generated by graphviz version 14.0.2 (20251019.1705)
 -->
<!-- Pages: 1 -->
<svg width="201pt" height="132pt"
 viewBox="0.00 0.00 201.00 132.00" xmlns="http://www.w3.org/2000/svg" xmlns:xlink="http://www.w3.org/1999/xlink">
<g id="graph0" class="graph" transform="scale(1 1) rotate(0) translate(4 128)">
<polygon fill="white" stroke="none" points="-4,4 -4,-128 196.75,-128 196.75,4 -4,4"/>
<g id="clust2" class="cluster">
<title>cluster_associated</title>
</g>
<!-- Road -->
<g id="node1" class="node">
<title>Road</title>
<g id="a_node1"><a xlink:href="../Road.md" xlink:title="&lt;TABLE&gt;">
<polygon fill="lightgray" stroke="none" points="62.12,-25.88 62.12,-42.12 93.38,-42.12 93.38,-25.88 62.12,-25.88"/>
<text xml:space="preserve" text-anchor="start" x="63.12" y="-29.73" font-family="Arial" font-size="12.00">Road</text>
<polygon fill="none" stroke="black" points="61.12,-24.88 61.12,-43.12 94.38,-43.12 94.38,-24.88 61.12,-24.88"/>
</a>
</g>
</g>
<!-- cdm2_Road -->
<g id="node3" class="node">
<title>cdm2_Road</title>
<polygon fill="lightgray" stroke="none" points="1,-97.88 1,-114.12 64.5,-114.12 64.5,-97.88 1,-97.88"/>
<text xml:space="preserve" text-anchor="start" x="2" y="-101.72" font-family="Arial" font-size="12.00">cdm2:Road</text>
<polygon fill="none" stroke="black" points="0,-96.88 0,-115.12 65.5,-115.12 65.5,-96.88 0,-96.88"/>
</g>
<!-- Road&#45;&gt;cdm2_Road -->
<g id="edge1" class="edge">
<title>Road&#45;&gt;cdm2_Road</title>
<path fill="none" stroke="black" d="M66.96,-51.79C61.83,-59.76 55.58,-69.48 49.83,-78.43"/>
<polygon fill="none" stroke="black" points="46.93,-76.48 44.46,-86.78 52.81,-80.26 46.93,-76.48"/>
</g>
<!-- TravelledWay -->
<g id="node4" class="node">
<title>TravelledWay</title>
<g id="a_node4"><a xlink:href="../TravelledWay.md" xlink:title="&lt;TABLE&gt;">
<polygon fill="lightgray" stroke="none" points="85,-97.88 85,-114.12 160.5,-114.12 160.5,-97.88 85,-97.88"/>
<text xml:space="preserve" text-anchor="start" x="86" y="-101.72" font-family="Arial" font-size="12.00">TravelledWay</text>
<polygon fill="none" stroke="black" points="84,-96.88 84,-115.12 161.5,-115.12 161.5,-96.88 84,-96.88"/>
</a>
</g>
</g>
<!-- Road&#45;&gt;TravelledWay -->
<g id="edge2" class="edge">
<title>Road&#45;&gt;TravelledWay</title>
<path fill="none" stroke="black" d="M88.54,-51.79C93.67,-59.76 99.92,-69.48 105.67,-78.43"/>
<polygon fill="none" stroke="black" points="102.69,-80.26 111.04,-86.78 108.57,-76.48 102.69,-80.26"/>
</g>
<!-- Invis -->
</g>
</svg>
