<?xml version="1.0" encoding="UTF-8" standalone="no"?>
<!DOCTYPE svg PUBLIC "-//W3C//DTD SVG 1.1//EN"
 "http://www.w3.org/Graphics/SVG/1.1/DTD/svg11.dtd">
<!-- Generated by graphviz version 13.1.0 (20250701.0955)
 -->
<!-- Pages: 1 -->
<svg width="521pt" height="447pt"
 viewBox="0.00 0.00 521.00 447.00" xmlns="http://www.w3.org/2000/svg" xmlns:xlink="http://www.w3.org/1999/xlink">
<g id="graph0" class="graph" transform="scale(1 1) rotate(0) translate(4 443)">
<polygon fill="white" stroke="none" points="-4,4 -4,-443 516.75,-443 516.75,4 -4,4"/>
<g id="clust2" class="cluster">
<title>cluster_associated</title>
</g>
<!-- ITSThing -->
<g id="node1" class="node">
<title>ITSThing</title>
<polygon fill="lightgray" stroke="none" points="168.12,-412.88 168.12,-429.12 221.88,-429.12 221.88,-412.88 168.12,-412.88"/>
<text xml:space="preserve" text-anchor="start" x="169.12" y="-417.73" font-family="Arial" font-weight="bold" font-size="12.00">ITSThing</text>
<polygon fill="none" stroke="black" points="167.12,-411.88 167.12,-430.12 222.88,-430.12 222.88,-411.88 167.12,-411.88"/>
</g>
<!-- RoadLinkUserType -->
<g id="node2" class="node">
<title>RoadLinkUserType</title>
<polygon fill="lightgray" stroke="none" points="138.88,-339.88 138.88,-356.12 251.12,-356.12 251.12,-339.88 138.88,-339.88"/>
<text xml:space="preserve" text-anchor="start" x="139.88" y="-344.73" font-family="Arial" font-weight="bold" font-size="12.00">RoadLinkUserType</text>
<polygon fill="none" stroke="black" points="137.88,-338.88 137.88,-357.12 252.12,-357.12 252.12,-338.88 137.88,-338.88"/>
</g>
<!-- RoadLinkUserType&#45;&gt;ITSThing -->
<g id="edge1" class="edge">
<title>RoadLinkUserType&#45;&gt;ITSThing</title>
<path fill="none" stroke="black" d="M195,-365.71C195,-373.47 195,-382.92 195,-391.74"/>
<polygon fill="none" stroke="black" points="191.5,-391.66 195,-401.66 198.5,-391.66 191.5,-391.66"/>
</g>
<!-- Invis -->
<!-- RoadLinkUserType&#45;&gt;Invis -->
<!-- RoadLink -->
<g id="node4" class="node">
<title>RoadLink</title>
<polygon fill="lightgray" stroke="none" points="17.25,-255.88 17.25,-272.12 74.75,-272.12 74.75,-255.88 17.25,-255.88"/>
<text xml:space="preserve" text-anchor="start" x="18.25" y="-260.73" font-family="Arial" font-weight="bold" font-size="12.00">RoadLink</text>
<polygon fill="none" stroke="black" points="16.25,-254.88 16.25,-273.12 75.75,-273.12 75.75,-254.88 16.25,-254.88"/>
</g>
<!-- RoadLinkUserType&#45;&gt;RoadLink -->
<g id="edge10" class="edge">
<title>RoadLinkUserType&#45;&gt;RoadLink</title>
<path fill="none" stroke="black" d="M137.88,-330.96C136.58,-330.63 135.28,-330.31 134,-330 95.84,-320.72 72.76,-342.06 47.5,-312 43.06,-306.71 41.39,-299.79 41.14,-292.89"/>
<polygon fill="black" stroke="black" points="44.62,-293.3 41.74,-283.1 37.64,-292.87 44.62,-293.3"/>
<text xml:space="preserve" text-anchor="middle" x="73.75" y="-302.5" font-family="Arial" font-size="10.00">«only» uses</text>
</g>
<!-- cityunits_Duration -->
<g id="node5" class="node">
<title>cityunits_Duration</title>
<polygon fill="lightgray" stroke="none" points="17,-171.88 17,-188.12 121,-188.12 121,-171.88 17,-171.88"/>
<text xml:space="preserve" text-anchor="start" x="18" y="-176.72" font-family="Arial" font-weight="bold" font-size="12.00">cityunits:Duration</text>
<polygon fill="none" stroke="black" points="16,-170.88 16,-189.12 122,-189.12 122,-170.88 16,-170.88"/>
</g>
<!-- RoadLinkUserType&#45;&gt;cityunits_Duration -->
<g id="edge8" class="edge">
<title>RoadLinkUserType&#45;&gt;cityunits_Duration</title>
<path fill="none" stroke="black" d="M174,-330.25C159.36,-317.91 139.99,-300.17 125.75,-282 107.58,-258.81 91.63,-229.09 81.3,-207.91"/>
<polygon fill="black" stroke="black" points="84.54,-206.58 77.08,-199.06 78.22,-209.59 84.54,-206.58"/>
<text xml:space="preserve" text-anchor="middle" x="180.88" y="-260.5" font-family="Arial" font-size="10.00">«max 1, only» travelTime</text>
</g>
<!-- cityunits_Speed -->
<g id="node6" class="node">
<title>cityunits_Speed</title>
<polygon fill="lightgray" stroke="none" points="29.38,-98.88 29.38,-115.12 120.62,-115.12 120.62,-98.88 29.38,-98.88"/>
<text xml:space="preserve" text-anchor="start" x="30.38" y="-103.72" font-family="Arial" font-weight="bold" font-size="12.00">cityunits:Speed</text>
<polygon fill="none" stroke="black" points="28.38,-97.88 28.38,-116.12 121.62,-116.12 121.62,-97.88 28.38,-97.88"/>
</g>
<!-- RoadLinkUserType&#45;&gt;cityunits_Speed -->
<g id="edge7" class="edge">
<title>RoadLinkUserType&#45;&gt;cityunits_Speed</title>
<path fill="none" stroke="black" d="M210.62,-330C227.22,-309.77 249.36,-275.06 236,-246 211.82,-193.43 156.64,-153.39 117.64,-130.31"/>
<polygon fill="black" stroke="black" points="119.83,-127.53 109.41,-125.57 116.33,-133.6 119.83,-127.53"/>
<text xml:space="preserve" text-anchor="middle" x="281.42" y="-218.5" font-family="Arial" font-size="10.00">«max 1, only» speedLimit</text>
</g>
<!-- code_Code -->
<g id="node7" class="node">
<title>code_Code</title>
<polygon fill="lightgray" stroke="none" points="52.5,-25.88 52.5,-42.12 117.5,-42.12 117.5,-25.88 52.5,-25.88"/>
<text xml:space="preserve" text-anchor="start" x="53.5" y="-30.73" font-family="Arial" font-weight="bold" font-size="12.00">code:Code</text>
<polygon fill="none" stroke="black" points="51.5,-24.88 51.5,-43.12 118.5,-43.12 118.5,-24.88 51.5,-24.88"/>
</g>
<!-- RoadLinkUserType&#45;&gt;code_Code -->
<g id="edge9" class="edge">
<title>RoadLinkUserType&#45;&gt;code_Code</title>
<path fill="none" stroke="black" d="M252.09,-344.5C305.46,-338.73 377,-320.62 377,-265 377,-265 377,-265 377,-106 377,-55.78 211.84,-40.94 129.95,-36.67"/>
<polygon fill="black" stroke="black" points="130.17,-33.17 120.01,-36.18 129.83,-40.17 130.17,-33.17"/>
<text xml:space="preserve" text-anchor="middle" x="444.88" y="-176.5" font-family="Arial" font-size="10.00">«exactly 1, only» userCategory</text>
</g>
<!-- Invis&#45;&gt;RoadLink -->
<!-- RoadLink&#45;&gt;cityunits_Duration -->
<!-- cityunits_Duration&#45;&gt;cityunits_Speed -->
<!-- cityunits_Speed&#45;&gt;code_Code -->
</g>
</svg>
