<?xml version="1.0" encoding="UTF-8" standalone="no"?>
<!DOCTYPE svg PUBLIC "-//W3C//DTD SVG 1.1//EN"
 "http://www.w3.org/Graphics/SVG/1.1/DTD/svg11.dtd">
<!-- Generated by graphviz version 13.1.0 (20250701.0955)
 -->
<!-- Pages: 1 -->
<svg width="475pt" height="471pt"
 viewBox="0.00 0.00 475.00 471.00" xmlns="http://www.w3.org/2000/svg" xmlns:xlink="http://www.w3.org/1999/xlink">
<g id="graph0" class="graph" transform="scale(1 1) rotate(0) translate(4 467)">
<polygon fill="white" stroke="none" points="-4,4 -4,-467 470.75,-467 470.75,4 -4,4"/>
<g id="clust2" class="cluster">
<title>cluster_associated</title>
</g>
<!-- ITSThing -->
<g id="node1" class="node">
<title>ITSThing</title>
<polygon fill="lightgray" stroke="none" points="168.12,-436.88 168.12,-453.12 221.88,-453.12 221.88,-436.88 168.12,-436.88"/>
<text xml:space="preserve" text-anchor="start" x="169.12" y="-441.73" font-family="Arial" font-weight="bold" font-size="12.00">ITSThing</text>
<polygon fill="none" stroke="black" points="167.12,-435.88 167.12,-454.12 222.88,-454.12 222.88,-435.88 167.12,-435.88"/>
</g>
<!-- RoadLinkUserType -->
<g id="node2" class="node">
<title>RoadLinkUserType</title>
<polygon fill="lightgray" stroke="none" points="138.88,-363.88 138.88,-380.12 251.12,-380.12 251.12,-363.88 138.88,-363.88"/>
<text xml:space="preserve" text-anchor="start" x="139.88" y="-368.73" font-family="Arial" font-weight="bold" font-size="12.00">RoadLinkUserType</text>
<polygon fill="none" stroke="black" points="137.88,-362.88 137.88,-381.12 252.12,-381.12 252.12,-362.88 137.88,-362.88"/>
</g>
<!-- RoadLinkUserType&#45;&gt;ITSThing -->
<g id="edge1" class="edge">
<title>RoadLinkUserType&#45;&gt;ITSThing</title>
<path fill="none" stroke="black" d="M195,-389.71C195,-397.47 195,-406.92 195,-415.74"/>
<polygon fill="none" stroke="black" points="191.5,-415.66 195,-425.66 198.5,-415.66 191.5,-415.66"/>
</g>
<!-- Invis -->
<!-- RoadLinkUserType&#45;&gt;Invis -->
<!-- RoadLink -->
<g id="node4" class="node">
<title>RoadLink</title>
<polygon fill="lightgray" stroke="none" points="17.25,-267.88 17.25,-284.12 74.75,-284.12 74.75,-267.88 17.25,-267.88"/>
<text xml:space="preserve" text-anchor="start" x="18.25" y="-272.73" font-family="Arial" font-weight="bold" font-size="12.00">RoadLink</text>
<polygon fill="none" stroke="black" points="16.25,-266.88 16.25,-285.12 75.75,-285.12 75.75,-266.88 16.25,-266.88"/>
</g>
<!-- RoadLinkUserType&#45;&gt;RoadLink -->
<g id="edge10" class="edge">
<title>RoadLinkUserType&#45;&gt;RoadLink</title>
<path fill="none" stroke="black" d="M137.88,-354.95C136.58,-354.63 135.28,-354.31 134,-354 95.52,-344.68 71.95,-366.54 46.75,-336 39.76,-327.53 38.49,-315.8 39.38,-305.04"/>
<polygon fill="black" stroke="black" points="42.8,-305.83 40.8,-295.43 35.88,-304.81 42.8,-305.83"/>
<text xml:space="preserve" text-anchor="middle" x="83.88" y="-326.5" font-family="Arial" font-size="10.00">«only»</text>
<text xml:space="preserve" text-anchor="middle" x="83.88" y="-314.5" font-family="Arial" font-size="10.00">onProperty: uses</text>
</g>
<!-- cityunits_Duration -->
<g id="node5" class="node">
<title>cityunits_Duration</title>
<polygon fill="lightgray" stroke="none" points="17,-171.88 17,-188.12 121,-188.12 121,-171.88 17,-171.88"/>
<text xml:space="preserve" text-anchor="start" x="18" y="-176.72" font-family="Arial" font-weight="bold" font-size="12.00">cityunits:Duration</text>
<polygon fill="none" stroke="black" points="16,-170.88 16,-189.12 122,-189.12 122,-170.88 16,-170.88"/>
</g>
<!-- RoadLinkUserType&#45;&gt;cityunits_Duration -->
<g id="edge8" class="edge">
<title>RoadLinkUserType&#45;&gt;cityunits_Duration</title>
<path fill="none" stroke="black" d="M177.41,-354.06C162.54,-339.15 141.28,-316.39 126,-294 107.18,-266.43 90.62,-231.78 80.27,-208.17"/>
<polygon fill="black" stroke="black" points="83.6,-207.05 76.43,-199.24 77.17,-209.81 83.6,-207.05"/>
<text xml:space="preserve" text-anchor="middle" x="175.5" y="-278.5" font-family="Arial" font-size="10.00">«max 1, only»</text>
<text xml:space="preserve" text-anchor="middle" x="175.5" y="-266.5" font-family="Arial" font-size="10.00">onProperty: travelTime</text>
</g>
<!-- cityunits_Speed -->
<g id="node6" class="node">
<title>cityunits_Speed</title>
<polygon fill="lightgray" stroke="none" points="29.38,-98.88 29.38,-115.12 120.62,-115.12 120.62,-98.88 29.38,-98.88"/>
<text xml:space="preserve" text-anchor="start" x="30.38" y="-103.72" font-family="Arial" font-weight="bold" font-size="12.00">cityunits:Speed</text>
<polygon fill="none" stroke="black" points="28.38,-97.88 28.38,-116.12 121.62,-116.12 121.62,-97.88 28.38,-97.88"/>
</g>
<!-- RoadLinkUserType&#45;&gt;cityunits_Speed -->
<g id="edge7" class="edge">
<title>RoadLinkUserType&#45;&gt;cityunits_Speed</title>
<path fill="none" stroke="black" d="M206.14,-354.1C219.47,-331.62 238.42,-290.89 225,-258 202.39,-202.6 148.06,-157.1 111.38,-131.25"/>
<polygon fill="black" stroke="black" points="113.47,-128.44 103.25,-125.65 109.5,-134.21 113.47,-128.44"/>
<text xml:space="preserve" text-anchor="middle" x="265.72" y="-230.5" font-family="Arial" font-size="10.00">«max 1, only»</text>
<text xml:space="preserve" text-anchor="middle" x="265.72" y="-218.5" font-family="Arial" font-size="10.00">onProperty: speedLimit</text>
</g>
<!-- code_Code -->
<g id="node7" class="node">
<title>code_Code</title>
<polygon fill="lightgray" stroke="none" points="52.5,-25.88 52.5,-42.12 117.5,-42.12 117.5,-25.88 52.5,-25.88"/>
<text xml:space="preserve" text-anchor="start" x="53.5" y="-30.73" font-family="Arial" font-weight="bold" font-size="12.00">code:Code</text>
<polygon fill="none" stroke="black" points="51.5,-24.88 51.5,-43.12 118.5,-43.12 118.5,-24.88 51.5,-24.88"/>
</g>
<!-- RoadLinkUserType&#45;&gt;code_Code -->
<g id="edge9" class="edge">
<title>RoadLinkUserType&#45;&gt;code_Code</title>
<path fill="none" stroke="black" d="M251.86,-361.53C297.85,-350.24 355,-326.29 355,-277 355,-277 355,-277 355,-106 355,-59.96 206.28,-43.15 129.59,-37.54"/>
<polygon fill="black" stroke="black" points="130.11,-34.07 119.89,-36.87 129.62,-41.05 130.11,-34.07"/>
<text xml:space="preserve" text-anchor="middle" x="410.88" y="-182.5" font-family="Arial" font-size="10.00">«exactly 1, only»</text>
<text xml:space="preserve" text-anchor="middle" x="410.88" y="-170.5" font-family="Arial" font-size="10.00">onProperty: userCategory</text>
</g>
<!-- Invis&#45;&gt;RoadLink -->
<!-- RoadLink&#45;&gt;cityunits_Duration -->
<!-- cityunits_Duration&#45;&gt;cityunits_Speed -->
<!-- cityunits_Speed&#45;&gt;code_Code -->
</g>
</svg>
