<?xml version="1.0" encoding="UTF-8" standalone="no"?>
<!DOCTYPE svg PUBLIC "-//W3C//DTD SVG 1.1//EN"
 "http://www.w3.org/Graphics/SVG/1.1/DTD/svg11.dtd">
<!-- Generated by graphviz version 13.1.0 (20250701.0955)
 -->
<!-- Pages: 1 -->
<svg width="353pt" height="290pt"
 viewBox="0.00 0.00 353.00 290.00" xmlns="http://www.w3.org/2000/svg" xmlns:xlink="http://www.w3.org/1999/xlink">
<g id="graph0" class="graph" transform="scale(1 1) rotate(0) translate(4 286)">
<polygon fill="white" stroke="none" points="-4,4 -4,-286 349.25,-286 349.25,4 -4,4"/>
<g id="clust2" class="cluster">
<title>cluster_associated</title>
</g>
<!-- TravelledWay -->
<g id="node1" class="node">
<title>TravelledWay</title>
<polygon fill="lightgray" stroke="none" points="1,-255.88 1,-272.12 79.5,-272.12 79.5,-255.88 1,-255.88"/>
<text xml:space="preserve" text-anchor="start" x="2" y="-260.73" font-family="Arial" font-weight="bold" font-size="12.00">TravelledWay</text>
<polygon fill="none" stroke="black" points="0,-254.88 0,-273.12 80.5,-273.12 80.5,-254.88 0,-254.88"/>
</g>
<!-- transinfras_Road -->
<g id="node2" class="node">
<title>transinfras_Road</title>
<polygon fill="lightgray" stroke="none" points="99.25,-255.88 99.25,-272.12 197.25,-272.12 197.25,-255.88 99.25,-255.88"/>
<text xml:space="preserve" text-anchor="start" x="100.25" y="-260.73" font-family="Arial" font-weight="bold" font-size="12.00">transinfras:Road</text>
<polygon fill="none" stroke="black" points="98.25,-254.88 98.25,-273.12 198.25,-273.12 198.25,-254.88 98.25,-254.88"/>
</g>
<!-- Road -->
<g id="node3" class="node">
<title>Road</title>
<polygon fill="lightgray" stroke="none" points="77.88,-182.88 77.88,-199.12 110.62,-199.12 110.62,-182.88 77.88,-182.88"/>
<text xml:space="preserve" text-anchor="start" x="78.88" y="-187.72" font-family="Arial" font-weight="bold" font-size="12.00">Road</text>
<polygon fill="none" stroke="black" points="76.88,-181.88 76.88,-200.12 111.62,-200.12 111.62,-181.88 76.88,-181.88"/>
</g>
<!-- Road&#45;&gt;TravelledWay -->
<g id="edge1" class="edge">
<title>Road&#45;&gt;TravelledWay</title>
<path fill="none" stroke="black" d="M81.54,-208.71C75.1,-217.17 67.14,-227.65 59.92,-237.13"/>
<polygon fill="none" stroke="black" points="57.23,-234.89 53.96,-244.97 62.8,-239.13 57.23,-234.89"/>
</g>
<!-- Road&#45;&gt;transinfras_Road -->
<g id="edge2" class="edge">
<title>Road&#45;&gt;transinfras_Road</title>
<path fill="none" stroke="black" d="M106.96,-208.71C113.4,-217.17 121.36,-227.65 128.58,-237.13"/>
<polygon fill="none" stroke="black" points="125.7,-239.13 134.54,-244.97 131.27,-234.89 125.7,-239.13"/>
</g>
<!-- Invis -->
<!-- Road&#45;&gt;Invis -->
<!-- RoadLink -->
<g id="node5" class="node">
<title>RoadLink</title>
<polygon fill="lightgray" stroke="none" points="265.5,-98.88 265.5,-115.12 323,-115.12 323,-98.88 265.5,-98.88"/>
<text xml:space="preserve" text-anchor="start" x="266.5" y="-103.72" font-family="Arial" font-weight="bold" font-size="12.00">RoadLink</text>
<polygon fill="none" stroke="black" points="264.5,-97.88 264.5,-116.12 324,-116.12 324,-97.88 264.5,-97.88"/>
</g>
<!-- Road&#45;&gt;RoadLink -->
<g id="edge6" class="edge">
<title>Road&#45;&gt;RoadLink</title>
<path fill="none" stroke="black" stroke-dasharray="5,2" d="M87.76,-173.27C85.08,-163.29 84.06,-151.05 91.25,-143 114.94,-116.48 215.72,-133.48 250.25,-125 251.44,-124.71 252.65,-124.39 253.86,-124.05"/>
<polygon fill="black" stroke="black" points="254.85,-127.41 263.32,-121.04 252.73,-120.74 254.85,-127.41"/>
<text xml:space="preserve" text-anchor="middle" x="202.25" y="-145.5" font-family="Arial" font-size="10.00">«min 1, only» onProperty: partwhole:hasProperPart</text>
</g>
<!-- RoadNetwork -->
<g id="node6" class="node">
<title>RoadNetwork</title>
<polygon fill="lightgray" stroke="none" points="248.25,-25.88 248.25,-42.12 328.25,-42.12 328.25,-25.88 248.25,-25.88"/>
<text xml:space="preserve" text-anchor="start" x="249.25" y="-30.73" font-family="Arial" font-weight="bold" font-size="12.00">RoadNetwork</text>
<polygon fill="none" stroke="black" points="247.25,-24.88 247.25,-43.12 329.25,-43.12 329.25,-24.88 247.25,-24.88"/>
</g>
<!-- Road&#45;&gt;RoadNetwork -->
<g id="edge7" class="edge">
<title>Road&#45;&gt;RoadNetwork</title>
<path fill="none" stroke="black" stroke-dasharray="5,2" d="M82.43,-173.16C68.81,-151.49 50.66,-113.71 70,-89 90.3,-63.07 178.67,-47.86 236.55,-40.5"/>
<polygon fill="black" stroke="black" points="236.69,-44.01 246.19,-39.32 235.84,-37.07 236.69,-44.01"/>
<text xml:space="preserve" text-anchor="middle" x="162.62" y="-103.5" font-family="Arial" font-size="10.00">«only» onProperty: partwhole:properPartOf</text>
</g>
<!-- Invis&#45;&gt;RoadLink -->
<!-- RoadLink&#45;&gt;RoadNetwork -->
</g>
</svg>
