<?xml version="1.0" encoding="UTF-8" standalone="no"?>
<!DOCTYPE svg PUBLIC "-//W3C//DTD SVG 1.1//EN"
 "http://www.w3.org/Graphics/SVG/1.1/DTD/svg11.dtd">
<!-- Generated by graphviz version 13.1.0 (20250701.0955)
 -->
<!-- Pages: 1 -->
<svg width="220pt" height="132pt"
 viewBox="0.00 0.00 220.00 132.00" xmlns="http://www.w3.org/2000/svg" xmlns:xlink="http://www.w3.org/1999/xlink">
<g id="graph0" class="graph" transform="scale(1 1) rotate(0) translate(4 128)">
<polygon fill="white" stroke="none" points="-4,4 -4,-128 215.62,-128 215.62,4 -4,4"/>
<g id="clust2" class="cluster">
<title>cluster_associated</title>
</g>
<!-- ITSPattern -->
<g id="node1" class="node">
<title>ITSPattern</title>
<polygon fill="lightgray" stroke="none" points="30.62,-97.88 30.62,-114.12 92.62,-114.12 92.62,-97.88 30.62,-97.88"/>
<text xml:space="preserve" text-anchor="start" x="31.62" y="-102.72" font-family="Arial" font-weight="bold" font-size="12.00">ITSPattern</text>
<polygon fill="none" stroke="black" points="29.62,-96.88 29.62,-115.12 93.62,-115.12 93.62,-96.88 29.62,-96.88"/>
</g>
<!-- RoadNetworkPattern -->
<g id="node2" class="node">
<title>RoadNetworkPattern</title>
<polygon fill="lightgray" stroke="none" points="1,-25.88 1,-42.12 122.25,-42.12 122.25,-25.88 1,-25.88"/>
<text xml:space="preserve" text-anchor="start" x="2" y="-30.73" font-family="Arial" font-weight="bold" font-size="12.00">RoadNetworkPattern</text>
<polygon fill="none" stroke="black" points="0,-24.88 0,-43.12 123.25,-43.12 123.25,-24.88 0,-24.88"/>
</g>
<!-- RoadNetworkPattern&#45;&gt;ITSPattern -->
<g id="edge1" class="edge">
<title>RoadNetworkPattern&#45;&gt;ITSPattern</title>
<path fill="none" stroke="black" d="M61.62,-51.79C61.62,-59.25 61.62,-68.24 61.62,-76.69"/>
<polygon fill="none" stroke="black" points="58.13,-76.54 61.63,-86.54 65.13,-76.54 58.13,-76.54"/>
</g>
<!-- Invis -->
<!-- RoadNetworkPattern&#45;&gt;Invis -->
</g>
</svg>
