<?xml version="1.0" encoding="UTF-8" standalone="no"?>
<!DOCTYPE svg PUBLIC "-//W3C//DTD SVG 1.1//EN"
 "http://www.w3.org/Graphics/SVG/1.1/DTD/svg11.dtd">
<!-- Generated by graphviz version 13.1.0 (20250701.0955)
 -->
<!-- Pages: 1 -->
<svg width="665pt" height="486pt"
 viewBox="0.00 0.00 665.00 486.00" xmlns="http://www.w3.org/2000/svg" xmlns:xlink="http://www.w3.org/1999/xlink">
<g id="graph0" class="graph" transform="scale(1 1) rotate(0) translate(4 481.75)">
<polygon fill="white" stroke="none" points="-4,4 -4,-481.75 661,-481.75 661,4 -4,4"/>
<g id="clust2" class="cluster">
<title>cluster_associated</title>
</g>
<!-- TravelledWaySegment -->
<g id="node1" class="node">
<title>TravelledWaySegment</title>
<polygon fill="lightgray" stroke="none" points="1,-451.62 1,-467.88 130.5,-467.88 130.5,-451.62 1,-451.62"/>
<text xml:space="preserve" text-anchor="start" x="2" y="-456.48" font-family="Arial" font-weight="bold" font-size="12.00">TravelledWaySegment</text>
<polygon fill="none" stroke="black" points="0,-450.62 0,-468.88 131.5,-468.88 131.5,-450.62 0,-450.62"/>
</g>
<!-- transinfras_RoadSegment -->
<g id="node2" class="node">
<title>transinfras_RoadSegment</title>
<polygon fill="lightgray" stroke="none" points="150.25,-451.62 150.25,-467.88 299.25,-467.88 299.25,-451.62 150.25,-451.62"/>
<text xml:space="preserve" text-anchor="start" x="151.25" y="-456.48" font-family="Arial" font-weight="bold" font-size="12.00">transinfras:RoadSegment</text>
<polygon fill="none" stroke="black" points="149.25,-450.62 149.25,-468.88 300.25,-468.88 300.25,-450.62 149.25,-450.62"/>
</g>
<!-- RoadSegment -->
<g id="node3" class="node">
<title>RoadSegment</title>
<polygon fill="lightgray" stroke="none" points="125,-364.5 125,-380.75 386.5,-380.75 386.5,-364.5 125,-364.5"/>
<text xml:space="preserve" text-anchor="start" x="214.88" y="-369.35" font-family="Arial" font-weight="bold" font-size="12.00">RoadSegment</text>
<text xml:space="preserve" text-anchor="start" x="126" y="-352.1" font-family="Arial" font-size="12.00">numLanes: nonNegativeInteger «exactly 1, only»</text>
<text xml:space="preserve" text-anchor="start" x="126" y="-335.85" font-family="Arial" font-size="12.00">width: nonNegativeInteger «exactly 1, only»</text>
<polygon fill="none" stroke="black" points="124,-331 124,-381.75 387.5,-381.75 387.5,-331 124,-331"/>
</g>
<!-- RoadSegment&#45;&gt;TravelledWaySegment -->
<g id="edge1" class="edge">
<title>RoadSegment&#45;&gt;TravelledWaySegment</title>
<path fill="none" stroke="black" d="M210.31,-381.62C179.05,-398.3 137.84,-420.28 107.42,-436.51"/>
<polygon fill="none" stroke="black" points="106.06,-433.27 98.89,-441.07 109.36,-439.45 106.06,-433.27"/>
</g>
<!-- RoadSegment&#45;&gt;transinfras_RoadSegment -->
<g id="edge2" class="edge">
<title>RoadSegment&#45;&gt;transinfras_RoadSegment</title>
<path fill="none" stroke="black" d="M245.41,-381.35C243.05,-387.3 240.67,-393.71 238.75,-399.75 235.6,-409.67 232.8,-420.72 230.54,-430.55"/>
<polygon fill="none" stroke="black" points="227.13,-429.79 228.4,-440.31 233.97,-431.29 227.13,-429.79"/>
</g>
<!-- Invis -->
<!-- RoadSegment&#45;&gt;Invis -->
<!-- RoadLane -->
<g id="node5" class="node">
<title>RoadLane</title>
<polygon fill="lightgray" stroke="none" points="41.12,-244.88 41.12,-261.12 102.38,-261.12 102.38,-244.88 41.12,-244.88"/>
<text xml:space="preserve" text-anchor="start" x="42.12" y="-249.72" font-family="Arial" font-weight="bold" font-size="12.00">RoadLane</text>
<polygon fill="none" stroke="black" points="40.12,-243.88 40.12,-262.12 103.38,-262.12 103.38,-243.88 40.12,-243.88"/>
</g>
<!-- RoadSegment&#45;&gt;RoadLane -->
<g id="edge9" class="edge">
<title>RoadSegment&#45;&gt;RoadLane</title>
<path fill="none" stroke="black" stroke-dasharray="5,2" d="M126.09,-331.08C99.2,-324.83 77.62,-318.36 73.25,-313 66.31,-304.49 64.92,-292.75 65.65,-281.99"/>
<polygon fill="black" stroke="black" points="69.07,-282.77 66.91,-272.4 62.13,-281.85 69.07,-282.77"/>
<text xml:space="preserve" text-anchor="middle" x="153.5" y="-303.5" font-family="Arial" font-size="10.00">«min 1, only»</text>
<text xml:space="preserve" text-anchor="middle" x="153.5" y="-291.5" font-family="Arial" font-size="10.00">onProperty: partwhole:hasProperPart</text>
</g>
<!-- RoadLink -->
<g id="node6" class="node">
<title>RoadLink</title>
<polygon fill="lightgray" stroke="none" points="47,-171.88 47,-188.12 104.5,-188.12 104.5,-171.88 47,-171.88"/>
<text xml:space="preserve" text-anchor="start" x="48" y="-176.72" font-family="Arial" font-weight="bold" font-size="12.00">RoadLink</text>
<polygon fill="none" stroke="black" points="46,-170.88 46,-189.12 105.5,-189.12 105.5,-170.88 46,-170.88"/>
</g>
<!-- RoadSegment&#45;&gt;RoadLink -->
<g id="edge13" class="edge">
<title>RoadSegment&#45;&gt;RoadLink</title>
<path fill="none" stroke="black" stroke-dasharray="5,2" d="M251.69,-331.18C248.51,-317.75 243.03,-301.31 233.75,-289 202.73,-247.82 151.26,-216.88 115.53,-198.9"/>
<polygon fill="black" stroke="black" points="117.32,-195.88 106.8,-194.62 114.24,-202.16 117.32,-195.88"/>
<text xml:space="preserve" text-anchor="middle" x="293.76" y="-255.5" font-family="Arial" font-size="10.00">«exactly 1»</text>
<text xml:space="preserve" text-anchor="middle" x="293.76" y="-243.5" font-family="Arial" font-size="10.00">onProperty: partwhole:properPartOf</text>
</g>
<!-- code_Code -->
<g id="node8" class="node">
<title>code_Code</title>
<polygon fill="lightgray" stroke="none" points="39.25,-25.88 39.25,-42.12 104.25,-42.12 104.25,-25.88 39.25,-25.88"/>
<text xml:space="preserve" text-anchor="start" x="40.25" y="-30.73" font-family="Arial" font-weight="bold" font-size="12.00">code:Code</text>
<polygon fill="none" stroke="black" points="38.25,-24.88 38.25,-43.12 105.25,-43.12 105.25,-24.88 38.25,-24.88"/>
</g>
<!-- RoadSegment&#45;&gt;code_Code -->
<g id="edge8" class="edge">
<title>RoadSegment&#45;&gt;code_Code</title>
<path fill="none" stroke="black" d="M387.45,-337.87C418.06,-331.54 445.11,-323.33 456.75,-313 477.46,-294.62 476.75,-281.69 476.75,-254 476.75,-254 476.75,-254 476.75,-106 476.75,-69.75 221.75,-46.32 116.43,-38.19"/>
<polygon fill="black" stroke="black" points="116.98,-34.73 106.75,-37.46 116.45,-41.71 116.98,-34.73"/>
<text xml:space="preserve" text-anchor="middle" x="535.25" y="-182.5" font-family="Arial" font-size="10.00">«max 1, only»</text>
<text xml:space="preserve" text-anchor="middle" x="535.25" y="-170.5" font-family="Arial" font-size="10.00">onProperty: pavementType</text>
</g>
<!-- Union_partwhole_properPartOf -->
<g id="node9" class="node">
<title>Union_partwhole_properPartOf</title>
<polygon fill="lightyellow" stroke="none" points="352.75,-443.5 352.75,-476 500.75,-476 500.75,-443.5 352.75,-443.5"/>
<text xml:space="preserve" text-anchor="start" x="399" y="-462.6" font-family="Arial" font-size="12.00">«unionOf»</text>
<text xml:space="preserve" text-anchor="start" x="354.75" y="-448.35" font-family="Arial" font-size="12.00">[RoadLink or RoadSection]</text>
<polygon fill="none" stroke="black" points="352.75,-443.5 352.75,-476 500.75,-476 500.75,-443.5 352.75,-443.5"/>
</g>
<!-- RoadSegment&#45;&gt;Union_partwhole_properPartOf -->
<g id="edge12" class="edge">
<title>RoadSegment&#45;&gt;Union_partwhole_properPartOf</title>
<path fill="none" stroke="black" stroke-dasharray="5,2" d="M250.26,-381.5C248.57,-395.41 249.26,-412.35 259,-423.75 264.92,-430.68 303.57,-438.99 342.29,-445.77"/>
<polygon fill="black" stroke="black" points="341.24,-449.14 351.69,-447.39 342.42,-442.24 341.24,-449.14"/>
<text xml:space="preserve" text-anchor="middle" x="335.88" y="-414.25" font-family="Arial" font-size="10.00">«only»</text>
<text xml:space="preserve" text-anchor="middle" x="335.88" y="-402.25" font-family="Arial" font-size="10.00">onProperty: partwhole:properPartOf</text>
</g>
<!-- Invis&#45;&gt;RoadLane -->
<!-- RoadLane&#45;&gt;RoadLink -->
<!-- RoadSection -->
<g id="node7" class="node">
<title>RoadSection</title>
<polygon fill="lightgray" stroke="none" points="30.62,-98.88 30.62,-115.12 106.88,-115.12 106.88,-98.88 30.62,-98.88"/>
<text xml:space="preserve" text-anchor="start" x="31.62" y="-103.72" font-family="Arial" font-weight="bold" font-size="12.00">RoadSection</text>
<polygon fill="none" stroke="black" points="29.62,-97.88 29.62,-116.12 107.88,-116.12 107.88,-97.88 29.62,-97.88"/>
</g>
<!-- RoadLink&#45;&gt;RoadSection -->
<!-- RoadSection&#45;&gt;code_Code -->
<!-- Union_partwhole_properPartOf&#45;&gt;RoadLink -->
<g id="edge10" class="edge">
<title>Union_partwhole_properPartOf&#45;&gt;RoadLink</title>
<path fill="none" stroke="black" stroke-dasharray="1,5" d="M428.46,-442.05C431.7,-400.4 433.83,-291.22 374.75,-235 338.28,-200.3 189.97,-187.32 116.88,-182.97"/>
<polygon fill="black" stroke="black" points="117.09,-179.48 106.91,-182.4 116.7,-186.46 117.09,-179.48"/>
<text xml:space="preserve" text-anchor="middle" x="435.59" y="-297.5" font-family="Arial" font-size="10.00">member</text>
</g>
<!-- Union_partwhole_properPartOf&#45;&gt;RoadSection -->
<g id="edge11" class="edge">
<title>Union_partwhole_properPartOf&#45;&gt;RoadSection</title>
<path fill="none" stroke="black" stroke-dasharray="1,5" d="M500.75,-450.16C555.91,-439.16 621.75,-414.13 621.75,-357.38 621.75,-357.38 621.75,-357.38 621.75,-179 621.75,-128.56 255.19,-113.19 118.95,-109.22"/>
<polygon fill="black" stroke="black" points="119.24,-105.73 109.15,-108.94 119.05,-112.72 119.24,-105.73"/>
<text xml:space="preserve" text-anchor="middle" x="639.38" y="-249.5" font-family="Arial" font-size="10.00">member</text>
</g>
</g>
</svg>
