<?xml version="1.0" encoding="UTF-8" standalone="no"?>
<!DOCTYPE svg PUBLIC "-//W3C//DTD SVG 1.1//EN"
 "http://www.w3.org/Graphics/SVG/1.1/DTD/svg11.dtd">
<!-- Generated by graphviz version 13.1.0 (20250701.0955)
 -->
<!-- Pages: 1 -->
<svg width="606pt" height="619pt"
 viewBox="0.00 0.00 606.00 619.00" xmlns="http://www.w3.org/2000/svg" xmlns:xlink="http://www.w3.org/1999/xlink">
<g id="graph0" class="graph" transform="scale(1 1) rotate(0) translate(4 614.75)">
<polygon fill="white" stroke="none" points="-4,4 -4,-614.75 601.88,-614.75 601.88,4 -4,4"/>
<g id="clust2" class="cluster">
<title>cluster_associated</title>
</g>
<!-- TravelledWayLink -->
<g id="node1" class="node">
<title>TravelledWayLink</title>
<polygon fill="lightgray" stroke="none" points="1,-584.62 1,-600.88 104.25,-600.88 104.25,-584.62 1,-584.62"/>
<text xml:space="preserve" text-anchor="start" x="2" y="-589.48" font-family="Arial" font-weight="bold" font-size="12.00">TravelledWayLink</text>
<polygon fill="none" stroke="black" points="0,-583.62 0,-601.88 105.25,-601.88 105.25,-583.62 0,-583.62"/>
</g>
<!-- transinfras_RoadLink -->
<g id="node2" class="node">
<title>transinfras_RoadLink</title>
<polygon fill="lightgray" stroke="none" points="124.25,-584.62 124.25,-600.88 247,-600.88 247,-584.62 124.25,-584.62"/>
<text xml:space="preserve" text-anchor="start" x="125.25" y="-589.48" font-family="Arial" font-weight="bold" font-size="12.00">transinfras:RoadLink</text>
<polygon fill="none" stroke="black" points="123.25,-583.62 123.25,-601.88 248,-601.88 248,-583.62 123.25,-583.62"/>
</g>
<!-- RoadLink -->
<g id="node3" class="node">
<title>RoadLink</title>
<polygon fill="lightgray" stroke="none" points="49.25,-509.5 49.25,-525.75 310,-525.75 310,-509.5 49.25,-509.5"/>
<text xml:space="preserve" text-anchor="start" x="151.88" y="-514.35" font-family="Arial" font-weight="bold" font-size="12.00">RoadLink</text>
<text xml:space="preserve" text-anchor="start" x="50.25" y="-497.1" font-family="Arial" font-size="12.00">capacity: nonNegativeInteger «exactly 1, only»</text>
<text xml:space="preserve" text-anchor="start" x="50.25" y="-480.85" font-family="Arial" font-size="12.00">maxLanes: nonNegativeInteger «exactly 1, only»</text>
<polygon fill="none" stroke="black" points="48.25,-476 48.25,-526.75 311,-526.75 311,-476 48.25,-476"/>
</g>
<!-- RoadLink&#45;&gt;TravelledWayLink -->
<g id="edge1" class="edge">
<title>RoadLink&#45;&gt;TravelledWayLink</title>
<path fill="none" stroke="black" d="M145.3,-526.53C126.84,-539.52 104.19,-555.46 85.9,-568.33"/>
<polygon fill="none" stroke="black" points="83.91,-565.45 77.75,-574.07 87.94,-571.18 83.91,-565.45"/>
</g>
<!-- RoadLink&#45;&gt;transinfras_RoadLink -->
<g id="edge2" class="edge">
<title>RoadLink&#45;&gt;transinfras_RoadLink</title>
<path fill="none" stroke="black" d="M181.25,-526.53C182.02,-538.02 182.94,-551.83 183.75,-563.77"/>
<polygon fill="none" stroke="black" points="180.23,-563.69 184.4,-573.43 187.22,-563.22 180.23,-563.69"/>
</g>
<!-- Invis -->
<!-- RoadLink&#45;&gt;Invis -->
<!-- RoadLinkUserType -->
<g id="node6" class="node">
<title>RoadLinkUserType</title>
<polygon fill="lightgray" stroke="none" points="347.5,-328.88 347.5,-345.12 459.75,-345.12 459.75,-328.88 347.5,-328.88"/>
<text xml:space="preserve" text-anchor="start" x="348.5" y="-333.73" font-family="Arial" font-weight="bold" font-size="12.00">RoadLinkUserType</text>
<polygon fill="none" stroke="black" points="346.5,-327.88 346.5,-346.12 460.75,-346.12 460.75,-327.88 346.5,-327.88"/>
</g>
<!-- RoadLink&#45;&gt;RoadLinkUserType -->
<g id="edge10" class="edge">
<title>RoadLink&#45;&gt;RoadLinkUserType</title>
<path fill="none" stroke="black" d="M182.96,-476.41C187.21,-454.52 196.61,-422.66 216.88,-403 248.9,-371.93 296.55,-355.66 335.7,-347.16"/>
<polygon fill="black" stroke="black" points="336.17,-350.64 345.27,-345.22 334.78,-343.78 336.17,-350.64"/>
<text xml:space="preserve" text-anchor="middle" x="259.25" y="-417.5" font-family="Arial" font-size="10.00">«only» primaryUser</text>
</g>
<!-- RoadLink&#45;&gt;RoadLinkUserType -->
<g id="edge12" class="edge">
<title>RoadLink&#45;&gt;RoadLinkUserType</title>
<path fill="none" stroke="black" d="M239.13,-476.1C259.94,-466.19 282.79,-453.59 301.62,-439 318.43,-425.98 318.29,-418.23 333.12,-403 346.75,-389.01 362.69,-374.2 375.97,-362.25"/>
<polygon fill="black" stroke="black" points="378,-365.13 383.12,-355.85 373.34,-359.91 378,-365.13"/>
<text xml:space="preserve" text-anchor="middle" x="365.38" y="-417.5" font-family="Arial" font-size="10.00">«only» usedBy</text>
</g>
<!-- RoadSegment -->
<g id="node9" class="node">
<title>RoadSegment</title>
<polygon fill="lightgray" stroke="none" points="357.75,-98.88 357.75,-115.12 441.5,-115.12 441.5,-98.88 357.75,-98.88"/>
<text xml:space="preserve" text-anchor="start" x="358.75" y="-103.72" font-family="Arial" font-weight="bold" font-size="12.00">RoadSegment</text>
<polygon fill="none" stroke="black" points="356.75,-97.88 356.75,-116.12 442.5,-116.12 442.5,-97.88 356.75,-97.88"/>
</g>
<!-- RoadLink&#45;&gt;RoadSegment -->
<g id="edge13" class="edge">
<title>RoadLink&#45;&gt;RoadSegment</title>
<path fill="none" stroke="black" stroke-dasharray="5,2" d="M168.66,-476.2C162.74,-460.97 156.62,-440.72 156.62,-422 156.62,-422 156.62,-422 156.62,-179 156.62,-139.84 274.39,-120.79 345.96,-112.83"/>
<polygon fill="black" stroke="black" points="345.94,-116.36 355.51,-111.81 345.2,-109.4 345.94,-116.36"/>
<text xml:space="preserve" text-anchor="middle" x="252.62" y="-291.5" font-family="Arial" font-size="10.00">«only» onProperty: partwhole:hasProperPart</text>
</g>
<!-- cityunits_Duration -->
<g id="node10" class="node">
<title>cityunits_Duration</title>
<polygon fill="lightgray" stroke="none" points="347.62,-25.88 347.62,-42.12 451.62,-42.12 451.62,-25.88 347.62,-25.88"/>
<text xml:space="preserve" text-anchor="start" x="348.62" y="-30.73" font-family="Arial" font-weight="bold" font-size="12.00">cityunits:Duration</text>
<polygon fill="none" stroke="black" points="346.62,-24.88 346.62,-43.12 452.62,-43.12 452.62,-24.88 346.62,-24.88"/>
</g>
<!-- RoadLink&#45;&gt;cityunits_Duration -->
<g id="edge11" class="edge">
<title>RoadLink&#45;&gt;cityunits_Duration</title>
<path fill="none" stroke="black" d="M57.19,-476.09C34.94,-464.48 18.62,-447.34 18.62,-422 18.62,-422 18.62,-422 18.62,-106 18.62,-74.16 226.95,-50.58 335.51,-40.46"/>
<polygon fill="black" stroke="black" points="335.5,-43.98 345.14,-39.58 334.86,-37.01 335.5,-43.98"/>
<text xml:space="preserve" text-anchor="middle" x="73.75" y="-249.5" font-family="Arial" font-size="10.00">«max 1, only» travelTime</text>
</g>
<!-- Union_partwhole_properPartOf -->
<g id="node11" class="node">
<title>Union_partwhole_properPartOf</title>
<polygon fill="lightyellow" stroke="none" points="360.88,-576.5 360.88,-609 576.38,-609 576.38,-576.5 360.88,-576.5"/>
<text xml:space="preserve" text-anchor="start" x="440.88" y="-595.6" font-family="Arial" font-size="12.00">«unionOf»</text>
<text xml:space="preserve" text-anchor="start" x="362.88" y="-581.35" font-family="Arial" font-size="12.00">[Road or RoadNetwork or RoadSection]</text>
<polygon fill="none" stroke="black" points="360.88,-576.5 360.88,-609 576.38,-609 576.38,-576.5 360.88,-576.5"/>
</g>
<!-- RoadLink&#45;&gt;Union_partwhole_properPartOf -->
<g id="edge17" class="edge">
<title>RoadLink&#45;&gt;Union_partwhole_properPartOf</title>
<path fill="none" stroke="black" stroke-dasharray="5,2" d="M199.14,-526.55C209.35,-537.53 222.76,-549.64 237.38,-556.75 257.66,-566.62 303.88,-574.51 349.72,-580.29"/>
<polygon fill="black" stroke="black" points="349.18,-583.75 359.53,-581.49 350.03,-576.8 349.18,-583.75"/>
<text xml:space="preserve" text-anchor="middle" x="330" y="-547.25" font-family="Arial" font-size="10.00">«only» onProperty: partwhole:properPartOf</text>
</g>
<!-- Road -->
<g id="node5" class="node">
<title>Road</title>
<polygon fill="lightgray" stroke="none" points="417.25,-412.88 417.25,-429.12 450,-429.12 450,-412.88 417.25,-412.88"/>
<text xml:space="preserve" text-anchor="start" x="418.25" y="-417.73" font-family="Arial" font-weight="bold" font-size="12.00">Road</text>
<polygon fill="none" stroke="black" points="416.25,-411.88 416.25,-430.12 451,-430.12 451,-411.88 416.25,-411.88"/>
</g>
<!-- Invis&#45;&gt;Road -->
<!-- Road&#45;&gt;RoadLinkUserType -->
<!-- RoadNetwork -->
<g id="node7" class="node">
<title>RoadNetwork</title>
<polygon fill="lightgray" stroke="none" points="371.62,-244.88 371.62,-261.12 451.62,-261.12 451.62,-244.88 371.62,-244.88"/>
<text xml:space="preserve" text-anchor="start" x="372.62" y="-249.72" font-family="Arial" font-weight="bold" font-size="12.00">RoadNetwork</text>
<polygon fill="none" stroke="black" points="370.62,-243.88 370.62,-262.12 452.62,-262.12 452.62,-243.88 370.62,-243.88"/>
</g>
<!-- RoadLinkUserType&#45;&gt;RoadNetwork -->
<!-- RoadSection -->
<g id="node8" class="node">
<title>RoadSection</title>
<polygon fill="lightgray" stroke="none" points="373.5,-171.88 373.5,-188.12 449.75,-188.12 449.75,-171.88 373.5,-171.88"/>
<text xml:space="preserve" text-anchor="start" x="374.5" y="-176.72" font-family="Arial" font-weight="bold" font-size="12.00">RoadSection</text>
<polygon fill="none" stroke="black" points="372.5,-170.88 372.5,-189.12 450.75,-189.12 450.75,-170.88 372.5,-170.88"/>
</g>
<!-- RoadNetwork&#45;&gt;RoadSection -->
<!-- RoadSection&#45;&gt;RoadSegment -->
<!-- RoadSegment&#45;&gt;cityunits_Duration -->
<!-- Union_partwhole_properPartOf&#45;&gt;Road -->
<g id="edge14" class="edge">
<title>Union_partwhole_properPartOf&#45;&gt;Road</title>
<path fill="none" stroke="black" stroke-dasharray="1,5" d="M463.27,-574.95C459.3,-562.04 453.98,-543.71 450.38,-527.38 444.65,-501.4 440.08,-471.4 437.16,-450.07"/>
<polygon fill="black" stroke="black" points="440.67,-449.86 435.88,-440.41 433.73,-450.78 440.67,-449.86"/>
<text xml:space="preserve" text-anchor="middle" x="468" y="-497.88" font-family="Arial" font-size="10.00">member</text>
</g>
<!-- Union_partwhole_properPartOf&#45;&gt;RoadNetwork -->
<g id="edge15" class="edge">
<title>Union_partwhole_properPartOf&#45;&gt;RoadNetwork</title>
<path fill="none" stroke="black" stroke-dasharray="1,5" d="M478.26,-574.88C487.36,-557.35 499.62,-528.82 499.62,-502.38 499.62,-502.38 499.62,-502.38 499.62,-336 499.62,-310.47 479.55,-290.62 458.58,-276.85"/>
<polygon fill="black" stroke="black" points="460.59,-273.98 450.24,-271.74 456.94,-279.95 460.59,-273.98"/>
<text xml:space="preserve" text-anchor="middle" x="517.25" y="-417.5" font-family="Arial" font-size="10.00">member</text>
</g>
<!-- Union_partwhole_properPartOf&#45;&gt;RoadSection -->
<g id="edge16" class="edge">
<title>Union_partwhole_properPartOf&#45;&gt;RoadSection</title>
<path fill="none" stroke="black" stroke-dasharray="1,5" d="M505.51,-574.79C531.84,-559.87 562.62,-535.36 562.62,-502.38 562.62,-502.38 562.62,-502.38 562.62,-252 562.62,-206.53 505.85,-190.13 461.93,-184.24"/>
<polygon fill="black" stroke="black" points="462.35,-180.77 452.01,-183.08 461.54,-187.72 462.35,-180.77"/>
<text xml:space="preserve" text-anchor="middle" x="580.25" y="-375.5" font-family="Arial" font-size="10.00">member</text>
</g>
</g>
</svg>
