<?xml version="1.0" encoding="UTF-8" standalone="no"?>
<!DOCTYPE svg PUBLIC "-//W3C//DTD SVG 1.1//EN"
 "http://www.w3.org/Graphics/SVG/1.1/DTD/svg11.dtd">
<!-- Generated by graphviz version 13.1.0 (20250701.0955)
 -->
<!-- Pages: 1 -->
<svg width="320pt" height="302pt"
 viewBox="0.00 0.00 320.00 302.00" xmlns="http://www.w3.org/2000/svg" xmlns:xlink="http://www.w3.org/1999/xlink">
<g id="graph0" class="graph" transform="scale(1 1) rotate(0) translate(4 298)">
<polygon fill="white" stroke="none" points="-4,4 -4,-298 316.25,-298 316.25,4 -4,4"/>
<g id="clust2" class="cluster">
<title>cluster_associated</title>
</g>
<!-- TravelledWay -->
<g id="node1" class="node">
<title>TravelledWay</title>
<polygon fill="lightgray" stroke="none" points="1,-267.88 1,-284.12 79.5,-284.12 79.5,-267.88 1,-267.88"/>
<text xml:space="preserve" text-anchor="start" x="2" y="-272.73" font-family="Arial" font-weight="bold" font-size="12.00">TravelledWay</text>
<polygon fill="none" stroke="black" points="0,-266.88 0,-285.12 80.5,-285.12 80.5,-266.88 0,-266.88"/>
</g>
<!-- transinfras_Road -->
<g id="node2" class="node">
<title>transinfras_Road</title>
<polygon fill="lightgray" stroke="none" points="99.25,-267.88 99.25,-284.12 197.25,-284.12 197.25,-267.88 99.25,-267.88"/>
<text xml:space="preserve" text-anchor="start" x="100.25" y="-272.73" font-family="Arial" font-weight="bold" font-size="12.00">transinfras:Road</text>
<polygon fill="none" stroke="black" points="98.25,-266.88 98.25,-285.12 198.25,-285.12 198.25,-266.88 98.25,-266.88"/>
</g>
<!-- Road -->
<g id="node3" class="node">
<title>Road</title>
<polygon fill="lightgray" stroke="none" points="77.88,-194.88 77.88,-211.12 110.62,-211.12 110.62,-194.88 77.88,-194.88"/>
<text xml:space="preserve" text-anchor="start" x="78.88" y="-199.72" font-family="Arial" font-weight="bold" font-size="12.00">Road</text>
<polygon fill="none" stroke="black" points="76.88,-193.88 76.88,-212.12 111.62,-212.12 111.62,-193.88 76.88,-193.88"/>
</g>
<!-- Road&#45;&gt;TravelledWay -->
<g id="edge1" class="edge">
<title>Road&#45;&gt;TravelledWay</title>
<path fill="none" stroke="black" d="M81.54,-220.71C75.1,-229.17 67.14,-239.65 59.92,-249.13"/>
<polygon fill="none" stroke="black" points="57.23,-246.89 53.96,-256.97 62.8,-251.13 57.23,-246.89"/>
</g>
<!-- Road&#45;&gt;transinfras_Road -->
<g id="edge2" class="edge">
<title>Road&#45;&gt;transinfras_Road</title>
<path fill="none" stroke="black" d="M106.96,-220.71C113.4,-229.17 121.36,-239.65 128.58,-249.13"/>
<polygon fill="none" stroke="black" points="125.7,-251.13 134.54,-256.97 131.27,-246.89 125.7,-251.13"/>
</g>
<!-- Invis -->
<!-- Road&#45;&gt;Invis -->
<!-- RoadLink -->
<g id="node5" class="node">
<title>RoadLink</title>
<polygon fill="lightgray" stroke="none" points="232.5,-98.88 232.5,-115.12 290,-115.12 290,-98.88 232.5,-98.88"/>
<text xml:space="preserve" text-anchor="start" x="233.5" y="-103.72" font-family="Arial" font-weight="bold" font-size="12.00">RoadLink</text>
<polygon fill="none" stroke="black" points="231.5,-97.88 231.5,-116.12 291,-116.12 291,-97.88 231.5,-97.88"/>
</g>
<!-- Road&#45;&gt;RoadLink -->
<g id="edge6" class="edge">
<title>Road&#45;&gt;RoadLink</title>
<path fill="none" stroke="black" stroke-dasharray="5,2" d="M87.91,-185.21C84.17,-172.15 81.88,-154.39 91.75,-143 110.2,-121.71 189.99,-132.12 217.25,-125 218.44,-124.69 219.64,-124.36 220.85,-124.01"/>
<polygon fill="black" stroke="black" points="221.87,-127.35 230.29,-120.92 219.7,-120.7 221.87,-127.35"/>
<text xml:space="preserve" text-anchor="middle" x="172" y="-157.5" font-family="Arial" font-size="10.00">«min 1, only»</text>
<text xml:space="preserve" text-anchor="middle" x="172" y="-145.5" font-family="Arial" font-size="10.00">onProperty: partwhole:hasProperPart</text>
</g>
<!-- RoadNetwork -->
<g id="node6" class="node">
<title>RoadNetwork</title>
<polygon fill="lightgray" stroke="none" points="215.25,-25.88 215.25,-42.12 295.25,-42.12 295.25,-25.88 215.25,-25.88"/>
<text xml:space="preserve" text-anchor="start" x="216.25" y="-30.73" font-family="Arial" font-weight="bold" font-size="12.00">RoadNetwork</text>
<polygon fill="none" stroke="black" points="214.25,-24.88 214.25,-43.12 296.25,-43.12 296.25,-24.88 214.25,-24.88"/>
</g>
<!-- Road&#45;&gt;RoadNetwork -->
<g id="edge7" class="edge">
<title>Road&#45;&gt;RoadNetwork</title>
<path fill="none" stroke="black" stroke-dasharray="5,2" d="M82.79,-185.29C68.07,-161.56 46.86,-117.79 68.5,-89 84.78,-67.35 154.05,-51.62 203.47,-42.9"/>
<polygon fill="black" stroke="black" points="203.86,-46.38 213.13,-41.25 202.68,-39.48 203.86,-46.38"/>
<text xml:space="preserve" text-anchor="middle" x="145.38" y="-109.5" font-family="Arial" font-size="10.00">«only»</text>
<text xml:space="preserve" text-anchor="middle" x="145.38" y="-97.5" font-family="Arial" font-size="10.00">onProperty: partwhole:properPartOf</text>
</g>
<!-- Invis&#45;&gt;RoadLink -->
<!-- RoadLink&#45;&gt;RoadNetwork -->
</g>
</svg>
