<?xml version="1.0" encoding="UTF-8" standalone="no"?>
<!DOCTYPE svg PUBLIC "-//W3C//DTD SVG 1.1//EN"
 "http://www.w3.org/Graphics/SVG/1.1/DTD/svg11.dtd">
<!-- Generated by graphviz version 14.0.2 (20251019.1705)
 -->
<!-- Pages: 1 -->
<svg width="319pt" height="232pt"
 viewBox="0.00 0.00 319.00 232.00" xmlns="http://www.w3.org/2000/svg" xmlns:xlink="http://www.w3.org/1999/xlink">
<g id="graph0" class="graph" transform="scale(1 1) rotate(0) translate(4 228)">
<polygon fill="white" stroke="none" points="-4,4 -4,-228 315.38,-228 315.38,4 -4,4"/>
<g id="clust2" class="cluster">
<title>cluster_associated</title>
</g>
<!-- RoadLane -->
<g id="node1" class="node">
<title>RoadLane</title>
<g id="a_node1"><a xlink:href="../RoadLane.md" xlink:title="&lt;TABLE&gt;">
<polygon fill="lightgray" stroke="none" points="111.88,-124.88 111.88,-141.12 170.12,-141.12 170.12,-124.88 111.88,-124.88"/>
<text xml:space="preserve" text-anchor="start" x="112.88" y="-128.72" font-family="Arial" font-size="12.00">RoadLane</text>
<polygon fill="none" stroke="black" points="110.88,-123.88 110.88,-142.12 171.12,-142.12 171.12,-123.88 110.88,-123.88"/>
</a>
</g>
</g>
<!-- RoadLane&#45;&gt;RoadLane -->
<g id="edge4" class="edge">
<title>RoadLane&#45;&gt;RoadLane</title>
<path fill="none" stroke="black" d="M171.08,-136.42C181.1,-136.42 189.12,-135.28 189.12,-133 189.12,-131.68 186.44,-130.74 182.25,-130.19"/>
<polygon fill="black" stroke="black" points="182.77,-126.71 172.59,-129.66 182.38,-133.7 182.77,-126.71"/>
<text xml:space="preserve" text-anchor="middle" x="209.38" y="-136.05" font-family="Arial" font-size="11.00"> next </text>
<text xml:space="preserve" text-anchor="middle" x="209.38" y="-122.55" font-family="Arial" font-size="11.00"> «only» &#160;</text>
</g>
<!-- RoadLane&#45;&gt;RoadLane -->
<g id="edge5" class="edge">
<title>RoadLane&#45;&gt;RoadLane</title>
<path fill="none" stroke="black" d="M170.87,-138.84C197.8,-141.26 229.62,-139.31 229.62,-133 229.62,-127.48 205.26,-125.3 181.12,-126.46"/>
<polygon fill="black" stroke="black" points="171.13,-123.63 181.34,-126.44 171.6,-130.62 171.13,-123.63"/>
<text xml:space="preserve" text-anchor="middle" x="261.5" y="-136.05" font-family="Arial" font-size="11.00"> inverse next </text>
<text xml:space="preserve" text-anchor="middle" x="261.5" y="-122.55" font-family="Arial" font-size="11.00"> «only» &#160;</text>
</g>
<!-- Invis -->
<!-- RoadLane&#45;&gt;Invis -->
<!-- cdm1_Length -->
<g id="node3" class="node">
<title>cdm1_Length</title>
<polygon fill="lightgray" stroke="none" points="17.5,-25.88 17.5,-42.12 88.5,-42.12 88.5,-25.88 17.5,-25.88"/>
<text xml:space="preserve" text-anchor="start" x="18.5" y="-29.73" font-family="Arial" font-size="12.00">cdm1:Length</text>
<polygon fill="none" stroke="black" points="16.5,-24.88 16.5,-43.12 89.5,-43.12 89.5,-24.88 16.5,-24.88"/>
</g>
<!-- RoadLane&#45;&gt;cdm1_Length -->
<g id="edge6" class="edge">
<title>RoadLane&#45;&gt;cdm1_Length</title>
<path fill="none" stroke="black" d="M125.67,-115.1C111.92,-99.94 91.54,-77.48 75.86,-60.2"/>
<polygon fill="black" stroke="black" points="78.48,-57.88 69.17,-52.82 73.3,-62.58 78.48,-57.88"/>
<text xml:space="preserve" text-anchor="middle" x="138.97" y="-86.55" font-family="Arial" font-size="11.00"> width </text>
<text xml:space="preserve" text-anchor="middle" x="138.97" y="-73.05" font-family="Arial" font-size="11.00"> «exactly 1» &#160;</text>
</g>
<!-- TravelledWayLane -->
<g id="node4" class="node">
<title>TravelledWayLane</title>
<g id="a_node4"><a xlink:href="../TravelledWayLane.md" xlink:title="&lt;TABLE&gt;">
<polygon fill="lightgray" stroke="none" points="89.75,-197.88 89.75,-214.12 192.25,-214.12 192.25,-197.88 89.75,-197.88"/>
<text xml:space="preserve" text-anchor="start" x="90.75" y="-201.72" font-family="Arial" font-size="12.00">TravelledWayLane</text>
<polygon fill="none" stroke="black" points="88.75,-196.88 88.75,-215.12 193.25,-215.12 193.25,-196.88 88.75,-196.88"/>
</a>
</g>
</g>
<!-- RoadLane&#45;&gt;TravelledWayLane -->
<g id="edge1" class="edge">
<title>RoadLane&#45;&gt;TravelledWayLane</title>
<path fill="none" stroke="black" d="M141,-150.71C141,-158.47 141,-167.92 141,-176.74"/>
<polygon fill="none" stroke="black" points="137.5,-176.66 141,-186.66 144.5,-176.66 137.5,-176.66"/>
</g>
<!-- Invis&#45;&gt;cdm1_Length -->
</g>
</svg>
