<?xml version="1.0" encoding="UTF-8" standalone="no"?>
<!DOCTYPE svg PUBLIC "-//W3C//DTD SVG 1.1//EN"
 "http://www.w3.org/Graphics/SVG/1.1/DTD/svg11.dtd">
<!-- Generated by graphviz version 13.1.0 (20250701.0955)
 -->
<!-- Pages: 1 -->
<svg width="377pt" height="375pt"
 viewBox="0.00 0.00 377.00 375.00" xmlns="http://www.w3.org/2000/svg" xmlns:xlink="http://www.w3.org/1999/xlink">
<g id="graph0" class="graph" transform="scale(1 1) rotate(0) translate(4 371)">
<polygon fill="white" stroke="none" points="-4,4 -4,-371 373.25,-371 373.25,4 -4,4"/>
<g id="clust2" class="cluster">
<title>cluster_associated</title>
</g>
<!-- TravelledWaySection -->
<g id="node1" class="node">
<title>TravelledWaySection</title>
<polygon fill="lightgray" stroke="none" points="1,-340.88 1,-357.12 123,-357.12 123,-340.88 1,-340.88"/>
<text xml:space="preserve" text-anchor="start" x="2" y="-345.73" font-family="Arial" font-weight="bold" font-size="12.00">TravelledWaySection</text>
<polygon fill="none" stroke="black" points="0,-339.88 0,-358.12 124,-358.12 124,-339.88 0,-339.88"/>
</g>
<!-- RoadSection -->
<g id="node2" class="node">
<title>RoadSection</title>
<polygon fill="lightgray" stroke="none" points="39.88,-244.88 39.88,-261.12 116.12,-261.12 116.12,-244.88 39.88,-244.88"/>
<text xml:space="preserve" text-anchor="start" x="40.88" y="-249.72" font-family="Arial" font-weight="bold" font-size="12.00">RoadSection</text>
<polygon fill="none" stroke="black" points="38.88,-243.88 38.88,-262.12 117.12,-262.12 117.12,-243.88 38.88,-243.88"/>
</g>
<!-- RoadSection&#45;&gt;TravelledWaySection -->
<g id="edge1" class="edge">
<title>RoadSection&#45;&gt;TravelledWaySection</title>
<path fill="none" stroke="black" d="M75.11,-270.98C72.8,-284.58 69.5,-303.94 66.79,-319.85"/>
<polygon fill="none" stroke="black" points="63.34,-319.26 65.11,-329.7 70.24,-320.43 63.34,-319.26"/>
</g>
<!-- Invis -->
<!-- RoadSection&#45;&gt;Invis -->
<!-- RoadNetwork -->
<g id="node5" class="node">
<title>RoadNetwork</title>
<polygon fill="lightgray" stroke="none" points="184,-98.88 184,-115.12 264,-115.12 264,-98.88 184,-98.88"/>
<text xml:space="preserve" text-anchor="start" x="185" y="-103.72" font-family="Arial" font-weight="bold" font-size="12.00">RoadNetwork</text>
<polygon fill="none" stroke="black" points="183,-97.88 183,-116.12 265,-116.12 265,-97.88 183,-97.88"/>
</g>
<!-- RoadSection&#45;&gt;RoadNetwork -->
<g id="edge9" class="edge">
<title>RoadSection&#45;&gt;RoadNetwork</title>
<path fill="none" stroke="black" stroke-dasharray="5,2" d="M62.57,-235.04C47.05,-215.85 27.62,-184.36 44.25,-162 59.64,-141.3 124.74,-125.55 172.17,-116.55"/>
<polygon fill="black" stroke="black" points="172.52,-120.04 181.72,-114.79 171.25,-113.16 172.52,-120.04"/>
<text xml:space="preserve" text-anchor="middle" x="121.12" y="-182.5" font-family="Arial" font-size="10.00">«only»</text>
<text xml:space="preserve" text-anchor="middle" x="121.12" y="-170.5" font-family="Arial" font-size="10.00">onProperty: partwhole:properPartOf</text>
</g>
<!-- Union_partwhole_hasProperPart -->
<g id="node7" class="node">
<title>Union_partwhole_hasProperPart</title>
<polygon fill="lightyellow" stroke="none" points="193.25,-332.75 193.25,-365.25 348.75,-365.25 348.75,-332.75 193.25,-332.75"/>
<text xml:space="preserve" text-anchor="start" x="243.25" y="-351.85" font-family="Arial" font-size="12.00">«unionOf»</text>
<text xml:space="preserve" text-anchor="start" x="195.25" y="-337.6" font-family="Arial" font-size="12.00">[RoadLink or RoadSegment]</text>
<polygon fill="none" stroke="black" points="193.25,-332.75 193.25,-365.25 348.75,-365.25 348.75,-332.75 193.25,-332.75"/>
</g>
<!-- RoadSection&#45;&gt;Union_partwhole_hasProperPart -->
<g id="edge8" class="edge">
<title>RoadSection&#45;&gt;Union_partwhole_hasProperPart</title>
<path fill="none" stroke="black" stroke-dasharray="5,2" d="M78.79,-270.97C80.35,-284.32 84.69,-302.38 96.5,-313 109.67,-324.84 146.04,-333.1 182.19,-338.6"/>
<polygon fill="black" stroke="black" points="181.48,-342.04 191.87,-340.01 182.48,-335.11 181.48,-342.04"/>
<text xml:space="preserve" text-anchor="middle" x="176.75" y="-303.5" font-family="Arial" font-size="10.00">«only»</text>
<text xml:space="preserve" text-anchor="middle" x="176.75" y="-291.5" font-family="Arial" font-size="10.00">onProperty: partwhole:hasProperPart</text>
</g>
<!-- RoadLink -->
<g id="node4" class="node">
<title>RoadLink</title>
<polygon fill="lightgray" stroke="none" points="208.25,-171.88 208.25,-188.12 265.75,-188.12 265.75,-171.88 208.25,-171.88"/>
<text xml:space="preserve" text-anchor="start" x="209.25" y="-176.72" font-family="Arial" font-weight="bold" font-size="12.00">RoadLink</text>
<polygon fill="none" stroke="black" points="207.25,-170.88 207.25,-189.12 266.75,-189.12 266.75,-170.88 207.25,-170.88"/>
</g>
<!-- Invis&#45;&gt;RoadLink -->
<!-- RoadLink&#45;&gt;RoadNetwork -->
<!-- RoadSegment -->
<g id="node6" class="node">
<title>RoadSegment</title>
<polygon fill="lightgray" stroke="none" points="182.12,-25.88 182.12,-42.12 265.88,-42.12 265.88,-25.88 182.12,-25.88"/>
<text xml:space="preserve" text-anchor="start" x="183.12" y="-30.73" font-family="Arial" font-weight="bold" font-size="12.00">RoadSegment</text>
<polygon fill="none" stroke="black" points="181.12,-24.88 181.12,-43.12 266.88,-43.12 266.88,-24.88 181.12,-24.88"/>
</g>
<!-- RoadNetwork&#45;&gt;RoadSegment -->
<!-- Union_partwhole_hasProperPart&#45;&gt;RoadLink -->
<g id="edge6" class="edge">
<title>Union_partwhole_hasProperPart&#45;&gt;RoadLink</title>
<path fill="none" stroke="black" stroke-dasharray="1,5" d="M267.55,-331.07C261.7,-302.31 249.76,-243.66 242.66,-208.81"/>
<polygon fill="black" stroke="black" points="246.18,-208.56 240.76,-199.46 239.32,-209.96 246.18,-208.56"/>
<text xml:space="preserve" text-anchor="middle" x="274.45" y="-249.5" font-family="Arial" font-size="10.00">member</text>
</g>
<!-- Union_partwhole_hasProperPart&#45;&gt;RoadSegment -->
<g id="edge7" class="edge">
<title>Union_partwhole_hasProperPart&#45;&gt;RoadSegment</title>
<path fill="none" stroke="black" stroke-dasharray="1,5" d="M291.28,-331.19C309.7,-313.93 334,-285.24 334,-254 334,-254 334,-254 334,-106 334,-76.37 305.48,-58.51 277.49,-48.11"/>
<polygon fill="black" stroke="black" points="278.87,-44.88 268.28,-44.97 276.61,-51.51 278.87,-44.88"/>
<text xml:space="preserve" text-anchor="middle" x="351.62" y="-176.5" font-family="Arial" font-size="10.00">member</text>
</g>
</g>
</svg>
