<?xml version="1.0" encoding="UTF-8" standalone="no"?>
<!DOCTYPE svg PUBLIC "-//W3C//DTD SVG 1.1//EN"
 "http://www.w3.org/Graphics/SVG/1.1/DTD/svg11.dtd">
<!-- Generated by graphviz version 13.1.0 (20250701.0955)
 -->
<!-- Pages: 1 -->
<svg width="707pt" height="462pt"
 viewBox="0.00 0.00 707.00 462.00" xmlns="http://www.w3.org/2000/svg" xmlns:xlink="http://www.w3.org/1999/xlink">
<g id="graph0" class="graph" transform="scale(1 1) rotate(0) translate(4 457.75)">
<polygon fill="white" stroke="none" points="-4,4 -4,-457.75 703.25,-457.75 703.25,4 -4,4"/>
<g id="clust2" class="cluster">
<title>cluster_associated</title>
</g>
<!-- TravelledWaySegment -->
<g id="node1" class="node">
<title>TravelledWaySegment</title>
<polygon fill="lightgray" stroke="none" points="1.25,-427.62 1.25,-443.88 130.75,-443.88 130.75,-427.62 1.25,-427.62"/>
<text xml:space="preserve" text-anchor="start" x="2.25" y="-432.48" font-family="Arial" font-weight="bold" font-size="12.00">TravelledWaySegment</text>
<polygon fill="none" stroke="black" points="0.25,-426.62 0.25,-444.88 131.75,-444.88 131.75,-426.62 0.25,-426.62"/>
</g>
<!-- transinfras_RoadSegment -->
<g id="node2" class="node">
<title>transinfras_RoadSegment</title>
<polygon fill="lightgray" stroke="none" points="150.5,-427.62 150.5,-443.88 299.5,-443.88 299.5,-427.62 150.5,-427.62"/>
<text xml:space="preserve" text-anchor="start" x="151.5" y="-432.48" font-family="Arial" font-weight="bold" font-size="12.00">transinfras:RoadSegment</text>
<polygon fill="none" stroke="black" points="149.5,-426.62 149.5,-444.88 300.5,-444.88 300.5,-426.62 149.5,-426.62"/>
</g>
<!-- RoadSegment -->
<g id="node3" class="node">
<title>RoadSegment</title>
<polygon fill="lightgray" stroke="none" points="111.25,-352.5 111.25,-368.75 372.75,-368.75 372.75,-352.5 111.25,-352.5"/>
<text xml:space="preserve" text-anchor="start" x="201.12" y="-357.35" font-family="Arial" font-weight="bold" font-size="12.00">RoadSegment</text>
<text xml:space="preserve" text-anchor="start" x="112.25" y="-340.1" font-family="Arial" font-size="12.00">numLanes: nonNegativeInteger «exactly 1, only»</text>
<text xml:space="preserve" text-anchor="start" x="112.25" y="-323.85" font-family="Arial" font-size="12.00">width: nonNegativeInteger «exactly 1, only»</text>
<polygon fill="none" stroke="black" points="110.25,-319 110.25,-369.75 373.75,-369.75 373.75,-319 110.25,-319"/>
</g>
<!-- RoadSegment&#45;&gt;TravelledWaySegment -->
<g id="edge1" class="edge">
<title>RoadSegment&#45;&gt;TravelledWaySegment</title>
<path fill="none" stroke="black" d="M194.09,-369.7C167.62,-383.15 135,-399.71 109.3,-412.76"/>
<polygon fill="none" stroke="black" points="107.79,-409.61 100.45,-417.25 110.95,-415.85 107.79,-409.61"/>
</g>
<!-- RoadSegment&#45;&gt;transinfras_RoadSegment -->
<g id="edge2" class="edge">
<title>RoadSegment&#45;&gt;transinfras_RoadSegment</title>
<path fill="none" stroke="black" d="M237.4,-369.53C235.22,-381.02 232.59,-394.83 230.32,-406.77"/>
<polygon fill="none" stroke="black" points="226.91,-405.97 228.48,-416.45 233.79,-407.28 226.91,-405.97"/>
</g>
<!-- Invis -->
<!-- RoadSegment&#45;&gt;Invis -->
<!-- RoadLane -->
<g id="node5" class="node">
<title>RoadLane</title>
<polygon fill="lightgray" stroke="none" points="17.38,-244.88 17.38,-261.12 78.62,-261.12 78.62,-244.88 17.38,-244.88"/>
<text xml:space="preserve" text-anchor="start" x="18.38" y="-249.72" font-family="Arial" font-weight="bold" font-size="12.00">RoadLane</text>
<polygon fill="none" stroke="black" points="16.38,-243.88 16.38,-262.12 79.62,-262.12 79.62,-243.88 16.38,-243.88"/>
</g>
<!-- RoadSegment&#45;&gt;RoadLane -->
<g id="edge9" class="edge">
<title>RoadSegment&#45;&gt;RoadLane</title>
<path fill="none" stroke="black" stroke-dasharray="5,2" d="M111.99,-319.02C75.46,-311.56 44.77,-304.42 42,-301 37.69,-295.68 36.82,-288.84 37.6,-282.05"/>
<polygon fill="black" stroke="black" points="40.99,-282.92 39.84,-272.39 34.17,-281.34 40.99,-282.92"/>
<text xml:space="preserve" text-anchor="middle" x="153" y="-291.5" font-family="Arial" font-size="10.00">«min 1, only» onProperty: partwhole:hasProperPart</text>
</g>
<!-- RoadLink -->
<g id="node6" class="node">
<title>RoadLink</title>
<polygon fill="lightgray" stroke="none" points="33.25,-171.88 33.25,-188.12 90.75,-188.12 90.75,-171.88 33.25,-171.88"/>
<text xml:space="preserve" text-anchor="start" x="34.25" y="-176.72" font-family="Arial" font-weight="bold" font-size="12.00">RoadLink</text>
<polygon fill="none" stroke="black" points="32.25,-170.88 32.25,-189.12 91.75,-189.12 91.75,-170.88 32.25,-170.88"/>
</g>
<!-- RoadSegment&#45;&gt;RoadLink -->
<g id="edge13" class="edge">
<title>RoadSegment&#45;&gt;RoadLink</title>
<path fill="none" stroke="black" stroke-dasharray="5,2" d="M261.38,-319.06C266.68,-309.38 269.6,-298.35 264,-289 259.35,-281.23 159.04,-229.84 101.56,-200.83"/>
<polygon fill="black" stroke="black" points="103.21,-197.75 92.71,-196.37 100.06,-204 103.21,-197.75"/>
<text xml:space="preserve" text-anchor="middle" x="339.37" y="-249.5" font-family="Arial" font-size="10.00">«exactly 1» onProperty: partwhole:properPartOf</text>
</g>
<!-- code_Code -->
<g id="node8" class="node">
<title>code_Code</title>
<polygon fill="lightgray" stroke="none" points="25.5,-25.88 25.5,-42.12 90.5,-42.12 90.5,-25.88 25.5,-25.88"/>
<text xml:space="preserve" text-anchor="start" x="26.5" y="-30.73" font-family="Arial" font-weight="bold" font-size="12.00">code:Code</text>
<polygon fill="none" stroke="black" points="24.5,-24.88 24.5,-43.12 91.5,-43.12 91.5,-24.88 24.5,-24.88"/>
</g>
<!-- RoadSegment&#45;&gt;code_Code -->
<g id="edge8" class="edge">
<title>RoadSegment&#45;&gt;code_Code</title>
<path fill="none" stroke="black" d="M373.49,-333.9C424.6,-327.67 475.35,-317.49 494,-301 510.33,-286.56 508,-275.8 508,-254 508,-254 508,-254 508,-106 508,-65.28 216.72,-44.12 102.86,-37.41"/>
<polygon fill="black" stroke="black" points="103.15,-33.92 92.97,-36.84 102.75,-40.91 103.15,-33.92"/>
<text xml:space="preserve" text-anchor="middle" x="572.12" y="-176.5" font-family="Arial" font-size="10.00">«max 1, only» pavementType</text>
</g>
<!-- Union_partwhole_properPartOf -->
<g id="node9" class="node">
<title>Union_partwhole_properPartOf</title>
<polygon fill="lightyellow" stroke="none" points="384,-419.5 384,-452 532,-452 532,-419.5 384,-419.5"/>
<text xml:space="preserve" text-anchor="start" x="430.25" y="-438.6" font-family="Arial" font-size="12.00">«unionOf»</text>
<text xml:space="preserve" text-anchor="start" x="386" y="-424.35" font-family="Arial" font-size="12.00">[RoadLink or RoadSection]</text>
<polygon fill="none" stroke="black" points="384,-419.5 384,-452 532,-452 532,-419.5 384,-419.5"/>
</g>
<!-- RoadSegment&#45;&gt;Union_partwhole_properPartOf -->
<g id="edge12" class="edge">
<title>RoadSegment&#45;&gt;Union_partwhole_properPartOf</title>
<path fill="none" stroke="black" stroke-dasharray="5,2" d="M243.84,-369.57C245.91,-380.29 250.16,-392.17 258.75,-399.75 267.66,-407.61 322.78,-416.93 372.8,-423.98"/>
<polygon fill="black" stroke="black" points="372.15,-427.43 382.53,-425.33 373.11,-420.49 372.15,-427.43"/>
<text xml:space="preserve" text-anchor="middle" x="351.38" y="-390.25" font-family="Arial" font-size="10.00">«only» onProperty: partwhole:properPartOf</text>
</g>
<!-- Invis&#45;&gt;RoadLane -->
<!-- RoadLane&#45;&gt;RoadLink -->
<!-- RoadSection -->
<g id="node7" class="node">
<title>RoadSection</title>
<polygon fill="lightgray" stroke="none" points="16.88,-98.88 16.88,-115.12 93.12,-115.12 93.12,-98.88 16.88,-98.88"/>
<text xml:space="preserve" text-anchor="start" x="17.88" y="-103.72" font-family="Arial" font-weight="bold" font-size="12.00">RoadSection</text>
<polygon fill="none" stroke="black" points="15.88,-97.88 15.88,-116.12 94.12,-116.12 94.12,-97.88 15.88,-97.88"/>
</g>
<!-- RoadLink&#45;&gt;RoadSection -->
<!-- RoadSection&#45;&gt;code_Code -->
<!-- Union_partwhole_properPartOf&#45;&gt;RoadLink -->
<g id="edge10" class="edge">
<title>Union_partwhole_properPartOf&#45;&gt;RoadLink</title>
<path fill="none" stroke="black" stroke-dasharray="1,5" d="M463.01,-417.85C473.19,-379.64 491.52,-285.99 444,-235 398.49,-186.16 192.24,-180.64 103.17,-180.59"/>
<polygon fill="black" stroke="black" points="103.16,-177.09 93.17,-180.61 103.18,-184.09 103.16,-177.09"/>
<text xml:space="preserve" text-anchor="middle" x="490.61" y="-291.5" font-family="Arial" font-size="10.00">member</text>
</g>
<!-- Union_partwhole_properPartOf&#45;&gt;RoadSection -->
<g id="edge11" class="edge">
<title>Union_partwhole_properPartOf&#45;&gt;RoadSection</title>
<path fill="none" stroke="black" stroke-dasharray="1,5" d="M531.79,-431.89C590.9,-425.16 664,-404.83 664,-345.38 664,-345.38 664,-345.38 664,-179 664,-122.91 251.1,-111.05 105.27,-108.61"/>
<polygon fill="black" stroke="black" points="105.59,-105.12 95.54,-108.46 105.48,-112.12 105.59,-105.12"/>
<text xml:space="preserve" text-anchor="middle" x="681.62" y="-249.5" font-family="Arial" font-size="10.00">member</text>
</g>
</g>
</svg>
