<?xml version="1.0" encoding="UTF-8" standalone="no"?>
<!DOCTYPE svg PUBLIC "-//W3C//DTD SVG 1.1//EN"
 "http://www.w3.org/Graphics/SVG/1.1/DTD/svg11.dtd">
<!-- Generated by graphviz version 13.1.0 (20250701.0955)
 -->
<!-- Pages: 1 -->
<svg width="408pt" height="363pt"
 viewBox="0.00 0.00 408.00 363.00" xmlns="http://www.w3.org/2000/svg" xmlns:xlink="http://www.w3.org/1999/xlink">
<g id="graph0" class="graph" transform="scale(1 1) rotate(0) translate(4 359)">
<polygon fill="white" stroke="none" points="-4,4 -4,-359 404.25,-359 404.25,4 -4,4"/>
<g id="clust2" class="cluster">
<title>cluster_associated</title>
</g>
<!-- TravelledWaySection -->
<g id="node1" class="node">
<title>TravelledWaySection</title>
<polygon fill="lightgray" stroke="none" points="1,-328.88 1,-345.12 123,-345.12 123,-328.88 1,-328.88"/>
<text xml:space="preserve" text-anchor="start" x="2" y="-333.73" font-family="Arial" font-weight="bold" font-size="12.00">TravelledWaySection</text>
<polygon fill="none" stroke="black" points="0,-327.88 0,-346.12 124,-346.12 124,-327.88 0,-327.88"/>
</g>
<!-- RoadSection -->
<g id="node2" class="node">
<title>RoadSection</title>
<polygon fill="lightgray" stroke="none" points="39.88,-244.88 39.88,-261.12 116.12,-261.12 116.12,-244.88 39.88,-244.88"/>
<text xml:space="preserve" text-anchor="start" x="40.88" y="-249.72" font-family="Arial" font-weight="bold" font-size="12.00">RoadSection</text>
<polygon fill="none" stroke="black" points="38.88,-243.88 38.88,-262.12 117.12,-262.12 117.12,-243.88 38.88,-243.88"/>
</g>
<!-- RoadSection&#45;&gt;TravelledWaySection -->
<g id="edge1" class="edge">
<title>RoadSection&#45;&gt;TravelledWaySection</title>
<path fill="none" stroke="black" d="M74.69,-270.97C72.61,-281.63 69.88,-295.64 67.48,-307.92"/>
<polygon fill="none" stroke="black" points="64.09,-307.04 65.61,-317.52 70.96,-308.38 64.09,-307.04"/>
</g>
<!-- Invis -->
<!-- RoadSection&#45;&gt;Invis -->
<!-- RoadNetwork -->
<g id="node5" class="node">
<title>RoadNetwork</title>
<polygon fill="lightgray" stroke="none" points="215,-98.88 215,-115.12 295,-115.12 295,-98.88 215,-98.88"/>
<text xml:space="preserve" text-anchor="start" x="216" y="-103.72" font-family="Arial" font-weight="bold" font-size="12.00">RoadNetwork</text>
<polygon fill="none" stroke="black" points="214,-97.88 214,-116.12 296,-116.12 296,-97.88 214,-97.88"/>
</g>
<!-- RoadSection&#45;&gt;RoadNetwork -->
<g id="edge9" class="edge">
<title>RoadSection&#45;&gt;RoadNetwork</title>
<path fill="none" stroke="black" stroke-dasharray="5,2" d="M62.53,-235.27C46.66,-216.01 26.52,-184.18 43.75,-162 63.14,-137.04 147.12,-121.66 203.18,-113.99"/>
<polygon fill="black" stroke="black" points="203.38,-117.49 212.84,-112.71 202.46,-110.55 203.38,-117.49"/>
<text xml:space="preserve" text-anchor="middle" x="136.38" y="-176.5" font-family="Arial" font-size="10.00">«only» onProperty: partwhole:properPartOf</text>
</g>
<!-- Union_partwhole_hasProperPart -->
<g id="node7" class="node">
<title>Union_partwhole_hasProperPart</title>
<polygon fill="lightyellow" stroke="none" points="224.25,-320.75 224.25,-353.25 379.75,-353.25 379.75,-320.75 224.25,-320.75"/>
<text xml:space="preserve" text-anchor="start" x="274.25" y="-339.85" font-family="Arial" font-size="12.00">«unionOf»</text>
<text xml:space="preserve" text-anchor="start" x="226.25" y="-325.6" font-family="Arial" font-size="12.00">[RoadLink or RoadSegment]</text>
<polygon fill="none" stroke="black" points="224.25,-320.75 224.25,-353.25 379.75,-353.25 379.75,-320.75 224.25,-320.75"/>
</g>
<!-- RoadSection&#45;&gt;Union_partwhole_hasProperPart -->
<g id="edge8" class="edge">
<title>RoadSection&#45;&gt;Union_partwhole_hasProperPart</title>
<path fill="none" stroke="black" stroke-dasharray="5,2" d="M80.2,-270.79C82.44,-281.05 86.95,-293.58 96,-301 114.05,-315.8 166.01,-324.56 213.22,-329.62"/>
<polygon fill="black" stroke="black" points="212.65,-333.08 222.96,-330.61 213.36,-326.12 212.65,-333.08"/>
<text xml:space="preserve" text-anchor="middle" x="192" y="-291.5" font-family="Arial" font-size="10.00">«only» onProperty: partwhole:hasProperPart</text>
</g>
<!-- RoadLink -->
<g id="node4" class="node">
<title>RoadLink</title>
<polygon fill="lightgray" stroke="none" points="239.25,-171.88 239.25,-188.12 296.75,-188.12 296.75,-171.88 239.25,-171.88"/>
<text xml:space="preserve" text-anchor="start" x="240.25" y="-176.72" font-family="Arial" font-weight="bold" font-size="12.00">RoadLink</text>
<polygon fill="none" stroke="black" points="238.25,-170.88 238.25,-189.12 297.75,-189.12 297.75,-170.88 238.25,-170.88"/>
</g>
<!-- Invis&#45;&gt;RoadLink -->
<!-- RoadLink&#45;&gt;RoadNetwork -->
<!-- RoadSegment -->
<g id="node6" class="node">
<title>RoadSegment</title>
<polygon fill="lightgray" stroke="none" points="213.12,-25.88 213.12,-42.12 296.88,-42.12 296.88,-25.88 213.12,-25.88"/>
<text xml:space="preserve" text-anchor="start" x="214.12" y="-30.73" font-family="Arial" font-weight="bold" font-size="12.00">RoadSegment</text>
<polygon fill="none" stroke="black" points="212.12,-24.88 212.12,-43.12 297.88,-43.12 297.88,-24.88 212.12,-24.88"/>
</g>
<!-- RoadNetwork&#45;&gt;RoadSegment -->
<!-- Union_partwhole_hasProperPart&#45;&gt;RoadLink -->
<g id="edge6" class="edge">
<title>Union_partwhole_hasProperPart&#45;&gt;RoadLink</title>
<path fill="none" stroke="black" stroke-dasharray="1,5" d="M298.3,-319.12C292.47,-292.56 281.11,-240.77 274.08,-208.7"/>
<polygon fill="black" stroke="black" points="277.58,-208.36 272.02,-199.34 270.75,-209.86 277.58,-208.36"/>
<text xml:space="preserve" text-anchor="middle" x="307.11" y="-249.5" font-family="Arial" font-size="10.00">member</text>
</g>
<!-- Union_partwhole_hasProperPart&#45;&gt;RoadSegment -->
<g id="edge7" class="edge">
<title>Union_partwhole_hasProperPart&#45;&gt;RoadSegment</title>
<path fill="none" stroke="black" stroke-dasharray="1,5" d="M325.82,-319.02C343.66,-304.14 365,-280.75 365,-254 365,-254 365,-254 365,-106 365,-76.37 336.48,-58.51 308.49,-48.11"/>
<polygon fill="black" stroke="black" points="309.87,-44.88 299.28,-44.97 307.61,-51.51 309.87,-44.88"/>
<text xml:space="preserve" text-anchor="middle" x="382.62" y="-176.5" font-family="Arial" font-size="10.00">member</text>
</g>
</g>
</svg>
