<?xml version="1.0" encoding="UTF-8" standalone="no"?>
<!DOCTYPE svg PUBLIC "-//W3C//DTD SVG 1.1//EN"
 "http://www.w3.org/Graphics/SVG/1.1/DTD/svg11.dtd">
<!-- Generated by graphviz version 14.0.2 (20251019.1705)
 -->
<!-- Pages: 1 -->
<svg width="374pt" height="305pt"
 viewBox="0.00 0.00 374.00 305.00" xmlns="http://www.w3.org/2000/svg" xmlns:xlink="http://www.w3.org/1999/xlink">
<g id="graph0" class="graph" transform="scale(1 1) rotate(0) translate(4 301)">
<polygon fill="white" stroke="none" points="-4,4 -4,-301 369.75,-301 369.75,4 -4,4"/>
<g id="clust2" class="cluster">
<title>cluster_associated</title>
</g>
<!-- RoadSegment -->
<g id="node1" class="node">
<title>RoadSegment</title>
<g id="a_node1"><a xlink:href="../RoadSegment.md" xlink:title="&lt;TABLE&gt;">
<polygon fill="lightgray" stroke="none" points="106.62,-206 106.62,-222.25 361.38,-222.25 361.38,-206 106.62,-206"/>
<text xml:space="preserve" text-anchor="start" x="195.38" y="-209.85" font-family="Arial" font-size="12.00">RoadSegment</text>
<text xml:space="preserve" text-anchor="start" x="107.62" y="-193.6" font-family="Arial" font-size="12.00">«exactly 1» numLanes: xsd:nonNegativeInteger</text>
<polygon fill="black" stroke="black" points="105.62,-206 105.62,-206 362.38,-206 362.38,-206 105.62,-206"/>
<polygon fill="none" stroke="black" points="105.62,-188.75 105.62,-223.25 362.38,-223.25 362.38,-188.75 105.62,-188.75"/>
</a>
</g>
</g>
<!-- Invis -->
<!-- RoadSegment&#45;&gt;Invis -->
<!-- cdm1_Length -->
<g id="node3" class="node">
<title>cdm1_Length</title>
<polygon fill="lightgray" stroke="none" points="17.5,-98.88 17.5,-115.12 88.5,-115.12 88.5,-98.88 17.5,-98.88"/>
<text xml:space="preserve" text-anchor="start" x="18.5" y="-102.72" font-family="Arial" font-size="12.00">cdm1:Length</text>
<polygon fill="none" stroke="black" points="16.5,-97.88 16.5,-116.12 89.5,-116.12 89.5,-97.88 16.5,-97.88"/>
</g>
<!-- RoadSegment&#45;&gt;cdm1_Length -->
<g id="edge7" class="edge">
<title>RoadSegment&#45;&gt;cdm1_Length</title>
<path fill="none" stroke="black" d="M180.13,-188.04C166.39,-182.94 151.88,-176.85 139,-170 118.9,-159.31 98.14,-144.47 82.05,-131.99"/>
<polygon fill="black" stroke="black" points="84.37,-129.36 74.35,-125.9 80.03,-134.85 84.37,-129.36"/>
<text xml:space="preserve" text-anchor="middle" x="170.5" y="-159.55" font-family="Arial" font-size="11.00"> width </text>
<text xml:space="preserve" text-anchor="middle" x="170.5" y="-146.05" font-family="Arial" font-size="11.00"> «exactly 1» &#160;</text>
</g>
<!-- cdm2_Code -->
<g id="node4" class="node">
<title>cdm2_Code</title>
<polygon fill="lightgray" stroke="none" points="23.25,-25.88 23.25,-42.12 86.75,-42.12 86.75,-25.88 23.25,-25.88"/>
<text xml:space="preserve" text-anchor="start" x="24.25" y="-29.73" font-family="Arial" font-size="12.00">cdm2:Code</text>
<polygon fill="none" stroke="black" points="22.25,-24.88 22.25,-43.12 87.75,-43.12 87.75,-24.88 22.25,-24.88"/>
</g>
<!-- RoadSegment&#45;&gt;cdm2_Code -->
<g id="edge6" class="edge">
<title>RoadSegment&#45;&gt;cdm2_Code</title>
<path fill="none" stroke="black" d="M227.83,-188.22C222.4,-174.97 213.56,-156.54 202,-143 171.62,-107.43 127.36,-76.95 95.34,-57.53"/>
<polygon fill="black" stroke="black" points="97.52,-54.75 87.13,-52.64 93.93,-60.76 97.52,-54.75"/>
<text xml:space="preserve" text-anchor="middle" x="223.34" y="-110.05" font-family="Arial" font-size="11.00"> pavementType </text>
<text xml:space="preserve" text-anchor="middle" x="223.34" y="-96.55" font-family="Arial" font-size="11.00"> «max 1» &#160;</text>
</g>
<!-- cdm2_RoadSegment -->
<g id="node5" class="node">
<title>cdm2_RoadSegment</title>
<polygon fill="lightgray" stroke="none" points="109.25,-270.88 109.25,-287.12 220.75,-287.12 220.75,-270.88 109.25,-270.88"/>
<text xml:space="preserve" text-anchor="start" x="110.25" y="-274.73" font-family="Arial" font-size="12.00">cdm2:RoadSegment</text>
<polygon fill="none" stroke="black" points="108.25,-269.88 108.25,-288.12 221.75,-288.12 221.75,-269.88 108.25,-269.88"/>
</g>
<!-- RoadSegment&#45;&gt;cdm2_RoadSegment -->
<g id="edge1" class="edge">
<title>RoadSegment&#45;&gt;cdm2_RoadSegment</title>
<path fill="none" stroke="black" d="M217.77,-223.71C209.28,-232.44 198.72,-243.31 189.28,-253.02"/>
<polygon fill="none" stroke="black" points="186.87,-250.48 182.41,-260.09 191.89,-255.36 186.87,-250.48"/>
</g>
<!-- TravelledWaySegment -->
<g id="node6" class="node">
<title>TravelledWaySegment</title>
<g id="a_node6"><a xlink:href="../TravelledWaySegment.md" xlink:title="&lt;TABLE&gt;">
<polygon fill="lightgray" stroke="none" points="241.25,-270.88 241.25,-287.12 364.75,-287.12 364.75,-270.88 241.25,-270.88"/>
<text xml:space="preserve" text-anchor="start" x="242.25" y="-274.73" font-family="Arial" font-size="12.00">TravelledWaySegment</text>
<polygon fill="none" stroke="black" points="240.25,-269.88 240.25,-288.12 365.75,-288.12 365.75,-269.88 240.25,-269.88"/>
</a>
</g>
</g>
<!-- RoadSegment&#45;&gt;TravelledWaySegment -->
<g id="edge2" class="edge">
<title>RoadSegment&#45;&gt;TravelledWaySegment</title>
<path fill="none" stroke="black" d="M250.23,-223.71C258.72,-232.44 269.28,-243.31 278.72,-253.02"/>
<polygon fill="none" stroke="black" points="276.11,-255.36 285.59,-260.09 281.13,-250.48 276.11,-255.36"/>
</g>
<!-- Invis&#45;&gt;cdm1_Length -->
<!-- cdm1_Length&#45;&gt;cdm2_Code -->
</g>
</svg>
