<?xml version="1.0" encoding="UTF-8" standalone="no"?>
<!DOCTYPE svg PUBLIC "-//W3C//DTD SVG 1.1//EN"
 "http://www.w3.org/Graphics/SVG/1.1/DTD/svg11.dtd">
<!-- Generated by graphviz version 13.1.0 (20250701.0955)
 -->
<!-- Pages: 1 -->
<svg width="619pt" height="643pt"
 viewBox="0.00 0.00 619.00 643.00" xmlns="http://www.w3.org/2000/svg" xmlns:xlink="http://www.w3.org/1999/xlink">
<g id="graph0" class="graph" transform="scale(1 1) rotate(0) translate(4 638.75)">
<polygon fill="white" stroke="none" points="-4,4 -4,-638.75 615.25,-638.75 615.25,4 -4,4"/>
<g id="clust2" class="cluster">
<title>cluster_associated</title>
</g>
<!-- TravelledWayLink -->
<g id="node1" class="node">
<title>TravelledWayLink</title>
<polygon fill="lightgray" stroke="none" points="7.38,-608.62 7.38,-624.88 110.62,-624.88 110.62,-608.62 7.38,-608.62"/>
<text xml:space="preserve" text-anchor="start" x="8.38" y="-613.48" font-family="Arial" font-weight="bold" font-size="12.00">TravelledWayLink</text>
<polygon fill="none" stroke="black" points="6.38,-607.62 6.38,-625.88 111.62,-625.88 111.62,-607.62 6.38,-607.62"/>
</g>
<!-- transinfras_RoadLink -->
<g id="node2" class="node">
<title>transinfras_RoadLink</title>
<polygon fill="lightgray" stroke="none" points="130.62,-608.62 130.62,-624.88 253.38,-624.88 253.38,-608.62 130.62,-608.62"/>
<text xml:space="preserve" text-anchor="start" x="131.62" y="-613.48" font-family="Arial" font-weight="bold" font-size="12.00">transinfras:RoadLink</text>
<polygon fill="none" stroke="black" points="129.62,-607.62 129.62,-625.88 254.38,-625.88 254.38,-607.62 129.62,-607.62"/>
</g>
<!-- RoadLink -->
<g id="node3" class="node">
<title>RoadLink</title>
<polygon fill="lightgray" stroke="none" points="51.62,-521.5 51.62,-537.75 312.38,-537.75 312.38,-521.5 51.62,-521.5"/>
<text xml:space="preserve" text-anchor="start" x="154.25" y="-526.35" font-family="Arial" font-weight="bold" font-size="12.00">RoadLink</text>
<text xml:space="preserve" text-anchor="start" x="52.62" y="-509.1" font-family="Arial" font-size="12.00">capacity: nonNegativeInteger «exactly 1, only»</text>
<text xml:space="preserve" text-anchor="start" x="52.62" y="-492.85" font-family="Arial" font-size="12.00">maxLanes: nonNegativeInteger «exactly 1, only»</text>
<polygon fill="none" stroke="black" points="50.62,-488 50.62,-538.75 313.38,-538.75 313.38,-488 50.62,-488"/>
</g>
<!-- RoadLink&#45;&gt;TravelledWayLink -->
<g id="edge1" class="edge">
<title>RoadLink&#45;&gt;TravelledWayLink</title>
<path fill="none" stroke="black" d="M152.58,-538.62C133.14,-554.65 107.75,-575.57 88.32,-591.58"/>
<polygon fill="none" stroke="black" points="86.25,-588.76 80.76,-597.82 90.7,-594.16 86.25,-588.76"/>
</g>
<!-- RoadLink&#45;&gt;transinfras_RoadLink -->
<g id="edge2" class="edge">
<title>RoadLink&#45;&gt;transinfras_RoadLink</title>
<path fill="none" stroke="black" d="M184.4,-538.73C185.85,-553.44 187.71,-572.24 189.22,-587.59"/>
<polygon fill="none" stroke="black" points="185.74,-587.9 190.2,-597.5 192.7,-587.21 185.74,-587.9"/>
</g>
<!-- Invis -->
<!-- RoadLink&#45;&gt;Invis -->
<!-- RoadLinkUserType -->
<g id="node6" class="node">
<title>RoadLinkUserType</title>
<polygon fill="lightgray" stroke="none" points="360.88,-340.88 360.88,-357.12 473.12,-357.12 473.12,-340.88 360.88,-340.88"/>
<text xml:space="preserve" text-anchor="start" x="361.88" y="-345.73" font-family="Arial" font-weight="bold" font-size="12.00">RoadLinkUserType</text>
<polygon fill="none" stroke="black" points="359.88,-339.88 359.88,-358.12 474.12,-358.12 474.12,-339.88 359.88,-339.88"/>
</g>
<!-- RoadLink&#45;&gt;RoadLinkUserType -->
<g id="edge10" class="edge">
<title>RoadLink&#45;&gt;RoadLinkUserType</title>
<path fill="none" stroke="black" d="M176.16,-488.01C172.51,-466.45 171.19,-435.35 187.5,-415 207.72,-389.77 288.69,-371.13 348.76,-360.43"/>
<polygon fill="black" stroke="black" points="349.35,-363.88 358.6,-358.72 348.15,-356.98 349.35,-363.88"/>
<text xml:space="preserve" text-anchor="middle" x="240.75" y="-435.5" font-family="Arial" font-size="10.00">«only»</text>
<text xml:space="preserve" text-anchor="middle" x="240.75" y="-423.5" font-family="Arial" font-size="10.00">onProperty: primaryUser</text>
</g>
<!-- RoadLink&#45;&gt;RoadLinkUserType -->
<g id="edge12" class="edge">
<title>RoadLink&#45;&gt;RoadLinkUserType</title>
<path fill="none" stroke="black" d="M235.49,-488.1C254.9,-478.03 276.37,-465.34 294,-451 310.33,-437.73 309.19,-429.17 324.75,-415 341.74,-399.53 362.52,-384.59 380.06,-372.94"/>
<polygon fill="black" stroke="black" points="381.69,-376.05 388.15,-367.66 377.87,-370.19 381.69,-376.05"/>
<text xml:space="preserve" text-anchor="middle" x="367.88" y="-435.5" font-family="Arial" font-size="10.00">«only»</text>
<text xml:space="preserve" text-anchor="middle" x="367.88" y="-423.5" font-family="Arial" font-size="10.00">onProperty: usedBy</text>
</g>
<!-- RoadSegment -->
<g id="node9" class="node">
<title>RoadSegment</title>
<polygon fill="lightgray" stroke="none" points="371.12,-98.88 371.12,-115.12 454.88,-115.12 454.88,-98.88 371.12,-98.88"/>
<text xml:space="preserve" text-anchor="start" x="372.12" y="-103.72" font-family="Arial" font-weight="bold" font-size="12.00">RoadSegment</text>
<polygon fill="none" stroke="black" points="370.12,-97.88 370.12,-116.12 455.88,-116.12 455.88,-97.88 370.12,-97.88"/>
</g>
<!-- RoadLink&#45;&gt;RoadSegment -->
<g id="edge13" class="edge">
<title>RoadLink&#45;&gt;RoadSegment</title>
<path fill="none" stroke="black" stroke-dasharray="5,2" d="M153.53,-488.13C140.11,-473.95 127,-454.78 127,-434 127,-434 127,-434 127,-179 127,-131.77 275.74,-115.74 358.69,-110.47"/>
<polygon fill="black" stroke="black" points="358.9,-113.96 368.67,-109.87 358.48,-106.97 358.9,-113.96"/>
<text xml:space="preserve" text-anchor="middle" x="207.25" y="-303.5" font-family="Arial" font-size="10.00">«only»</text>
<text xml:space="preserve" text-anchor="middle" x="207.25" y="-291.5" font-family="Arial" font-size="10.00">onProperty: partwhole:hasProperPart</text>
</g>
<!-- cityunits_Duration -->
<g id="node10" class="node">
<title>cityunits_Duration</title>
<polygon fill="lightgray" stroke="none" points="361,-25.88 361,-42.12 465,-42.12 465,-25.88 361,-25.88"/>
<text xml:space="preserve" text-anchor="start" x="362" y="-30.73" font-family="Arial" font-weight="bold" font-size="12.00">cityunits:Duration</text>
<polygon fill="none" stroke="black" points="360,-24.88 360,-43.12 466,-43.12 466,-24.88 360,-24.88"/>
</g>
<!-- RoadLink&#45;&gt;cityunits_Duration -->
<g id="edge11" class="edge">
<title>RoadLink&#45;&gt;cityunits_Duration</title>
<path fill="none" stroke="black" d="M50.7,-494.92C22,-483.42 0,-464.62 0,-434 0,-434 0,-434 0,-106 0,-71.02 233.15,-48.52 349.09,-39.5"/>
<polygon fill="black" stroke="black" points="349.06,-43.01 358.76,-38.76 348.53,-36.03 349.06,-43.01"/>
<text xml:space="preserve" text-anchor="middle" x="49.5" y="-255.5" font-family="Arial" font-size="10.00">«max 1, only»</text>
<text xml:space="preserve" text-anchor="middle" x="49.5" y="-243.5" font-family="Arial" font-size="10.00">onProperty: travelTime</text>
</g>
<!-- Union_partwhole_properPartOf -->
<g id="node11" class="node">
<title>Union_partwhole_properPartOf</title>
<polygon fill="lightyellow" stroke="none" points="374.25,-600.5 374.25,-633 589.75,-633 589.75,-600.5 374.25,-600.5"/>
<text xml:space="preserve" text-anchor="start" x="454.25" y="-619.6" font-family="Arial" font-size="12.00">«unionOf»</text>
<text xml:space="preserve" text-anchor="start" x="376.25" y="-605.35" font-family="Arial" font-size="12.00">[Road or RoadNetwork or RoadSection]</text>
<polygon fill="none" stroke="black" points="374.25,-600.5 374.25,-633 589.75,-633 589.75,-600.5 374.25,-600.5"/>
</g>
<!-- RoadLink&#45;&gt;Union_partwhole_properPartOf -->
<g id="edge17" class="edge">
<title>RoadLink&#45;&gt;Union_partwhole_properPartOf</title>
<path fill="none" stroke="black" stroke-dasharray="5,2" d="M211.33,-538.5C230.41,-552.96 256.46,-570.47 282.25,-580.75 307.62,-590.86 335.95,-598.05 363.12,-603.17"/>
<polygon fill="black" stroke="black" points="362.33,-606.59 372.79,-604.91 363.56,-599.7 362.33,-606.59"/>
<text xml:space="preserve" text-anchor="middle" x="359.12" y="-571.25" font-family="Arial" font-size="10.00">«only»</text>
<text xml:space="preserve" text-anchor="middle" x="359.12" y="-559.25" font-family="Arial" font-size="10.00">onProperty: partwhole:properPartOf</text>
</g>
<!-- Road -->
<g id="node5" class="node">
<title>Road</title>
<polygon fill="lightgray" stroke="none" points="430.62,-424.88 430.62,-441.12 463.38,-441.12 463.38,-424.88 430.62,-424.88"/>
<text xml:space="preserve" text-anchor="start" x="431.62" y="-429.73" font-family="Arial" font-weight="bold" font-size="12.00">Road</text>
<polygon fill="none" stroke="black" points="429.62,-423.88 429.62,-442.12 464.38,-442.12 464.38,-423.88 429.62,-423.88"/>
</g>
<!-- Invis&#45;&gt;Road -->
<!-- Road&#45;&gt;RoadLinkUserType -->
<!-- RoadNetwork -->
<g id="node7" class="node">
<title>RoadNetwork</title>
<polygon fill="lightgray" stroke="none" points="388,-244.88 388,-261.12 468,-261.12 468,-244.88 388,-244.88"/>
<text xml:space="preserve" text-anchor="start" x="389" y="-249.72" font-family="Arial" font-weight="bold" font-size="12.00">RoadNetwork</text>
<polygon fill="none" stroke="black" points="387,-243.88 387,-262.12 469,-262.12 469,-243.88 387,-243.88"/>
</g>
<!-- RoadLinkUserType&#45;&gt;RoadNetwork -->
<!-- RoadSection -->
<g id="node8" class="node">
<title>RoadSection</title>
<polygon fill="lightgray" stroke="none" points="389.88,-171.88 389.88,-188.12 466.12,-188.12 466.12,-171.88 389.88,-171.88"/>
<text xml:space="preserve" text-anchor="start" x="390.88" y="-176.72" font-family="Arial" font-weight="bold" font-size="12.00">RoadSection</text>
<polygon fill="none" stroke="black" points="388.88,-170.88 388.88,-189.12 467.12,-189.12 467.12,-170.88 388.88,-170.88"/>
</g>
<!-- RoadNetwork&#45;&gt;RoadSection -->
<!-- RoadSection&#45;&gt;RoadSegment -->
<!-- RoadSegment&#45;&gt;cityunits_Duration -->
<!-- Union_partwhole_properPartOf&#45;&gt;Road -->
<g id="edge14" class="edge">
<title>Union_partwhole_properPartOf&#45;&gt;Road</title>
<path fill="none" stroke="black" stroke-dasharray="1,5" d="M477.57,-598.84C473.61,-583.42 467.84,-559.97 463.75,-539.38 458.57,-513.28 453.93,-483.3 450.85,-462.01"/>
<polygon fill="black" stroke="black" points="454.35,-461.77 449.48,-452.36 447.42,-462.75 454.35,-461.77"/>
<text xml:space="preserve" text-anchor="middle" x="481.38" y="-509.88" font-family="Arial" font-size="10.00">member</text>
</g>
<!-- Union_partwhole_properPartOf&#45;&gt;RoadNetwork -->
<g id="edge15" class="edge">
<title>Union_partwhole_properPartOf&#45;&gt;RoadNetwork</title>
<path fill="none" stroke="black" stroke-dasharray="1,5" d="M490.47,-599.01C499.65,-579.29 513,-545.29 513,-514.38 513,-514.38 513,-514.38 513,-348 513,-318.35 489.45,-293.87 467.14,-277.33"/>
<polygon fill="black" stroke="black" points="469.17,-274.48 458.97,-271.61 465.15,-280.21 469.17,-274.48"/>
<text xml:space="preserve" text-anchor="middle" x="530.62" y="-429.5" font-family="Arial" font-size="10.00">member</text>
</g>
<!-- Union_partwhole_properPartOf&#45;&gt;RoadSection -->
<g id="edge16" class="edge">
<title>Union_partwhole_properPartOf&#45;&gt;RoadSection</title>
<path fill="none" stroke="black" stroke-dasharray="1,5" d="M513.3,-598.9C540.65,-581.65 576,-552.06 576,-514.38 576,-514.38 576,-514.38 576,-252 576,-207.53 521,-190.89 478.06,-184.68"/>
<polygon fill="black" stroke="black" points="478.75,-181.24 468.39,-183.44 477.86,-188.18 478.75,-181.24"/>
<text xml:space="preserve" text-anchor="middle" x="593.62" y="-387.5" font-family="Arial" font-size="10.00">member</text>
</g>
</g>
</svg>
