<?xml version="1.0" encoding="UTF-8" standalone="no"?>
<!DOCTYPE svg PUBLIC "-//W3C//DTD SVG 1.1//EN"
 "http://www.w3.org/Graphics/SVG/1.1/DTD/svg11.dtd">
<!-- Generated by graphviz version 13.1.0 (20250701.0955)
 -->
<!-- Pages: 1 -->
<svg width="450pt" height="374pt"
 viewBox="0.00 0.00 450.00 374.00" xmlns="http://www.w3.org/2000/svg" xmlns:xlink="http://www.w3.org/1999/xlink">
<g id="graph0" class="graph" transform="scale(1 1) rotate(0) translate(4 370)">
<polygon fill="white" stroke="none" points="-4,4 -4,-370 445.62,-370 445.62,4 -4,4"/>
<g id="clust2" class="cluster">
<title>cluster_associated</title>
</g>
<!-- TransportNetwork -->
<g id="node1" class="node">
<title>TransportNetwork</title>
<polygon fill="lightgray" stroke="none" points="1,-339.88 1,-356.12 105.75,-356.12 105.75,-339.88 1,-339.88"/>
<text xml:space="preserve" text-anchor="start" x="2" y="-344.73" font-family="Arial" font-weight="bold" font-size="12.00">TransportNetwork</text>
<polygon fill="none" stroke="black" points="0,-338.88 0,-357.12 106.75,-357.12 106.75,-338.88 0,-338.88"/>
</g>
<!-- RoadNetwork -->
<g id="node2" class="node">
<title>RoadNetwork</title>
<polygon fill="lightgray" stroke="none" points="29.38,-255.88 29.38,-272.12 109.38,-272.12 109.38,-255.88 29.38,-255.88"/>
<text xml:space="preserve" text-anchor="start" x="30.38" y="-260.73" font-family="Arial" font-weight="bold" font-size="12.00">RoadNetwork</text>
<polygon fill="none" stroke="black" points="28.38,-254.88 28.38,-273.12 110.38,-273.12 110.38,-254.88 28.38,-254.88"/>
</g>
<!-- RoadNetwork&#45;&gt;TransportNetwork -->
<g id="edge1" class="edge">
<title>RoadNetwork&#45;&gt;TransportNetwork</title>
<path fill="none" stroke="black" d="M66.06,-281.97C63.98,-292.63 61.25,-306.64 58.85,-318.92"/>
<polygon fill="none" stroke="black" points="55.46,-318.04 56.98,-328.52 62.33,-319.38 55.46,-318.04"/>
</g>
<!-- Invis -->
<!-- RoadNetwork&#45;&gt;Invis -->
<!-- RoadLink -->
<g id="node5" class="node">
<title>RoadLink</title>
<polygon fill="lightgray" stroke="none" points="218.62,-98.88 218.62,-115.12 276.12,-115.12 276.12,-98.88 218.62,-98.88"/>
<text xml:space="preserve" text-anchor="start" x="219.62" y="-103.72" font-family="Arial" font-weight="bold" font-size="12.00">RoadLink</text>
<polygon fill="none" stroke="black" points="217.62,-97.88 217.62,-116.12 277.12,-116.12 277.12,-97.88 217.62,-97.88"/>
</g>
<!-- RoadNetwork&#45;&gt;RoadLink -->
<g id="edge10" class="edge">
<title>RoadNetwork&#45;&gt;RoadLink</title>
<path fill="none" stroke="black" stroke-dasharray="5,2" d="M50.3,-246.01C28.86,-224.85 -0.41,-188.3 20.38,-162 43.15,-133.17 147.63,-118.08 206.59,-111.74"/>
<polygon fill="black" stroke="black" points="206.64,-115.25 216.23,-110.74 205.92,-108.29 206.64,-115.25"/>
<text xml:space="preserve" text-anchor="middle" x="119.38" y="-176.5" font-family="Arial" font-size="10.00">«min 1» onProperty: partwhole:hasProperPart</text>
</g>
<!-- Union_partwhole_hasProperPart -->
<g id="node7" class="node">
<title>Union_partwhole_hasProperPart</title>
<polygon fill="lightyellow" stroke="none" points="227.5,-331.75 227.5,-364.25 421.25,-364.25 421.25,-331.75 227.5,-331.75"/>
<text xml:space="preserve" text-anchor="start" x="296.62" y="-350.85" font-family="Arial" font-size="12.00">«unionOf»</text>
<text xml:space="preserve" text-anchor="start" x="229.5" y="-336.6" font-family="Arial" font-size="12.00">[Road or RoadLink or RoadSection]</text>
<polygon fill="none" stroke="black" points="227.5,-331.75 227.5,-364.25 421.25,-364.25 421.25,-331.75 227.5,-331.75"/>
</g>
<!-- RoadNetwork&#45;&gt;Union_partwhole_hasProperPart -->
<g id="edge9" class="edge">
<title>RoadNetwork&#45;&gt;Union_partwhole_hasProperPart</title>
<path fill="none" stroke="black" stroke-dasharray="5,2" d="M71.52,-281.86C73.74,-292.14 78.24,-304.68 87.38,-312 107.52,-328.15 163.88,-336.87 216.58,-341.57"/>
<polygon fill="black" stroke="black" points="215.99,-345.03 226.25,-342.38 216.58,-338.05 215.99,-345.03"/>
<text xml:space="preserve" text-anchor="middle" x="183.38" y="-302.5" font-family="Arial" font-size="10.00">«only» onProperty: partwhole:hasProperPart</text>
</g>
<!-- Road -->
<g id="node4" class="node">
<title>Road</title>
<polygon fill="lightgray" stroke="none" points="238,-171.88 238,-188.12 270.75,-188.12 270.75,-171.88 238,-171.88"/>
<text xml:space="preserve" text-anchor="start" x="239" y="-176.72" font-family="Arial" font-weight="bold" font-size="12.00">Road</text>
<polygon fill="none" stroke="black" points="237,-170.88 237,-189.12 271.75,-189.12 271.75,-170.88 237,-170.88"/>
</g>
<!-- Invis&#45;&gt;Road -->
<!-- Road&#45;&gt;RoadLink -->
<!-- RoadSection -->
<g id="node6" class="node">
<title>RoadSection</title>
<polygon fill="lightgray" stroke="none" points="204.25,-25.88 204.25,-42.12 280.5,-42.12 280.5,-25.88 204.25,-25.88"/>
<text xml:space="preserve" text-anchor="start" x="205.25" y="-30.73" font-family="Arial" font-weight="bold" font-size="12.00">RoadSection</text>
<polygon fill="none" stroke="black" points="203.25,-24.88 203.25,-43.12 281.5,-43.12 281.5,-24.88 203.25,-24.88"/>
</g>
<!-- RoadLink&#45;&gt;RoadSection -->
<!-- Union_partwhole_hasProperPart&#45;&gt;Road -->
<g id="edge6" class="edge">
<title>Union_partwhole_hasProperPart&#45;&gt;Road</title>
<path fill="none" stroke="black" stroke-dasharray="1,5" d="M317.28,-330.17C305.17,-301.46 280.43,-242.78 265.84,-208.19"/>
<polygon fill="black" stroke="black" points="269.19,-207.12 262.08,-199.27 262.74,-209.84 269.19,-207.12"/>
<text xml:space="preserve" text-anchor="middle" x="317.36" y="-260.5" font-family="Arial" font-size="10.00">member</text>
</g>
<!-- Union_partwhole_hasProperPart&#45;&gt;RoadLink -->
<g id="edge7" class="edge">
<title>Union_partwhole_hasProperPart&#45;&gt;RoadLink</title>
<path fill="none" stroke="black" stroke-dasharray="1,5" d="M330.98,-330.31C338.04,-310.08 347.24,-275.09 339.38,-246 327.41,-201.74 294.74,-159.15 271.75,-133.28"/>
<polygon fill="black" stroke="black" points="274.41,-131 265.09,-125.97 269.23,-135.72 274.41,-131"/>
<text xml:space="preserve" text-anchor="middle" x="350.4" y="-218.5" font-family="Arial" font-size="10.00">member</text>
</g>
<!-- Union_partwhole_hasProperPart&#45;&gt;RoadSection -->
<g id="edge8" class="edge">
<title>Union_partwhole_hasProperPart&#45;&gt;RoadSection</title>
<path fill="none" stroke="black" stroke-dasharray="1,5" d="M358.2,-330C380.79,-316 406.38,-293.79 406.38,-265 406.38,-265 406.38,-265 406.38,-106 406.38,-55.73 340.69,-40.65 292.46,-36.36"/>
<polygon fill="black" stroke="black" points="292.98,-32.89 282.75,-35.63 292.46,-39.87 292.98,-32.89"/>
<text xml:space="preserve" text-anchor="middle" x="424" y="-176.5" font-family="Arial" font-size="10.00">member</text>
</g>
</g>
</svg>
