<?xml version="1.0" encoding="UTF-8" standalone="no"?>
<!DOCTYPE svg PUBLIC "-//W3C//DTD SVG 1.1//EN"
 "http://www.w3.org/Graphics/SVG/1.1/DTD/svg11.dtd">
<!-- Generated by graphviz version 14.0.2 (20251019.1705)
 -->
<!-- Pages: 1 -->
<svg width="407pt" height="477pt"
 viewBox="0.00 0.00 407.00 477.00" xmlns="http://www.w3.org/2000/svg" xmlns:xlink="http://www.w3.org/1999/xlink">
<g id="graph0" class="graph" transform="scale(1 1) rotate(0) translate(4 473)">
<polygon fill="white" stroke="none" points="-4,4 -4,-473 402.5,-473 402.5,4 -4,4"/>
<g id="clust2" class="cluster">
<title>cluster_associated</title>
</g>
<!-- RoadLinkUserType -->
<g id="node1" class="node">
<title>RoadLinkUserType</title>
<g id="a_node1"><a xlink:href="../RoadLinkUserType.md" xlink:title="&lt;TABLE&gt;">
<polygon fill="lightgray" stroke="none" points="167.25,-369.88 167.25,-386.12 272.75,-386.12 272.75,-369.88 167.25,-369.88"/>
<text xml:space="preserve" text-anchor="start" x="168.25" y="-373.73" font-family="Arial" font-size="12.00">RoadLinkUserType</text>
<polygon fill="none" stroke="black" points="166.25,-368.88 166.25,-387.12 273.75,-387.12 273.75,-368.88 166.25,-368.88"/>
</a>
</g>
</g>
<!-- Invis -->
<!-- RoadLinkUserType&#45;&gt;Invis -->
<!-- cdm1_CityUnits/Duration -->
<g id="node3" class="node">
<title>cdm1_CityUnits/Duration</title>
<polygon fill="lightgray" stroke="none" points="17.12,-270.88 17.12,-287.12 148.88,-287.12 148.88,-270.88 17.12,-270.88"/>
<text xml:space="preserve" text-anchor="start" x="18.12" y="-274.73" font-family="Arial" font-size="12.00">cdm1:CityUnits/Duration</text>
<polygon fill="none" stroke="black" points="16.12,-269.88 16.12,-288.12 149.88,-288.12 149.88,-269.88 16.12,-269.88"/>
</g>
<!-- RoadLinkUserType&#45;&gt;cdm1_CityUnits/Duration -->
<g id="edge10" class="edge">
<title>RoadLinkUserType&#45;&gt;cdm1_CityUnits/Duration</title>
<path fill="none" stroke="black" d="M166.51,-360.78C143.48,-353.46 120.81,-345.64 116.5,-342 105.69,-332.88 97.81,-319.35 92.42,-307.26"/>
<polygon fill="black" stroke="black" points="95.72,-306.08 88.72,-298.13 89.23,-308.71 95.72,-306.08"/>
<text xml:space="preserve" text-anchor="middle" x="144.25" y="-331.55" font-family="Arial" font-size="11.00"> travelTime </text>
<text xml:space="preserve" text-anchor="middle" x="144.25" y="-318.05" font-family="Arial" font-size="11.00"> «max 1» &#160;</text>
</g>
<!-- cdm1_CityUnits/Speed -->
<g id="node4" class="node">
<title>cdm1_CityUnits/Speed</title>
<polygon fill="lightgray" stroke="none" points="27.38,-171.88 27.38,-188.12 148.62,-188.12 148.62,-171.88 27.38,-171.88"/>
<text xml:space="preserve" text-anchor="start" x="28.38" y="-175.72" font-family="Arial" font-size="12.00">cdm1:CityUnits/Speed</text>
<polygon fill="none" stroke="black" points="26.38,-170.88 26.38,-189.12 149.62,-189.12 149.62,-170.88 26.38,-170.88"/>
</g>
<!-- RoadLinkUserType&#45;&gt;cdm1_CityUnits/Speed -->
<g id="edge9" class="edge">
<title>RoadLinkUserType&#45;&gt;cdm1_CityUnits/Speed</title>
<path fill="none" stroke="black" d="M212.7,-360.14C202.3,-336.9 181.91,-294.13 159,-261 145.28,-241.15 127.19,-220.84 112.71,-205.65"/>
<polygon fill="black" stroke="black" points="115.61,-203.62 106.14,-198.87 110.58,-208.48 115.61,-203.62"/>
<text xml:space="preserve" text-anchor="middle" x="209.92" y="-282.05" font-family="Arial" font-size="11.00"> speedLimit </text>
<text xml:space="preserve" text-anchor="middle" x="209.92" y="-268.55" font-family="Arial" font-size="11.00"> «max 1» &#160;</text>
</g>
<!-- cdm2_Code -->
<g id="node5" class="node">
<title>cdm2_Code</title>
<polygon fill="lightgray" stroke="none" points="85.25,-98.88 85.25,-115.12 148.75,-115.12 148.75,-98.88 85.25,-98.88"/>
<text xml:space="preserve" text-anchor="start" x="86.25" y="-102.72" font-family="Arial" font-size="12.00">cdm2:Code</text>
<polygon fill="none" stroke="black" points="84.25,-97.88 84.25,-116.12 149.75,-116.12 149.75,-97.88 84.25,-97.88"/>
</g>
<!-- RoadLinkUserType&#45;&gt;cdm2_Code -->
<g id="edge8" class="edge">
<title>RoadLinkUserType&#45;&gt;cdm2_Code</title>
<path fill="none" stroke="black" d="M228.91,-360.06C239.76,-337.09 255.2,-295.01 243,-261 223.86,-207.64 177.17,-159.6 146.32,-132.13"/>
<polygon fill="black" stroke="black" points="148.67,-129.53 138.83,-125.6 144.07,-134.81 148.67,-129.53"/>
<text xml:space="preserve" text-anchor="middle" x="270.65" y="-232.55" font-family="Arial" font-size="11.00"> userCategory </text>
<text xml:space="preserve" text-anchor="middle" x="270.65" y="-219.05" font-family="Arial" font-size="11.00"> «exactly 1» &#160;</text>
</g>
<!-- RoadLink -->
<g id="node6" class="node">
<title>RoadLink</title>
<g id="a_node6"><a xlink:href="../RoadLink.md" xlink:title="&lt;TABLE&gt;">
<polygon fill="lightgray" stroke="none" points="94.12,-25.88 94.12,-42.12 147.88,-42.12 147.88,-25.88 94.12,-25.88"/>
<text xml:space="preserve" text-anchor="start" x="95.12" y="-29.73" font-family="Arial" font-size="12.00">RoadLink</text>
<polygon fill="none" stroke="black" points="93.12,-24.88 93.12,-43.12 148.88,-43.12 148.88,-24.88 93.12,-24.88"/>
</a>
</g>
</g>
<!-- RoadLinkUserType&#45;&gt;RoadLink -->
<g id="edge7" class="edge">
<title>RoadLinkUserType&#45;&gt;RoadLink</title>
<path fill="none" stroke="black" d="M273.75,-362.63C312.5,-348.64 358,-323.05 358,-280 358,-280 358,-280 358,-106 358,-65.18 227.33,-45.83 160.04,-38.58"/>
<polygon fill="black" stroke="black" points="160.46,-35.1 150.16,-37.56 159.74,-42.07 160.46,-35.1"/>
<text xml:space="preserve" text-anchor="middle" x="378.25" y="-183.05" font-family="Arial" font-size="11.00"> uses </text>
<text xml:space="preserve" text-anchor="middle" x="378.25" y="-169.55" font-family="Arial" font-size="11.00"> «only» &#160;</text>
</g>
<!-- ITSThing -->
<g id="node7" class="node">
<title>ITSThing</title>
<polygon fill="lightgray" stroke="none" points="194.25,-442.88 194.25,-459.12 245.75,-459.12 245.75,-442.88 194.25,-442.88"/>
<text xml:space="preserve" text-anchor="start" x="195.25" y="-446.73" font-family="Arial" font-size="12.00">ITSThing</text>
<polygon fill="none" stroke="black" points="193.25,-441.88 193.25,-460.12 246.75,-460.12 246.75,-441.88 193.25,-441.88"/>
</g>
<!-- RoadLinkUserType&#45;&gt;ITSThing -->
<g id="edge1" class="edge">
<title>RoadLinkUserType&#45;&gt;ITSThing</title>
<path fill="none" stroke="black" d="M220,-395.71C220,-403.47 220,-412.92 220,-421.74"/>
<polygon fill="none" stroke="black" points="216.5,-421.66 220,-431.66 223.5,-421.66 216.5,-421.66"/>
</g>
<!-- Invis&#45;&gt;cdm1_CityUnits/Duration -->
<!-- cdm1_CityUnits/Duration&#45;&gt;cdm1_CityUnits/Speed -->
<!-- cdm1_CityUnits/Speed&#45;&gt;cdm2_Code -->
<!-- cdm2_Code&#45;&gt;RoadLink -->
</g>
</svg>
