<?xml version="1.0" encoding="UTF-8" standalone="no"?>
<!DOCTYPE svg PUBLIC "-//W3C//DTD SVG 1.1//EN"
 "http://www.w3.org/Graphics/SVG/1.1/DTD/svg11.dtd">
<!-- Generated by graphviz version 13.1.0 (20250701.0955)
 -->
<!-- Pages: 1 -->
<svg width="561pt" height="229pt"
 viewBox="0.00 0.00 561.00 229.00" xmlns="http://www.w3.org/2000/svg" xmlns:xlink="http://www.w3.org/1999/xlink">
<g id="graph0" class="graph" transform="scale(1 1) rotate(0) translate(4 225)">
<polygon fill="white" stroke="none" points="-4,4 -4,-225 556.88,-225 556.88,4 -4,4"/>
<g id="clust2" class="cluster">
<title>cluster_associated</title>
</g>
<!-- TravelledWayLane -->
<g id="node1" class="node">
<title>TravelledWayLane</title>
<polygon fill="lightgray" stroke="none" points="64.38,-194.88 64.38,-211.12 171.38,-211.12 171.38,-194.88 64.38,-194.88"/>
<text xml:space="preserve" text-anchor="start" x="65.38" y="-199.72" font-family="Arial" font-weight="bold" font-size="12.00">TravelledWayLane</text>
<polygon fill="none" stroke="black" points="63.38,-193.88 63.38,-212.12 172.38,-212.12 172.38,-193.88 63.38,-193.88"/>
</g>
<!-- RoadLane -->
<g id="node2" class="node">
<title>RoadLane</title>
<polygon fill="lightgray" stroke="none" points="1,-130 1,-146.25 234.75,-146.25 234.75,-130 1,-130"/>
<text xml:space="preserve" text-anchor="start" x="88.25" y="-134.85" font-family="Arial" font-weight="bold" font-size="12.00">RoadLane</text>
<text xml:space="preserve" text-anchor="start" x="2" y="-117.6" font-family="Arial" font-size="12.00">width: nonNegativeInteger «exactly 1, only»</text>
<polygon fill="none" stroke="black" points="0,-112.75 0,-147.25 235.75,-147.25 235.75,-112.75 0,-112.75"/>
</g>
<!-- RoadLane&#45;&gt;TravelledWayLane -->
<g id="edge1" class="edge">
<title>RoadLane&#45;&gt;TravelledWayLane</title>
<path fill="none" stroke="black" d="M117.88,-147.71C117.88,-155.47 117.88,-164.92 117.88,-173.74"/>
<polygon fill="none" stroke="black" points="114.38,-173.66 117.88,-183.66 121.38,-173.66 114.38,-173.66"/>
</g>
<!-- RoadLane&#45;&gt;RoadLane -->
<g id="edge4" class="edge">
<title>RoadLane&#45;&gt;RoadLane</title>
<path fill="none" stroke="black" d="M235.75,-132.74C246.78,-132.18 253.75,-131.27 253.75,-130 253.75,-129.25 251.29,-128.62 246.99,-128.12"/>
<polygon fill="black" stroke="black" points="247.49,-124.65 237.25,-127.37 246.96,-131.63 247.49,-124.65"/>
<text xml:space="preserve" text-anchor="middle" x="289.75" y="-132.5" font-family="Arial" font-size="10.00">«only»</text>
<text xml:space="preserve" text-anchor="middle" x="289.75" y="-120.5" font-family="Arial" font-size="10.00">onProperty: next</text>
</g>
<!-- RoadLane&#45;&gt;RoadLane -->
<g id="edge5" class="edge">
<title>RoadLane&#45;&gt;RoadLane</title>
<path fill="none" stroke="black" d="M235.68,-136.83C283.49,-137.02 325.75,-134.74 325.75,-130 325.75,-125.64 289.98,-123.36 247.04,-123.17"/>
<polygon fill="black" stroke="black" points="247.2,-119.67 237.19,-123.17 247.19,-126.67 247.2,-119.67"/>
<text xml:space="preserve" text-anchor="middle" x="370.75" y="-132.5" font-family="Arial" font-size="10.00">«only»</text>
<text xml:space="preserve" text-anchor="middle" x="370.75" y="-120.5" font-family="Arial" font-size="10.00">onProperty: previous</text>
</g>
<!-- Invis -->
<!-- RoadLane&#45;&gt;Invis -->
<!-- RoadSegment -->
<g id="node4" class="node">
<title>RoadSegment</title>
<polygon fill="lightgray" stroke="none" points="452,-25.88 452,-42.12 535.75,-42.12 535.75,-25.88 452,-25.88"/>
<text xml:space="preserve" text-anchor="start" x="453" y="-30.73" font-family="Arial" font-weight="bold" font-size="12.00">RoadSegment</text>
<polygon fill="none" stroke="black" points="451,-24.88 451,-43.12 536.75,-43.12 536.75,-24.88 451,-24.88"/>
</g>
<!-- RoadLane&#45;&gt;RoadSegment -->
<g id="edge6" class="edge">
<title>RoadLane&#45;&gt;RoadSegment</title>
<path fill="none" stroke="black" stroke-dasharray="5,2" d="M178.18,-112.02C222.12,-99.83 283.16,-83.28 337.12,-70 371.22,-61.61 409.69,-53.01 439.99,-46.43"/>
<polygon fill="black" stroke="black" points="440.67,-49.86 449.7,-44.33 439.19,-43.02 440.67,-49.86"/>
<text xml:space="preserve" text-anchor="middle" x="414" y="-84.5" font-family="Arial" font-size="10.00">«min 1, only»</text>
<text xml:space="preserve" text-anchor="middle" x="414" y="-72.5" font-family="Arial" font-size="10.00">onProperty: partwhole:properPartOf</text>
</g>
<!-- Invis&#45;&gt;RoadSegment -->
</g>
</svg>
