<?xml version="1.0" encoding="UTF-8" standalone="no"?>
<!DOCTYPE svg PUBLIC "-//W3C//DTD SVG 1.1//EN"
 "http://www.w3.org/Graphics/SVG/1.1/DTD/svg11.dtd">
<!-- Generated by graphviz version 14.0.2 (20251019.1705)
 -->
<!-- Pages: 1 -->
<svg width="430pt" height="404pt"
 viewBox="0.00 0.00 430.00 404.00" xmlns="http://www.w3.org/2000/svg" xmlns:xlink="http://www.w3.org/1999/xlink">
<g id="graph0" class="graph" transform="scale(1 1) rotate(0) translate(4 400)">
<polygon fill="white" stroke="none" points="-4,4 -4,-400 426,-400 426,4 -4,4"/>
<g id="clust2" class="cluster">
<title>cluster_associated</title>
</g>
<!-- RoadLink -->
<g id="node1" class="node">
<title>RoadLink</title>
<g id="a_node1"><a xlink:href="../RoadLink.md" xlink:title="&lt;TABLE&gt;">
<polygon fill="lightgray" stroke="none" points="167,-305 167,-321.25 421,-321.25 421,-305 167,-305"/>
<text xml:space="preserve" text-anchor="start" x="268.12" y="-308.85" font-family="Arial" font-size="12.00">RoadLink</text>
<text xml:space="preserve" text-anchor="start" x="168" y="-292.6" font-family="Arial" font-size="12.00">«exactly 1» maxLanes: xsd:nonNegativeInteger</text>
<polygon fill="black" stroke="black" points="166,-305 166,-305 422,-305 422,-305 166,-305"/>
<polygon fill="none" stroke="black" points="166,-287.75 166,-322.25 422,-322.25 422,-287.75 166,-287.75"/>
</a>
</g>
</g>
<!-- Invis -->
<!-- RoadLink&#45;&gt;Invis -->
<!-- cdm1_CityUnits/Duration -->
<g id="node3" class="node">
<title>cdm1_CityUnits/Duration</title>
<polygon fill="lightgray" stroke="none" points="17.12,-197.88 17.12,-214.12 148.88,-214.12 148.88,-197.88 17.12,-197.88"/>
<text xml:space="preserve" text-anchor="start" x="18.12" y="-201.72" font-family="Arial" font-size="12.00">cdm1:CityUnits/Duration</text>
<polygon fill="none" stroke="black" points="16.12,-196.88 16.12,-215.12 149.88,-215.12 149.88,-196.88 16.12,-196.88"/>
</g>
<!-- RoadLink&#45;&gt;cdm1_CityUnits/Duration -->
<g id="edge9" class="edge">
<title>RoadLink&#45;&gt;cdm1_CityUnits/Duration</title>
<path fill="none" stroke="black" d="M168.84,-287.02C145.91,-282.12 126.17,-276.13 116.5,-269 105.04,-260.55 97.07,-246.97 91.8,-234.67"/>
<polygon fill="black" stroke="black" points="95.07,-233.42 88.22,-225.33 88.53,-235.93 95.07,-233.42"/>
<text xml:space="preserve" text-anchor="middle" x="144.25" y="-258.55" font-family="Arial" font-size="11.00"> travelTime </text>
<text xml:space="preserve" text-anchor="middle" x="144.25" y="-245.05" font-family="Arial" font-size="11.00"> «max 1» &#160;</text>
</g>
<!-- RoadLinkUserType -->
<g id="node4" class="node">
<title>RoadLinkUserType</title>
<g id="a_node4"><a xlink:href="../RoadLinkUserType.md" xlink:title="&lt;TABLE&gt;">
<polygon fill="lightgray" stroke="none" points="43.25,-98.88 43.25,-115.12 148.75,-115.12 148.75,-98.88 43.25,-98.88"/>
<text xml:space="preserve" text-anchor="start" x="44.25" y="-102.72" font-family="Arial" font-size="12.00">RoadLinkUserType</text>
<polygon fill="none" stroke="black" points="42.25,-97.88 42.25,-116.12 149.75,-116.12 149.75,-97.88 42.25,-97.88"/>
</a>
</g>
</g>
<!-- RoadLink&#45;&gt;RoadLinkUserType -->
<g id="edge8" class="edge">
<title>RoadLink&#45;&gt;RoadLinkUserType</title>
<path fill="none" stroke="black" d="M272.31,-287.01C252.72,-271.33 223.42,-247.07 199.75,-224 169.38,-194.41 137.25,-157.5 116.94,-133.37"/>
<polygon fill="black" stroke="black" points="119.83,-131.37 110.73,-125.95 114.46,-135.86 119.83,-131.37"/>
<text xml:space="preserve" text-anchor="middle" x="232.38" y="-209.05" font-family="Arial" font-size="11.00"> primaryUser </text>
<text xml:space="preserve" text-anchor="middle" x="232.38" y="-195.55" font-family="Arial" font-size="11.00"> «only» &#160;</text>
</g>
<!-- RoadLink&#45;&gt;RoadLinkUserType -->
<g id="edge10" class="edge">
<title>RoadLink&#45;&gt;RoadLinkUserType</title>
<path fill="none" stroke="black" d="M294.11,-287.04C293.4,-262.5 288.69,-216.89 265,-188 238.6,-155.81 196.25,-135.8 160.54,-123.84"/>
<polygon fill="black" stroke="black" points="161.73,-120.54 151.14,-120.84 159.61,-127.21 161.73,-120.54"/>
<text xml:space="preserve" text-anchor="middle" x="304.46" y="-209.05" font-family="Arial" font-size="11.00"> usedBy </text>
<text xml:space="preserve" text-anchor="middle" x="304.46" y="-195.55" font-family="Arial" font-size="11.00"> «only» &#160;</text>
</g>
<!-- VehicleFlowRate -->
<g id="node5" class="node">
<title>VehicleFlowRate</title>
<g id="a_node5"><a xlink:href="../VehicleFlowRate.md" xlink:title="&lt;TABLE&gt;">
<polygon fill="lightgray" stroke="none" points="54.25,-25.88 54.25,-42.12 147.75,-42.12 147.75,-25.88 54.25,-25.88"/>
<text xml:space="preserve" text-anchor="start" x="55.25" y="-29.73" font-family="Arial" font-size="12.00">VehicleFlowRate</text>
<polygon fill="none" stroke="black" points="53.25,-24.88 53.25,-43.12 148.75,-43.12 148.75,-24.88 53.25,-24.88"/>
</a>
</g>
</g>
<!-- RoadLink&#45;&gt;VehicleFlowRate -->
<g id="edge7" class="edge">
<title>RoadLink&#45;&gt;VehicleFlowRate</title>
<path fill="none" stroke="black" d="M306.95,-287.06C323.08,-263.73 346.52,-220.85 329,-188 293.36,-121.16 214.11,-78.35 159.13,-55.49"/>
<polygon fill="black" stroke="black" points="160.47,-52.25 149.88,-51.75 157.84,-58.74 160.47,-52.25"/>
<text xml:space="preserve" text-anchor="middle" x="349.49" y="-159.55" font-family="Arial" font-size="11.00"> capacity </text>
<text xml:space="preserve" text-anchor="middle" x="349.49" y="-146.05" font-family="Arial" font-size="11.00"> «exactly 1» &#160;</text>
</g>
<!-- cdm2_RoadLink -->
<g id="node6" class="node">
<title>cdm2_RoadLink</title>
<polygon fill="lightgray" stroke="none" points="195,-369.88 195,-386.12 281,-386.12 281,-369.88 195,-369.88"/>
<text xml:space="preserve" text-anchor="start" x="196" y="-373.73" font-family="Arial" font-size="12.00">cdm2:RoadLink</text>
<polygon fill="none" stroke="black" points="194,-368.88 194,-387.12 282,-387.12 282,-368.88 194,-368.88"/>
</g>
<!-- RoadLink&#45;&gt;cdm2_RoadLink -->
<g id="edge1" class="edge">
<title>RoadLink&#45;&gt;cdm2_RoadLink</title>
<path fill="none" stroke="black" d="M280.82,-322.71C274.07,-331.26 265.71,-341.87 258.17,-351.43"/>
<polygon fill="none" stroke="black" points="255.65,-348.97 252.21,-358.99 261.15,-353.3 255.65,-348.97"/>
</g>
<!-- TravelledWayLink -->
<g id="node7" class="node">
<title>TravelledWayLink</title>
<g id="a_node7"><a xlink:href="../TravelledWayLink.md" xlink:title="&lt;TABLE&gt;">
<polygon fill="lightgray" stroke="none" points="301,-369.88 301,-386.12 399,-386.12 399,-369.88 301,-369.88"/>
<text xml:space="preserve" text-anchor="start" x="302" y="-373.73" font-family="Arial" font-size="12.00">TravelledWayLink</text>
<polygon fill="none" stroke="black" points="300,-368.88 300,-387.12 400,-387.12 400,-368.88 300,-368.88"/>
</a>
</g>
</g>
<!-- RoadLink&#45;&gt;TravelledWayLink -->
<g id="edge2" class="edge">
<title>RoadLink&#45;&gt;TravelledWayLink</title>
<path fill="none" stroke="black" d="M307.18,-322.71C313.93,-331.26 322.29,-341.87 329.83,-351.43"/>
<polygon fill="none" stroke="black" points="326.85,-353.3 335.79,-358.99 332.35,-348.97 326.85,-353.3"/>
</g>
<!-- Invis&#45;&gt;cdm1_CityUnits/Duration -->
<!-- cdm1_CityUnits/Duration&#45;&gt;RoadLinkUserType -->
<!-- RoadLinkUserType&#45;&gt;VehicleFlowRate -->
</g>
</svg>
