<?xml version="1.0" encoding="UTF-8" standalone="no"?>
<!DOCTYPE svg PUBLIC "-//W3C//DTD SVG 1.1//EN"
 "http://www.w3.org/Graphics/SVG/1.1/DTD/svg11.dtd">
<!-- Generated by graphviz version 13.1.0 (20250701.0955)
 -->
<!-- Pages: 1 -->
<svg width="346pt" height="139pt"
 viewBox="0.00 0.00 346.00 139.00" xmlns="http://www.w3.org/2000/svg" xmlns:xlink="http://www.w3.org/1999/xlink">
<g id="graph0" class="graph" transform="scale(1 1) rotate(0) translate(4 135.38)">
<polygon fill="white" stroke="none" points="-4,4 -4,-135.38 342,-135.38 342,4 -4,4"/>
<g id="clust2" class="cluster">
<title>cluster_associated</title>
</g>
<!-- PublicTransportElement -->
<g id="node1" class="node">
<title>PublicTransportElement</title>
<polygon fill="lightgray" stroke="none" points="1,-105.25 1,-121.5 141,-121.5 141,-105.25 1,-105.25"/>
<text xml:space="preserve" text-anchor="start" x="2" y="-110.1" font-family="Arial" font-weight="bold" font-size="12.00">PublicTransportElement</text>
<polygon fill="none" stroke="black" points="0,-104.25 0,-122.5 142,-122.5 142,-104.25 0,-104.25"/>
</g>
<!-- TransportNode -->
<g id="node2" class="node">
<title>TransportNode</title>
<polygon fill="lightgray" stroke="none" points="160.88,-105.25 160.88,-121.5 249.12,-121.5 249.12,-105.25 160.88,-105.25"/>
<text xml:space="preserve" text-anchor="start" x="161.88" y="-110.1" font-family="Arial" font-weight="bold" font-size="12.00">TransportNode</text>
<polygon fill="none" stroke="black" points="159.88,-104.25 159.88,-122.5 250.12,-122.5 250.12,-104.25 159.88,-104.25"/>
</g>
<!-- RoutePoint -->
<g id="node3" class="node">
<title>RoutePoint</title>
<polygon fill="lightgray" stroke="none" points="26.75,-42.12 26.75,-58.38 249.25,-58.38 249.25,-42.12 26.75,-42.12"/>
<text xml:space="preserve" text-anchor="start" x="105.75" y="-46.98" font-family="Arial" font-weight="bold" font-size="12.00">RoutePoint</text>
<text xml:space="preserve" text-anchor="start" x="27.75" y="-29.73" font-family="Arial" font-size="12.00">isBorderCrossing: string «exactly 1, only»</text>
<text xml:space="preserve" text-anchor="start" x="27.75" y="-13.47" font-family="Arial" font-size="12.00">isViaPoint: string «max 1, only»</text>
<polygon fill="none" stroke="black" points="25.75,-8.62 25.75,-59.38 250.25,-59.38 250.25,-8.62 25.75,-8.62"/>
</g>
<!-- RoutePoint&#45;&gt;PublicTransportElement -->
<g id="edge1" class="edge">
<title>RoutePoint&#45;&gt;PublicTransportElement</title>
<path fill="none" stroke="black" d="M117.13,-59.1C109.44,-67.98 100.71,-78.06 92.93,-87.05"/>
<polygon fill="none" stroke="black" points="90.43,-84.59 86.53,-94.44 95.72,-89.17 90.43,-84.59"/>
</g>
<!-- RoutePoint&#45;&gt;TransportNode -->
<g id="edge2" class="edge">
<title>RoutePoint&#45;&gt;TransportNode</title>
<path fill="none" stroke="black" d="M158.87,-59.1C166.56,-67.98 175.29,-78.06 183.07,-87.05"/>
<polygon fill="none" stroke="black" points="180.28,-89.17 189.47,-94.44 185.57,-84.59 180.28,-89.17"/>
</g>
<!-- Invis -->
<!-- RoutePoint&#45;&gt;Invis -->
</g>
</svg>
