<?xml version="1.0" encoding="UTF-8" standalone="no"?>
<!DOCTYPE svg PUBLIC "-//W3C//DTD SVG 1.1//EN"
 "http://www.w3.org/Graphics/SVG/1.1/DTD/svg11.dtd">
<!-- Generated by graphviz version 14.0.2 (20251019.1705)
 -->
<!-- Pages: 1 -->
<svg width="341pt" height="139pt"
 viewBox="0.00 0.00 341.00 139.00" xmlns="http://www.w3.org/2000/svg" xmlns:xlink="http://www.w3.org/1999/xlink">
<g id="graph0" class="graph" transform="scale(1 1) rotate(0) translate(4 135.38)">
<polygon fill="white" stroke="none" points="-4,4 -4,-135.38 337.12,-135.38 337.12,4 -4,4"/>
<g id="clust2" class="cluster">
<title>cluster_associated</title>
</g>
<!-- RoutePoint -->
<g id="node1" class="node">
<title>RoutePoint</title>
<g id="a_node1"><a xlink:href="../RoutePoint.md" xlink:title="&lt;TABLE&gt;">
<polygon fill="lightgray" stroke="none" points="14.12,-42.12 14.12,-58.38 244.12,-58.38 244.12,-42.12 14.12,-42.12"/>
<text xml:space="preserve" text-anchor="start" x="99.12" y="-45.98" font-family="Arial" font-size="12.00">RoutePoint</text>
<text xml:space="preserve" text-anchor="start" x="15.12" y="-29.73" font-family="Arial" font-size="12.00">«exactly 1» isBorderCrossing: xsd:boolean</text>
<text xml:space="preserve" text-anchor="start" x="15.12" y="-13.47" font-family="Arial" font-size="12.00">«max 1» isViaPoint: xsd:boolean</text>
<polygon fill="black" stroke="black" points="13.12,-42.12 13.12,-42.12 245.12,-42.12 245.12,-42.12 13.12,-42.12"/>
<polygon fill="none" stroke="black" points="13.12,-8.62 13.12,-59.38 245.12,-59.38 245.12,-8.62 13.12,-8.62"/>
</a>
</g>
</g>
<!-- PublicTransportElement -->
<g id="node3" class="node">
<title>PublicTransportElement</title>
<g id="a_node3"><a xlink:href="../PublicTransportElement.md" xlink:title="&lt;TABLE&gt;">
<polygon fill="lightgray" stroke="none" points="1,-105.25 1,-121.5 131.25,-121.5 131.25,-105.25 1,-105.25"/>
<text xml:space="preserve" text-anchor="start" x="2" y="-109.1" font-family="Arial" font-size="12.00">PublicTransportElement</text>
<polygon fill="none" stroke="black" points="0,-104.25 0,-122.5 132.25,-122.5 132.25,-104.25 0,-104.25"/>
</a>
</g>
</g>
<!-- RoutePoint&#45;&gt;PublicTransportElement -->
<g id="edge1" class="edge">
<title>RoutePoint&#45;&gt;PublicTransportElement</title>
<path fill="none" stroke="black" d="M109.5,-59.1C102.35,-67.89 94.23,-77.85 86.97,-86.77"/>
<polygon fill="none" stroke="black" points="84.35,-84.45 80.75,-94.41 89.78,-88.87 84.35,-84.45"/>
</g>
<!-- TransportNode -->
<g id="node4" class="node">
<title>TransportNode</title>
<g id="a_node4"><a xlink:href="../TransportNode.md" xlink:title="&lt;TABLE&gt;">
<polygon fill="lightgray" stroke="none" points="151.38,-105.25 151.38,-121.5 232.88,-121.5 232.88,-105.25 151.38,-105.25"/>
<text xml:space="preserve" text-anchor="start" x="152.38" y="-109.1" font-family="Arial" font-size="12.00">TransportNode</text>
<polygon fill="none" stroke="black" points="150.38,-104.25 150.38,-122.5 233.88,-122.5 233.88,-104.25 150.38,-104.25"/>
</a>
</g>
</g>
<!-- RoutePoint&#45;&gt;TransportNode -->
<g id="edge2" class="edge">
<title>RoutePoint&#45;&gt;TransportNode</title>
<path fill="none" stroke="black" d="M148.75,-59.1C155.9,-67.89 164.02,-77.85 171.28,-86.77"/>
<polygon fill="none" stroke="black" points="168.47,-88.87 177.5,-94.41 173.9,-84.45 168.47,-88.87"/>
</g>
<!-- Invis -->
</g>
</svg>
