<?xml version="1.0" encoding="UTF-8" standalone="no"?>
<!DOCTYPE svg PUBLIC "-//W3C//DTD SVG 1.1//EN"
 "http://www.w3.org/Graphics/SVG/1.1/DTD/svg11.dtd">
<!-- Generated by graphviz version 13.1.0 (20250701.0955)
 -->
<!-- Pages: 1 -->
<svg width="264pt" height="302pt"
 viewBox="0.00 0.00 264.00 302.00" xmlns="http://www.w3.org/2000/svg" xmlns:xlink="http://www.w3.org/1999/xlink">
<g id="graph0" class="graph" transform="scale(1 1) rotate(0) translate(4 298)">
<polygon fill="white" stroke="none" points="-4,4 -4,-298 260.12,-298 260.12,4 -4,4"/>
<g id="clust2" class="cluster">
<title>cluster_associated</title>
</g>
<!-- ITSThing -->
<g id="node1" class="node">
<title>ITSThing</title>
<polygon fill="lightgray" stroke="none" points="21.25,-267.88 21.25,-284.12 75,-284.12 75,-267.88 21.25,-267.88"/>
<text xml:space="preserve" text-anchor="start" x="22.25" y="-272.73" font-family="Arial" font-weight="bold" font-size="12.00">ITSThing</text>
<polygon fill="none" stroke="black" points="20.25,-266.88 20.25,-285.12 76,-285.12 76,-266.88 20.25,-266.88"/>
</g>
<!-- ScheduledCode -->
<g id="node2" class="node">
<title>ScheduledCode</title>
<polygon fill="lightgray" stroke="none" points="1,-194.88 1,-211.12 95.25,-211.12 95.25,-194.88 1,-194.88"/>
<text xml:space="preserve" text-anchor="start" x="2" y="-199.72" font-family="Arial" font-weight="bold" font-size="12.00">ScheduledCode</text>
<polygon fill="none" stroke="black" points="0,-193.88 0,-212.12 96.25,-212.12 96.25,-193.88 0,-193.88"/>
</g>
<!-- ScheduledCode&#45;&gt;ITSThing -->
<g id="edge1" class="edge">
<title>ScheduledCode&#45;&gt;ITSThing</title>
<path fill="none" stroke="black" d="M48.12,-220.71C48.12,-228.47 48.12,-237.92 48.12,-246.74"/>
<polygon fill="none" stroke="black" points="44.63,-246.66 48.13,-256.66 51.63,-246.66 44.63,-246.66"/>
</g>
<!-- Invis -->
<!-- ScheduledCode&#45;&gt;Invis -->
<!-- code_Code -->
<g id="node4" class="node">
<title>code_Code</title>
<polygon fill="lightgray" stroke="none" points="143.62,-98.88 143.62,-115.12 208.62,-115.12 208.62,-98.88 143.62,-98.88"/>
<text xml:space="preserve" text-anchor="start" x="144.62" y="-103.72" font-family="Arial" font-weight="bold" font-size="12.00">code:Code</text>
<polygon fill="none" stroke="black" points="142.62,-97.88 142.62,-116.12 209.62,-116.12 209.62,-97.88 142.62,-97.88"/>
</g>
<!-- ScheduledCode&#45;&gt;code_Code -->
<g id="edge5" class="edge">
<title>ScheduledCode&#45;&gt;code_Code</title>
<path fill="none" stroke="black" d="M56.52,-185.25C63.8,-172.21 75.42,-154.46 89.88,-143 93.67,-139.99 112.8,-132.13 132.09,-124.62"/>
<polygon fill="black" stroke="black" points="133.24,-127.93 141.31,-121.07 130.72,-121.4 133.24,-127.93"/>
<text xml:space="preserve" text-anchor="middle" x="127" y="-157.5" font-family="Arial" font-size="10.00">«only»</text>
<text xml:space="preserve" text-anchor="middle" x="127" y="-145.5" font-family="Arial" font-size="10.00">onProperty: code</text>
</g>
<!-- time_DateTimeInterval -->
<g id="node5" class="node">
<title>time_DateTimeInterval</title>
<polygon fill="lightgray" stroke="none" points="113.62,-25.88 113.62,-42.12 238.62,-42.12 238.62,-25.88 113.62,-25.88"/>
<text xml:space="preserve" text-anchor="start" x="114.62" y="-30.73" font-family="Arial" font-weight="bold" font-size="12.00">time:DateTimeInterval</text>
<polygon fill="none" stroke="black" points="112.62,-24.88 112.62,-43.12 239.62,-43.12 239.62,-24.88 112.62,-24.88"/>
</g>
<!-- ScheduledCode&#45;&gt;time_DateTimeInterval -->
<g id="edge6" class="edge">
<title>ScheduledCode&#45;&gt;time_DateTimeInterval</title>
<path fill="none" stroke="black" d="M38.44,-185C26.38,-161.32 9.65,-118.02 29.88,-89 46.33,-65.38 74.35,-52.07 101.49,-44.57"/>
<polygon fill="black" stroke="black" points="102.3,-47.98 111.16,-42.16 100.61,-41.19 102.3,-47.98"/>
<text xml:space="preserve" text-anchor="middle" x="82" y="-109.5" font-family="Arial" font-size="10.00">«exactly 1, only»</text>
<text xml:space="preserve" text-anchor="middle" x="82" y="-97.5" font-family="Arial" font-size="10.00">onProperty: timeInterval</text>
</g>
<!-- Invis&#45;&gt;code_Code -->
<!-- code_Code&#45;&gt;time_DateTimeInterval -->
</g>
</svg>
