<?xml version="1.0" encoding="UTF-8" standalone="no"?>
<!DOCTYPE svg PUBLIC "-//W3C//DTD SVG 1.1//EN"
 "http://www.w3.org/Graphics/SVG/1.1/DTD/svg11.dtd">
<!-- Generated by graphviz version 14.0.2 (20251019.1705)
 -->
<!-- Pages: 1 -->
<svg width="280pt" height="232pt"
 viewBox="0.00 0.00 280.00 232.00" xmlns="http://www.w3.org/2000/svg" xmlns:xlink="http://www.w3.org/1999/xlink">
<g id="graph0" class="graph" transform="scale(1 1) rotate(0) translate(4 228)">
<polygon fill="white" stroke="none" points="-4,4 -4,-228 276,-228 276,4 -4,4"/>
<g id="clust2" class="cluster">
<title>cluster_associated</title>
</g>
<!-- ScheduledCode -->
<g id="node1" class="node">
<title>ScheduledCode</title>
<g id="a_node1"><a xlink:href="../ScheduledCode.md" xlink:title="&lt;TABLE&gt;">
<polygon fill="lightgray" stroke="none" points="161.5,-124.88 161.5,-141.12 250.5,-141.12 250.5,-124.88 161.5,-124.88"/>
<text xml:space="preserve" text-anchor="start" x="162.5" y="-128.72" font-family="Arial" font-size="12.00">ScheduledCode</text>
<polygon fill="none" stroke="black" points="160.5,-123.88 160.5,-142.12 251.5,-142.12 251.5,-123.88 160.5,-123.88"/>
</a>
</g>
</g>
<!-- Invis -->
<!-- ScheduledCode&#45;&gt;Invis -->
<!-- time1_DateTimeInterval -->
<g id="node3" class="node">
<title>time1_DateTimeInterval</title>
<polygon fill="lightgray" stroke="none" points="17.5,-25.88 17.5,-42.12 142.5,-42.12 142.5,-25.88 17.5,-25.88"/>
<text xml:space="preserve" text-anchor="start" x="18.5" y="-29.73" font-family="Arial" font-size="12.00">time1:DateTimeInterval</text>
<polygon fill="none" stroke="black" points="16.5,-24.88 16.5,-43.12 143.5,-43.12 143.5,-24.88 16.5,-24.88"/>
</g>
<!-- ScheduledCode&#45;&gt;time1_DateTimeInterval -->
<g id="edge5" class="edge">
<title>ScheduledCode&#45;&gt;time1_DateTimeInterval</title>
<path fill="none" stroke="black" d="M184.05,-115.1C163.73,-99.46 133.3,-76.03 110.6,-58.55"/>
<polygon fill="black" stroke="black" points="112.95,-55.95 102.9,-52.63 108.68,-61.5 112.95,-55.95"/>
<text xml:space="preserve" text-anchor="middle" x="202.24" y="-86.55" font-family="Arial" font-size="11.00"> timeInterval </text>
<text xml:space="preserve" text-anchor="middle" x="202.24" y="-73.05" font-family="Arial" font-size="11.00"> «exactly 1, only» &#160;</text>
</g>
<!-- cdm2_Code -->
<g id="node4" class="node">
<title>cdm2_Code</title>
<polygon fill="lightgray" stroke="none" points="135.25,-197.88 135.25,-214.12 198.75,-214.12 198.75,-197.88 135.25,-197.88"/>
<text xml:space="preserve" text-anchor="start" x="136.25" y="-201.72" font-family="Arial" font-size="12.00">cdm2:Code</text>
<polygon fill="none" stroke="black" points="134.25,-196.88 134.25,-215.12 199.75,-215.12 199.75,-196.88 134.25,-196.88"/>
</g>
<!-- ScheduledCode&#45;&gt;cdm2_Code -->
<g id="edge1" class="edge">
<title>ScheduledCode&#45;&gt;cdm2_Code</title>
<path fill="none" stroke="black" d="M196.82,-150.71C192.32,-158.91 186.78,-169 181.7,-178.24"/>
<polygon fill="none" stroke="black" points="178.72,-176.4 176.97,-186.85 184.85,-179.77 178.72,-176.4"/>
</g>
<!-- ITSThing -->
<g id="node5" class="node">
<title>ITSThing</title>
<polygon fill="lightgray" stroke="none" points="219.25,-197.88 219.25,-214.12 270.75,-214.12 270.75,-197.88 219.25,-197.88"/>
<text xml:space="preserve" text-anchor="start" x="220.25" y="-201.72" font-family="Arial" font-size="12.00">ITSThing</text>
<polygon fill="none" stroke="black" points="218.25,-196.88 218.25,-215.12 271.75,-215.12 271.75,-196.88 218.25,-196.88"/>
</g>
<!-- ScheduledCode&#45;&gt;ITSThing -->
<g id="edge2" class="edge">
<title>ScheduledCode&#45;&gt;ITSThing</title>
<path fill="none" stroke="black" d="M215.18,-150.71C219.68,-158.91 225.22,-169 230.3,-178.24"/>
<polygon fill="none" stroke="black" points="227.15,-179.77 235.03,-186.85 233.28,-176.4 227.15,-179.77"/>
</g>
<!-- Invis&#45;&gt;time1_DateTimeInterval -->
</g>
</svg>
