<?xml version="1.0" encoding="UTF-8" standalone="no"?>
<!DOCTYPE svg PUBLIC "-//W3C//DTD SVG 1.1//EN"
 "http://www.w3.org/Graphics/SVG/1.1/DTD/svg11.dtd">
<!-- Generated by graphviz version 13.1.0 (20250701.0955)
 -->
<!-- Pages: 1 -->
<svg width="265pt" height="290pt"
 viewBox="0.00 0.00 265.00 290.00" xmlns="http://www.w3.org/2000/svg" xmlns:xlink="http://www.w3.org/1999/xlink">
<g id="graph0" class="graph" transform="scale(1 1) rotate(0) translate(4 286)">
<polygon fill="white" stroke="none" points="-4,4 -4,-286 261.11,-286 261.11,4 -4,4"/>
<g id="clust2" class="cluster">
<title>cluster_associated</title>
</g>
<!-- ITSThing -->
<g id="node1" class="node">
<title>ITSThing</title>
<polygon fill="lightgray" stroke="none" points="22.23,-255.88 22.23,-272.12 75.98,-272.12 75.98,-255.88 22.23,-255.88"/>
<text xml:space="preserve" text-anchor="start" x="23.23" y="-260.73" font-family="Arial" font-weight="bold" font-size="12.00">ITSThing</text>
<polygon fill="none" stroke="black" points="21.23,-254.88 21.23,-273.12 76.98,-273.12 76.98,-254.88 21.23,-254.88"/>
</g>
<!-- ScheduledCode -->
<g id="node2" class="node">
<title>ScheduledCode</title>
<polygon fill="lightgray" stroke="none" points="1.98,-182.88 1.98,-199.12 96.23,-199.12 96.23,-182.88 1.98,-182.88"/>
<text xml:space="preserve" text-anchor="start" x="2.98" y="-187.72" font-family="Arial" font-weight="bold" font-size="12.00">ScheduledCode</text>
<polygon fill="none" stroke="black" points="0.98,-181.88 0.98,-200.12 97.23,-200.12 97.23,-181.88 0.98,-181.88"/>
</g>
<!-- ScheduledCode&#45;&gt;ITSThing -->
<g id="edge1" class="edge">
<title>ScheduledCode&#45;&gt;ITSThing</title>
<path fill="none" stroke="black" d="M49.11,-208.71C49.11,-216.47 49.11,-225.92 49.11,-234.74"/>
<polygon fill="none" stroke="black" points="45.61,-234.66 49.11,-244.66 52.61,-234.66 45.61,-234.66"/>
</g>
<!-- Invis -->
<!-- ScheduledCode&#45;&gt;Invis -->
<!-- code_Code -->
<g id="node4" class="node">
<title>code_Code</title>
<polygon fill="lightgray" stroke="none" points="144.61,-98.88 144.61,-115.12 209.61,-115.12 209.61,-98.88 144.61,-98.88"/>
<text xml:space="preserve" text-anchor="start" x="145.61" y="-103.72" font-family="Arial" font-weight="bold" font-size="12.00">code:Code</text>
<polygon fill="none" stroke="black" points="143.61,-97.88 143.61,-116.12 210.61,-116.12 210.61,-97.88 143.61,-97.88"/>
</g>
<!-- ScheduledCode&#45;&gt;code_Code -->
<g id="edge5" class="edge">
<title>ScheduledCode&#45;&gt;code_Code</title>
<path fill="none" stroke="black" d="M71.81,-173.12C84.49,-163.91 100.7,-152.48 115.61,-143 122.16,-138.84 129.22,-134.6 136.14,-130.57"/>
<polygon fill="black" stroke="black" points="137.85,-133.63 144.79,-125.62 134.37,-127.55 137.85,-133.63"/>
<text xml:space="preserve" text-anchor="middle" x="141.86" y="-145.5" font-family="Arial" font-size="10.00">«only» code</text>
</g>
<!-- time_DateTimeInterval -->
<g id="node5" class="node">
<title>time_DateTimeInterval</title>
<polygon fill="lightgray" stroke="none" points="114.61,-25.88 114.61,-42.12 239.61,-42.12 239.61,-25.88 114.61,-25.88"/>
<text xml:space="preserve" text-anchor="start" x="115.61" y="-30.73" font-family="Arial" font-weight="bold" font-size="12.00">time:DateTimeInterval</text>
<polygon fill="none" stroke="black" points="113.61,-24.88 113.61,-43.12 240.61,-43.12 240.61,-24.88 113.61,-24.88"/>
</g>
<!-- ScheduledCode&#45;&gt;time_DateTimeInterval -->
<g id="edge6" class="edge">
<title>ScheduledCode&#45;&gt;time_DateTimeInterval</title>
<path fill="none" stroke="black" d="M32.21,-173.03C13.26,-151.91 -12.45,-115.38 6.86,-89 28.84,-58.97 67.63,-45.23 102.63,-39.1"/>
<polygon fill="black" stroke="black" points="102.99,-42.59 112.34,-37.6 101.92,-35.67 102.99,-42.59"/>
<text xml:space="preserve" text-anchor="middle" x="70.98" y="-103.5" font-family="Arial" font-size="10.00">«exactly 1, only» timeInterval</text>
</g>
<!-- Invis&#45;&gt;code_Code -->
<!-- code_Code&#45;&gt;time_DateTimeInterval -->
</g>
</svg>
