<?xml version="1.0" encoding="UTF-8" standalone="no"?>
<!DOCTYPE svg PUBLIC "-//W3C//DTD SVG 1.1//EN"
 "http://www.w3.org/Graphics/SVG/1.1/DTD/svg11.dtd">
<!-- Generated by graphviz version 13.1.0 (20250701.0955)
 -->
<!-- Pages: 1 -->
<svg width="445pt" height="447pt"
 viewBox="0.00 0.00 445.00 447.00" xmlns="http://www.w3.org/2000/svg" xmlns:xlink="http://www.w3.org/1999/xlink">
<g id="graph0" class="graph" transform="scale(1 1) rotate(0) translate(4 443)">
<polygon fill="white" stroke="none" points="-4,4 -4,-443 441.25,-443 441.25,4 -4,4"/>
<g id="clust2" class="cluster">
<title>cluster_associated</title>
</g>
<!-- TravelledWayLink -->
<g id="node1" class="node">
<title>TravelledWayLink</title>
<polygon fill="lightgray" stroke="none" points="3.38,-412.88 3.38,-429.12 106.62,-429.12 106.62,-412.88 3.38,-412.88"/>
<text xml:space="preserve" text-anchor="start" x="4.38" y="-417.73" font-family="Arial" font-weight="bold" font-size="12.00">TravelledWayLink</text>
<polygon fill="none" stroke="black" points="2.38,-411.88 2.38,-430.12 107.62,-430.12 107.62,-411.88 2.38,-411.88"/>
</g>
<!-- TrackLink -->
<g id="node2" class="node">
<title>TrackLink</title>
<polygon fill="lightgray" stroke="none" points="41.88,-328.88 41.88,-345.12 100.12,-345.12 100.12,-328.88 41.88,-328.88"/>
<text xml:space="preserve" text-anchor="start" x="42.88" y="-333.73" font-family="Arial" font-weight="bold" font-size="12.00">TrackLink</text>
<polygon fill="none" stroke="black" points="40.88,-327.88 40.88,-346.12 101.12,-346.12 101.12,-327.88 40.88,-327.88"/>
</g>
<!-- TrackLink&#45;&gt;TravelledWayLink -->
<g id="edge1" class="edge">
<title>TrackLink&#45;&gt;TravelledWayLink</title>
<path fill="none" stroke="black" d="M67.69,-354.97C65.61,-365.63 62.88,-379.64 60.48,-391.92"/>
<polygon fill="none" stroke="black" points="57.09,-391.04 58.61,-401.52 63.96,-392.38 57.09,-391.04"/>
</g>
<!-- Invis -->
<!-- TrackLink&#45;&gt;Invis -->
<!-- TrackSegment -->
<g id="node7" class="node">
<title>TrackSegment</title>
<polygon fill="lightgray" stroke="none" points="198.75,-25.88 198.75,-42.12 283.25,-42.12 283.25,-25.88 198.75,-25.88"/>
<text xml:space="preserve" text-anchor="start" x="199.75" y="-30.73" font-family="Arial" font-weight="bold" font-size="12.00">TrackSegment</text>
<polygon fill="none" stroke="black" points="197.75,-24.88 197.75,-43.12 284.25,-43.12 284.25,-24.88 197.75,-24.88"/>
</g>
<!-- TrackLink&#45;&gt;TrackSegment -->
<g id="edge7" class="edge">
<title>TrackLink&#45;&gt;TrackSegment</title>
<path fill="none" stroke="black" stroke-dasharray="5,2" d="M43.35,-319.12C23.41,-304.61 0,-281.68 0,-254 0,-254 0,-254 0,-106 0,-67.37 115.39,-48.2 186.48,-40.06"/>
<polygon fill="black" stroke="black" points="186.85,-43.54 196.41,-38.97 186.09,-36.59 186.85,-43.54"/>
<text xml:space="preserve" text-anchor="middle" x="96" y="-176.5" font-family="Arial" font-size="10.00">«only» onProperty: partwhole:hasProperPart</text>
</g>
<!-- Union_partwhole_properPartOf -->
<g id="node8" class="node">
<title>Union_partwhole_properPartOf</title>
<polygon fill="lightyellow" stroke="none" points="200.75,-404.75 200.75,-437.25 437.25,-437.25 437.25,-404.75 200.75,-404.75"/>
<text xml:space="preserve" text-anchor="start" x="291.25" y="-423.85" font-family="Arial" font-size="12.00">«unionOf»</text>
<text xml:space="preserve" text-anchor="start" x="202.75" y="-409.6" font-family="Arial" font-size="12.00">[RailCorridor or RailNetwork or RailSection]</text>
<polygon fill="none" stroke="black" points="200.75,-404.75 200.75,-437.25 437.25,-437.25 437.25,-404.75 200.75,-404.75"/>
</g>
<!-- TrackLink&#45;&gt;Union_partwhole_properPartOf -->
<g id="edge11" class="edge">
<title>TrackLink&#45;&gt;Union_partwhole_properPartOf</title>
<path fill="none" stroke="black" stroke-dasharray="5,2" d="M73.06,-354.84C75.23,-365.12 79.66,-377.65 88.75,-385 105.16,-398.28 146.49,-406.55 189.67,-411.68"/>
<polygon fill="black" stroke="black" points="189.15,-415.15 199.47,-412.79 189.93,-408.19 189.15,-415.15"/>
<text xml:space="preserve" text-anchor="middle" x="181.38" y="-375.5" font-family="Arial" font-size="10.00">«only» onProperty: partwhole:properPartOf</text>
</g>
<!-- RailCorridor -->
<g id="node4" class="node">
<title>RailCorridor</title>
<polygon fill="lightgray" stroke="none" points="211.12,-244.88 211.12,-261.12 282.88,-261.12 282.88,-244.88 211.12,-244.88"/>
<text xml:space="preserve" text-anchor="start" x="212.12" y="-249.72" font-family="Arial" font-weight="bold" font-size="12.00">RailCorridor</text>
<polygon fill="none" stroke="black" points="210.12,-243.88 210.12,-262.12 283.88,-262.12 283.88,-243.88 210.12,-243.88"/>
</g>
<!-- Invis&#45;&gt;RailCorridor -->
<!-- RailNetwork -->
<g id="node5" class="node">
<title>RailNetwork</title>
<polygon fill="lightgray" stroke="none" points="211.5,-171.88 211.5,-188.12 282.5,-188.12 282.5,-171.88 211.5,-171.88"/>
<text xml:space="preserve" text-anchor="start" x="212.5" y="-176.72" font-family="Arial" font-weight="bold" font-size="12.00">RailNetwork</text>
<polygon fill="none" stroke="black" points="210.5,-170.88 210.5,-189.12 283.5,-189.12 283.5,-170.88 210.5,-170.88"/>
</g>
<!-- RailCorridor&#45;&gt;RailNetwork -->
<!-- RailSection -->
<g id="node6" class="node">
<title>RailSection</title>
<polygon fill="lightgray" stroke="none" points="213.38,-98.88 213.38,-115.12 280.62,-115.12 280.62,-98.88 213.38,-98.88"/>
<text xml:space="preserve" text-anchor="start" x="214.38" y="-103.72" font-family="Arial" font-weight="bold" font-size="12.00">RailSection</text>
<polygon fill="none" stroke="black" points="212.38,-97.88 212.38,-116.12 281.62,-116.12 281.62,-97.88 212.38,-97.88"/>
</g>
<!-- RailNetwork&#45;&gt;RailSection -->
<!-- RailSection&#45;&gt;TrackSegment -->
<!-- Union_partwhole_properPartOf&#45;&gt;RailCorridor -->
<g id="edge8" class="edge">
<title>Union_partwhole_properPartOf&#45;&gt;RailCorridor</title>
<path fill="none" stroke="black" stroke-dasharray="1,5" d="M311.7,-403.17C299.25,-374.46 273.8,-315.78 258.79,-281.19"/>
<polygon fill="black" stroke="black" points="262.11,-280.05 254.92,-272.26 255.69,-282.83 262.11,-280.05"/>
<text xml:space="preserve" text-anchor="middle" x="311.28" y="-333.5" font-family="Arial" font-size="10.00">member</text>
</g>
<!-- Union_partwhole_properPartOf&#45;&gt;RailNetwork -->
<g id="edge9" class="edge">
<title>Union_partwhole_properPartOf&#45;&gt;RailNetwork</title>
<path fill="none" stroke="black" stroke-dasharray="1,5" d="M325.04,-403.04C331.38,-382.85 339.59,-348.18 333,-319 323.89,-278.67 315.49,-269.7 293,-235 286.54,-225.03 278.41,-214.9 270.8,-206.16"/>
<polygon fill="black" stroke="black" points="273.42,-203.84 264.14,-198.73 268.21,-208.51 273.42,-203.84"/>
<text xml:space="preserve" text-anchor="middle" x="345.99" y="-291.5" font-family="Arial" font-size="10.00">member</text>
</g>
<!-- Union_partwhole_properPartOf&#45;&gt;RailSection -->
<g id="edge10" class="edge">
<title>Union_partwhole_properPartOf&#45;&gt;RailSection</title>
<path fill="none" stroke="black" stroke-dasharray="1,5" d="M352.83,-403C375.41,-389 401,-366.79 401,-338 401,-338 401,-338 401,-179 401,-130.93 338.35,-115.29 292.97,-110.28"/>
<polygon fill="black" stroke="black" points="293.35,-106.8 283.07,-109.34 292.69,-113.77 293.35,-106.8"/>
<text xml:space="preserve" text-anchor="middle" x="418.62" y="-249.5" font-family="Arial" font-size="10.00">member</text>
</g>
</g>
</svg>
