<?xml version="1.0" encoding="UTF-8" standalone="no"?>
<!DOCTYPE svg PUBLIC "-//W3C//DTD SVG 1.1//EN"
 "http://www.w3.org/Graphics/SVG/1.1/DTD/svg11.dtd">
<!-- Generated by graphviz version 13.1.0 (20250701.0955)
 -->
<!-- Pages: 1 -->
<svg width="413pt" height="459pt"
 viewBox="0.00 0.00 413.00 459.00" xmlns="http://www.w3.org/2000/svg" xmlns:xlink="http://www.w3.org/1999/xlink">
<g id="graph0" class="graph" transform="scale(1 1) rotate(0) translate(4 455)">
<polygon fill="white" stroke="none" points="-4,4 -4,-455 409.25,-455 409.25,4 -4,4"/>
<g id="clust2" class="cluster">
<title>cluster_associated</title>
</g>
<!-- TravelledWayLink -->
<g id="node1" class="node">
<title>TravelledWayLink</title>
<polygon fill="lightgray" stroke="none" points="2.38,-424.88 2.38,-441.12 105.62,-441.12 105.62,-424.88 2.38,-424.88"/>
<text xml:space="preserve" text-anchor="start" x="3.38" y="-429.73" font-family="Arial" font-weight="bold" font-size="12.00">TravelledWayLink</text>
<polygon fill="none" stroke="black" points="1.38,-423.88 1.38,-442.12 106.62,-442.12 106.62,-423.88 1.38,-423.88"/>
</g>
<!-- TrackLink -->
<g id="node2" class="node">
<title>TrackLink</title>
<polygon fill="lightgray" stroke="none" points="40.88,-328.88 40.88,-345.12 99.12,-345.12 99.12,-328.88 40.88,-328.88"/>
<text xml:space="preserve" text-anchor="start" x="41.88" y="-333.73" font-family="Arial" font-weight="bold" font-size="12.00">TrackLink</text>
<polygon fill="none" stroke="black" points="39.88,-327.88 39.88,-346.12 100.12,-346.12 100.12,-327.88 39.88,-327.88"/>
</g>
<!-- TrackLink&#45;&gt;TravelledWayLink -->
<g id="edge1" class="edge">
<title>TrackLink&#45;&gt;TravelledWayLink</title>
<path fill="none" stroke="black" d="M67.11,-354.98C64.8,-368.58 61.5,-387.94 58.79,-403.85"/>
<polygon fill="none" stroke="black" points="55.34,-403.26 57.11,-413.7 62.24,-404.43 55.34,-403.26"/>
</g>
<!-- Invis -->
<!-- TrackLink&#45;&gt;Invis -->
<!-- TrackSegment -->
<g id="node7" class="node">
<title>TrackSegment</title>
<polygon fill="lightgray" stroke="none" points="166.75,-25.88 166.75,-42.12 251.25,-42.12 251.25,-25.88 166.75,-25.88"/>
<text xml:space="preserve" text-anchor="start" x="167.75" y="-30.73" font-family="Arial" font-weight="bold" font-size="12.00">TrackSegment</text>
<polygon fill="none" stroke="black" points="165.75,-24.88 165.75,-43.12 252.25,-43.12 252.25,-24.88 165.75,-24.88"/>
</g>
<!-- TrackLink&#45;&gt;TrackSegment -->
<g id="edge7" class="edge">
<title>TrackLink&#45;&gt;TrackSegment</title>
<path fill="none" stroke="black" stroke-dasharray="5,2" d="M42.74,-319.03C23.08,-304.47 0,-281.52 0,-254 0,-254 0,-254 0,-106 0,-73.31 92.85,-52.65 154.77,-42.51"/>
<polygon fill="black" stroke="black" points="155.12,-46 164.45,-40.98 154.03,-39.09 155.12,-46"/>
<text xml:space="preserve" text-anchor="middle" x="80.25" y="-182.5" font-family="Arial" font-size="10.00">«only»</text>
<text xml:space="preserve" text-anchor="middle" x="80.25" y="-170.5" font-family="Arial" font-size="10.00">onProperty: partwhole:hasProperPart</text>
</g>
<!-- Union_partwhole_properPartOf -->
<g id="node8" class="node">
<title>Union_partwhole_properPartOf</title>
<polygon fill="lightyellow" stroke="none" points="168.75,-416.75 168.75,-449.25 405.25,-449.25 405.25,-416.75 168.75,-416.75"/>
<text xml:space="preserve" text-anchor="start" x="259.25" y="-435.85" font-family="Arial" font-size="12.00">«unionOf»</text>
<text xml:space="preserve" text-anchor="start" x="170.75" y="-421.6" font-family="Arial" font-size="12.00">[RailCorridor or RailNetwork or RailSection]</text>
<polygon fill="none" stroke="black" points="168.75,-416.75 168.75,-449.25 405.25,-449.25 405.25,-416.75 168.75,-416.75"/>
</g>
<!-- TrackLink&#45;&gt;Union_partwhole_properPartOf -->
<g id="edge11" class="edge">
<title>TrackLink&#45;&gt;Union_partwhole_properPartOf</title>
<path fill="none" stroke="black" stroke-dasharray="5,2" d="M70.62,-354.77C72.05,-368.18 76.27,-386.44 88.25,-397 99.86,-407.23 127.12,-414.57 157.85,-419.79"/>
<polygon fill="black" stroke="black" points="156.92,-423.19 167.35,-421.32 158.03,-416.28 156.92,-423.19"/>
<text xml:space="preserve" text-anchor="middle" x="165.12" y="-387.5" font-family="Arial" font-size="10.00">«only»</text>
<text xml:space="preserve" text-anchor="middle" x="165.12" y="-375.5" font-family="Arial" font-size="10.00">onProperty: partwhole:properPartOf</text>
</g>
<!-- RailCorridor -->
<g id="node4" class="node">
<title>RailCorridor</title>
<polygon fill="lightgray" stroke="none" points="179.12,-244.88 179.12,-261.12 250.88,-261.12 250.88,-244.88 179.12,-244.88"/>
<text xml:space="preserve" text-anchor="start" x="180.12" y="-249.72" font-family="Arial" font-weight="bold" font-size="12.00">RailCorridor</text>
<polygon fill="none" stroke="black" points="178.12,-243.88 178.12,-262.12 251.88,-262.12 251.88,-243.88 178.12,-243.88"/>
</g>
<!-- Invis&#45;&gt;RailCorridor -->
<!-- RailNetwork -->
<g id="node5" class="node">
<title>RailNetwork</title>
<polygon fill="lightgray" stroke="none" points="179.5,-171.88 179.5,-188.12 250.5,-188.12 250.5,-171.88 179.5,-171.88"/>
<text xml:space="preserve" text-anchor="start" x="180.5" y="-176.72" font-family="Arial" font-weight="bold" font-size="12.00">RailNetwork</text>
<polygon fill="none" stroke="black" points="178.5,-170.88 178.5,-189.12 251.5,-189.12 251.5,-170.88 178.5,-170.88"/>
</g>
<!-- RailCorridor&#45;&gt;RailNetwork -->
<!-- RailSection -->
<g id="node6" class="node">
<title>RailSection</title>
<polygon fill="lightgray" stroke="none" points="181.38,-98.88 181.38,-115.12 248.62,-115.12 248.62,-98.88 181.38,-98.88"/>
<text xml:space="preserve" text-anchor="start" x="182.38" y="-103.72" font-family="Arial" font-weight="bold" font-size="12.00">RailSection</text>
<polygon fill="none" stroke="black" points="180.38,-97.88 180.38,-116.12 249.62,-116.12 249.62,-97.88 180.38,-97.88"/>
</g>
<!-- RailNetwork&#45;&gt;RailSection -->
<!-- RailSection&#45;&gt;TrackSegment -->
<!-- Union_partwhole_properPartOf&#45;&gt;RailCorridor -->
<g id="edge8" class="edge">
<title>Union_partwhole_properPartOf&#45;&gt;RailCorridor</title>
<path fill="none" stroke="black" stroke-dasharray="1,5" d="M280.23,-415.25C267.79,-384.51 241.21,-318.8 226.1,-281.44"/>
<polygon fill="black" stroke="black" points="229.37,-280.19 222.38,-272.23 222.88,-282.82 229.37,-280.19"/>
<text xml:space="preserve" text-anchor="middle" x="275.78" y="-333.5" font-family="Arial" font-size="10.00">member</text>
</g>
<!-- Union_partwhole_properPartOf&#45;&gt;RailNetwork -->
<g id="edge9" class="edge">
<title>Union_partwhole_properPartOf&#45;&gt;RailNetwork</title>
<path fill="none" stroke="black" stroke-dasharray="1,5" d="M291.45,-415.36C296.71,-393.17 303.93,-352.76 297,-319 288.83,-279.21 282.41,-269.52 261,-235 254.83,-225.06 246.91,-215.06 239.38,-206.41"/>
<polygon fill="black" stroke="black" points="242.07,-204.17 232.78,-199.08 236.87,-208.85 242.07,-204.17"/>
<text xml:space="preserve" text-anchor="middle" x="310.36" y="-291.5" font-family="Arial" font-size="10.00">member</text>
</g>
<!-- Union_partwhole_properPartOf&#45;&gt;RailSection -->
<g id="edge10" class="edge">
<title>Union_partwhole_properPartOf&#45;&gt;RailSection</title>
<path fill="none" stroke="black" stroke-dasharray="1,5" d="M315.68,-415.01C339.33,-398.59 369,-371.35 369,-338 369,-338 369,-338 369,-179 369,-130.93 306.35,-115.29 260.97,-110.28"/>
<polygon fill="black" stroke="black" points="261.35,-106.8 251.07,-109.34 260.69,-113.77 261.35,-106.8"/>
<text xml:space="preserve" text-anchor="middle" x="386.62" y="-249.5" font-family="Arial" font-size="10.00">member</text>
</g>
</g>
</svg>
