<?xml version="1.0" encoding="UTF-8" standalone="no"?>
<!DOCTYPE svg PUBLIC "-//W3C//DTD SVG 1.1//EN"
 "http://www.w3.org/Graphics/SVG/1.1/DTD/svg11.dtd">
<!-- Generated by graphviz version 13.1.0 (20250701.0955)
 -->
<!-- Pages: 1 -->
<svg width="391pt" height="301pt"
 viewBox="0.00 0.00 391.00 301.00" xmlns="http://www.w3.org/2000/svg" xmlns:xlink="http://www.w3.org/1999/xlink">
<g id="graph0" class="graph" transform="scale(1 1) rotate(0) translate(4 297)">
<polygon fill="white" stroke="none" points="-4,4 -4,-297 387.47,-297 387.47,4 -4,4"/>
<g id="clust2" class="cluster">
<title>cluster_associated</title>
</g>
<!-- TravelledWaySegment -->
<g id="node1" class="node">
<title>TravelledWaySegment</title>
<polygon fill="lightgray" stroke="none" points="15.47,-266.88 15.47,-283.12 144.97,-283.12 144.97,-266.88 15.47,-266.88"/>
<text xml:space="preserve" text-anchor="start" x="16.47" y="-271.73" font-family="Arial" font-weight="bold" font-size="12.00">TravelledWaySegment</text>
<polygon fill="none" stroke="black" points="14.47,-265.88 14.47,-284.12 145.97,-284.12 145.97,-265.88 14.47,-265.88"/>
</g>
<!-- TrackSegment -->
<g id="node2" class="node">
<title>TrackSegment</title>
<polygon fill="lightgray" stroke="none" points="53.97,-182.88 53.97,-199.12 138.47,-199.12 138.47,-182.88 53.97,-182.88"/>
<text xml:space="preserve" text-anchor="start" x="54.97" y="-187.72" font-family="Arial" font-weight="bold" font-size="12.00">TrackSegment</text>
<polygon fill="none" stroke="black" points="52.97,-181.88 52.97,-200.12 139.47,-200.12 139.47,-181.88 52.97,-181.88"/>
</g>
<!-- TrackSegment&#45;&gt;TravelledWaySegment -->
<g id="edge1" class="edge">
<title>TrackSegment&#45;&gt;TravelledWaySegment</title>
<path fill="none" stroke="black" d="M92.91,-208.97C90.83,-219.63 88.1,-233.64 85.7,-245.92"/>
<polygon fill="none" stroke="black" points="82.31,-245.04 83.83,-255.52 89.18,-246.38 82.31,-245.04"/>
</g>
<!-- Invis -->
<!-- TrackSegment&#45;&gt;Invis -->
<!-- TrackLink -->
<g id="node5" class="node">
<title>TrackLink</title>
<polygon fill="lightgray" stroke="none" points="229.1,-25.88 229.1,-42.12 287.35,-42.12 287.35,-25.88 229.1,-25.88"/>
<text xml:space="preserve" text-anchor="start" x="230.1" y="-30.73" font-family="Arial" font-weight="bold" font-size="12.00">TrackLink</text>
<polygon fill="none" stroke="black" points="228.1,-24.88 228.1,-43.12 288.35,-43.12 288.35,-24.88 228.1,-24.88"/>
</g>
<!-- TrackSegment&#45;&gt;TrackLink -->
<g id="edge8" class="edge">
<title>TrackSegment&#45;&gt;TrackLink</title>
<path fill="none" stroke="black" stroke-dasharray="5,2" d="M62.85,-173.05C28.32,-153.29 -17.37,-119.45 7.22,-89 33.13,-56.93 152.66,-43.01 216.98,-37.76"/>
<polygon fill="black" stroke="black" points="217.1,-41.26 226.8,-36.99 216.56,-34.28 217.1,-41.26"/>
<text xml:space="preserve" text-anchor="middle" x="110.72" y="-103.5" font-family="Arial" font-size="10.00">«exactly 1» onProperty: partwhole:properPartOf</text>
</g>
<!-- Union_partwhole_properPartOf -->
<g id="node6" class="node">
<title>Union_partwhole_properPartOf</title>
<polygon fill="lightyellow" stroke="none" points="242.97,-258.75 242.97,-291.25 383.47,-291.25 383.47,-258.75 242.97,-258.75"/>
<text xml:space="preserve" text-anchor="start" x="285.47" y="-277.85" font-family="Arial" font-size="12.00">«unionOf»</text>
<text xml:space="preserve" text-anchor="start" x="244.97" y="-263.6" font-family="Arial" font-size="12.00">[RailSection or TrackLink]</text>
<polygon fill="none" stroke="black" points="242.97,-258.75 242.97,-291.25 383.47,-291.25 383.47,-258.75 242.97,-258.75"/>
</g>
<!-- TrackSegment&#45;&gt;Union_partwhole_properPartOf -->
<g id="edge7" class="edge">
<title>TrackSegment&#45;&gt;Union_partwhole_properPartOf</title>
<path fill="none" stroke="black" stroke-dasharray="5,2" d="M98.34,-208.77C100.53,-219.02 104.97,-231.54 113.97,-239 131.93,-253.88 184.88,-262.74 231.68,-267.82"/>
<polygon fill="black" stroke="black" points="231.29,-271.3 241.6,-268.85 232.01,-264.34 231.29,-271.3"/>
<text xml:space="preserve" text-anchor="middle" x="206.6" y="-229.5" font-family="Arial" font-size="10.00">«only» onProperty: partwhole:properPartOf</text>
</g>
<!-- RailSection -->
<g id="node4" class="node">
<title>RailSection</title>
<polygon fill="lightgray" stroke="none" points="224.6,-98.88 224.6,-115.12 291.85,-115.12 291.85,-98.88 224.6,-98.88"/>
<text xml:space="preserve" text-anchor="start" x="225.6" y="-103.72" font-family="Arial" font-weight="bold" font-size="12.00">RailSection</text>
<polygon fill="none" stroke="black" points="223.6,-97.88 223.6,-116.12 292.85,-116.12 292.85,-97.88 223.6,-97.88"/>
</g>
<!-- Invis&#45;&gt;RailSection -->
<!-- RailSection&#45;&gt;TrackLink -->
<!-- Union_partwhole_properPartOf&#45;&gt;RailSection -->
<g id="edge5" class="edge">
<title>Union_partwhole_properPartOf&#45;&gt;RailSection</title>
<path fill="none" stroke="black" stroke-dasharray="1,5" d="M309.55,-257.33C304.93,-237.12 296.34,-202.15 286.22,-173 281.83,-160.33 276.09,-146.65 270.96,-135.13"/>
<polygon fill="black" stroke="black" points="274.23,-133.87 266.91,-126.22 267.86,-136.77 274.23,-133.87"/>
<text xml:space="preserve" text-anchor="middle" x="316.81" y="-187.5" font-family="Arial" font-size="10.00">member</text>
</g>
<!-- Union_partwhole_properPartOf&#45;&gt;TrackLink -->
<g id="edge6" class="edge">
<title>Union_partwhole_properPartOf&#45;&gt;TrackLink</title>
<path fill="none" stroke="black" stroke-dasharray="1,5" d="M322.82,-257.16C328.54,-246.12 335.25,-231.17 338.22,-217 342.24,-197.86 342.16,-192.16 338.22,-173 330.06,-133.21 323.26,-123.75 302.22,-89 296.18,-79.02 288.44,-68.89 281.15,-60.14"/>
<polygon fill="black" stroke="black" points="283.95,-58.04 274.78,-52.74 278.65,-62.6 283.95,-58.04"/>
<text xml:space="preserve" text-anchor="middle" x="351.56" y="-145.5" font-family="Arial" font-size="10.00">member</text>
</g>
</g>
</svg>
