<?xml version="1.0" encoding="UTF-8" standalone="no"?>
<!DOCTYPE svg PUBLIC "-//W3C//DTD SVG 1.1//EN"
 "http://www.w3.org/Graphics/SVG/1.1/DTD/svg11.dtd">
<!-- Generated by graphviz version 13.1.0 (20250701.0955)
 -->
<!-- Pages: 1 -->
<svg width="346pt" height="313pt"
 viewBox="0.00 0.00 346.00 313.00" xmlns="http://www.w3.org/2000/svg" xmlns:xlink="http://www.w3.org/1999/xlink">
<g id="graph0" class="graph" transform="scale(1 1) rotate(0) translate(4 309)">
<polygon fill="white" stroke="none" points="-4,4 -4,-309 342,-309 342,4 -4,4"/>
<g id="clust2" class="cluster">
<title>cluster_associated</title>
</g>
<!-- TravelledWaySegment -->
<g id="node1" class="node">
<title>TravelledWaySegment</title>
<polygon fill="lightgray" stroke="none" points="1,-278.88 1,-295.12 130.5,-295.12 130.5,-278.88 1,-278.88"/>
<text xml:space="preserve" text-anchor="start" x="2" y="-283.73" font-family="Arial" font-weight="bold" font-size="12.00">TravelledWaySegment</text>
<polygon fill="none" stroke="black" points="0,-277.88 0,-296.12 131.5,-296.12 131.5,-277.88 0,-277.88"/>
</g>
<!-- TrackSegment -->
<g id="node2" class="node">
<title>TrackSegment</title>
<polygon fill="lightgray" stroke="none" points="40.5,-182.88 40.5,-199.12 125,-199.12 125,-182.88 40.5,-182.88"/>
<text xml:space="preserve" text-anchor="start" x="41.5" y="-187.72" font-family="Arial" font-weight="bold" font-size="12.00">TrackSegment</text>
<polygon fill="none" stroke="black" points="39.5,-181.88 39.5,-200.12 126,-200.12 126,-181.88 39.5,-181.88"/>
</g>
<!-- TrackSegment&#45;&gt;TravelledWaySegment -->
<g id="edge1" class="edge">
<title>TrackSegment&#45;&gt;TravelledWaySegment</title>
<path fill="none" stroke="black" d="M79.68,-208.98C77.2,-222.71 73.65,-242.32 70.76,-258.32"/>
<polygon fill="none" stroke="black" points="67.39,-257.24 69.06,-267.71 74.28,-258.49 67.39,-257.24"/>
</g>
<!-- Invis -->
<!-- TrackSegment&#45;&gt;Invis -->
<!-- TrackLink -->
<g id="node5" class="node">
<title>TrackLink</title>
<polygon fill="lightgray" stroke="none" points="183.62,-25.88 183.62,-42.12 241.88,-42.12 241.88,-25.88 183.62,-25.88"/>
<text xml:space="preserve" text-anchor="start" x="184.62" y="-30.73" font-family="Arial" font-weight="bold" font-size="12.00">TrackLink</text>
<polygon fill="none" stroke="black" points="182.62,-24.88 182.62,-43.12 242.88,-43.12 242.88,-24.88 182.62,-24.88"/>
</g>
<!-- TrackSegment&#45;&gt;TrackLink -->
<g id="edge8" class="edge">
<title>TrackSegment&#45;&gt;TrackLink</title>
<path fill="none" stroke="black" stroke-dasharray="5,2" d="M57.57,-173.12C30.24,-152.71 -6.78,-117.53 15,-89 33.92,-64.21 119.61,-48.06 171.78,-40.33"/>
<polygon fill="black" stroke="black" points="172.1,-43.82 181.5,-38.94 171.11,-36.89 172.1,-43.82"/>
<text xml:space="preserve" text-anchor="middle" x="91.88" y="-109.5" font-family="Arial" font-size="10.00">«exactly 1»</text>
<text xml:space="preserve" text-anchor="middle" x="91.88" y="-97.5" font-family="Arial" font-size="10.00">onProperty: partwhole:properPartOf</text>
</g>
<!-- Union_partwhole_properPartOf -->
<g id="node6" class="node">
<title>Union_partwhole_properPartOf</title>
<polygon fill="lightyellow" stroke="none" points="197.5,-270.75 197.5,-303.25 338,-303.25 338,-270.75 197.5,-270.75"/>
<text xml:space="preserve" text-anchor="start" x="240" y="-289.85" font-family="Arial" font-size="12.00">«unionOf»</text>
<text xml:space="preserve" text-anchor="start" x="199.5" y="-275.6" font-family="Arial" font-size="12.00">[RailSection or TrackLink]</text>
<polygon fill="none" stroke="black" points="197.5,-270.75 197.5,-303.25 338,-303.25 338,-270.75 197.5,-270.75"/>
</g>
<!-- TrackSegment&#45;&gt;Union_partwhole_properPartOf -->
<g id="edge7" class="edge">
<title>TrackSegment&#45;&gt;Union_partwhole_properPartOf</title>
<path fill="none" stroke="black" stroke-dasharray="5,2" d="M83.18,-208.92C84.45,-222.24 88.4,-240.28 100,-251 113.02,-263.03 150.27,-271.45 186.37,-277"/>
<polygon fill="black" stroke="black" points="185.61,-280.43 196.01,-278.42 186.62,-273.5 185.61,-280.43"/>
<text xml:space="preserve" text-anchor="middle" x="176.88" y="-241.5" font-family="Arial" font-size="10.00">«only»</text>
<text xml:space="preserve" text-anchor="middle" x="176.88" y="-229.5" font-family="Arial" font-size="10.00">onProperty: partwhole:properPartOf</text>
</g>
<!-- RailSection -->
<g id="node4" class="node">
<title>RailSection</title>
<polygon fill="lightgray" stroke="none" points="179.12,-98.88 179.12,-115.12 246.38,-115.12 246.38,-98.88 179.12,-98.88"/>
<text xml:space="preserve" text-anchor="start" x="180.12" y="-103.72" font-family="Arial" font-weight="bold" font-size="12.00">RailSection</text>
<polygon fill="none" stroke="black" points="178.12,-97.88 178.12,-116.12 247.38,-116.12 247.38,-97.88 178.12,-97.88"/>
</g>
<!-- Invis&#45;&gt;RailSection -->
<!-- RailSection&#45;&gt;TrackLink -->
<!-- Union_partwhole_properPartOf&#45;&gt;RailSection -->
<g id="edge5" class="edge">
<title>Union_partwhole_properPartOf&#45;&gt;RailSection</title>
<path fill="none" stroke="black" stroke-dasharray="1,5" d="M263.78,-269.21C260.99,-257.4 257.15,-241.23 253.75,-227 248.01,-202.99 248.55,-196.42 240.75,-173 236.51,-160.28 230.8,-146.59 225.64,-135.07"/>
<polygon fill="black" stroke="black" points="228.91,-133.81 221.56,-126.17 222.55,-136.72 228.91,-133.81"/>
<text xml:space="preserve" text-anchor="middle" x="269.1" y="-187.5" font-family="Arial" font-size="10.00">member</text>
</g>
<!-- Union_partwhole_properPartOf&#45;&gt;TrackLink -->
<g id="edge6" class="edge">
<title>Union_partwhole_properPartOf&#45;&gt;TrackLink</title>
<path fill="none" stroke="black" stroke-dasharray="1,5" d="M275.09,-269.09C280.63,-255.35 287.78,-235.32 290.75,-217 293.88,-197.7 294.49,-192.2 290.75,-173 283.05,-133.47 277.25,-123.67 256.75,-89 250.81,-78.96 243.1,-68.81 235.79,-60.07"/>
<polygon fill="black" stroke="black" points="238.59,-57.96 229.41,-52.68 233.29,-62.54 238.59,-57.96"/>
<text xml:space="preserve" text-anchor="middle" x="304.38" y="-145.5" font-family="Arial" font-size="10.00">member</text>
</g>
</g>
</svg>
