<?xml version="1.0" encoding="UTF-8" standalone="no"?>
<!DOCTYPE svg PUBLIC "-//W3C//DTD SVG 1.1//EN"
 "http://www.w3.org/Graphics/SVG/1.1/DTD/svg11.dtd">
<!-- Generated by graphviz version 13.1.0 (20250701.0955)
 -->
<!-- Pages: 1 -->
<svg width="346pt" height="302pt"
 viewBox="0.00 0.00 346.00 302.00" xmlns="http://www.w3.org/2000/svg" xmlns:xlink="http://www.w3.org/1999/xlink">
<g id="graph0" class="graph" transform="scale(1 1) rotate(0) translate(4 298)">
<polygon fill="white" stroke="none" points="-4,4 -4,-298 341.92,-298 341.92,4 -4,4"/>
<g id="clust2" class="cluster">
<title>cluster_associated</title>
</g>
<!-- NetworkElement -->
<g id="node1" class="node">
<title>NetworkElement</title>
<polygon fill="lightgray" stroke="none" points="79.04,-267.88 79.04,-284.12 174.79,-284.12 174.79,-267.88 79.04,-267.88"/>
<text xml:space="preserve" text-anchor="start" x="80.04" y="-272.73" font-family="Arial" font-weight="bold" font-style="italic" font-size="12.00">NetworkElement</text>
<polygon fill="none" stroke="black" points="78.04,-266.88 78.04,-285.12 175.79,-285.12 175.79,-266.88 78.04,-266.88"/>
</g>
<!-- TransportNode -->
<g id="node2" class="node">
<title>TransportNode</title>
<polygon fill="lightgray" stroke="none" points="82.79,-194.88 82.79,-211.12 171.04,-211.12 171.04,-194.88 82.79,-194.88"/>
<text xml:space="preserve" text-anchor="start" x="83.79" y="-199.72" font-family="Arial" font-weight="bold" font-size="12.00">TransportNode</text>
<polygon fill="none" stroke="black" points="81.79,-193.88 81.79,-212.12 172.04,-212.12 172.04,-193.88 81.79,-193.88"/>
</g>
<!-- TransportNode&#45;&gt;NetworkElement -->
<g id="edge1" class="edge">
<title>TransportNode&#45;&gt;NetworkElement</title>
<path fill="none" stroke="black" d="M126.92,-220.71C126.92,-228.47 126.92,-237.92 126.92,-246.74"/>
<polygon fill="none" stroke="black" points="123.42,-246.66 126.92,-256.66 130.42,-246.66 123.42,-246.66"/>
</g>
<!-- Invis -->
<!-- TransportNode&#45;&gt;Invis -->
<!-- TransportNetwork -->
<g id="node4" class="node">
<title>TransportNetwork</title>
<polygon fill="lightgray" stroke="none" points="216.54,-98.88 216.54,-115.12 321.29,-115.12 321.29,-98.88 216.54,-98.88"/>
<text xml:space="preserve" text-anchor="start" x="217.54" y="-103.72" font-family="Arial" font-weight="bold" font-size="12.00">TransportNetwork</text>
<polygon fill="none" stroke="black" points="215.54,-97.88 215.54,-116.12 322.29,-116.12 322.29,-97.88 215.54,-97.88"/>
</g>
<!-- TransportNode&#45;&gt;TransportNetwork -->
<g id="edge7" class="edge">
<title>TransportNode&#45;&gt;TransportNetwork</title>
<path fill="none" stroke="black" stroke-dasharray="5,2" d="M127.25,-185.03C128.42,-171.87 132.14,-154.06 143.17,-143 145.64,-140.52 175.13,-132.25 204.93,-124.38"/>
<polygon fill="black" stroke="black" points="205.62,-127.81 214.4,-121.89 203.84,-121.04 205.62,-127.81"/>
<text xml:space="preserve" text-anchor="middle" x="220.04" y="-157.5" font-family="Arial" font-size="10.00">«min 1, only»</text>
<text xml:space="preserve" text-anchor="middle" x="220.04" y="-145.5" font-family="Arial" font-size="10.00">onProperty: partwhole:properPartOf</text>
</g>
<!-- TravelledWayLink -->
<g id="node5" class="node">
<title>TravelledWayLink</title>
<polygon fill="lightgray" stroke="none" points="217.29,-25.88 217.29,-42.12 320.54,-42.12 320.54,-25.88 217.29,-25.88"/>
<text xml:space="preserve" text-anchor="start" x="218.29" y="-30.73" font-family="Arial" font-weight="bold" font-size="12.00">TravelledWayLink</text>
<polygon fill="none" stroke="black" points="216.29,-24.88 216.29,-43.12 321.54,-43.12 321.54,-24.88 216.29,-24.88"/>
</g>
<!-- TransportNode&#45;&gt;TravelledWayLink -->
<g id="edge5" class="edge">
<title>TransportNode&#45;&gt;TravelledWayLink</title>
<path fill="none" stroke="black" d="M85.47,-185.01C40.21,-164.04 -22.04,-126.52 8.42,-89 32.72,-59.07 136.12,-45.21 205.11,-39.19"/>
<polygon fill="black" stroke="black" points="205.11,-42.7 214.79,-38.38 204.53,-35.73 205.11,-42.7"/>
<text xml:space="preserve" text-anchor="middle" x="49.67" y="-109.5" font-family="Arial" font-size="10.00">«min 1, only»</text>
<text xml:space="preserve" text-anchor="middle" x="49.67" y="-97.5" font-family="Arial" font-size="10.00">onProperty: egress</text>
</g>
<!-- TransportNode&#45;&gt;TravelledWayLink -->
<g id="edge6" class="edge">
<title>TransportNode&#45;&gt;TravelledWayLink</title>
<path fill="none" stroke="black" d="M120.43,-185.3C112.39,-161.59 102.06,-117.83 122.17,-89 140.98,-62.03 174.84,-48.49 205.3,-41.72"/>
<polygon fill="black" stroke="black" points="205.73,-45.2 214.85,-39.81 204.36,-38.33 205.73,-45.2"/>
<text xml:space="preserve" text-anchor="middle" x="164.54" y="-109.5" font-family="Arial" font-size="10.00">«min 1, only»</text>
<text xml:space="preserve" text-anchor="middle" x="164.54" y="-97.5" font-family="Arial" font-size="10.00">onProperty: ingress</text>
</g>
<!-- Invis&#45;&gt;TransportNetwork -->
<!-- TransportNetwork&#45;&gt;TravelledWayLink -->
</g>
</svg>
