<?xml version="1.0" encoding="UTF-8" standalone="no"?>
<!DOCTYPE svg PUBLIC "-//W3C//DTD SVG 1.1//EN"
 "http://www.w3.org/Graphics/SVG/1.1/DTD/svg11.dtd">
<!-- Generated by graphviz version 14.0.2 (20251019.1705)
 -->
<!-- Pages: 1 -->
<svg width="212pt" height="232pt"
 viewBox="0.00 0.00 212.00 232.00" xmlns="http://www.w3.org/2000/svg" xmlns:xlink="http://www.w3.org/1999/xlink">
<g id="graph0" class="graph" transform="scale(1 1) rotate(0) translate(4 228)">
<polygon fill="white" stroke="none" points="-4,4 -4,-228 207.5,-228 207.5,4 -4,4"/>
<g id="clust2" class="cluster">
<title>cluster_associated</title>
</g>
<!-- TransportAlert -->
<g id="node1" class="node">
<title>TransportAlert</title>
<g id="a_node1"><a xlink:href="../TransportAlert.md" xlink:title="&lt;TABLE&gt;">
<polygon fill="lightgray" stroke="none" points="125.5,-124.88 125.5,-141.12 202.5,-141.12 202.5,-124.88 125.5,-124.88"/>
<text xml:space="preserve" text-anchor="start" x="126.5" y="-128.72" font-family="Arial" font-size="12.00">TransportAlert</text>
<polygon fill="none" stroke="black" points="124.5,-123.88 124.5,-142.12 203.5,-142.12 203.5,-123.88 124.5,-123.88"/>
</a>
</g>
</g>
<!-- Invis -->
<!-- TransportAlert&#45;&gt;Invis -->
<!-- NetworkElement -->
<g id="node3" class="node">
<title>NetworkElement</title>
<g id="a_node3"><a xlink:href="../NetworkElement.md" xlink:title="&lt;TABLE&gt;">
<polygon fill="lightgray" stroke="none" points="16.75,-25.88 16.75,-42.12 107.25,-42.12 107.25,-25.88 16.75,-25.88"/>
<text xml:space="preserve" text-anchor="start" x="17.75" y="-29.73" font-family="Arial" font-size="12.00">NetworkElement</text>
<polygon fill="none" stroke="black" points="15.75,-24.88 15.75,-43.12 108.25,-43.12 108.25,-24.88 15.75,-24.88"/>
</a>
</g>
</g>
<!-- TransportAlert&#45;&gt;NetworkElement -->
<g id="edge4" class="edge">
<title>TransportAlert&#45;&gt;NetworkElement</title>
<path fill="none" stroke="black" d="M146.23,-115.1C130,-99.66 105.8,-76.66 87.51,-59.26"/>
<polygon fill="black" stroke="black" points="90.32,-57.1 80.66,-52.75 85.49,-62.17 90.32,-57.1"/>
<text xml:space="preserve" text-anchor="middle" x="145.39" y="-86.55" font-family="Arial" font-size="11.00"> affects </text>
<text xml:space="preserve" text-anchor="middle" x="145.39" y="-73.05" font-family="Arial" font-size="11.00"> «only» &#160;</text>
</g>
<!-- Alert -->
<g id="node4" class="node">
<title>Alert</title>
<polygon fill="lightgray" stroke="none" points="150.62,-197.88 150.62,-214.12 177.38,-214.12 177.38,-197.88 150.62,-197.88"/>
<text xml:space="preserve" text-anchor="start" x="151.62" y="-201.72" font-family="Arial" font-size="12.00">Alert</text>
<polygon fill="none" stroke="black" points="149.62,-196.88 149.62,-215.12 178.38,-215.12 178.38,-196.88 149.62,-196.88"/>
</g>
<!-- TransportAlert&#45;&gt;Alert -->
<g id="edge1" class="edge">
<title>TransportAlert&#45;&gt;Alert</title>
<path fill="none" stroke="black" d="M164,-150.71C164,-158.47 164,-167.92 164,-176.74"/>
<polygon fill="none" stroke="black" points="160.5,-176.66 164,-186.66 167.5,-176.66 160.5,-176.66"/>
</g>
<!-- Invis&#45;&gt;NetworkElement -->
</g>
</svg>
