<?xml version="1.0" encoding="UTF-8" standalone="no"?>
<!DOCTYPE svg PUBLIC "-//W3C//DTD SVG 1.1//EN"
 "http://www.w3.org/Graphics/SVG/1.1/DTD/svg11.dtd">
<!-- Generated by graphviz version 13.1.0 (20250701.0955)
 -->
<!-- Pages: 1 -->
<svg width="659pt" height="458pt"
 viewBox="0.00 0.00 659.00 458.00" xmlns="http://www.w3.org/2000/svg" xmlns:xlink="http://www.w3.org/1999/xlink">
<g id="graph0" class="graph" transform="scale(1 1) rotate(0) translate(4 454)">
<polygon fill="white" stroke="none" points="-4,4 -4,-454 654.62,-454 654.62,4 -4,4"/>
<g id="clust2" class="cluster">
<title>cluster_associated</title>
</g>
<!-- NetworkElement -->
<g id="node1" class="node">
<title>NetworkElement</title>
<polygon fill="lightgray" stroke="none" points="1,-423.88 1,-440.12 96.75,-440.12 96.75,-423.88 1,-423.88"/>
<text xml:space="preserve" text-anchor="start" x="2" y="-428.73" font-family="Arial" font-weight="bold" font-style="italic" font-size="12.00">NetworkElement</text>
<polygon fill="none" stroke="black" points="0,-422.88 0,-441.12 97.75,-441.12 97.75,-422.88 0,-422.88"/>
</g>
<!-- TransportNetwork -->
<g id="node2" class="node">
<title>TransportNetwork</title>
<polygon fill="lightgray" stroke="none" points="9.5,-339.88 9.5,-356.12 114.25,-356.12 114.25,-339.88 9.5,-339.88"/>
<text xml:space="preserve" text-anchor="start" x="10.5" y="-344.73" font-family="Arial" font-weight="bold" font-size="12.00">TransportNetwork</text>
<polygon fill="none" stroke="black" points="8.5,-338.88 8.5,-357.12 115.25,-357.12 115.25,-338.88 8.5,-338.88"/>
</g>
<!-- TransportNetwork&#45;&gt;NetworkElement -->
<g id="edge1" class="edge">
<title>TransportNetwork&#45;&gt;NetworkElement</title>
<path fill="none" stroke="black" d="M59.18,-365.97C57.49,-376.63 55.27,-390.64 53.33,-402.92"/>
<polygon fill="none" stroke="black" points="49.91,-402.09 51.81,-412.51 56.83,-403.19 49.91,-402.09"/>
</g>
<!-- TransportNetwork&#45;&gt;TransportNetwork -->
<g id="edge13" class="edge">
<title>TransportNetwork&#45;&gt;TransportNetwork</title>
<path fill="none" stroke="black" stroke-dasharray="5,2" d="M115.1,-355.55C125.7,-354.7 133.25,-352.18 133.25,-348 133.25,-345.52 130.59,-343.62 126.21,-342.31"/>
<polygon fill="black" stroke="black" points="127.04,-338.9 116.6,-340.7 125.88,-345.81 127.04,-338.9"/>
<text xml:space="preserve" text-anchor="middle" x="225.88" y="-344.5" font-family="Arial" font-size="10.00">«only» onProperty: partwhole:properPartOf</text>
</g>
<!-- Invis -->
<!-- TransportNetwork&#45;&gt;Invis -->
<!-- Union_partwhole_hasProperPart -->
<g id="node8" class="node">
<title>Union_partwhole_hasProperPart</title>
<polygon fill="lightyellow" stroke="none" points="117.12,-415.75 117.12,-448.25 650.62,-448.25 650.62,-415.75 117.12,-415.75"/>
<text xml:space="preserve" text-anchor="start" x="356.12" y="-434.85" font-family="Arial" font-size="12.00">«unionOf»</text>
<text xml:space="preserve" text-anchor="start" x="119.12" y="-420.6" font-family="Arial" font-size="12.00">[TransportNetwork or TransportNode or TravelledWay or TravelledWayLink or TravelledWaySection]</text>
<polygon fill="none" stroke="black" points="117.12,-415.75 117.12,-448.25 650.62,-448.25 650.62,-415.75 117.12,-415.75"/>
</g>
<!-- TransportNetwork&#45;&gt;Union_partwhole_hasProperPart -->
<g id="edge12" class="edge">
<title>TransportNetwork&#45;&gt;Union_partwhole_hasProperPart</title>
<path fill="none" stroke="black" stroke-dasharray="5,2" d="M63.56,-365.94C65.52,-376.25 69.75,-388.79 78.88,-396 86.44,-401.98 97.98,-406.98 112.2,-411.14"/>
<polygon fill="black" stroke="black" points="110.98,-414.44 121.54,-413.63 112.78,-407.67 110.98,-414.44"/>
<text xml:space="preserve" text-anchor="middle" x="174.88" y="-386.5" font-family="Arial" font-size="10.00">«only» onProperty: partwhole:hasProperPart</text>
</g>
<!-- TransportNode -->
<g id="node4" class="node">
<title>TransportNode</title>
<polygon fill="lightgray" stroke="none" points="438.75,-255.88 438.75,-272.12 527,-272.12 527,-255.88 438.75,-255.88"/>
<text xml:space="preserve" text-anchor="start" x="439.75" y="-260.73" font-family="Arial" font-weight="bold" font-size="12.00">TransportNode</text>
<polygon fill="none" stroke="black" points="437.75,-254.88 437.75,-273.12 528,-273.12 528,-254.88 437.75,-254.88"/>
</g>
<!-- Invis&#45;&gt;TransportNode -->
<!-- TravelledWay -->
<g id="node5" class="node">
<title>TravelledWay</title>
<polygon fill="lightgray" stroke="none" points="431.62,-171.88 431.62,-188.12 510.12,-188.12 510.12,-171.88 431.62,-171.88"/>
<text xml:space="preserve" text-anchor="start" x="432.62" y="-176.72" font-family="Arial" font-weight="bold" font-size="12.00">TravelledWay</text>
<polygon fill="none" stroke="black" points="430.62,-170.88 430.62,-189.12 511.12,-189.12 511.12,-170.88 430.62,-170.88"/>
</g>
<!-- TransportNode&#45;&gt;TravelledWay -->
<!-- TravelledWayLink -->
<g id="node6" class="node">
<title>TravelledWayLink</title>
<polygon fill="lightgray" stroke="none" points="419.25,-98.88 419.25,-115.12 522.5,-115.12 522.5,-98.88 419.25,-98.88"/>
<text xml:space="preserve" text-anchor="start" x="420.25" y="-103.72" font-family="Arial" font-weight="bold" font-size="12.00">TravelledWayLink</text>
<polygon fill="none" stroke="black" points="418.25,-97.88 418.25,-116.12 523.5,-116.12 523.5,-97.88 418.25,-97.88"/>
</g>
<!-- TravelledWay&#45;&gt;TravelledWayLink -->
<!-- TravelledWaySection -->
<g id="node7" class="node">
<title>TravelledWaySection</title>
<polygon fill="lightgray" stroke="none" points="416.88,-25.88 416.88,-42.12 538.88,-42.12 538.88,-25.88 416.88,-25.88"/>
<text xml:space="preserve" text-anchor="start" x="417.88" y="-30.73" font-family="Arial" font-weight="bold" font-size="12.00">TravelledWaySection</text>
<polygon fill="none" stroke="black" points="415.88,-24.88 415.88,-43.12 539.88,-43.12 539.88,-24.88 415.88,-24.88"/>
</g>
<!-- TravelledWayLink&#45;&gt;TravelledWaySection -->
<!-- Union_partwhole_hasProperPart&#45;&gt;TransportNetwork -->
<g id="edge7" class="edge">
<title>Union_partwhole_hasProperPart&#45;&gt;TransportNetwork</title>
<path fill="none" stroke="black" stroke-dasharray="1,5" d="M339.63,-414.03C326.04,-408.56 311.1,-402.27 297.62,-396 287.26,-391.18 285.71,-387.64 274.88,-384 226.55,-367.77 169.44,-358.9 126.53,-354.16"/>
<polygon fill="black" stroke="black" points="126.92,-350.68 116.61,-353.11 126.19,-357.64 126.92,-350.68"/>
<text xml:space="preserve" text-anchor="middle" x="315.25" y="-386.5" font-family="Arial" font-size="10.00">member</text>
</g>
<!-- Union_partwhole_hasProperPart&#45;&gt;TransportNode -->
<g id="edge8" class="edge">
<title>Union_partwhole_hasProperPart&#45;&gt;TransportNode</title>
<path fill="none" stroke="black" stroke-dasharray="1,5" d="M392.54,-414.32C403.17,-394.09 421.95,-359.1 439.62,-330 447.54,-316.97 456.85,-302.84 464.8,-291.09"/>
<polygon fill="black" stroke="black" points="467.5,-293.34 470.25,-283.11 461.72,-289.4 467.5,-293.34"/>
<text xml:space="preserve" text-anchor="middle" x="457.25" y="-344.5" font-family="Arial" font-size="10.00">member</text>
</g>
<!-- Union_partwhole_hasProperPart&#45;&gt;TravelledWay -->
<g id="edge9" class="edge">
<title>Union_partwhole_hasProperPart&#45;&gt;TravelledWay</title>
<path fill="none" stroke="black" stroke-dasharray="1,5" d="M385.66,-414.16C389.7,-380.72 401.41,-304.13 428.88,-246 435.18,-232.66 443.8,-218.8 451.6,-207.33"/>
<polygon fill="black" stroke="black" points="454.44,-209.37 457.29,-199.17 448.7,-205.37 454.44,-209.37"/>
<text xml:space="preserve" text-anchor="middle" x="426.18" y="-302.5" font-family="Arial" font-size="10.00">member</text>
</g>
<!-- Union_partwhole_hasProperPart&#45;&gt;TravelledWayLink -->
<g id="edge10" class="edge">
<title>Union_partwhole_hasProperPart&#45;&gt;TravelledWayLink</title>
<path fill="none" stroke="black" stroke-dasharray="1,5" d="M371.14,-414.08C360.44,-398.16 346.88,-373.21 346.88,-349 346.88,-349 346.88,-349 346.88,-179 346.88,-147.71 376.98,-130.02 407.52,-120.12"/>
<polygon fill="black" stroke="black" points="408.24,-123.56 416.84,-117.36 406.25,-116.84 408.24,-123.56"/>
<text xml:space="preserve" text-anchor="middle" x="364.5" y="-260.5" font-family="Arial" font-size="10.00">member</text>
</g>
<!-- Union_partwhole_hasProperPart&#45;&gt;TravelledWaySection -->
<g id="edge11" class="edge">
<title>Union_partwhole_hasProperPart&#45;&gt;TravelledWaySection</title>
<path fill="none" stroke="black" stroke-dasharray="1,5" d="M508.04,-414.03C540.15,-402.22 565.88,-382.36 565.88,-349 565.88,-349 565.88,-349 565.88,-106 565.88,-84.77 550.17,-68.81 532.03,-57.45"/>
<polygon fill="black" stroke="black" points="534.12,-54.61 523.7,-52.68 530.64,-60.69 534.12,-54.61"/>
<text xml:space="preserve" text-anchor="middle" x="583.5" y="-218.5" font-family="Arial" font-size="10.00">member</text>
</g>
</g>
</svg>
