<?xml version="1.0" encoding="UTF-8" standalone="no"?>
<!DOCTYPE svg PUBLIC "-//W3C//DTD SVG 1.1//EN"
 "http://www.w3.org/Graphics/SVG/1.1/DTD/svg11.dtd">
<!-- Generated by graphviz version 13.1.0 (20250701.0955)
 -->
<!-- Pages: 1 -->
<svg width="658pt" height="470pt"
 viewBox="0.00 0.00 658.00 470.00" xmlns="http://www.w3.org/2000/svg" xmlns:xlink="http://www.w3.org/1999/xlink">
<g id="graph0" class="graph" transform="scale(1 1) rotate(0) translate(4 466)">
<polygon fill="white" stroke="none" points="-4,4 -4,-466 653.62,-466 653.62,4 -4,4"/>
<g id="clust2" class="cluster">
<title>cluster_associated</title>
</g>
<!-- NetworkElement -->
<g id="node1" class="node">
<title>NetworkElement</title>
<polygon fill="lightgray" stroke="none" points="1,-435.88 1,-452.12 96.75,-452.12 96.75,-435.88 1,-435.88"/>
<text xml:space="preserve" text-anchor="start" x="2" y="-440.73" font-family="Arial" font-weight="bold" font-style="italic" font-size="12.00">NetworkElement</text>
<polygon fill="none" stroke="black" points="0,-434.88 0,-453.12 97.75,-453.12 97.75,-434.88 0,-434.88"/>
</g>
<!-- TransportNetwork -->
<g id="node2" class="node">
<title>TransportNetwork</title>
<polygon fill="lightgray" stroke="none" points="38.5,-339.88 38.5,-356.12 143.25,-356.12 143.25,-339.88 38.5,-339.88"/>
<text xml:space="preserve" text-anchor="start" x="39.5" y="-344.73" font-family="Arial" font-weight="bold" font-size="12.00">TransportNetwork</text>
<polygon fill="none" stroke="black" points="37.5,-338.88 37.5,-357.12 144.25,-357.12 144.25,-338.88 37.5,-338.88"/>
</g>
<!-- TransportNetwork&#45;&gt;NetworkElement -->
<g id="edge1" class="edge">
<title>TransportNetwork&#45;&gt;NetworkElement</title>
<path fill="none" stroke="black" d="M82.57,-365.65C79.75,-371.43 76.61,-377.97 73.88,-384 69.23,-394.23 64.36,-405.57 60.16,-415.55"/>
<polygon fill="none" stroke="black" points="56.96,-414.14 56.34,-424.72 63.42,-416.83 56.96,-414.14"/>
</g>
<!-- TransportNetwork&#45;&gt;TransportNetwork -->
<g id="edge13" class="edge">
<title>TransportNetwork&#45;&gt;TransportNetwork</title>
<path fill="none" stroke="black" stroke-dasharray="5,2" d="M144.1,-355.55C154.7,-354.7 162.25,-352.18 162.25,-348 162.25,-345.52 159.59,-343.62 155.21,-342.31"/>
<polygon fill="black" stroke="black" points="156.04,-338.9 145.6,-340.7 154.88,-345.81 156.04,-338.9"/>
<text xml:space="preserve" text-anchor="middle" x="239.12" y="-350.5" font-family="Arial" font-size="10.00">«only»</text>
<text xml:space="preserve" text-anchor="middle" x="239.12" y="-338.5" font-family="Arial" font-size="10.00">onProperty: partwhole:properPartOf</text>
</g>
<!-- Invis -->
<!-- TransportNetwork&#45;&gt;Invis -->
<!-- Union_partwhole_hasProperPart -->
<g id="node8" class="node">
<title>Union_partwhole_hasProperPart</title>
<polygon fill="lightyellow" stroke="none" points="116.12,-427.75 116.12,-460.25 649.62,-460.25 649.62,-427.75 116.12,-427.75"/>
<text xml:space="preserve" text-anchor="start" x="355.12" y="-446.85" font-family="Arial" font-size="12.00">«unionOf»</text>
<text xml:space="preserve" text-anchor="start" x="118.12" y="-432.6" font-family="Arial" font-size="12.00">[TransportNetwork or TransportNode or TravelledWay or TravelledWayLink or TravelledWaySection]</text>
<polygon fill="none" stroke="black" points="116.12,-427.75 116.12,-460.25 649.62,-460.25 649.62,-427.75 116.12,-427.75"/>
</g>
<!-- TransportNetwork&#45;&gt;Union_partwhole_hasProperPart -->
<g id="edge12" class="edge">
<title>TransportNetwork&#45;&gt;Union_partwhole_hasProperPart</title>
<path fill="none" stroke="black" stroke-dasharray="5,2" d="M87.32,-365.81C85.58,-379.07 85.76,-397.08 96.38,-408 102.53,-414.34 127.04,-419.84 159.32,-424.48"/>
<polygon fill="black" stroke="black" points="158.67,-427.93 169.06,-425.82 159.63,-420.99 158.67,-427.93"/>
<text xml:space="preserve" text-anchor="middle" x="176.62" y="-398.5" font-family="Arial" font-size="10.00">«only»</text>
<text xml:space="preserve" text-anchor="middle" x="176.62" y="-386.5" font-family="Arial" font-size="10.00">onProperty: partwhole:hasProperPart</text>
</g>
<!-- TransportNode -->
<g id="node4" class="node">
<title>TransportNode</title>
<polygon fill="lightgray" stroke="none" points="435.75,-255.88 435.75,-272.12 524,-272.12 524,-255.88 435.75,-255.88"/>
<text xml:space="preserve" text-anchor="start" x="436.75" y="-260.73" font-family="Arial" font-weight="bold" font-size="12.00">TransportNode</text>
<polygon fill="none" stroke="black" points="434.75,-254.88 434.75,-273.12 525,-273.12 525,-254.88 434.75,-254.88"/>
</g>
<!-- Invis&#45;&gt;TransportNode -->
<!-- TravelledWay -->
<g id="node5" class="node">
<title>TravelledWay</title>
<polygon fill="lightgray" stroke="none" points="434.62,-171.88 434.62,-188.12 513.12,-188.12 513.12,-171.88 434.62,-171.88"/>
<text xml:space="preserve" text-anchor="start" x="435.62" y="-176.72" font-family="Arial" font-weight="bold" font-size="12.00">TravelledWay</text>
<polygon fill="none" stroke="black" points="433.62,-170.88 433.62,-189.12 514.12,-189.12 514.12,-170.88 433.62,-170.88"/>
</g>
<!-- TransportNode&#45;&gt;TravelledWay -->
<!-- TravelledWayLink -->
<g id="node6" class="node">
<title>TravelledWayLink</title>
<polygon fill="lightgray" stroke="none" points="422.25,-98.88 422.25,-115.12 525.5,-115.12 525.5,-98.88 422.25,-98.88"/>
<text xml:space="preserve" text-anchor="start" x="423.25" y="-103.72" font-family="Arial" font-weight="bold" font-size="12.00">TravelledWayLink</text>
<polygon fill="none" stroke="black" points="421.25,-97.88 421.25,-116.12 526.5,-116.12 526.5,-97.88 421.25,-97.88"/>
</g>
<!-- TravelledWay&#45;&gt;TravelledWayLink -->
<!-- TravelledWaySection -->
<g id="node7" class="node">
<title>TravelledWaySection</title>
<polygon fill="lightgray" stroke="none" points="420.88,-25.88 420.88,-42.12 542.88,-42.12 542.88,-25.88 420.88,-25.88"/>
<text xml:space="preserve" text-anchor="start" x="421.88" y="-30.73" font-family="Arial" font-weight="bold" font-size="12.00">TravelledWaySection</text>
<polygon fill="none" stroke="black" points="419.88,-24.88 419.88,-43.12 543.88,-43.12 543.88,-24.88 419.88,-24.88"/>
</g>
<!-- TravelledWayLink&#45;&gt;TravelledWaySection -->
<!-- Union_partwhole_hasProperPart&#45;&gt;TransportNetwork -->
<g id="edge7" class="edge">
<title>Union_partwhole_hasProperPart&#45;&gt;TransportNetwork</title>
<path fill="none" stroke="black" stroke-dasharray="1,5" d="M334.29,-426.15C321.12,-420.94 307.08,-414.77 294.62,-408 278.45,-399.21 277.75,-391.35 260.88,-384 227.51,-369.48 187.79,-360.87 155.14,-355.82"/>
<polygon fill="black" stroke="black" points="155.81,-352.38 145.41,-354.4 154.8,-359.31 155.81,-352.38"/>
<text xml:space="preserve" text-anchor="middle" x="312.25" y="-392.5" font-family="Arial" font-size="10.00">member</text>
</g>
<!-- Union_partwhole_hasProperPart&#45;&gt;TransportNode -->
<g id="edge8" class="edge">
<title>Union_partwhole_hasProperPart&#45;&gt;TransportNode</title>
<path fill="none" stroke="black" stroke-dasharray="1,5" d="M390.22,-426.2C400.18,-403.83 418.88,-363.22 437.62,-330 445.07,-316.81 454.13,-302.66 461.95,-290.94"/>
<polygon fill="black" stroke="black" points="464.62,-293.25 467.31,-283 458.81,-289.33 464.62,-293.25"/>
<text xml:space="preserve" text-anchor="middle" x="455.25" y="-344.5" font-family="Arial" font-size="10.00">member</text>
</g>
<!-- Union_partwhole_hasProperPart&#45;&gt;TravelledWay -->
<g id="edge9" class="edge">
<title>Union_partwhole_hasProperPart&#45;&gt;TravelledWay</title>
<path fill="none" stroke="black" stroke-dasharray="1,5" d="M383.75,-426.26C386.18,-391.08 395,-307.67 425.88,-246 432.79,-232.18 442.65,-218.22 451.63,-206.8"/>
<polygon fill="black" stroke="black" points="454.34,-209 457.93,-199.03 448.91,-204.59 454.34,-209"/>
<text xml:space="preserve" text-anchor="middle" x="422.42" y="-302.5" font-family="Arial" font-size="10.00">member</text>
</g>
<!-- Union_partwhole_hasProperPart&#45;&gt;TravelledWayLink -->
<g id="edge10" class="edge">
<title>Union_partwhole_hasProperPart&#45;&gt;TravelledWayLink</title>
<path fill="none" stroke="black" stroke-dasharray="1,5" d="M371.17,-426.2C359.69,-408.03 343.88,-377.8 343.88,-349 343.88,-349 343.88,-349 343.88,-179 343.88,-145.61 377.31,-127.83 410.26,-118.41"/>
<polygon fill="black" stroke="black" points="411.11,-121.81 419.91,-115.91 409.35,-115.03 411.11,-121.81"/>
<text xml:space="preserve" text-anchor="middle" x="361.5" y="-260.5" font-family="Arial" font-size="10.00">member</text>
</g>
<!-- Union_partwhole_hasProperPart&#45;&gt;TravelledWaySection -->
<g id="edge11" class="edge">
<title>Union_partwhole_hasProperPart&#45;&gt;TravelledWaySection</title>
<path fill="none" stroke="black" stroke-dasharray="1,5" d="M486.85,-426.01C527.19,-412.92 563.88,-389.81 563.88,-349 563.88,-349 563.88,-349 563.88,-106 563.88,-85.34 548.82,-69.36 531.61,-57.83"/>
<polygon fill="black" stroke="black" points="533.56,-54.91 523.2,-52.67 529.9,-60.88 533.56,-54.91"/>
<text xml:space="preserve" text-anchor="middle" x="581.5" y="-218.5" font-family="Arial" font-size="10.00">member</text>
</g>
</g>
</svg>
