<?xml version="1.0" encoding="UTF-8" standalone="no"?>
<!DOCTYPE svg PUBLIC "-//W3C//DTD SVG 1.1//EN"
 "http://www.w3.org/Graphics/SVG/1.1/DTD/svg11.dtd">
<!-- Generated by graphviz version 13.1.0 (20250701.0955)
 -->
<!-- Pages: 1 -->
<svg width="400pt" height="290pt"
 viewBox="0.00 0.00 400.00 290.00" xmlns="http://www.w3.org/2000/svg" xmlns:xlink="http://www.w3.org/1999/xlink">
<g id="graph0" class="graph" transform="scale(1 1) rotate(0) translate(4 286)">
<polygon fill="white" stroke="none" points="-4,4 -4,-286 395.98,-286 395.98,4 -4,4"/>
<g id="clust2" class="cluster">
<title>cluster_associated</title>
</g>
<!-- NetworkElement -->
<g id="node1" class="node">
<title>NetworkElement</title>
<polygon fill="lightgray" stroke="none" points="90.1,-255.88 90.1,-272.12 185.85,-272.12 185.85,-255.88 90.1,-255.88"/>
<text xml:space="preserve" text-anchor="start" x="91.1" y="-260.73" font-family="Arial" font-weight="bold" font-style="italic" font-size="12.00">NetworkElement</text>
<polygon fill="none" stroke="black" points="89.1,-254.88 89.1,-273.12 186.85,-273.12 186.85,-254.88 89.1,-254.88"/>
</g>
<!-- TransportNode -->
<g id="node2" class="node">
<title>TransportNode</title>
<polygon fill="lightgray" stroke="none" points="93.85,-182.88 93.85,-199.12 182.1,-199.12 182.1,-182.88 93.85,-182.88"/>
<text xml:space="preserve" text-anchor="start" x="94.85" y="-187.72" font-family="Arial" font-weight="bold" font-size="12.00">TransportNode</text>
<polygon fill="none" stroke="black" points="92.85,-181.88 92.85,-200.12 183.1,-200.12 183.1,-181.88 92.85,-181.88"/>
</g>
<!-- TransportNode&#45;&gt;NetworkElement -->
<g id="edge1" class="edge">
<title>TransportNode&#45;&gt;NetworkElement</title>
<path fill="none" stroke="black" d="M137.98,-208.71C137.98,-216.47 137.98,-225.92 137.98,-234.74"/>
<polygon fill="none" stroke="black" points="134.48,-234.66 137.98,-244.66 141.48,-234.66 134.48,-234.66"/>
</g>
<!-- Invis -->
<!-- TransportNode&#45;&gt;Invis -->
<!-- TransportNetwork -->
<g id="node4" class="node">
<title>TransportNetwork</title>
<polygon fill="lightgray" stroke="none" points="270.6,-98.88 270.6,-115.12 375.35,-115.12 375.35,-98.88 270.6,-98.88"/>
<text xml:space="preserve" text-anchor="start" x="271.6" y="-103.72" font-family="Arial" font-weight="bold" font-size="12.00">TransportNetwork</text>
<polygon fill="none" stroke="black" points="269.6,-97.88 269.6,-116.12 376.35,-116.12 376.35,-97.88 269.6,-97.88"/>
</g>
<!-- TransportNode&#45;&gt;TransportNetwork -->
<g id="edge7" class="edge">
<title>TransportNode&#45;&gt;TransportNetwork</title>
<path fill="none" stroke="black" stroke-dasharray="5,2" d="M138.27,-173.43C139.36,-163.26 142.46,-150.75 150.73,-143 154.84,-139.15 211.51,-128.09 258.75,-119.43"/>
<polygon fill="black" stroke="black" points="259.2,-122.91 268.41,-117.67 257.94,-116.02 259.2,-122.91"/>
<text xml:space="preserve" text-anchor="middle" x="258.35" y="-145.5" font-family="Arial" font-size="10.00">«min 1, only» onProperty: partwhole:properPartOf</text>
</g>
<!-- TravelledWayLink -->
<g id="node5" class="node">
<title>TravelledWayLink</title>
<polygon fill="lightgray" stroke="none" points="271.35,-25.88 271.35,-42.12 374.6,-42.12 374.6,-25.88 271.35,-25.88"/>
<text xml:space="preserve" text-anchor="start" x="272.35" y="-30.73" font-family="Arial" font-weight="bold" font-size="12.00">TravelledWayLink</text>
<polygon fill="none" stroke="black" points="270.35,-24.88 270.35,-43.12 375.6,-43.12 375.6,-24.88 270.35,-24.88"/>
</g>
<!-- TransportNode&#45;&gt;TravelledWayLink -->
<g id="edge5" class="edge">
<title>TransportNode&#45;&gt;TravelledWayLink</title>
<path fill="none" stroke="black" d="M92.99,-175.98C44.29,-158.49 -22.59,-126.31 8.23,-89 39.33,-51.34 176.74,-39.94 259.38,-36.49"/>
<polygon fill="black" stroke="black" points="259.29,-40 269.14,-36.11 259.02,-33 259.29,-40"/>
<text xml:space="preserve" text-anchor="middle" x="53.6" y="-103.5" font-family="Arial" font-size="10.00">«min 1, only» egress</text>
</g>
<!-- TransportNode&#45;&gt;TravelledWayLink -->
<g id="edge6" class="edge">
<title>TransportNode&#45;&gt;TravelledWayLink</title>
<path fill="none" stroke="black" d="M136.45,-173.21C136.09,-164.12 136.4,-152.79 138.98,-143 145.9,-116.65 147.26,-106.69 167.98,-89 193.84,-66.92 229.28,-53.69 259.74,-45.86"/>
<polygon fill="black" stroke="black" points="260.34,-49.32 269.24,-43.57 258.7,-42.51 260.34,-49.32"/>
<text xml:space="preserve" text-anchor="middle" x="214.48" y="-103.5" font-family="Arial" font-size="10.00">«min 1, only» ingress</text>
</g>
<!-- Invis&#45;&gt;TransportNetwork -->
<!-- TransportNetwork&#45;&gt;TravelledWayLink -->
</g>
</svg>
