<?xml version="1.0" encoding="UTF-8" standalone="no"?>
<!DOCTYPE svg PUBLIC "-//W3C//DTD SVG 1.1//EN"
 "http://www.w3.org/Graphics/SVG/1.1/DTD/svg11.dtd">
<!-- Generated by graphviz version 13.1.0 (20250701.0955)
 -->
<!-- Pages: 1 -->
<svg width="224pt" height="132pt"
 viewBox="0.00 0.00 224.00 132.00" xmlns="http://www.w3.org/2000/svg" xmlns:xlink="http://www.w3.org/1999/xlink">
<g id="graph0" class="graph" transform="scale(1 1) rotate(0) translate(4 128)">
<polygon fill="white" stroke="none" points="-4,4 -4,-128 219.88,-128 219.88,4 -4,4"/>
<g id="clust2" class="cluster">
<title>cluster_associated</title>
</g>
<!-- ITSPattern -->
<g id="node1" class="node">
<title>ITSPattern</title>
<polygon fill="lightgray" stroke="none" points="32.88,-97.88 32.88,-114.12 94.88,-114.12 94.88,-97.88 32.88,-97.88"/>
<text xml:space="preserve" text-anchor="start" x="33.88" y="-102.72" font-family="Arial" font-weight="bold" font-size="12.00">ITSPattern</text>
<polygon fill="none" stroke="black" points="31.88,-96.88 31.88,-115.12 95.88,-115.12 95.88,-96.88 31.88,-96.88"/>
</g>
<!-- TransportAlertPattern -->
<g id="node2" class="node">
<title>TransportAlertPattern</title>
<polygon fill="lightgray" stroke="none" points="1,-25.88 1,-42.12 126.75,-42.12 126.75,-25.88 1,-25.88"/>
<text xml:space="preserve" text-anchor="start" x="2" y="-30.73" font-family="Arial" font-weight="bold" font-size="12.00">TransportAlertPattern</text>
<polygon fill="none" stroke="black" points="0,-24.88 0,-43.12 127.75,-43.12 127.75,-24.88 0,-24.88"/>
</g>
<!-- TransportAlertPattern&#45;&gt;ITSPattern -->
<g id="edge1" class="edge">
<title>TransportAlertPattern&#45;&gt;ITSPattern</title>
<path fill="none" stroke="black" d="M63.88,-51.79C63.88,-59.25 63.88,-68.24 63.88,-76.69"/>
<polygon fill="none" stroke="black" points="60.38,-76.54 63.88,-86.54 67.38,-76.54 60.38,-76.54"/>
</g>
<!-- Invis -->
<!-- TransportAlertPattern&#45;&gt;Invis -->
</g>
</svg>
