<?xml version="1.0" encoding="UTF-8" standalone="no"?>
<!DOCTYPE svg PUBLIC "-//W3C//DTD SVG 1.1//EN"
 "http://www.w3.org/Graphics/SVG/1.1/DTD/svg11.dtd">
<!-- Generated by graphviz version 13.1.0 (20250701.0955)
 -->
<!-- Pages: 1 -->
<svg width="224pt" height="229pt"
 viewBox="0.00 0.00 224.00 229.00" xmlns="http://www.w3.org/2000/svg" xmlns:xlink="http://www.w3.org/1999/xlink">
<g id="graph0" class="graph" transform="scale(1 1) rotate(0) translate(4 225)">
<polygon fill="white" stroke="none" points="-4,4 -4,-225 220.25,-225 220.25,4 -4,4"/>
<g id="clust2" class="cluster">
<title>cluster_associated</title>
</g>
<!-- Alert -->
<g id="node1" class="node">
<title>Alert</title>
<polygon fill="lightgray" stroke="none" points="28.75,-194.88 28.75,-211.12 57.75,-211.12 57.75,-194.88 28.75,-194.88"/>
<text xml:space="preserve" text-anchor="start" x="29.75" y="-199.72" font-family="Arial" font-weight="bold" font-size="12.00">Alert</text>
<polygon fill="none" stroke="black" points="27.75,-193.88 27.75,-212.12 58.75,-212.12 58.75,-193.88 27.75,-193.88"/>
</g>
<!-- TransportAlert -->
<g id="node2" class="node">
<title>TransportAlert</title>
<polygon fill="lightgray" stroke="none" points="1,-121.88 1,-138.12 85.5,-138.12 85.5,-121.88 1,-121.88"/>
<text xml:space="preserve" text-anchor="start" x="2" y="-126.72" font-family="Arial" font-weight="bold" font-size="12.00">TransportAlert</text>
<polygon fill="none" stroke="black" points="0,-120.88 0,-139.12 86.5,-139.12 86.5,-120.88 0,-120.88"/>
</g>
<!-- TransportAlert&#45;&gt;Alert -->
<g id="edge1" class="edge">
<title>TransportAlert&#45;&gt;Alert</title>
<path fill="none" stroke="black" d="M43.25,-147.71C43.25,-155.47 43.25,-164.92 43.25,-173.74"/>
<polygon fill="none" stroke="black" points="39.75,-173.66 43.25,-183.66 46.75,-173.66 39.75,-173.66"/>
</g>
<!-- Invis -->
<!-- TransportAlert&#45;&gt;Invis -->
<!-- NetworkElement -->
<g id="node4" class="node">
<title>NetworkElement</title>
<polygon fill="lightgray" stroke="none" points="103.38,-25.88 103.38,-42.12 199.12,-42.12 199.12,-25.88 103.38,-25.88"/>
<text xml:space="preserve" text-anchor="start" x="104.38" y="-30.73" font-family="Arial" font-weight="bold" font-style="italic" font-size="12.00">NetworkElement</text>
<polygon fill="none" stroke="black" points="102.38,-24.88 102.38,-43.12 200.12,-43.12 200.12,-24.88 102.38,-24.88"/>
</g>
<!-- TransportAlert&#45;&gt;NetworkElement -->
<g id="edge4" class="edge">
<title>TransportAlert&#45;&gt;NetworkElement</title>
<path fill="none" stroke="black" d="M45.3,-112.02C47.69,-99.03 52.82,-81.45 63.75,-70 71.63,-61.75 81.71,-55.39 92.21,-50.52"/>
<polygon fill="black" stroke="black" points="93.5,-53.77 101.39,-46.7 90.81,-47.31 93.5,-53.77"/>
<text xml:space="preserve" text-anchor="middle" x="105" y="-84.5" font-family="Arial" font-size="10.00">«only»</text>
<text xml:space="preserve" text-anchor="middle" x="105" y="-72.5" font-family="Arial" font-size="10.00">onProperty: affects</text>
</g>
<!-- Invis&#45;&gt;NetworkElement -->
</g>
</svg>
