<?xml version="1.0" encoding="UTF-8" standalone="no"?>
<!DOCTYPE svg PUBLIC "-//W3C//DTD SVG 1.1//EN"
 "http://www.w3.org/Graphics/SVG/1.1/DTD/svg11.dtd">
<!-- Generated by graphviz version 14.0.2 (20251019.1705)
 -->
<!-- Pages: 1 -->
<svg width="206pt" height="132pt"
 viewBox="0.00 0.00 206.00 132.00" xmlns="http://www.w3.org/2000/svg" xmlns:xlink="http://www.w3.org/1999/xlink">
<g id="graph0" class="graph" transform="scale(1 1) rotate(0) translate(4 128)">
<polygon fill="white" stroke="none" points="-4,4 -4,-128 201.88,-128 201.88,4 -4,4"/>
<g id="clust2" class="cluster">
<title>cluster_associated</title>
</g>
<!-- TransportAlertThing -->
<g id="node1" class="node">
<title>TransportAlertThing</title>
<g id="a_node1"><a xlink:href="../TransportAlertThing.md" xlink:title="&lt;TABLE&gt;">
<polygon fill="lightgray" stroke="none" points="1,-25.88 1,-42.12 108.75,-42.12 108.75,-25.88 1,-25.88"/>
<text xml:space="preserve" text-anchor="start" x="2" y="-29.73" font-family="Arial" font-size="12.00">TransportAlertThing</text>
<polygon fill="none" stroke="black" points="0,-24.88 0,-43.12 109.75,-43.12 109.75,-24.88 0,-24.88"/>
</a>
</g>
</g>
<!-- ITSThing -->
<g id="node3" class="node">
<title>ITSThing</title>
<polygon fill="lightgray" stroke="none" points="29.12,-97.88 29.12,-114.12 80.62,-114.12 80.62,-97.88 29.12,-97.88"/>
<text xml:space="preserve" text-anchor="start" x="30.12" y="-101.72" font-family="Arial" font-size="12.00">ITSThing</text>
<polygon fill="none" stroke="black" points="28.12,-96.88 28.12,-115.12 81.62,-115.12 81.62,-96.88 28.12,-96.88"/>
</g>
<!-- TransportAlertThing&#45;&gt;ITSThing -->
<g id="edge1" class="edge">
<title>TransportAlertThing&#45;&gt;ITSThing</title>
<path fill="none" stroke="black" d="M54.88,-51.79C54.88,-59.25 54.88,-68.24 54.88,-76.69"/>
<polygon fill="none" stroke="black" points="51.38,-76.54 54.88,-86.54 58.38,-76.54 51.38,-76.54"/>
</g>
<!-- Invis -->
</g>
</svg>
