<?xml version="1.0" encoding="UTF-8" standalone="no"?>
<!DOCTYPE svg PUBLIC "-//W3C//DTD SVG 1.1//EN"
 "http://www.w3.org/Graphics/SVG/1.1/DTD/svg11.dtd">
<!-- Generated by graphviz version 14.0.2 (20251019.1705)
 -->
<!-- Pages: 1 -->
<svg width="226pt" height="132pt"
 viewBox="0.00 0.00 226.00 132.00" xmlns="http://www.w3.org/2000/svg" xmlns:xlink="http://www.w3.org/1999/xlink">
<g id="graph0" class="graph" transform="scale(1 1) rotate(0) translate(4 128)">
<polygon fill="white" stroke="none" points="-4,4 -4,-128 221.62,-128 221.62,4 -4,4"/>
<g id="clust2" class="cluster">
<title>cluster_associated</title>
</g>
<!-- TransportNetworkThing -->
<g id="node1" class="node">
<title>TransportNetworkThing</title>
<g id="a_node1"><a xlink:href="../TransportNetworkThing.md" xlink:title="&lt;TABLE&gt;">
<polygon fill="lightgray" stroke="none" points="1,-25.88 1,-42.12 128.25,-42.12 128.25,-25.88 1,-25.88"/>
<text xml:space="preserve" text-anchor="start" x="2" y="-29.73" font-family="Arial" font-size="12.00">TransportNetworkThing</text>
<polygon fill="none" stroke="black" points="0,-24.88 0,-43.12 129.25,-43.12 129.25,-24.88 0,-24.88"/>
</a>
</g>
</g>
<!-- ITSThing -->
<g id="node3" class="node">
<title>ITSThing</title>
<polygon fill="lightgray" stroke="none" points="38.88,-97.88 38.88,-114.12 90.38,-114.12 90.38,-97.88 38.88,-97.88"/>
<text xml:space="preserve" text-anchor="start" x="39.88" y="-101.72" font-family="Arial" font-size="12.00">ITSThing</text>
<polygon fill="none" stroke="black" points="37.88,-96.88 37.88,-115.12 91.38,-115.12 91.38,-96.88 37.88,-96.88"/>
</g>
<!-- TransportNetworkThing&#45;&gt;ITSThing -->
<g id="edge1" class="edge">
<title>TransportNetworkThing&#45;&gt;ITSThing</title>
<path fill="none" stroke="black" d="M64.62,-51.79C64.62,-59.25 64.62,-68.24 64.62,-76.69"/>
<polygon fill="none" stroke="black" points="61.13,-76.54 64.63,-86.54 68.13,-76.54 61.13,-76.54"/>
</g>
<!-- Invis -->
</g>
</svg>
