<?xml version="1.0" encoding="UTF-8" standalone="no"?>
<!DOCTYPE svg PUBLIC "-//W3C//DTD SVG 1.1//EN"
 "http://www.w3.org/Graphics/SVG/1.1/DTD/svg11.dtd">
<!-- Generated by graphviz version 14.0.2 (20251019.1705)
 -->
<!-- Pages: 1 -->
<svg width="250pt" height="232pt"
 viewBox="0.00 0.00 250.00 232.00" xmlns="http://www.w3.org/2000/svg" xmlns:xlink="http://www.w3.org/1999/xlink">
<g id="graph0" class="graph" transform="scale(1 1) rotate(0) translate(4 228)">
<polygon fill="white" stroke="none" points="-4,4 -4,-228 246.19,-228 246.19,4 -4,4"/>
<g id="clust2" class="cluster">
<title>cluster_associated</title>
</g>
<!-- TransportNode -->
<g id="node1" class="node">
<title>TransportNode</title>
<g id="a_node1"><a xlink:href="../TransportNode.md" xlink:title="&lt;TABLE&gt;">
<polygon fill="lightgray" stroke="none" points="133.25,-124.88 133.25,-141.12 214.75,-141.12 214.75,-124.88 133.25,-124.88"/>
<text xml:space="preserve" text-anchor="start" x="134.25" y="-128.72" font-family="Arial" font-size="12.00">TransportNode</text>
<polygon fill="none" stroke="black" points="132.25,-123.88 132.25,-142.12 215.75,-142.12 215.75,-123.88 132.25,-123.88"/>
</a>
</g>
</g>
<!-- Invis -->
<!-- TransportNode&#45;&gt;Invis -->
<!-- TravelledWayLink -->
<g id="node3" class="node">
<title>TravelledWayLink</title>
<g id="a_node3"><a xlink:href="../TravelledWayLink.md" xlink:title="&lt;TABLE&gt;">
<polygon fill="lightgray" stroke="none" points="17,-25.88 17,-42.12 115,-42.12 115,-25.88 17,-25.88"/>
<text xml:space="preserve" text-anchor="start" x="18" y="-29.73" font-family="Arial" font-size="12.00">TravelledWayLink</text>
<polygon fill="none" stroke="black" points="16,-24.88 16,-43.12 116,-43.12 116,-24.88 16,-24.88"/>
</a>
</g>
</g>
<!-- TransportNode&#45;&gt;TravelledWayLink -->
<g id="edge4" class="edge">
<title>TransportNode&#45;&gt;TravelledWayLink</title>
<path fill="none" stroke="black" d="M132.46,-116.44C109.02,-107.59 84.2,-98.05 83.25,-97 74.86,-87.75 70.51,-74.77 68.27,-63.07"/>
<polygon fill="black" stroke="black" points="71.77,-62.87 66.87,-53.48 64.85,-63.88 71.77,-62.87"/>
<text xml:space="preserve" text-anchor="middle" x="119.62" y="-86.55" font-family="Arial" font-size="11.00"> egress </text>
<text xml:space="preserve" text-anchor="middle" x="119.62" y="-73.05" font-family="Arial" font-size="11.00"> «min 1, only» &#160;</text>
</g>
<!-- TransportNode&#45;&gt;TravelledWayLink -->
<g id="edge5" class="edge">
<title>TransportNode&#45;&gt;TravelledWayLink</title>
<path fill="none" stroke="black" d="M173.1,-115.02C171.52,-101.3 167.28,-82.32 156,-70 147.94,-61.19 137.39,-54.57 126.37,-49.61"/>
<polygon fill="black" stroke="black" points="127.71,-46.38 117.13,-45.91 125.11,-52.88 127.71,-46.38"/>
<text xml:space="preserve" text-anchor="middle" x="205.81" y="-86.55" font-family="Arial" font-size="11.00"> ingress </text>
<text xml:space="preserve" text-anchor="middle" x="205.81" y="-73.05" font-family="Arial" font-size="11.00"> «min 1, only» &#160;</text>
</g>
<!-- NetworkElement -->
<g id="node4" class="node">
<title>NetworkElement</title>
<g id="a_node4"><a xlink:href="../NetworkElement.md" xlink:title="&lt;TABLE&gt;">
<polygon fill="lightgray" stroke="none" points="128.75,-197.88 128.75,-214.12 219.25,-214.12 219.25,-197.88 128.75,-197.88"/>
<text xml:space="preserve" text-anchor="start" x="129.75" y="-201.72" font-family="Arial" font-size="12.00">NetworkElement</text>
<polygon fill="none" stroke="black" points="127.75,-196.88 127.75,-215.12 220.25,-215.12 220.25,-196.88 127.75,-196.88"/>
</a>
</g>
</g>
<!-- TransportNode&#45;&gt;NetworkElement -->
<g id="edge1" class="edge">
<title>TransportNode&#45;&gt;NetworkElement</title>
<path fill="none" stroke="black" d="M174,-150.71C174,-158.47 174,-167.92 174,-176.74"/>
<polygon fill="none" stroke="black" points="170.5,-176.66 174,-186.66 177.5,-176.66 170.5,-176.66"/>
</g>
<!-- Invis&#45;&gt;TravelledWayLink -->
</g>
</svg>
