<?xml version="1.0" encoding="UTF-8" standalone="no"?>
<!DOCTYPE svg PUBLIC "-//W3C//DTD SVG 1.1//EN"
 "http://www.w3.org/Graphics/SVG/1.1/DTD/svg11.dtd">
<!-- Generated by graphviz version 13.1.0 (20250701.0955)
 -->
<!-- Pages: 1 -->
<svg width="224pt" height="217pt"
 viewBox="0.00 0.00 224.00 217.00" xmlns="http://www.w3.org/2000/svg" xmlns:xlink="http://www.w3.org/1999/xlink">
<g id="graph0" class="graph" transform="scale(1 1) rotate(0) translate(4 213)">
<polygon fill="white" stroke="none" points="-4,4 -4,-213 220.25,-213 220.25,4 -4,4"/>
<g id="clust2" class="cluster">
<title>cluster_associated</title>
</g>
<!-- Alert -->
<g id="node1" class="node">
<title>Alert</title>
<polygon fill="lightgray" stroke="none" points="28.75,-182.88 28.75,-199.12 57.75,-199.12 57.75,-182.88 28.75,-182.88"/>
<text xml:space="preserve" text-anchor="start" x="29.75" y="-187.72" font-family="Arial" font-weight="bold" font-size="12.00">Alert</text>
<polygon fill="none" stroke="black" points="27.75,-181.88 27.75,-200.12 58.75,-200.12 58.75,-181.88 27.75,-181.88"/>
</g>
<!-- TransportAlert -->
<g id="node2" class="node">
<title>TransportAlert</title>
<polygon fill="lightgray" stroke="none" points="1,-109.88 1,-126.12 85.5,-126.12 85.5,-109.88 1,-109.88"/>
<text xml:space="preserve" text-anchor="start" x="2" y="-114.72" font-family="Arial" font-weight="bold" font-size="12.00">TransportAlert</text>
<polygon fill="none" stroke="black" points="0,-108.88 0,-127.12 86.5,-127.12 86.5,-108.88 0,-108.88"/>
</g>
<!-- TransportAlert&#45;&gt;Alert -->
<g id="edge1" class="edge">
<title>TransportAlert&#45;&gt;Alert</title>
<path fill="none" stroke="black" d="M43.25,-135.71C43.25,-143.47 43.25,-152.92 43.25,-161.74"/>
<polygon fill="none" stroke="black" points="39.75,-161.66 43.25,-171.66 46.75,-161.66 39.75,-161.66"/>
</g>
<!-- Invis -->
<!-- TransportAlert&#45;&gt;Invis -->
<!-- NetworkElement -->
<g id="node4" class="node">
<title>NetworkElement</title>
<polygon fill="lightgray" stroke="none" points="103.38,-25.88 103.38,-42.12 199.12,-42.12 199.12,-25.88 103.38,-25.88"/>
<text xml:space="preserve" text-anchor="start" x="104.38" y="-30.73" font-family="Arial" font-weight="bold" font-style="italic" font-size="12.00">NetworkElement</text>
<polygon fill="none" stroke="black" points="102.38,-24.88 102.38,-43.12 200.12,-43.12 200.12,-24.88 102.38,-24.88"/>
</g>
<!-- TransportAlert&#45;&gt;NetworkElement -->
<g id="edge4" class="edge">
<title>TransportAlert&#45;&gt;NetworkElement</title>
<path fill="none" stroke="black" d="M55.72,-100.44C63.55,-90.77 74.27,-78.79 85.5,-70 91.32,-65.45 97.81,-61.19 104.39,-57.31"/>
<polygon fill="black" stroke="black" points="105.68,-60.6 112.7,-52.66 102.26,-54.49 105.68,-60.6"/>
<text xml:space="preserve" text-anchor="middle" x="115.88" y="-72.5" font-family="Arial" font-size="10.00">«only» affects</text>
</g>
<!-- Invis&#45;&gt;NetworkElement -->
</g>
</svg>
