<?xml version="1.0" encoding="UTF-8" standalone="no"?>
<!DOCTYPE svg PUBLIC "-//W3C//DTD SVG 1.1//EN"
 "http://www.w3.org/Graphics/SVG/1.1/DTD/svg11.dtd">
<!-- Generated by graphviz version 14.0.2 (20251019.1705)
 -->
<!-- Pages: 1 -->
<svg width="194pt" height="132pt"
 viewBox="0.00 0.00 194.00 132.00" xmlns="http://www.w3.org/2000/svg" xmlns:xlink="http://www.w3.org/1999/xlink">
<g id="graph0" class="graph" transform="scale(1 1) rotate(0) translate(4 128)">
<polygon fill="white" stroke="none" points="-4,4 -4,-128 190.25,-128 190.25,4 -4,4"/>
<g id="clust2" class="cluster">
<title>cluster_associated</title>
</g>
<!-- TransportNetwork -->
<g id="node1" class="node">
<title>TransportNetwork</title>
<g id="a_node1"><a xlink:href="../TransportNetwork.md" xlink:title="&lt;TABLE&gt;">
<polygon fill="lightgray" stroke="none" points="1,-25.88 1,-42.12 97.5,-42.12 97.5,-25.88 1,-25.88"/>
<text xml:space="preserve" text-anchor="start" x="2" y="-29.73" font-family="Arial" font-size="12.00">TransportNetwork</text>
<polygon fill="none" stroke="black" points="0,-24.88 0,-43.12 98.5,-43.12 98.5,-24.88 0,-24.88"/>
</a>
</g>
</g>
<!-- NetworkElement -->
<g id="node3" class="node">
<title>NetworkElement</title>
<g id="a_node3"><a xlink:href="../NetworkElement.md" xlink:title="&lt;TABLE&gt;">
<polygon fill="lightgray" stroke="none" points="4,-97.88 4,-114.12 94.5,-114.12 94.5,-97.88 4,-97.88"/>
<text xml:space="preserve" text-anchor="start" x="5" y="-101.72" font-family="Arial" font-size="12.00">NetworkElement</text>
<polygon fill="none" stroke="black" points="3,-96.88 3,-115.12 95.5,-115.12 95.5,-96.88 3,-96.88"/>
</a>
</g>
</g>
<!-- TransportNetwork&#45;&gt;NetworkElement -->
<g id="edge1" class="edge">
<title>TransportNetwork&#45;&gt;NetworkElement</title>
<path fill="none" stroke="black" d="M49.25,-51.79C49.25,-59.25 49.25,-68.24 49.25,-76.69"/>
<polygon fill="none" stroke="black" points="45.75,-76.54 49.25,-86.54 52.75,-76.54 45.75,-76.54"/>
</g>
<!-- Invis -->
</g>
</svg>
