<?xml version="1.0" encoding="UTF-8" standalone="no"?>
<!DOCTYPE svg PUBLIC "-//W3C//DTD SVG 1.1//EN"
 "http://www.w3.org/Graphics/SVG/1.1/DTD/svg11.dtd">
<!-- Generated by graphviz version 13.1.0 (20250701.0955)
 -->
<!-- Pages: 1 -->
<svg width="244pt" height="132pt"
 viewBox="0.00 0.00 244.00 132.00" xmlns="http://www.w3.org/2000/svg" xmlns:xlink="http://www.w3.org/1999/xlink">
<g id="graph0" class="graph" transform="scale(1 1) rotate(0) translate(4 128)">
<polygon fill="white" stroke="none" points="-4,4 -4,-128 240,-128 240,4 -4,4"/>
<g id="clust2" class="cluster">
<title>cluster_associated</title>
</g>
<!-- ITSPattern -->
<g id="node1" class="node">
<title>ITSPattern</title>
<polygon fill="lightgray" stroke="none" points="43,-97.88 43,-114.12 105,-114.12 105,-97.88 43,-97.88"/>
<text xml:space="preserve" text-anchor="start" x="44" y="-102.72" font-family="Arial" font-weight="bold" font-size="12.00">ITSPattern</text>
<polygon fill="none" stroke="black" points="42,-96.88 42,-115.12 106,-115.12 106,-96.88 42,-96.88"/>
</g>
<!-- TransportNetworkPattern -->
<g id="node2" class="node">
<title>TransportNetworkPattern</title>
<polygon fill="lightgray" stroke="none" points="1,-25.88 1,-42.12 147,-42.12 147,-25.88 1,-25.88"/>
<text xml:space="preserve" text-anchor="start" x="2" y="-30.73" font-family="Arial" font-weight="bold" font-size="12.00">TransportNetworkPattern</text>
<polygon fill="none" stroke="black" points="0,-24.88 0,-43.12 148,-43.12 148,-24.88 0,-24.88"/>
</g>
<!-- TransportNetworkPattern&#45;&gt;ITSPattern -->
<g id="edge1" class="edge">
<title>TransportNetworkPattern&#45;&gt;ITSPattern</title>
<path fill="none" stroke="black" d="M74,-51.79C74,-59.25 74,-68.24 74,-76.69"/>
<polygon fill="none" stroke="black" points="70.5,-76.54 74,-86.54 77.5,-76.54 70.5,-76.54"/>
</g>
<!-- Invis -->
<!-- TransportNetworkPattern&#45;&gt;Invis -->
</g>
</svg>
