<?xml version="1.0" encoding="UTF-8" standalone="no"?>
<!DOCTYPE svg PUBLIC "-//W3C//DTD SVG 1.1//EN"
 "http://www.w3.org/Graphics/SVG/1.1/DTD/svg11.dtd">
<!-- Generated by graphviz version 14.0.2 (20251019.1705)
 -->
<!-- Pages: 1 -->
<svg width="248pt" height="132pt"
 viewBox="0.00 0.00 248.00 132.00" xmlns="http://www.w3.org/2000/svg" xmlns:xlink="http://www.w3.org/1999/xlink">
<g id="graph0" class="graph" transform="scale(1 1) rotate(0) translate(4 128)">
<polygon fill="white" stroke="none" points="-4,4 -4,-128 243.62,-128 243.62,4 -4,4"/>
<g id="clust2" class="cluster">
<title>cluster_associated</title>
</g>
<!-- TravelCorridor -->
<g id="node1" class="node">
<title>TravelCorridor</title>
<g id="a_node1"><a xlink:href="../TravelCorridor.md" xlink:title="&lt;TABLE&gt;">
<polygon fill="lightgray" stroke="none" points="72.38,-25.88 72.38,-42.12 150.88,-42.12 150.88,-25.88 72.38,-25.88"/>
<text xml:space="preserve" text-anchor="start" x="73.38" y="-29.73" font-family="Arial" font-size="12.00">TravelCorridor</text>
<polygon fill="none" stroke="black" points="71.38,-24.88 71.38,-43.12 151.88,-43.12 151.88,-24.88 71.38,-24.88"/>
</a>
</g>
</g>
<!-- TravelCorridorThing -->
<g id="node3" class="node">
<title>TravelCorridorThing</title>
<polygon fill="lightgray" stroke="none" points="1,-97.88 1,-114.12 110.25,-114.12 110.25,-97.88 1,-97.88"/>
<text xml:space="preserve" text-anchor="start" x="2" y="-101.72" font-family="Arial" font-size="12.00">TravelCorridorThing</text>
<polygon fill="none" stroke="black" points="0,-96.88 0,-115.12 111.25,-115.12 111.25,-96.88 0,-96.88"/>
</g>
<!-- TravelCorridor&#45;&gt;TravelCorridorThing -->
<g id="edge1" class="edge">
<title>TravelCorridor&#45;&gt;TravelCorridorThing</title>
<path fill="none" stroke="black" d="M98.19,-51.79C91.61,-60.02 83.53,-70.11 76.19,-79.29"/>
<polygon fill="none" stroke="black" points="73.64,-76.88 70.13,-86.87 79.11,-81.25 73.64,-76.88"/>
</g>
<!-- TravelledWay -->
<g id="node4" class="node">
<title>TravelledWay</title>
<g id="a_node4"><a xlink:href="../TravelledWay.md" xlink:title="&lt;TABLE&gt;">
<polygon fill="lightgray" stroke="none" points="129.88,-97.88 129.88,-114.12 205.38,-114.12 205.38,-97.88 129.88,-97.88"/>
<text xml:space="preserve" text-anchor="start" x="130.88" y="-101.72" font-family="Arial" font-size="12.00">TravelledWay</text>
<polygon fill="none" stroke="black" points="128.88,-96.88 128.88,-115.12 206.38,-115.12 206.38,-96.88 128.88,-96.88"/>
</a>
</g>
</g>
<!-- TravelCorridor&#45;&gt;TravelledWay -->
<g id="edge2" class="edge">
<title>TravelCorridor&#45;&gt;TravelledWay</title>
<path fill="none" stroke="black" d="M125.06,-51.79C131.64,-60.02 139.72,-70.11 147.06,-79.29"/>
<polygon fill="none" stroke="black" points="144.14,-81.25 153.12,-86.87 149.61,-76.88 144.14,-81.25"/>
</g>
<!-- Invis -->
</g>
</svg>
