<?xml version="1.0" encoding="UTF-8" standalone="no"?>
<!DOCTYPE svg PUBLIC "-//W3C//DTD SVG 1.1//EN"
 "http://www.w3.org/Graphics/SVG/1.1/DTD/svg11.dtd">
<!-- Generated by graphviz version 14.0.2 (20251019.1705)
 -->
<!-- Pages: 1 -->
<svg width="337pt" height="305pt"
 viewBox="0.00 0.00 337.00 305.00" xmlns="http://www.w3.org/2000/svg" xmlns:xlink="http://www.w3.org/1999/xlink">
<g id="graph0" class="graph" transform="scale(1 1) rotate(0) translate(4 301)">
<polygon fill="white" stroke="none" points="-4,4 -4,-301 332.92,-301 332.92,4 -4,4"/>
<g id="clust2" class="cluster">
<title>cluster_associated</title>
</g>
<!-- TravelledWayLink -->
<g id="node1" class="node">
<title>TravelledWayLink</title>
<g id="a_node1"><a xlink:href="../TravelledWayLink.md" xlink:title="&lt;TABLE&gt;">
<polygon fill="lightgray" stroke="none" points="117,-197.88 117,-214.12 215,-214.12 215,-197.88 117,-197.88"/>
<text xml:space="preserve" text-anchor="start" x="118" y="-201.72" font-family="Arial" font-size="12.00">TravelledWayLink</text>
<polygon fill="none" stroke="black" points="116,-196.88 116,-215.12 216,-215.12 216,-196.88 116,-196.88"/>
</a>
</g>
</g>
<!-- Invis -->
<!-- TravelledWayLink&#45;&gt;Invis -->
<!-- cdm2_Code -->
<g id="node3" class="node">
<title>cdm2_Code</title>
<polygon fill="lightgray" stroke="none" points="26.25,-98.88 26.25,-115.12 89.75,-115.12 89.75,-98.88 26.25,-98.88"/>
<text xml:space="preserve" text-anchor="start" x="27.25" y="-102.72" font-family="Arial" font-size="12.00">cdm2:Code</text>
<polygon fill="none" stroke="black" points="25.25,-97.88 25.25,-116.12 90.75,-116.12 90.75,-97.88 25.25,-97.88"/>
</g>
<!-- TravelledWayLink&#45;&gt;cdm2_Code -->
<g id="edge6" class="edge">
<title>TravelledWayLink&#45;&gt;cdm2_Code</title>
<path fill="none" stroke="black" d="M116.28,-189.22C89.29,-180.54 61.21,-171.28 60.25,-170 53.15,-160.54 51.73,-147.78 52.42,-136.3"/>
<polygon fill="black" stroke="black" points="55.88,-136.83 53.58,-126.49 48.93,-136.01 55.88,-136.83"/>
<text xml:space="preserve" text-anchor="middle" x="105.62" y="-159.55" font-family="Arial" font-size="11.00"> allowedDirections </text>
<text xml:space="preserve" text-anchor="middle" x="105.62" y="-146.05" font-family="Arial" font-size="11.00"> «max 1, only» &#160;</text>
</g>
<!-- TransportNode -->
<g id="node4" class="node">
<title>TransportNode</title>
<g id="a_node4"><a xlink:href="../TransportNode.md" xlink:title="&lt;TABLE&gt;">
<polygon fill="lightgray" stroke="none" points="17.25,-25.88 17.25,-42.12 98.75,-42.12 98.75,-25.88 17.25,-25.88"/>
<text xml:space="preserve" text-anchor="start" x="18.25" y="-29.73" font-family="Arial" font-size="12.00">TransportNode</text>
<polygon fill="none" stroke="black" points="16.25,-24.88 16.25,-43.12 99.75,-43.12 99.75,-24.88 16.25,-24.88"/>
</a>
</g>
</g>
<!-- TravelledWayLink&#45;&gt;TransportNode -->
<g id="edge7" class="edge">
<title>TravelledWayLink&#45;&gt;TransportNode</title>
<path fill="none" stroke="black" d="M164.12,-188.2C162.17,-175.28 158.33,-157.29 151,-143 134.42,-110.69 106.28,-79.93 85.29,-59.56"/>
<polygon fill="black" stroke="black" points="87.82,-57.14 78.16,-52.8 83.01,-62.22 87.82,-57.14"/>
<text xml:space="preserve" text-anchor="middle" x="184.44" y="-110.05" font-family="Arial" font-size="11.00"> from </text>
<text xml:space="preserve" text-anchor="middle" x="184.44" y="-96.55" font-family="Arial" font-size="11.00"> «exactly 1, only» &#160;</text>
</g>
<!-- TravelledWayLink&#45;&gt;TransportNode -->
<g id="edge8" class="edge">
<title>TravelledWayLink&#45;&gt;TransportNode</title>
<path fill="none" stroke="black" d="M188.19,-188.14C216.06,-164.9 257.44,-122.12 233,-89 205.19,-51.31 151.44,-39.12 110.81,-35.56"/>
<polygon fill="black" stroke="black" points="111.2,-32.08 100.98,-34.86 110.71,-39.06 111.2,-32.08"/>
<text xml:space="preserve" text-anchor="middle" x="284.67" y="-110.05" font-family="Arial" font-size="11.00"> to </text>
<text xml:space="preserve" text-anchor="middle" x="284.67" y="-96.55" font-family="Arial" font-size="11.00"> «exactly 1, only» &#160;</text>
</g>
<!-- cdm2_TravelledWayLink -->
<g id="node5" class="node">
<title>cdm2_TravelledWayLink</title>
<polygon fill="lightgray" stroke="none" points="35.88,-270.88 35.88,-287.12 166.12,-287.12 166.12,-270.88 35.88,-270.88"/>
<text xml:space="preserve" text-anchor="start" x="36.88" y="-274.73" font-family="Arial" font-size="12.00">cdm2:TravelledWayLink</text>
<polygon fill="none" stroke="black" points="34.88,-269.88 34.88,-288.12 167.12,-288.12 167.12,-269.88 34.88,-269.88"/>
</g>
<!-- TravelledWayLink&#45;&gt;cdm2_TravelledWayLink -->
<g id="edge1" class="edge">
<title>TravelledWayLink&#45;&gt;cdm2_TravelledWayLink</title>
<path fill="none" stroke="black" d="M150.71,-223.71C142.79,-232.35 132.96,-243.09 124.14,-252.72"/>
<polygon fill="none" stroke="black" points="121.6,-250.32 117.43,-260.06 126.76,-255.05 121.6,-250.32"/>
</g>
<!-- NetworkElement -->
<g id="node6" class="node">
<title>NetworkElement</title>
<g id="a_node6"><a xlink:href="../NetworkElement.md" xlink:title="&lt;TABLE&gt;">
<polygon fill="lightgray" stroke="none" points="185.75,-270.88 185.75,-287.12 276.25,-287.12 276.25,-270.88 185.75,-270.88"/>
<text xml:space="preserve" text-anchor="start" x="186.75" y="-274.73" font-family="Arial" font-size="12.00">NetworkElement</text>
<polygon fill="none" stroke="black" points="184.75,-269.88 184.75,-288.12 277.25,-288.12 277.25,-269.88 184.75,-269.88"/>
</a>
</g>
</g>
<!-- TravelledWayLink&#45;&gt;NetworkElement -->
<g id="edge2" class="edge">
<title>TravelledWayLink&#45;&gt;NetworkElement</title>
<path fill="none" stroke="black" d="M181.29,-223.71C189.21,-232.35 199.04,-243.09 207.86,-252.72"/>
<polygon fill="none" stroke="black" points="205.24,-255.05 214.57,-260.06 210.4,-250.32 205.24,-255.05"/>
</g>
<!-- Invis&#45;&gt;cdm2_Code -->
<!-- cdm2_Code&#45;&gt;TransportNode -->
</g>
</svg>
