<?xml version="1.0" encoding="UTF-8" standalone="no"?>
<!DOCTYPE svg PUBLIC "-//W3C//DTD SVG 1.1//EN"
 "http://www.w3.org/Graphics/SVG/1.1/DTD/svg11.dtd">
<!-- Generated by graphviz version 14.0.2 (20251019.1705)
 -->
<!-- Pages: 1 -->
<svg width="214pt" height="132pt"
 viewBox="0.00 0.00 214.00 132.00" xmlns="http://www.w3.org/2000/svg" xmlns:xlink="http://www.w3.org/1999/xlink">
<g id="graph0" class="graph" transform="scale(1 1) rotate(0) translate(4 128)">
<polygon fill="white" stroke="none" points="-4,4 -4,-128 210,-128 210,4 -4,4"/>
<g id="clust2" class="cluster">
<title>cluster_associated</title>
</g>
<!-- TravelledWaySection -->
<g id="node1" class="node">
<title>TravelledWaySection</title>
<g id="a_node1"><a xlink:href="../TravelledWaySection.md" xlink:title="&lt;TABLE&gt;">
<polygon fill="lightgray" stroke="none" points="1,-25.88 1,-42.12 117,-42.12 117,-25.88 1,-25.88"/>
<text xml:space="preserve" text-anchor="start" x="2" y="-29.73" font-family="Arial" font-size="12.00">TravelledWaySection</text>
<polygon fill="none" stroke="black" points="0,-24.88 0,-43.12 118,-43.12 118,-24.88 0,-24.88"/>
</a>
</g>
</g>
<!-- NetworkElement -->
<g id="node3" class="node">
<title>NetworkElement</title>
<g id="a_node3"><a xlink:href="../NetworkElement.md" xlink:title="&lt;TABLE&gt;">
<polygon fill="lightgray" stroke="none" points="13.75,-97.88 13.75,-114.12 104.25,-114.12 104.25,-97.88 13.75,-97.88"/>
<text xml:space="preserve" text-anchor="start" x="14.75" y="-101.72" font-family="Arial" font-size="12.00">NetworkElement</text>
<polygon fill="none" stroke="black" points="12.75,-96.88 12.75,-115.12 105.25,-115.12 105.25,-96.88 12.75,-96.88"/>
</a>
</g>
</g>
<!-- TravelledWaySection&#45;&gt;NetworkElement -->
<g id="edge1" class="edge">
<title>TravelledWaySection&#45;&gt;NetworkElement</title>
<path fill="none" stroke="black" d="M59,-51.79C59,-59.25 59,-68.24 59,-76.69"/>
<polygon fill="none" stroke="black" points="55.5,-76.54 59,-86.54 62.5,-76.54 55.5,-76.54"/>
</g>
<!-- Invis -->
</g>
</svg>
