<?xml version="1.0" encoding="UTF-8" standalone="no"?>
<!DOCTYPE svg PUBLIC "-//W3C//DTD SVG 1.1//EN"
 "http://www.w3.org/Graphics/SVG/1.1/DTD/svg11.dtd">
<!-- Generated by graphviz version 13.1.0 (20250701.0955)
 -->
<!-- Pages: 1 -->
<svg width="933pt" height="615pt"
 viewBox="0.00 0.00 933.00 615.00" xmlns="http://www.w3.org/2000/svg" xmlns:xlink="http://www.w3.org/1999/xlink">
<g id="graph0" class="graph" transform="scale(1 1) rotate(0) translate(4 611)">
<polygon fill="white" stroke="none" points="-4,4 -4,-611 929.25,-611 929.25,4 -4,4"/>
<g id="clust2" class="cluster">
<title>cluster_associated</title>
</g>
<!-- NetworkElement -->
<g id="node1" class="node">
<title>NetworkElement</title>
<polygon fill="lightgray" stroke="none" points="381.62,-580.88 381.62,-597.12 477.38,-597.12 477.38,-580.88 381.62,-580.88"/>
<text xml:space="preserve" text-anchor="start" x="382.62" y="-585.73" font-family="Arial" font-weight="bold" font-style="italic" font-size="12.00">NetworkElement</text>
<polygon fill="none" stroke="black" points="380.62,-579.88 380.62,-598.12 478.38,-598.12 478.38,-579.88 380.62,-579.88"/>
</g>
<!-- transinfras_TravelledWayLink -->
<g id="node2" class="node">
<title>transinfras_TravelledWayLink</title>
<polygon fill="lightgray" stroke="none" points="497.25,-580.88 497.25,-597.12 665.75,-597.12 665.75,-580.88 497.25,-580.88"/>
<text xml:space="preserve" text-anchor="start" x="498.25" y="-585.73" font-family="Arial" font-weight="bold" font-size="12.00">transinfras:TravelledWayLink</text>
<polygon fill="none" stroke="black" points="496.25,-579.88 496.25,-598.12 666.75,-598.12 666.75,-579.88 496.25,-579.88"/>
</g>
<!-- TravelledWayLink -->
<g id="node3" class="node">
<title>TravelledWayLink</title>
<polygon fill="lightgray" stroke="none" points="382.88,-496.88 382.88,-513.12 486.12,-513.12 486.12,-496.88 382.88,-496.88"/>
<text xml:space="preserve" text-anchor="start" x="383.88" y="-501.73" font-family="Arial" font-weight="bold" font-size="12.00">TravelledWayLink</text>
<polygon fill="none" stroke="black" points="381.88,-495.88 381.88,-514.12 487.12,-514.12 487.12,-495.88 381.88,-495.88"/>
</g>
<!-- TravelledWayLink&#45;&gt;NetworkElement -->
<g id="edge1" class="edge">
<title>TravelledWayLink&#45;&gt;NetworkElement</title>
<path fill="none" stroke="black" d="M433.47,-522.97C432.82,-533.52 431.98,-547.35 431.24,-559.54"/>
<polygon fill="none" stroke="black" points="427.74,-559.3 430.63,-569.5 434.73,-559.73 427.74,-559.3"/>
</g>
<!-- TravelledWayLink&#45;&gt;transinfras_TravelledWayLink -->
<g id="edge2" class="edge">
<title>TravelledWayLink&#45;&gt;transinfras_TravelledWayLink</title>
<path fill="none" stroke="black" d="M464.92,-522.97C486.99,-535.28 517.06,-552.05 541.13,-565.48"/>
<polygon fill="none" stroke="black" points="539.28,-568.46 549.72,-570.27 542.69,-562.34 539.28,-568.46"/>
</g>
<!-- Invis -->
<!-- TravelledWayLink&#45;&gt;Invis -->
<!-- TransportNetwork -->
<g id="node5" class="node">
<title>TransportNetwork</title>
<polygon fill="lightgray" stroke="none" points="188.12,-412.88 188.12,-429.12 292.88,-429.12 292.88,-412.88 188.12,-412.88"/>
<text xml:space="preserve" text-anchor="start" x="189.12" y="-417.73" font-family="Arial" font-weight="bold" font-size="12.00">TransportNetwork</text>
<polygon fill="none" stroke="black" points="187.12,-411.88 187.12,-430.12 293.88,-430.12 293.88,-411.88 187.12,-411.88"/>
</g>
<!-- TravelledWayLink&#45;&gt;TransportNetwork -->
<g id="edge18" class="edge">
<title>TravelledWayLink&#45;&gt;TransportNetwork</title>
<path fill="none" stroke="black" stroke-dasharray="5,2" d="M382.11,-495.28C321.51,-485.15 229.87,-469.74 229.25,-469 224.63,-463.53 224.34,-456.49 226.01,-449.52"/>
<polygon fill="black" stroke="black" points="229.23,-450.91 229.37,-440.31 222.66,-448.5 229.23,-450.91"/>
<text xml:space="preserve" text-anchor="middle" x="324.88" y="-459.5" font-family="Arial" font-size="10.00">«min 1» onProperty: partwhole:properPartOf</text>
</g>
<!-- TransportNode -->
<g id="node6" class="node">
<title>TransportNode</title>
<polygon fill="lightgray" stroke="none" points="223.38,-328.88 223.38,-345.12 311.62,-345.12 311.62,-328.88 223.38,-328.88"/>
<text xml:space="preserve" text-anchor="start" x="224.38" y="-333.73" font-family="Arial" font-weight="bold" font-size="12.00">TransportNode</text>
<polygon fill="none" stroke="black" points="222.38,-327.88 222.38,-346.12 312.62,-346.12 312.62,-327.88 222.38,-327.88"/>
</g>
<!-- TravelledWayLink&#45;&gt;TransportNode -->
<g id="edge11" class="edge">
<title>TravelledWayLink&#45;&gt;TransportNode</title>
<path fill="none" stroke="black" d="M433.58,-487.03C432.14,-476.96 428.68,-464.71 420.5,-457 395,-432.97 373.11,-458.12 343.75,-439 315.49,-420.6 293.71,-387.95 280.79,-364.76"/>
<polygon fill="black" stroke="black" points="284.01,-363.36 276.21,-356.19 277.84,-366.66 284.01,-363.36"/>
<text xml:space="preserve" text-anchor="middle" x="392.12" y="-417.5" font-family="Arial" font-size="10.00">«exactly 1, only» from</text>
</g>
<!-- TravelledWayLink&#45;&gt;TransportNode -->
<g id="edge12" class="edge">
<title>TravelledWayLink&#45;&gt;TransportNode</title>
<path fill="none" stroke="black" d="M441.31,-487.28C448.88,-465.76 457.9,-428.13 440.5,-403 414.34,-365.23 363.32,-349.37 323.43,-342.74"/>
<polygon fill="black" stroke="black" points="324.14,-339.31 313.74,-341.29 323.11,-346.23 324.14,-339.31"/>
<text xml:space="preserve" text-anchor="middle" x="493.25" y="-417.5" font-family="Arial" font-size="10.00">«exactly 1, only» to</text>
</g>
<!-- TravelledWaySegment -->
<g id="node9" class="node">
<title>TravelledWaySegment</title>
<polygon fill="lightgray" stroke="none" points="188.75,-98.88 188.75,-115.12 318.25,-115.12 318.25,-98.88 188.75,-98.88"/>
<text xml:space="preserve" text-anchor="start" x="189.75" y="-103.72" font-family="Arial" font-weight="bold" font-size="12.00">TravelledWaySegment</text>
<polygon fill="none" stroke="black" points="187.75,-97.88 187.75,-116.12 319.25,-116.12 319.25,-97.88 187.75,-97.88"/>
</g>
<!-- TravelledWayLink&#45;&gt;TravelledWaySegment -->
<g id="edge13" class="edge">
<title>TravelledWayLink&#45;&gt;TravelledWaySegment</title>
<path fill="none" stroke="black" stroke-dasharray="5,2" d="M486.97,-495.53C527.42,-485.65 576.5,-464.84 576.5,-422 576.5,-422 576.5,-422 576.5,-179 576.5,-128.79 425.75,-114.05 330.23,-109.75"/>
<polygon fill="black" stroke="black" points="330.51,-106.25 320.38,-109.33 330.22,-113.25 330.51,-106.25"/>
<text xml:space="preserve" text-anchor="middle" x="672.5" y="-291.5" font-family="Arial" font-size="10.00">«only» onProperty: partwhole:hasProperPart</text>
</g>
<!-- code_Code -->
<g id="node10" class="node">
<title>code_Code</title>
<polygon fill="lightgray" stroke="none" points="237,-25.88 237,-42.12 302,-42.12 302,-25.88 237,-25.88"/>
<text xml:space="preserve" text-anchor="start" x="238" y="-30.73" font-family="Arial" font-weight="bold" font-size="12.00">code:Code</text>
<polygon fill="none" stroke="black" points="236,-24.88 236,-43.12 303,-43.12 303,-24.88 236,-24.88"/>
</g>
<!-- TravelledWayLink&#45;&gt;code_Code -->
<g id="edge10" class="edge">
<title>TravelledWayLink&#45;&gt;code_Code</title>
<path fill="none" stroke="black" d="M486.75,-502.49C584.11,-498.25 783.5,-482.22 783.5,-422 783.5,-422 783.5,-422 783.5,-106 783.5,-58.82 439.29,-41.31 314.23,-36.51"/>
<polygon fill="black" stroke="black" points="314.47,-33.01 304.34,-36.14 314.2,-40.01 314.47,-33.01"/>
<text xml:space="preserve" text-anchor="middle" x="854.38" y="-249.5" font-family="Arial" font-size="10.00">«max 1, only» allowedDirections</text>
</g>
<!-- Union_partwhole_properPartOf -->
<g id="node11" class="node">
<title>Union_partwhole_properPartOf</title>
<polygon fill="lightyellow" stroke="none" points="0,-572.75 0,-605.25 325,-605.25 325,-572.75 0,-572.75"/>
<text xml:space="preserve" text-anchor="start" x="134.75" y="-591.85" font-family="Arial" font-size="12.00">«unionOf»</text>
<text xml:space="preserve" text-anchor="start" x="2" y="-577.6" font-family="Arial" font-size="12.00">[TransportNetwork or TravelledWay or TravelledWaySection]</text>
<polygon fill="none" stroke="black" points="0,-572.75 0,-605.25 325,-605.25 325,-572.75 0,-572.75"/>
</g>
<!-- TravelledWayLink&#45;&gt;Union_partwhole_properPartOf -->
<g id="edge17" class="edge">
<title>TravelledWayLink&#45;&gt;Union_partwhole_properPartOf</title>
<path fill="none" stroke="black" stroke-dasharray="5,2" d="M382.11,-520.07C365.97,-524.04 348.08,-528.07 331.5,-531 292.19,-537.94 280.11,-528.37 242.25,-541 225.69,-546.53 208.82,-555.83 194.89,-564.7"/>
<polygon fill="black" stroke="black" points="192.99,-561.76 186.58,-570.19 196.85,-567.6 192.99,-561.76"/>
<text xml:space="preserve" text-anchor="middle" x="334.88" y="-543.5" font-family="Arial" font-size="10.00">«only» onProperty: partwhole:properPartOf</text>
</g>
<!-- Invis&#45;&gt;TransportNetwork -->
<!-- TransportNetwork&#45;&gt;TransportNode -->
<!-- TravelledWay -->
<g id="node7" class="node">
<title>TravelledWay</title>
<polygon fill="lightgray" stroke="none" points="211.25,-244.88 211.25,-261.12 289.75,-261.12 289.75,-244.88 211.25,-244.88"/>
<text xml:space="preserve" text-anchor="start" x="212.25" y="-249.72" font-family="Arial" font-weight="bold" font-size="12.00">TravelledWay</text>
<polygon fill="none" stroke="black" points="210.25,-243.88 210.25,-262.12 290.75,-262.12 290.75,-243.88 210.25,-243.88"/>
</g>
<!-- TransportNode&#45;&gt;TravelledWay -->
<!-- TravelledWaySection -->
<g id="node8" class="node">
<title>TravelledWaySection</title>
<polygon fill="lightgray" stroke="none" points="189.5,-171.88 189.5,-188.12 311.5,-188.12 311.5,-171.88 189.5,-171.88"/>
<text xml:space="preserve" text-anchor="start" x="190.5" y="-176.72" font-family="Arial" font-weight="bold" font-size="12.00">TravelledWaySection</text>
<polygon fill="none" stroke="black" points="188.5,-170.88 188.5,-189.12 312.5,-189.12 312.5,-170.88 188.5,-170.88"/>
</g>
<!-- TravelledWay&#45;&gt;TravelledWaySection -->
<!-- TravelledWaySection&#45;&gt;TravelledWaySegment -->
<!-- TravelledWaySegment&#45;&gt;code_Code -->
<!-- Union_partwhole_properPartOf&#45;&gt;TransportNetwork -->
<g id="edge14" class="edge">
<title>Union_partwhole_properPartOf&#45;&gt;TransportNetwork</title>
<path fill="none" stroke="black" stroke-dasharray="1,5" d="M164.97,-571.14C169.37,-545.04 180.4,-493.99 203.5,-457 205.69,-453.49 208.31,-450.1 211.14,-446.9"/>
<polygon fill="black" stroke="black" points="213.4,-449.59 217.88,-439.99 208.39,-444.7 213.4,-449.59"/>
<text xml:space="preserve" text-anchor="middle" x="205.24" y="-501.5" font-family="Arial" font-size="10.00">member</text>
</g>
<!-- Union_partwhole_properPartOf&#45;&gt;TravelledWay -->
<g id="edge15" class="edge">
<title>Union_partwhole_properPartOf&#45;&gt;TravelledWay</title>
<path fill="none" stroke="black" stroke-dasharray="1,5" d="M152.68,-571.02C144.27,-554.85 133.5,-529.56 133.5,-506 133.5,-506 133.5,-506 133.5,-336 133.5,-301.35 168.35,-280.09 200,-267.94"/>
<polygon fill="black" stroke="black" points="200.9,-271.33 209.14,-264.67 198.54,-264.74 200.9,-271.33"/>
<text xml:space="preserve" text-anchor="middle" x="151.12" y="-417.5" font-family="Arial" font-size="10.00">member</text>
</g>
<!-- Union_partwhole_properPartOf&#45;&gt;TravelledWaySection -->
<g id="edge16" class="edge">
<title>Union_partwhole_properPartOf&#45;&gt;TravelledWaySection</title>
<path fill="none" stroke="black" stroke-dasharray="1,5" d="M130.82,-571.29C108.84,-557.16 83.5,-534.66 83.5,-506 83.5,-506 83.5,-506 83.5,-252 83.5,-208.29 132.55,-191.1 177.49,-184.53"/>
<polygon fill="black" stroke="black" points="177.82,-188.02 187.29,-183.27 176.92,-181.07 177.82,-188.02"/>
<text xml:space="preserve" text-anchor="middle" x="101.12" y="-375.5" font-family="Arial" font-size="10.00">member</text>
</g>
</g>
</svg>
