<?xml version="1.0" encoding="UTF-8" standalone="no"?>
<!DOCTYPE svg PUBLIC "-//W3C//DTD SVG 1.1//EN"
 "http://www.w3.org/Graphics/SVG/1.1/DTD/svg11.dtd">
<!-- Generated by graphviz version 13.1.0 (20250701.0955)
 -->
<!-- Pages: 1 -->
<svg width="851pt" height="651pt"
 viewBox="0.00 0.00 851.00 651.00" xmlns="http://www.w3.org/2000/svg" xmlns:xlink="http://www.w3.org/1999/xlink">
<g id="graph0" class="graph" transform="scale(1 1) rotate(0) translate(4 647)">
<polygon fill="white" stroke="none" points="-4,4 -4,-647 847,-647 847,4 -4,4"/>
<g id="clust2" class="cluster">
<title>cluster_associated</title>
</g>
<!-- NetworkElement -->
<g id="node1" class="node">
<title>NetworkElement</title>
<polygon fill="lightgray" stroke="none" points="352.62,-616.88 352.62,-633.12 448.38,-633.12 448.38,-616.88 352.62,-616.88"/>
<text xml:space="preserve" text-anchor="start" x="353.62" y="-621.73" font-family="Arial" font-weight="bold" font-style="italic" font-size="12.00">NetworkElement</text>
<polygon fill="none" stroke="black" points="351.62,-615.88 351.62,-634.12 449.38,-634.12 449.38,-615.88 351.62,-615.88"/>
</g>
<!-- transinfras_TravelledWayLink -->
<g id="node2" class="node">
<title>transinfras_TravelledWayLink</title>
<polygon fill="lightgray" stroke="none" points="468.25,-616.88 468.25,-633.12 636.75,-633.12 636.75,-616.88 468.25,-616.88"/>
<text xml:space="preserve" text-anchor="start" x="469.25" y="-621.73" font-family="Arial" font-weight="bold" font-size="12.00">transinfras:TravelledWayLink</text>
<polygon fill="none" stroke="black" points="467.25,-615.88 467.25,-634.12 637.75,-634.12 637.75,-615.88 467.25,-615.88"/>
</g>
<!-- TravelledWayLink -->
<g id="node3" class="node">
<title>TravelledWayLink</title>
<polygon fill="lightgray" stroke="none" points="350.88,-520.88 350.88,-537.12 454.12,-537.12 454.12,-520.88 350.88,-520.88"/>
<text xml:space="preserve" text-anchor="start" x="351.88" y="-525.73" font-family="Arial" font-weight="bold" font-size="12.00">TravelledWayLink</text>
<polygon fill="none" stroke="black" points="349.88,-519.88 349.88,-538.12 455.12,-538.12 455.12,-519.88 349.88,-519.88"/>
</g>
<!-- TravelledWayLink&#45;&gt;NetworkElement -->
<g id="edge1" class="edge">
<title>TravelledWayLink&#45;&gt;NetworkElement</title>
<path fill="none" stroke="black" d="M402.14,-546.98C401.85,-560.58 401.44,-579.94 401.1,-595.85"/>
<polygon fill="none" stroke="black" points="397.6,-595.61 400.89,-605.68 404.6,-595.76 397.6,-595.61"/>
</g>
<!-- TravelledWayLink&#45;&gt;transinfras_TravelledWayLink -->
<g id="edge2" class="edge">
<title>TravelledWayLink&#45;&gt;transinfras_TravelledWayLink</title>
<path fill="none" stroke="black" d="M429.59,-546.98C453.74,-562.11 489.28,-584.38 515.94,-601.09"/>
<polygon fill="none" stroke="black" points="514.07,-604.05 524.4,-606.39 517.79,-598.12 514.07,-604.05"/>
</g>
<!-- Invis -->
<!-- TravelledWayLink&#45;&gt;Invis -->
<!-- TransportNetwork -->
<g id="node5" class="node">
<title>TransportNetwork</title>
<polygon fill="lightgray" stroke="none" points="183.12,-424.88 183.12,-441.12 287.88,-441.12 287.88,-424.88 183.12,-424.88"/>
<text xml:space="preserve" text-anchor="start" x="184.12" y="-429.73" font-family="Arial" font-weight="bold" font-size="12.00">TransportNetwork</text>
<polygon fill="none" stroke="black" points="182.12,-423.88 182.12,-442.12 288.88,-442.12 288.88,-423.88 182.12,-423.88"/>
</g>
<!-- TravelledWayLink&#45;&gt;TransportNetwork -->
<g id="edge18" class="edge">
<title>TravelledWayLink&#45;&gt;TransportNetwork</title>
<path fill="none" stroke="black" stroke-dasharray="5,2" d="M350.21,-516.11C342.27,-514.36 334.17,-512.61 326.5,-511 285.83,-502.46 261.15,-525.09 234.75,-493 227.77,-484.52 226.77,-472.79 227.96,-462.03"/>
<polygon fill="black" stroke="black" points="231.37,-462.87 229.67,-452.41 224.48,-461.64 231.37,-462.87"/>
<text xml:space="preserve" text-anchor="middle" x="311.62" y="-483.5" font-family="Arial" font-size="10.00">«min 1»</text>
<text xml:space="preserve" text-anchor="middle" x="311.62" y="-471.5" font-family="Arial" font-size="10.00">onProperty: partwhole:properPartOf</text>
</g>
<!-- TransportNode -->
<g id="node6" class="node">
<title>TransportNode</title>
<polygon fill="lightgray" stroke="none" points="215.38,-340.88 215.38,-357.12 303.62,-357.12 303.62,-340.88 215.38,-340.88"/>
<text xml:space="preserve" text-anchor="start" x="216.38" y="-345.73" font-family="Arial" font-weight="bold" font-size="12.00">TransportNode</text>
<polygon fill="none" stroke="black" points="214.38,-339.88 214.38,-358.12 304.62,-358.12 304.62,-339.88 214.38,-339.88"/>
</g>
<!-- TravelledWayLink&#45;&gt;TransportNode -->
<g id="edge11" class="edge">
<title>TravelledWayLink&#45;&gt;TransportNode</title>
<path fill="none" stroke="black" d="M402.64,-511.03C401.86,-498.03 398.75,-480.45 388.5,-469 372.68,-451.32 357.47,-464.9 338.25,-451 310.75,-431.11 288.05,-399.04 274.2,-376.38"/>
<polygon fill="black" stroke="black" points="277.35,-374.83 269.25,-368.01 271.33,-378.4 277.35,-374.83"/>
<text xml:space="preserve" text-anchor="middle" x="375.38" y="-435.5" font-family="Arial" font-size="10.00">«exactly 1, only»</text>
<text xml:space="preserve" text-anchor="middle" x="375.38" y="-423.5" font-family="Arial" font-size="10.00">onProperty: from</text>
</g>
<!-- TravelledWayLink&#45;&gt;TransportNode -->
<g id="edge12" class="edge">
<title>TravelledWayLink&#45;&gt;TransportNode</title>
<path fill="none" stroke="black" d="M410.11,-511.06C419.45,-487.45 431.84,-444.24 412.5,-415 391.02,-382.53 349.69,-366.23 315.4,-358.08"/>
<polygon fill="black" stroke="black" points="316.54,-354.75 306.02,-356.03 315.05,-361.58 316.54,-354.75"/>
<text xml:space="preserve" text-anchor="middle" x="459.77" y="-435.5" font-family="Arial" font-size="10.00">«exactly 1, only»</text>
<text xml:space="preserve" text-anchor="middle" x="459.77" y="-423.5" font-family="Arial" font-size="10.00">onProperty: to</text>
</g>
<!-- TravelledWaySegment -->
<g id="node9" class="node">
<title>TravelledWaySegment</title>
<polygon fill="lightgray" stroke="none" points="183.75,-98.88 183.75,-115.12 313.25,-115.12 313.25,-98.88 183.75,-98.88"/>
<text xml:space="preserve" text-anchor="start" x="184.75" y="-103.72" font-family="Arial" font-weight="bold" font-size="12.00">TravelledWaySegment</text>
<polygon fill="none" stroke="black" points="182.75,-97.88 182.75,-116.12 314.25,-116.12 314.25,-97.88 182.75,-97.88"/>
</g>
<!-- TravelledWayLink&#45;&gt;TravelledWaySegment -->
<g id="edge13" class="edge">
<title>TravelledWayLink&#45;&gt;TravelledWaySegment</title>
<path fill="none" stroke="black" stroke-dasharray="5,2" d="M455.08,-513.97C492.62,-500.4 536.5,-475.63 536.5,-434 536.5,-434 536.5,-434 536.5,-179 536.5,-135.45 410.76,-118.45 325.44,-111.93"/>
<polygon fill="black" stroke="black" points="325.95,-108.46 315.72,-111.23 325.44,-115.44 325.95,-108.46"/>
<text xml:space="preserve" text-anchor="middle" x="616.75" y="-303.5" font-family="Arial" font-size="10.00">«only»</text>
<text xml:space="preserve" text-anchor="middle" x="616.75" y="-291.5" font-family="Arial" font-size="10.00">onProperty: partwhole:hasProperPart</text>
</g>
<!-- code_Code -->
<g id="node10" class="node">
<title>code_Code</title>
<polygon fill="lightgray" stroke="none" points="232,-25.88 232,-42.12 297,-42.12 297,-25.88 232,-25.88"/>
<text xml:space="preserve" text-anchor="start" x="233" y="-30.73" font-family="Arial" font-weight="bold" font-size="12.00">code:Code</text>
<polygon fill="none" stroke="black" points="231,-24.88 231,-43.12 298,-43.12 298,-24.88 231,-24.88"/>
</g>
<!-- TravelledWayLink&#45;&gt;code_Code -->
<g id="edge10" class="edge">
<title>TravelledWayLink&#45;&gt;code_Code</title>
<path fill="none" stroke="black" d="M455.09,-522.98C543.53,-513.05 712.5,-487.15 712.5,-434 712.5,-434 712.5,-434 712.5,-106 712.5,-65.45 422.52,-44.19 309.16,-37.43"/>
<polygon fill="black" stroke="black" points="309.51,-33.94 299.32,-36.85 309.1,-40.93 309.51,-33.94"/>
<text xml:space="preserve" text-anchor="middle" x="777.75" y="-255.5" font-family="Arial" font-size="10.00">«max 1, only»</text>
<text xml:space="preserve" text-anchor="middle" x="777.75" y="-243.5" font-family="Arial" font-size="10.00">onProperty: allowedDirections</text>
</g>
<!-- Union_partwhole_properPartOf -->
<g id="node11" class="node">
<title>Union_partwhole_properPartOf</title>
<polygon fill="lightyellow" stroke="none" points="0,-608.75 0,-641.25 325,-641.25 325,-608.75 0,-608.75"/>
<text xml:space="preserve" text-anchor="start" x="134.75" y="-627.85" font-family="Arial" font-size="12.00">«unionOf»</text>
<text xml:space="preserve" text-anchor="start" x="2" y="-613.6" font-family="Arial" font-size="12.00">[TransportNetwork or TravelledWay or TravelledWaySection]</text>
<polygon fill="none" stroke="black" points="0,-608.75 0,-641.25 325,-641.25 325,-608.75 0,-608.75"/>
</g>
<!-- TravelledWayLink&#45;&gt;Union_partwhole_properPartOf -->
<g id="edge17" class="edge">
<title>TravelledWayLink&#45;&gt;Union_partwhole_properPartOf</title>
<path fill="none" stroke="black" stroke-dasharray="5,2" d="M355.88,-546.94C346.26,-549.98 336.13,-552.86 326.5,-555 290.34,-563.05 278.23,-551.46 243.75,-565 223.46,-572.97 203.61,-587.23 188.6,-599.73"/>
<polygon fill="black" stroke="black" points="186.36,-597.05 181.07,-606.23 190.93,-602.35 186.36,-597.05"/>
<text xml:space="preserve" text-anchor="middle" x="320.62" y="-579.5" font-family="Arial" font-size="10.00">«only»</text>
<text xml:space="preserve" text-anchor="middle" x="320.62" y="-567.5" font-family="Arial" font-size="10.00">onProperty: partwhole:properPartOf</text>
</g>
<!-- Invis&#45;&gt;TransportNetwork -->
<!-- TransportNetwork&#45;&gt;TransportNode -->
<!-- TravelledWay -->
<g id="node7" class="node">
<title>TravelledWay</title>
<polygon fill="lightgray" stroke="none" points="206.25,-244.88 206.25,-261.12 284.75,-261.12 284.75,-244.88 206.25,-244.88"/>
<text xml:space="preserve" text-anchor="start" x="207.25" y="-249.72" font-family="Arial" font-weight="bold" font-size="12.00">TravelledWay</text>
<polygon fill="none" stroke="black" points="205.25,-243.88 205.25,-262.12 285.75,-262.12 285.75,-243.88 205.25,-243.88"/>
</g>
<!-- TransportNode&#45;&gt;TravelledWay -->
<!-- TravelledWaySection -->
<g id="node8" class="node">
<title>TravelledWaySection</title>
<polygon fill="lightgray" stroke="none" points="184.5,-171.88 184.5,-188.12 306.5,-188.12 306.5,-171.88 184.5,-171.88"/>
<text xml:space="preserve" text-anchor="start" x="185.5" y="-176.72" font-family="Arial" font-weight="bold" font-size="12.00">TravelledWaySection</text>
<polygon fill="none" stroke="black" points="183.5,-170.88 183.5,-189.12 307.5,-189.12 307.5,-170.88 183.5,-170.88"/>
</g>
<!-- TravelledWay&#45;&gt;TravelledWaySection -->
<!-- TravelledWaySection&#45;&gt;TravelledWaySegment -->
<!-- TravelledWaySegment&#45;&gt;code_Code -->
<!-- Union_partwhole_properPartOf&#45;&gt;TransportNetwork -->
<g id="edge14" class="edge">
<title>Union_partwhole_properPartOf&#45;&gt;TransportNetwork</title>
<path fill="none" stroke="black" stroke-dasharray="1,5" d="M165.12,-607.37C170.2,-578.09 183.11,-516.01 207.5,-469 209.1,-465.92 210.99,-462.86 213.02,-459.89"/>
<polygon fill="black" stroke="black" points="215.68,-462.17 218.9,-452.07 210.09,-457.96 215.68,-462.17"/>
<text xml:space="preserve" text-anchor="middle" x="206.93" y="-525.5" font-family="Arial" font-size="10.00">member</text>
</g>
<!-- Union_partwhole_properPartOf&#45;&gt;TravelledWay -->
<g id="edge15" class="edge">
<title>Union_partwhole_properPartOf&#45;&gt;TravelledWay</title>
<path fill="none" stroke="black" stroke-dasharray="1,5" d="M152.48,-607.33C142.45,-589.03 128.5,-558.46 128.5,-530 128.5,-530 128.5,-530 128.5,-348 128.5,-311.44 163.65,-286.72 195.42,-271.84"/>
<polygon fill="black" stroke="black" points="196.45,-275.21 204.18,-267.97 193.62,-268.81 196.45,-275.21"/>
<text xml:space="preserve" text-anchor="middle" x="146.12" y="-429.5" font-family="Arial" font-size="10.00">member</text>
</g>
<!-- Union_partwhole_properPartOf&#45;&gt;TravelledWaySection -->
<g id="edge16" class="edge">
<title>Union_partwhole_properPartOf&#45;&gt;TravelledWaySection</title>
<path fill="none" stroke="black" stroke-dasharray="1,5" d="M133.12,-607.18C108.9,-590.87 78.5,-563.7 78.5,-530 78.5,-530 78.5,-530 78.5,-252 78.5,-208.29 127.55,-191.1 172.49,-184.53"/>
<polygon fill="black" stroke="black" points="172.82,-188.02 182.29,-183.27 171.92,-181.07 172.82,-188.02"/>
<text xml:space="preserve" text-anchor="middle" x="96.12" y="-387.5" font-family="Arial" font-size="10.00">member</text>
</g>
</g>
</svg>
