<?xml version="1.0" encoding="UTF-8" standalone="no"?>
<!DOCTYPE svg PUBLIC "-//W3C//DTD SVG 1.1//EN"
 "http://www.w3.org/Graphics/SVG/1.1/DTD/svg11.dtd">
<!-- Generated by graphviz version 13.1.0 (20250701.0955)
 -->
<!-- Pages: 1 -->
<svg width="630pt" height="458pt"
 viewBox="0.00 0.00 630.00 458.00" xmlns="http://www.w3.org/2000/svg" xmlns:xlink="http://www.w3.org/1999/xlink">
<g id="graph0" class="graph" transform="scale(1 1) rotate(0) translate(4 454)">
<polygon fill="white" stroke="none" points="-4,4 -4,-454 626.25,-454 626.25,4 -4,4"/>
<g id="clust2" class="cluster">
<title>cluster_associated</title>
</g>
<!-- NetworkElement -->
<g id="node1" class="node">
<title>NetworkElement</title>
<polygon fill="lightgray" stroke="none" points="470.38,-423.88 470.38,-440.12 566.12,-440.12 566.12,-423.88 470.38,-423.88"/>
<text xml:space="preserve" text-anchor="start" x="471.38" y="-428.73" font-family="Arial" font-weight="bold" font-style="italic" font-size="12.00">NetworkElement</text>
<polygon fill="none" stroke="black" points="469.38,-422.88 469.38,-441.12 567.12,-441.12 567.12,-422.88 469.38,-422.88"/>
</g>
<!-- transinfras_TravelledWaySegment -->
<g id="node2" class="node">
<title>transinfras_TravelledWaySegment</title>
<polygon fill="lightgray" stroke="none" points="255.88,-423.88 255.88,-440.12 450.62,-440.12 450.62,-423.88 255.88,-423.88"/>
<text xml:space="preserve" text-anchor="start" x="256.88" y="-428.73" font-family="Arial" font-weight="bold" font-size="12.00">transinfras:TravelledWaySegment</text>
<polygon fill="none" stroke="black" points="254.88,-422.88 254.88,-441.12 451.62,-441.12 451.62,-422.88 254.88,-422.88"/>
</g>
<!-- TravelledWaySegment -->
<g id="node3" class="node">
<title>TravelledWaySegment</title>
<polygon fill="lightgray" stroke="none" points="288.5,-339.88 288.5,-356.12 418,-356.12 418,-339.88 288.5,-339.88"/>
<text xml:space="preserve" text-anchor="start" x="289.5" y="-344.73" font-family="Arial" font-weight="bold" font-size="12.00">TravelledWaySegment</text>
<polygon fill="none" stroke="black" points="287.5,-338.88 287.5,-357.12 419,-357.12 419,-338.88 287.5,-338.88"/>
</g>
<!-- TravelledWaySegment&#45;&gt;NetworkElement -->
<g id="edge1" class="edge">
<title>TravelledWaySegment&#45;&gt;NetworkElement</title>
<path fill="none" stroke="black" d="M387.39,-365.97C412.49,-378.44 446.82,-395.5 474.02,-409.02"/>
<polygon fill="none" stroke="black" points="472.19,-412.02 482.71,-413.34 475.31,-405.75 472.19,-412.02"/>
</g>
<!-- TravelledWaySegment&#45;&gt;transinfras_TravelledWaySegment -->
<g id="edge2" class="edge">
<title>TravelledWaySegment&#45;&gt;transinfras_TravelledWaySegment</title>
<path fill="none" stroke="black" d="M353.25,-365.97C353.25,-376.52 353.25,-390.35 353.25,-402.54"/>
<polygon fill="none" stroke="black" points="349.75,-402.5 353.25,-412.5 356.75,-402.5 349.75,-402.5"/>
</g>
<!-- Invis -->
<!-- TravelledWaySegment&#45;&gt;Invis -->
<!-- TravelCorridorSegment -->
<g id="node5" class="node">
<title>TravelCorridorSegment</title>
<polygon fill="lightgray" stroke="none" points="469.5,-255.88 469.5,-272.12 605,-272.12 605,-255.88 469.5,-255.88"/>
<text xml:space="preserve" text-anchor="start" x="470.5" y="-260.73" font-family="Arial" font-weight="bold" font-size="12.00">TravelCorridorSegment</text>
<polygon fill="none" stroke="black" points="468.5,-254.88 468.5,-273.12 606,-273.12 606,-254.88 468.5,-254.88"/>
</g>
<!-- TravelledWaySegment&#45;&gt;TravelCorridorSegment -->
<g id="edge8" class="edge">
<title>TravelledWaySegment&#45;&gt;TravelCorridorSegment</title>
<path fill="none" stroke="black" d="M363.17,-330.27C370.07,-320.04 380.19,-307.52 392.25,-300 398.44,-296.14 427.27,-288.9 457.6,-282"/>
<polygon fill="black" stroke="black" points="458.35,-285.42 467.33,-279.81 456.81,-278.59 458.35,-285.42"/>
<text xml:space="preserve" text-anchor="middle" x="456.75" y="-302.5" font-family="Arial" font-size="10.00">«only» travelCorridorSegment</text>
</g>
<!-- TravelledWayLane -->
<g id="node6" class="node">
<title>TravelledWayLane</title>
<polygon fill="lightgray" stroke="none" points="469.75,-171.88 469.75,-188.12 576.75,-188.12 576.75,-171.88 469.75,-171.88"/>
<text xml:space="preserve" text-anchor="start" x="470.75" y="-176.72" font-family="Arial" font-weight="bold" font-size="12.00">TravelledWayLane</text>
<polygon fill="none" stroke="black" points="468.75,-170.88 468.75,-189.12 577.75,-189.12 577.75,-170.88 468.75,-170.88"/>
</g>
<!-- TravelledWaySegment&#45;&gt;TravelledWayLane -->
<g id="edge9" class="edge">
<title>TravelledWaySegment&#45;&gt;TravelledWayLane</title>
<path fill="none" stroke="black" stroke-dasharray="5,2" d="M308.28,-330.17C264.44,-311.31 208.28,-279.02 237.25,-246 257.5,-222.92 344.27,-234.64 374.25,-228 405.11,-221.16 438.75,-210.81 466.24,-201.56"/>
<polygon fill="black" stroke="black" points="467.08,-204.97 475.41,-198.43 464.82,-198.35 467.08,-204.97"/>
<text xml:space="preserve" text-anchor="middle" x="348.25" y="-260.5" font-family="Arial" font-size="10.00">«min 1, only» onProperty: partwhole:hasProperPart</text>
</g>
<!-- TravelledWayLink -->
<g id="node7" class="node">
<title>TravelledWayLink</title>
<polygon fill="lightgray" stroke="none" points="470.62,-98.88 470.62,-115.12 573.88,-115.12 573.88,-98.88 470.62,-98.88"/>
<text xml:space="preserve" text-anchor="start" x="471.62" y="-103.72" font-family="Arial" font-weight="bold" font-size="12.00">TravelledWayLink</text>
<polygon fill="none" stroke="black" points="469.62,-97.88 469.62,-116.12 574.88,-116.12 574.88,-97.88 469.62,-97.88"/>
</g>
<!-- TravelledWaySegment&#45;&gt;TravelledWayLink -->
<g id="edge13" class="edge">
<title>TravelledWaySegment&#45;&gt;TravelledWayLink</title>
<path fill="none" stroke="black" stroke-dasharray="5,2" d="M294.3,-330.05C230.01,-308.5 141,-267.8 179,-216 212.31,-170.59 368.95,-135.58 458.68,-118.84"/>
<polygon fill="black" stroke="black" points="459.12,-122.31 468.32,-117.06 457.86,-115.43 459.12,-122.31"/>
<text xml:space="preserve" text-anchor="middle" x="274.62" y="-218.5" font-family="Arial" font-size="10.00">«min 1» onProperty: partwhole:properPartOf</text>
</g>
<!-- Union_partwhole_properPartOf -->
<g id="node9" class="node">
<title>Union_partwhole_properPartOf</title>
<polygon fill="lightyellow" stroke="none" points="0,-415.75 0,-448.25 236.5,-448.25 236.5,-415.75 0,-415.75"/>
<text xml:space="preserve" text-anchor="start" x="90.5" y="-434.85" font-family="Arial" font-size="12.00">«unionOf»</text>
<text xml:space="preserve" text-anchor="start" x="2" y="-420.6" font-family="Arial" font-size="12.00">[TravelledWayLink or TravelledWaySection]</text>
<polygon fill="none" stroke="black" points="0,-415.75 0,-448.25 236.5,-448.25 236.5,-415.75 0,-415.75"/>
</g>
<!-- TravelledWaySegment&#45;&gt;Union_partwhole_properPartOf -->
<g id="edge12" class="edge">
<title>TravelledWaySegment&#45;&gt;Union_partwhole_properPartOf</title>
<path fill="none" stroke="black" stroke-dasharray="5,2" d="M287.8,-351.29C249.77,-354.95 202.01,-363.68 164,-384 154.12,-389.28 145.07,-397.45 137.68,-405.5"/>
<polygon fill="black" stroke="black" points="135.19,-403.03 131.33,-412.9 140.5,-407.59 135.19,-403.03"/>
<text xml:space="preserve" text-anchor="middle" x="256.62" y="-386.5" font-family="Arial" font-size="10.00">«only» onProperty: partwhole:properPartOf</text>
</g>
<!-- Invis&#45;&gt;TravelCorridorSegment -->
<!-- TravelCorridorSegment&#45;&gt;TravelledWayLane -->
<!-- TravelledWayLane&#45;&gt;TravelledWayLink -->
<!-- TravelledWaySection -->
<g id="node8" class="node">
<title>TravelledWaySection</title>
<polygon fill="lightgray" stroke="none" points="469.25,-25.88 469.25,-42.12 591.25,-42.12 591.25,-25.88 469.25,-25.88"/>
<text xml:space="preserve" text-anchor="start" x="470.25" y="-30.73" font-family="Arial" font-weight="bold" font-size="12.00">TravelledWaySection</text>
<polygon fill="none" stroke="black" points="468.25,-24.88 468.25,-43.12 592.25,-43.12 592.25,-24.88 468.25,-24.88"/>
</g>
<!-- TravelledWayLink&#45;&gt;TravelledWaySection -->
<!-- Union_partwhole_properPartOf&#45;&gt;TravelledWayLink -->
<g id="edge10" class="edge">
<title>Union_partwhole_properPartOf&#45;&gt;TravelledWayLink</title>
<path fill="none" stroke="black" stroke-dasharray="1,5" d="M118.58,-414.04C118.87,-397.46 119.25,-371.49 119.25,-349 119.25,-349 119.25,-349 119.25,-179 119.25,-144.96 345.15,-122.09 458.69,-112.75"/>
<polygon fill="black" stroke="black" points="458.78,-116.25 468.47,-111.96 458.22,-109.28 458.78,-116.25"/>
<text xml:space="preserve" text-anchor="middle" x="136.88" y="-260.5" font-family="Arial" font-size="10.00">member</text>
</g>
<!-- Union_partwhole_properPartOf&#45;&gt;TravelledWaySection -->
<g id="edge11" class="edge">
<title>Union_partwhole_properPartOf&#45;&gt;TravelledWaySection</title>
<path fill="none" stroke="black" stroke-dasharray="1,5" d="M100.84,-414.18C86.75,-398.71 69.25,-374.37 69.25,-349 69.25,-349 69.25,-349 69.25,-106 69.25,-67.24 327.14,-46.74 457.14,-38.87"/>
<polygon fill="black" stroke="black" points="457.27,-42.37 467.04,-38.28 456.85,-35.38 457.27,-42.37"/>
<text xml:space="preserve" text-anchor="middle" x="86.88" y="-218.5" font-family="Arial" font-size="10.00">member</text>
</g>
</g>
</svg>
