<?xml version="1.0" encoding="UTF-8" standalone="no"?>
<!DOCTYPE svg PUBLIC "-//W3C//DTD SVG 1.1//EN"
 "http://www.w3.org/Graphics/SVG/1.1/DTD/svg11.dtd">
<!-- Generated by graphviz version 13.1.0 (20250701.0955)
 -->
<!-- Pages: 1 -->
<svg width="299pt" height="228pt"
 viewBox="0.00 0.00 299.00 228.00" xmlns="http://www.w3.org/2000/svg" xmlns:xlink="http://www.w3.org/1999/xlink">
<g id="graph0" class="graph" transform="scale(1 1) rotate(0) translate(4 224)">
<polygon fill="white" stroke="none" points="-4,4 -4,-224 294.75,-224 294.75,4 -4,4"/>
<g id="clust2" class="cluster">
<title>cluster_associated</title>
</g>
<!-- TravelledWaySegment -->
<g id="node1" class="node">
<title>TravelledWaySegment</title>
<polygon fill="lightgray" stroke="none" points="4,-193.88 4,-210.12 133.5,-210.12 133.5,-193.88 4,-193.88"/>
<text xml:space="preserve" text-anchor="start" x="5" y="-198.72" font-family="Arial" font-weight="bold" font-size="12.00">TravelledWaySegment</text>
<polygon fill="none" stroke="black" points="3,-192.88 3,-211.12 134.5,-211.12 134.5,-192.88 3,-192.88"/>
</g>
<!-- TravelCorridorSegment -->
<g id="node2" class="node">
<title>TravelCorridorSegment</title>
<polygon fill="lightgray" stroke="none" points="1,-109.88 1,-126.12 136.5,-126.12 136.5,-109.88 1,-109.88"/>
<text xml:space="preserve" text-anchor="start" x="2" y="-114.72" font-family="Arial" font-weight="bold" font-size="12.00">TravelCorridorSegment</text>
<polygon fill="none" stroke="black" points="0,-108.88 0,-127.12 137.5,-127.12 137.5,-108.88 0,-108.88"/>
</g>
<!-- TravelCorridorSegment&#45;&gt;TravelledWaySegment -->
<g id="edge1" class="edge">
<title>TravelCorridorSegment&#45;&gt;TravelledWaySegment</title>
<path fill="none" stroke="black" d="M67.45,-135.96C66.91,-144.9 66.47,-156.04 66.75,-166 66.81,-168.24 66.9,-170.55 67,-172.88"/>
<polygon fill="none" stroke="black" points="63.5,-172.96 67.52,-182.76 70.49,-172.59 63.5,-172.96"/>
</g>
<!-- TravelCorridorSegment&#45;&gt;TravelledWaySegment -->
<g id="edge4" class="edge">
<title>TravelCorridorSegment&#45;&gt;TravelledWaySegment</title>
<path fill="none" stroke="black" d="M68.75,-135.97C68.75,-146.52 68.75,-160.35 68.75,-172.54"/>
<polygon fill="black" stroke="black" points="65.25,-172.5 68.75,-182.5 72.25,-172.5 65.25,-172.5"/>
<text xml:space="preserve" text-anchor="middle" x="133.62" y="-156.5" font-family="Arial" font-size="10.00">«min 1, only» corridorElement</text>
</g>
<!-- Invis -->
<!-- TravelCorridorSegment&#45;&gt;Invis -->
<!-- TravelCorridorLink -->
<g id="node4" class="node">
<title>TravelCorridorLink</title>
<polygon fill="lightgray" stroke="none" points="164.12,-25.88 164.12,-42.12 273.38,-42.12 273.38,-25.88 164.12,-25.88"/>
<text xml:space="preserve" text-anchor="start" x="165.12" y="-30.73" font-family="Arial" font-weight="bold" font-size="12.00">TravelCorridorLink</text>
<polygon fill="none" stroke="black" points="163.12,-24.88 163.12,-43.12 274.38,-43.12 274.38,-24.88 163.12,-24.88"/>
</g>
<!-- TravelCorridorSegment&#45;&gt;TravelCorridorLink -->
<g id="edge5" class="edge">
<title>TravelCorridorSegment&#45;&gt;TravelCorridorLink</title>
<path fill="none" stroke="black" stroke-dasharray="5,2" d="M51.59,-100.26C43.93,-90.77 38.12,-79.02 45.5,-70 59.06,-53.43 109.3,-44.53 152.22,-39.85"/>
<polygon fill="black" stroke="black" points="152.42,-43.35 162.01,-38.85 151.7,-36.39 152.42,-43.35"/>
<text xml:space="preserve" text-anchor="middle" x="138.12" y="-72.5" font-family="Arial" font-size="10.00">«only» onProperty: partwhole:properPartOf</text>
</g>
<!-- Invis&#45;&gt;TravelCorridorLink -->
</g>
</svg>
