<?xml version="1.0" encoding="UTF-8" standalone="no"?>
<!DOCTYPE svg PUBLIC "-//W3C//DTD SVG 1.1//EN"
 "http://www.w3.org/Graphics/SVG/1.1/DTD/svg11.dtd">
<!-- Generated by graphviz version 13.1.0 (20250701.0955)
 -->
<!-- Pages: 1 -->
<svg width="304pt" height="217pt"
 viewBox="0.00 0.00 304.00 217.00" xmlns="http://www.w3.org/2000/svg" xmlns:xlink="http://www.w3.org/1999/xlink">
<g id="graph0" class="graph" transform="scale(1 1) rotate(0) translate(4 213)">
<polygon fill="white" stroke="none" points="-4,4 -4,-213 299.5,-213 299.5,4 -4,4"/>
<g id="clust2" class="cluster">
<title>cluster_associated</title>
</g>
<!-- NetworkElement -->
<g id="node1" class="node">
<title>NetworkElement</title>
<polygon fill="lightgray" stroke="none" points="6.62,-182.88 6.62,-199.12 102.38,-199.12 102.38,-182.88 6.62,-182.88"/>
<text xml:space="preserve" text-anchor="start" x="7.62" y="-187.72" font-family="Arial" font-weight="bold" font-style="italic" font-size="12.00">NetworkElement</text>
<polygon fill="none" stroke="black" points="5.62,-181.88 5.62,-200.12 103.38,-200.12 103.38,-181.88 5.62,-181.88"/>
</g>
<!-- TravelledWayLane -->
<g id="node2" class="node">
<title>TravelledWayLane</title>
<polygon fill="lightgray" stroke="none" points="1,-109.88 1,-126.12 108,-126.12 108,-109.88 1,-109.88"/>
<text xml:space="preserve" text-anchor="start" x="2" y="-114.72" font-family="Arial" font-weight="bold" font-size="12.00">TravelledWayLane</text>
<polygon fill="none" stroke="black" points="0,-108.88 0,-127.12 109,-127.12 109,-108.88 0,-108.88"/>
</g>
<!-- TravelledWayLane&#45;&gt;NetworkElement -->
<g id="edge1" class="edge">
<title>TravelledWayLane&#45;&gt;NetworkElement</title>
<path fill="none" stroke="black" d="M54.5,-135.71C54.5,-143.47 54.5,-152.92 54.5,-161.74"/>
<polygon fill="none" stroke="black" points="51,-161.66 54.5,-171.66 58,-161.66 51,-161.66"/>
</g>
<!-- Invis -->
<!-- TravelledWayLane&#45;&gt;Invis -->
<!-- TravelledWaySegment -->
<g id="node4" class="node">
<title>TravelledWaySegment</title>
<polygon fill="lightgray" stroke="none" points="148.75,-25.88 148.75,-42.12 278.25,-42.12 278.25,-25.88 148.75,-25.88"/>
<text xml:space="preserve" text-anchor="start" x="149.75" y="-30.73" font-family="Arial" font-weight="bold" font-size="12.00">TravelledWaySegment</text>
<polygon fill="none" stroke="black" points="147.75,-24.88 147.75,-43.12 279.25,-43.12 279.25,-24.88 147.75,-24.88"/>
</g>
<!-- TravelledWayLane&#45;&gt;TravelledWaySegment -->
<g id="edge4" class="edge">
<title>TravelledWayLane&#45;&gt;TravelledWaySegment</title>
<path fill="none" stroke="black" stroke-dasharray="5,2" d="M31.82,-100.36C21.95,-91.11 14.27,-79.58 22.25,-70 36.98,-52.33 90.21,-43.56 136.79,-39.21"/>
<polygon fill="black" stroke="black" points="136.98,-42.71 146.64,-38.36 136.37,-35.74 136.98,-42.71"/>
<text xml:space="preserve" text-anchor="middle" x="129.88" y="-72.5" font-family="Arial" font-size="10.00">«min 1, only» onProperty: partwhole:properPartOf</text>
</g>
<!-- Invis&#45;&gt;TravelledWaySegment -->
</g>
</svg>
