<?xml version="1.0" encoding="UTF-8" standalone="no"?>
<!DOCTYPE svg PUBLIC "-//W3C//DTD SVG 1.1//EN"
 "http://www.w3.org/Graphics/SVG/1.1/DTD/svg11.dtd">
<!-- Generated by graphviz version 13.1.0 (20250701.0955)
 -->
<!-- Pages: 1 -->
<svg width="601pt" height="494pt"
 viewBox="0.00 0.00 601.00 494.00" xmlns="http://www.w3.org/2000/svg" xmlns:xlink="http://www.w3.org/1999/xlink">
<g id="graph0" class="graph" transform="scale(1 1) rotate(0) translate(4 490)">
<polygon fill="white" stroke="none" points="-4,4 -4,-490 597.25,-490 597.25,4 -4,4"/>
<g id="clust2" class="cluster">
<title>cluster_associated</title>
</g>
<!-- NetworkElement -->
<g id="node1" class="node">
<title>NetworkElement</title>
<polygon fill="lightgray" stroke="none" points="470.38,-459.88 470.38,-476.12 566.12,-476.12 566.12,-459.88 470.38,-459.88"/>
<text xml:space="preserve" text-anchor="start" x="471.38" y="-464.73" font-family="Arial" font-weight="bold" font-style="italic" font-size="12.00">NetworkElement</text>
<polygon fill="none" stroke="black" points="469.38,-458.88 469.38,-477.12 567.12,-477.12 567.12,-458.88 469.38,-458.88"/>
</g>
<!-- transinfras_TravelledWaySegment -->
<g id="node2" class="node">
<title>transinfras_TravelledWaySegment</title>
<polygon fill="lightgray" stroke="none" points="255.88,-459.88 255.88,-476.12 450.62,-476.12 450.62,-459.88 255.88,-459.88"/>
<text xml:space="preserve" text-anchor="start" x="256.88" y="-464.73" font-family="Arial" font-weight="bold" font-size="12.00">transinfras:TravelledWaySegment</text>
<polygon fill="none" stroke="black" points="254.88,-458.88 254.88,-477.12 451.62,-477.12 451.62,-458.88 254.88,-458.88"/>
</g>
<!-- TravelledWaySegment -->
<g id="node3" class="node">
<title>TravelledWaySegment</title>
<polygon fill="lightgray" stroke="none" points="286.5,-363.88 286.5,-380.12 416,-380.12 416,-363.88 286.5,-363.88"/>
<text xml:space="preserve" text-anchor="start" x="287.5" y="-368.73" font-family="Arial" font-weight="bold" font-size="12.00">TravelledWaySegment</text>
<polygon fill="none" stroke="black" points="285.5,-362.88 285.5,-381.12 417,-381.12 417,-362.88 285.5,-362.88"/>
</g>
<!-- TravelledWaySegment&#45;&gt;NetworkElement -->
<g id="edge1" class="edge">
<title>TravelledWaySegment&#45;&gt;NetworkElement</title>
<path fill="none" stroke="black" d="M381.41,-389.98C408.65,-405.31 448.91,-427.97 478.72,-444.75"/>
<polygon fill="none" stroke="black" points="476.64,-447.6 487.07,-449.45 480.08,-441.5 476.64,-447.6"/>
</g>
<!-- TravelledWaySegment&#45;&gt;transinfras_TravelledWaySegment -->
<g id="edge2" class="edge">
<title>TravelledWaySegment&#45;&gt;transinfras_TravelledWaySegment</title>
<path fill="none" stroke="black" d="M351.61,-389.98C351.9,-403.58 352.31,-422.94 352.65,-438.85"/>
<polygon fill="none" stroke="black" points="349.15,-438.76 352.86,-448.68 356.15,-438.61 349.15,-438.76"/>
</g>
<!-- Invis -->
<!-- TravelledWaySegment&#45;&gt;Invis -->
<!-- TravelCorridorSegment -->
<g id="node5" class="node">
<title>TravelCorridorSegment</title>
<polygon fill="lightgray" stroke="none" points="440.5,-267.88 440.5,-284.12 576,-284.12 576,-267.88 440.5,-267.88"/>
<text xml:space="preserve" text-anchor="start" x="441.5" y="-272.73" font-family="Arial" font-weight="bold" font-size="12.00">TravelCorridorSegment</text>
<polygon fill="none" stroke="black" points="439.5,-266.88 439.5,-285.12 577,-285.12 577,-266.88 439.5,-266.88"/>
</g>
<!-- TravelledWaySegment&#45;&gt;TravelCorridorSegment -->
<g id="edge8" class="edge">
<title>TravelledWaySegment&#45;&gt;TravelCorridorSegment</title>
<path fill="none" stroke="black" d="M344.96,-354.14C341.33,-341.21 339.11,-323.66 348.5,-312 349.21,-311.12 388.85,-302.43 428.45,-293.93"/>
<polygon fill="black" stroke="black" points="429.07,-297.38 438.11,-291.87 427.6,-290.54 429.07,-297.38"/>
<text xml:space="preserve" text-anchor="middle" x="423.88" y="-326.5" font-family="Arial" font-size="10.00">«only»</text>
<text xml:space="preserve" text-anchor="middle" x="423.88" y="-314.5" font-family="Arial" font-size="10.00">onProperty: travelCorridorSegment</text>
</g>
<!-- TravelledWayLane -->
<g id="node6" class="node">
<title>TravelledWayLane</title>
<polygon fill="lightgray" stroke="none" points="440.75,-171.88 440.75,-188.12 547.75,-188.12 547.75,-171.88 440.75,-171.88"/>
<text xml:space="preserve" text-anchor="start" x="441.75" y="-176.72" font-family="Arial" font-weight="bold" font-size="12.00">TravelledWayLane</text>
<polygon fill="none" stroke="black" points="439.75,-170.88 439.75,-189.12 548.75,-189.12 548.75,-170.88 439.75,-170.88"/>
</g>
<!-- TravelledWaySegment&#45;&gt;TravelledWayLane -->
<g id="edge9" class="edge">
<title>TravelledWaySegment&#45;&gt;TravelledWayLane</title>
<path fill="none" stroke="black" stroke-dasharray="5,2" d="M324.07,-354.17C290.94,-331.6 242.54,-290.58 269.75,-258 298.56,-223.51 326.45,-253.71 369.25,-240 398.61,-230.59 429.99,-215.77 453.96,-203.33"/>
<polygon fill="black" stroke="black" points="455.54,-206.46 462.75,-198.7 452.27,-200.27 455.54,-206.46"/>
<text xml:space="preserve" text-anchor="middle" x="350" y="-278.5" font-family="Arial" font-size="10.00">«min 1, only»</text>
<text xml:space="preserve" text-anchor="middle" x="350" y="-266.5" font-family="Arial" font-size="10.00">onProperty: partwhole:hasProperPart</text>
</g>
<!-- TravelledWayLink -->
<g id="node7" class="node">
<title>TravelledWayLink</title>
<polygon fill="lightgray" stroke="none" points="441.62,-98.88 441.62,-115.12 544.88,-115.12 544.88,-98.88 441.62,-98.88"/>
<text xml:space="preserve" text-anchor="start" x="442.62" y="-103.72" font-family="Arial" font-weight="bold" font-size="12.00">TravelledWayLink</text>
<polygon fill="none" stroke="black" points="440.62,-97.88 440.62,-116.12 545.88,-116.12 545.88,-97.88 440.62,-97.88"/>
</g>
<!-- TravelledWaySegment&#45;&gt;TravelledWayLink -->
<g id="edge13" class="edge">
<title>TravelledWaySegment&#45;&gt;TravelledWayLink</title>
<path fill="none" stroke="black" stroke-dasharray="5,2" d="M302.07,-354.14C291.88,-349.27 281.69,-343.26 273.25,-336 227.78,-296.88 177.52,-265.42 211.5,-216 260.25,-145.1 362.43,-120.72 429.4,-112.35"/>
<polygon fill="black" stroke="black" points="429.62,-115.85 439.15,-111.23 428.82,-108.9 429.62,-115.85"/>
<text xml:space="preserve" text-anchor="middle" x="288.38" y="-230.5" font-family="Arial" font-size="10.00">«min 1»</text>
<text xml:space="preserve" text-anchor="middle" x="288.38" y="-218.5" font-family="Arial" font-size="10.00">onProperty: partwhole:properPartOf</text>
</g>
<!-- Union_partwhole_properPartOf -->
<g id="node9" class="node">
<title>Union_partwhole_properPartOf</title>
<polygon fill="lightyellow" stroke="none" points="0,-451.75 0,-484.25 236.5,-484.25 236.5,-451.75 0,-451.75"/>
<text xml:space="preserve" text-anchor="start" x="90.5" y="-470.85" font-family="Arial" font-size="12.00">«unionOf»</text>
<text xml:space="preserve" text-anchor="start" x="2" y="-456.6" font-family="Arial" font-size="12.00">[TravelledWayLink or TravelledWaySection]</text>
<polygon fill="none" stroke="black" points="0,-451.75 0,-484.25 236.5,-484.25 236.5,-451.75 0,-451.75"/>
</g>
<!-- TravelledWaySegment&#45;&gt;Union_partwhole_properPartOf -->
<g id="edge12" class="edge">
<title>TravelledWaySegment&#45;&gt;Union_partwhole_properPartOf</title>
<path fill="none" stroke="black" stroke-dasharray="5,2" d="M285.86,-381.02C256.9,-386.22 223.02,-394.6 194.5,-408 191.81,-409.27 168.57,-427.33 148.45,-443.14"/>
<polygon fill="black" stroke="black" points="146.39,-440.31 140.7,-449.25 150.72,-445.81 146.39,-440.31"/>
<text xml:space="preserve" text-anchor="middle" x="271.38" y="-422.5" font-family="Arial" font-size="10.00">«only»</text>
<text xml:space="preserve" text-anchor="middle" x="271.38" y="-410.5" font-family="Arial" font-size="10.00">onProperty: partwhole:properPartOf</text>
</g>
<!-- Invis&#45;&gt;TravelCorridorSegment -->
<!-- TravelCorridorSegment&#45;&gt;TravelledWayLane -->
<!-- TravelledWayLane&#45;&gt;TravelledWayLink -->
<!-- TravelledWaySection -->
<g id="node8" class="node">
<title>TravelledWaySection</title>
<polygon fill="lightgray" stroke="none" points="440.25,-25.88 440.25,-42.12 562.25,-42.12 562.25,-25.88 440.25,-25.88"/>
<text xml:space="preserve" text-anchor="start" x="441.25" y="-30.73" font-family="Arial" font-weight="bold" font-size="12.00">TravelledWaySection</text>
<polygon fill="none" stroke="black" points="439.25,-24.88 439.25,-43.12 563.25,-43.12 563.25,-24.88 439.25,-24.88"/>
</g>
<!-- TravelledWayLink&#45;&gt;TravelledWaySection -->
<!-- Union_partwhole_properPartOf&#45;&gt;TravelledWayLink -->
<g id="edge10" class="edge">
<title>Union_partwhole_properPartOf&#45;&gt;TravelledWayLink</title>
<path fill="none" stroke="black" stroke-dasharray="1,5" d="M127.97,-450.3C137.71,-431.97 151.25,-401.37 151.25,-373 151.25,-373 151.25,-373 151.25,-179 151.25,-122.78 330.64,-110.75 429.58,-108.39"/>
<polygon fill="black" stroke="black" points="429.5,-111.9 439.42,-108.19 429.35,-104.9 429.5,-111.9"/>
<text xml:space="preserve" text-anchor="middle" x="168.88" y="-272.5" font-family="Arial" font-size="10.00">member</text>
</g>
<!-- Union_partwhole_properPartOf&#45;&gt;TravelledWaySection -->
<g id="edge11" class="edge">
<title>Union_partwhole_properPartOf&#45;&gt;TravelledWaySection</title>
<path fill="none" stroke="black" stroke-dasharray="1,5" d="M113.33,-450.18C108.31,-431.5 101.25,-400.36 101.25,-373 101.25,-373 101.25,-373 101.25,-106 101.25,-73.15 313.08,-50.51 428.44,-40.62"/>
<polygon fill="black" stroke="black" points="428.45,-44.13 438.12,-39.8 427.86,-37.16 428.45,-44.13"/>
<text xml:space="preserve" text-anchor="middle" x="118.88" y="-224.5" font-family="Arial" font-size="10.00">member</text>
</g>
</g>
</svg>
