<?xml version="1.0" encoding="UTF-8" standalone="no"?>
<!DOCTYPE svg PUBLIC "-//W3C//DTD SVG 1.1//EN"
 "http://www.w3.org/Graphics/SVG/1.1/DTD/svg11.dtd">
<!-- Generated by graphviz version 14.0.2 (20251019.1705)
 -->
<!-- Pages: 1 -->
<svg width="348pt" height="232pt"
 viewBox="0.00 0.00 348.00 232.00" xmlns="http://www.w3.org/2000/svg" xmlns:xlink="http://www.w3.org/1999/xlink">
<g id="graph0" class="graph" transform="scale(1 1) rotate(0) translate(4 228)">
<polygon fill="white" stroke="none" points="-4,4 -4,-228 344.25,-228 344.25,4 -4,4"/>
<g id="clust2" class="cluster">
<title>cluster_associated</title>
</g>
<!-- TravelledWaySegment -->
<g id="node1" class="node">
<title>TravelledWaySegment</title>
<g id="a_node1"><a xlink:href="../TravelledWaySegment.md" xlink:title="&lt;TABLE&gt;">
<polygon fill="lightgray" stroke="none" points="161.25,-124.88 161.25,-141.12 284.75,-141.12 284.75,-124.88 161.25,-124.88"/>
<text xml:space="preserve" text-anchor="start" x="162.25" y="-128.72" font-family="Arial" font-size="12.00">TravelledWaySegment</text>
<polygon fill="none" stroke="black" points="160.25,-123.88 160.25,-142.12 285.75,-142.12 285.75,-123.88 160.25,-123.88"/>
</a>
</g>
</g>
<!-- Invis -->
<!-- TravelledWaySegment&#45;&gt;Invis -->
<!-- TravelCorridorSegment -->
<g id="node3" class="node">
<title>TravelCorridorSegment</title>
<g id="a_node3"><a xlink:href="../TravelCorridorSegment.md" xlink:title="&lt;TABLE&gt;">
<polygon fill="lightgray" stroke="none" points="16.75,-25.88 16.75,-42.12 143.25,-42.12 143.25,-25.88 16.75,-25.88"/>
<text xml:space="preserve" text-anchor="start" x="17.75" y="-29.73" font-family="Arial" font-size="12.00">TravelCorridorSegment</text>
<polygon fill="none" stroke="black" points="15.75,-24.88 15.75,-43.12 144.25,-43.12 144.25,-24.88 15.75,-24.88"/>
</a>
</g>
</g>
<!-- TravelledWaySegment&#45;&gt;TravelCorridorSegment -->
<g id="edge5" class="edge">
<title>TravelledWaySegment&#45;&gt;TravelCorridorSegment</title>
<path fill="none" stroke="black" d="M198.09,-115.1C174.82,-99.32 139.88,-75.62 114.04,-58.09"/>
<polygon fill="black" stroke="black" points="116.12,-55.27 105.88,-52.55 112.19,-61.06 116.12,-55.27"/>
<text xml:space="preserve" text-anchor="middle" x="226.26" y="-86.55" font-family="Arial" font-size="11.00"> travelCorridorSegment </text>
<text xml:space="preserve" text-anchor="middle" x="226.26" y="-73.05" font-family="Arial" font-size="11.00"> «only» &#160;</text>
</g>
<!-- cdm2_TravelledWaySegment -->
<g id="node4" class="node">
<title>cdm2_TravelledWaySegment</title>
<polygon fill="lightgray" stroke="none" points="73.12,-197.88 73.12,-214.12 228.88,-214.12 228.88,-197.88 73.12,-197.88"/>
<text xml:space="preserve" text-anchor="start" x="74.12" y="-201.72" font-family="Arial" font-size="12.00">cdm2:TravelledWaySegment</text>
<polygon fill="none" stroke="black" points="72.12,-196.88 72.12,-215.12 229.88,-215.12 229.88,-196.88 72.12,-196.88"/>
</g>
<!-- TravelledWaySegment&#45;&gt;cdm2_TravelledWaySegment -->
<g id="edge1" class="edge">
<title>TravelledWaySegment&#45;&gt;cdm2_TravelledWaySegment</title>
<path fill="none" stroke="black" d="M206.06,-150.71C197.11,-159.53 185.96,-170.53 176.03,-180.31"/>
<polygon fill="none" stroke="black" points="173.8,-177.6 169.14,-187.11 178.72,-182.58 173.8,-177.6"/>
</g>
<!-- NetworkElement -->
<g id="node5" class="node">
<title>NetworkElement</title>
<g id="a_node5"><a xlink:href="../NetworkElement.md" xlink:title="&lt;TABLE&gt;">
<polygon fill="lightgray" stroke="none" points="248.75,-197.88 248.75,-214.12 339.25,-214.12 339.25,-197.88 248.75,-197.88"/>
<text xml:space="preserve" text-anchor="start" x="249.75" y="-201.72" font-family="Arial" font-size="12.00">NetworkElement</text>
<polygon fill="none" stroke="black" points="247.75,-196.88 247.75,-215.12 340.25,-215.12 340.25,-196.88 247.75,-196.88"/>
</a>
</g>
</g>
<!-- TravelledWaySegment&#45;&gt;NetworkElement -->
<g id="edge2" class="edge">
<title>TravelledWaySegment&#45;&gt;NetworkElement</title>
<path fill="none" stroke="black" d="M239.71,-150.71C248.53,-159.53 259.53,-170.53 269.31,-180.31"/>
<polygon fill="none" stroke="black" points="266.56,-182.51 276.1,-187.1 271.51,-177.56 266.56,-182.51"/>
</g>
<!-- Invis&#45;&gt;TravelCorridorSegment -->
</g>
</svg>
