<?xml version="1.0" encoding="UTF-8" standalone="no"?>
<!DOCTYPE svg PUBLIC "-//W3C//DTD SVG 1.1//EN"
 "http://www.w3.org/Graphics/SVG/1.1/DTD/svg11.dtd">
<!-- Generated by graphviz version 13.1.0 (20250701.0955)
 -->
<!-- Pages: 1 -->
<svg width="291pt" height="229pt"
 viewBox="0.00 0.00 291.00 229.00" xmlns="http://www.w3.org/2000/svg" xmlns:xlink="http://www.w3.org/1999/xlink">
<g id="graph0" class="graph" transform="scale(1 1) rotate(0) translate(4 225)">
<polygon fill="white" stroke="none" points="-4,4 -4,-225 286.5,-225 286.5,4 -4,4"/>
<g id="clust2" class="cluster">
<title>cluster_associated</title>
</g>
<!-- NetworkElement -->
<g id="node1" class="node">
<title>NetworkElement</title>
<polygon fill="lightgray" stroke="none" points="6.62,-194.88 6.62,-211.12 102.38,-211.12 102.38,-194.88 6.62,-194.88"/>
<text xml:space="preserve" text-anchor="start" x="7.62" y="-199.72" font-family="Arial" font-weight="bold" font-style="italic" font-size="12.00">NetworkElement</text>
<polygon fill="none" stroke="black" points="5.62,-193.88 5.62,-212.12 103.38,-212.12 103.38,-193.88 5.62,-193.88"/>
</g>
<!-- TravelledWayLane -->
<g id="node2" class="node">
<title>TravelledWayLane</title>
<polygon fill="lightgray" stroke="none" points="1,-121.88 1,-138.12 108,-138.12 108,-121.88 1,-121.88"/>
<text xml:space="preserve" text-anchor="start" x="2" y="-126.72" font-family="Arial" font-weight="bold" font-size="12.00">TravelledWayLane</text>
<polygon fill="none" stroke="black" points="0,-120.88 0,-139.12 109,-139.12 109,-120.88 0,-120.88"/>
</g>
<!-- TravelledWayLane&#45;&gt;NetworkElement -->
<g id="edge1" class="edge">
<title>TravelledWayLane&#45;&gt;NetworkElement</title>
<path fill="none" stroke="black" d="M54.5,-147.71C54.5,-155.47 54.5,-164.92 54.5,-173.74"/>
<polygon fill="none" stroke="black" points="51,-173.66 54.5,-183.66 58,-173.66 51,-173.66"/>
</g>
<!-- Invis -->
<!-- TravelledWayLane&#45;&gt;Invis -->
<!-- TravelledWaySegment -->
<g id="node4" class="node">
<title>TravelledWaySegment</title>
<polygon fill="lightgray" stroke="none" points="135.75,-25.88 135.75,-42.12 265.25,-42.12 265.25,-25.88 135.75,-25.88"/>
<text xml:space="preserve" text-anchor="start" x="136.75" y="-30.73" font-family="Arial" font-weight="bold" font-size="12.00">TravelledWaySegment</text>
<polygon fill="none" stroke="black" points="134.75,-24.88 134.75,-43.12 266.25,-43.12 266.25,-24.88 134.75,-24.88"/>
</g>
<!-- TravelledWayLane&#45;&gt;TravelledWaySegment -->
<g id="edge4" class="edge">
<title>TravelledWayLane&#45;&gt;TravelledWaySegment</title>
<path fill="none" stroke="black" stroke-dasharray="5,2" d="M45.4,-112.24C39.78,-99.36 35.28,-81.83 44.75,-70 55.14,-57.02 90.02,-48.51 124.14,-43.14"/>
<polygon fill="black" stroke="black" points="124.29,-46.66 133.66,-41.73 123.26,-39.74 124.29,-46.66"/>
<text xml:space="preserve" text-anchor="middle" x="121.62" y="-84.5" font-family="Arial" font-size="10.00">«min 1, only»</text>
<text xml:space="preserve" text-anchor="middle" x="121.62" y="-72.5" font-family="Arial" font-size="10.00">onProperty: partwhole:properPartOf</text>
</g>
<!-- Invis&#45;&gt;TravelledWaySegment -->
</g>
</svg>
