<?xml version="1.0" encoding="UTF-8" standalone="no"?>
<!DOCTYPE svg PUBLIC "-//W3C//DTD SVG 1.1//EN"
 "http://www.w3.org/Graphics/SVG/1.1/DTD/svg11.dtd">
<!-- Generated by graphviz version 13.1.0 (20250701.0955)
 -->
<!-- Pages: 1 -->
<svg width="287pt" height="217pt"
 viewBox="0.00 0.00 287.00 217.00" xmlns="http://www.w3.org/2000/svg" xmlns:xlink="http://www.w3.org/1999/xlink">
<g id="graph0" class="graph" transform="scale(1 1) rotate(0) translate(4 213)">
<polygon fill="white" stroke="none" points="-4,4 -4,-213 283.17,-213 283.17,4 -4,4"/>
<g id="clust2" class="cluster">
<title>cluster_associated</title>
</g>
<!-- TravelledWay -->
<g id="node1" class="node">
<title>TravelledWay</title>
<polygon fill="lightgray" stroke="none" points="33.92,-182.88 33.92,-199.12 112.42,-199.12 112.42,-182.88 33.92,-182.88"/>
<text xml:space="preserve" text-anchor="start" x="34.92" y="-187.72" font-family="Arial" font-weight="bold" font-size="12.00">TravelledWay</text>
<polygon fill="none" stroke="black" points="32.92,-181.88 32.92,-200.12 113.42,-200.12 113.42,-181.88 32.92,-181.88"/>
</g>
<!-- TravelCorridor -->
<g id="node2" class="node">
<title>TravelCorridor</title>
<polygon fill="lightgray" stroke="none" points="30.92,-109.88 30.92,-126.12 115.42,-126.12 115.42,-109.88 30.92,-109.88"/>
<text xml:space="preserve" text-anchor="start" x="31.92" y="-114.72" font-family="Arial" font-weight="bold" font-size="12.00">TravelCorridor</text>
<polygon fill="none" stroke="black" points="29.92,-108.88 29.92,-127.12 116.42,-127.12 116.42,-108.88 29.92,-108.88"/>
</g>
<!-- TravelCorridor&#45;&gt;TravelledWay -->
<g id="edge1" class="edge">
<title>TravelCorridor&#45;&gt;TravelledWay</title>
<path fill="none" stroke="black" d="M73.17,-135.71C73.17,-143.47 73.17,-152.92 73.17,-161.74"/>
<polygon fill="none" stroke="black" points="69.67,-161.66 73.17,-171.66 76.67,-161.66 69.67,-161.66"/>
</g>
<!-- Invis -->
<!-- TravelCorridor&#45;&gt;Invis -->
<!-- TravelCorridorLink -->
<g id="node4" class="node">
<title>TravelCorridorLink</title>
<polygon fill="lightgray" stroke="none" points="152.54,-25.88 152.54,-42.12 261.79,-42.12 261.79,-25.88 152.54,-25.88"/>
<text xml:space="preserve" text-anchor="start" x="153.54" y="-30.73" font-family="Arial" font-weight="bold" font-size="12.00">TravelCorridorLink</text>
<polygon fill="none" stroke="black" points="151.54,-24.88 151.54,-43.12 262.79,-43.12 262.79,-24.88 151.54,-24.88"/>
</g>
<!-- TravelCorridor&#45;&gt;TravelCorridorLink -->
<g id="edge4" class="edge">
<title>TravelCorridor&#45;&gt;TravelCorridorLink</title>
<path fill="none" stroke="black" stroke-dasharray="5,2" d="M30.18,-104.33C9.74,-96.12 -7.88,-84.3 4.17,-70 21.45,-49.49 88.17,-41 140.46,-37.48"/>
<polygon fill="black" stroke="black" points="140.44,-40.99 150.2,-36.88 140.01,-34 140.44,-40.99"/>
<text xml:space="preserve" text-anchor="middle" x="115.17" y="-72.5" font-family="Arial" font-size="10.00">«min 1, only» onProperty: partwhole:hasProperPart</text>
</g>
<!-- Invis&#45;&gt;TravelCorridorLink -->
</g>
</svg>
