<?xml version="1.0" encoding="UTF-8" standalone="no"?>
<!DOCTYPE svg PUBLIC "-//W3C//DTD SVG 1.1//EN"
 "http://www.w3.org/Graphics/SVG/1.1/DTD/svg11.dtd">
<!-- Generated by graphviz version 13.1.0 (20250701.0955)
 -->
<!-- Pages: 1 -->
<svg width="404pt" height="398pt"
 viewBox="0.00 0.00 404.00 398.00" xmlns="http://www.w3.org/2000/svg" xmlns:xlink="http://www.w3.org/1999/xlink">
<g id="graph0" class="graph" transform="scale(1 1) rotate(0) translate(4 394)">
<polygon fill="white" stroke="none" points="-4,4 -4,-394 400,-394 400,4 -4,4"/>
<g id="clust2" class="cluster">
<title>cluster_associated</title>
</g>
<!-- NetworkElement -->
<g id="node1" class="node">
<title>NetworkElement</title>
<polygon fill="lightgray" stroke="none" points="14.12,-363.88 14.12,-380.12 109.88,-380.12 109.88,-363.88 14.12,-363.88"/>
<text xml:space="preserve" text-anchor="start" x="15.12" y="-368.73" font-family="Arial" font-weight="bold" font-style="italic" font-size="12.00">NetworkElement</text>
<polygon fill="none" stroke="black" points="13.12,-362.88 13.12,-381.12 110.88,-381.12 110.88,-362.88 13.12,-362.88"/>
</g>
<!-- TravelledWaySection -->
<g id="node2" class="node">
<title>TravelledWaySection</title>
<polygon fill="lightgray" stroke="none" points="1,-267.88 1,-284.12 123,-284.12 123,-267.88 1,-267.88"/>
<text xml:space="preserve" text-anchor="start" x="2" y="-272.73" font-family="Arial" font-weight="bold" font-size="12.00">TravelledWaySection</text>
<polygon fill="none" stroke="black" points="0,-266.88 0,-285.12 124,-285.12 124,-266.88 0,-266.88"/>
</g>
<!-- TravelledWaySection&#45;&gt;NetworkElement -->
<g id="edge1" class="edge">
<title>TravelledWaySection&#45;&gt;NetworkElement</title>
<path fill="none" stroke="black" d="M62,-293.98C62,-307.58 62,-326.94 62,-342.85"/>
<polygon fill="none" stroke="black" points="58.5,-342.68 62,-352.68 65.5,-342.68 58.5,-342.68"/>
</g>
<!-- Invis -->
<!-- TravelledWaySection&#45;&gt;Invis -->
<!-- TransportNetwork -->
<g id="node4" class="node">
<title>TransportNetwork</title>
<polygon fill="lightgray" stroke="none" points="140.62,-171.88 140.62,-188.12 245.38,-188.12 245.38,-171.88 140.62,-171.88"/>
<text xml:space="preserve" text-anchor="start" x="141.62" y="-176.72" font-family="Arial" font-weight="bold" font-size="12.00">TransportNetwork</text>
<polygon fill="none" stroke="black" points="139.62,-170.88 139.62,-189.12 246.38,-189.12 246.38,-170.88 139.62,-170.88"/>
</g>
<!-- TravelledWaySection&#45;&gt;TransportNetwork -->
<g id="edge9" class="edge">
<title>TravelledWaySection&#45;&gt;TransportNetwork</title>
<path fill="none" stroke="black" stroke-dasharray="5,2" d="M55.44,-258.25C51.59,-245.38 49.08,-227.85 58.25,-216 67.3,-204.29 98.53,-195.78 128.65,-190.08"/>
<polygon fill="black" stroke="black" points="128.93,-193.58 138.16,-188.37 127.7,-186.69 128.93,-193.58"/>
<text xml:space="preserve" text-anchor="middle" x="135.12" y="-230.5" font-family="Arial" font-size="10.00">«min 1, only»</text>
<text xml:space="preserve" text-anchor="middle" x="135.12" y="-218.5" font-family="Arial" font-size="10.00">onProperty: partwhole:properPartOf</text>
</g>
<!-- Union_partwhole_hasProperPart -->
<g id="node7" class="node">
<title>Union_partwhole_hasProperPart</title>
<polygon fill="lightyellow" stroke="none" points="152,-355.75 152,-388.25 396,-388.25 396,-355.75 152,-355.75"/>
<text xml:space="preserve" text-anchor="start" x="246.25" y="-374.85" font-family="Arial" font-size="12.00">«unionOf»</text>
<text xml:space="preserve" text-anchor="start" x="154" y="-360.6" font-family="Arial" font-size="12.00">[TravelledWayLink or TravelledWaySegment]</text>
<polygon fill="none" stroke="black" points="152,-355.75 152,-388.25 396,-388.25 396,-355.75 152,-355.75"/>
</g>
<!-- TravelledWaySection&#45;&gt;Union_partwhole_hasProperPart -->
<g id="edge8" class="edge">
<title>TravelledWaySection&#45;&gt;Union_partwhole_hasProperPart</title>
<path fill="none" stroke="black" stroke-dasharray="5,2" d="M68.36,-293.94C74.33,-307.46 84.59,-325.77 99.5,-336 112.11,-344.65 126.36,-351.26 141.16,-356.31"/>
<polygon fill="black" stroke="black" points="139.98,-359.6 150.57,-359.25 142.07,-352.92 139.98,-359.6"/>
<text xml:space="preserve" text-anchor="middle" x="179.75" y="-326.5" font-family="Arial" font-size="10.00">«only»</text>
<text xml:space="preserve" text-anchor="middle" x="179.75" y="-314.5" font-family="Arial" font-size="10.00">onProperty: partwhole:hasProperPart</text>
</g>
<!-- Invis&#45;&gt;TransportNetwork -->
<!-- TravelledWayLink -->
<g id="node5" class="node">
<title>TravelledWayLink</title>
<polygon fill="lightgray" stroke="none" points="154.38,-98.88 154.38,-115.12 257.62,-115.12 257.62,-98.88 154.38,-98.88"/>
<text xml:space="preserve" text-anchor="start" x="155.38" y="-103.72" font-family="Arial" font-weight="bold" font-size="12.00">TravelledWayLink</text>
<polygon fill="none" stroke="black" points="153.38,-97.88 153.38,-116.12 258.62,-116.12 258.62,-97.88 153.38,-97.88"/>
</g>
<!-- TransportNetwork&#45;&gt;TravelledWayLink -->
<!-- TravelledWaySegment -->
<g id="node6" class="node">
<title>TravelledWaySegment</title>
<polygon fill="lightgray" stroke="none" points="141.25,-25.88 141.25,-42.12 270.75,-42.12 270.75,-25.88 141.25,-25.88"/>
<text xml:space="preserve" text-anchor="start" x="142.25" y="-30.73" font-family="Arial" font-weight="bold" font-size="12.00">TravelledWaySegment</text>
<polygon fill="none" stroke="black" points="140.25,-24.88 140.25,-43.12 271.75,-43.12 271.75,-24.88 140.25,-24.88"/>
</g>
<!-- TravelledWayLink&#45;&gt;TravelledWaySegment -->
<!-- Union_partwhole_hasProperPart&#45;&gt;TravelledWayLink -->
<g id="edge6" class="edge">
<title>Union_partwhole_hasProperPart&#45;&gt;TravelledWayLink</title>
<path fill="none" stroke="black" stroke-dasharray="1,5" d="M273.84,-354.13C273.2,-310.75 270.09,-196.36 255,-162 250.27,-151.22 242.51,-141.15 234.54,-132.69"/>
<polygon fill="black" stroke="black" points="237.24,-130.44 227.69,-125.87 232.31,-135.4 237.24,-130.44"/>
<text xml:space="preserve" text-anchor="middle" x="286.2" y="-224.5" font-family="Arial" font-size="10.00">member</text>
</g>
<!-- Union_partwhole_hasProperPart&#45;&gt;TravelledWaySegment -->
<g id="edge7" class="edge">
<title>Union_partwhole_hasProperPart&#45;&gt;TravelledWaySegment</title>
<path fill="none" stroke="black" stroke-dasharray="1,5" d="M289.55,-354.07C304.22,-336.27 324,-306.76 324,-277 324,-277 324,-277 324,-106 324,-81.32 304.81,-65 281.92,-54.31"/>
<polygon fill="black" stroke="black" points="283.52,-51.19 272.95,-50.51 280.79,-57.64 283.52,-51.19"/>
<text xml:space="preserve" text-anchor="middle" x="341.62" y="-176.5" font-family="Arial" font-size="10.00">member</text>
</g>
</g>
</svg>
