<?xml version="1.0" encoding="UTF-8" standalone="no"?>
<!DOCTYPE svg PUBLIC "-//W3C//DTD SVG 1.1//EN"
 "http://www.w3.org/Graphics/SVG/1.1/DTD/svg11.dtd">
<!-- Generated by graphviz version 13.1.0 (20250701.0955)
 -->
<!-- Pages: 1 -->
<svg width="299pt" height="252pt"
 viewBox="0.00 0.00 299.00 252.00" xmlns="http://www.w3.org/2000/svg" xmlns:xlink="http://www.w3.org/1999/xlink">
<g id="graph0" class="graph" transform="scale(1 1) rotate(0) translate(4 248)">
<polygon fill="white" stroke="none" points="-4,4 -4,-248 294.75,-248 294.75,4 -4,4"/>
<g id="clust2" class="cluster">
<title>cluster_associated</title>
</g>
<!-- TravelledWaySegment -->
<g id="node1" class="node">
<title>TravelledWaySegment</title>
<polygon fill="lightgray" stroke="none" points="4,-217.88 4,-234.12 133.5,-234.12 133.5,-217.88 4,-217.88"/>
<text xml:space="preserve" text-anchor="start" x="5" y="-222.72" font-family="Arial" font-weight="bold" font-size="12.00">TravelledWaySegment</text>
<polygon fill="none" stroke="black" points="3,-216.88 3,-235.12 134.5,-235.12 134.5,-216.88 3,-216.88"/>
</g>
<!-- TravelCorridorSegment -->
<g id="node2" class="node">
<title>TravelCorridorSegment</title>
<polygon fill="lightgray" stroke="none" points="1,-121.88 1,-138.12 136.5,-138.12 136.5,-121.88 1,-121.88"/>
<text xml:space="preserve" text-anchor="start" x="2" y="-126.72" font-family="Arial" font-weight="bold" font-size="12.00">TravelCorridorSegment</text>
<polygon fill="none" stroke="black" points="0,-120.88 0,-139.12 137.5,-139.12 137.5,-120.88 0,-120.88"/>
</g>
<!-- TravelCorridorSegment&#45;&gt;TravelledWaySegment -->
<g id="edge1" class="edge">
<title>TravelCorridorSegment&#45;&gt;TravelledWaySegment</title>
<path fill="none" stroke="black" d="M67.6,-147.73C67.25,-153.51 66.92,-160.04 66.75,-166 66.45,-176.66 66.45,-179.34 66.75,-190 66.81,-192.24 66.9,-194.55 67,-196.88"/>
<polygon fill="none" stroke="black" points="63.5,-196.96 67.52,-206.76 70.49,-196.59 63.5,-196.96"/>
</g>
<!-- TravelCorridorSegment&#45;&gt;TravelledWaySegment -->
<g id="edge4" class="edge">
<title>TravelCorridorSegment&#45;&gt;TravelledWaySegment</title>
<path fill="none" stroke="black" d="M68.75,-147.98C68.75,-161.58 68.75,-180.94 68.75,-196.85"/>
<polygon fill="black" stroke="black" points="65.25,-196.68 68.75,-206.68 72.25,-196.68 65.25,-196.68"/>
<text xml:space="preserve" text-anchor="middle" x="129.5" y="-180.5" font-family="Arial" font-size="10.00">«min 1, only»</text>
<text xml:space="preserve" text-anchor="middle" x="129.5" y="-168.5" font-family="Arial" font-size="10.00">onProperty: corridorElement</text>
</g>
<!-- Invis -->
<!-- TravelCorridorSegment&#45;&gt;Invis -->
<!-- TravelCorridorLink -->
<g id="node4" class="node">
<title>TravelCorridorLink</title>
<polygon fill="lightgray" stroke="none" points="164.12,-25.88 164.12,-42.12 273.38,-42.12 273.38,-25.88 164.12,-25.88"/>
<text xml:space="preserve" text-anchor="start" x="165.12" y="-30.73" font-family="Arial" font-weight="bold" font-size="12.00">TravelCorridorLink</text>
<polygon fill="none" stroke="black" points="163.12,-24.88 163.12,-43.12 274.38,-43.12 274.38,-24.88 163.12,-24.88"/>
</g>
<!-- TravelCorridorSegment&#45;&gt;TravelCorridorLink -->
<g id="edge5" class="edge">
<title>TravelCorridorSegment&#45;&gt;TravelCorridorLink</title>
<path fill="none" stroke="black" stroke-dasharray="5,2" d="M60.46,-112.2C55.41,-99.3 51.56,-81.76 61,-70 72.67,-55.46 114.72,-46.59 152.48,-41.41"/>
<polygon fill="black" stroke="black" points="152.53,-44.93 162,-40.18 151.63,-37.99 152.53,-44.93"/>
<text xml:space="preserve" text-anchor="middle" x="137.88" y="-84.5" font-family="Arial" font-size="10.00">«only»</text>
<text xml:space="preserve" text-anchor="middle" x="137.88" y="-72.5" font-family="Arial" font-size="10.00">onProperty: partwhole:properPartOf</text>
</g>
<!-- Invis&#45;&gt;TravelCorridorLink -->
</g>
</svg>
