<?xml version="1.0" encoding="UTF-8" standalone="no"?>
<!DOCTYPE svg PUBLIC "-//W3C//DTD SVG 1.1//EN"
 "http://www.w3.org/Graphics/SVG/1.1/DTD/svg11.dtd">
<!-- Generated by graphviz version 14.0.2 (20251019.1705)
 -->
<!-- Pages: 1 -->
<svg width="301pt" height="139pt"
 viewBox="0.00 0.00 301.00 139.00" xmlns="http://www.w3.org/2000/svg" xmlns:xlink="http://www.w3.org/1999/xlink">
<g id="graph0" class="graph" transform="scale(1 1) rotate(0) translate(4 135.38)">
<polygon fill="white" stroke="none" points="-4,4 -4,-135.38 296.88,-135.38 296.88,4 -4,4"/>
<g id="clust2" class="cluster">
<title>cluster_associated</title>
</g>
<!-- TravelledWay -->
<g id="node1" class="node">
<title>TravelledWay</title>
<g id="a_node1"><a xlink:href="../TravelledWay.md" xlink:title="&lt;TABLE&gt;">
<polygon fill="lightgray" stroke="none" points="24.38,-42.12 24.38,-58.38 203.38,-58.38 203.38,-42.12 24.38,-42.12"/>
<text xml:space="preserve" text-anchor="start" x="77.12" y="-45.98" font-family="Arial" font-size="12.00">TravelledWay</text>
<text xml:space="preserve" text-anchor="start" x="25.38" y="-29.73" font-family="Arial" font-size="12.00">«only» designator: xsd:string</text>
<text xml:space="preserve" text-anchor="start" x="25.38" y="-13.47" font-family="Arial" font-size="12.00">«exactly 1» designator: xsd:string</text>
<polygon fill="black" stroke="black" points="23.38,-42.12 23.38,-42.12 204.38,-42.12 204.38,-42.12 23.38,-42.12"/>
<polygon fill="none" stroke="black" points="23.38,-8.62 23.38,-59.38 204.38,-59.38 204.38,-8.62 23.38,-8.62"/>
</a>
</g>
</g>
<!-- cdm2_TravelledWay -->
<g id="node3" class="node">
<title>cdm2_TravelledWay</title>
<polygon fill="lightgray" stroke="none" points="1,-105.25 1,-121.5 108.75,-121.5 108.75,-105.25 1,-105.25"/>
<text xml:space="preserve" text-anchor="start" x="2" y="-109.1" font-family="Arial" font-size="12.00">cdm2:TravelledWay</text>
<polygon fill="none" stroke="black" points="0,-104.25 0,-122.5 109.75,-122.5 109.75,-104.25 0,-104.25"/>
</g>
<!-- TravelledWay&#45;&gt;cdm2_TravelledWay -->
<g id="edge1" class="edge">
<title>TravelledWay&#45;&gt;cdm2_TravelledWay</title>
<path fill="none" stroke="black" d="M95.5,-59.1C88.87,-67.79 81.36,-77.64 74.62,-86.49"/>
<polygon fill="none" stroke="black" points="71.88,-84.31 68.59,-94.38 77.44,-88.55 71.88,-84.31"/>
</g>
<!-- NetworkElement -->
<g id="node4" class="node">
<title>NetworkElement</title>
<g id="a_node4"><a xlink:href="../NetworkElement.md" xlink:title="&lt;TABLE&gt;">
<polygon fill="lightgray" stroke="none" points="128.62,-105.25 128.62,-121.5 219.12,-121.5 219.12,-105.25 128.62,-105.25"/>
<text xml:space="preserve" text-anchor="start" x="129.62" y="-109.1" font-family="Arial" font-size="12.00">NetworkElement</text>
<polygon fill="none" stroke="black" points="127.62,-104.25 127.62,-122.5 220.12,-122.5 220.12,-104.25 127.62,-104.25"/>
</a>
</g>
</g>
<!-- TravelledWay&#45;&gt;NetworkElement -->
<g id="edge2" class="edge">
<title>TravelledWay&#45;&gt;NetworkElement</title>
<path fill="none" stroke="black" d="M132.56,-59.1C139.38,-67.89 147.1,-77.85 154.02,-86.77"/>
<polygon fill="none" stroke="black" points="151.03,-88.63 159.93,-94.39 156.57,-84.34 151.03,-88.63"/>
</g>
<!-- Invis -->
</g>
</svg>
