<?xml version="1.0" encoding="UTF-8" standalone="no"?>
<!DOCTYPE svg PUBLIC "-//W3C//DTD SVG 1.1//EN"
 "http://www.w3.org/Graphics/SVG/1.1/DTD/svg11.dtd">
<!-- Generated by graphviz version 13.1.0 (20250701.0955)
 -->
<!-- Pages: 1 -->
<svg width="417pt" height="290pt"
 viewBox="0.00 0.00 417.00 290.00" xmlns="http://www.w3.org/2000/svg" xmlns:xlink="http://www.w3.org/1999/xlink">
<g id="graph0" class="graph" transform="scale(1 1) rotate(0) translate(4 286)">
<polygon fill="white" stroke="none" points="-4,4 -4,-286 412.88,-286 412.88,4 -4,4"/>
<g id="clust2" class="cluster">
<title>cluster_associated</title>
</g>
<!-- NetworkElement -->
<g id="node1" class="node">
<title>NetworkElement</title>
<polygon fill="lightgray" stroke="none" points="1,-255.88 1,-272.12 96.75,-272.12 96.75,-255.88 1,-255.88"/>
<text xml:space="preserve" text-anchor="start" x="2" y="-260.73" font-family="Arial" font-weight="bold" font-style="italic" font-size="12.00">NetworkElement</text>
<polygon fill="none" stroke="black" points="0,-254.88 0,-273.12 97.75,-273.12 97.75,-254.88 0,-254.88"/>
</g>
<!-- transinfras_TravelledWay -->
<g id="node2" class="node">
<title>transinfras_TravelledWay</title>
<polygon fill="lightgray" stroke="none" points="117,-255.88 117,-272.12 260.75,-272.12 260.75,-255.88 117,-255.88"/>
<text xml:space="preserve" text-anchor="start" x="118" y="-260.73" font-family="Arial" font-weight="bold" font-size="12.00">transinfras:TravelledWay</text>
<polygon fill="none" stroke="black" points="116,-254.88 116,-273.12 261.75,-273.12 261.75,-254.88 116,-254.88"/>
</g>
<!-- TravelledWay -->
<g id="node3" class="node">
<title>TravelledWay</title>
<polygon fill="lightgray" stroke="none" points="26,-191 26,-207.25 211.75,-207.25 211.75,-191 26,-191"/>
<text xml:space="preserve" text-anchor="start" x="80.62" y="-195.85" font-family="Arial" font-weight="bold" font-size="12.00">TravelledWay</text>
<text xml:space="preserve" text-anchor="start" x="27" y="-178.6" font-family="Arial" font-size="12.00">designator: string «exactly 1, only»</text>
<polygon fill="none" stroke="black" points="25,-173.75 25,-208.25 212.75,-208.25 212.75,-173.75 25,-173.75"/>
</g>
<!-- TravelledWay&#45;&gt;NetworkElement -->
<g id="edge1" class="edge">
<title>TravelledWay&#45;&gt;NetworkElement</title>
<path fill="none" stroke="black" d="M102.41,-208.71C93.79,-217.44 83.08,-228.31 73.5,-238.02"/>
<polygon fill="none" stroke="black" points="71.06,-235.52 66.53,-245.1 76.04,-240.43 71.06,-235.52"/>
</g>
<!-- TravelledWay&#45;&gt;transinfras_TravelledWay -->
<g id="edge2" class="edge">
<title>TravelledWay&#45;&gt;transinfras_TravelledWay</title>
<path fill="none" stroke="black" d="M135.34,-208.71C143.96,-217.44 154.67,-228.31 164.25,-238.02"/>
<polygon fill="none" stroke="black" points="161.71,-240.43 171.22,-245.1 166.69,-235.52 161.71,-240.43"/>
</g>
<!-- Invis -->
<!-- TravelledWay&#45;&gt;Invis -->
<!-- TransportNetwork -->
<g id="node5" class="node">
<title>TransportNetwork</title>
<polygon fill="lightgray" stroke="none" points="287.5,-98.88 287.5,-115.12 392.25,-115.12 392.25,-98.88 287.5,-98.88"/>
<text xml:space="preserve" text-anchor="start" x="288.5" y="-103.72" font-family="Arial" font-weight="bold" font-size="12.00">TransportNetwork</text>
<polygon fill="none" stroke="black" points="286.5,-97.88 286.5,-116.12 393.25,-116.12 393.25,-97.88 286.5,-97.88"/>
</g>
<!-- TravelledWay&#45;&gt;TransportNetwork -->
<g id="edge7" class="edge">
<title>TravelledWay&#45;&gt;TransportNetwork</title>
<path fill="none" stroke="black" stroke-dasharray="5,2" d="M112.27,-173.27C109.53,-163.3 108.44,-151.06 115.62,-143 139.04,-116.75 238.28,-131.34 272.88,-125 273.72,-124.85 274.56,-124.69 275.41,-124.52"/>
<polygon fill="black" stroke="black" points="276.06,-127.96 285.14,-122.51 274.64,-121.11 276.06,-127.96"/>
<text xml:space="preserve" text-anchor="middle" x="223.25" y="-145.5" font-family="Arial" font-size="10.00">«min 1, only» onProperty: partwhole:properPartOf</text>
</g>
<!-- TravelledWayLink -->
<g id="node6" class="node">
<title>TravelledWayLink</title>
<polygon fill="lightgray" stroke="none" points="288.25,-25.88 288.25,-42.12 391.5,-42.12 391.5,-25.88 288.25,-25.88"/>
<text xml:space="preserve" text-anchor="start" x="289.25" y="-30.73" font-family="Arial" font-weight="bold" font-size="12.00">TravelledWayLink</text>
<polygon fill="none" stroke="black" points="287.25,-24.88 287.25,-43.12 392.5,-43.12 392.5,-24.88 287.25,-24.88"/>
</g>
<!-- TravelledWay&#45;&gt;TravelledWayLink -->
<g id="edge6" class="edge">
<title>TravelledWay&#45;&gt;TravelledWayLink</title>
<path fill="none" stroke="black" stroke-dasharray="5,2" d="M104.67,-173.23C88.18,-151.64 65.68,-113.94 85.88,-89 109.38,-59.98 208.83,-45.9 276.09,-39.59"/>
<polygon fill="black" stroke="black" points="276.27,-43.08 285.92,-38.7 275.64,-36.11 276.27,-43.08"/>
<text xml:space="preserve" text-anchor="middle" x="181.88" y="-103.5" font-family="Arial" font-size="10.00">«only» onProperty: partwhole:hasProperPart</text>
</g>
<!-- Invis&#45;&gt;TransportNetwork -->
<!-- TransportNetwork&#45;&gt;TravelledWayLink -->
</g>
</svg>
