<?xml version="1.0" encoding="UTF-8" standalone="no"?>
<!DOCTYPE svg PUBLIC "-//W3C//DTD SVG 1.1//EN"
 "http://www.w3.org/Graphics/SVG/1.1/DTD/svg11.dtd">
<!-- Generated by graphviz version 13.1.0 (20250701.0955)
 -->
<!-- Pages: 1 -->
<svg width="248pt" height="229pt"
 viewBox="0.00 0.00 248.00 229.00" xmlns="http://www.w3.org/2000/svg" xmlns:xlink="http://www.w3.org/1999/xlink">
<g id="graph0" class="graph" transform="scale(1 1) rotate(0) translate(4 225)">
<polygon fill="white" stroke="none" points="-4,4 -4,-225 244.25,-225 244.25,4 -4,4"/>
<g id="clust2" class="cluster">
<title>cluster_associated</title>
</g>
<!-- TravelledWay -->
<g id="node1" class="node">
<title>TravelledWay</title>
<polygon fill="lightgray" stroke="none" points="4,-194.88 4,-211.12 82.5,-211.12 82.5,-194.88 4,-194.88"/>
<text xml:space="preserve" text-anchor="start" x="5" y="-199.72" font-family="Arial" font-weight="bold" font-size="12.00">TravelledWay</text>
<polygon fill="none" stroke="black" points="3,-193.88 3,-212.12 83.5,-212.12 83.5,-193.88 3,-193.88"/>
</g>
<!-- TravelCorridor -->
<g id="node2" class="node">
<title>TravelCorridor</title>
<polygon fill="lightgray" stroke="none" points="1,-121.88 1,-138.12 85.5,-138.12 85.5,-121.88 1,-121.88"/>
<text xml:space="preserve" text-anchor="start" x="2" y="-126.72" font-family="Arial" font-weight="bold" font-size="12.00">TravelCorridor</text>
<polygon fill="none" stroke="black" points="0,-120.88 0,-139.12 86.5,-139.12 86.5,-120.88 0,-120.88"/>
</g>
<!-- TravelCorridor&#45;&gt;TravelledWay -->
<g id="edge1" class="edge">
<title>TravelCorridor&#45;&gt;TravelledWay</title>
<path fill="none" stroke="black" d="M43.25,-147.71C43.25,-155.47 43.25,-164.92 43.25,-173.74"/>
<polygon fill="none" stroke="black" points="39.75,-173.66 43.25,-183.66 46.75,-173.66 39.75,-173.66"/>
</g>
<!-- Invis -->
<!-- TravelCorridor&#45;&gt;Invis -->
<!-- TravelCorridorLink -->
<g id="node4" class="node">
<title>TravelCorridorLink</title>
<polygon fill="lightgray" stroke="none" points="113.62,-25.88 113.62,-42.12 222.88,-42.12 222.88,-25.88 113.62,-25.88"/>
<text xml:space="preserve" text-anchor="start" x="114.62" y="-30.73" font-family="Arial" font-weight="bold" font-size="12.00">TravelCorridorLink</text>
<polygon fill="none" stroke="black" points="112.62,-24.88 112.62,-43.12 223.88,-43.12 223.88,-24.88 112.62,-24.88"/>
</g>
<!-- TravelCorridor&#45;&gt;TravelCorridorLink -->
<g id="edge4" class="edge">
<title>TravelCorridor&#45;&gt;TravelCorridorLink</title>
<path fill="none" stroke="black" stroke-dasharray="5,2" d="M28.03,-112.15C18.56,-99.56 9.89,-82.45 19.75,-70 30.25,-56.74 67.21,-48 101.63,-42.57"/>
<polygon fill="black" stroke="black" points="101.81,-46.08 111.19,-41.15 100.78,-39.16 101.81,-46.08"/>
<text xml:space="preserve" text-anchor="middle" x="100" y="-84.5" font-family="Arial" font-size="10.00">«min 1, only»</text>
<text xml:space="preserve" text-anchor="middle" x="100" y="-72.5" font-family="Arial" font-size="10.00">onProperty: partwhole:hasProperPart</text>
</g>
<!-- Invis&#45;&gt;TravelCorridorLink -->
</g>
</svg>
