<?xml version="1.0" encoding="UTF-8" standalone="no"?>
<!DOCTYPE svg PUBLIC "-//W3C//DTD SVG 1.1//EN"
 "http://www.w3.org/Graphics/SVG/1.1/DTD/svg11.dtd">
<!-- Generated by graphviz version 13.1.0 (20250701.0955)
 -->
<!-- Pages: 1 -->
<svg width="303pt" height="302pt"
 viewBox="0.00 0.00 303.00 302.00" xmlns="http://www.w3.org/2000/svg" xmlns:xlink="http://www.w3.org/1999/xlink">
<g id="graph0" class="graph" transform="scale(1 1) rotate(0) translate(4 298)">
<polygon fill="white" stroke="none" points="-4,4 -4,-298 299.44,-298 299.44,4 -4,4"/>
<g id="clust2" class="cluster">
<title>cluster_associated</title>
</g>
<!-- TravelledWayLink -->
<g id="node1" class="node">
<title>TravelledWayLink</title>
<polygon fill="lightgray" stroke="none" points="8.82,-267.88 8.82,-284.12 112.07,-284.12 112.07,-267.88 8.82,-267.88"/>
<text xml:space="preserve" text-anchor="start" x="9.82" y="-272.73" font-family="Arial" font-weight="bold" font-size="12.00">TravelledWayLink</text>
<polygon fill="none" stroke="black" points="7.82,-266.88 7.82,-285.12 113.07,-285.12 113.07,-266.88 7.82,-266.88"/>
</g>
<!-- TravelCorridorLink -->
<g id="node2" class="node">
<title>TravelCorridorLink</title>
<polygon fill="lightgray" stroke="none" points="5.82,-194.88 5.82,-211.12 115.07,-211.12 115.07,-194.88 5.82,-194.88"/>
<text xml:space="preserve" text-anchor="start" x="6.82" y="-199.72" font-family="Arial" font-weight="bold" font-size="12.00">TravelCorridorLink</text>
<polygon fill="none" stroke="black" points="4.82,-193.88 4.82,-212.12 116.07,-212.12 116.07,-193.88 4.82,-193.88"/>
</g>
<!-- TravelCorridorLink&#45;&gt;TravelledWayLink -->
<g id="edge1" class="edge">
<title>TravelCorridorLink&#45;&gt;TravelledWayLink</title>
<path fill="none" stroke="black" d="M60.44,-220.71C60.44,-228.47 60.44,-237.92 60.44,-246.74"/>
<polygon fill="none" stroke="black" points="56.94,-246.66 60.44,-256.66 63.94,-246.66 56.94,-246.66"/>
</g>
<!-- Invis -->
<!-- TravelCorridorLink&#45;&gt;Invis -->
<!-- TravelCorridor -->
<g id="node4" class="node">
<title>TravelCorridor</title>
<polygon fill="lightgray" stroke="none" points="178.19,-98.88 178.19,-115.12 262.69,-115.12 262.69,-98.88 178.19,-98.88"/>
<text xml:space="preserve" text-anchor="start" x="179.19" y="-103.72" font-family="Arial" font-weight="bold" font-size="12.00">TravelCorridor</text>
<polygon fill="none" stroke="black" points="177.19,-97.88 177.19,-116.12 263.69,-116.12 263.69,-97.88 177.19,-97.88"/>
</g>
<!-- TravelCorridorLink&#45;&gt;TravelCorridor -->
<g id="edge6" class="edge">
<title>TravelCorridorLink&#45;&gt;TravelCorridor</title>
<path fill="none" stroke="black" stroke-dasharray="5,2" d="M54.01,-185.02C50.29,-172.02 48.04,-154.44 57.69,-143 73.07,-124.78 140.23,-130.42 163.44,-125 164.43,-124.77 165.43,-124.53 166.43,-124.29"/>
<polygon fill="black" stroke="black" points="167.07,-127.74 175.86,-121.84 165.31,-120.96 167.07,-127.74"/>
<text xml:space="preserve" text-anchor="middle" x="134.57" y="-157.5" font-family="Arial" font-size="10.00">«only»</text>
<text xml:space="preserve" text-anchor="middle" x="134.57" y="-145.5" font-family="Arial" font-size="10.00">onProperty: partwhole:properPartOf</text>
</g>
<!-- TravelCorridorSegment -->
<g id="node5" class="node">
<title>TravelCorridorSegment</title>
<polygon fill="lightgray" stroke="none" points="142.69,-25.88 142.69,-42.12 278.19,-42.12 278.19,-25.88 142.69,-25.88"/>
<text xml:space="preserve" text-anchor="start" x="143.69" y="-30.73" font-family="Arial" font-weight="bold" font-size="12.00">TravelCorridorSegment</text>
<polygon fill="none" stroke="black" points="141.69,-24.88 141.69,-43.12 279.19,-43.12 279.19,-24.88 141.69,-24.88"/>
</g>
<!-- TravelCorridorLink&#45;&gt;TravelCorridorSegment -->
<g id="edge5" class="edge">
<title>TravelCorridorLink&#45;&gt;TravelCorridorSegment</title>
<path fill="none" stroke="black" stroke-dasharray="5,2" d="M41.87,-185.03C18.64,-161.76 -15.38,-119.36 7.94,-89 23.22,-69.12 80.74,-54.99 130.59,-46.19"/>
<polygon fill="black" stroke="black" points="130.99,-49.67 140.26,-44.53 129.81,-42.77 130.99,-49.67"/>
<text xml:space="preserve" text-anchor="middle" x="88.19" y="-109.5" font-family="Arial" font-size="10.00">«min 1, only»</text>
<text xml:space="preserve" text-anchor="middle" x="88.19" y="-97.5" font-family="Arial" font-size="10.00">onProperty: partwhole:hasProperPart</text>
</g>
<!-- Invis&#45;&gt;TravelCorridor -->
<!-- TravelCorridor&#45;&gt;TravelCorridorSegment -->
</g>
</svg>
