<?xml version="1.0" encoding="UTF-8" standalone="no"?>
<!DOCTYPE svg PUBLIC "-//W3C//DTD SVG 1.1//EN"
 "http://www.w3.org/Graphics/SVG/1.1/DTD/svg11.dtd">
<!-- Generated by graphviz version 13.1.0 (20250701.0955)
 -->
<!-- Pages: 1 -->
<svg width="419pt" height="374pt"
 viewBox="0.00 0.00 419.00 374.00" xmlns="http://www.w3.org/2000/svg" xmlns:xlink="http://www.w3.org/1999/xlink">
<g id="graph0" class="graph" transform="scale(1 1) rotate(0) translate(4 370)">
<polygon fill="white" stroke="none" points="-4,4 -4,-370 414.88,-370 414.88,4 -4,4"/>
<g id="clust2" class="cluster">
<title>cluster_associated</title>
</g>
<!-- NetworkElement -->
<g id="node1" class="node">
<title>NetworkElement</title>
<polygon fill="lightgray" stroke="none" points="1,-339.88 1,-356.12 96.75,-356.12 96.75,-339.88 1,-339.88"/>
<text xml:space="preserve" text-anchor="start" x="2" y="-344.73" font-family="Arial" font-weight="bold" font-style="italic" font-size="12.00">NetworkElement</text>
<polygon fill="none" stroke="black" points="0,-338.88 0,-357.12 97.75,-357.12 97.75,-338.88 0,-338.88"/>
</g>
<!-- TravelledWaySection -->
<g id="node2" class="node">
<title>TravelledWaySection</title>
<polygon fill="lightgray" stroke="none" points="1.88,-255.88 1.88,-272.12 123.88,-272.12 123.88,-255.88 1.88,-255.88"/>
<text xml:space="preserve" text-anchor="start" x="2.88" y="-260.73" font-family="Arial" font-weight="bold" font-size="12.00">TravelledWaySection</text>
<polygon fill="none" stroke="black" points="0.88,-254.88 0.88,-273.12 124.88,-273.12 124.88,-254.88 0.88,-254.88"/>
</g>
<!-- TravelledWaySection&#45;&gt;NetworkElement -->
<g id="edge1" class="edge">
<title>TravelledWaySection&#45;&gt;NetworkElement</title>
<path fill="none" stroke="black" d="M59.98,-281.97C58.16,-292.63 55.77,-306.64 53.67,-318.92"/>
<polygon fill="none" stroke="black" points="50.26,-318.07 52.03,-328.52 57.16,-319.25 50.26,-318.07"/>
</g>
<!-- Invis -->
<!-- TravelledWaySection&#45;&gt;Invis -->
<!-- TransportNetwork -->
<g id="node4" class="node">
<title>TransportNetwork</title>
<polygon fill="lightgray" stroke="none" points="155.5,-171.88 155.5,-188.12 260.25,-188.12 260.25,-171.88 155.5,-171.88"/>
<text xml:space="preserve" text-anchor="start" x="156.5" y="-176.72" font-family="Arial" font-weight="bold" font-size="12.00">TransportNetwork</text>
<polygon fill="none" stroke="black" points="154.5,-170.88 154.5,-189.12 261.25,-189.12 261.25,-170.88 154.5,-170.88"/>
</g>
<!-- TravelledWaySection&#45;&gt;TransportNetwork -->
<g id="edge9" class="edge">
<title>TravelledWaySection&#45;&gt;TransportNetwork</title>
<path fill="none" stroke="black" stroke-dasharray="5,2" d="M30.77,-246.14C18.33,-237.42 8.93,-226.44 17.62,-216 33.54,-196.89 94.73,-188.17 143.48,-184.23"/>
<polygon fill="black" stroke="black" points="143.71,-187.72 153.42,-183.48 143.19,-180.74 143.71,-187.72"/>
<text xml:space="preserve" text-anchor="middle" x="125.25" y="-218.5" font-family="Arial" font-size="10.00">«min 1, only» onProperty: partwhole:properPartOf</text>
</g>
<!-- Union_partwhole_hasProperPart -->
<g id="node7" class="node">
<title>Union_partwhole_hasProperPart</title>
<polygon fill="lightyellow" stroke="none" points="166.88,-331.75 166.88,-364.25 410.88,-364.25 410.88,-331.75 166.88,-331.75"/>
<text xml:space="preserve" text-anchor="start" x="261.12" y="-350.85" font-family="Arial" font-size="12.00">«unionOf»</text>
<text xml:space="preserve" text-anchor="start" x="168.88" y="-336.6" font-family="Arial" font-size="12.00">[TravelledWayLink or TravelledWaySegment]</text>
<polygon fill="none" stroke="black" points="166.88,-331.75 166.88,-364.25 410.88,-364.25 410.88,-331.75 166.88,-331.75"/>
</g>
<!-- TravelledWaySection&#45;&gt;Union_partwhole_hasProperPart -->
<g id="edge8" class="edge">
<title>TravelledWaySection&#45;&gt;Union_partwhole_hasProperPart</title>
<path fill="none" stroke="black" stroke-dasharray="5,2" d="M65.82,-281.83C68.51,-292.1 73.55,-304.64 82.88,-312 95.5,-321.97 124.12,-329.24 156.13,-334.47"/>
<polygon fill="black" stroke="black" points="155.18,-337.87 165.6,-335.94 156.25,-330.95 155.18,-337.87"/>
<text xml:space="preserve" text-anchor="middle" x="178.88" y="-302.5" font-family="Arial" font-size="10.00">«only» onProperty: partwhole:hasProperPart</text>
</g>
<!-- Invis&#45;&gt;TransportNetwork -->
<!-- TravelledWayLink -->
<g id="node5" class="node">
<title>TravelledWayLink</title>
<polygon fill="lightgray" stroke="none" points="169.25,-98.88 169.25,-115.12 272.5,-115.12 272.5,-98.88 169.25,-98.88"/>
<text xml:space="preserve" text-anchor="start" x="170.25" y="-103.72" font-family="Arial" font-weight="bold" font-size="12.00">TravelledWayLink</text>
<polygon fill="none" stroke="black" points="168.25,-97.88 168.25,-116.12 273.5,-116.12 273.5,-97.88 168.25,-97.88"/>
</g>
<!-- TransportNetwork&#45;&gt;TravelledWayLink -->
<!-- TravelledWaySegment -->
<g id="node6" class="node">
<title>TravelledWaySegment</title>
<polygon fill="lightgray" stroke="none" points="156.12,-25.88 156.12,-42.12 285.62,-42.12 285.62,-25.88 156.12,-25.88"/>
<text xml:space="preserve" text-anchor="start" x="157.12" y="-30.73" font-family="Arial" font-weight="bold" font-size="12.00">TravelledWaySegment</text>
<polygon fill="none" stroke="black" points="155.12,-24.88 155.12,-43.12 286.62,-43.12 286.62,-24.88 155.12,-24.88"/>
</g>
<!-- TravelledWayLink&#45;&gt;TravelledWaySegment -->
<!-- Union_partwhole_hasProperPart&#45;&gt;TravelledWayLink -->
<g id="edge6" class="edge">
<title>Union_partwhole_hasProperPart&#45;&gt;TravelledWayLink</title>
<path fill="none" stroke="black" stroke-dasharray="1,5" d="M290.54,-330.03C293.14,-296.35 295.46,-219.35 269.88,-162 265.08,-151.25 257.3,-141.18 249.34,-132.72"/>
<polygon fill="black" stroke="black" points="252.05,-130.48 242.49,-125.9 247.11,-135.44 252.05,-130.48"/>
<text xml:space="preserve" text-anchor="middle" x="305.41" y="-218.5" font-family="Arial" font-size="10.00">member</text>
</g>
<!-- Union_partwhole_hasProperPart&#45;&gt;TravelledWaySegment -->
<g id="edge7" class="edge">
<title>Union_partwhole_hasProperPart&#45;&gt;TravelledWaySegment</title>
<path fill="none" stroke="black" stroke-dasharray="1,5" d="M306.64,-330.25C321.02,-314.82 338.88,-290.51 338.88,-265 338.88,-265 338.88,-265 338.88,-106 338.88,-81.32 319.69,-65 296.79,-54.31"/>
<polygon fill="black" stroke="black" points="298.4,-51.19 287.83,-50.51 295.67,-57.64 298.4,-51.19"/>
<text xml:space="preserve" text-anchor="middle" x="356.5" y="-176.5" font-family="Arial" font-size="10.00">member</text>
</g>
</g>
</svg>
