<?xml version="1.0" encoding="UTF-8" standalone="no"?>
<!DOCTYPE svg PUBLIC "-//W3C//DTD SVG 1.1//EN"
 "http://www.w3.org/Graphics/SVG/1.1/DTD/svg11.dtd">
<!-- Generated by graphviz version 13.1.0 (20250701.0955)
 -->
<!-- Pages: 1 -->
<svg width="359pt" height="302pt"
 viewBox="0.00 0.00 359.00 302.00" xmlns="http://www.w3.org/2000/svg" xmlns:xlink="http://www.w3.org/1999/xlink">
<g id="graph0" class="graph" transform="scale(1 1) rotate(0) translate(4 298)">
<polygon fill="white" stroke="none" points="-4,4 -4,-298 354.88,-298 354.88,4 -4,4"/>
<g id="clust2" class="cluster">
<title>cluster_associated</title>
</g>
<!-- NetworkElement -->
<g id="node1" class="node">
<title>NetworkElement</title>
<polygon fill="lightgray" stroke="none" points="1,-267.88 1,-284.12 96.75,-284.12 96.75,-267.88 1,-267.88"/>
<text xml:space="preserve" text-anchor="start" x="2" y="-272.73" font-family="Arial" font-weight="bold" font-style="italic" font-size="12.00">NetworkElement</text>
<polygon fill="none" stroke="black" points="0,-266.88 0,-285.12 97.75,-285.12 97.75,-266.88 0,-266.88"/>
</g>
<!-- transinfras_TravelledWay -->
<g id="node2" class="node">
<title>transinfras_TravelledWay</title>
<polygon fill="lightgray" stroke="none" points="117,-267.88 117,-284.12 260.75,-284.12 260.75,-267.88 117,-267.88"/>
<text xml:space="preserve" text-anchor="start" x="118" y="-272.73" font-family="Arial" font-weight="bold" font-size="12.00">transinfras:TravelledWay</text>
<polygon fill="none" stroke="black" points="116,-266.88 116,-285.12 261.75,-285.12 261.75,-266.88 116,-266.88"/>
</g>
<!-- TravelledWay -->
<g id="node3" class="node">
<title>TravelledWay</title>
<polygon fill="lightgray" stroke="none" points="26,-203 26,-219.25 211.75,-219.25 211.75,-203 26,-203"/>
<text xml:space="preserve" text-anchor="start" x="80.62" y="-207.85" font-family="Arial" font-weight="bold" font-size="12.00">TravelledWay</text>
<text xml:space="preserve" text-anchor="start" x="27" y="-190.6" font-family="Arial" font-size="12.00">designator: string «exactly 1, only»</text>
<polygon fill="none" stroke="black" points="25,-185.75 25,-220.25 212.75,-220.25 212.75,-185.75 25,-185.75"/>
</g>
<!-- TravelledWay&#45;&gt;NetworkElement -->
<g id="edge1" class="edge">
<title>TravelledWay&#45;&gt;NetworkElement</title>
<path fill="none" stroke="black" d="M102.41,-220.71C93.79,-229.44 83.08,-240.31 73.5,-250.02"/>
<polygon fill="none" stroke="black" points="71.06,-247.52 66.53,-257.1 76.04,-252.43 71.06,-247.52"/>
</g>
<!-- TravelledWay&#45;&gt;transinfras_TravelledWay -->
<g id="edge2" class="edge">
<title>TravelledWay&#45;&gt;transinfras_TravelledWay</title>
<path fill="none" stroke="black" d="M135.34,-220.71C143.96,-229.44 154.67,-240.31 164.25,-250.02"/>
<polygon fill="none" stroke="black" points="161.71,-252.43 171.22,-257.1 166.69,-247.52 161.71,-252.43"/>
</g>
<!-- Invis -->
<!-- TravelledWay&#45;&gt;Invis -->
<!-- TransportNetwork -->
<g id="node5" class="node">
<title>TransportNetwork</title>
<polygon fill="lightgray" stroke="none" points="229.5,-98.88 229.5,-115.12 334.25,-115.12 334.25,-98.88 229.5,-98.88"/>
<text xml:space="preserve" text-anchor="start" x="230.5" y="-103.72" font-family="Arial" font-weight="bold" font-size="12.00">TransportNetwork</text>
<polygon fill="none" stroke="black" points="228.5,-97.88 228.5,-116.12 335.25,-116.12 335.25,-97.88 228.5,-97.88"/>
</g>
<!-- TravelledWay&#45;&gt;TransportNetwork -->
<g id="edge7" class="edge">
<title>TravelledWay&#45;&gt;TransportNetwork</title>
<path fill="none" stroke="black" stroke-dasharray="5,2" d="M114.41,-185.24C112.02,-172.19 111.31,-154.43 121.12,-143 148.77,-110.81 173.46,-134.22 214.88,-125 215.71,-124.81 216.55,-124.63 217.39,-124.43"/>
<polygon fill="black" stroke="black" points="218.13,-127.86 227.08,-122.18 216.54,-121.04 218.13,-127.86"/>
<text xml:space="preserve" text-anchor="middle" x="198" y="-157.5" font-family="Arial" font-size="10.00">«min 1, only»</text>
<text xml:space="preserve" text-anchor="middle" x="198" y="-145.5" font-family="Arial" font-size="10.00">onProperty: partwhole:properPartOf</text>
</g>
<!-- TravelledWayLink -->
<g id="node6" class="node">
<title>TravelledWayLink</title>
<polygon fill="lightgray" stroke="none" points="230.25,-25.88 230.25,-42.12 333.5,-42.12 333.5,-25.88 230.25,-25.88"/>
<text xml:space="preserve" text-anchor="start" x="231.25" y="-30.73" font-family="Arial" font-weight="bold" font-size="12.00">TravelledWayLink</text>
<polygon fill="none" stroke="black" points="229.25,-24.88 229.25,-43.12 334.5,-43.12 334.5,-24.88 229.25,-24.88"/>
</g>
<!-- TravelledWay&#45;&gt;TravelledWayLink -->
<g id="edge6" class="edge">
<title>TravelledWay&#45;&gt;TravelledWayLink</title>
<path fill="none" stroke="black" stroke-dasharray="5,2" d="M98.44,-185.17C72.85,-162.06 35.12,-119.85 59.38,-89 78.84,-64.25 159.44,-49.45 218.04,-41.77"/>
<polygon fill="black" stroke="black" points="218.46,-45.24 227.94,-40.51 217.58,-38.3 218.46,-45.24"/>
<text xml:space="preserve" text-anchor="middle" x="139.62" y="-109.5" font-family="Arial" font-size="10.00">«only»</text>
<text xml:space="preserve" text-anchor="middle" x="139.62" y="-97.5" font-family="Arial" font-size="10.00">onProperty: partwhole:hasProperPart</text>
</g>
<!-- Invis&#45;&gt;TransportNetwork -->
<!-- TransportNetwork&#45;&gt;TravelledWayLink -->
</g>
</svg>
