<?xml version="1.0" encoding="UTF-8" standalone="no"?>
<!DOCTYPE svg PUBLIC "-//W3C//DTD SVG 1.1//EN"
 "http://www.w3.org/Graphics/SVG/1.1/DTD/svg11.dtd">
<!-- Generated by graphviz version 13.1.0 (20250701.0955)
 -->
<!-- Pages: 1 -->
<svg width="361pt" height="290pt"
 viewBox="0.00 0.00 361.00 290.00" xmlns="http://www.w3.org/2000/svg" xmlns:xlink="http://www.w3.org/1999/xlink">
<g id="graph0" class="graph" transform="scale(1 1) rotate(0) translate(4 286)">
<polygon fill="white" stroke="none" points="-4,4 -4,-286 357.24,-286 357.24,4 -4,4"/>
<g id="clust2" class="cluster">
<title>cluster_associated</title>
</g>
<!-- TravelledWayLink -->
<g id="node1" class="node">
<title>TravelledWayLink</title>
<polygon fill="lightgray" stroke="none" points="38.61,-255.88 38.61,-272.12 141.86,-272.12 141.86,-255.88 38.61,-255.88"/>
<text xml:space="preserve" text-anchor="start" x="39.61" y="-260.73" font-family="Arial" font-weight="bold" font-size="12.00">TravelledWayLink</text>
<polygon fill="none" stroke="black" points="37.61,-254.88 37.61,-273.12 142.86,-273.12 142.86,-254.88 37.61,-254.88"/>
</g>
<!-- TravelCorridorLink -->
<g id="node2" class="node">
<title>TravelCorridorLink</title>
<polygon fill="lightgray" stroke="none" points="35.61,-182.88 35.61,-199.12 144.86,-199.12 144.86,-182.88 35.61,-182.88"/>
<text xml:space="preserve" text-anchor="start" x="36.61" y="-187.72" font-family="Arial" font-weight="bold" font-size="12.00">TravelCorridorLink</text>
<polygon fill="none" stroke="black" points="34.61,-181.88 34.61,-200.12 145.86,-200.12 145.86,-181.88 34.61,-181.88"/>
</g>
<!-- TravelCorridorLink&#45;&gt;TravelledWayLink -->
<g id="edge1" class="edge">
<title>TravelCorridorLink&#45;&gt;TravelledWayLink</title>
<path fill="none" stroke="black" d="M90.24,-208.71C90.24,-216.47 90.24,-225.92 90.24,-234.74"/>
<polygon fill="none" stroke="black" points="86.74,-234.66 90.24,-244.66 93.74,-234.66 86.74,-234.66"/>
</g>
<!-- Invis -->
<!-- TravelCorridorLink&#45;&gt;Invis -->
<!-- TravelCorridor -->
<g id="node4" class="node">
<title>TravelCorridor</title>
<polygon fill="lightgray" stroke="none" points="238.99,-98.88 238.99,-115.12 323.49,-115.12 323.49,-98.88 238.99,-98.88"/>
<text xml:space="preserve" text-anchor="start" x="239.99" y="-103.72" font-family="Arial" font-weight="bold" font-size="12.00">TravelCorridor</text>
<polygon fill="none" stroke="black" points="237.99,-97.88 237.99,-116.12 324.49,-116.12 324.49,-97.88 237.99,-97.88"/>
</g>
<!-- TravelCorridorLink&#45;&gt;TravelCorridor -->
<g id="edge6" class="edge">
<title>TravelCorridorLink&#45;&gt;TravelCorridor</title>
<path fill="none" stroke="black" stroke-dasharray="5,2" d="M83.68,-173.31C80.95,-163.36 79.87,-151.12 86.99,-143 107.28,-119.88 194.15,-131.42 224.24,-125 225.23,-124.79 226.24,-124.57 227.24,-124.34"/>
<polygon fill="black" stroke="black" points="227.83,-127.8 236.7,-122 226.15,-121 227.83,-127.8"/>
<text xml:space="preserve" text-anchor="middle" x="179.61" y="-145.5" font-family="Arial" font-size="10.00">«only» onProperty: partwhole:properPartOf</text>
</g>
<!-- TravelCorridorSegment -->
<g id="node5" class="node">
<title>TravelCorridorSegment</title>
<polygon fill="lightgray" stroke="none" points="200.49,-25.88 200.49,-42.12 335.99,-42.12 335.99,-25.88 200.49,-25.88"/>
<text xml:space="preserve" text-anchor="start" x="201.49" y="-30.73" font-family="Arial" font-weight="bold" font-size="12.00">TravelCorridorSegment</text>
<polygon fill="none" stroke="black" points="199.49,-24.88 199.49,-43.12 336.99,-43.12 336.99,-24.88 199.49,-24.88"/>
</g>
<!-- TravelCorridorLink&#45;&gt;TravelCorridorSegment -->
<g id="edge5" class="edge">
<title>TravelCorridorLink&#45;&gt;TravelCorridorSegment</title>
<path fill="none" stroke="black" stroke-dasharray="5,2" d="M59.31,-173.06C26.69,-153.03 -16.91,-118.65 7.24,-89 29.83,-61.26 120.37,-47.33 188.52,-40.64"/>
<polygon fill="black" stroke="black" points="188.54,-44.16 198.17,-39.74 187.88,-37.19 188.54,-44.16"/>
<text xml:space="preserve" text-anchor="middle" x="118.24" y="-103.5" font-family="Arial" font-size="10.00">«min 1, only» onProperty: partwhole:hasProperPart</text>
</g>
<!-- Invis&#45;&gt;TravelCorridor -->
<!-- TravelCorridor&#45;&gt;TravelCorridorSegment -->
</g>
</svg>
