<?xml version="1.0" encoding="UTF-8" standalone="no"?>
<!DOCTYPE svg PUBLIC "-//W3C//DTD SVG 1.1//EN"
 "http://www.w3.org/Graphics/SVG/1.1/DTD/svg11.dtd">
<!-- Generated by graphviz version 14.0.2 (20251019.1705)
 -->
<!-- Pages: 1 -->
<svg width="266pt" height="132pt"
 viewBox="0.00 0.00 266.00 132.00" xmlns="http://www.w3.org/2000/svg" xmlns:xlink="http://www.w3.org/1999/xlink">
<g id="graph0" class="graph" transform="scale(1 1) rotate(0) translate(4 128)">
<polygon fill="white" stroke="none" points="-4,4 -4,-128 261.62,-128 261.62,4 -4,4"/>
<g id="clust2" class="cluster">
<title>cluster_associated</title>
</g>
<!-- TravelCorridorLink -->
<g id="node1" class="node">
<title>TravelCorridorLink</title>
<g id="a_node1"><a xlink:href="../TravelCorridorLink.md" xlink:title="&lt;TABLE&gt;">
<polygon fill="lightgray" stroke="none" points="67.12,-25.88 67.12,-42.12 168.12,-42.12 168.12,-25.88 67.12,-25.88"/>
<text xml:space="preserve" text-anchor="start" x="68.12" y="-29.73" font-family="Arial" font-size="12.00">TravelCorridorLink</text>
<polygon fill="none" stroke="black" points="66.12,-24.88 66.12,-43.12 169.12,-43.12 169.12,-24.88 66.12,-24.88"/>
</a>
</g>
</g>
<!-- TravelCorridorThing -->
<g id="node3" class="node">
<title>TravelCorridorThing</title>
<polygon fill="lightgray" stroke="none" points="1,-97.88 1,-114.12 110.25,-114.12 110.25,-97.88 1,-97.88"/>
<text xml:space="preserve" text-anchor="start" x="2" y="-101.72" font-family="Arial" font-size="12.00">TravelCorridorThing</text>
<polygon fill="none" stroke="black" points="0,-96.88 0,-115.12 111.25,-115.12 111.25,-96.88 0,-96.88"/>
</g>
<!-- TravelCorridorLink&#45;&gt;TravelCorridorThing -->
<g id="edge1" class="edge">
<title>TravelCorridorLink&#45;&gt;TravelCorridorThing</title>
<path fill="none" stroke="black" d="M102.75,-51.79C95.39,-60.11 86.34,-70.32 78.14,-79.58"/>
<polygon fill="none" stroke="black" points="75.65,-77.12 71.64,-86.92 80.89,-81.76 75.65,-77.12"/>
</g>
<!-- TravelledWayLink -->
<g id="node4" class="node">
<title>TravelledWayLink</title>
<g id="a_node4"><a xlink:href="../TravelledWayLink.md" xlink:title="&lt;TABLE&gt;">
<polygon fill="lightgray" stroke="none" points="130.62,-97.88 130.62,-114.12 228.62,-114.12 228.62,-97.88 130.62,-97.88"/>
<text xml:space="preserve" text-anchor="start" x="131.62" y="-101.72" font-family="Arial" font-size="12.00">TravelledWayLink</text>
<polygon fill="none" stroke="black" points="129.62,-96.88 129.62,-115.12 229.62,-115.12 229.62,-96.88 129.62,-96.88"/>
</a>
</g>
</g>
<!-- TravelCorridorLink&#45;&gt;TravelledWayLink -->
<g id="edge2" class="edge">
<title>TravelCorridorLink&#45;&gt;TravelledWayLink</title>
<path fill="none" stroke="black" d="M132.5,-51.79C139.86,-60.11 148.91,-70.32 157.11,-79.58"/>
<polygon fill="none" stroke="black" points="154.36,-81.76 163.61,-86.92 159.6,-77.12 154.36,-81.76"/>
</g>
<!-- Invis -->
</g>
</svg>
