<?xml version="1.0" encoding="UTF-8" standalone="no"?>
<!DOCTYPE svg PUBLIC "-//W3C//DTD SVG 1.1//EN"
 "http://www.w3.org/Graphics/SVG/1.1/DTD/svg11.dtd">
<!-- Generated by graphviz version 14.0.2 (20251019.1705)
 -->
<!-- Pages: 1 -->
<svg width="319pt" height="159pt"
 viewBox="0.00 0.00 319.00 159.00" xmlns="http://www.w3.org/2000/svg" xmlns:xlink="http://www.w3.org/1999/xlink">
<g id="graph0" class="graph" transform="scale(1 1) rotate(0) translate(4 155)">
<polygon fill="white" stroke="none" points="-4,4 -4,-155 314.62,-155 314.62,4 -4,4"/>
<g id="clust2" class="cluster">
<title>cluster_associated</title>
</g>
<!-- TravelCorridorSegment -->
<g id="node1" class="node">
<title>TravelCorridorSegment</title>
<g id="a_node1"><a xlink:href="../TravelCorridorSegment.md" xlink:title="&lt;TABLE&gt;">
<polygon fill="lightgray" stroke="none" points="95.38,-25.88 95.38,-42.12 221.88,-42.12 221.88,-25.88 95.38,-25.88"/>
<text xml:space="preserve" text-anchor="start" x="96.38" y="-29.73" font-family="Arial" font-size="12.00">TravelCorridorSegment</text>
<polygon fill="none" stroke="black" points="94.38,-24.88 94.38,-43.12 222.88,-43.12 222.88,-24.88 94.38,-24.88"/>
</a>
</g>
</g>
<!-- TravelCorridorThing -->
<g id="node3" class="node">
<title>TravelCorridorThing</title>
<polygon fill="lightgray" stroke="none" points="1,-124.88 1,-141.12 110.25,-141.12 110.25,-124.88 1,-124.88"/>
<text xml:space="preserve" text-anchor="start" x="2" y="-128.72" font-family="Arial" font-size="12.00">TravelCorridorThing</text>
<polygon fill="none" stroke="black" points="0,-123.88 0,-142.12 111.25,-142.12 111.25,-123.88 0,-123.88"/>
</g>
<!-- TravelCorridorSegment&#45;&gt;TravelCorridorThing -->
<g id="edge1" class="edge">
<title>TravelCorridorSegment&#45;&gt;TravelCorridorThing</title>
<path fill="none" stroke="black" d="M140.89,-51.7C124.64,-67.01 100.36,-89.87 81.86,-107.29"/>
<polygon fill="none" stroke="black" points="79.55,-104.66 74.67,-114.07 84.35,-109.76 79.55,-104.66"/>
</g>
<!-- TravelledWaySegment -->
<g id="node4" class="node">
<title>TravelledWaySegment</title>
<g id="a_node4"><a xlink:href="../TravelledWaySegment.md" xlink:title="&lt;TABLE&gt;">
<polygon fill="lightgray" stroke="none" points="129.88,-124.88 129.88,-141.12 253.38,-141.12 253.38,-124.88 129.88,-124.88"/>
<text xml:space="preserve" text-anchor="start" x="130.88" y="-128.72" font-family="Arial" font-size="12.00">TravelledWaySegment</text>
<polygon fill="none" stroke="black" points="128.88,-123.88 128.88,-142.12 254.38,-142.12 254.38,-123.88 128.88,-123.88"/>
</a>
</g>
</g>
<!-- TravelCorridorSegment&#45;&gt;TravelledWaySegment -->
<g id="edge2" class="edge">
<title>TravelCorridorSegment&#45;&gt;TravelledWaySegment</title>
<path fill="none" stroke="black" d="M161.15,-51.94C163.35,-64.62 167.07,-82.23 172.62,-97 173.65,-99.72 174.85,-102.49 176.13,-105.22"/>
<polygon fill="none" stroke="black" points="172.98,-106.73 180.68,-114.01 179.2,-103.52 172.98,-106.73"/>
</g>
<!-- TravelCorridorSegment&#45;&gt;TravelledWaySegment -->
<g id="edge3" class="edge">
<title>TravelCorridorSegment&#45;&gt;TravelledWaySegment</title>
<path fill="none" stroke="black" d="M164.31,-51.7C169.26,-66.25 176.52,-87.61 182.32,-104.65"/>
<polygon fill="black" stroke="black" points="178.86,-105.33 185.39,-113.67 185.48,-103.08 178.86,-105.33"/>
<text xml:space="preserve" text-anchor="middle" x="220.3" y="-86.55" font-family="Arial" font-size="11.00"> corridorElement </text>
<text xml:space="preserve" text-anchor="middle" x="220.3" y="-73.05" font-family="Arial" font-size="11.00"> «min 1» &#160;</text>
</g>
<!-- Invis -->
</g>
</svg>
